/* XPM */
static char * archerw1_xpm[] = {
"64 64 15 1",
" 	c None",
".	c #060608",
"+	c #8B93AF",
"@	c #6D758D",
"#	c #C7B08B",
"$	c #DAE0EA",
"%	c #E4D2AA",
"&	c #5A4E44",
"*	c #423934",
"=	c #B3B9D1",
"-	c #285CC4",
";	c #BB7547",
">	c #143464",
",	c #71413B",
"'	c #322B28",
"                                                                ",
"                                                                ",
"                                                                ",
"                                                                ",
"                                                                ",
"                                                                ",
"                                                                ",
"                                                                ",
"                                                                ",
"                                                                ",
"                                                                ",
"                                                                ",
"                        ........                                ",
"                        ........                                ",
"                        ........                                ",
"                        ........                                ",
"                    ....++++@@@@....                            ",
"                    ....++++@@@@....                            ",
"                    ....++++@@@@....                            ",
"                    ....++++@@@@....                            ",
"            ............++++####....    ....                    ",
"            ............++++####....    ....                    ",
"            ............++++####....    ....                    ",
"            ............++++####....    ....                    ",
"        ....$$$$........@@@@%%%%........&&&&....                ",
"        ....$$$$........@@@@%%%%........&&&&....                ",
"        ....$$$$........@@@@%%%%........&&&&....                ",
"        ....$$$$........@@@@%%%%........&&&&....                ",
"        ................@@@@............****&&&&....            ",
"        ................@@@@............****&&&&....            ",
"        ................@@@@............****&&&&....            ",
"        ................@@@@............****&&&&....            ",
"        ....====----;;;;;;;;;;;;;;;;;;;;;;;;;;;;....            ",
"        ....====----;;;;;;;;;;;;;;;;;;;;;;;;;;;;....            ",
"        ....====----;;;;;;;;;;;;;;;;;;;;;;;;;;;;....            ",
"        ....====----;;;;;;;;;;;;;;;;;;;;;;;;;;;;....            ",
"            ....>>>>%%%%,,,,,,,,%%%%,,,,,,,,&&&&....            ",
"            ....>>>>%%%%,,,,,,,,%%%%,,,,,,,,&&&&....            ",
"            ....>>>>%%%%,,,,,,,,%%%%,,,,,,,,&&&&....            ",
"            ....>>>>%%%%,,,,,,,,%%%%,,,,,,,,&&&&....            ",
"                ........................&&&&''''....            ",
"                ........................&&&&''''....            ",
"                ........................&&&&''''....            ",
"                ........................&&&&''''....            ",
"                ........>>>>>>>>........''''....                ",
"                ........>>>>>>>>........''''....                ",
"                ........>>>>>>>>........''''....                ",
"                ........>>>>>>>>........''''....                ",
"                ....----........----........                    ",
"                ....----........----........                    ",
"                ....----........----........                    ",
"                ....----........----........                    ",
"                    ....****....****....                        ",
"                    ....****....****....                        ",
"                    ....****....****....                        ",
"                    ....****....****....                        ",
"                                                                ",
"                                                                ",
"                                                                ",
"                                                                ",
"                                                                ",
"                                                                ",
"                                                                ",
"                                                                "};
