/* XPM */
static char * arrow2_xpm[] = {
"60 60 5 1",
" 	c None",
".	c #DEEED6",
"+	c #333333",
"@	c #A63F48",
"#	c #BD515A",
"                                                            ",
"                                                            ",
"                                                            ",
"                                                            ",
"                                                            ",
"                         ....................               ",
"                         ....................               ",
"                         ....................               ",
"                         ....................               ",
"                         ....................               ",
"                    .....++++++++++++++++++++.....          ",
"                    .....++++++++++++++++++++.....          ",
"                    .....++++++++++++++++++++.....          ",
"                    .....++++++++++++++++++++.....          ",
"                    .....++++++++++++++++++++.....          ",
"               .....+++++@@@@@##########@@@@@+++++.....     ",
"               .....+++++@@@@@##########@@@@@+++++.....     ",
"               .....+++++@@@@@##########@@@@@+++++.....     ",
"               .....+++++@@@@@##########@@@@@+++++.....     ",
"               .....+++++@@@@@##########@@@@@+++++.....     ",
"          .....+++++@@@@@####################+++++.....     ",
"          .....+++++@@@@@####################+++++.....     ",
"          .....+++++@@@@@####################+++++.....     ",
"          .....+++++@@@@@####################+++++.....     ",
"          .....+++++@@@@@####################+++++.....     ",
"     .....+++++##############################+++++.....     ",
"     .....+++++##############################+++++.....     ",
"     .....+++++##############################+++++.....     ",
"     .....+++++##############################+++++.....     ",
"     .....+++++##############################+++++.....     ",
"     .....+++++##############################+++++.....     ",
"     .....+++++##############################+++++.....     ",
"     .....+++++##############################+++++.....     ",
"     .....+++++##############################+++++.....     ",
"     .....+++++##############################+++++.....     ",
"          .....+++++@@@@@####################+++++.....     ",
"          .....+++++@@@@@####################+++++.....     ",
"          .....+++++@@@@@####################+++++.....     ",
"          .....+++++@@@@@####################+++++.....     ",
"          .....+++++@@@@@####################+++++.....     ",
"               .....+++++@@@@@##########@@@@@+++++.....     ",
"               .....+++++@@@@@##########@@@@@+++++.....     ",
"               .....+++++@@@@@##########@@@@@+++++.....     ",
"               .....+++++@@@@@##########@@@@@+++++.....     ",
"               .....+++++@@@@@##########@@@@@+++++.....     ",
"                    .....++++++++++++++++++++.....          ",
"                    .....++++++++++++++++++++.....          ",
"                    .....++++++++++++++++++++.....          ",
"                    .....++++++++++++++++++++.....          ",
"                    .....++++++++++++++++++++.....          ",
"                         ....................               ",
"                         ....................               ",
"                         ....................               ",
"                         ....................               ",
"                         ....................               ",
"                                                            ",
"                                                            ",
"                                                            ",
"                                                            ",
"                                                            "};
