/* XPM */
static char * bcorner0_xpm[] = {
"64 64 14 1",
" 	c None",
".	c #59C135",
"+	c #14A02E",
"@	c #9CDB43",
"#	c #D6F264",
"$	c #242234",
"%	c #333941",
"&	c #8B93AF",
"*	c #6D758D",
"=	c #4A5462",
"-	c #B3B9D1",
";	c #20D6C7",
">	c #A6FCDB",
",	c #285CC4",
"....++++@@@@++++....++++....................++++........++++@@@@",
"....++++@@@@++++....++++....................++++........++++@@@@",
"....++++@@@@++++....++++....................++++........++++@@@@",
"....++++@@@@++++....++++....................++++........++++@@@@",
"@@@@++++....@@@@@@@@++++@@@@....@@@@@@@@....++++####........@@@@",
"@@@@++++....@@@@@@@@++++@@@@....@@@@@@@@....++++####........@@@@",
"@@@@++++....@@@@@@@@++++@@@@....@@@@@@@@....++++####........@@@@",
"@@@@++++....@@@@@@@@++++@@@@....@@@@@@@@....++++####........@@@@",
"$$$$@@@@@@@@$$$$$$$$@@@@@@@@@@@@$$$$$$$$@@@@@@@@....@@@@@@@@$$$$",
"$$$$@@@@@@@@$$$$$$$$@@@@@@@@@@@@$$$$$$$$@@@@@@@@....@@@@@@@@$$$$",
"$$$$@@@@@@@@$$$$$$$$@@@@@@@@@@@@$$$$$$$$@@@@@@@@....@@@@@@@@$$$$",
"$$$$@@@@@@@@$$$$$$$$@@@@@@@@@@@@$$$$$$$$@@@@@@@@....@@@@@@@@$$$$",
"%%%%&&&&****$$$$%%%%****@@@@====$$$$%%%%&&&&&&&&****@@@@====$$$$",
"%%%%&&&&****$$$$%%%%****@@@@====$$$$%%%%&&&&&&&&****@@@@====$$$$",
"%%%%&&&&****$$$$%%%%****@@@@====$$$$%%%%&&&&&&&&****@@@@====$$$$",
"%%%%&&&&****$$$$%%%%****@@@@====$$$$%%%%&&&&&&&&****@@@@====$$$$",
"%%%%----****$$$$%%%%----****====$$$$%%%%----&&&&****====%%%%$$$$",
"%%%%----****$$$$%%%%----****====$$$$%%%%----&&&&****====%%%%$$$$",
"%%%%----****$$$$%%%%----****====$$$$%%%%----&&&&****====%%%%$$$$",
"%%%%----****$$$$%%%%----****====$$$$%%%%----&&&&****====%%%%$$$$",
";;;;****====>>>>>>>>****&&&&%%%%>>>>>>>>&&&&====----====%%%%>>>>",
";;;;****====>>>>>>>>****&&&&%%%%>>>>>>>>&&&&====----====%%%%>>>>",
";;;;****====>>>>>>>>****&&&&%%%%>>>>>>>>&&&&====----====%%%%>>>>",
";;;;****====>>>>>>>>****&&&&%%%%>>>>>>>>&&&&====----====%%%%>>>>",
",,,,;;;;>>>>,,,,,,,,;;;;====>>>>,,,,,,,,;;;;>>>>&&&&%%%%;;;;,,,,",
",,,,;;;;>>>>,,,,,,,,;;;;====>>>>,,,,,,,,;;;;>>>>&&&&%%%%;;;;,,,,",
",,,,;;;;>>>>,,,,,,,,;;;;====>>>>,,,,,,,,;;;;>>>>&&&&%%%%;;;;,,,,",
",,,,;;;;>>>>,,,,,,,,;;;;====>>>>,,,,,,,,;;;;>>>>&&&&%%%%;;;;,,,,",
",,,,,,,,,,,,,,,,,,,,,,,,;;;;,,,,,,,,,,,,,,,,,,,,;;;;>>>>,,,,,,,,",
",,,,,,,,,,,,,,,,,,,,,,,,;;;;,,,,,,,,,,,,,,,,,,,,;;;;>>>>,,,,,,,,",
",,,,,,,,,,,,,,,,,,,,,,,,;;;;,,,,,,,,,,,,,,,,,,,,;;;;>>>>,,,,,,,,",
",,,,,,,,,,,,,,,,,,,,,,,,;;;;,,,,,,,,,,,,,,,,,,,,;;;;>>>>,,,,,,,,",
"    ,,,,,,,,        ,,,,,,,,,,,,        ,,,,,,,,,,,,,,,,,,,,    ",
"    ,,,,,,,,        ,,,,,,,,,,,,        ,,,,,,,,,,,,,,,,,,,,    ",
"    ,,,,,,,,        ,,,,,,,,,,,,        ,,,,,,,,,,,,,,,,,,,,    ",
"    ,,,,,,,,        ,,,,,,,,,,,,        ,,,,,,,,,,,,,,,,,,,,    ",
"                        ,,,,                    ,,,,,,,,        ",
"                        ,,,,                    ,,,,,,,,        ",
"                        ,,,,                    ,,,,,,,,        ",
"                        ,,,,                    ,,,,,,,,        ",
"                                                                ",
"                                                                ",
"                                                                ",
"                                                                ",
"                                                                ",
"                                                                ",
"                                                                ",
"                                                                ",
"                                                                ",
"                                                                ",
"                                                                ",
"                                                                ",
"                                                                ",
"                                                                ",
"                                                                ",
"                                                                ",
"                                                                ",
"                                                                ",
"                                                                ",
"                                                                ",
"                                                                ",
"                                                                ",
"                                                                ",
"                                                                "};
