/* XPM */
static char * coin0_xpm[] = {
"48 48 3 1",
" 	c None",
".	c #333333",
"+	c #D69A4E",
"                  ............                  ",
"                  ............                  ",
"                  ............                  ",
"                  ............                  ",
"                  ............                  ",
"                  ............                  ",
"            ......++++++++++++......            ",
"            ......++++++++++++......            ",
"            ......++++++++++++......            ",
"            ......++++++++++++......            ",
"            ......++++++++++++......            ",
"            ......++++++++++++......            ",
"            ......++++++++++++......            ",
"            ......++++++++++++......            ",
"            ......++++++++++++......            ",
"            ......++++++++++++......            ",
"            ......++++++++++++......            ",
"            ......++++++++++++......            ",
"            ......++++++++++++......            ",
"            ......++++++++++++......            ",
"            ......++++++++++++......            ",
"            ......++++++++++++......            ",
"            ......++++++++++++......            ",
"            ......++++++++++++......            ",
"            ......++++++++++++......            ",
"            ......++++++++++++......            ",
"            ......++++++++++++......            ",
"            ......++++++++++++......            ",
"            ......++++++++++++......            ",
"            ......++++++++++++......            ",
"            ......++++++++++++......            ",
"            ......++++++++++++......            ",
"            ......++++++++++++......            ",
"            ......++++++++++++......            ",
"            ......++++++++++++......            ",
"            ......++++++++++++......            ",
"            ......++++++++++++......            ",
"            ......++++++++++++......            ",
"            ......++++++++++++......            ",
"            ......++++++++++++......            ",
"            ......++++++++++++......            ",
"            ......++++++++++++......            ",
"                  ............                  ",
"                  ............                  ",
"                  ............                  ",
"                  ............                  ",
"                  ............                  ",
"                  ............                  "};
