/* XPM */
static char * coin4_xpm[] = {
"48 48 6 1",
" 	c None",
".	c #333333",
"+	c #D69A4E",
"@	c #F2F2F0",
"#	c #F3D040",
"$	c #FFE88C",
"            ........................            ",
"            ........................            ",
"            ........................            ",
"            ........................            ",
"            ........................            ",
"            ........................            ",
"      ......++++++@@@@@@############......      ",
"      ......++++++@@@@@@############......      ",
"      ......++++++@@@@@@############......      ",
"      ......++++++@@@@@@############......      ",
"      ......++++++@@@@@@############......      ",
"      ......++++++@@@@@@############......      ",
"......++++++@@@@@@######++++++############......",
"......++++++@@@@@@######++++++############......",
"......++++++@@@@@@######++++++############......",
"......++++++@@@@@@######++++++############......",
"......++++++@@@@@@######++++++############......",
"......++++++@@@@@@######++++++############......",
"......++++++@@@@@@++++++######$$$$$$######......",
"......++++++@@@@@@++++++######$$$$$$######......",
"......++++++@@@@@@++++++######$$$$$$######......",
"......++++++@@@@@@++++++######$$$$$$######......",
"......++++++@@@@@@++++++######$$$$$$######......",
"......++++++@@@@@@++++++######$$$$$$######......",
"......++++++######++++++######$$$$$$######......",
"......++++++######++++++######$$$$$$######......",
"......++++++######++++++######$$$$$$######......",
"......++++++######++++++######$$$$$$######......",
"......++++++######++++++######$$$$$$######......",
"......++++++######++++++######$$$$$$######......",
"......++++++############$$$$$$############......",
"......++++++############$$$$$$############......",
"......++++++############$$$$$$############......",
"......++++++############$$$$$$############......",
"......++++++############$$$$$$############......",
"......++++++############$$$$$$############......",
"      ......++++++##################......      ",
"      ......++++++##################......      ",
"      ......++++++##################......      ",
"      ......++++++##################......      ",
"      ......++++++##################......      ",
"      ......++++++##################......      ",
"            ........................            ",
"            ........................            ",
"            ........................            ",
"            ........................            ",
"            ........................            ",
"            ........................            "};
