/* XPM */
static char * coin5_xpm[] = {
"48 48 5 1",
" 	c None",
".	c #333333",
"+	c #D69A4E",
"@	c #F2F2F0",
"#	c #F3D040",
"                  ............                  ",
"                  ............                  ",
"                  ............                  ",
"                  ............                  ",
"                  ............                  ",
"                  ............                  ",
"            ......++++++@@@@@@......            ",
"            ......++++++@@@@@@......            ",
"            ......++++++@@@@@@......            ",
"            ......++++++@@@@@@......            ",
"            ......++++++@@@@@@......            ",
"            ......++++++@@@@@@......            ",
"      ......++++++@@@@@@############......      ",
"      ......++++++@@@@@@############......      ",
"      ......++++++@@@@@@############......      ",
"      ......++++++@@@@@@############......      ",
"      ......++++++@@@@@@############......      ",
"      ......++++++@@@@@@############......      ",
"      ......++++++@@@@@@++++++######......      ",
"      ......++++++@@@@@@++++++######......      ",
"      ......++++++@@@@@@++++++######......      ",
"      ......++++++@@@@@@++++++######......      ",
"      ......++++++@@@@@@++++++######......      ",
"      ......++++++@@@@@@++++++######......      ",
"      ......++++++######++++++######......      ",
"      ......++++++######++++++######......      ",
"      ......++++++######++++++######......      ",
"      ......++++++######++++++######......      ",
"      ......++++++######++++++######......      ",
"      ......++++++######++++++######......      ",
"      ......++++++##################......      ",
"      ......++++++##################......      ",
"      ......++++++##################......      ",
"      ......++++++##################......      ",
"      ......++++++##################......      ",
"      ......++++++##################......      ",
"            ......++++++######......            ",
"            ......++++++######......            ",
"            ......++++++######......            ",
"            ......++++++######......            ",
"            ......++++++######......            ",
"            ......++++++######......            ",
"                  ............                  ",
"                  ............                  ",
"                  ............                  ",
"                  ............                  ",
"                  ............                  ",
"                  ............                  "};
