/* XPM */
static char * coin1_xpm[] = {
"48 48 5 1",
" 	c None",
".	c #333333",
"+	c #F2F2F0",
"@	c #D69A4E",
"#	c #F3D040",
"                  ............                  ",
"                  ............                  ",
"                  ............                  ",
"                  ............                  ",
"                  ............                  ",
"                  ............                  ",
"            ......++++++@@@@@@......            ",
"            ......++++++@@@@@@......            ",
"            ......++++++@@@@@@......            ",
"            ......++++++@@@@@@......            ",
"            ......++++++@@@@@@......            ",
"            ......++++++@@@@@@......            ",
"      ......++++++############@@@@@@......      ",
"      ......++++++############@@@@@@......      ",
"      ......++++++############@@@@@@......      ",
"      ......++++++############@@@@@@......      ",
"      ......++++++############@@@@@@......      ",
"      ......++++++############@@@@@@......      ",
"      ......++++++@@@@@@######@@@@@@......      ",
"      ......++++++@@@@@@######@@@@@@......      ",
"      ......++++++@@@@@@######@@@@@@......      ",
"      ......++++++@@@@@@######@@@@@@......      ",
"      ......++++++@@@@@@######@@@@@@......      ",
"      ......++++++@@@@@@######@@@@@@......      ",
"      ......######@@@@@@######@@@@@@......      ",
"      ......######@@@@@@######@@@@@@......      ",
"      ......######@@@@@@######@@@@@@......      ",
"      ......######@@@@@@######@@@@@@......      ",
"      ......######@@@@@@######@@@@@@......      ",
"      ......######@@@@@@######@@@@@@......      ",
"      ......##################@@@@@@......      ",
"      ......##################@@@@@@......      ",
"      ......##################@@@@@@......      ",
"      ......##################@@@@@@......      ",
"      ......##################@@@@@@......      ",
"      ......##################@@@@@@......      ",
"            ......######@@@@@@......            ",
"            ......######@@@@@@......            ",
"            ......######@@@@@@......            ",
"            ......######@@@@@@......            ",
"            ......######@@@@@@......            ",
"            ......######@@@@@@......            ",
"                  ............                  ",
"                  ............                  ",
"                  ............                  ",
"                  ............                  ",
"                  ............                  ",
"                  ............                  "};
