/* XPM */
static char * giantw2_xpm[] = {
"64 64 11 1",
" 	c None",
".	c #060608",
"+	c #423934",
"@	c #5A4E44",
"#	c #C7B08B",
"$	c #FFFFFF",
"%	c #285CC4",
"&	c #F4D29C",
"*	c #A08662",
"=	c #796755",
"-	c #322B28",
"                                                                ",
"                                                                ",
"                                                                ",
"                                                                ",
"                ............                                    ",
"                ............                                    ",
"                ............                                    ",
"                ............                                    ",
"            ....++++............                                ",
"            ....++++............                                ",
"            ....++++............                                ",
"            ....++++............                                ",
"        ....@@@@....############....                            ",
"        ....@@@@....############....                            ",
"        ....@@@@....############....                            ",
"        ....@@@@....############....                            ",
"        ....++++....####$$$$%%%%........                        ",
"        ....++++....####$$$$%%%%........                        ",
"        ....++++....####$$$$%%%%........                        ",
"        ....++++....####$$$$%%%%........                        ",
"        ............####&&&&****&&&&................            ",
"        ............####&&&&****&&&&................            ",
"        ............####&&&&****&&&&................            ",
"        ............####&&&&****&&&&................            ",
"    ....########....****############........########....        ",
"    ....########....****############........########....        ",
"    ....########....****############........########....        ",
"    ....########....****############........########....        ",
"    ....####****....====************........####****....        ",
"    ....####****....====************........####****....        ",
"    ....####****....====************........####****....        ",
"    ....####****....====************........####****....        ",
"....####****....********............****............++++....    ",
"....####****....********............****............++++....    ",
"....####****....********............****............++++....    ",
"....####****....********............****............++++....    ",
"....****####....****####************####........    ........    ",
"....****####....****####************####........    ........    ",
"....****####....****####************####........    ........    ",
"....****####....****####************####........    ........    ",
"    ....****####....########################....                ",
"    ....****####....########################....                ",
"    ....****####....########################....                ",
"    ....****####....########################....                ",
"    ....****####....########################....                ",
"    ....****####....########################....                ",
"    ....****####....########################....                ",
"    ....****####....########################....                ",
"        ........----****################....                    ",
"        ........----****################....                    ",
"        ........----****################....                    ",
"        ........----****################....                    ",
"            ....****....----++++++++....                        ",
"            ....****....----++++++++....                        ",
"            ....****....----++++++++....                        ",
"            ....****....----++++++++....                        ",
"            ....****............****....                        ",
"            ....****............****....                        ",
"            ....****............****....                        ",
"            ....****............****....                        ",
"                                                                ",
"                                                                ",
"                                                                ",
"                                                                "};
