/* XPM */
static char * drcorner0_xpm[] = {
"64 64 10 1",
" 	c None",
".	c #285CC4",
"+	c #A6FCDB",
"@	c #242234",
"#	c #9CDB43",
"$	c #20D6C7",
"%	c #59C135",
"&	c #14A02E",
"*	c #4A5462",
"=	c #D6F264",
"                                            ....++++@@@@########",
"                                            ....++++@@@@########",
"                                            ....++++@@@@########",
"                                            ....++++@@@@########",
"                                            ....$$$$####%%%%%%%%",
"                                            ....$$$$####%%%%%%%%",
"                                            ....$$$$####%%%%%%%%",
"                                            ....$$$$####%%%%%%%%",
"                                        ....++++########%%%%%%%%",
"                                        ....++++########%%%%%%%%",
"                                        ....++++########%%%%%%%%",
"                                        ....++++########%%%%%%%%",
"                                        ....$$$$@@@@####&&&&####",
"                                        ....$$$$@@@@####&&&&####",
"                                        ....$$$$@@@@####&&&&####",
"                                        ....$$$$@@@@####&&&&####",
"                                        ....$$$$****@@@@####%%%%",
"                                        ....$$$$****@@@@####%%%%",
"                                        ....$$$$****@@@@####%%%%",
"                                        ....$$$$****@@@@####%%%%",
"                                            ....$$$$########%%%%",
"                                            ....$$$$########%%%%",
"                                            ....$$$$########%%%%",
"                                            ....$$$$########%%%%",
"                                            ....####%%%%####&&&&",
"                                            ....####%%%%####&&&&",
"                                            ....####%%%%####&&&&",
"                                            ....####%%%%####&&&&",
"                                        ....++++@@@@####%%%%%%%%",
"                                        ....++++@@@@####%%%%%%%%",
"                                        ....++++@@@@####%%%%%%%%",
"                                        ....++++@@@@####%%%%%%%%",
"                                        ....$$$$****####%%%%====",
"                                        ....$$$$****####%%%%====",
"                                        ....$$$$****####%%%%====",
"                                        ....$$$$****####%%%%====",
"                                            ....$$$$@@@@####%%%%",
"                                            ....$$$$@@@@####%%%%",
"                                            ....$$$$@@@@####%%%%",
"                                            ....$$$$@@@@####%%%%",
"                                            ....@@@@########&&&&",
"                                            ....@@@@########&&&&",
"                                            ....@@@@########&&&&",
"                                            ....@@@@########&&&&",
"                                        ....++++****####%%%%&&&&",
"                                        ....++++****####%%%%&&&&",
"                                        ....++++****####%%%%&&&&",
"                                        ....++++****####%%%%&&&&",
"                        ####                ....$$$$@@@@####&&&&",
"                        ####                ....$$$$@@@@####&&&&",
"                        ####                ....$$$$@@@@####&&&&",
"                        ####                ....$$$$@@@@####&&&&",
"    ########        ####&&&&####        ########****@@@@####%%%%",
"    ########        ####&&&&####        ########****@@@@####%%%%",
"    ########        ####&&&&####        ########****@@@@####%%%%",
"    ########        ####&&&&####        ########****@@@@####%%%%",
"########%%%%########%%%%####%%%%########%%%%############%%%%%%%%",
"########%%%%########%%%%####%%%%########%%%%############%%%%%%%%",
"########%%%%########%%%%####%%%%########%%%%############%%%%%%%%",
"########%%%%########%%%%####%%%%########%%%%############%%%%%%%%",
"%%%%%%%%####%%%%%%%%%%%%####&&&&%%%%####&&&&%%%%%%%%%%%%&&&&####",
"%%%%%%%%####%%%%%%%%%%%%####&&&&%%%%####&&&&%%%%%%%%%%%%&&&&####",
"%%%%%%%%####%%%%%%%%%%%%####&&&&%%%%####&&&&%%%%%%%%%%%%&&&&####",
"%%%%%%%%####%%%%%%%%%%%%####&&&&%%%%####&&&&%%%%%%%%%%%%&&&&####"};
