/* XPM */
static char * drcorner7_xpm[] = {
"64 64 9 1",
" 	c None",
".	c #285CC4",
"+	c #242234",
"@	c #9CDB43",
"#	c #59C135",
"$	c #14A02E",
"%	c #20D6C7",
"&	c #D6F264",
"*	c #4A5462",
"                                                ....++++@@@@@@@@",
"                                                ....++++@@@@@@@@",
"                                                ....++++@@@@@@@@",
"                                                ....++++@@@@@@@@",
"                                            ........@@@@########",
"                                            ........@@@@########",
"                                            ........@@@@########",
"                                            ........@@@@########",
"                                            ....@@@@@@@@########",
"                                            ....@@@@@@@@########",
"                                            ....@@@@@@@@########",
"                                            ....@@@@@@@@########",
"                                            ....++++@@@@$$$$@@@@",
"                                            ....++++@@@@$$$$@@@@",
"                                            ....++++@@@@$$$$@@@@",
"                                            ....++++@@@@$$$$@@@@",
"                                                %%%%++++@@@@####",
"                                                %%%%++++@@@@####",
"                                                %%%%++++@@@@####",
"                                                %%%%++++@@@@####",
"                                                ....@@@@@@@@####",
"                                                ....@@@@@@@@####",
"                                                ....@@@@@@@@####",
"                                                ....@@@@@@@@####",
"                                            ....@@@@####@@@@$$$$",
"                                            ....@@@@####@@@@$$$$",
"                                            ....@@@@####@@@@$$$$",
"                                            ....@@@@####@@@@$$$$",
"                                            ....++++@@@@########",
"                                            ....++++@@@@########",
"                                            ....++++@@@@########",
"                                            ....++++@@@@########",
"                                                %%%%@@@@####&&&&",
"                                                %%%%@@@@####&&&&",
"                                                %%%%@@@@####&&&&",
"                                                %%%%@@@@####&&&&",
"                                                ....++++@@@@####",
"                                                ....++++@@@@####",
"                                                ....++++@@@@####",
"                                                ....++++@@@@####",
"                                            ....++++@@@@@@@@$$$$",
"                                            ....++++@@@@@@@@$$$$",
"                                            ....++++@@@@@@@@$$$$",
"                                            ....++++@@@@@@@@$$$$",
"                                                %%%%@@@@####$$$$",
"                                                %%%%@@@@####$$$$",
"                                                %%%%@@@@####$$$$",
"                                                %%%%@@@@####$$$$",
"                        @@@@                    ....++++@@@@$$$$",
"                        @@@@                    ....++++@@@@$$$$",
"                        @@@@                    ....++++@@@@$$$$",
"                        @@@@                    ....++++@@@@$$$$",
"    @@@@@@@@        @@@@$$$$@@@@        @@@@@@@@****++++@@@@####",
"    @@@@@@@@        @@@@$$$$@@@@        @@@@@@@@****++++@@@@####",
"    @@@@@@@@        @@@@$$$$@@@@        @@@@@@@@****++++@@@@####",
"    @@@@@@@@        @@@@$$$$@@@@        @@@@@@@@****++++@@@@####",
"@@@@@@@@####@@@@@@@@####@@@@####@@@@@@@@####@@@@@@@@@@@@########",
"@@@@@@@@####@@@@@@@@####@@@@####@@@@@@@@####@@@@@@@@@@@@########",
"@@@@@@@@####@@@@@@@@####@@@@####@@@@@@@@####@@@@@@@@@@@@########",
"@@@@@@@@####@@@@@@@@####@@@@####@@@@@@@@####@@@@@@@@@@@@########",
"########@@@@############@@@@$$$$####@@@@$$$$############$$$$@@@@",
"########@@@@############@@@@$$$$####@@@@$$$$############$$$$@@@@",
"########@@@@############@@@@$$$$####@@@@$$$$############$$$$@@@@",
"########@@@@############@@@@$$$$####@@@@$$$$############$$$$@@@@"};
