/* XPM */
static char * druidw1_xpm[] = {
"64 64 13 1",
" 	c None",
".	c #060608",
"+	c #423934",
"@	c #403353",
"#	c #E4D2AA",
"$	c #C7B08B",
"%	c #249FDE",
"&	c #285CC4",
"*	c #000000",
"=	c #DAE0EA",
"-	c #322B28",
";	c #B3B9D1",
">	c #8B93AF",
"                                                ........        ",
"                                                ........        ",
"                                                ........        ",
"                                                ........        ",
"                                            ....++++++++....    ",
"                                            ....++++++++....    ",
"                                            ....++++++++....    ",
"                                            ....++++++++....    ",
"                        ........            ....++++....        ",
"                        ........            ....++++....        ",
"                        ........            ....++++....        ",
"                        ........            ....++++....        ",
"                ........@@@@@@@@........    ....++++....        ",
"                ........@@@@@@@@........    ....++++....        ",
"                ........@@@@@@@@........    ....++++....        ",
"                ........@@@@@@@@........    ....++++....        ",
"            ....####$$$$%%%%####$$$$####........++++....        ",
"            ....####$$$$%%%%####$$$$####........++++....        ",
"            ....####$$$$%%%%####$$$$####........++++....        ",
"            ....####$$$$%%%%####$$$$####........++++....        ",
"                ........&&&&####........****....++++....        ",
"                ........&&&&####........****....++++....        ",
"                ........&&&&####........****....++++....        ",
"                ........&&&&####........****....++++....        ",
"            ....@@@@....$$$$....====........$$$$####....        ",
"            ....@@@@....$$$$....====........$$$$####....        ",
"            ....@@@@....$$$$....====........$$$$####....        ",
"            ....@@@@....$$$$....====........$$$$####....        ",
"            ....@@@@....============....$$$$....----....        ",
"            ....@@@@....============....$$$$....----....        ",
"            ....@@@@....============....$$$$....----....        ",
"            ....@@@@....============....$$$$....----....        ",
"        ....$$$$....@@@@....;;;;;;;;............++++....        ",
"        ....$$$$....@@@@....;;;;;;;;............++++....        ",
"        ....$$$$....@@@@....;;;;;;;;............++++....        ",
"        ....$$$$....@@@@....;;;;;;;;............++++....        ",
"    ....####............$$$$####....        ....++++....        ",
"    ....####............$$$$####....        ....++++....        ",
"    ....####............$$$$####....        ....++++....        ",
"    ....####............$$$$####....        ....++++....        ",
"        ....    ....;;;;>>>>>>>>....        ....++++....        ",
"        ....    ....;;;;>>>>>>>>....        ....++++....        ",
"        ....    ....;;;;>>>>>>>>....        ....++++....        ",
"        ....    ....;;;;>>>>>>>>....        ....++++....        ",
"                ....;;;;;;;;>>>>....        ....++++....        ",
"                ....;;;;;;;;>>>>....        ....++++....        ",
"                ....;;;;;;;;>>>>....        ....++++....        ",
"                ....;;;;;;;;>>>>....        ....++++....        ",
"                ....;;;;;;;;>>>>....        ....++++....        ",
"                ....;;;;;;;;>>>>....        ....++++....        ",
"                ....;;;;;;;;>>>>....        ....++++....        ",
"                ....;;;;;;;;>>>>....        ....++++....        ",
"        ........;;;;;;;;;;;;>>>>....        ....++++....        ",
"        ........;;;;;;;;;;;;>>>>....        ....++++....        ",
"        ........;;;;;;;;;;;;>>>>....        ....++++....        ",
"        ........;;;;;;;;;;;;>>>>....        ....++++....        ",
"    ....;;;;;;;;>>>>>>>>;;;;;;;;....                            ",
"    ....;;;;;;;;>>>>>>>>;;;;;;;;....                            ",
"    ....;;;;;;;;>>>>>>>>;;;;;;;;....                            ",
"    ....;;;;;;;;>>>>>>>>;;;;;;;;....                            ",
"                                                                ",
"                                                                ",
"                                                                ",
"                                                                "};
