/* XPM */
static char * enemy3_xpm[] = {
"64 64 8 1",
" 	c None",
".	c #060608",
"+	c #DAE0EA",
"@	c #B3B9D1",
"#	c #5B3138",
"$	c #8E5252",
"%	c #8B93AF",
"&	c #322B28",
"            ........        ........                            ",
"            ........        ........                            ",
"            ........        ........                            ",
"            ........        ........                            ",
"        ....++++@@@@........@@@@++++....                        ",
"        ....++++@@@@........@@@@++++....                        ",
"        ....++++@@@@........@@@@++++....                        ",
"        ....++++@@@@........@@@@++++....                        ",
"        ....@@@@....####$$$$....@@@@....                        ",
"        ....@@@@....####$$$$....@@@@....                        ",
"        ....@@@@....####$$$$....@@@@....                        ",
"        ....@@@@....####$$$$....@@@@....                        ",
"    ....@@@@....####$$$$$$$$$$$$....                            ",
"    ....@@@@....####$$$$$$$$$$$$....                            ",
"    ....@@@@....####$$$$$$$$$$$$....                            ",
"    ....@@@@....####$$$$$$$$$$$$....                            ",
"    ............########$$$$$$$$........                        ",
"    ............########$$$$$$$$........                        ",
"    ............########$$$$$$$$........                        ",
"    ............########$$$$$$$$........                        ",
"....$$$$####%%%%####................$$$$....                    ",
"....$$$$####%%%%####................$$$$....                    ",
"....$$$$####%%%%####................$$$$....                    ",
"....$$$$####%%%%####................$$$$....                    ",
"....########$$$$%%%%@@@@@@@@....########....                    ",
"....########$$$$%%%%@@@@@@@@....########....                    ",
"....########$$$$%%%%@@@@@@@@....########....                    ",
"....########$$$$%%%%@@@@@@@@....########....                    ",
"....####....$$$$$$$$$$$$####$$$$$$$$....####....                ",
"....####....$$$$$$$$$$$$####$$$$$$$$....####....                ",
"....####....$$$$$$$$$$$$####$$$$$$$$....####....                ",
"....####....$$$$$$$$$$$$####$$$$$$$$....####....                ",
"....$$$$....########################....$$$$........            ",
"....$$$$....########################....$$$$........            ",
"....$$$$....########################....$$$$........            ",
"....$$$$....########################....$$$$........            ",
"....####$$$$....####$$$$$$$$$$$$........$$$$%%%%@@@@....        ",
"....####$$$$....####$$$$$$$$$$$$........$$$$%%%%@@@@....        ",
"....####$$$$....####$$$$$$$$$$$$........$$$$%%%%@@@@....        ",
"....####$$$$....####$$$$$$$$$$$$........$$$$%%%%@@@@....        ",
"....####$$$$....########$$$$$$$$....................%%%%....    ",
"....####$$$$....########$$$$$$$$....................%%%%....    ",
"....####$$$$....########$$$$$$$$....................%%%%....    ",
"....####$$$$....########$$$$$$$$....................%%%%....    ",
"    ............&&&&&&&&&&&&&&&&........        ....@@@@....    ",
"    ............&&&&&&&&&&&&&&&&........        ....@@@@....    ",
"    ............&&&&&&&&&&&&&&&&........        ....@@@@....    ",
"    ............&&&&&&&&&&&&&&&&........        ....@@@@....    ",
"            ....####&&&&&&&&####....            ....%%%%....    ",
"            ....####&&&&&&&&####....            ....%%%%....    ",
"            ....####&&&&&&&&####....            ....%%%%....    ",
"            ....####&&&&&&&&####....            ....%%%%....    ",
"            ....$$$$....&&&&$$$$....            ....@@@@....    ",
"            ....$$$$....&&&&$$$$....            ....@@@@....    ",
"            ....$$$$....&&&&$$$$....            ....@@@@....    ",
"            ....$$$$....&&&&$$$$....            ....@@@@....    ",
"            ....$$$$........$$$$....                ....@@@@....",
"            ....$$$$........$$$$....                ....@@@@....",
"            ....$$$$........$$$$....                ....@@@@....",
"            ....$$$$........$$$$....                ....@@@@....",
"                                                        ....    ",
"                                                        ....    ",
"                                                        ....    ",
"                                                        ....    "};
