/* XPM */
static char * exit3_xpm[] = {
"64 64 10 1",
" 	c None",
".	c #060608",
"+	c #DAE0EA",
"@	c #B3B9D1",
"#	c #8B93AF",
"$	c #4A5462",
"%	c #242234",
"&	c #6D758D",
"*	c #403353",
"=	c #793A80",
"                            ........                            ",
"                            ........                            ",
"                            ........                            ",
"                            ........                            ",
"            ................++++@@@@................            ",
"            ................++++@@@@................            ",
"            ................++++@@@@................            ",
"            ................++++@@@@................            ",
"        ....++++@@@@@@@@....########....++++@@@@@@@@....        ",
"        ....++++@@@@@@@@....########....++++@@@@@@@@....        ",
"        ....++++@@@@@@@@....########....++++@@@@@@@@....        ",
"        ....++++@@@@@@@@....########....++++@@@@@@@@....        ",
"            ....########................########....            ",
"            ....########................########....            ",
"            ....########................########....            ",
"            ....########................########....            ",
"        ....$$$$........%%%%%%%%%%%%%%%%........$$$$....        ",
"        ....$$$$........%%%%%%%%%%%%%%%%........$$$$....        ",
"        ....$$$$........%%%%%%%%%%%%%%%%........$$$$....        ",
"        ....$$$$........%%%%%%%%%%%%%%%%........$$$$....        ",
"        ....&&&&....%%%%****************%%%%....&&&&....        ",
"        ....&&&&....%%%%****************%%%%....&&&&....        ",
"        ....&&&&....%%%%****************%%%%....&&&&....        ",
"        ....&&&&....%%%%****************%%%%....&&&&....        ",
"        ....&&&&....************************....&&&&....        ",
"        ....&&&&....************************....&&&&....        ",
"        ....&&&&....************************....&&&&....        ",
"        ....&&&&....************************....&&&&....        ",
"        ....####....********************====....####....        ",
"        ....####....********************====....####....        ",
"        ....####....********************====....####....        ",
"        ....####....********************====....####....        ",
"        ....####....****************========....####....        ",
"        ....####....****************========....####....        ",
"        ....####....****************========....####....        ",
"        ....####....****************========....####....        ",
"        ....####....************========****....####....        ",
"        ....####....************========****....####....        ",
"        ....####....************========****....####....        ",
"        ....####....************========****....####....        ",
"        ....####....********========********....####....        ",
"        ....####....********========********....####....        ",
"        ....####....********========********....####....        ",
"        ....####....********========********....####....        ",
"    ........####....****========************....####........    ",
"    ........####....****========************....####........    ",
"    ........####....****========************....####........    ",
"    ........####....****========************....####........    ",
"    ........####....========****************....####........    ",
"    ........####....========****************....####........    ",
"    ........####....========****************....####........    ",
"    ........####....========****************....####........    ",
"    ....@@@@@@@@@@@@@@@@@@@@@@@@@@@@@@@@@@@@@@@@@@@@@@@@....    ",
"    ....@@@@@@@@@@@@@@@@@@@@@@@@@@@@@@@@@@@@@@@@@@@@@@@@....    ",
"    ....@@@@@@@@@@@@@@@@@@@@@@@@@@@@@@@@@@@@@@@@@@@@@@@@....    ",
"    ....@@@@@@@@@@@@@@@@@@@@@@@@@@@@@@@@@@@@@@@@@@@@@@@@....    ",
"    ....################################################....    ",
"    ....################################################....    ",
"    ....################################################....    ",
"    ....################################################....    ",
"                                                                ",
"                                                                ",
"                                                                ",
"                                                                "};
