/* XPM */
static char * fairy0_xpm[] = {
"64 64 6 1",
" 	c None",
".	c #060608",
"+	c #FFFFFF",
"@	c #E3E6FF",
"#	c #20D6C7",
"$	c #249FDE",
"                                                                ",
"                                                                ",
"                                                                ",
"                                                                ",
"                                                                ",
"                                                                ",
"                                                                ",
"                                                                ",
"                                                                ",
"                                                                ",
"                                                                ",
"                                                                ",
"                                                                ",
"                                                                ",
"                                                                ",
"                                                                ",
"                                                                ",
"                                                                ",
"                                                                ",
"                                                                ",
"            ........                        ........            ",
"            ........                        ........            ",
"            ........                        ........            ",
"            ........                        ........            ",
"        ....++++++++....                ....++++++++....        ",
"        ....++++++++....                ....++++++++....        ",
"        ....++++++++....                ....++++++++....        ",
"        ....++++++++....                ....++++++++....        ",
"        ....@@@@@@@@++++....        ....++++@@@@@@@@....        ",
"        ....@@@@@@@@++++....        ....++++@@@@@@@@....        ",
"        ....@@@@@@@@++++....        ....++++@@@@@@@@....        ",
"        ....@@@@@@@@++++....        ....++++@@@@@@@@....        ",
"            ....@@@@@@@@@@@@........@@@@@@@@@@@@....            ",
"            ....@@@@@@@@@@@@........@@@@@@@@@@@@....            ",
"            ....@@@@@@@@@@@@........@@@@@@@@@@@@....            ",
"            ....@@@@@@@@@@@@........@@@@@@@@@@@@....            ",
"                ............####$$$$............                ",
"                ............####$$$$............                ",
"                ............####$$$$............                ",
"                ............####$$$$............                ",
"                        ....$$$$$$$$....                        ",
"                        ....$$$$$$$$....                        ",
"                        ....$$$$$$$$....                        ",
"                        ....$$$$$$$$....                        ",
"                    ....@@@@........@@@@....                    ",
"                    ....@@@@........@@@@....                    ",
"                    ....@@@@........@@@@....                    ",
"                    ....@@@@........@@@@....                    ",
"                        ....        ....                        ",
"                        ....        ....                        ",
"                        ....        ....                        ",
"                        ....        ....                        ",
"                                                                ",
"                                                                ",
"                                                                ",
"                                                                ",
"                                                                ",
"                                                                ",
"                                                                ",
"                                                                ",
"                                                                ",
"                                                                ",
"                                                                ",
"                                                                "};
