/* XPM */
static char * five_xpm[] = {
"42 42 3 1",
" 	c #333333",
".	c #AFB9C0",
"+	c #DEEED6",
"                                          ",
"                                          ",
"                                          ",
"                                          ",
"                                          ",
"                                          ",
"      ......++++++++++++++++++......      ",
"      ......++++++++++++++++++......      ",
"      ......++++++++++++++++++......      ",
"      ......++++++++++++++++++......      ",
"      ......++++++++++++++++++......      ",
"      ......++++++++++++++++++......      ",
"      ++++++++++++                        ",
"      ++++++++++++                        ",
"      ++++++++++++                        ",
"      ++++++++++++                        ",
"      ++++++++++++                        ",
"      ++++++++++++                        ",
"      ......++++++++++++++++++......      ",
"      ......++++++++++++++++++......      ",
"      ......++++++++++++++++++......      ",
"      ......++++++++++++++++++......      ",
"      ......++++++++++++++++++......      ",
"      ......++++++++++++++++++......      ",
"                  ++++++++++++++++++      ",
"                  ++++++++++++++++++      ",
"                  ++++++++++++++++++      ",
"                  ++++++++++++++++++      ",
"                  ++++++++++++++++++      ",
"                  ++++++++++++++++++      ",
"      ++++++++++++++++++++++++......      ",
"      ++++++++++++++++++++++++......      ",
"      ++++++++++++++++++++++++......      ",
"      ++++++++++++++++++++++++......      ",
"      ++++++++++++++++++++++++......      ",
"      ++++++++++++++++++++++++......      ",
"                                          ",
"                                          ",
"                                          ",
"                                          ",
"                                          ",
"                                          "};
