/* XPM */
static char * gcoin0_xpm[] = {
"48 96 5 1",
" 	c None",
".	c #333333",
"+	c #F2F2F0",
"@	c #D69A4E",
"#	c #F3D040",
"                                                ",
"                                                ",
"                                                ",
"                                                ",
"                                                ",
"                                                ",
"                                                ",
"                                                ",
"                                                ",
"                                                ",
"                                                ",
"                                                ",
"                                                ",
"                                                ",
"                                                ",
"                                                ",
"                                                ",
"                                                ",
"                                                ",
"                                                ",
"                                                ",
"                                                ",
"                                                ",
"                                                ",
"                                                ",
"                                                ",
"                                                ",
"                                                ",
"                                                ",
"                                                ",
"                                                ",
"                                                ",
"                                                ",
"                                                ",
"                                                ",
"                                                ",
"                                                ",
"                                                ",
"                                                ",
"                                                ",
"                                                ",
"                                                ",
"                                                ",
"                                                ",
"                                                ",
"                                                ",
"                                                ",
"                                                ",
"                  ............                  ",
"                  ............                  ",
"                  ............                  ",
"                  ............                  ",
"                  ............                  ",
"                  ............                  ",
"            ......++++++@@@@@@......            ",
"            ......++++++@@@@@@......            ",
"            ......++++++@@@@@@......            ",
"            ......++++++@@@@@@......            ",
"            ......++++++@@@@@@......            ",
"            ......++++++@@@@@@......            ",
"      ......++++++############@@@@@@......      ",
"      ......++++++############@@@@@@......      ",
"      ......++++++############@@@@@@......      ",
"      ......++++++############@@@@@@......      ",
"      ......++++++############@@@@@@......      ",
"      ......++++++############@@@@@@......      ",
"      ......++++++@@@@@@######@@@@@@......      ",
"      ......++++++@@@@@@######@@@@@@......      ",
"      ......++++++@@@@@@######@@@@@@......      ",
"      ......++++++@@@@@@######@@@@@@......      ",
"      ......++++++@@@@@@######@@@@@@......      ",
"      ......++++++@@@@@@######@@@@@@......      ",
"      ......######@@@@@@######@@@@@@......      ",
"      ......######@@@@@@######@@@@@@......      ",
"      ......######@@@@@@######@@@@@@......      ",
"      ......######@@@@@@######@@@@@@......      ",
"      ......######@@@@@@######@@@@@@......      ",
"      ......######@@@@@@######@@@@@@......      ",
"      ......##################@@@@@@......      ",
"      ......##################@@@@@@......      ",
"      ......##################@@@@@@......      ",
"      ......##################@@@@@@......      ",
"      ......##################@@@@@@......      ",
"      ......##################@@@@@@......      ",
"            ......######@@@@@@......            ",
"            ......######@@@@@@......            ",
"            ......######@@@@@@......            ",
"            ......######@@@@@@......            ",
"            ......######@@@@@@......            ",
"            ......######@@@@@@......            ",
"                  ............                  ",
"                  ............                  ",
"                  ............                  ",
"                  ............                  ",
"                  ............                  ",
"                  ............                  "};
