/* XPM */
static char * gcoin2_xpm[] = {
"48 96 2 1",
" 	c None",
".	c #F3D040",
"                                                ",
"                                                ",
"                                                ",
"                                                ",
"                                                ",
"                                                ",
"                  ............                  ",
"                  ............                  ",
"                  ............                  ",
"                  ............                  ",
"                  ............                  ",
"                  ............                  ",
"            ........................            ",
"            ........................            ",
"            ........................            ",
"            ........................            ",
"            ........................            ",
"            ........................            ",
"      ....................................      ",
"      ....................................      ",
"      ....................................      ",
"      ....................................      ",
"      ....................................      ",
"      ....................................      ",
"      ....................................      ",
"      ....................................      ",
"      ....................................      ",
"      ....................................      ",
"      ....................................      ",
"      ....................................      ",
"            ........................            ",
"            ........................            ",
"            ........................            ",
"            ........................            ",
"            ........................            ",
"            ........................            ",
"                  ............                  ",
"                  ............                  ",
"                  ............                  ",
"                  ............                  ",
"                  ............                  ",
"                  ............                  ",
"                                                ",
"                                                ",
"                                                ",
"                                                ",
"                                                ",
"                                                ",
"                                                ",
"                                                ",
"                                                ",
"                                                ",
"                                                ",
"                                                ",
"                                                ",
"                                                ",
"                                                ",
"                                                ",
"                                                ",
"                                                ",
"                                                ",
"                                                ",
"                                                ",
"                                                ",
"                                                ",
"                                                ",
"                                                ",
"                                                ",
"                                                ",
"                                                ",
"                                                ",
"                                                ",
"                                                ",
"                                                ",
"                                                ",
"                                                ",
"                                                ",
"                                                ",
"                                                ",
"                                                ",
"                                                ",
"                                                ",
"                                                ",
"                                                ",
"                                                ",
"                                                ",
"                                                ",
"                                                ",
"                                                ",
"                                                ",
"                                                ",
"                                                ",
"                                                ",
"                                                ",
"                                                ",
"                                                "};
