/* XPM */
static char * grass_xpm[] = {
"64 64 4 1",
" 	c #59C135",
".	c #14A02E",
"+	c #9CDB43",
"@	c #D6F264",
"    ....++++....    ....                    ....        ....++++",
"    ....++++....    ....                    ....        ....++++",
"    ....++++....    ....                    ....        ....++++",
"    ....++++....    ....                    ....        ....++++",
"    ....            ....++++    ++++....    ....@@@@            ",
"    ....            ....++++    ++++....    ....@@@@            ",
"    ....            ....++++    ++++....    ....@@@@            ",
"    ....            ....++++    ++++....    ....@@@@            ",
"....++++....    ++++    ++++....        @@@@        ++++        ",
"....++++....    ++++    ++++....        @@@@        ++++        ",
"....++++....    ++++    ++++....        @@@@        ++++        ",
"....++++....    ++++    ++++....        @@@@        ++++        ",
"....        ++++                    ++++        ....++++....++++",
"....        ++++                    ++++        ....++++....++++",
"....        ++++                    ++++        ....++++....++++",
"....        ++++                    ++++        ....++++....++++",
"++++        ++++....    @@@@    ....++++....    ....            ",
"++++        ++++....    @@@@    ....++++....    ....            ",
"++++        ++++....    @@@@    ....++++....    ....            ",
"++++        ++++....    @@@@    ....++++....    ....            ",
"++++....            ....    ++++....        ++++        ++++    ",
"++++....            ....    ++++....        ++++        ++++    ",
"++++....            ....    ++++....        ++++        ++++    ",
"++++....            ....    ++++....        ++++        ++++    ",
"        ++++....    ....    ++++....++++        ++++    ++++....",
"        ++++....    ....    ++++....++++        ++++    ++++....",
"        ++++....    ....    ++++....++++        ++++    ++++....",
"        ++++....    ....    ++++....++++        ++++    ++++....",
"    ++++    ....++++                ++++....    ++++....        ",
"    ++++    ....++++                ++++....    ++++....        ",
"    ++++    ....++++                ++++....    ++++....        ",
"    ++++    ....++++                ++++....    ++++....        ",
"    ++++....        @@@@    ++++                ....        @@@@",
"    ++++....        @@@@    ++++                ....        @@@@",
"    ++++....        @@@@    ++++                ....        @@@@",
"    ++++....        @@@@    ++++                ....        @@@@",
"            ++++    ++++....++++....    ++++    ....    ++++    ",
"            ++++    ++++....++++....    ++++    ....    ++++    ",
"            ++++    ++++....++++....    ++++    ....    ++++    ",
"            ++++    ++++....++++....    ++++    ....    ++++    ",
"            ++++....                        ++++        ++++....",
"            ++++....                        ++++        ++++....",
"            ++++....                        ++++        ++++....",
"            ++++....                        ++++        ++++....",
"    ++++            @@@@    ++++    ++++    ++++....        ....",
"    ++++            @@@@    ++++    ++++    ++++....        ....",
"    ++++            @@@@    ++++    ++++    ++++....        ....",
"    ++++            @@@@    ++++    ++++    ++++....        ....",
"    ++++....    ++++    ....++++....++++....        ++++    ....",
"    ++++....    ++++    ....++++....++++....        ++++    ....",
"    ++++....    ++++    ....++++....++++....        ++++    ....",
"    ++++....    ++++    ....++++....++++....        ++++    ....",
"            ....++++........                ++++    ++++....    ",
"            ....++++........                ++++    ++++....    ",
"            ....++++........                ++++    ++++....    ",
"            ....++++........                ++++    ++++....    ",
"    ++++    ....        ++++        ++++    ++++....            ",
"    ++++    ....        ++++        ++++    ++++....            ",
"    ++++    ....        ++++        ++++    ++++....            ",
"    ++++    ....        ++++        ++++    ++++....            ",
"        ++++            ++++....    ++++....            ....++++",
"        ++++            ++++....    ++++....            ....++++",
"        ++++            ++++....    ++++....            ....++++",
"        ++++            ++++....    ++++....            ....++++"};
