/* XPM */
static char * hunterw3_xpm[] = {
"64 64 12 1",
" 	c None",
".	c #060608",
"+	c #BB7547",
"@	c #E4D2AA",
"#	c #C7B08B",
"$	c #242234",
"%	c #403353",
"&	c #71413B",
"*	c #5A4E44",
"=	c #122020",
"-	c #DAE0EA",
";	c #5B3138",
"                                                                ",
"                                                                ",
"                                                                ",
"                                                                ",
"                    ................                            ",
"                    ................                            ",
"                    ................                            ",
"                    ................                            ",
"                ....++++++++++++++++....                        ",
"                ....++++++++++++++++....                        ",
"                ....++++++++++++++++....                        ",
"                ....++++++++++++++++....                        ",
"            ....@@@@####@@@@@@@@####@@@@....                    ",
"            ....@@@@####@@@@@@@@####@@@@....                    ",
"            ....@@@@####@@@@@@@@####@@@@....                    ",
"            ....@@@@####@@@@@@@@####@@@@....                    ",
"            ........$$$$####@@@@$$$$....                        ",
"            ........$$$$####@@@@$$$$....                        ",
"            ........$$$$####@@@@$$$$....                        ",
"            ........$$$$####@@@@$$$$....                        ",
"        ....++++....%%%%####....%%%%........                    ",
"        ....++++....%%%%####....%%%%........                    ",
"        ....++++....%%%%####....%%%%........                    ",
"        ....++++....%%%%####....%%%%........                    ",
"    ....++++&&&&....%%%%++++++++%%%%....@@@@........            ",
"    ....++++&&&&....%%%%++++++++%%%%....@@@@........            ",
"    ....++++&&&&....%%%%++++++++%%%%....@@@@........            ",
"    ....++++&&&&....%%%%++++++++%%%%....@@@@........            ",
"        ....########%%%%&&&&&&&&%%%%............****....        ",
"        ....########%%%%&&&&&&&&%%%%............****....        ",
"        ....########%%%%&&&&&&&&%%%%............****....        ",
"        ....########%%%%&&&&&&&&%%%%............****....        ",
"        ................========........********....            ",
"        ................========........********....            ",
"        ................========........********....            ",
"        ................========........********....            ",
"    ....----;;;;....&&&&++++++++++++............                ",
"    ....----;;;;....&&&&++++++++++++............                ",
"    ....----;;;;....&&&&++++++++++++............                ",
"    ....----;;;;....&&&&++++++++++++............                ",
"        ............&&&&++++++++++++........                    ",
"        ............&&&&++++++++++++........                    ",
"        ............&&&&++++++++++++........                    ",
"        ............&&&&++++++++++++........                    ",
"                ........++++........####....                    ",
"                ........++++........####....                    ",
"                ........++++........####....                    ",
"                ........++++........####....                    ",
"                ....####....    ....@@@@....                    ",
"                ....####....    ....@@@@....                    ",
"                ....####....    ....@@@@....                    ",
"                ....####....    ....@@@@....                    ",
"                ....@@@@....                                    ",
"                ....@@@@....                                    ",
"                ....@@@@....                                    ",
"                ....@@@@....                                    ",
"                                                                ",
"                                                                ",
"                                                                ",
"                                                                ",
"                                                                ",
"                                                                ",
"                                                                ",
"                                                                "};
