/* XPM */
static char * nagaw1_xpm[] = {
"64 64 13 1",
" 	c None",
".	c #060608",
"+	c #FFFFFF",
"@	c #DAE0EA",
"#	c #5A4E44",
"$	c #423934",
"%	c #E4D2AA",
"&	c #4A5462",
"*	c #71413B",
"=	c #C7B08B",
"-	c #DBA463",
";	c #BB7547",
">	c #333941",
"                                                                ",
"                                                                ",
"                                                                ",
"                                                                ",
"                    ............                                ",
"                    ............                                ",
"                    ............                                ",
"                    ............                                ",
"                ....++++++++++++....                            ",
"                ....++++++++++++....                            ",
"                ....++++++++++++....                            ",
"                ....++++++++++++....                            ",
"            ....@@@@@@@@@@@@++++............                    ",
"            ....@@@@@@@@@@@@++++............                    ",
"            ....@@@@@@@@@@@@++++............                    ",
"            ....@@@@@@@@@@@@++++............                    ",
"            ............@@@@....############....                ",
"            ............@@@@....############....                ",
"            ............@@@@....############....                ",
"            ............@@@@....############....                ",
"    ........            ....$$$$####%%%%%%%%....                ",
"    ........            ....$$$$####%%%%%%%%....                ",
"    ........            ....$$$$####%%%%%%%%....                ",
"    ........            ....$$$$####%%%%%%%%....                ",
"    ....&&&&....        ....$$$$$$$$%%%%%%%%****....            ",
"    ....&&&&....        ....$$$$$$$$%%%%%%%%****....            ",
"    ....&&&&....        ....$$$$$$$$%%%%%%%%****....            ",
"    ....&&&&....        ....$$$$$$$$%%%%%%%%****....            ",
"        ....&&&&....        ........====........****....        ",
"        ....&&&&....        ........====........****....        ",
"        ....&&&&....        ........====........****....        ",
"        ....&&&&....        ........====........****....        ",
"        ....&&&&....    ....====----------------....%%%%....    ",
"        ....&&&&....    ....====----------------....%%%%....    ",
"        ....&&&&....    ....====----------------....%%%%....    ",
"        ....&&&&....    ....====----------------....%%%%....    ",
"    ....&&&&....    ....%%%%....;;;;;;;;;;;;;;;;........****....",
"    ....&&&&....    ....%%%%....;;;;;;;;;;;;;;;;........****....",
"    ....&&&&....    ....%%%%....;;;;;;;;;;;;;;;;........****....",
"    ....&&&&....    ....%%%%....;;;;;;;;;;;;;;;;........****....",
"    ....&&&&....    ....%%%%........========....        ........",
"    ....&&&&....    ....%%%%........========....        ........",
"    ....&&&&....    ....%%%%........========....        ........",
"    ....&&&&....    ....%%%%........========....        ........",
"    ....&&&&....        ............%%%%&&&&....                ",
"    ....&&&&....        ............%%%%&&&&....                ",
"    ....&&&&....        ............%%%%&&&&....                ",
"    ....&&&&....        ............%%%%&&&&....                ",
"    ....&&&&&&&&............&&&&&&&&>>>>........                ",
"    ....&&&&&&&&............&&&&&&&&>>>>........                ",
"    ....&&&&&&&&............&&&&&&&&>>>>........                ",
"    ....&&&&&&&&............&&&&&&&&>>>>........                ",
"        ....&&&&&&&&&&&&&&&&&&&&>>>>>>>>....                    ",
"        ....&&&&&&&&&&&&&&&&&&&&>>>>>>>>....                    ",
"        ....&&&&&&&&&&&&&&&&&&&&>>>>>>>>....                    ",
"        ....&&&&&&&&&&&&&&&&&&&&>>>>>>>>....                    ",
"            ....>>>>>>>>>>>>>>>>>>>>....                        ",
"            ....>>>>>>>>>>>>>>>>>>>>....                        ",
"            ....>>>>>>>>>>>>>>>>>>>>....                        ",
"            ....>>>>>>>>>>>>>>>>>>>>....                        ",
"                                                                ",
"                                                                ",
"                                                                ",
"                                                                "};
