/* XPM */
static char * O1_xpm[] = {
"64 64 24 1",
" 	c None",
".	c #59C135",
"+	c #14A02E",
"@	c #9CDB43",
"#	c #D6F264",
"$	c #242234",
"%	c #333941",
"&	c #61C336",
"*	c #5DC236",
"=	c #60C336",
"-	c #6D758D",
";	c #9CDA44",
">	c #4A5462",
",	c #B3B9D1",
"'	c #8B93AF",
")	c #6E768E",
"!	c #6F778F",
"~	c #6F768E",
"{	c #B0B7CE",
"]	c #B2B8D0",
"^	c #20D6C7",
"/	c #A6FCDB",
"(	c #285CC4",
"_	c #9BDA45",
"....++++@@@@++++....++++....................++++........++++@@@@",
"....++++@@@@++++....++++....................++++........++++@@@@",
"....++++@@@@++++....++++....................++++........++++@@@@",
"....++++@@@@++++....++++....................++++........++++@@@@",
"....++++@@@@@@@@....++++@@@@....@@@@++++....++++####............",
"....++++@@@@@@@@....++++@@@@....@@@@++++....++++####............",
"....++++@@@@@@@@....++++@@@@....@@@@++++....++++####............",
"....++++@@@@@@@@....++++@@@@....@@@@++++....++++####............",
"++++@@@@$$$$%%%%@@@@...&@@@@@@@@@@@@@@@@####....@@@@@@@@........",
"++++@@@@$$$$%%%%@@@@...*@@@@@@@@@@@@@@@@####....@@@@@@@@........",
"++++@@@@$$$$%%%%@@@@...=@@@@@@@@@@@@@@@@####....@@@@@@@@........",
"++++@@@@$$$$%%%%@@@@...*@@@@@@@@@@@@@@@@####....@@@@@@@@........",
"++++@@@@$$$$$$$$----@@@;@@@@$$$$$$$$>>>>@@@@@@@@$$$$$$$$@@@@@@@@",
"++++@@@@$$$$$$$$----@@@@@@@@$$$$$$$$>>>>@@@@@@@@$$$$$$$$@@@@@@@@",
"++++@@@@$$$$$$$$----@@@@@@@@$$$$$$$$>>>>@@@@@@@@$$$$$$$$@@@@@@@@",
"++++@@@@$$$$$$$$----@@@;@@@@$$$$$$$$>>>>@@@@@@@@$$$$$$$$@@@@@@@@",
"@@@@....@@@@$$$$,,,,--------$$$$>>>>%%%%----''''$$$$%%%%@@@@....",
"@@@@....@@@@$$$$,,,,---)----$$$$>>>>%%%%----''''$$$$%%%%@@@@....",
"@@@@....@@@@$$$$,,,,---!----$$$$>>>>%%%%----''''$$$$%%%%@@@@....",
"@@@@....@@@@$$$$,,,,---~----$$$$>>>>%%%%----''''$$$$%%%%@@@@....",
"@@@@@@@@$$$$%%%%----,,,,''''$$$$%%%%%%%%,,,,''''$$$$%%%%@@@@....",
"@@@@@@@@$$$$%%%%----,,,{''''$$$$%%%%%%%%,,,,''''$$$$%%%%@@@@....",
"@@@@@@@@$$$$%%%%----,,,]''''$$$$%%%%%%%%,,,,''''$$$$%%%%@@@@....",
"@@@@@@@@$$$$%%%%----,,,,''''$$$$%%%%%%%%,,,,''''$$$$%%%%@@@@....",
"....@@@@$$$$%%%%^^^^>>>>>>>>^^^^////////''''----((((@@@@@@@@++++",
"....@@@@$$$$%%%%^^^^>>>>>>>>^^^^////////''''----((((@@@@@@@@++++",
"....@@@@$$$$%%%%^^^^>>>>>>>>^^^^////////''''----((((@@@@@@@@++++",
"....@@@@$$$$%%%%^^^^>>>>>>>>^^^^////////''''----((((@@@@@@@@++++",
"....@@@@@@@@////((((^^^^^^^^((((((((((((////////((((@@@@........",
"....@@@@@@@@////((((^^^^^^^^((((((((((((////////((((@@@@........",
"....@@@@@@@@////((((^^^^^^^^((((((((((((////////((((@@@@........",
"....@@@@@@@@////((((^^^^^^^^((((((((((((////////((((@@@@........",
"....@@@@@@@@%%%%^^^^((((((((((((((((((((((((((((////$$$$@@@@####",
"....@@@@@@@@%%%%^^^^((((((((((((((((((((((((((((////$$$$@@@@####",
"....@@@@@@@@%%%%^^^^((((((((((((((((((((((((((((////$$$$@@@@####",
"....@@@@@@@@%%%%^^^^((((((((((((((((((((((((((((////$$$$@@@@####",
"............@@@@>>>>////((((((((        ((((((((^^^^$$$$@@@@....",
"............@@@@>>>>////((((((((        ((((((((^^^^$$$$@@@@....",
"............@@@@>>>>////((((((((        ((((((((^^^^$$$$@@@@....",
"............@@@@>>>>////((((((((        ((((((((^^^^$$$$@@@@....",
"........@@@@>>>>////((((                    ^^^^>>>>@@@@@@@@++++",
"........@@@@>>>>////((((                    ^^^^>>>>@@@@@@@@++++",
"........@@@@>>>>////((((                    ^^^^>>>>@@@@@@@@++++",
"........@@@@>>>>////((((                    ^^^^>>>>@@@@@@@@++++",
"....@@@@$$$$^^^^((((((((                ((((////%%%%@@@@....++++",
"....@@@@$$$$^^^^((((((((                ((((////%%%%@@@@....++++",
"....@@@@$$$$^^^^((((((((                ((((////%%%%@@@@....++++",
"....@@@@$$$$^^^^((((((((                ((((////%%%%@@@@....++++",
"....@@@@%%%%^^^^((((((((@@@@        @@@@^^^^>>>>@@@@@@@@....++++",
"....@@@@%%%%^^^^((((((((@@@@        @@@@^^^^>>>>@@@@@@@@....++++",
"....@@@@%%%%^^^^((((((((@@@@        @@@@^^^^>>>>@@@@@@@@....++++",
"....@@@@%%%%^^^^((((((((@@@@        @@@@^^^^>>>>@@@@@@@@....++++",
"....@@@@@@@@((((((((@@@@++++@@@@@@@@((((@@@@@@@@>>>>$$$$@@@@....",
"....@@@@@@@@((((((((@@@@++++@@@@@@@@((((@@@@@@@@>>>>$$$$@@@@....",
"....@@@@@@@@((((((((@@@@++++@@@@@@@@((((@@@@@@@@>>>>$$$$@@@@....",
"....@@@@@@@@((((((((@@@@++++@@@@@@@@((((@@@@@@@@>>>>$$$$@@@@....",
"@@@@@@@@....@@@@@@@@....@@@@....@@@@_@@@....@@@@@@@@@@@@........",
"@@@@@@@@....@@@@@@@@....@@@@....@@@@@@@@....@@@@@@@@@@@@........",
"@@@@@@@@....@@@@@@@@....@@@@....@@@@@@@@....@@@@@@@@@@@@........",
"@@@@@@@@....@@@@@@@@....@@@@....@@@@@@@@....@@@@@@@@@@@@........",
"........@@@@............@@@@++++....@@@@++++............++++@@@@",
"........@@@@............@@@@++++....@@@@++++............++++@@@@",
"........@@@@............@@@@++++....@@@@++++............++++@@@@",
"........@@@@............@@@@++++....@@@@++++............++++@@@@"};
