/* XPM */
static char * one_xpm[] = {
"42 42 4 1",
" 	c None",
".	c #333333",
"+	c #AFB9C0",
"@	c #DEEED6",
"            ..............................",
"            ..............................",
"            ..............................",
"            ..............................",
"            ..............................",
"            ..............................",
"..................++++++@@@@@@++++++......",
"..................++++++@@@@@@++++++......",
"..................++++++@@@@@@++++++......",
"..................++++++@@@@@@++++++......",
"..................++++++@@@@@@++++++......",
"..................++++++@@@@@@++++++......",
"......++++++@@@@@@@@@@@@@@@@@@@@@@@@......",
"......++++++@@@@@@@@@@@@@@@@@@@@@@@@......",
"......++++++@@@@@@@@@@@@@@@@@@@@@@@@......",
"......++++++@@@@@@@@@@@@@@@@@@@@@@@@......",
"......++++++@@@@@@@@@@@@@@@@@@@@@@@@......",
"......++++++@@@@@@@@@@@@@@@@@@@@@@@@......",
"......@@@@@@@@@@@@@@@@@@@@@@@@@@@@@@......",
"......@@@@@@@@@@@@@@@@@@@@@@@@@@@@@@......",
"......@@@@@@@@@@@@@@@@@@@@@@@@@@@@@@......",
"......@@@@@@@@@@@@@@@@@@@@@@@@@@@@@@......",
"......@@@@@@@@@@@@@@@@@@@@@@@@@@@@@@......",
"......@@@@@@@@@@@@@@@@@@@@@@@@@@@@@@......",
"..................@@@@@@@@@@@@@@@@@@......",
"..................@@@@@@@@@@@@@@@@@@......",
"..................@@@@@@@@@@@@@@@@@@......",
"..................@@@@@@@@@@@@@@@@@@......",
"..................@@@@@@@@@@@@@@@@@@......",
"..................@@@@@@@@@@@@@@@@@@......",
"            ......++++++@@@@@@++++++......",
"            ......++++++@@@@@@++++++......",
"            ......++++++@@@@@@++++++......",
"            ......++++++@@@@@@++++++......",
"            ......++++++@@@@@@++++++......",
"            ......++++++@@@@@@++++++......",
"            ..............................",
"            ..............................",
"            ..............................",
"            ..............................",
"            ..............................",
"            .............................."};
