/* XPM */
static char * paladinw2_xpm[] = {
"64 64 12 1",
" 	c None",
".	c #060608",
"+	c #C7B08B",
"@	c #E4D2AA",
"#	c #FFFFFF",
"$	c #DAE0EA",
"%	c #B3B9D1",
"&	c #8B93AF",
"*	c #423934",
"=	c #B4202A",
"-	c #6D758D",
";	c #73172D",
"            ....................                                ",
"            ....................                                ",
"            ....................                                ",
"            ....................                                ",
"............++++@@@@................                            ",
"............++++@@@@................                            ",
"............++++@@@@................                            ",
"............++++@@@@................                            ",
"....####........++++....$$$$%%%%....                            ",
"....####........++++....$$$$%%%%....                            ",
"....####........++++....$$$$%%%%....                            ",
"....####........++++....$$$$%%%%....                            ",
"    ....####........%%%%........................                ",
"    ....####........%%%%........................                ",
"    ....####........%%%%........................                ",
"    ....####........%%%%........................                ",
"    ........####....&&&&%%%%%%%%....++++@@@@....                ",
"    ........####....&&&&%%%%%%%%....++++@@@@....                ",
"    ........####....&&&&%%%%%%%%....++++@@@@....                ",
"    ........####....&&&&%%%%%%%%....++++@@@@....                ",
"        ........####................++++....                    ",
"        ........####................++++....                    ",
"        ........####................++++....                    ",
"        ........####................++++....                    ",
"        ............####****................                    ",
"        ............####****................                    ",
"        ............####****................                    ",
"        ............####****................                    ",
"        ....&&&&....****............&&&&....                    ",
"        ....&&&&....****............&&&&....                    ",
"        ....&&&&....****............&&&&....                    ",
"        ....&&&&....****............&&&&....                    ",
"    ....====....&&&&........&&&&&&&&....                        ",
"    ....====....&&&&........&&&&&&&&....                        ",
"    ....====....&&&&........&&&&&&&&....                        ",
"    ....====....&&&&........&&&&&&&&....                        ",
"    ....====........................                            ",
"    ....====........................                            ",
"    ....====........................                            ",
"    ....====........................                            ",
"    ....====........................                            ",
"    ....====........................                            ",
"    ....====........................                            ",
"    ....====........................                            ",
"    ....====....----........----....                            ",
"    ....====....----........----....                            ",
"    ....====....----........----....                            ",
"    ....====....----........----....                            ",
"    ....====....&&&&........&&&&....                            ",
"    ....====....&&&&........&&&&....                            ",
"    ....====....&&&&........&&&&....                            ",
"    ....====....&&&&........&&&&....                            ",
"....====;;;;....%%%%........%%%%....                            ",
"....====;;;;....%%%%........%%%%....                            ",
"....====;;;;....%%%%........%%%%....                            ",
"....====;;;;....%%%%........%%%%....                            ",
"................%%%%........%%%%....                            ",
"................%%%%........%%%%....                            ",
"................%%%%........%%%%....                            ",
"................%%%%........%%%%....                            ",
"                                                                ",
"                                                                ",
"                                                                ",
"                                                                "};
