/* XPM */
static char * paladinw3_xpm[] = {
"64 64 13 1",
" 	c None",
".	c #060608",
"+	c #FFFFFF",
"@	c #C7B08B",
"#	c #E4D2AA",
"$	c #DAE0EA",
"%	c #B3B9D1",
"&	c #8B93AF",
"*	c #423934",
"=	c #B4202A",
"-	c #6D758D",
";	c #4A5462",
">	c #73172D",
"........    ....................                                ",
"........    ....................                                ",
"........    ....................                                ",
"........    ....................                                ",
"....++++....@@@@####................                            ",
"....++++....@@@@####................                            ",
"....++++....@@@@####................                            ",
"....++++....@@@@####................                            ",
"    ....++++....@@@@....$$$$%%%%................                ",
"    ....++++....@@@@....$$$$%%%%................                ",
"    ....++++....@@@@....$$$$%%%%................                ",
"    ....++++....@@@@....$$$$%%%%................                ",
"    ........++++....%%%%............@@@@####....                ",
"    ........++++....%%%%............@@@@####....                ",
"    ........++++....%%%%............@@@@####....                ",
"    ........++++....%%%%............@@@@####....                ",
"        ........++++....%%%%%%%%....@@@@....                    ",
"        ........++++....%%%%%%%%....@@@@....                    ",
"        ........++++....%%%%%%%%....@@@@....                    ",
"        ........++++....%%%%%%%%....@@@@....                    ",
"        ............++++....................                    ",
"        ............++++....................                    ",
"        ............++++....................                    ",
"        ............++++....................                    ",
"        ....&&&&....****............&&&&....                    ",
"        ....&&&&....****............&&&&....                    ",
"        ....&&&&....****............&&&&....                    ",
"        ....&&&&....****............&&&&....                    ",
"    ....====....&&&&........&&&&&&&&....                        ",
"    ....====....&&&&........&&&&&&&&....                        ",
"    ....====....&&&&........&&&&&&&&....                        ",
"    ....====....&&&&........&&&&&&&&....                        ",
"    ....====............................                        ",
"    ....====............................                        ",
"    ....====............................                        ",
"    ....====............................                        ",
"    ....====............................                        ",
"    ....====............................                        ",
"    ....====............................                        ",
"    ....====............................                        ",
"    ....====....----........;;;;----....                        ",
"    ....====....----........;;;;----....                        ",
"    ....====....----........;;;;----....                        ",
"    ....====....----........;;;;----....                        ",
"    ....====....&&&&............----....                        ",
"    ....====....&&&&............----....                        ",
"    ....====....&&&&............----....                        ",
"    ....====....&&&&............----....                        ",
"....====>>>>....%%%%............----....                        ",
"....====>>>>....%%%%............----....                        ",
"....====>>>>....%%%%............----....                        ",
"....====>>>>....%%%%............----....                        ",
"....====>>>>....%%%%....                                        ",
"....====>>>>....%%%%....                                        ",
"....====>>>>....%%%%....                                        ",
"....====>>>>....%%%%....                                        ",
"    ........                                                    ",
"    ........                                                    ",
"    ........                                                    ",
"    ........                                                    ",
"                                                                ",
"                                                                ",
"                                                                ",
"                                                                "};
