/* XPM */
static char * rborder4_xpm[] = {
"64 64 11 1",
" 	c None",
".	c #285CC4",
"+	c #242234",
"@	c #9CDB43",
"#	c #59C135",
"$	c #14A02E",
"%	c #20D6C7",
"&	c #D6F264",
"*	c #4A5462",
"=	c #333941",
"-	c #A6FCDB",
"                                                ....++++@@@@@@@@",
"                                                ....++++@@@@@@@@",
"                                                ....++++@@@@@@@@",
"                                                ....++++@@@@@@@@",
"                                                ....@@@@########",
"                                                ....@@@@########",
"                                                ....@@@@########",
"                                                ....@@@@########",
"                                            ....@@@@@@@@########",
"                                            ....@@@@@@@@########",
"                                            ....@@@@@@@@########",
"                                            ....@@@@@@@@########",
"                                            ....++++@@@@$$$$@@@@",
"                                            ....++++@@@@$$$$@@@@",
"                                            ....++++@@@@$$$$@@@@",
"                                            ....++++@@@@$$$$@@@@",
"                                            ....%%%%++++@@@@####",
"                                            ....%%%%++++@@@@####",
"                                            ....%%%%++++@@@@####",
"                                            ....%%%%++++@@@@####",
"                                                ....@@@@@@@@####",
"                                                ....@@@@@@@@####",
"                                                ....@@@@@@@@####",
"                                                ....@@@@@@@@####",
"                                                @@@@####@@@@$$$$",
"                                                @@@@####@@@@$$$$",
"                                                @@@@####@@@@$$$$",
"                                                @@@@####@@@@$$$$",
"                                            ....++++@@@@########",
"                                            ....++++@@@@########",
"                                            ....++++@@@@########",
"                                            ....++++@@@@########",
"                                            ....%%%%++++@@@@&&&&",
"                                            ....%%%%++++@@@@&&&&",
"                                            ....%%%%++++@@@@&&&&",
"                                            ....%%%%++++@@@@&&&&",
"                                                ....++++@@@@####",
"                                                ....++++@@@@####",
"                                                ....++++@@@@####",
"                                                ....++++@@@@####",
"                                            ....****@@@@@@@@$$$$",
"                                            ....****@@@@@@@@$$$$",
"                                            ....****@@@@@@@@$$$$",
"                                            ....****@@@@@@@@$$$$",
"                                            ....====@@@@####$$$$",
"                                            ....====@@@@####$$$$",
"                                            ....====@@@@####$$$$",
"                                            ....====@@@@####$$$$",
"                                        ....****@@@@@@@@####$$$$",
"                                        ....****@@@@@@@@####$$$$",
"                                        ....****@@@@@@@@####$$$$",
"                                        ....****@@@@@@@@####$$$$",
"                                        ....%%%%@@@@@@@@$$$$####",
"                                        ....%%%%@@@@@@@@$$$$####",
"                                        ....%%%%@@@@@@@@$$$$####",
"                                        ....%%%%@@@@@@@@$$$$####",
"                                            ....====@@@@########",
"                                            ....====@@@@########",
"                                            ....====@@@@########",
"                                            ....====@@@@########",
"                                            ....----++++@@@@@@@@",
"                                            ....----++++@@@@@@@@",
"                                            ....----++++@@@@@@@@",
"                                            ....----++++@@@@@@@@"};
