/* XPM */
static char * shaman2_xpm[] = {
"64 64 13 1",
" 	c None",
".	c #060608",
"+	c #423934",
"@	c #DAE0EA",
"#	c #B3B9D1",
"$	c #1A7A3E",
"%	c #8B93AF",
"&	c #BA756A",
"*	c #14A02E",
"=	c #8E5252",
"-	c #BB7547",
";	c #71413B",
">	c #322B28",
"                                                ....            ",
"                                                ....            ",
"                                                ....            ",
"                                                ....            ",
"            ........        ........        ....++++....        ",
"            ........        ........        ....++++....        ",
"            ........        ........        ....++++....        ",
"            ........        ........        ....++++....        ",
"        ....@@@@####........####@@@@........++++............    ",
"        ....@@@@####........####@@@@........++++............    ",
"        ....@@@@####........####@@@@........++++............    ",
"        ....@@@@####........####@@@@........++++............    ",
"    ....########....++++++++....####....$$$$....%%%%########....",
"    ....########....++++++++....####....$$$$....%%%%########....",
"    ....########....++++++++....####....$$$$....%%%%########....",
"    ....########....++++++++....####....$$$$....%%%%########....",
"        ........++++&&&&&&&&........................%%%%........",
"        ........++++&&&&&&&&........................%%%%........",
"        ........++++&&&&&&&&........................%%%%........",
"        ........++++&&&&&&&&........................%%%%........",
"    ....****........====&&&&....        ........%%%%%%%%%%%%....",
"    ....****........====&&&&....        ........%%%%%%%%%%%%....",
"    ....****........====&&&&....        ........%%%%%%%%%%%%....",
"    ....****........====&&&&....        ........%%%%%%%%%%%%....",
"....****$$$$....----====....----....    ....++++............    ",
"....****$$$$....----====....----....    ....++++............    ",
"....****$$$$....----====....----....    ....++++............    ",
"....****$$$$....----====....----....    ....++++............    ",
"....****........----------------............++++....            ",
"....****........----------------............++++....            ",
"....****........----------------............++++....            ",
"....****........----------------............++++....            ",
"    ....====....;;;;;;;;;;;;;;;;....&&&&....====....            ",
"    ....====....;;;;;;;;;;;;;;;;....&&&&....====....            ",
"    ....====....;;;;;;;;;;;;;;;;....&&&&....====....            ",
"    ....====....;;;;;;;;;;;;;;;;....&&&&....====....            ",
"    ....====........>>>>>>>>....    ........>>>>....            ",
"    ....====........>>>>>>>>....    ........>>>>....            ",
"    ....====........>>>>>>>>....    ........>>>>....            ",
"    ....====........>>>>>>>>....    ........>>>>....            ",
"        ........----------------....    ....++++....            ",
"        ........----------------....    ....++++....            ",
"        ........----------------....    ....++++....            ",
"        ........----------------....    ....++++....            ",
"            ....;;;;--------;;;;....    ....++++....            ",
"            ....;;;;--------;;;;....    ....++++....            ",
"            ....;;;;--------;;;;....    ....++++....            ",
"            ....;;;;--------;;;;....    ....++++....            ",
"            ........;;;;;;;;........    ....++++....            ",
"            ........;;;;;;;;........    ....++++....            ",
"            ........;;;;;;;;........    ....++++....            ",
"            ........;;;;;;;;........    ....++++....            ",
"            ....====........====....    ....++++....            ",
"            ....====........====....    ....++++....            ",
"            ....====........====....    ....++++....            ",
"            ....====........====....    ....++++....            ",
"            ....&&&&........&&&&....                            ",
"            ....&&&&........&&&&....                            ",
"            ....&&&&........&&&&....                            ",
"            ....&&&&........&&&&....                            ",
"                                                                ",
"                                                                ",
"                                                                ",
"                                                                "};
