/* XPM */
static char * shamanw2_xpm[] = {
"64 64 12 1",
" 	c None",
".	c #060608",
"+	c #DAE0EA",
"@	c #B3B9D1",
"#	c #423934",
"$	c #BA756A",
"%	c #14A02E",
"&	c #8E5252",
"*	c #322B28",
"=	c #1A7A3E",
"-	c #BB7547",
";	c #71413B",
"                                                                ",
"                                                                ",
"                                                                ",
"                                                                ",
"            ........................                            ",
"            ........................                            ",
"            ........................                            ",
"            ........................                            ",
"        ....++++@@@@........@@@@++++....                        ",
"        ....++++@@@@........@@@@++++....                        ",
"        ....++++@@@@........@@@@++++....                        ",
"        ....++++@@@@........@@@@++++....                        ",
"    ....@@@@@@@@....########....@@@@....                        ",
"    ....@@@@@@@@....########....@@@@....                        ",
"    ....@@@@@@@@....########....@@@@....                        ",
"    ....@@@@@@@@....########....@@@@....                        ",
"        ........####$$$$$$$$............                        ",
"        ........####$$$$$$$$............                        ",
"        ........####$$$$$$$$............                        ",
"        ........####$$$$$$$$............                        ",
"    ....%%%%........&&&&$$$$........****....                    ",
"    ....%%%%........&&&&$$$$........****....                    ",
"    ....%%%%........&&&&$$$$........****....                    ",
"    ....%%%%........&&&&$$$$........****....                    ",
"....%%%%====....----&&&&....----........$$$$....                ",
"....%%%%====....----&&&&....----........$$$$....                ",
"....%%%%====....----&&&&....----........$$$$....                ",
"....%%%%====....----&&&&....----........$$$$....                ",
"....%%%%........----------------....$$$$....****....            ",
"....%%%%........----------------....$$$$....****....            ",
"....%%%%........----------------....$$$$....****....            ",
"....%%%%........----------------....$$$$....****....            ",
"    ....&&&&....;;;;;;;;;;;;;;;;................####....        ",
"    ....&&&&....;;;;;;;;;;;;;;;;................####....        ",
"    ....&&&&....;;;;;;;;;;;;;;;;................####....        ",
"    ....&&&&....;;;;;;;;;;;;;;;;................####....        ",
"        ....&&&&....********....                ....####....    ",
"        ....&&&&....********....                ....####....    ",
"        ....&&&&....********....                ....####....    ",
"        ....&&&&....********....                ....####....    ",
"            ....----------------....                ....        ",
"            ....----------------....                ....        ",
"            ....----------------....                ....        ",
"            ....----------------....                ....        ",
"            ....;;;;--------;;;;....                            ",
"            ....;;;;--------;;;;....                            ",
"            ....;;;;--------;;;;....                            ",
"            ....;;;;--------;;;;....                            ",
"            ........;;;;;;;;........                            ",
"            ........;;;;;;;;........                            ",
"            ........;;;;;;;;........                            ",
"            ........;;;;;;;;........                            ",
"            ....&&&&........&&&&....                            ",
"            ....&&&&........&&&&....                            ",
"            ....&&&&........&&&&....                            ",
"            ....&&&&........&&&&....                            ",
"            ....$$$$........$$$$....                            ",
"            ....$$$$........$$$$....                            ",
"            ....$$$$........$$$$....                            ",
"            ....$$$$........$$$$....                            ",
"                                                                ",
"                                                                ",
"                                                                ",
"                                                                "};
