/* XPM */
static char * soso_xpm[] = {
"64 64 86 1",
" 	c None",
".	c #47704C",
"+	c #89746F",
"@	c #BF7B75",
"#	c #6F4D41",
"$	c #0E0A0D",
"%	c #493732",
"&	c #443732",
"*	c #4E3F3A",
"=	c #241A1A",
"-	c #2D1E1C",
";	c #B08076",
">	c #322624",
",	c #261B1E",
"'	c #573F35",
")	c #4B3932",
"!	c #221818",
"~	c #322425",
"{	c #503C36",
"]	c #9E6F65",
"^	c #120E0D",
"/	c #322524",
"(	c #46342F",
"_	c #5A4840",
":	c #92726B",
"<	c #3E2F2E",
"[	c #362621",
"}	c #9D695F",
"|	c #1E1714",
"1	c #654E44",
"2	c #5C483F",
"3	c #A5776F",
"4	c #A1736C",
"5	c #47342D",
"6	c #6E574F",
"7	c #664A41",
"8	c #B08576",
"9	c #AC7266",
"0	c #997771",
"a	c #151314",
"b	c #846B64",
"c	c #0E0B0F",
"d	c #100D11",
"e	c #0A080A",
"f	c #A7756A",
"g	c #B78073",
"h	c #B27C6F",
"i	c #151014",
"j	c #765046",
"k	c #503530",
"l	c #C09082",
"m	c #91665C",
"n	c #1D1415",
"o	c #A67066",
"p	c #AE796B",
"q	c #9B6960",
"r	c #905F55",
"s	c #65433A",
"t	c #BB8578",
"u	c #3F2D2A",
"v	c #9C6F67",
"w	c #6C473D",
"x	c #AB7972",
"y	c #100A0B",
"z	c #342422",
"A	c #B77872",
"B	c #82574E",
"C	c #895E58",
"D	c #875D52",
"E	c #7A584E",
"F	c #BD8A7C",
"G	c #C3857F",
"H	c #B3746D",
"I	c #48312C",
"J	c #5A403D",
"K	c #7E4F48",
"L	c #B06B68",
"M	c #694B46",
"N	c #9B635C",
"O	c #A36762",
"P	c #5F3A33",
"Q	c #B4857D",
"R	c #C78987",
"S	c #402822",
"T	c #954E53",
"U	c #CB938B",
"                                                                ",
"                                                                ",
"                                                                ",
"                                                                ",
"                                                                ",
"                                                                ",
"                                                                ",
"                                                                ",
"                                                                ",
"                                                                ",
"                                                                ",
"                            2'{5{J(                             ",
"                          )uu-nn=nn=[                           ",
"                        )z==niyyyeeeey!                         ",
"                      'uz==nyyyyyyyeeeen                        ",
"                     )kuuniieyyeyniyyy$e^                       ",
"                    )uS=i=SkkJJkuzunydd$e!                      ",
"                   1k-n-JmohhhpfvCDskSny$d/                     ",
"                   Jzn-sfppgggpoqoovvmBszy-                     ",
"                  6I==uEfpgtttgpfoffvqmDjSn                     ",
"                  )zzzuEfhtFFFthpfxxfvmDEju,                    ",
"                  {SuuIEpgtFllGgxfxxfvqmBjM!                    ",
"                  IukIuChgFRUURFQxxxxvqmDjMz                    ",
"                  uukIExpgtQQRRlQ;xxxfqmDjs-                    ",
"                  uIIMxpfms{JJMCxQ;;xvqmDEs-                    ",
"                  IIkChfmJkIuz-ICQxxvMkkk{J-                    ",
"                  k{JqhfCCvvvvmCq;fqBznny$u|                    ",
"                 /{JJfhfofqrjwBNotxrwsBBJ-z(                    ",
"                3HNsM;hhpBPu=JsKOt;jkwJPwwk2                    ",
"                L@@BEQggprrmjEwKNApPSJnuuIs                     ",
"                L@HrvtghhpooOrrOOHLsSwMMkSw                     ",
"                9GLrvtgggAHLoLHAHHAKkjBKws#2                    ",
"                4@@qCggtt@@AAH@@AHABsBCDBj#1                    ",
"                4AOqjftGGRRG@A@HLHArsKqNrB#1                    ",
"                 U@qsmtGRRUR@LLHAGGowjOoqCj                     ",
"                 3UoPB;tGRRGLOHoOxQmsjofOr#                     ",
"                  4]sEftGGRHNHALOrKPPrxfqD7                     ",
"                   b#EfgtGArqovmCj#ksBNOqK'                     ",
"                    MEfhgGrwKrmCCKBskk#Nr#(                     ",
"                    7#fhhgrDrTTTTTKPkIIBrP                      ",
"                    6JvhxhooAHLLOTTPkwwC#k                      ",
"                    3#DfhghpAAAHoNTjjKDCk'                      ",
"                    8qEvpgghHAAHqCDjKjD#I                       ",
"                    8hqmfhggHhAAoNNCKjjs(                       ",
"                    ;hpmrfhggghfOOqrj#s)                        ",
"                    thgfrDohgghoNNrB#s)                         ",
"                    FgtgorKrvfffqNBw{5                          ",
"                  /;gtFtporwsjCmBDwS-                           ",
"                 !EFhFFFhfpqwSSIkk-n[                           ",
"                ,z9pgFllFthhfm#IS-=S'                           ",
"               (z=DptllllFgghhfmBskP'                           ",
"             [=zniIptlllllQg;fomjPPw'                           ",
"           ,ndinnidEllllllFt;fqB#sw#[                           ",
"         ,=d$idiiii=mUllllQF;omBj#j#zi                          ",
"       ,=nd$dddciindnmUlllQQxvmDjjEw=ec,                        ",
"     ,=nd$dddddddiiiidMQllQ;fvmDEEEkyc$y^                       ",
"   ,==i$dddidddddiiiniczCQlQxvmmmD#-eec$ec|                     ",
"  !==iddddddddddddiiiiiddzMvfvvmE{-ccccce$c^/                   ",
"!-=nicdcddddddddddiiiiiiicei-zznyeeeccccye$ec^                  ",
"==idccdddddddddddddidididiiceeeecddcccceeeec$ed,                ",
"idddddddddccdcccddccddiddddddddddddcccceececcc$da               ",
"ccdddddcddcdcccccccccddddddddddddddccdccccccccc$c^              ",
"ddddcdddddddddddddddccdcdddddddddddccccccccccccc$ci/            ",
"dddcddddddddddddddddcddccdcccdddddddcccdccdcccccccec|           "};
