/* XPM */
static char * spider1_xpm[] = {
"64 64 8 1",
" 	c None",
".	c #060608",
"+	c #793A80",
"@	c #403353",
"#	c #242234",
"$	c #BB7547",
"%	c #71413B",
"&	c #322B28",
"                                                                ",
"                                                                ",
"                                                                ",
"                                                                ",
"                                                                ",
"                                                                ",
"                                                                ",
"                                                                ",
"                                                                ",
"                                                                ",
"                                                                ",
"                                                                ",
"                                                                ",
"                                                                ",
"                                                                ",
"                                                                ",
"                                                                ",
"                                                                ",
"                                                                ",
"                                                                ",
"                                                                ",
"                                                                ",
"                                                                ",
"                                                                ",
"                                                                ",
"                                                                ",
"                                                                ",
"                                                                ",
"            ............                                        ",
"            ............                                        ",
"            ............                                        ",
"            ............                                        ",
"        ....++++++++++++....                                    ",
"        ....++++++++++++....                                    ",
"        ....++++++++++++....                                    ",
"        ....++++++++++++....                                    ",
"    ....++++@@@@++++@@@@@@@@................                    ",
"    ....++++@@@@++++@@@@@@@@................                    ",
"    ....++++@@@@++++@@@@@@@@................                    ",
"    ....++++@@@@++++@@@@@@@@................                    ",
"    ....@@@@....@@@@....@@@@####....####@@@@....                ",
"    ....@@@@....@@@@....@@@@####....####@@@@....                ",
"    ....@@@@....@@@@....@@@@####....####@@@@....                ",
"    ....@@@@....@@@@....@@@@####....####@@@@....                ",
"    ........$$$$....$$$$........$$$$............                ",
"    ........$$$$....$$$$........$$$$............                ",
"    ........$$$$....$$$$........$$$$............                ",
"    ........$$$$....$$$$........$$$$............                ",
"    ....$$$$........%%%%........%%%%........$$$$....            ",
"    ....$$$$........%%%%........%%%%........$$$$....            ",
"    ....$$$$........%%%%........%%%%........$$$$....            ",
"    ....$$$$........%%%%........%%%%........$$$$....            ",
"    ....%%%%........%%%%........%%%%....    ....%%%%....        ",
"    ....%%%%........%%%%........%%%%....    ....%%%%....        ",
"    ....%%%%........%%%%........%%%%....    ....%%%%....        ",
"    ....%%%%........%%%%........%%%%....    ....%%%%....        ",
"    ....&&&&........&&&&........&&&&....    ....&&&&....        ",
"    ....&&&&........&&&&........&&&&....    ....&&&&....        ",
"    ....&&&&........&&&&........&&&&....    ....&&&&....        ",
"    ....&&&&........&&&&........&&&&....    ....&&&&....        ",
"                                                                ",
"                                                                ",
"                                                                ",
"                                                                "};
