/* XPM */
static char * tborder6_xpm[] = {
"64 64 4 1",
" 	c None",
".	c #9CDB43",
"+	c #14A02E",
"@	c #59C135",
"                                                                ",
"                                                                ",
"                                                                ",
"                                                                ",
"                                                                ",
"                                                                ",
"                                                                ",
"                                                                ",
"                                                                ",
"                                                                ",
"                                                                ",
"                                                                ",
"                                                                ",
"                                                                ",
"                                                                ",
"                                                                ",
"                                                                ",
"                                                                ",
"                                                                ",
"                                                                ",
"                                                                ",
"                                                                ",
"                                                                ",
"                                                                ",
"                                                                ",
"                                                                ",
"                                                                ",
"                                                                ",
"                                                                ",
"                                                                ",
"                                                                ",
"                                                                ",
"                                                                ",
"                                                                ",
"                                                                ",
"                                                                ",
"                                                                ",
"                                                                ",
"                                                                ",
"                                                                ",
"                                                                ",
"                                                                ",
"                                                                ",
"                                                                ",
"                                                                ",
"                                                                ",
"                                                                ",
"                                                                ",
"                        ....                    ........        ",
"                        ....                    ........        ",
"                        ....                    ........        ",
"                        ....                    ........        ",
"    ........        ....++++....        ........@@@@........    ",
"    ........        ....++++....        ........@@@@........    ",
"    ........        ....++++....        ........@@@@........    ",
"    ........        ....++++....        ........@@@@........    ",
"........@@@@........@@@@....@@@@........@@@@....++++@@@@@@@@....",
"........@@@@........@@@@....@@@@........@@@@....++++@@@@@@@@....",
"........@@@@........@@@@....@@@@........@@@@....++++@@@@@@@@....",
"........@@@@........@@@@....@@@@........@@@@....++++@@@@@@@@....",
"@@@@@@@@....@@@@@@@@@@@@....++++@@@@....++++@@@@@@@@@@@@++++....",
"@@@@@@@@....@@@@@@@@@@@@....++++@@@@....++++@@@@@@@@@@@@++++....",
"@@@@@@@@....@@@@@@@@@@@@....++++@@@@....++++@@@@@@@@@@@@++++....",
"@@@@@@@@....@@@@@@@@@@@@....++++@@@@....++++@@@@@@@@@@@@++++...."};
