/* XPM */
static char * treantw2_xpm[] = {
"64 64 8 1",
" 	c None",
".	c #000000",
"+	c #14A02E",
"@	c #1A7A3E",
"#	c #423934",
"$	c #5A4E44",
"%	c #24523B",
"&	c #322B28",
"                    ........                                    ",
"                    ........                                    ",
"                    ........                                    ",
"                    ........                                    ",
"                ....++++@@@@........                            ",
"                ....++++@@@@........                            ",
"                ....++++@@@@........                            ",
"                ....++++@@@@........                            ",
"                ....@@@@....####$$$$....                        ",
"                ....@@@@....####$$$$....                        ",
"                ....@@@@....####$$$$....                        ",
"                ....@@@@....####$$$$....                        ",
"                    ....####$$$$$$$$$$$$....                    ",
"                    ....####$$$$$$$$$$$$....                    ",
"                    ....####$$$$$$$$$$$$....                    ",
"                    ....####$$$$$$$$$$$$....                    ",
"        ................########$$$$$$$$........                ",
"        ................########$$$$$$$$........                ",
"        ................########$$$$$$$$........                ",
"        ................########$$$$$$$$........                ",
"    ....++++@@@@@@@@....####............@@@@++++....            ",
"    ....++++@@@@@@@@....####............@@@@++++....            ",
"    ....++++@@@@@@@@....####............@@@@++++....            ",
"    ....++++@@@@@@@@....####............@@@@++++....            ",
"    ....@@@@@@@@%%%%....$$$$####$$$$....%%%%@@@@....            ",
"    ....@@@@@@@@%%%%....$$$$####$$$$....%%%%@@@@....            ",
"    ....@@@@@@@@%%%%....$$$$####$$$$....%%%%@@@@....            ",
"    ....@@@@@@@@%%%%....$$$$####$$$$....%%%%@@@@....            ",
"        ............&&&&############............                ",
"        ............&&&&############............                ",
"        ............&&&&############............                ",
"        ............&&&&############............                ",
"        ....####........####$$$$........####....                ",
"        ....####........####$$$$........####....                ",
"        ....####........####$$$$........####....                ",
"        ....####........####$$$$........####....                ",
"        ....$$$$........&&&&####........$$$$....                ",
"        ....$$$$........&&&&####........$$$$....                ",
"        ....$$$$........&&&&####........$$$$....                ",
"        ....$$$$........&&&&####........$$$$....                ",
"    ....$$$$........%%%%........%%%%........$$$$....            ",
"    ....$$$$........%%%%........%%%%........$$$$....            ",
"    ....$$$$........%%%%........%%%%........$$$$....            ",
"    ....$$$$........%%%%........%%%%........$$$$....            ",
"    ....$$$$........%%%%@@@@%%%%@@@@........$$$$....            ",
"    ....$$$$........%%%%@@@@%%%%@@@@........$$$$....            ",
"    ....$$$$........%%%%@@@@%%%%@@@@........$$$$....            ",
"    ....$$$$........%%%%@@@@%%%%@@@@........$$$$....            ",
"        ....    ........@@@@@@@@........    ....                ",
"        ....    ........@@@@@@@@........    ....                ",
"        ....    ........@@@@@@@@........    ....                ",
"        ....    ........@@@@@@@@........    ....                ",
"                ........@@@@....####....                        ",
"                ........@@@@....####....                        ",
"                ........@@@@....####....                        ",
"                ........@@@@....####....                        ",
"                ....####........####....                        ",
"                ....####........####....                        ",
"                ....####........####....                        ",
"                ....####........####....                        ",
"                                                                ",
"                                                                ",
"                                                                ",
"                                                                "};
