/* XPM */
static char * U5_xpm[] = {
"64 64 10 1",
" 	c None",
".	c #59C135",
"+	c #9CDB43",
"@	c #242234",
"#	c #285CC4",
"$	c #14A02E",
"%	c #333941",
"&	c #20D6C7",
"*	c #D6F264",
"=	c #4A5462",
"....++++@@@@############                    ########@@@@++++++++",
"....++++@@@@############                    ########@@@@++++++++",
"....++++@@@@############                    ########@@@@++++++++",
"....++++@@@@############                    ########@@@@++++++++",
"....$$$$++++%%%%############                    ####++++........",
"....$$$$++++%%%%############                    ####++++........",
"....$$$$++++%%%%############                    ####++++........",
"....$$$$++++%%%%############                    ####++++........",
"$$$$++++$$$$++++%%%%########                    ++++++++........",
"$$$$++++$$$$++++%%%%########                    ++++++++........",
"$$$$++++$$$$++++%%%%########                    ++++++++........",
"$$$$++++$$$$++++%%%%########                    ++++++++........",
"$$$$........@@@@&&&&####                    ####@@@@++++$$$$++++",
"$$$$........@@@@&&&&####                    ####@@@@++++$$$$++++",
"$$$$........@@@@&&&&####                    ####@@@@++++$$$$++++",
"$$$$........@@@@&&&&####                    ####@@@@++++$$$$++++",
"++++....++++%%%%########                    ####&&&&@@@@++++....",
"++++....++++%%%%########                    ####&&&&@@@@++++....",
"++++....++++%%%%########                    ####&&&&@@@@++++....",
"++++....++++%%%%########                    ####&&&&@@@@++++....",
"++++$$$$++++&&&&####                        ########++++++++....",
"++++$$$$++++&&&&####                        ########++++++++....",
"++++$$$$++++&&&&####                        ########++++++++....",
"++++$$$$++++&&&&####                        ########++++++++....",
"....++++@@@@########                            ++++....++++$$$$",
"....++++@@@@########                            ++++....++++$$$$",
"....++++@@@@########                            ++++....++++$$$$",
"....++++@@@@########                            ++++....++++$$$$",
"....++++%%%%############                        @@@@++++........",
"....++++%%%%############                        @@@@++++........",
"....++++%%%%############                        @@@@++++........",
"....++++%%%%############                        @@@@++++........",
"....++++++++%%%%############                ####&&&&++++....****",
"....++++++++%%%%############                ####&&&&++++....****",
"....++++++++%%%%############                ####&&&&++++....****",
"....++++++++%%%%############                ####&&&&++++....****",
"............++++&&&&####                    ########@@@@++++....",
"............++++&&&&####                    ########@@@@++++....",
"............++++&&&&####                    ########@@@@++++....",
"............++++&&&&####                    ########@@@@++++....",
"........++++&&&&####                            @@@@++++++++$$$$",
"........++++&&&&####                            @@@@++++++++$$$$",
"........++++&&&&####                            @@@@++++++++$$$$",
"........++++&&&&####                            @@@@++++++++$$$$",
"....++++@@@@########                            &&&&++++....$$$$",
"....++++@@@@########                            &&&&++++....$$$$",
"....++++@@@@########                            &&&&++++....$$$$",
"....++++@@@@########                            &&&&++++....$$$$",
"....++++%%%%############++++        ++++++++########@@@@++++$$$$",
"....++++%%%%############++++        ++++++++########@@@@++++$$$$",
"....++++%%%%############++++        ++++++++########@@@@++++$$$$",
"....++++%%%%############++++        ++++++++########@@@@++++$$$$",
"....++++++++########++++$$$$++++++++....++++++++====@@@@++++....",
"....++++++++########++++$$$$++++++++....++++++++====@@@@++++....",
"....++++++++########++++$$$$++++++++....++++++++====@@@@++++....",
"....++++++++########++++$$$$++++++++....++++++++====@@@@++++....",
"++++++++....++++++++....++++....++++++++....++++++++++++........",
"++++++++....++++++++....++++....++++++++....++++++++++++........",
"++++++++....++++++++....++++....++++++++....++++++++++++........",
"++++++++....++++++++....++++....++++++++....++++++++++++........",
"........++++............++++$$$$....++++$$$$............$$$$++++",
"........++++............++++$$$$....++++$$$$............$$$$++++",
"........++++............++++$$$$....++++$$$$............$$$$++++",
"........++++............++++$$$$....++++$$$$............$$$$++++"};
