/* XPM */
static char *waka44_jpg[] = {
/* columns rows colors chars-per-pixel */
"64 64 256 2 ",
"   c #020202",
".  c #050609",
"X  c #090A0B",
"o  c #070607",
"O  c #171617",
"+  c #100D10",
"@  c #36281D",
"#  c #1E1C21",
"$  c #39332D",
"%  c #3B3833",
"&  c #312924",
"*  c #3B1E20",
"=  c #48382A",
"-  c #433B34",
";  c #4C3229",
":  c #451D1E",
">  c #45423D",
",  c #4B453D",
"<  c #594639",
"1  c #5B533C",
"2  c #67483B",
"3  c #79453C",
"4  c #523F41",
"5  c #4C4641",
"6  c #4D4A43",
"7  c #484945",
"8  c #514B44",
"9  c #534E49",
"0  c #5A4E49",
"q  c #55534B",
"w  c #5A554C",
"e  c #5C5B4D",
"r  c #575145",
"t  c #5B5552",
"y  c #5D5B52",
"u  c #585A55",
"i  c #4F524F",
"p  c #694844",
"a  c #774945",
"s  c #67554B",
"d  c #78564B",
"f  c #635C54",
"g  c #6A5D53",
"h  c #645E59",
"j  c #695E5B",
"k  c #695653",
"l  c #765B54",
"z  c #684E51",
"x  c #5D6256",
"c  c #646156",
"v  c #65625B",
"b  c #6A645C",
"n  c #6C695E",
"m  c #6A6356",
"M  c #736356",
"N  c #72645B",
"B  c #746A5D",
"V  c #7B6759",
"C  c #6E674C",
"Z  c #6B6661",
"A  c #6D6A63",
"S  c #676866",
"D  c #726D65",
"F  c #736E68",
"G  c #786D64",
"H  c #757166",
"J  c #7B7266",
"K  c #75726B",
"L  c #7A756D",
"P  c #7D786E",
"I  c #7B7671",
"U  c #7E7973",
"Y  c #757471",
"T  c #6F7166",
"R  c #645F63",
"E  c #8B3B39",
"W  c #B03337",
"Q  c #83443B",
"!  c #C33E44",
"~  c #89564E",
"^  c #856857",
"/  c #996C56",
"(  c #8B775E",
")  c #9B7359",
"_  c #91614A",
"`  c #A86E59",
"'  c #A8745A",
"]  c #B47B5D",
"[  c #B77959",
"{  c #B8685D",
"}  c #8B6965",
"|  c #946A67",
" . c #82796E",
".. c #867767",
"X. c #987967",
"o. c #827C74",
"O. c #8A7E73",
"+. c #847E79",
"@. c #AB7A65",
"#. c #B77B64",
"$. c #A06F61",
"%. c #C67F67",
"&. c #C2785B",
"*. c #B1B139",
"=. c #BCCF11",
"-. c #C6D902",
";. c #CFD30D",
":. c #CBD22C",
">. c #B9875E",
",. c #858175",
"<. c #8A8275",
"1. c #85827A",
"2. c #8B847B",
"3. c #8D887C",
"4. c #92857B",
"5. c #938A7D",
"6. c #978677",
"7. c #908B74",
"8. c #A78369",
"9. c #BA8669",
"0. c #A88C78",
"q. c #B88A73",
"w. c #AC927A",
"e. c #B8967B",
"r. c #B3916E",
"t. c #B5B771",
"y. c #B5BA59",
"u. c #C7885D",
"i. c #CE955E",
"p. c #C48463",
"a. c #CB8B64",
"s. c #C48C6C",
"d. c #CB8D6A",
"f. c #C68667",
"g. c #D18D63",
"h. c #D28D6C",
"j. c #CB926B",
"k. c #C89169",
"l. c #D49266",
"z. c #D3936C",
"x. c #DA996B",
"c. c #C78A74",
"v. c #C99577",
"b. c #D39473",
"n. c #D79978",
"m. c #D28C73",
"M. c #E19A6D",
"N. c #D3A27A",
"B. c #E1A576",
"V. c #C0AB5C",
"C. c #B5C058",
"Z. c #D3D46B",
"A. c #E4D674",
"S. c #D2D34A",
"D. c #8D8A81",
"F. c #8A8881",
"G. c #938C83",
"H. c #948A86",
"J. c #969085",
"K. c #9B9385",
"L. c #96928A",
"P. c #9C958A",
"I. c #9F988B",
"U. c #9F9A87",
"Y. c #9D9993",
"T. c #948A92",
"R. c #A3958B",
"E. c #A39A8D",
"W. c #AA9989",
"Q. c #B79A88",
"!. c #A49D93",
"~. c #AA9D92",
"^. c #A79A98",
"/. c #AF9388",
"(. c #A9A18E",
"). c #BAA189",
"_. c #A6A195",
"`. c #ACA395",
"'. c #ACA59B",
"]. c #ADA99C",
"[. c #A8A498",
"{. c #B1A595",
"}. c #B2A59A",
"|. c #B3AA9C",
" X c #BAAB9E",
".X c #B8A696",
"XX c #B8B29A",
"oX c #BBB986",
"OX c #AEABA2",
"+X c #AEA7A1",
"@X c #B3ACA2",
"#X c #BDADA3",
"$X c #B6ADAA",
"%X c #BCB2A4",
"&X c #BDB4A9",
"*X c #BEB9AD",
"=X c #B6B1A6",
"-X c #BFB8B2",
";X c #A49AA3",
":X c #C59C86",
">X c #C7A28C",
",X c #C7A897",
"<X c #D3AB93",
"1X c #D8B39B",
"2X c #CBB595",
"3X c #C1AEA5",
"4X c #C3B4A5",
"5X c #C3B5AB",
"6X c #C5BAAC",
"7X c #CBBBAC",
"8X c #C9B7A6",
"9X c #D1BCAE",
"0X c #D7BAA6",
"qX c #C4BCB2",
"wX c #CDBDB2",
"eX c #CBBCB9",
"rX c #D1BEB3",
"tX c #D9BEB7",
"yX c #E4A586",
"uX c #BFC2B1",
"iX c #CFCA93",
"pX c #CBC3AC",
"aX c #D4C2AE",
"sX c #D8C9AB",
"dX c #CCC2B4",
"fX c #CDC3B9",
"gX c #C9C3B7",
"hX c #D3C3B4",
"jX c #D6CBB4",
"kX c #DACCB4",
"lX c #D5C5B9",
"zX c #D9C6BA",
"xX c #D5CABB",
"cX c #DACBBB",
"vX c #D9C3B6",
"bX c #DDD2BB",
"nX c #DBD2B7",
"mX c #E2D3B8",
"MX c #E3D0B7",
"NX c #D5E084",
"BX c #DBCDC2",
"VX c #D5CCC3",
"CX c #DBD3C4",
"ZX c #DAD5C8",
"AX c #DDDBD6",
"SX c #CBC3C1",
"DX c #E2D5C3",
"FX c #E4DBCB",
"GX c #E3DED3",
"HX c #E7DED5",
"JX c #E0CDC6",
"KX c #E5E3DB",
"LX c #E6E3D7",
"PX c #EBECEB",
"IX c #E8E8E4",
"UX c #EDF1F1",
/* pixels */
"Y.D.1.1.3.G.G.K.E.`. X#X7XwXhX9X%XE.P.G.5.1.2.2.2.o.L A f 0 9 Z +.U U I I +.U +.+.+.o.+.Y } I o.I o.o. . .K.gXo.m } n A A b h e ",
"L H K K F Y o.o.2.5.P.}.wXhXhXhX'.P.2.L o.G.I.P.!._.[._.E.R.H.2.F.o.U U U U +.+.I o.o.+.U I o.I I o.o.o.o.P.gXo.b | b b v v h y ",
"J.J.3.1.1.I K K G K  .4.`.`.~.'._.P.2.2.2.J.E.`.'.}.|.`.(.{.~.P.D.+.U +.U U o.U +.o.o.o.+.+.Y Y I o.o.o.o.P.qXo.b } b v v j v f ",
"_.!.[.]._.'.=X@X+XY.+.F h 8 6 e b K D K P 3.P.E.`._.`._.R.R.R.5.D.+.U U U I +.+.+.+.o.o.+.U U Y I Y U o.o.J.qXo.M } b b x b c f ",
"_.OX=X&XpXdXhXcXqXF.y 8 9 t u u t Z u S b D P o.<.G.J.E.!.~.W.2.2.1.U U U I 1.+.o.o.o.+.I o. .I Y I U o.+.H.qXo.N } b b v b h y ",
"OX=X*X&X6XjX4X5.w , 5 y t h R u j j F U U J o.3.G.P.L.I.E.`._.<.2.F.+.U U U +.+.o.+.+.o.I  .Y I o.I I o.o.H.qX,.N | n b v j c f ",
"=X@X&XgX5XD.y , 9 q y Z m D J J K  .D.D.D.D.P.P.!.'.[.|.5X5X6X`.D.L.+.I U U +.+.o.+.o.o.I I I L I I I  .o.H.5X<.V | N m h m c y ",
"@X5X@X1.q > 7 i u u Z F  .5.W.}.!.G.L.L.P.!.[.|.@X&X&XdX7X6X7X%XL.I.1.Y +.U +.+.+.+.o.o.I I I I L F L  . .H.qX,.N | n b v c c c ",
"&X^.i % 7 6 w h N J O.P.@XxXHXHX{.5.Y._.$X&X6XdX7XpXpXnXjXjXjX8XL.!.U o.o.U o.U o.U U U I I I Y L U I U o.5.6X<.M | N j v f h f ",
"q 9 - % 9 t v J 5.~.5XBXLXHXlX|.^.Y.OXuXgXxXhXVXCXCXCXGXGXFXZXxXY.'.o.U U U U U U U U U I Y L K I I U U o.G.qX .N | b b b j v y ",
"$ % 7 9 9 u 4.].BXGXHXVX@X!.P.!.^.-XfXVXgXbXZXGXKXIXIXIXIXIXIXAXOX@X1.U I U o.o.o.U U U I o.I I U I I o.o.G.6Xo.M | b b Z h f y ",
"> 7 5 > 5 A dXLXZXqX}.K.G.P.!.OXuXgXxXZXLXIXPXPXPXIXUXPXPXUXUXAX].@X1.U  .o.o.o.o.+.+.U I  .I Y P I L o.o.G.qX .B | m v b b v f ",
"> > - 7 9 y D.K.5.,.,.G.I.'.@XqXuXCXLXIXPXPXUXUXPXIXPXPXPXIXPXAX[.OXo.U U o.1.o.o.o.o.U I Y L K L L I o. .G.qXo.M | g v v m v y ",
"9 5 7 7 9 t y D  .1.G.E.[.|.qXVXLXLXVXqX[.+X*XZXIXIXKXIXIXKXKXZXY.[.o.U U +.o.o.U U U  .I I I I P L  .+.o.G.qX1.M | f j S b h y ",
"q 6 t t i h v I 2.I._.@X%X6XZXFX6XO.s 2 < , 1 V =XGXLXLXKXLXLXZX!.'.+.o.o.+.+.U o.U U I I I L Y L L I o.o.G.gXo.l } f m v h h f ",
"b v h Z F 1.L.Y._.@X].&XfXxXxX.Xs 2 ^ ^ ^ d z p b VXGXGXKXKXLXZX!.OXo.U I U U I U U Y Y K L K K  .K J o.o.G.qX .l } m f u f f f ",
"h D U F.L.!.[.].].5X5XgXdXzXjX.., / b.n.v.f.f.#.X./.GXLXGXZXFXnX_.'.U U U U U U U U I L K F Y F I L L U o.5.*X,.M } f y j h k u ",
"N 1.I.^.[.@X@X&X6X9XdXdXaXhXdXV k 9.n.b.m.m.m.9.@.R.ZXGXKXLXAXVX_.OX1.I U U I L I o.L I L L Y L L F L I U 5.*XU M } f v b h f u ",
"E.+X$X}.#X6X5X7XwXvXxXxXcXCXxX} M 9.b.c.` %.m.#.$.0.ZXIXPXPXIXAX_.OXo.I U U U I I I F Y L F L F K K L L P J.*XL V } k x h f f y ",
"$X+X].J.=XdXhXcXBXCXAXLXLXKXLXK.B q.n.@.@.%.m.' ` Q.LXPXPXPXPXAX_.OX,.I U U I I L L L Y K F Y F K L L I P 3.&XP M } g y y u k t ",
"2.A y r %XZXFXFXLXFXLXLXHXKXHX:X} v.m.@.#.%.%.` ' e.LXIXHXKXKXAX_.OX+.I U U I L Y I L L L L L L L K K L L 1.=XL l } f y y y j y ",
"6 6 y q *XBXDXmXZXmXbXFXFXDXvXc.q.b.n.c.f.h.d.#.[ 0.jXZXGXGXGXZXY.].U I U U Y J I I F L Y L F F Y A H L K 1.OXP g ^ k y y y f y ",
"v v Z 9 }.hXxXkXkXcXkXmXJXMXsXh.9.k.b.m.f.f.] #.%.9.9XDXDXDXbXcXY._.L L I I L L L I F Y L F F D K F K L L ,.@XH m ^ k v f y f y ",
"5 t y 8 `.zXhXjXzXbXsXcXcXCXsXn.#.) c.:X#.` ) _ { @.8XmXmXMXbXDX_._.P L I L K K K Y F F Y F F D K K K L P 3.=XP c ~ s k h y f y ",
"9 6 q 8 _.hXjXjXsXsXjXjXkXkXsX8Xr.a ^ 8.[ [ 9.{ ` _ w.DXnXmXDXkXL.!.P K L K L L I L L F F L Y F K K K P L G.@XP h v d N e e f s ",
"D x v y `.jXkXjXkXjXjXnXkXcXkXkX2X2 < _ %.p.#.` ` 2 R.cXnXMXnXkXY._. .K I L P H L Y F F F F F F K T K P K 2.@XJ j x c l k f y u ",
"K v S b `.jXnXnXmXcXjXjXkXkXkXkX7XN - 2 ` f.` ` ^ = 0.jXkXkXkXjXE._.U K Y L K H K F F F F F F F K T K P L 2.OXH u h f a k w f t ",
"K A I L {.nXbXbXbXkXkXkXvXsXkXkXhX^ $ = 2 d d 3 = @ H jXsXkXnXnXI._.,.K K T T K L Y F F F D D F K F K L K 2.|.D v x e a g e y u ",
"D D 1.1.].nXkXkXcXkXkXkXkXkXkXkXnXQ.< @ @ = = : @ @ n xXMXMXnXsXE._.,.K K T K K F K F F D F A F K F K L H 3.].H x g p E ~ d f w ",
"U L.OXOXuXbXnXnXcXsXsXkXkXkXkXnX2Xv.' a ; = @ * ; < <.pXpXcXbXnX_._.U A K Y K T D F F D A F F K F A H K H 3.].H s a 3 E W ! d s ",
"o.L.=X[.=XjXpXpXsXhXaXsXaXsXhXhX).q.d.9.| a = 2 _ ) W.|.`.%X8X4X'.].2.K K L K F F F F D F A F F H A D H H 1.].A 1 3 3 3 W ! ~ s ",
"m T Y S 5.6X4X8X4X8X7X8X7X8X6X6X0Xv.j.k.#.' / ' [ / 6.@X_.@X&X4X*X6XI.I F F A F K F F F F F D D G A D T n 1.].n 2 p 3 3 W W W 2 ",
"B K L B <.%X|. X|.#X4XXX4X&XgX,X2Xn.b.k.9.p.#.] [ / ~.$X=X#X%X8X8X6X5XI.G D G D F Y F F D A D D Z A S D n ,.XXb s a 3 E W W Q 1 ",
"U.K.J.J 3.|.{.}..X}.XX%X7XgXwX,X:Xz.a.s.c.s.p.[ [ q.8X5X&X8X8X6X7XxXwX%XD.F A F D F D F D A D A Z A A A n 1.].n w s a 3 3 2 p p ",
"U.I.J.n o.[.$X{.`.|.@X8XhXlXwX,Xn.M.j.v.>X:Xq.#.9.:X9X8X4X8X7X6X8XwXhXwX|.L b A D F A D D Z A A A A A A A ,.].n z y r w s 0 z i ",
"E.K.,.U L._.'.`.'.4XwXhXzXfXrX>Xm.n.v.>X5X8X,X>X>X,X9X8X7XhXwXwXwXrXhXdXdXJ.H K T F T T A A A A A A A A n ,.OXA e y e l g f u t ",
"7.<.m e G '.+X`.%XwXBXhXhXwXaX<Xc.v.c..XwXeXwXwX7X7XwX7XwXhXeXgXhXhXrXhXdX%XP D A K A A A b A A A b A Z A <.OXZ i t 0 p < 7 7 , ",
"K P M B  .}.}.@XjXxXBXhXtXdXhX<Xv.z.s.:XrXrXwX7XdXdXwXwXfXlXqXeXlXhXrXwX7XgXG.A A A A A A S A A b Z A A n ,.OX7 X X X X + O O # ",
"w G N M ^ ~.}.@XcXBXlXhXhXhXxX1Xb.z.9.:X9XrXrX7XqXhXhXlXdXlXhXhXhXrXhX8XhXlX%XP A A n A A A A Z D Z A A n o._.& . .         o . ",
"+.4.O...O.Q.{.&XcXzXxXxXvXgXhX1Xn.v.c.,XwXeXeXwXwXdX9XzXhXhXhXaXhXlX7XpX7XlXdX2.A A A A A A A A B b b b b P ^.O           o     ",
"dX6X8X0.6..X{.5XBXVXhXxXzXtXvX2Xn.n.c.8XwXwXrXwX7XwXrXhXhXhXwXhXdXhX9X8XgXgX&XG.V D S n N F S M n Z v v b U L.O                 ",
"&X%X4XR.6.}.~.5XBXBXhXvXlXlXvX2Xv.b.j.8XeXwXwXwXwXwXwXrXhXhXhXhXhXlXrXqXpX{.w.e.X.D A D n S S m b Z u v c K D.+                 ",
"D.D.G.,.D H.G.=XcXMXMXcXlXzX0X>Xb.d.c.8XeXwXwXwXwXwXwXwXhXhXhXhXhXwXeX$XR.w.s.l.9.J S D n v b v Z j v v c H U X                 ",
"n I 3.U G L.L.@XBXzXJXcXVXxX0Xn.b.j.s.4XwXwXrXrXrXrXwXrXlXrXwXwXwXwXgX/.$.f.x.i.j.@.D S n j b Z b v v b c L K o         . . .   ",
"P.].[.P v ,.2.P.VXVXBXBXBXkX0Xn.b.a.9.,XeXwXrXwXwXwXwXwXlXhXwX7X7XdX8X0.` %.a.k.l.s...n b b n v m f c v f L A o       o + O + X ",
"`.%X@XL b P O.<.eXZXBXBXBXsX1Xb.z.a.c.,XrXrXhXwXwXwXwXrXhXhXrX7XwX8X7Xw./ #.f.g.l.b.8.n m b v j f f h f k L u o       . O & # O ",
"|.|.`.n v I o.+.@XVXBXlXtX,XN.z.z.a.9.,XrX7XhXwXwXrXwXwXhXhXhXhXhX4XrXQ.^ $.s.u.a.l.s.X.b b b h v v f v g J 0         . O O # O ",
",.<.o.f h I I Y P.xXwX3X,Xv.n.x.z.a.c.:XwXrXhXwXhXhXhXhXhXhXhXhXaX7XgX@X../ [ >.k.i.z.8.v v m x f v f f g J ,             . . . ",
"e y e f e K K L 2..X1XN.x.n.x.z.s.d.d.e.8XwX7X8X7XaXhXhXhXhXhXhXhXhX7X5XL V ' >.a.a.s.u.B R h m j j x k d ^ - .         o X + O ",
"n m f e v K K I I 0.yXM.x.x.b.l.d.a.f.e.#X5X4X4X7XpXhXhXhXhXvXhXzXvXhXwXG.B ) 9.a.p.k.a...Z f f j v f d s C %   X . X X X X . X ",
"D.G.o.n D I L F F 6.b.M.x.b.a.i.a.a.f.0..X3X5X4X6XwXhXhXhXhXlXxXlXhXjXdX{.B V 9.a.d.j.l.X.h c g v y k ~ e e % X X . X .       . ",
"1.1.A 6 5 h b b S } x.x.l.k.f.u.a.u.9.8..X3X3X5X7XrXlXlXlXlXhXlXlXhXfXxX6X .m @.a.x.d.i.8.b G D y v z ~ e i % . X . .     o o o ",
"n v e 9 > w h h x ^ j.l.g.d.f.u.f.u.9.0.{. X X X8X6XhXzXzXzXlXhXvXzXdXzXtXK.b X.k.l.g.g.9.A U Y m y s a e c $ O O & $ > r n o.o.",
"x q 8 6 - f Z v v M q.j.z.a.p.f.u.#.q.0.{.3X X.X X3X6XlXzXzXzXlXvXzXhXvXvX|.J ^ 9.i.g.g.9.n Y I f f b } s j F.3.J.!.'.@X=X5X5X#X",
"r 8 , , > f j h S B X.9.a.a.p.p.[ #.e.W. X4X4X4X3X%X4X7XhXxXkXzXcXxXcXcXxXpXO.n ) u.a.u.a.O.3.7.Z 0 8 l , D =X|.`._.|.].|.}.P.K.",
"D f 0 5 8 y j A Z A J ' [ u.p.>.[ @.Q..X#X9X7X6XvXaX8X8XdXhXlXcXcXjXcXvXxXhX4.v V 9.j.u.x.(.%X2X+.+.< d r f U.6.P P I.J.2.G.2.].",
"P G J G l L O.G D F K B X.s.a.&.] q..X@XwXdXrXlXvXzXzXzXlXrXzXBXcXcXcXzXfX .g J n ) u.a.h.).pX4X|.xXqX=X_.w.Y.K.<.R.%XW.2...P K.",
"o.P U P J O.H.O.D D A H ..X.' / @.>X3X%X5XrXzXzXkXhXvXbXzXhXhXjXCXjXhXW.B m <.P.2.w.9.l.b.v.oXiXaXnXA.S.:.iXiXC.y.Z.gXY.b f , > ",
"L J J J K P +. .<.o.U P L ..^ B X.eXVXfX4XwXzXtXcXxXcXxXcXCXxXgX|.5.g 0 J R.P.`..XpXv.g.l.N.t.t.>.V.:.:.-.:.-.-.-.=.S.y.5.J u % ",
"<.2.<.o.J J  . . .<.G.G.+.L J I Z 2.3.P.`.#X#X5X!.!.^.P.+.L 0 - @ - J ~.R.E.~.{.R.].<XN.l.b.t.t.e.e.:.-.;.;.:.-.-.;.:.*.C ( ^.E.",
"5.U.K.,.L J  . .o. .o.<.H.F.o.J L F.H.5.5.....<.f 6 8 , , 0 0 f o.E.'.`.}.{.~.~.W.<.@.j.x.n.iXnXZXsXNXS.;.;.sXA.Z.Z.kX%X6.7.|.|.",
"E.(.E.5. .L O.O.,.<.O. ... .o.O.o.].6X X6X%X_.R.E.K.(.'.'.`.(.'.~.$X}.~.}.~.{.W.R.6.8.N.B.n.Q.[.XXpXxXsXA.A.mXmXgXfXT.5.K.XXU 9 ",
"K.R.E.5. . .O.O.1.<.X.<.O.1.<.<.<.|.%X#XpX*X|.{.(.(.(.(.(.{.{.(.`.R.W.E.`.W.}.}.`.W.q.n.n.M.q.v B 7.P.].&X8XsXMXjXVXXX(.;XW.1.<.",
"K.E.`.K.O.o.O.5.4.6.O.4.<.o.O.4.2.6X8X#X&X&X3X3X@X}.{.|.}.{.`.W.R.K.{.}.{.}.|.'._.0.n.yXB.M.N.B t V <.7.H.5.U.}.6XsXJXzXlXBXcXkX"
};
