/* XPM */
static char *waka49_jpg[] = {
/* columns rows colors chars-per-pixel */
"64 64 253 2 ",
"   c #020202",
".  c #050A0C",
"X  c #0B0B0C",
"o  c #060905",
"O  c #131412",
"+  c #1A1A19",
"@  c #0E0E0D",
"#  c #231D18",
"$  c #381A16",
"%  c #27221F",
"&  c #38261A",
"*  c #272724",
"=  c #362C28",
"-  c #3A332C",
";  c #3C3833",
":  c #49382D",
">  c #473D36",
",  c #4E342D",
"<  c #7F3937",
"1  c #46423C",
"2  c #49433A",
"3  c #54463D",
"4  c #5E5538",
"5  c #66473C",
"6  c #714736",
"7  c #7D3F40",
"8  c #4C4A44",
"9  c #4B4744",
"0  c #524D4B",
"q  c #574C45",
"w  c #55534C",
"e  c #5B564C",
"r  c #5D5A4D",
"t  c #565245",
"y  c #5D5C54",
"u  c #5B5855",
"i  c #4E594B",
"p  c #694C44",
"a  c #764B45",
"s  c #66554B",
"d  c #765549",
"f  c #635D55",
"g  c #6B5C55",
"h  c #635D59",
"j  c #695E5B",
"k  c #695551",
"l  c #785C56",
"z  c #5E6258",
"x  c #5A614C",
"c  c #646056",
"v  c #64625B",
"b  c #6A645C",
"n  c #6C695D",
"m  c #686459",
"M  c #7A655B",
"N  c #746A5D",
"B  c #796559",
"V  c #74715E",
"C  c #656662",
"Z  c #6B6661",
"A  c #6D6A63",
"S  c #6C6D6A",
"D  c #666769",
"F  c #726D65",
"G  c #746E69",
"H  c #786B65",
"J  c #747166",
"K  c #7A7266",
"L  c #76726B",
"P  c #7A746C",
"I  c #7D796E",
"U  c #7B7671",
"Y  c #7E7973",
"T  c #767472",
"R  c #6B6F70",
"E  c #5F5D6C",
"W  c #913736",
"Q  c #B9353A",
"!  c #B5222A",
"~  c #C31D29",
"^  c #815954",
"/  c #8E5249",
"(  c #86665B",
")  c #996A56",
"_  c #9C745E",
"`  c #8F7053",
"'  c #A66958",
"]  c #AB775B",
"[  c #B57859",
"{  c #A9694F",
"}  c #8B6A64",
"|  c #866661",
" . c #82796D",
".. c #887766",
"X. c #957A67",
"o. c #827C74",
"O. c #847E79",
"+. c #887B77",
"@. c #907E7C",
"#. c #A77A64",
"$. c #B67B63",
"%. c #B14B47",
"&. c #C67D60",
"*. c #BED010",
"=. c #C7D604",
"-. c #C8D010",
";. c #CDD12F",
":. c #E3D737",
">. c #BD845C",
",. c #B2A74A",
"<. c #89846B",
"1. c #8A8276",
"2. c #868279",
"3. c #8B857B",
"4. c #888577",
"5. c #91857C",
"6. c #91897D",
"7. c #978676",
"8. c #998B6F",
"9. c #AA8367",
"0. c #BC8964",
"q. c #B98569",
"w. c #A68A79",
"e. c #B88A72",
"r. c #B99278",
"t. c #AE9278",
"y. c #B9AF72",
"u. c #C78A5C",
"i. c #CA935D",
"p. c #CC8C64",
"a. c #CC8D6B",
"s. c #C58867",
"d. c #D28C6C",
"f. c #D38B65",
"g. c #CD926C",
"h. c #CB9264",
"j. c #D29265",
"k. c #D3926C",
"l. c #DA976B",
"z. c #C58C72",
"x. c #CC8D74",
"c. c #D48A72",
"v. c #CC9474",
"b. c #C79476",
"n. c #D39472",
"m. c #DA9B74",
"M. c #D59877",
"N. c #E59D78",
"B. c #E0966F",
"V. c #D0A676",
"C. c #E6A47A",
"Z. c #CDC475",
"A. c #D8D457",
"S. c #8D8982",
"D. c #938C83",
"F. c #958C86",
"G. c #9B9385",
"H. c #969389",
"J. c #9B958B",
"K. c #9D998E",
"L. c #949184",
"P. c #9D9A91",
"I. c #A2968A",
"U. c #A39A8D",
"Y. c #AA9D8C",
"T. c #A79784",
"R. c #BB9A87",
"E. c #A39D92",
"W. c #AA9F92",
"Q. c #A69F99",
"!. c #A18F81",
"~. c #ABA48D",
"^. c #A5A196",
"/. c #ACA294",
"(. c #A6A399",
"). c #ABA59B",
"_. c #ACA99D",
"`. c #B3A596",
"'. c #B4A995",
"]. c #B2A79A",
"[. c #B4AA9C",
"{. c #BAAD9D",
"}. c #BEB39E",
"|. c #B4AC8A",
" X c #ACA9A1",
".X c #B4ACA2",
"XX c #BAACA2",
"oX c #B3ABA4",
"OX c #BCB2A4",
"+X c #BBB5AA",
"@X c #B9B4A8",
"#X c #BDBBB5",
"$X c #C59A85",
"%X c #CBA58A",
"&X c #D5A388",
"*X c #C6A997",
"=X c #C9B69D",
"-X c #D5B39A",
";X c #CDAE90",
":X c #C3AEA2",
">X c #C3B4A4",
",X c #C3B6AA",
"<X c #C5BAAC",
"1X c #CBBCAD",
"2X c #CAB8A5",
"3X c #D6BDAB",
"4X c #C5BDB2",
"5X c #CCBEB2",
"6X c #D1BEB2",
"7X c #D3D185",
"8X c #CFCD94",
"9X c #CDC1AD",
"0X c #C3C0AD",
"qX c #D6C6AC",
"wX c #CDC2B3",
"eX c #CCC4BA",
"rX c #CAC5B5",
"tX c #D3C3B4",
"yX c #D4CAB4",
"uX c #DACCB4",
"iX c #D4C5BA",
"pX c #D5CABB",
"aX c #DACCBB",
"sX c #DAC5B6",
"dX c #DED2BC",
"fX c #DCD1B7",
"gX c #E1D4BD",
"hX c #E8D1B1",
"jX c #E5D1B6",
"kX c #E1D49F",
"lX c #CBC8C4",
"zX c #D4CCC2",
"xX c #D9CDC2",
"cX c #D0C7C0",
"vX c #DDD2C3",
"bX c #DCD6CC",
"nX c #DDD8D4",
"mX c #E2D4C3",
"MX c #E4D9C5",
"NX c #E3DBCB",
"BX c #E6D6CA",
"VX c #E3DDD3",
"CX c #ECD4D0",
"ZX c #E0CCC3",
"AX c #E5E1D5",
"SX c #E6E3DB",
"DX c #E9E4DA",
"FX c #EAE2D6",
"GX c #E2E0CB",
"HX c #EAE9E5",
"JX c #EBECEB",
"KX c #E7E6E3",
"LX c #EFEFED",
/* pixels */
"G L L P o.O.3.F.F.E.W.XX9XtX1X1XQ.J.6.P o.6.G.J.K.K.U.I.3.I K O.2.U Y Y O.O.Y Y O.Y O.Y Y Y Y Y T Y o.o.o.^.#XJ B ( z v m b v S ",
"3.Y P L P K F F P o.3.E.+X<X5X5XE.D.3.+.S.G.G.^.^./.[.'.]./.I.G.S.Y Y Y Y O.Y O.O.Y Y Y Y O.Y Y P o.+.o.1.^.@XJ N | v v j b v A ",
"E.E.E.E.K.J.F.D.+.Y Y Y G v n K 3.2.Y Y 3.J.(.[.'.]././.Y.T.!.F.S.o.Y Y Y O.Y O.O.Y O.o.Y Y Y Y U Y Y +. ./.@XS B | n b v v z Z ",
"^.)..XOXXX,XiXiXzXJ.b u 0 0 w w y Z b n b L 3.3.G.G.I.Y.Y.Y.I.F.O.Y Y Y O.Y Y Y Y Y O.Y Y Y T Y Y T O.Y o.^.@XF B } v n j h v A ",
"[.[.+X4XiXeX4X[.n t 9 0 u u u h h v b T L J o.o.3.F.G.I.I.W.J.P 2.2.I o.O.Y 2.Y O.Y O.o.P Y P Y Y U +.Y o.Q.@XL M } n b c v v A ",
".X@X+X4X,XQ.G 2 0 0 u b v Z S Z Z G O.S.2.4.D.G.J.E.E.^.[.XX[.D.S.4.o.o.Y Y Y 2.O.Y Y T U Y T Y P P o.Y  .E.@XL B } z b v f v A ",
"_.+X+XU.G 0 9 8 w u b H K  .6.3.3.S.H.H.F.K.(._.@X@X+X1X9X1X<XW.H.L.o.o.o.I 2.o.Y Y o.U U Y T Y L P Y Y Y E.@XF B } v b b f v Z ",
"4XE.Z 2 > 9 w E Z F I 3.I.OXxXvXQ.D.H.P.(.oX@X#X,XrX5XwX9XtXyX'.K.L.o.2.o.I 2.Y Y Y o.Y U P G K L U O.+.o.U.@XG M } b Z Z f v Z ",
"O.0 ; 1 0 e b F o.6.].6XVXVXVXOXP.P. X.X#XrXrXpXyXrXdXvXvXdXvX{.P.K.Y o.O.Y Y I Y Y Y Y P Y P Y P P o.o.o.E.OXF ( | b C b f f b ",
"; 1 9 9 w b o.G.,XmXFXVXxX@X).E.^.+X#XrXcXpXzXbXVXAXSXSXDXDXAX4X(.^.2.Y o.P Y Y Y Y Y U T P P T I P o.O.o.E.@XF ( | v C j c v A ",
"1 1 0 9 9 O.eXAXVXBX<XY.D.G.U.oX@XrXzXnXVXnXJXHXHXHXJXJXJXJXJXlX X(.o.Y o.Y Y O.O.Y o.Y Y Y P Y P P o.o.o.U.@XJ l ( b b n v c Z ",
"9 ; 9 9 0 3.<X+X(.5.1.G.U.^.oX4XrXpXnXSXHXJXJXJXJXJXLXJXJXJXKXlX XP.Y o.2.Y O.Y O.Y Y U T U P P P P Y o.I E.@XF l ( v C b v c Z ",
"9 9 9 1 0 u b H P o.F.J._._.P.3.Z Z U (.nXLXSXJXJXJXJXHXKXHXDXrX(.P.I Y 2.Y Y 2.O.Y Y U T U P T K P o.o.I ^.@XF l | h z j v m F ",
"1 0 0 0 e y b  .S.H.E._.(.I 0 > = - ; 1 F @XDXSXSXAXSXSXSXSXAXrX(.P.Y Y 2.Y Y O.Y U Y U L P P T J P Y Y I ^.@XJ l ( v z j f f Z ",
"b u u v b F 1.F.K._.XX,XD.t ; > > : : > - 3 D.bXAXAXAXAXAXAXFXrX(.P.Y Y Y Y Y O.O.U U L P P L L P P Y Y I ^.@XF l ( f v j c f b ",
"b Z T O.L.J.E._.[..X>X9X+.2 : p d p 5 : : - 8 lXAXnXAXDXAXNXNX0X(.P.Y Y o.Y Y Y Y U U J L T G P J L o.Y I K.@XA l ^ h v f y h A ",
"b o.F.Q.U.).].+X>X3X5XeXJ 3 q X.d.q.$.( d 6 5 [.AXnXGXNXNXNXNX<XQ.Q.Y Y Y U Y Y Y U U L L T J T J L Y Y Y Q.oXF l B f f g f y A ",
"F.Q._.oXXX>X<X4XiX6XrXiXK q s #.m.n.M.z.$.$._ <XKXKXKXSXDXSXDXcX(.Q.Y Y T U Y Y U P U L L L J T J J U I P E..XZ ^ B f f f f y n ",
"XX+XXX].<X1X5XiXeXxXVX6X( g B #.n.n.l.c.s.d.q.tXJXKXKXHXJXJXHXlX(.(.Y Y U L P Y P G L I L L J L J P I I P ^. Xn ^ M c f f u z Z ",
"I.+.F P 5XaXmXBXVXVXDXjX#.( ` q.v.M.k.c.f.s.q.sXHXKXKXSXKXKXHXlX(.(.Y Y U U Y Y T L T L L L L L L P I P P E..Xb ^ M c f y y f n ",
"t 8 t F xXMXmXMXNXGXNX3Xz.9.#.v.x.0.] ] $.{ ) 5XDXAXAXAXAXAXAXrX^.Q.I U U U U P P P T P P L L L L G P P P K._.v l M g y y f h v ",
"r w w v tXvXdXaXtXdXdX-Xd.v.e.m.x.$.{ ' q.{ ) 5XMXMXMXMXMXMXNX9XE.P.L U U L P L P P U L G L G G L G L P P J./.m l H g f y y f v ",
"t z y Z <XtXyXuXaXdXuXqXm.s.$.M.x.z.&.&.g.] #.9XgXgXgXgXgXgXgX9X^.P.L P P L L P G G T L L L F G L J T I K J.).b g M g j e f h v ",
"8 8 0 k ,XsXqXtXsXsXjXqXm.s.q.e.c.d.&.c.d.&.z.qXmXgXgXMXgXdXjX9XU.P.L L L L P P L P P G G T G G S P U I L E. Xb f g g j e y j v ",
"y w C v <XyXyXyXfXuX-Xm.m.g.$.#.s.$.$.[ ] ] $.rXdXdXyXdXfXfXmX1XK.G.L J L L U U P G L L L G G U L L U U P P.).N h y ^ M e y k v ",
"L v Z b <XaXgXdXyX3X%XM.n.g.] a ) ' ' ' ' ' ) tXfXgXuXgXuXuXdX2XU.P.L L L L L L L G L G G G G L L L I L K K.^.c v h k d k y u h ",
"A S Y P 9XuXdXdXdXqX%Xb.n.g.#.6 6 $.' ' ' / X.aXuXuXqXuXuXuXjX2XK.U.L L L L L L L G G G G G G L J L P P L K.^.c h c s a e y z C ",
"A J Y o.9XgXgXdXgXuX-Xb.g.g.b.` , / [ / { 6 m uXuXfXuXuXuXfXjX2XK.E.P L G L U L G G G G G G F G S G L L L J.^.f k z s p s x u u ",
"I D.P.K.9XdXqXfXsXuXqX&Xg.g.b.] 5 6 ] ) ) 5 2 ~.}.qXtXyXyXtXfXqXK.E.P K G G L G G F G G F G A G S G L L J P.(.f g d / W Q / s f ",
"3. X#X@XeXaXqXyXqXtXuX-Xb.n.a.q.5 & 5 6 5 = : 6./.[.OX>X>X1X6X2XK.E.P G A G L L G G G G A G F G F G L J J G.E.y p 6 7 W Q %.d g ",
"P 4.S.2.[.<X2X2X2X<X<X2X%Xv.a.s.d & = $ $ & 3 Q.{.[.{.{.}.>X>X{.K.K.L F G G L L L G G G G G G G A F F F F H.^.e 5 3 5 W ! Q / g ",
"c A S v U.OX}.}.=X>X}.2X%Xn.n.a.#.p - & & , X.{.OX{.{.{.OX>X>X>XE.P.F G F F S L G G G G A G A F A F F A A H.U.f 5 5 d W ~ ! / f ",
"8.6.o.J E.XX[.'.XX.X+XoX*XM.g.x.$Xw.} l ( ( `.OXXXOX[.].oX,X2X5X,XE.L S G F L S G F L S A S Z A F n A S A L.E.y p p 6 W 7 a a e ",
"~.6.o.S G.(.'.].[.+XeX,X`.n.g.n.%X*X:XXX:X*X>X@X,X<XOXXXXX<X,X,X9X[.P F G G F G F F G G A F n S n F A A n H.K.r e s p p p p e e ",
"^.L.3.K U.Q.[.].,XwXcX5X*Xc.k.d.r.=X5X5X1X1X<X,X,X2X,X,X<X4X<X1X1X1XY.N S S F H F F G A A A A A n S C A n H.K.f i e s k s w u v ",
"L.I F f 5.oX<XrXiXpXiX5X*Xm.k.d.b.*XtXrX<XwXiXpX5X1X2X<X1X1X1X1X>XwX>XO.L S J N S A F A n A b A A A Z G A H.^.y y f k d k k u y ",
"2.K b c 5.4XxXzXiXpXiXiX*Xn.k.n.a.$X6X5X5XwX1XiXsX1X1X<X1X1X1X1X<X<X5XXXT L S J A A S A A A Z A n b S A A L.^.1 = - = * * = * - ",
"n n N ( I.xXxXiXaXpXiXiX-Xn.j.l.d.b.2X1XwX1X6XsXtX5X1X6X5X1X6X1X1X4XcX5X1.K S L A A F n A A Z F b v A b b L.K.O           X @ X ",
"n M M B !.aXxXaXaXpXtXiX-Xn.k.k.k.z.%X6XwX6X1X6XtX5X5XtX6X6X6X5X,X<X4X].w.( H S A A A A A A Z A n Z S b b L.S.o             .   ",
"[.[.Y.X.W.pXaXxXpXaXpXtX-Xn.l.k.l.v.R.6X>X1X1X<X6X1X5X6X1X5X5X1X1XXXJ.8.t.9.B R A Z A Z b F Z Z v Z b Z v 3.O.o         o       ",
"9X9X=X8.^.aXzXvXZXiXaXyX%Xx.k.v.n.a.b.=X4X<X1X1X1X5XwXtX5X1X5X6X6XT.9.j.p.s.] V D S N Z D b n b b v b v c 6.A                   ",
"/./.G.I 4.wXvXpXxXzXrX*Xb.M.m.f.a.f.z.*X<X<X1X1X5X1X6XtX6X5X6X6X6XW.q.p.l.j.e...A n n S v n j Z b v v v c 3.z                   ",
"n o.4.I P oXzXxXvXcXXXz.v.v.v.k.n.a.a.%X,X1X6X1X6X5X5XtXiXtXtX5X5X:Xe.u.j.j.v.q...b S A b n v A n z v n c 2.w                   ",
"2.H.H.P H J.+XxXzX1X$Xm.l.g.g.l.k.f.s.$X>X1X9X5X1X1X6XtXtXsXtX6XeX3Xb.&.u.j.k.k.9.N S v c v C C v h v c c I 8           X X X o ",
"`.OX/.b n 3.P.zXeX;Xm.B.k.j.k.k.a.f.s.$X*X2X1X4X6XtXtXtXtXtXtXtXeX3X*X[ s.i.h.f.p...n m n b C v f f z f g O.1         X O O O X ",
"'.}.I.c A Y 2.+XiX&XB.l.h.j.k.x.a.u.&.r.:X>X,X5X5XtXtXtXtXtXtXtXwXiX3Xt.[ >.u.f.u.9.N n c Z v z f v h f j +.;         O % * * % ",
"Y.K.o.u Z Y L S.XXR.g.j.j.p.a.f.a.u.s.R.:X>X2X5X6XtXtXtXtXtXtXtXwXsXiX*X#.[ u.k.f.>.` n C Z j z f c h f g  .=   o     o X X . X ",
"b b C y v P P P 5.7.e.i.j.s.a.f.a.f.s.R.>X:X:X,X6XsXtXtXtXtXtXtXsX1XiXtX$X[ 0.p.f.u.9.z D j f b y f f j j  .#               . X ",
"r r e t f I J U T K X.0.p.p.p.h.d.s.s.$X,X4XXX2X4X6XsXtXtXtXtXtXiXiXpXyX6X$.s.p.i.f.0.N z C y m z h g d p l #         . O @ X O ",
"2.I b n J P L P J I P .._ $.s.d.c.&.s.$X:X,X+X1X,X6XiXtXtXtXtXpXiXpXpXyXuX-X$.p.i.x.u._ v v v c v f s / s j # . . . X . o     X ",
"6.4.n f y A S b A Z S A F 9.e.] ' ] $.*X,X4X,X>X,X,X1XtXsXtXiXpXiXaXpXpXmX3Xr.a.u.z.u.q.j C S r f f d a t v + . X . .           ",
"J F c 1 > c v v v v A S Z +.Y.Y.w.!.Y.OX4X4X,X1X1X1X1X5XsXaXpXyXaXpXaXpXtXaXT.' s.a.u.q.Z D G n y k p a i x O o . o o X + = > 2 ",
"y e t 1 1 c h v D A Z j b y S P.4X#X{.<X<X1X6XsXyXtXtXsXtXtXaXaXdXpXyXxXeX4.N d [ u.u.0.F E Y L u f l ^ w y 2 i c J 2.G.Q.[.{./.",
"t t 1 2 8 y n v C D b A F b F S.,X5X<XeXiXsX6XsXwXtXtXtXiXpXiXiXiXaXaX5X^.r 3 l ) u.d.u...E o.K u f j l 8 O._.'.~._.[.OXOXXX'.U.",
"y e 2 2 8 c C v D Z G A b Z Z H `.6X5XcXiXaXiXiXtXsXtXiXpXsX5X,X<X<X{.6.f +.s <.( ] p.a.9.L.|.T.N f 3 p 2 1.[.G.S.G./.G.G.H.D.G.",
"L c v y r Z C S A F G H T Z C A I.lX4XrXyXvXaXcXaXaXsXtX1X2X,XXXW.3.N x r B 5.G.6._ g.f.z.0X8Xy.`.E.<.7.F P 3.o.L 4.E.3.I S.S.#X",
"1.I o.o. .5.5. .F F L G F A Z Z +.zXzXxXiXxXmXmXaXaXrXoX).I.+.m 0 2 q e N 3./.T.W.<.s.l.h.%X<X}.pXBX7XZ.Z.=X`.T.y.=XrXK.<.N y A ",
"P N  .K H  .1. . .P K K J G S b A oXcXbXxXxXeX5X,XH.U u 2 - = * # % q D.)./.~./.`.w.b.l.m.V.|.V.;XZ.;.;.;.A.;.-.*.;.Z.<.z z 2 * ",
"I K P K H K o.o.1.3.3.+. .P J J A F F F U o.H f O.> * % % = ; - 3 1./..X/.].'.[.).7.$.m.N.V.y.,.9.,.-.=.=.-.*.=.*.*.-.,.7.D.h c ",
"L.L.5. .K  . .1.K +.D.F.3.o.K F F O.oXE.J.D.6.3.J.Y Y F.H.Q._.W.{.[.^.'.[.'.Y.`.Q.w.q.N.m.V.V.8X9X7XA.=.=.;.A.=.-.;.Z.` p <.=XiX",
"U.E.I.1.K  . . .+.+. . .O.1.o.+.K 5.4XXX,X,X+X@X X).oX]./.[.[.XX).`.W./.].{.'.{.oXw.v.C.m.v.-XtXyXfXhXA.:.:.kX8X|.|.@X).6.3.2.S ",
"I.U.J.1.I  .o.+.+. .o.o.+.1.1.1.+.I.+XXXXX,X,X.XXX[.[.'.{.OX`.'./.Y.I.`.{.`.Y.{./.r.v.C.C.N.&Xw.G./.{.9XhXkXVXBXyXnXoX+X#X@XU x ",
"!.I.Y.3. .+.1.1.4.4.1.1. . .<.1.o./.<X>XXXXXOX,XOXXX{.].`.'.].OX/.`.].{.XX[.'.{.Y.b.v.d.N.C.&X$.D 3.8.S.L.~.}.rXdXdXxXyXtXaXyX<X",
"T.Y./.G.1.1.3.6.3.7.6.6.6.3.1.1.4..X,X+X[.[..X.XXX.XXXXX X[.].].].`.XX[.{.`.].W.[.b.e.&.m.V.x.( t 4 ..`.O.<.4.4.J <.7.E.E.D. .Z "
};
