/* XPM */
static char *waka40_jpg[] = {
/* columns rows colors chars-per-pixel */
"64 64 248 2 ",
"   c #020202",
".  c #040A0D",
"X  c #0B0B0C",
"o  c #030707",
"O  c #060C13",
"+  c #171616",
"@  c #0F0B0D",
"#  c #38261B",
"$  c #2C2D1A",
"%  c #282623",
"&  c #3A332B",
"*  c #3D3A35",
"=  c #3A2E22",
"-  c #1F251B",
";  c #543A2E",
":  c #433C37",
">  c #493428",
",  c #402D1F",
"<  c #49433D",
"1  c #564536",
"2  c #684A3B",
"3  c #77473A",
"4  c #494542",
"5  c #4D4A44",
"6  c #494644",
"7  c #524E4A",
"8  c #534A42",
"9  c #54524B",
"0  c #5B554C",
"q  c #5B5A4E",
"w  c #575447",
"e  c #5B5552",
"r  c #5D5B53",
"t  c #545451",
"y  c #684A44",
"u  c #754B46",
"i  c #635A4D",
"p  c #68554B",
"a  c #765548",
"s  c #635D55",
"d  c #6A5D54",
"f  c #645E59",
"g  c #675852",
"h  c #765953",
"j  c #5B6358",
"k  c #646156",
"l  c #6B6256",
"z  c #65635A",
"x  c #6A645B",
"c  c #6D695D",
"v  c #65695A",
"b  c #72645A",
"n  c #716A5E",
"m  c #796858",
"M  c #7F785B",
"N  c #6B6562",
"B  c #6D6A63",
"V  c #676864",
"C  c #736D64",
"Z  c #736E69",
"A  c #776C65",
"S  c #757166",
"D  c #7A7165",
"F  c #767269",
"G  c #7A756D",
"H  c #7D796E",
"J  c #7C7670",
"K  c #7E7972",
"L  c #8C3C3A",
"P  c #B52D34",
"I  c #93403C",
"U  c #BF3C42",
"Y  c #835650",
"T  c #A54445",
"R  c #8B634C",
"E  c #886558",
"W  c #966B58",
"Q  c #9E735B",
"!  c #916B53",
"~  c #A56D56",
"^  c #A9765A",
"/  c #B37A5C",
"(  c #B8785C",
")  c #A56E4E",
"_  c #8B6563",
"`  c #8B6B65",
"'  c #827A6E",
"]  c #837669",
"[  c #9B7866",
"{  c #827C74",
"}  c #897E74",
"|  c #847E79",
" . c #867876",
".. c #93756D",
"X. c #AB7A63",
"o. c #A47965",
"O. c #B87C65",
"+. c #C47D62",
"@. c #BACB10",
"#. c #C6D807",
"$. c #D2DB06",
"%. c #C5CE10",
"&. c #D0D339",
"*. c #BD845B",
"=. c #A39553",
"-. c #95836B",
";. c #868175",
":. c #898175",
">. c #86817A",
",. c #8B857B",
"<. c #8D897E",
"1. c #928A7D",
"2. c #988878",
"3. c #A88169",
"4. c #BC856A",
"5. c #B98769",
"6. c #A58975",
"7. c #B98C75",
"8. c #BB937A",
"9. c #AAAD6D",
"0. c #C88A5D",
"q. c #CA915D",
"w. c #C8854E",
"e. c #C48463",
"r. c #CC8C63",
"t. c #C3856A",
"y. c #CA8C6C",
"u. c #C78968",
"i. c #D28B65",
"p. c #D48B69",
"a. c #CB9267",
"s. c #D3946C",
"d. c #DA946B",
"f. c #DB996C",
"g. c #D59566",
"h. c #C98B71",
"j. c #D38F74",
"k. c #CA9678",
"l. c #D39574",
"z. c #D49C7B",
"x. c #D89977",
"c. c #E39974",
"v. c #E29968",
"b. c #D0AA78",
"n. c #B3C070",
"m. c #D2D649",
"M. c #D4D276",
"N. c #E1DB5B",
"B. c #8E8A82",
"V. c #8A8683",
"C. c #938C82",
"Z. c #988E86",
"A. c #979185",
"S. c #9B9285",
"D. c #97928A",
"F. c #9C948A",
"G. c #9E998C",
"H. c #9C9892",
"J. c #A39585",
"K. c #A1968B",
"L. c #A49B8C",
"P. c #AB9C8C",
"I. c #AA9785",
"U. c #B79986",
"Y. c #A49C93",
"T. c #AA9E92",
"R. c #B19F91",
"E. c #A9A38D",
"W. c #B6A18C",
"Q. c #A6A194",
"!. c #ADA395",
"~. c #ACA49A",
"^. c #ABA79C",
"/. c #B2A69B",
"(. c #B4AA9D",
"). c #BBAC9D",
"_. c #B5A495",
"`. c #BAB39D",
"'. c #BAB98E",
"]. c #AEAAA1",
"[. c #ADACAA",
"{. c #B3ACA2",
"}. c #BBAEA2",
"|. c #B3ADAB",
" X c #B6B1A4",
".X c #BCB2A4",
"XX c #BCB4AA",
"oX c #B9B6AC",
"OX c #BCB8B2",
"+X c #B3AEB4",
"@X c #A29CA8",
"#X c #C79C83",
"$X c #DB9E81",
"%X c #CCA488",
"&X c #C5AA97",
"*X c #D2AB95",
"=X c #C9B299",
"-X c #D1AD8D",
";X c #C3B3A5",
":X c #C4B5AA",
">X c #C5BBAD",
",X c #CBBBAC",
"<X c #C9B6A8",
"1X c #D2BDAD",
"2X c #D6BAA7",
"3X c #C4BCB2",
"4X c #CBBDB2",
"5X c #C9BEB9",
"6X c #D1BEB3",
"7X c #C2ADA3",
"8X c #D2CA92",
"9X c #C9C3AC",
"0X c #D4C4AD",
"qX c #CDC2B4",
"wX c #CCC4BA",
"eX c #C9C4B8",
"rX c #D3C4B5",
"tX c #D5CAB4",
"yX c #D9CCB4",
"uX c #D4C6B9",
"iX c #D9C6B9",
"pX c #D5CABB",
"aX c #DACBBC",
"sX c #D9C6B7",
"dX c #DED1B7",
"fX c #DCD1BC",
"gX c #D0D5AB",
"hX c #E1D4BB",
"jX c #E8DBBB",
"kX c #E6D6A2",
"lX c #E6E1A2",
"zX c #D9CDC2",
"xX c #D5CEC2",
"cX c #DDD3C3",
"vX c #D9D5C9",
"bX c #D8D5CE",
"nX c #E4DBCC",
"mX c #E3D6C5",
"MX c #E4DDD2",
"NX c #E7DFD7",
"BX c #F0DFD7",
"VX c #E6E1D5",
"CX c #EBE6DC",
"ZX c #E7E4DA",
"AX c #ECEBE6",
"SX c #ECECEB",
"DX c #E7E7E6",
"FX c #F0EFEF",
/* pixels */
" X^.D.<.<.C.S.L.!.(.:X,X1X,X1X1X;XT.Y.F.C.V.F ' S B z e 5 6 4 t | G G G J K >.K | K { K J K K K K { | J { 1.wXC.b ` m b x f x x ",
",.| H K >.>.,.C.C.K.T./.:X6X6X1X;XT.S.} { | C.A.1.S.C.B.:.' B B >.{ J J K K { ;.| { { | K K K J K K  .{ { 1.eX1.b _ A x z z x f ",
">.| G C C C C C J { | D.}.,X,X,X(.C.;.| | <.L.F.T._./.(.(.!.L.K.B.| K K K ;.{ { | | K V.| | K J K { | K { 1.9X1.d _ n d z x x s ",
"H.Y.H.F.H.F.C.V.>.| J ' { A C ' ,.;.>.,.;.B.Q.~.!.(.!.!.E.L.J.J.C.| J J { { K { | K | K K K K J K J K { ;.1.eX,.l E C x z z k s ",
"L.T.(..X{..X>XuXuX{.,.f t 7 5 7 e V f V V V { ,.C.F.J.K.L.L.L.2.>.>.F H | | K K >.K K | K K J J J J J K ;.<.3X<.l ` D l z k x s ",
"~.{..X.X>XwXwX3XZ.x < 5 e t t V f V f B J F F { :.C.C.C.K.T.L. .>.>.H H | | K K >.K | K K J J J K J K K ;.<.qX1.l ` D x j f z k ",
"{.{.XX3XeX3XD.z 4 7 t e s N Z z z B F ,.B.K ;.D.D.Y.Y.Y.(.(..XK.<.<.| H | | K | | K K | J K J J H G H H K :.eXC.v ` A l z f z f ",
"{.|.>XoX1.k 5 < t t f B C G } :.>.<.C.C.1.D.Y.Y./.{.{.XX3X:XqX;XD.D.>.H | | | | | K K K K J J J H G G G K ,.3XC.n ` C x x x l s ",
">XOXV.r < 4 5 e s f A ' 2.T.3XvX>XA.B.Y.H.^.oX XqX3XqXuX9XtX0XtXD.Q.>.H | K K | K K K K J J J F H G G J K <.3X<.b ` n x x x x f ",
"<.G 5 * 4 7 r f G } S.).zXNXnXvX^.F.D.].3X3XqXrXeXtXpXsXaXvXfXtXG.^.>.K | K K H | J K K J Z J J G G G K H <.3X<.m ` n x z x f s ",
"& < : 6 7 7 G B.~.qXNXCXvXqX(.Y.H.].OXwXwXuXzXcXvXvXVXVXZXVXMXbX^.[.B.K K K H H K J K K J J J J G J K K K <.>X<.b ` n b x f f s ",
"& < 4 5 7 e Y.wXNXMXpX{.K.Z.F.Y.oXOXwXxXxXMXAXCXAXFXSXDXSXFXFXDX].oXB.K | K K K | K | K J J J F J J G K K <.>X<.d E n x z x x f ",
"* 4 : 6 6 e T.xX.XY.C.<.Z.Y.~.oXOXwXbXZXSXSXDXSXAXSXSXSXFXDXSXDX].].<.H | K K >.| K | K J J J J J F J K K <.9X,.d _ x x x x x f ",
"4 4 * 6 7 7 N N G ' } D.T.~. XqXbXVXAXAXDXFXFXDXZXxXwXbXAXCXSXZXQ.].<.K >.| K K | | | K J J J F J J J K { C.eXB.d _ l l z x f f ",
"6 7 7 t 7 7 f A  .<.F.Q.{. XwXcXVXCXAXSXSXDXxXQ.D x w w  .^.MXbXQ.].<.K | K K K K K K K J J F F F J J K K 1.qXA.d E x k k x l s ",
"f V t r f B J ,.F.Y.^.{.oXwXxXcXbXMXMXZXDX Xm 1 8 ; : & & : H.MX^.].>.K K K K K K J K J F J J F F F H K G >.OX1.d _ l d f f f s ",
"f N F K B.H.H.Y.!.(..X>XqXqXtXpXwXvXvXMXvXD a X.^ ! R R R y 8 eXY.Q.,.K K K K K K J J G S S F S F S K K J >.9X<.l _ v j z d k r ",
"d Z | Z.Y.T.~.|..X;X>XqXrXqXrXsXpXfXcXbX9Xm 7.x.x.j.+.j.h.X.2 !.].].,.K | J G K K J H G D F G S G S G H H ,.OX,.g _ k k z f f j ",
" .K.T./.).{.:X:X,XqXeXsXsXsXxXxXfXMXnXCXpXE #Xx.x.j.p.r.t.4.a Q.|.].>.K K J J K J G H H F F F G F S G K K V.3X>.d _ x z s f s q ",
"{.}.XX~.}.>X4XqXrXaXzXcXbXVXNXCXAXAXAXSXZX2.7.y.^ +.x./ ) ~ E {.].{.V.K K J J J J F F G F F F F F F G K J ,.OX>.d _ l x r g r r ",
"].C.;.x F.pXxXcXnXnXVXVXCXCXCXAXAXDXDXAXZXI.7.5.3.O.j.) ^ O.[ K.~.|.B.J G J J G J F F J G S F F S G G K K >.oX>.d _ d f r z s r ",
"r 7 9 5 F.MXnXnXVXnXnXMXVXMXMXMXnXMXVXBXcX8.k.4.O.O.h.^ / O.~ o.K.~.,.J G J J J J F F G F F F F S F S K F { {.| d E l d q r s e ",
"e 0 z w A.pXtXyXyXsXtXyXcXcXhXmXjXnXnXmX2X7.z.p.p.j.j.t.+.h.O.X.F.~.:.J G G G G J F F G S F F C n F S F F ;. X;.s E b l r q k 0 ",
"7 e x q 1.qXyXdXyXyXyXyXhXhXyXhXfXfXmXmX*X5.k.l.+.O.O.~ O.t.O.X.T.~.;.H G S S F F F F F S Z S C S F S H H >. X;.i E b l k s k 0 ",
"8 6 9 7 ' tXtXtXtXtXtXdXyXtXyXyXfXfXjXcXtX8.5.( ) o.W ) ) / R J.~.T.;.D S S G F G F F F S F D Z S F F H G {  X} f g a h s s g q ",
"N e r 9 ;.tXtXtXtXtXyXyXyXyXyXyXdXtXfXhXfX&XR ^ ~ h.k.t.~ Q y P.T.T.:.F S S G G G F F F Z F F C S S S H D K }.{ r z s h s r j q ",
"J V V V 1.fXfXfXpXyXyXyXyXyXyXaXfXfXfXcXfX0Xa R +.+.+.( X.R ; F.~.Y.:.G G F F F F F F F Z Z S S S S F G F ' {.{ r z i u e f r g ",
"F V F F S.tXdXdXfXdXtXyXyXtXyXtXgXyX0XfX0XtXb ; ~ ( +.^ W ; > W.~.Q.>.B S S F S F F F F C C S B C C F H F K {.H r z s u p g q e ",
"F V J J D.tXfXhXdXgXyXyXyX0XtXyXtXfXfXhXaXfX] , 2 Y R 3 1 # # I.Q.!.,.S F F F S S S F S C B C C C C S S S H {.H 0 d l 3 y p q g ",
"S K D.H.^.tXyXyXyXyX0XtXyXyXyXfXdXdXjXaXtXtX-.1 & & # # # = 1 J./.^.,.C Z Z F S S Z S Z B C Z C C C C S S H  XH q p Y L P T a 9 ",
"K D.OXOXoXfXtX0X0X0X0X0X0X0XtXtXfXfXfXtXeXrXU.[ a > # , a R W 6.;X{.,.F S B S S F Z Z A C C Z C C C C S C H {.G a u Y 3 P U T p ",
"D J V.| <..X<X<X<X,X,X,X2X<X>X>X<X9X9XeX>X9X0XU./ R 3 ) / e.t.5.).;X^.Q.D.;.F S F Z Z Z C Z Z C A C C c c F ^.F y 8 3 2 P P T a ",
"k k C c H /..X). X=X`.;X;X;X:X}.).,X2X5X+X+XxXrXk.4.^ t.j.i.a.y.&X).{.OXqX=X~.F.D C C Z B Z B C B B B B B F  XD y u 3 3 P P L L ",
"1.1.C.K ' {.).!.(.(..X;X;X;X}..X<X,X6X4X[.[.xXaX2X#X5.j.c.s.y.y.U.=XXX5X,X,XqXeXY.A C Z N B N C B B B B B G ].F 0 a u u L L 3 8 ",
"J.F.D.F F Q.(.).!./.).}.)..X;X,XeXqXrX5XOX{.wXrXaX7X#Xz.$Xz.k.h.#X1X5X6X6X1XaXpXwX<.Z C C B N B B B Z B B G (.F 9 0 y u u y q 9 ",
"J.F.D.>.>.~.(.!./.^./.}.}.,XqXtXwX,X4X5XeX.XuX1XwX,X*Xz.z.z.h.h.&X4X6X4XrXrXiX4XpX.X .C Z C B B B B B N C H ^.F t r q p p g r s ",
"L.1.S z B Y.^.!.!.^./..X:XuXsXpXpXqXqX4XqX,XuXrX4XqX*Xz.x.l.t.#X<XrXrXqXrXrXtXsXrXzXK.n Z B B B Z V B B B H ].G e r r h p p e e ",
"G ;.C l A Y.].^.^./.!.(..XiXpXpXsXpXwX,X4X,XrXrX6X1X-Xz.x.y.k.=X4XrXrXrXeXrXeXpXrXrX:X{ B V B B B V N B B G [.c % % % % - - % % ",
"f D D m m P.!.T.^./.!.).;XpXpXsXrXrXrX4XrX,X4XrX9X*X%Xx.l.7.&X4X4X,X4XqXuXpXrXrXrXrXpXL.B x B B N B z x x F ^.5             @ O ",
"N D m m _ I.T.~.E.!.!..X>XxXpXuXrXuXrXrXrX1X,XuX0X-Xz.z.y.8.<X5X5X6XuXrXwXuXuXrX6XpXuX{.C B B V N B N x x S ^.&       o     @   ",
"`.`.).I...R._.(._./.~.XX:XrXpXxXpX6XrXuXrX4XrX6X=Xz.c.r.5.&X>X4X,XrXrXrXuXrXrXaXwXpX0XrX .C n Z x N x x v C H.&                 ",
"9X9X<XR.2.!.!.T.!.!.L.T.).aXzXiXzXzXsXqX4X4XsX1X%Xl.j.u.8.;X4X6XrXpXrXrXzXuXuXrX6X6XpXzXH.v z S x N f z k V D.%                 ",
"E.E.L.A.A F.J.Y.L.L.L.P._.aXaXzXiXaXsXqX4X4X2X*Xz.l.d.e.#X;X;X4XrXpXpXrXaXrXiX6X1XpXvXpX{.B v x x x f k k v V.+                 ",
"C D ,.,.n B.C.S.D.S.J.T.T.uXxXzXzXzXxXuX,X2X-X%Xl.l.r.e.&X;X:X4X6X6XuXuXpX6XuX4X<XwX:X&XU.D N h z x k k k c V.+                 ",
";.,.G.V.B >.B.<.B.V.Z.Z.B.eXbXxXzXiX,X=X&X%X%Xx.d.r.e.4.7X4X:X3X6XrXuXuXuXqXrX7XP._.U.k.a.-.b N z z s s s B K @         X X o   ",
"`. XoX;.s J ,.{ | { } ,.| |.vX0X2X&XU.8.8.h.x.f.d.r.4.7.<X4X:X<X5XrX6X4XrX4X,X2.[ 7.h.f.g.y.m z k z k s k c F X         + + + + ",
"`. X(.;.f K | J J { | K | H.<X*X$Xk.s.l.y.s.f.s.i.e.4.U.:X5X3X6X,X6X4X4X4X4X.X] [ e.p.s.q.g.[ j f l f f f c N o         + % % & ",
"1.G.A.D e F J K J { | K >.| #X-Xf.v.v.v.d.s.g.r.u.0.5._.<X5X9X2X4XiXrX4X4X4X:X] ! ( r.p.g.d.5.x f f s s l c z           X @ . . ",
"v c x k q C H F H G K ;.{ J 2.c.f.f.c.s.f.d.i.r.r.O.I.7X3X4X4X6X6XqXuXrX6X4X:XH m o.r.q.r.d.a.] d s j l Y W e               . @ ",
"c q q k 0 z F H G J K {  .F -.x.f.f.l.s.g.i.r.*.e.O.U.&X:X,X4X6XrXrXwXrXrX6X>X{ l ! / *.r.f.s.[ i k j g 2 a 5 o X   o o O + @ . ",
"<.;.S k S { K G F Z F J K V ] 5.f.f.g.r.r.0.u.*.X.X.I.{.}.:X6XrXpXrXuXrXpXrX4X:.x m ) ( 0.i.a.o.k k q h p p 5 . o . O .         ",
",.C.{ r e N N N c C B B Z V c ^ r.d.i.g.q.e.*.( o.o.P._.).;XrXsXiXiXuXrXuXiX4XS.V l Q e.i.q.r.Q s j y Y i q 6 O O O O .         ",
"H S c r * w z V z N V v N V z ` 5.r.g.g.r.u.~ / J.J.R.{.}.<XsXuXiXuXuXrXsXaXaX(.Z k ^ u.i.q.r.^ g r p u 7 0 * o . . X @ + % : < ",
"k q 5 5 * 9 z k z N N v N V V x Q t.d.0.0.( ~ 3.J.R.R.{.7X<XrXuXrXiXtXuXiXiXiX>X{ l ^ e.r.0.r.3.z q g Y 0 0 z t l S ,.K.Q./..X`.",
"w r 5 < < 9 z z V N B B B V V z D o.t.4.X.o.6.U.R././.}.<X,XrXrXaXsXuXuXrXsXyXrX2.m 5.r.r.0.q.2.k r i E q g L.(./.E.!.(.`.`.(.!.",
"k q 5 < 4 9 c k V N B B N V V v z _ X.4.7.U.7X}.}.}.}.:X1X6XsXpXiXsXpXsXiXsXsXyX9X` e.q.0.q.d.W.' C < p 8 g !.E.C.S.F.L.F.S.A.A.",
"' n l f i d C A B C C C C B B N x c x }.rXpXwXqX4X5X4X6X6X6XaXaXrXaXsXsXsXsXiXiX3X..u.*.q.w.k.*XS.4XD.} :.A } ,. .' E.2.:.{ :.@X",
"| { :.:.' } 1.1.Z C C n C C C N x x x :XzXzXuXzXiXrX6XrXiXsXrXuXsXiXiXaXhXaXiXrXJ.W ( e.y.u.'.9X;XjXkXM.M.8X.XE.9.'.9X X,.F r q ",
"H A D D C G :.{  .' G  .H C N C f f c (.MXnXzXuXzXsXaXaXiXiXrXaXvXcXmXfXtX,XJ.] v ! a.g.p.a.'.b.b.=X&.&.$.m.&.@.@.@.M.E.] s w = ",
";.' { H D ] ;.;.{ <.1.:.{ { G C C C x | ~.XXmXBXvXnXvXaXzXaX6XrXzXqX.XY.' l n 1.C.X.r.q.g.b.n.=.=.-.&.$.#.%.#.$.#.#.%.m.=.] ,.x ",
"1.1.A.1.H D ;.' '  .:.C.C.,.' D C A x ;.Y.K.!.{.:X.X~.~.~.S.] b p 8 < 0 H Z.Y.J.2.O.f.g.x.=XgXgX0X9XM.&.$.$.N.8XN.M.jX8X-.-.`.wX",
"L.G.K.1.' D ' ' :.:.{ D G :.<.:.' C C F.3X.X}./.!.H.} ' { D A d x D } Y./././.T.6.l.f.g.h.C.^.3X0XtXhX8X&.m.lXBX9X9XH C.G.+XB.v ",
"L.L.L.1.] ' :.;.;.' :.:.;.' { :.;.;.} Q..X:X.X:X{././.(.(./.(.)./.{././._./.I.2.4.c.x.f.5.z v S :.H.E.;XaX0XgXfXeX'.-.F v S r 9 ",
"2.J.!.K.:.' ;.:.,.2.:.:.:.;.:.:.:.:.2..X:X;X}..X7X{.}.(.!.!./.(./.E.L.J.J.J.6.2.z.v.x.x.8.v 8 i f F 2.Z.S.H.'.9XfXtXaXzXpX>X=X4X"
};
