/* XPM */
static char *waka33_jpg[] = {
/* columns rows colors chars-per-pixel */
"64 64 248 2 ",
"   c #010202",
".  c #030609",
"X  c #05090C",
"o  c #0A0A09",
"O  c #060D11",
"+  c #181717",
"@  c #0C110E",
"#  c #221E1A",
"$  c #33211B",
"%  c #27221B",
"&  c #272623",
"*  c #372B24",
"=  c #39342A",
"-  c #3C3934",
";  c #1E211A",
":  c #463D36",
">  c #563C36",
",  c #4B3329",
"<  c #60342B",
"1  c #3F473A",
"2  c #45423C",
"3  c #47443B",
"4  c #59493A",
"5  c #724235",
"6  c #69483A",
"7  c #4F3C44",
"8  c #4B4543",
"9  c #4D4944",
"0  c #4E4D4A",
"q  c #454543",
"w  c #524E4A",
"e  c #574B45",
"r  c #54514C",
"t  c #5B544C",
"y  c #5C5A4E",
"u  c #555647",
"i  c #5B5551",
"p  c #5C5C54",
"a  c #5D5E5A",
"s  c #555652",
"d  c #4F5550",
"f  c #6A4C47",
"g  c #774B45",
"h  c #65564A",
"j  c #775648",
"k  c #635D54",
"l  c #6B5C53",
"z  c #635E59",
"x  c #6C5D5A",
"c  c #675452",
"v  c #775954",
"b  c #5D6158",
"n  c #656156",
"m  c #6A6256",
"M  c #65625C",
"N  c #6A645C",
"B  c #6D685E",
"V  c #6A6956",
"C  c #746455",
"Z  c #73645B",
"A  c #7A685B",
"S  c #76644E",
"D  c #6A6561",
"F  c #6D6A63",
"G  c #666665",
"H  c #726D64",
"J  c #736E69",
"K  c #786D64",
"L  c #757066",
"P  c #797265",
"I  c #767269",
"U  c #7A756C",
"Y  c #7C786E",
"T  c #787866",
"R  c #7B7771",
"E  c #7E7972",
"W  c #7E7E78",
"Q  c #726D70",
"!  c #903B3A",
"~  c #AA3435",
"^  c #A6352F",
"/  c #C22F38",
"(  c #85453C",
")  c #855A4A",
"_  c #8C4D49",
"`  c #866859",
"'  c #976B57",
"]  c #967259",
"[  c #8C6951",
"{  c #A66B56",
"}  c #A9775B",
"|  c #B47C5C",
" . c #B7795B",
".. c #AD6A54",
"X. c #8D6961",
"o. c #8A6562",
"O. c #82796E",
"+. c #877468",
"@. c #987867",
"#. c #827C74",
"$. c #887F76",
"%. c #837E79",
"&. c #817771",
"*. c #906B63",
"=. c #A77A64",
"-. c #B67B63",
";. c #B04245",
":. c #C77D65",
">. c #BFB039",
",. c #BDCD12",
"<. c #CCD50E",
"1. c #D0D233",
"2. c #E0D614",
"3. c #B88A56",
"4. c #ADB14B",
"5. c #868076",
"6. c #8A8176",
"7. c #85827A",
"8. c #8B847B",
"9. c #8D897D",
"0. c #92867A",
"q. c #92897E",
"w. c #988675",
"e. c #978A74",
"r. c #AE8469",
"t. c #BC8465",
"y. c #B8856A",
"u. c #A78874",
"i. c #B98A73",
"p. c #A9927C",
"a. c #BB9579",
"s. c #B49569",
"d. c #AEA671",
"f. c #C4835C",
"g. c #CC885B",
"h. c #C28463",
"j. c #CB8C63",
"k. c #C48B6A",
"l. c #CC8B6B",
"z. c #C58768",
"x. c #D38D67",
"c. c #CC936A",
"v. c #D3946B",
"b. c #D79368",
"n. c #C98C73",
"m. c #CA9273",
"M. c #C89479",
"N. c #D39473",
"B. c #D79A79",
"V. c #E29B7A",
"C. c #D7A27B",
"Z. c #BECF56",
"A. c #D0D952",
"S. c #D1D468",
"D. c #E5D479",
"F. c #8B8882",
"G. c #948D83",
"H. c #998D87",
"J. c #959185",
"K. c #9B9285",
"L. c #9C948A",
"P. c #9C978C",
"I. c #9C9891",
"U. c #A2968B",
"Y. c #A39A8D",
"T. c #A79787",
"R. c #B79986",
"E. c #A49C92",
"W. c #AA9D92",
"Q. c #A59B97",
"!. c #AB9286",
"~. c #A9A28C",
"^. c #A5A395",
"/. c #ABA295",
"(. c #ACA49A",
"). c #AEA99E",
"_. c #A6A29A",
"`. c #B2A395",
"'. c #B2A69B",
"]. c #B4AA9D",
"[. c #BAAB9D",
"{. c #BAA696",
"}. c #B7AC92",
"|. c #ACABA3",
" X c #B4ACA1",
".X c #BAADA2",
"XX c #B4A8AC",
"oX c #B7B1A5",
"OX c #BBB2A5",
"+X c #BCB5AA",
"@X c #B9B6A9",
"#X c #BAB4B2",
"$X c #D39D81",
"%X c #C7A38B",
"&X c #C4AA96",
"*X c #D2B196",
"=X c #C2ACA4",
"-X c #C2B3A6",
";X c #C3B6A9",
":X c #C4BAAC",
">X c #CBBBAD",
",X c #CABAA5",
"<X c #D2BBA9",
"1X c #C4BCB2",
"2X c #CDBEB2",
"3X c #C6B8B6",
"4X c #D2BEB3",
"5X c #D3BEBA",
"6X c #E2AC8F",
"7X c #D9D487",
"8X c #D5D395",
"9X c #CAC1AE",
"0X c #D4C4AC",
"qX c #D9C8AD",
"wX c #CCC2B4",
"eX c #CDC3B9",
"rX c #C8C3B7",
"tX c #D2C3B5",
"yX c #D4CAB4",
"uX c #DACCB3",
"iX c #D5C5B9",
"pX c #D9C7BB",
"aX c #D5CABC",
"sX c #DBCBBC",
"dX c #DAC6B2",
"fX c #DCD3BD",
"gX c #D8D2B7",
"hX c #DBD8A3",
"jX c #E1D2BB",
"kX c #ECDFB2",
"lX c #E7D1B3",
"zX c #ECDF90",
"xX c #D4CBC1",
"cX c #DBCDC1",
"vX c #DCD2C4",
"bX c #DDD4C9",
"nX c #DBD7CA",
"mX c #DDDBD2",
"MX c #E2D4C3",
"NX c #E2DACD",
"BX c #E2D6C8",
"VX c #E3DDD2",
"CX c #E8DFD8",
"ZX c #E6E3DC",
"AX c #E8E3D9",
"SX c #ECECEB",
"DX c #E9E8E3",
"FX c #F1EBEA",
/* pixels */
"@X@XoX_.H.$.$.8.K./..XOX-X;X-X[.}.K.G.8.5.I D H M M s 0 8 2 q 0 I I I I W Y #.5.$.W E E E E E E E R %.&.5.5.+XY.H ` v N H B N M ",
"|.Q.J.8.7.F.J.P.Q./.].;X:X;X<X4X,X/.Y.P.F.F.6.8.$.#.H M z r 0 0 E E U Y E E E E %.E E %.E E E R E R %.%.5.5.:XP.N ` A D B M M B ",
"W R J F I R E #.7.G.L.E..X4XtX4X>XU.0.$.#.6.J.K.K.U.Y.W.W.U.G.8.8.7.E E #.E #.%.%.&.&.E E E E E E R E %.#.5.1XY.N ` A N N n M N ",
"J.F.F.8.&.U P L B L P $.U.'.'.].'.L.q.7.$.9.L.E.W.'.`.'.`.W.W.Y.G.F.W E W E #.7.%.W %.%.&.E E E R R %.E $.7.+XY.D ` A N M M z N ",
"P.Y././.W./././.`.E.F.R F a w i z J I I Y #.G.I././.W.W.Y.U.U.U.G.8.W %.%.R E $.%.W %.%.W E R R R R E E %.#.+XI.G ` A z N N M M ",
"Y./.].OX+X1XeXiXxX'.U s 0 0 r i s M a a G G L E $.8.0.L.Y.E.U.q.8.5.Y #.%.R E %.$.W E #.E E R R Q R E R $.#.+XL.F ` o.D M n k M ",
").|.oX+X1X1X1XoX&.i 7 0 a z a D M D N L #.U Y 5.8.8.G.L.E.W.W.K.7.8.#.#.%.E E %.$.E E #.E E R R R E E R %.#.+XE.H X.K N M k M N ",
" XoXoX#XrX X&.e q 0 s a z D H H J I U G.J.6.9.L.Y.E./.).]..X:XOXJ.J.F.#.E E %.%.%.%.E E E R Y R U &.E R #.#.+XE.I X.A M M M M D ",
" X+X+XQ.R 9 : r t c x B +.O.e.Y.(.G.J.G.J.I._.].).oXOX;X9X>X>X,XI.Q.8.7.R R W %.%.&.&.E Y E Y U T U Y E Y 5.oXY.D X.A M N M n N ",
":X+X7.8 = 8 i w n H U $.Y.+XMXAXaXP.F.I.|.|.@X#X1XaXiX9XiXyXtXfX_.^.J.R R E E %.%.E E W Y E Y Y P Y Y Y Y 5.oXY.Z X.A x D M n D ",
"M t 2 2 0 w k H U K.].eXNXAXvX:X_.L.Q.oX+XrXeXgXxXaXvXbXNXBXnXBX].Y.J.&.&.E E W W E &.W Y E R U U U Y E E 5.oXY.N X.A M N M z M ",
"& = q 8 0 w J L.:XbXAXNXeX XE.P._.oX#XrXrXxXnXnXVXCXFXAXmXmXVXZX@XoXJ.7.#.R E R %.R &.E R R Y U U Y E E Y #.oXE.Z X.A z D n z M ",
": 2 q 8 q r J.NXVXaX.XY.H.K.I.(.@X#XrXnXmXDXSXSXDXSXeX8.z r z W F.|.I.I W E #.#.%.R %.E R E Y U P U E E E #.oXY.x ` C M D N M N ",
"- 8 q 2 7 w I I.K.8.$.8.J.P.).+XxXxXmXDXSXSXSXSXSXI.k : > : , * = y 7.R R E $.#.%.E %.E R R R U P U E E %.#.oXY.Z ` C M D N M D ",
"8 0 8 q 0 w r M P &.8.L./.).+XeXnXZXSXSXSXSXSXSX#Xh 4 ' =.} ) 5 , , k #.W W W #.%.E E E R R U U U U R E #.%.+XW.D *.C z N M n M ",
"w w 0 w s i M I $.H.I./.|.@XrXvXmXDXZXZXSXDXDXZXI.f 6 z.N.v.c.t.} [ h A R W E F.&.R E E U U U R R R R E E #.oXQ.v ` C z N n z M ",
"k M k N H R 0.H.I._.|. X+XeXiXyXsXvXbXNXCXmXmXNXF.k [ l.B.M.B.x.j.l.] P R %.%.W E Y Y U I I I Y U I R E #.Y oXY.l X.v k n M a M ",
"n N H #.H.L.Q./.]. X+X:X9XwXtXiXaXvXbXbXmXmXAXNX0.C @.M.z.t.-.l.l.-.@.U U E W #.E E Y Y U I I U U P R R E Y +XY.m X.l k M M k M ",
"n P H.Q.(.(. XoX:X,X:XwXdXtXtXsXaXcXbXnXmXVXAXMXu.' -.$Xk.} { l.=.' +.E R E Y U T Y R I I L L I P I J U Y Y OXP.m o.l k M b p M ",
"Y.W.|. X|.:X;X:X>X9XtXyXaXxXvXbXCXAXZXDXDXDXDXcXn.y.M.$Xl.{ r.N.} ) +.U R &.U U R Y Y Y I U I I J J U U #.Y oXL.m X.v z z a p k ",
" X X).E.L.3XwXiXaXvXNXNXAXAXDXZXFXFXDXSXDXSXDXxXv.k.k.B.N.n.B.n.h.-.=.H P &.U E Y Y U I I I I L U J R E E Y oXL.m X.l k k b k k ",
"G.&.k y K aXBXMXnXAXAXVXAXZXAXZXAXZXZXZXZXZXCXbXm.-.r.B.N.N.:.n.j.n.u.L U #.R R R I I L I I I I U P I U Y U ].G.m X.l y t a k k ",
"w w r r L xXjXfXfXfXfXfXvXvXvXnXnXNXNXVXVXNXCXNX6X=.) -.N.l.-...} z.] U Y U W I U R I U I Y R Y I H J P U T ).G.n o.l k p p z p ",
"i a M b F 9XaXuXuXqXuXgXjXjXuXjXfXjXfXMXbXbXcXcXMXH.e ) :.-.-...{ =.A L U L W Y I I I L L L H F Q H P U Y Y ].H.k o.l m z b z k ",
"2 9 r s M 1XpXuXyXyXqXyXuXaXfXjXfXfXfXfXfXjXjXfXgX!.4 4 [ z.:.{ { ) h A U U U I H I L L I L I L I I I U U U ).J.x b j l x x b y ",
"M w 9 r B :XtX0X0XdXqXuXyXaXyXuXgXfXMXfXfXfXjXfXgX`.> , 4 ' } _ ) > k I U P P I R R U H L I I L L I I Y U U ).G.b V l ) b d h b ",
"F.G a M H :XyXqXsXuXyXyXyXyXyXqXqXqX<X<XgXgXfXfXjX,Xj = * , < , , $ p I I U U I I J H H L I I H L I I U Y U ).G.z x p v l r i x ",
"U D D F T 9XjXgXjXuXqXyXyXyX0X0X6XB.l.a.0XyXgXpX<X%X=.6 , * $ * $ $ a W I U U I U I I H F H H I H I I U U P ).0.c a t y c i p z ",
"#.J I I W rXjXfXgXgXqXyXuXqX*X$Xc.c.h.M.qXqXuXuX,Xa.N.t.) 6 , $ < 6 G.).#.H U J J H I H H F F U H L I U P P ).G.p b f f f y p s ",
"F N R F.9.9XgXuXgXuXqXdXdXqX6XB.c.c.t.%XgXyXgXrXtXR.m.l.| { [ [ ] j W.+XE.Y.L.7.&.L H H H U F F F H H I L T ).0.b x j ( ( ! l y ",
"R 7._.@XoXgXgXyXqXyX0X0XyX0X*XN.c.h.| R.0XiXeX@XiX<X%XM.m.h. .t.| @..X1X.XOX:X:X.X(.K.U B L F H H F F L L L _.9.t v g ( ~ / ) v ",
"R F.I.^.^.:X9X,X,X<X<XwX9X9X%Xc.t. .} R.>X2X#X|.eXxX<X%Xm.l.f.j.n.*X=X3X3X2X2X2XwXiXiXL.L L B J L L H L F L (.6.u f 6 5 ^ ~ ;.) ",
"D N H Y A /.;X-XOX,X-X,X>X,X&Xi. . .=.&X<X;X@X|.1XrX1XOX%X%XM.m.;X>X>XtXtXtXtXtXiXtXsXwXK.B L H L L F B F F ^.9.e f 6 5 ^ / ~ ( ",
"P P #.W H E.[.'.[.[.}.-X;XOX{.i.:. .i.-X5X2XrX1X5X5X2X2X,X<X<X*X2X4XiXiXtXtXtXiXsXpXcXpX+X6.D H B F H G F H ^.9.t h g 5 ! ~ ! g ",
"K.L.J.8.F P..X.X].].].OX-X].}.i.|  .M.:X2X3XrXeX2X2X2XiXiXiXeXiXtXiXiXiXtXtXtXxXsXsXsXsXcX^.H J F F F F H H ^.9.u h e 5 5 g f c ",
"T.T.J.7.L I.].`.).}.]. X;X[.{.M.3.| %X3X5X4XtX2XwX9X2XeXtXwXeXiXiXiXiXiXiXtXtXaXpXfXpXiXsXrX&.H F F F F H F ^.8.t y t f g h r d ",
"Y.K.G.#.J I..X/.).'.]..X-X[.{.M.t.t.&X2X5X5X2X>XwX2X2XwXtX4XtXuXsXiXtXiXaXiXiXxXsXpXyXtXtXcXL.H H F F H B B _.9.c a c c v k k p ",
"G.8.P m l G.'.(.(.{.'.].OX[.&XM.z.t.%X2X2X4X>X2X2X4X4XtX4XtXtXaXsXiXtXiXiXxXsXcXsX4XpXiXiXxXOXH F M D D B D (.8.d w 8 e 3 2 3 : ",
"R &.K Z m q.'.`.).'.'.].[.].%XM.n.l.%X:X2XtXwX5X4X4X4XtXtX2XtXiXiXiXiXiXiXpXsXsXaXiXtXtXiXxXeX9.F M B B B F (.#.X X X o o @ @ + ",
"a D D C A w./.)._./.^.].).(.R.M.l.m.M.;X2XtX2XiXtXtXwXiXiXtXiX5XiXiXiXiX5XpXsXpX4XcX>X<XtXcXvXE.G B B M N F I.F             . O ",
"K.e.w.u.@.!.`.'.'./.`.=X+X/.a.n.l.z.i.,XwX1XtX2XtX4XwXtXtX4XtXtXiXiXiXiXiXiXiXiXiX4X;X>XcXxXeX^.A G F x M N I.a o               ",
"9X9X9X&X$.!.'.).(././.`./.~.M.l.z.:.t.p.~.&X3XwX2XtXtXtXtXtXtXtXiXiXtXtXiXiXiXiXqX>X.X1XaX-X%Xa.@.M D n M D I.0                 ",
"+XoX;X[.6.U./.E.E.E.W.W.Y.~.M.k.k.h.k.r.u.`.=X9XtX2X2X4X2XtX2XtXiXtXtXtX4XtXtXtX9X>X'.W.`.p.l.b.i.C M n n M J.1                 ",
"9.5.6.q.H 6.L.L.L.Y.Y.W.P.T.m.j.t.h.j.t.i.a.W.;X2X4X>X2X>X2XtXiXiXiXtXtXwX2X4X2X9X3Xw.] r.k.v.b.N.] n n n M F.=                 ",
"B L 7.J.P O.G.G.G.H.J.U.J.p.n.j.y.f.:.j.n.u.W.OX>X>X>X>X2XtXtXiXpXiXiXdX4X2X2X2XeX1X@.[ t.x.b.b.b.r.m n l D F.*                 ",
"^._. XE.N H 7.8.8.8.8.9.9.w.k.g.l.f.f.z.y.u.!.[.-X;X>X2X2X4XtXtXpXiXiXiXiXiXdXtX5XeXG.` } f.g.c.b.c.S p z B E &         o + + + ",
"/.OXOXL.M J 7.#.W 5.5.7.7.e.z.h.t.|  .-.i.u.p.`.-X-X>X>X2XtXtX4XiXiXtXiXpXpXaXtXdXiXF.x '  .g.g.j.v.] p a N E +       . + ; & ; ",
"~.[.].0.k H $.E R &.E W 7.w.z.t.z.| | -.i.!.w.{.=X;X;X>X>X2XtXtXiXiXtXiXpXpXaXiX0X2X%.x S ]  .j.c.x.r.b a m T +       . O + + + ",
"Y Y E F n B U Y E U &.7.7.$.t.:.| -.}  .s.p.!.'..X=X;X>X>XtXtX4XdXiXiXpXpXpXtXiX4XiX0.n M ' f.z.j.v.r.y x A X.@   .         . . ",
"n p y p r N 7.I U P U %.W #.]  ...{ ..| r.!.[.{.;X>X>X;X;X4XsXpXpXiXiXpXpXiXpXiXiX9XL.N M [ f.c.b.j.r.m v h v @     . . . o X @ ",
"U U n y b V R R R R E W W Y @.r. ...} r.@.$.=X=X-X>X>X-X-X>XiXpXiXiXsXsXpXpXuXiXpXaX:XU k ] j.k.g.j.r.h f e N O X . . . X o X . ",
"K.G.$.P U R I J J J L I I H A +.' } @.@.X.&.].;X>X>X>X2X>X;XtXcXiXsXsXsXsXsXpXpXsXsXyX).Z @.j.j.x.t.] j v y a @ X X . . .       ",
"q.5.$.N : 3 n N M G D N G M B B x +.H H F L .XwX4X2X2X2X>X;X4XsXuXjXsXsXsXsXjXpXfXsXiX<X+.=.g.x.g.m.` g v t 0 O X o           @ ",
"m k y y 3 9 D b M D D D G F G G G G M G G I :X>X2X4XiXtX2X4XtXtXsXsXsXsXsXsXsXsXsXsXsXsXK.=.j.j.f.m.S g j e r ; # & - 9 i H 6.q.",
"p p 9 9 2 9 n N M N G F G G F M Q b M G G Y wX2X4XtXsXsXsXcXsXiXcXcXcXcXcXcXsXsXsXaXsXsXT.} f.g.j.y.V A B h $.F.I.E./.].+X+X;X;X",
"p r r 2 3 0 b B N N F H F B F F G N V D G Y iXxX2X2X4XsXcXcXMXcXcXcXcXMXMXcXsXsXvXvXyX`.T } c.c.c.' 4 h y e U.].(.W././.`.~.T.K.",
"I C h e e u Z m G G F J H F F G M F G D D J 1XVXbXxXaXaXiXjXcXMXMXMXMXjXMXcXMXaX;XY.v 8 S t.b.c.-.!.v v h s Y P.#.P 9.J.9.9.9.I.",
"E O.I P L F $.#.F L J H F F F F H p z D F N $.E.3XbXVXbXvXbXsX2XeX>X;XOX`.K.O.m t V : n r.x.c.N.a.dXxX,X].p.Q.J.H.L.}.oXq.Y &.T ",
"&.&.O.#.Y P 0.q.#.I H H P L F D N M D N G M &.W.$.E $.Q.%.I r 3 9 9 4 3 = * * $ 3 T G.e.M.b.v.v.=XuX7XA.1.A.7XZ.4.S.7XoXP m 4 9 ",
"#.U K P P L O.8.$.$.6.6.#.U L L B G M M M N (.:X+X(.H.H.e : * % # + + # % : m 7.L.^.p.a.k.B.V.c.3.s.>.1.<.<.<.,.<.,.1.A.4.L Q 7 ",
"9.6.6.6.P T P +.O.$.0.K.q.7.O.U L H N D D B  X;X;X;X XQ.).(.E.H.F.#.U #.5.L./..X`.T.a.V.B.v.N.N.d.}.S.<.<.<.A.Z.A.S.zX8Xd.e.Y./.",
"L.P.Y.K.$.T O.O.$.O.&.8.0.9.8.O.P B T D H 8.;XOX;X;X.X]..X/./..X.X]..XoX XOX].`.R.n.$Xx.V.C.C.6XkXqXhXD.2.2.D.kXgXhXd.'.XX#X~.^.",
"K.L.W.L.O.Y +.$.$.O.#.O.O.O.$.0.$.+.U H Y ).:X X.X[.[..X]..X.X].'.'.'.Y.K.K.U.K.w.B.v.V.V.v.C.%X}.:XyXuX7XzXD.7XOX0.z 8 9 e 8 9 ",
"K.T.W.U.$.Y #.$.$.8.$.6.6.$.$.$.$.8.8.7.#.E.W.^.W.).].]..X'.(. X[.'.W.K.K.K.U.0.a.c.v.N.m.v.$Xe.G 5.p.~.XX,XyXgXyX9X@X}.~.q.5.T "
};
