/* XPM */
static char *waka31_jpg[] = {
/* columns rows colors chars-per-pixel */
"64 64 256 2 ",
"   c #010102",
".  c #0B0B0D",
"X  c #05060A",
"o  c #090B10",
"O  c #141414",
"+  c #1A1B1A",
"@  c #110F0F",
"#  c #2C221C",
"$  c #362E26",
"%  c #36332B",
"&  c #312D2D",
"*  c #171F20",
"=  c #4A342A",
"-  c #423C37",
";  c #4B3023",
":  c #753F3F",
">  c #45413D",
",  c #4A453E",
"<  c #59483B",
"1  c #684738",
"2  c #784C3D",
"3  c #454342",
"4  c #4B4643",
"5  c #4D4A45",
"6  c #4C4A4A",
"7  c #524C45",
"8  c #534E4A",
"9  c #5A4A42",
"0  c #54524C",
"q  c #5B554E",
"w  c #58594C",
"e  c #5B5652",
"r  c #5D5B53",
"t  c #5A5B57",
"y  c #584F50",
"u  c #684C44",
"i  c #744B46",
"p  c #66574C",
"a  c #77544B",
"s  c #635C54",
"d  c #695D56",
"f  c #625E5A",
"g  c #695A57",
"h  c #765B54",
"j  c #5C6156",
"k  c #646156",
"l  c #65625B",
"z  c #6A645C",
"x  c #6C695D",
"c  c #696259",
"v  c #796356",
"b  c #7B6559",
"n  c #7D6B5D",
"m  c #73675A",
"M  c #62644E",
"N  c #6D5E63",
"B  c #666461",
"V  c #6B6562",
"C  c #6D6A63",
"Z  c #6C696A",
"A  c #726D65",
"S  c #736E69",
"D  c #7B6C65",
"F  c #757166",
"G  c #76726A",
"H  c #7A756C",
"J  c #7C786E",
"K  c #797467",
"L  c #7C7771",
"P  c #7E7972",
"I  c #7B7C76",
"U  c #6B7069",
"Y  c #8F3A3A",
"T  c #AE3035",
"R  c #C03842",
"E  c #875749",
"W  c #87524E",
"Q  c #826A5D",
"!  c #89665B",
"~  c #966A56",
"^  c #8C624A",
"/  c #A66956",
"(  c #A8755C",
")  c #B7795B",
"_  c #B66D5E",
"`  c #896961",
"'  c #936B62",
"]  c #82766D",
"[  c #827A6F",
"{  c #897465",
"}  c #987A67",
"|  c #827C74",
" . c #847E78",
".. c #887A75",
"X. c #957E74",
"o. c #A87965",
"O. c #B47A65",
"+. c #A76863",
"@. c #AF4944",
"#. c #C77A69",
"$. c #C47F5E",
"%. c #7F8176",
"&. c #76855E",
"*. c #BBCB17",
"=. c #CAD40E",
"-. c #CBD819",
";. c #D7D922",
":. c #BC8359",
">. c #858176",
",. c #898175",
"<. c #86827A",
"1. c #8B847B",
"2. c #8D897C",
"3. c #8D8B74",
"4. c #928A7E",
"5. c #968677",
"6. c #8E856B",
"7. c #BB8364",
"8. c #B88769",
"9. c #A58B78",
"0. c #B98A75",
"q. c #B89179",
"w. c #A88A6F",
"e. c #ADAE68",
"r. c #C6875C",
"t. c #D18D5B",
"y. c #CA8C64",
"u. c #C48B6C",
"i. c #CB8A6B",
"p. c #C68467",
"a. c #D38C6A",
"s. c #D58E63",
"d. c #CC9368",
"f. c #D3936B",
"g. c #D9936C",
"h. c #D59567",
"j. c #C78A74",
"k. c #D58E74",
"l. c #CB9776",
"z. c #D39573",
"x. c #D59B75",
"c. c #D89876",
"v. c #E29A6E",
"b. c #D8A17A",
"n. c #C3AF68",
"m. c #C8BA4D",
"M. c #BFC36C",
"N. c #D1D754",
"B. c #D3D271",
"V. c #E5D374",
"C. c #CEE149",
"Z. c #8E8A81",
"A. c #8C8783",
"S. c #948D83",
"D. c #988C85",
"F. c #959185",
"G. c #9A9285",
"H. c #96928A",
"J. c #9C958B",
"K. c #9D998A",
"L. c #9D9991",
"P. c #A1968C",
"I. c #A39A8D",
"U. c #A69989",
"Y. c #B89A87",
"T. c #A49D93",
"R. c #AA9E94",
"E. c #A59D98",
"W. c #B99D91",
"Q. c #BBA38A",
"!. c #A5A195",
"~. c #ABA294",
"^. c #ACA49A",
"/. c #AEA99C",
"(. c #AFAA97",
"). c #B2A494",
"_. c #B2A69A",
"`. c #B4AB9D",
"'. c #BAAC9E",
"]. c #B7A794",
"[. c #B9B09C",
"{. c #B0A98F",
"}. c #ADA9A2",
"|. c #B4ACA3",
" X c #BBADA2",
".X c #B7ABA8",
"XX c #B6B2A5",
"oX c #BCB2A3",
"OX c #BCB4AA",
"+X c #BBB7A9",
"@X c #BCB8B2",
"#X c #D39B81",
"$X c #C49A85",
"%X c #C6A48A",
"&X c #D2A489",
"*X c #C5AA99",
"=X c #D2AA97",
"-X c #CCB39A",
";X c #C3AEA5",
":X c #C2B3A5",
">X c #CBB4A4",
",X c #C4B9A6",
"<X c #C3B6AB",
"1X c #C4BAAC",
"2X c #CBBBAC",
"3X c #CAB7A9",
"4X c #D2BCA9",
"5X c #C4BBB2",
"6X c #CDBDB2",
"7X c #C8BFB8",
"8X c #D1BDB3",
"9X c #BFC3B2",
"0X c #D4D090",
"qX c #CDC1AC",
"wX c #CAC6AE",
"eX c #D2C4AC",
"rX c #D4C9AE",
"tX c #D8C6AA",
"yX c #CDC2B3",
"uX c #CEC4BA",
"iX c #C9C6B7",
"pX c #D3C3B4",
"aX c #D6CAB3",
"sX c #D9CCB4",
"dX c #D5C5B9",
"fX c #D9C6BA",
"gX c #D5CABC",
"hX c #DBCBBC",
"jX c #DAC4B6",
"kX c #DDD2BC",
"lX c #DAD1B8",
"zX c #DBD3AF",
"xX c #E6CEB9",
"cX c #E1D4B4",
"vX c #E3E297",
"bX c #D5CDC2",
"nX c #DBCDC2",
"mX c #DBCAC4",
"MX c #DCD3C4",
"NX c #DED5CA",
"BX c #DAD5C8",
"VX c #DDDAD2",
"CX c #CBCAC5",
"ZX c #E1D4C2",
"AX c #E2DACD",
"SX c #E3D7C8",
"DX c #E3DDD2",
"FX c #E8DED7",
"GX c #E5E3DB",
"HX c #E9E4DC",
"JX c #E8E2D5",
"KX c #EBEAE4",
"LX c #EBEBEB",
"PX c #E7E6E3",
"IX c #ECEFF2",
"UX c #DEE3DF",
/* pixels */
"XX+XXX}.J.| H 1.S.I.'.`.'.'. X_.U.D.5.<. .H C A k t 0 6 > 3 3 6 U F G J L L P <. .| ..[ L P P P P P  .P ..>.+X!.A Q v x A x k A ",
"|.}.L.A.1.A.D.J.T.~.|.<X2X8X8XqX3X~.T.H.A.<.>.| <.H F k q 7 3 5 P P J J P P P |  .| | | L | P P P | |  . .| +XR.D Q v z V z c V ",
"1.L U S L | | 1.A.H.H.^. X6X2XeX2XR.G.1.H | S.J.D.G.I.I.P.G.1.| 1.1.I J P P  . .| | | | P P P P L L I | | | +XT.A ` m c z l k V ",
"1.2.<.L H G S A V G G | J. X X:X XP.1.| 1.S.J.J.~.)._._.`._.R.T.S.2.I J P | I <.<.|  .P P | P P P L  .| | L OXT.C ` b c l z k z ",
"L.!.!.!.T.T.T.T.K.D.1.| L f e s C H | L I %.F.E.~.^.R.U.U.I.I.G.F.2.| P  .P  . . .| ..| L  .P P J | | | | | OXT.V Q b d B z l z ",
"!.!.^.XXOXOX5XdXbXoXA.t 8 6 0 0 e l t f V C C I ,.A.S.J.I.I.I.G.1.1.P |  .P I  . .| | | P P P L J J L | | | +XI.z ` n l g V k V ",
"^.XXXX+X1XgXuX@XS.s > 4 t e t f q l z S L G H  .| 2.S.F.P.I.I.G.%.<.| L P P  . ...P  .| L I P L J L L L | ] +XT.C ` n l z l l Z ",
"XX}.XX5X5X|.1.p 3 6 e f t V C D A C G 1.S.<.2.F.J.T.T.^.`.oX:X XZ.H.A.P P P  .P | | | P L | L L J J L L | | OXT.Z { ` V g l k C ",
"|..X@X.X1.y - 6 0 e g z D [ 5.J.K.2.S.D.S.L.!.!..X}.OX+X1X3X3X2XT.K.2.H |  .I |  .L | P L P L L J J P P L | .X~.x ~ Q l z z d V ",
"7X@XS.8 % 3 0 8 s V H ..S._.dXJXbXL.S.L.!.^.`.@XwX1X1XyXqXeXeXpX!.T.F.L L L P  . .|  .P L I L L G J P L L | XX!.x ' Q l B z l V ",
"A l 6 3 4 0 s x ] 1.I.<XSXJXNXCX}.H.H.}.+X5XyXbXyXgXlXlXkXMXSXkX/.T.F.P  .L L L  .P P P L L G L J J J P | | |.T.x ' n l B z c z ",
"% % - 6 8 y x S.|.gXJXJXbXOXT.G.E.}.5XiXiXbXnXmXVXGXGXHXKXHXKXKXOXXXL.| L L | | | P P P L I L G G J L | P | |.T.A ' Q l B l d B ",
"% > 6 3 3 e S.MXJXMX5XT.D.D.J.~.|.OXiXbXVXJXKXLXLXLXLXLXIXIXIXPXOX|.L.L L P  .| | L P L L I L L H J L P P | XXT.z ' Q l B c d B ",
"> > 3 3 3 5 A T.P.S.>.1.H.T./..XwXgXBXDXHXLXLXLXLXKXLXLXPXDXVXCX}.}.J.L L P <.|  .P  . .L ..G L J H P P <.| |.!.c ! v f B z z C ",
"3 4 3 > 4 0 r l A ] 1.H.T.R.|.1XBXHXHXLXLXKXIXKXHXGXKXHXOX| s 9 < q z G | L P | | P  .L L L L L J H I | P |  XE.z ` b f B z d B ",
"6 6 8 8 0 e f V | 4.L.^.|.OX7XNXUXGXPXLXLXKXKXGXGXGXVXH.5 < 9 < - $ $ , S P >.| | L L L L L L L G J J L | ..XXE.g ! b f f c f B ",
"f l f z z S <.A.L.!.}.|.1X6XpXhXgXMXAXAXDXDXDXDXSXJX@Xp p O.8.8.' a 1 = e I | ..P P L L H G H J J H J L P J |.!.z ! v s l f s z ",
"c f G L Z.G.E.^.^.[.XX<X6XyXpXdXgXgXkXBXBXAXDXVXVXJX^.9 Q k.l.k.l.p.O.~ p G | | P P L H G F F H H G J P >.J |.!.g ` v f k f c l ",
"c A S.G.^./.}.|.[.,X2XqXyXyXyXpXgXlXBXBXAXAXDXGXVXPXP.p } c.d.i.h.g.g.i.! ] L I L L H H G G G F G F F L P L /.T.l ` h d f f s k ",
"4.P._.|.}.|.<X1X1XyXyXuXgXbXbXBXVXDXGXGXGXKXKXKXIXPXR.b w.l.8.O.8.z.O.( ! ] H H H J J H K F F F G G H P P J |.!.k ` b f k k c t ",
" XoX`.R.I.6XyX6XgXMXMXNXDXJXHXKXLXLXLXLXLXLXLXLXKXFX$Xo.Y.#X8./ O.j.o.~ ] | H H J J G F G G F G H G H I P H `.T.l ' v k f f d t ",
"L.>.A s C dXnXSXSXAXJXJXHXHXHXHXHXGXHXHXPXGXPXUXFXtXj.8.c.k.j.O.z.i./ ^ { H P  .J G J J H G H G G G G H L G ^.I.l ! v w r r s k ",
"0 7 7 w z MXkXZXMXMXMXkXSXMXMXMXBXVXDXDXJXDXDXVXDX4Xk.7.#Xk.f.k.k.a.r.8.} L G G J H G G G H L L D S S L H F ^.K.l ! h w s r s f ",
"q f j k c 6XjXsXaXzXsXsXkXkXkXkXkXkXkXkXBXkXBXBXBX4Xj.~ j.c.c.u.O.j.p.j.} ] G J J J G G S S S S D G G L L H ^.G.g ! h f f t s l ",
"> 4 e t r 1XgXaXaXaXaXaXaXaXsXlXlXcXZXZXkXZXZXSXxXxX=X` ~ u.i.O.+./ O.0.` F H A A G G A G G S A G G G H J K ^.J.N s a c h k p f ",
"f 5 5 e s +XaXpXyXpXpXaXgXaXaXaXlXlXkXkXhXkXsXsXgXlXrXn 1 ( ) ( / / / ~ n G P G G L G S S H G G G F F H H H ^.K.f d M h j r w s ",
"Z.V e l c 1XpXsXaXaXpXaXaXaXpXaXaXlXkXkXlXkXkXlXgXcXsX` ; a p.#._ / / 1 z I L S S H S S S S S S G G K H J D ^.F.j l d a a w j r ",
"I Z l S F yXsXlXkXsXaXeXaXaXaXeXaXaXsXsXsXsXsXsXlXsXqXn = u O.i./ +.E = V G H H S G G S S S S S F F F H J K ^.G.k f p i a s t s ",
"L G G I G wXsXlXlXaXrXrXrXrXqXeXrXaXaXaXaXsXsXsXrXzXrX} = = 1 ~ ~ ! = % %.G H C L G S S S S S G C S G H J K !.4.r d c p i r w k ",
"U C G <.1.1XkXcXzXaXrXrXzXaXrXaXlXlXkXZXkXlXzXlXcXsX>Xo.E a 1 2 : ; # = H.F.H H S S S S S S S S S C S G F F !.F.j g d i Y W p k ",
"L <.L.}.}.iXgXrXaXrXeXeXrXaXpXaXgXMXMXkXsXeXeXrXjXyX8X$Xj.O.8.) ~ ; = < !.+X[ F G S S S S S S Z S S S G G F !.F.w a i Y T R E a ",
"H 1.}.}./.wXpXqXqXqXeXpXpXqXqXqXwXaXaXpX6X2XqXrXdX@XiX-Xd.j.j.p.O.~ ~ ~ ).2X X}.S.<.L S S S S S S S S A F C !.G.7 u 1 1 T T @.W ",
"A x G J m ~.oXoX:X,X,X,X2X1X+X,X:X<X<X,X,X:X8X7X5X.X6X*Xl.p.i.p.:.$.O.o.>X9X/.5X6X8X XJ...A S S S C A A A C !.S.9 u < 1 T T T E ",
"x x G L x I.oXoX'.oX[.:X:XoXoXoX[.oXoX1X,X3X6X5X@X X*X&Xu.) O.O.$.7.j.Q. X7X+X6X2X8XdXdX7XS.z C Z Z G C C z T.S.9 u i : Y T Y W ",
"G.G.J.2.D J.`.`.'.`.[.oX[.oX[.XX'.[.1XpX3X2X8X5X5X*X&X#Xu.o.0.q.j.j.:XyX1X8XpXdXdXfXhXhXnXOX| A V Z U Z S z T.S.t p i : 2 2 1 i ",
"U.G.F.<.A H.|.]._._.`.[.oX[.[.[.|.1XpXgXyX2X6X7X3X=Xc.p.q.Y.*X*X&X*X2XiXuX8X8XfXfXjXhXjXhXnX|.H V A C C G x T.S.q w 0 9 1 p w r ",
"U.I.4.3.H L.|.!.^.^.~.'.[.`.`.`.|.yXsXdXpX6X2X2X=X#Xu.8.%X X6X4X4X2XpX8XhXfXdXsXfX8XhXZXsXMXdXJ.A V V V C x T.S.p t t p p p s r ",
"4.3.K x p 1.}.^._.^._.|.oXoX`.[.oXdXfXdXgX8X>X=X#Xj.0.$X>X<X8X8XuXdXdXmXdXmXdXyXdXsXfXnXhXdXdX<XD l C V B z !.D.p e e u 9 , 5 8 ",
">.[ K F m 4./.^.^.~.~._.`.`._._.<XhXfXdXdX2X=X&Xz.u.$X-X7X7X6X8XdXdXdXmX8XdX7X2XdXhXhXjXhXhXdXdX2.l Z C z C E.2.O O @ @ @ . O * ",
"k z m b h 5.E.~.(.~.^._._._.^._.2XfXhXdXwX>X&Xz.s.i.*X3X8X8X6X7X8XsXsXdXmXfXdXdXdXfXmXdXdXhXpXhX~.V A C B U H.H             X X ",
">.,.X.X.~ 9.R.R._.).R.oX.X~.~.R.8XmXgXdX4X&Xx.f.a.0.>X8X8X5X6X8XhXpXpXfXdXfXhXfXdXmXhXjX2XpXfXdX>XK x x C z J.x                 ",
"wXyX2X].5.U.'._./.).~._./.I.I.T.iXbXyX4X=Xx.f.f.i.q.>X8X8X5X6X6XdXpXpXpXpXfXfXdXfXfXpXjX6XdXjXdXgX2.z f l z H.w                 ",
"oX,X1X[.5.U.~.T.E.~.I.R.!.T.I.R.+X[.%X%Xx.f.f.d.#.Y.>X8X8X6X5X8XpXpX8XpXpXdXfXfXhXhXpX8X:X6XdXbXgXH.l f z z 1.8                 ",
"F.3.3.F.K [ D.P.J.I.U.R.R.T.U.).&Xl.l.z.k.g.z.i.0.%X5X6X8X6X6X8XpXpX8X6X6XdXfXhXjXhXpX3XoXuXmXdX[.9.m k N g <.4                 ",
"A A >.F.K P S.H.S.S.G.P.K.H.9.q.c.c.v.c.c.g.l.u.0.;X<X<X2XqX2XdX8XpX8X2XpXpXdXhXxXyX2XoXoXpX3XW.l.l.} k l c <.%           X X   ",
"K.L.^.T.C F  .1.A.1.2.S.F.2.9.l.g.x.b.x.h.d.i.7.q. X.X X3X2X6XdX8XeX8X6X6X8XpXpX6X7X7X_.3.9.q.q.i.g.8.p j s >.&         X O + . ",
"{.XX+XT.l A A.<.| %.%.,.%.%.w.b.b.b.l.d.h.y.7.( 9.R.^. X>X3X2XdXpXpXpXpXyX8X2X6XeX<XOXD.n } 7.i.h.s.u.v l r ] &         O * # + ",
"I.(.[.J.s C  .L H %.I >.J %.q.v.h.v.f.f.a.p.O.o.` J.T.;X>X2X2X8XpXfXjXfXdXpXpX6X2XpXuXP.! ( r.t.y.s.z.Q j k { *         @ + + + ",
"%.1.>.G f C J H ..H I .. .| w.v.c.d.f.i.r.) o.{ 5.4.].;X:X3X2XpXfXhXhXfXfXhXsXjXdXhXpXI.m Q O.r.:.f.h.w.p ! ` O                 ",
"M w r r q l H J L I J |  .L 5.c.z.f.d.) ) o.9.5.D.P._. X:X3X2XdXfXsXhXhXhXhXhXjXdXaXdX4.c v ( ) y.s.t.:.h h D O       X   X o O ",
"J z x s f l L L H I G ] >.H { b.g.s.r.( } X.4.T.R.R.'.;X:X3X2XpXfXfXhXhXhXhXhXhXdXpXpX1.l d ^ ) r.d.h.7.u 9 f O X X X o o . X   ",
"K.3.>.F G P L A D G G F H F m w.p.p.) ( } D L R.'._.'.;X:X:X2XpXhXhXhXhXhXhXhXhXfXdX8XG.f z Q 7.h.y.t.y.! p r + X o X X X       ",
"3.S.>.k > 5 f c V N A V B Z l n ' o.o.} J U A ~.:X'. X;X:X3X6XdXhXmXhXhXhXhXhXhXhXdXpX'.V B ` 8.s.d.t.) a q 0 O . o .           ",
"z x d e , 8 l l l f V V B Z V c c D n m x U C ^.6X:X<X<X3X2X6XdXhXsXhXhXhXhXhXhXhXdXhX2X| t ` p.f.h.r.( a q w + O + # % > e A [ ",
"r w 7 8 > , f l l B C C x Z Z z B l l B C l G wXdXpXpXpX7XpXdXdXhXhXhXxXkXnXhXnXjXbXsXxXU.f } t.g.y.d.8.D 7 K 1.S.F.I.`.oXOX:X+X",
"q q 5 4 4 , V d l V V m A Z Z B C B Z B A z | mXnXnXmXsXsXmXmXxXkXhXhXnXhXhXhXhXhXbX6XxX XC w.t.h.r.r.^ e 5 4.,X~.~.~.~.~.).R.U.",
"K k q 5 7 7 k c V V C G U C C C B z z z Z z D.BXnXgXMXmXnXhXmXhXbXMXhXnXgXxXgXhXjXSXuXsX3XX.q.y.r.g.) a 1 6 H L.,.J A.P.6.4.A.H.",
"J J F F x x ] ,.G C C F A S Z C z l f c B V K.AXAXhXhXgXhXZXSXhXhXmXnXsXMXhXhXhXhXfXnXmX|.X.0.s.h.y.%X`.}.J.H.H.A.2.^.}.J.| H J ",
">.J J [ J ] 1.4.L G G F A A C Z Z l k z f V | |.MXAXNXMXSXdXnXSXMXnXMXmXSXSXSXSXMXjX*X[ | 9.x.t.i.y.0XB.N.B.0XM.e.M.0XwX] m q 3 ",
">.K F K K H ,.| %.P >.P J J F C V l l V B B l |  .^.OXuXbXMXDXnXnXgXdXbXmXuX|.T.K n D A D.Q.y.h.t.8.m.=.=.-.-.=.=.*.-.N.e...S - ",
"3.,.,.| K K [ [ H 1.F.G.1.| | ] D A z x B V H /. X .D 1.H C C 7 9 q s t 5 - % $ , m G.K.U.l.g.h.y.q.n.=.=.=.C.C.N.N.vXvXe.6.K.U.",
"G.J.P.J.[ K ] | 1.] ] ,.4.4.1.J G A x G D C 1.1X<X<XOXE.] C p - $ $ # # # , A F.^.~.~.U.$Xx.c.f.%XtXlXB.;.;.V.vXcXvXe.[..X7X(.{.",
"K.I.I.U.,.K ] | ] | | [ [ [ ,.1.1.J D D C S P.:X:X1X X_._.|..X.X}.T.D.S.J.~.`.[.).].).l.c.c.z.z.%X,XwXcXV.V.V.0X[.3.q 4 0 0 5 0 ",
"G.I.I.I...J ] ,.1. .,.,.[ ,.,...,.>.,.....A.<X X:X:X'. X`.|.!.^.).|.<X X X_.(.].].W.$Xc.h.b.b.y...4.U.R.[.aXzXzXrXqXoX~.3.| A f "
};
