/* XPM */
static char *waka46_jpg[] = {
/* columns rows colors chars-per-pixel */
"64 64 253 2 ",
"   c #010202",
".  c #05050A",
"X  c #09090B",
"o  c #08060A",
"O  c #0B0C12",
"+  c #181719",
"@  c #14110F",
"#  c #32231D",
"$  c #362725",
"%  c #3A352C",
"&  c #393733",
"*  c #232325",
"=  c #1E2422",
"-  c #442D23",
";  c #473229",
":  c #433D36",
">  c #453B38",
",  c #593D33",
"<  c #412B1D",
"1  c #3B4138",
"2  c #48423C",
"3  c #59473B",
"4  c #52412F",
"5  c #6A463A",
"6  c #764C3C",
"7  c #4B4643",
"8  c #4D4A45",
"9  c #484745",
"0  c #524D4A",
"q  c #544B44",
"w  c #5B544B",
"e  c #5C594F",
"r  c #56554A",
"t  c #5C5551",
"y  c #5D5B52",
"u  c #595A56",
"i  c #4F5A4A",
"p  c #644C43",
"a  c #644D48",
"s  c #764A44",
"d  c #66564B",
"f  c #76554B",
"g  c #635D55",
"h  c #635E59",
"j  c #675A54",
"k  c #755C53",
"l  c #5C6254",
"z  c #5C614E",
"x  c #636156",
"c  c #65625B",
"v  c #6A645C",
"b  c #6C695E",
"n  c #6B6356",
"m  c #736559",
"M  c #776659",
"N  c #726750",
"B  c #6D5F65",
"V  c #6B6661",
"C  c #6D6A63",
"Z  c #696964",
"A  c #726C65",
"S  c #736E68",
"D  c #7B6E65",
"F  c #757166",
"G  c #75726B",
"H  c #7A756D",
"J  c #7D796E",
"K  c #797467",
"L  c #7C7771",
"P  c #7E7973",
"I  c #757874",
"U  c #6E7166",
"Y  c #8F3836",
"T  c #B83238",
"R  c #C32E3A",
"E  c #BC3F43",
"W  c #835749",
"Q  c #8C4E4D",
"!  c #89655D",
"~  c #976A57",
"^  c #9A6F55",
"/  c #A56C59",
"(  c #A87559",
")  c #B6785A",
"_  c #AB6953",
"`  c #8A6865",
"'  c #926B67",
"]  c #837A6D",
"[  c #877668",
"{  c #967966",
"}  c #827C74",
"|  c #8B7D74",
" . c #847E79",
".. c #857772",
"X. c #A87A64",
"o. c #B67B65",
"O. c #A06F60",
"+. c #B14749",
"@. c #C47F65",
"#. c #BDC82A",
"$. c #C8D704",
"%. c #CDD30F",
"&. c #CDD330",
"*. c #DBE014",
"=. c #BD835D",
"-. c #B7815A",
";. c #AF9C4E",
":. c #848175",
">. c #8B8274",
",. c #86817A",
"<. c #8B847A",
"1. c #8D897D",
"2. c #938A7D",
"3. c #968778",
"4. c #9B947C",
"5. c #94876C",
"6. c #A6826B",
"7. c #B98569",
"8. c #AA8874",
"9. c #B58A74",
"0. c #B99279",
"q. c #A1917A",
"w. c #B9B44E",
"e. c #C3835C",
"r. c #C98A5C",
"t. c #D58E58",
"y. c #C48463",
"u. c #CB8D63",
"i. c #C38C6D",
"p. c #CB8C6A",
"a. c #C68766",
"s. c #D28C64",
"d. c #CD9268",
"f. c #D3946C",
"g. c #D8976A",
"h. c #C58C71",
"j. c #C89576",
"k. c #D49573",
"l. c #D39A7B",
"z. c #D79876",
"x. c #D38C70",
"c. c #E79977",
"v. c #E49768",
"b. c #DFA475",
"n. c #B1C06F",
"m. c #CED44A",
"M. c #CACC76",
"N. c #E1D946",
"B. c #8D8581",
"V. c #8D8A82",
"C. c #828783",
"Z. c #938C83",
"A. c #968D84",
"S. c #9A9385",
"D. c #95928A",
"F. c #9B958B",
"G. c #9E988C",
"H. c #999687",
"J. c #9E9A92",
"K. c #9E9895",
"L. c #A39A8C",
"P. c #AB9C8E",
"I. c #A49688",
"U. c #B79A87",
"Y. c #A39C92",
"T. c #AA9E93",
"R. c #A59B9A",
"E. c #B29E93",
"W. c #A9A18D",
"Q. c #A5A195",
"!. c #ABA296",
"~. c #A6A399",
"^. c #ACA59A",
"/. c #ADA99D",
"(. c #B2A495",
"). c #B2A59B",
"_. c #B4AA9C",
"`. c #BAAC9D",
"'. c #BAA694",
"]. c #BAB29C",
"[. c #B3AA94",
"{. c #AAA8A4",
"}. c #B4ADA3",
"|. c #BAAEA2",
" X c #B1A6A2",
".X c #BCB3A4",
"XX c #BCB5AA",
"oX c #B7B4A9",
"OX c #B6B6B0",
"+X c #98A089",
"@X c #C69B85",
"#X c #D69B81",
"$X c #C6A68D",
"%X c #D5A68A",
"&X c #C5AA99",
"*X c #CAB293",
"=X c #D5B49C",
"-X c #D0AF92",
";X c #C1AEA3",
":X c #C3B4A4",
">X c #C3B5AA",
",X c #C4BAAC",
"<X c #CBBCAC",
"1X c #C8B8A6",
"2X c #D3BCA7",
"3X c #C4BCB1",
"4X c #CCBEB2",
"5X c #C9BAB5",
"6X c #D2BEB2",
"7X c #BBC696",
"8X c #DFD692",
"9X c #D5CE8E",
"0X c #E5DD93",
"qX c #CDC2AD",
"wX c #C9C6A8",
"eX c #D3C3AD",
"rX c #D6C9AD",
"tX c #D9C6AA",
"yX c #CDC2B4",
"uX c #CCC4B9",
"iX c #C7C3B7",
"pX c #D3C3B4",
"aX c #D5CAB4",
"sX c #DBCCB4",
"dX c #D4C6BA",
"fX c #D9C5BA",
"gX c #D5CABC",
"hX c #D9CABB",
"jX c #DAC4B3",
"kX c #DDD2BB",
"lX c #DDD0B6",
"zX c #DBD4AC",
"xX c #E1D3BC",
"cX c #E2CAB9",
"vX c #CAC7C3",
"bX c #D4CCC3",
"nX c #DACDC2",
"mX c #D1CBC8",
"MX c #DBD2C4",
"NX c #D9D4C9",
"BX c #D9DAD4",
"VX c #E2D5C1",
"CX c #E4DBCC",
"ZX c #E6DAC8",
"AX c #E3DED3",
"SX c #E4E1D5",
"DX c #E5E3DA",
"FX c #EAE3D8",
"GX c #E6E3C4",
"HX c #EAEAE5",
"JX c #EBECEB",
"KX c #E7E7E3",
"LX c #EEF0EF",
/* pixels */
"Z.P ]  .,.<.D.D.J.~._.1X<X<XpX6X_.L.S.<.<.<.Z.S.F.Z.>.} D y y F ,.P P P  .P  .P  .}  .} P P L P L P  ...] S.,XJ m ` x b C v v x ",
"H G F G G H J ..} <.A.!.<XpXpXpX^.S.:.H  .2.G.L.L.!._.^.).~.G.A.<.P  .P P P  . . .} } } P P P P ..P  . .] G.iXJ n ` x v Z c x g ",
"J.F.Z.<.<.:.H H D K J <.G.<.2.F.D.B.<.D.D.F.Y.R.[.(.(.!.P.P.I.A.V.P  .P P P P P  .P  .P P P P P P P } } :.G.3XJ n ' n v c h x g ",
"J.^.}.}.}.|..X,X.X/.:.V r q 8 w V C Z Z b  .D.F.T.L.I.P.I.P.L.A.V. . .P P P P ,.P .. . .P  .P P L L P ..} F.,XJ n ' c c c c x h ",
"!.[..X3X,XyXdXgXR.S 9 0 0 u u t c c V S Z F K } >.2.S.F.L.T.L...B. . .P P  . .C.} .. .P P P L L P P P P } G.XX} v ' m c c c c c ",
"].}..X3X4XdXT.c 7 9 r t u h C V v v G ,.:.P ,.Z.D.F.G.P.Q._.~.| V.V.P P P P P  . . . .P L P G L P L P ..} G.,X} M ' n v c c c l ",
"_..XiX3XJ.V 8 9 t 0 h A D A H H H ,.D.V.V.D.G.G.~./.)..X1X,X,X!.D.D.P  .P L  . . .P  .P P P L L L L P } J S.,X] M ' b v c h c h ",
"OXoXD.c 9 2 0 u h C b [ | I.|.3XY.Z.Z.D.Q.Q.}.XXoX3X,XyXqX<XyX:XD.K.P  .P L ,. .P .. .P L L H L G H L P ] S.3X} M ' v v c h c h ",
"~.P > & 2 8 x n M ..2.(.uXCXAXNXQ.F.J./.oX,XiXuXpXrXpXaXhXaXkX1XF.R.} } } } P } P P } } L L G L L L P ..P F.XXP M ' x v b h c h ",
"9 2 2 9 w g A :.L..XnXSXAXbXoXY.L.R.oXiXuXuXgXnXNXNXBXSXSXAXSXuXY.~.} P P } P } } } P ..P L L L L L P } } F.>X} M ' c v c h y g ",
"> > 0 0 8 C !.iXSXAXNX3X!.F.F.R.oX3XuXmXNXNXAXFXKXHXHXHXHXHXKXmX{.}.,.P P I I P ..P } P L L L L P L P } :.S.XXP ! ' x m c c x y ",
"9 8 2 9 8 P uXNXyX_.F.Z.A.Y.^.XXXXuXbXAXKXJXJXHXJXJXJXJXJXJXLXBX}.}.,.P P P P :.P  . .P L L H L P G P } } F.>XH M ` x v b c x x ",
"& 9 9 9 8 x } >.>. .<.S.L./.XXgXbXDXHXJXJXJXKXLXHXJXJXJXJXJXHXmX~.{.:.L P :.:.:.P  .P L L L L G J H } } } F.,XH k ` x n c c b h ",
"0 8 7 9 0 t g A  .<.F.Q.}..XiXbXKXHXKXJXJXLXJXKXKXHXKXKXDXDXFXmXJ.~.P P P P  . .P P L L I L H I J I P } ] F.3XH k ! y h h h h h ",
"t 0 t t t c A ,.Z.Y.^..XXX,XMXGXAXDXDXKXDXKXDXDXAXAXAXBXSXDXFXNXY.~.P P P P P P P P P L G L G G L G P  .J F.5XH M ` g g h h y g ",
"v V Z G P B.J.Y. X}.}.XXuXgXhXyX}.Z.P 1.{.mXSXAXAXAXAXDXDXSXSXuXJ.~.P P P  .P P P P L L G L G G L S L  .J Z.3X[ k ` z g c c x x ",
"h A  .D.G.Q./.}..X1X6X<XqXmXF.n q > > ; 2 Z uXAXSXSXSXFXCXSXCXiXJ.~.P L P P P P P L L G G G G G G K P P J D.XXL M ! g c v j g y ",
"} F.R. X X}..X>XiXqXdXpXpX<.w 5 W ` ~ 6 f 5 { AXDXDXBXDXSXDXDXbXQ./.} L L L L L L L H G G G H G F F K J J D.OXK M ` g y j y g x ",
"Y.}.}.).XX<X3XdXyXaXnXMX<Xd p 8.x.l.h.e.i.X.{ 5XJXHXKXHXKXHXHXBX^./.P I L L L ..L L H G G G G G K G H P J D.XXK k ! h x g y g g ",
"`.^.A. .:XyXdXgXMXZXAXFX].p ! j.v.k.z.x.p.y.( (.HXKXKXHXHXKXHXBXQ./.P L L ..P P G G I G G G G G L H H P J H.oXF f ! j x g y g h ",
"n g e g 3XMXZXCXZXCXSXFX.Xd ! 0.c.7.o.a.p._ ( P.SXDXSXDXFXDXDXNXJ./.J H L P P P L G I G I G S G G G G J K V.}.F k ! j y t y x h ",
"i 8 t e iXkXkXkXMXMXCXNX<Xn ~ j.j.X.X.p.h._ ( '.CXCXNXGXCXCXCXgXJ./.J I P P L H G L G H G G S S F S F K G Z.}.b M ! j x y t g y ",
"y c c e }.aXkXkXsXsXxXxXtX! ! j.7.( ) p.7._ ( 8.lXVXxXxXVXMXVXpXG.~.K G L L H I G G G I G S S S G F G J J V.}.A x ! j n g y h y ",
"2 0 e q _.aXaXeXrXrXsXtXtX8.o.l.z.a.@.s.l.7.) 7.aXxXkXxXVXVXxXaXY.Y.H F G G S F G G G H L G G G G G G I J Z.}.D x k d j g e x c ",
"u t t 0 _.hXaXaXwXsXsXsX-Xu.y.j.#Xj.h.@.) / o.@.>XVXxXxXxXxXxXsXF.Y.K S G G G J L S G G G S G G G G G J G V.}.D y x f M e t g x ",
"V c Z h ].aXkXkXkXsXsXgX2Xk.) X.z.x.o.@./ ~ ~ o.(.kXsXsXsXxXlXeXL.R.H G G L G H L S S G G S G G G G G H G Z.}.A y j d k g t j l ",
"F Z G v .XaXkXkXkXrXaXpXjX%XX.f / @._ _ 9.o.~ ~ q.sXsXsXsXrXsXrXS.!.J G G J G G H G S S S S S G G F G K F Z._.C h k l d y t h h ",
"U b H F .XkXxXlXkXlXsXuXsXtX$Xa 5 O.@.) ) / / s 3.hXsXsXlXrXkXrXL.Q.J G F G G F G G G S S C S C G F G G F D./.b h g d s d w u j ",
"F I V.1.].kXlXkXsXsXrXaXaXlXtXk > s o.a.) _ O., [ hXsXrXlXsXxXrXL.!.} G F G G U S S S S S C S S F S S F F Z./.v w p Q Y Q Q e z ",
":.J.OXOXuXVXaXaXsXrXrXaXrXrXsX| > ; 6 ) _ / W - d 1XhXeXrXaXxXeXL.~.J G G G G F S S S S S S S S G S S S A Z./.c f s 6 Y R +.W z ",
":.D.~.D.[.qXwXqXpXwXrXrXpXqXeXP., - < , 5 5 - # 3 `.pXpXqXqXaXqXL.Y.H G G G G S S S S C S S S S S S S C A 1./.x s 5 6 Y R T Q f ",
"l C U c H.1X:X.XXX&X1X1X<X:X&X(.~ > % % $ # $ ; n ).:X1XqXqXqX,XG.L.I G G G S S S S S S S A S S C C S A C V.^.c 5 3 6 6 T R Q s ",
"K J :.C G.}._.'.`.|.:X:X:XXX*X7.p.) W 5 ; - 5 W { !.G.R.;X.X:X:XL.G.K F G G S S S S S S A C A C C C S S b 1.^.c p s Y Y Y Y s d ",
"H.G.2.b 1.^.`.`.[._._.:X.X}.1X0.h.p.) ^ f W { ) ' _./.}.|.:X:X.X].!.H A G I C S A S S C A C C C Z C C C b 2./.c w a p s s p d e ",
"L.+XZ.F Z._.^.(.^._._.:X.XOXvXpXj.0.a.7.) ) ) ) 8.'.|.XX:X>X,X3X3X|.<.A G G C G A S S A C A C C C C Z C b <.^.v g y w d d e e g ",
"L.4.J C 1./.!.).^.^.}.>X3X{.vXmXtX$X7.a.e.=.e.e.h.@X'.1X,X<X,X4XyX,X).P G G G C S S S S A C C C C Z C S A ,.^.C e d d d d a g y ",
"<...j g ] ^.(._./.^..XdXbXOX{.mXVXjX-Xj.a.i.k.k.p.j.$X<X<X<X<X4X4X4X5XF.H D G S A C A C A C V C V V C A m <./.y 8 2 > > > > : & ",
"A K M M | (.!.R.(.XX5XhXgXiXR.vXbXnXjX2X%X%Xl.k.f.j.U.2XqX<X2X6X6XpXyXXX .A S S A C C C V V v V c V A c b V.R.& . X o . X @ + + ",
"t A M M ` P.!./.|.dXnXfXpXbX{.|.nXpXdX<X=X-Xl.z.j.h.0.:XiX>X<XpXpX<X4XuXY.H Z S C C C A V V c C C c C c c <.J.+ . o         . . ",
"D.L.2.{ 3.E. X}.fXnXnX6XfXbXuXyXpXpXuXpX6X=Xl.g.i.#X$XpXiX,X6XuXhX<X4X4X>X} H C C C C C C v V C C h V C v } D.@                 ",
"yX<X2X3.3.).).hXnXnXgXgXgXdX4X4XpXgXpX6XjX=Xl.d.k.U.1X6XpXdXdX<XpX3XyXtXpX~.S v U C A C Z V V h C V c V v } <.X                 ",
"}.].[.2.1.E.XXhXnXnXnXgXdXdXpX6XpXgXdX6XpX-Xl.k.p.8.;X2XpX6XdXpXyX6X<X<XgX{.H C C C C b Z V h b V h V c b P P .                 ",
"J <.<.J S V.}.nXnXhXgXhXdXpXpX6XpXdXdXpX2X=Xl.k.i.0.1X<X6XgX4XpXpXpX5XvX}.W.5.M U C C C b b V c h c c c c H G .         .       ",
"b >.A.:.G V. XnXnXhXgXfXhXpXpXpXpXdXdXpX2X%Xz.z.h.$X4XqX6XfXdX6XpX<XOX}.U.i.j.{ Z C Z V C v c V c h c c x J V           X X .   ",
"^.`.^.D Z :.Y.nXhXhXgXhXhXfXpX6XpXdXfXpX=X%Xk.g.9.&X4X4X6X6XhX<XpX<X4.5.j.s.g.9.D S C Z c v c V c c c g c ..u         X @ + + X ",
"/.}.!.c Z } Z.gXMXnXnXhXfXhXpXpXpXfXhX2X%Xz.k.p.9.&XoXpX6X<X6X4X4X&X~ ) d.t.u.j.{ D v Z b v c c c h x g j ] 8         X + * * + ",
"/./.Y.C V L } yXMXnXnXnXhXhXfXdXpXhXsX2X#Xz.f.y.0.:XXX4XpX<X4X4X<X&X~ ) e.p.d.d.7.{ n c v v c V c h h g n ..>         . + + + + ",
"H J D t c P P .XnXhXnXnXnXnXhXfXyXfXfX2Xz.g.f.e.0.<XXX<X6XpX4X<X1X>X{ ^ o.a.a.t.j.X.b c c c x v c h g h n H &           .   . X ",
"e e e e t G L K.bXbXNXnXNXbXnXcXuX,X2X%Xv.g.u.a.'.1X:X4X6X6XfX4X<X<X| ` ( r.-.p.f.7.{ c V n v h c c y k f ! ;         X . X O + ",
"J x c x c L L  .pXnXbXNXNXvXiX_.U.U.$Xl.g.f.e.7.$X1X<X4X6X6XfXpXuX4X2.D ~ ( e.r.u.u.{ v Z n g c j c j f a k & . X . . . X O . X ",
"Z.:.J C A L A H (.NXBXuX,X.X&X#Xh.0.j.k.x.u.=.7.&X2X5X4X6XdXdXdXhXyX!.G M ( e.i.u.d.6.v c h x h h t d Q i b & O . . O . .     X ",
"} :.C : : g h x I iXvX`.$X#Xc.g.f.f.k.k.g.s.=.7.&X<X5X4X6XpXhXdXhXpX,XP n { @.d.g.r.7.M u V H b x j p Q i i =   O . . .   X @ @ ",
"c r 8 8 2 g c v V D.(.l.c.b.v.v.g.g.g.f.s.y.7.7.:X<X4X4XpXfXhXbXeXhXdXY.F [ @.r.f.r.p.` c u  .G u y p f w 0 1 * % 2 8 x K >.G.W.",
"e e 8 2 : g c h V m 5.l.c.v.v.b.g.g.g.r.e.e.o.9.<XpX6X4XpXhXfXhXjXpXpX1X] k 7.r.p.r.f.{ Z u L P h h M ..a A G.P.W.!._.:X1X.X.X_.",
"q r 7 2 8 h c v S l F i.c.b.g.f.f.g.u.e.=.) o.0.:X4XdXpXpXaXdXgXdXpXpXpXP.V 6.s.u.u.r.X.Z I 4.H.c e > s q K }.!.Q.H.!.W.W.P.H.2.",
"G g 0 0 0 h C v B I A X.f.g.g.s.u.s.e.=.=.) X.I.`.<XdXdXhXhXdXgXgXgXgXpX<X,.N e.p.u.r.7.Z ~.qX].A.2.N ! i C F.<.K H T.2.} <.D.oX",
":.J J J A ] <.K C G C [ 8.p.u.r.u.e.=.) ) o.X.I.L.).>XhXdXpXsXfXpXhXfX6XnXY.k { a.s.r.7.] (.XX*XoXGXwX*X'. XK.F.S.W.1XW.:.K I 1.",
"} D J } K :.3.} S G S D ' -.=.r.=.e.=.) ( 8.P.!.|.:X>X1X<XhXhXpXsXdXhXnX;XH [ 8.-.r.d.@X|.1X7X*XsX8XN.m.m.M.M.#.m.m.tX>.F 3 i % ",
"H K J K D H } ] } <.| ] K [ ^ ) s.e.) ( X.0.}.3X:X<XpXpX6XpXfXhXhXMXhXT.j A I.&X7.a.a.j.eX9Xn.w.;.;.%.%.$.%.$.$.$.$.&.w.{ ..t : ",
"3.<.>.] D H } } J | A.2.:.J ' X.) y.) ( 8.'.|.>XpX6XfXdXgXhXgXhXbX.X[ j <.F.P.P.) r.s.j.wXzX7XM.U.*X&.$.%.%.&.%.$.%.m.;.N ] )._.",
"G.L.S.>.J J } >.,.[ [ } 2.<.>.{ X.( ~ 6.[.1X4X6X6XhXnXuX4X.XL.<.g g >.S.I.Y.P.I.{ a.d.l.U.].,XhXMXsX8XN.*.*.0X0XM.M.aX).,.3.W.+X",
"S.W.L.>.K J | }  .:.:.} ] | | :.| k a D | P <.Z.j h v w 2 : % > A L.P.[.F.T.).L.[ y.k.f.{ b :.J./.oXuXzX0X9XZXZXbXvXK.L.R.}.F 2 ",
"I.I.L.2.[ ] >.,.>.>.,.>.| | >.:.A.}.R.F.L.,.] 1.A A ] ..1.A.A.~.!.!.`.P.T.P.T.S.5.e.g.v.6.r u u V B.4.4. X.XpXhXNXkX3X,X`.`.R.Y.",
"I.I.W.4.>.} 3.>.3.3.B.<.>.>.>.| E.|.oX:X;X`.[.H.P.G.P.L.!.`.!._.^.P.T.P.L.'.E.!.2.i.g.c.9.d w 3 w N | L. .5.4.Y.(.].aXrXMXhXrX[."
};
