/* XPM */
static char *waka36_jpg[] = {
/* columns rows colors chars-per-pixel */
"64 64 256 2 ",
"   c #010202",
".  c #0A0B0C",
"X  c #070709",
"o  c #0C0C12",
"O  c #141414",
"+  c #1B1A1A",
"@  c #10120F",
"#  c #32251B",
"$  c #282624",
"%  c #392B24",
"&  c #39342C",
"*  c #3E3A35",
"=  c #3A3A34",
"-  c #312F32",
";  c #46382C",
":  c #453C36",
">  c #51362B",
",  c #43281F",
"<  c #3D473E",
"1  c #45433D",
"2  c #4A453E",
"3  c #58483A",
"4  c #75483B",
"5  c #6B4D38",
"6  c #4A4442",
"7  c #4D4944",
"8  c #484645",
"9  c #524E4A",
"0  c #584B44",
"q  c #55524C",
"w  c #5B554D",
"e  c #5B594E",
"r  c #575547",
"t  c #5B5652",
"y  c #5D5B53",
"u  c #595854",
"i  c #4B524B",
"p  c #684843",
"a  c #764944",
"s  c #675449",
"d  c #755448",
"f  c #635D54",
"g  c #695E54",
"h  c #635D59",
"j  c #695E5B",
"k  c #655752",
"l  c #775953",
"z  c #5D6154",
"x  c #5C625E",
"c  c #646256",
"v  c #696255",
"b  c #65625B",
"n  c #6B635C",
"m  c #6C695E",
"M  c #73655A",
"N  c #7A6459",
"B  c #746A5F",
"V  c #7A6759",
"C  c #70725C",
"Z  c #656463",
"A  c #6A6661",
"S  c #6D6A63",
"D  c #6B6C68",
"F  c #736D65",
"G  c #736E68",
"H  c #7A6A63",
"J  c #757166",
"K  c #797266",
"L  c #75726A",
"P  c #7A746C",
"I  c #7D796E",
"U  c #747C6F",
"Y  c #7C7771",
"T  c #7E7972",
"R  c #797975",
"E  c #716D6A",
"W  c #635F60",
"Q  c #933736",
"!  c #863F3D",
"~  c #B23235",
"^  c #BF3640",
"/  c #835C59",
"(  c #8A4F4A",
")  c #88675A",
"_  c #956A56",
"`  c #996A55",
"'  c #9C725B",
"]  c #9E644C",
"[  c #A56C56",
"{  c #A87459",
"}  c #B77A5A",
"|  c #AA6B54",
" . c #8A6762",
".. c #827A6E",
"X. c #87776A",
"o. c #997764",
"O. c #827C74",
"+. c #837E79",
"@. c #867A74",
"#. c #977469",
"$. c #A67965",
"%. c #B87C65",
"&. c #AA4C4A",
"*. c #C47E64",
"=. c #BDCA30",
"-. c #BACA0F",
";. c #C7D803",
":. c #CFD310",
">. c #CCCE2D",
",. c #E2DD21",
"<. c #BB825E",
"1. c #A5914E",
"2. c #AEAD5B",
"3. c #88836D",
"4. c #858175",
"5. c #898175",
"6. c #85827A",
"7. c #8B847B",
"8. c #8C8A7D",
"9. c #91867B",
"0. c #928A7D",
"q. c #988777",
"w. c #978B75",
"e. c #BA8668",
"r. c #A78977",
"t. c #BB8C76",
"y. c #AC8F6F",
"u. c #B6AB75",
"i. c #CA8A5E",
"p. c #C6865B",
"a. c #C38464",
"s. c #CB8C63",
"d. c #C38569",
"f. c #CB8D6B",
"g. c #C58A69",
"h. c #D48C69",
"j. c #CB9269",
"k. c #D6946A",
"l. c #C88C73",
"z. c #D28D72",
"x. c #CC9472",
"c. c #C89674",
"v. c #D49373",
"b. c #D59B7B",
"n. c #DA9975",
"m. c #E49A77",
"M. c #E29464",
"N. c #D7A17C",
"B. c #C8BE43",
"V. c #BDCE41",
"C. c #CCD648",
"Z. c #D7D569",
"A. c #D7D274",
"S. c #DFDD5E",
"D. c #8D8A81",
"F. c #8B8782",
"G. c #938C83",
"H. c #978E87",
"J. c #959185",
"K. c #9C9285",
"L. c #96938A",
"P. c #9C948A",
"I. c #9D998A",
"U. c #9D9994",
"Y. c #A2968A",
"T. c #A49A8D",
"R. c #AA9D8C",
"E. c #A79785",
"W. c #B89785",
"Q. c #A49C93",
"!. c #AB9D93",
"~. c #A39E98",
"^. c #AD978D",
"/. c #A7A18E",
"(. c #ACA395",
"). c #ACA49A",
"_. c #ADA99D",
"`. c #A6A398",
"'. c #B2A396",
"]. c #B1A69A",
"[. c #B3A99D",
"{. c #BAAC9E",
"}. c #B8A694",
"|. c #BAB39B",
" X c #B9AE8A",
".X c #AEABA2",
"XX c #B4ADA2",
"oX c #BBADA2",
"OX c #B6A3A1",
"+X c #B5B0A5",
"@X c #BBB1A4",
"#X c #BCB4AB",
"$X c #BEB9AD",
"%X c #B6B3AA",
"&X c #BAB7B1",
"*X c #C99B83",
"=X c #D69C83",
"-X c #CBA588",
";X c #D5A589",
":X c #C6AA97",
">X c #C8B49D",
",X c #D3B096",
"<X c #C2B4A5",
"1X c #C4B5AA",
"2X c #C3BAAC",
"3X c #CBBCAC",
"4X c #CAB7A6",
"5X c #D4BAA9",
"6X c #C4BCB2",
"7X c #CBBEB2",
"8X c #CDB6B0",
"9X c #D1BDB2",
"0X c #D9BEB1",
"qX c #C1AEA8",
"wX c #BDC59F",
"eX c #D6D193",
"rX c #CBC3AC",
"tX c #D3C5AD",
"yX c #D7C8AD",
"uX c #C6C2B5",
"iX c #CEC2B4",
"pX c #CEC4BA",
"aX c #CBCABA",
"sX c #D2C4B5",
"dX c #D5CAB2",
"fX c #DACCB4",
"gX c #D4C5BA",
"hX c #D9C6B9",
"jX c #D5CABB",
"kX c #DACBBB",
"lX c #DAC3B5",
"zX c #DDD1BB",
"xX c #D9D3B6",
"cX c #D1D4A7",
"vX c #E1D3BD",
"bX c #E1DDBA",
"nX c #E3C6B5",
"mX c #EAE296",
"MX c #D5CCC2",
"NX c #D9CCC5",
"BX c #DCD3C3",
"VX c #DBD7C9",
"CX c #D5D1CE",
"ZX c #E3D4C2",
"AX c #E2DBCC",
"SX c #E4D7C7",
"DX c #E4DDD1",
"FX c #E5DBD7",
"GX c #E4CFCA",
"HX c #E5E1D5",
"JX c #E3E3DA",
"KX c #EBE5DA",
"LX c #F2E5DF",
"PX c #EAEAE6",
"IX c #F1EBE8",
"UX c #EEF0E3",
/* pixels */
"+X+X.XU.7.5.G.P.!.[.2XiXtX3X3X4X{.R.K.7.F.R L D n b h 8 1 8 8 9 G G G Y T T T T O.Y O.O.T Y Y T P Y O.+.O.5.pXP.n ) M v m n n b ",
"`.L.F.R 6.D.G.D.Q.Q.[.#X2X3X3X0X3X(.Q.G.6.6.7.8.G.5.O.K S h 9 u +.O.G Y T O.T T O.O.O.T Y I Y Y T T O.+.O.4.6XG.b ) M c n Z n b ",
"+.L D L L G P T T 6.D.Q.@X7XtXlX<XK.9.4...7.0.K.P.T.!.(.(.(.Y.K.F.+.T T T T T +.+.@.O.O.T Y Y Y Y Y O.+.O.5.6XJ.b  .n n n b b c ",
"D.J.J.D.4.O...L J P P O.H.Y.P.K.!.H.9.7.O.J.Y.`.'.}.{.(.R.R.Y.0.F.+.O.T +.T Y +.+.T T T O.T T Y T T O.+.O.4.2XG.n ) M v n b b h ",
"T.T.).[._.[.oX@XoXOXH.P h 9 8 t t F A A S I 8.L.T.T.T.R.E.Y.Y.Y.F.+.T Y +.+.Y Y +.O.T +.@.Y P Y Y Y T O.O.O.$XG.c  .M v j Z n h ",
"(.`.}.#X2XrXpXMXiXP.h 6 9 q u u t Z h A L Z E T @.5.0.P.T.R.Y.q.6.+.T Y Y T T T O.+.+.T Y ..P H P P Y T O.5.6XK.v ) B v n b b b ",
"XX+X@X#XuXpX#XP.t 9 8 t u k y h j n h P 6.Y T D.G.P.P.P.T.).].H.6.F.+.T Y Y T +.+.T T T Y Y P P T T I I O.+.2XH.B  .H m n b n c ",
"+X.X%XuX%XG.b 2 8 9 W W A G P P F P D.D.G.D.L.P.U.`._.+X@X#X2X@XH.H.F.+.T T +.T O.+.Y Y ..P P P L P I P O.+.2XL.B X.H n j b n b ",
"@X$X%XG.t : 1 q u W n H X.8.R.@XXXJ.H.G.U.`.).+X%X$X6X3XtX4X3X3XU.U.@.@.P T O.O.O.T T T Y P P P G P Y T I 4.$XL.n _ n A n j y Z ",
"XX`.h * * 8 h y j K @.H.[.iXAXKXuXJ.L.U.+X%X6XrX2XaXrXrXfXfXxXxXQ.Q.F.T O.Y Y +.O.T T T Y P P P P P I P I O.$XJ.n _ M A M j c j ",
"2 7 6 : 7 q n K 7.`.6XBXKXHXrX_.~.L.XX$XuXuXjXaXjXAXBXDXAXAXAXVX~..XH.@.O.I P T T T T T Y P P P P P Y T T 4.$XL.n _ S n b j h h ",
"& * 6 8 y t P oXjXDXHXBX|.T.I.I.U.$X&XgXMXNXVXJXIXAX7X%X@XCXPXUX+X%XH.T Y I T R +.T T T ..P P P P P T T I 4.$XJ.j ` N A v n c j ",
"= 1 8 8 : 9 ).VXNX6XQ.H.0.H.Q.XX$XMXpXVXJXPXPXPX6XJ 3 : = 1 I _.~.&X6.T O.Y T T +.T T +.Y P ..P P P Y Y O.O.$XJ.j _ m n n A c j ",
"* 8 1 1 8 9 G 7.5.O.O.D.Q.Q._.$XuXMXPXPXIXPXPX%Xb ; ; ; ; % & % l XX8.T O.T T T +.T T T Y P P P L P Y T O.+.$XK.h _ n j v j c j ",
"9 8 8 8 9 u w n P +.D.Q.)._.2XjXDXJXIXPXPXIXVXB 2 l { { _ d a d 3 R.G.R T +.Y R +.T T T L L Y L P P Y T O.O.6XK.h _ n n n h c b ",
"7 u 9 u u y S T F.L.`.`.+X2XsXBXJXJXJXJXPXPXiXs d t.j.k.j.d.d.a. .0.8.R T O.@.Y T Y Y Y P L P ..L L P Y Y O.2XK.h / g Z h b y b ",
"W Z b L J 4.G.Q.~.`.XX@X6XiXdXjXkXBXVXAXAXHX2Xg B l.k.v.v.s.h.l.%.q.D.Y @.T R T T T T I L L U L Y G L T T @.2XP.v ) g g b c y b ",
"h b P 9.P.Q.~.`.@X@X1X7XiXiXsXsXjXjXBXSXAXVXpXl  .e.x.g.%.h.z.[ $.E.8.R Y P O.Y R P I L J J J L P L Y T T O.$X0.l  .g j b c y h ",
"F +.Q.~._.].oX1X2X2XiXiXsXiXjXjXBXBXVXFXFXDXgX .) l.l.[ [ d.%._ _ E.F.R P L Y I T P I I L L L L J L Y L L O.1XD.g  .g g c f f f ",
"!.).oX].oX6X6X7XiXiXdXjXkXVXAXDXJXKXPXPXPXUX3Xl.y.l.l.%.[ d.d.[ [ W.L.P L ..K Y P L L P J L L L J J P L P @.&XG.g ) g k z h h f ",
"+X_.Q.8.L.2XgXjXVXSXAXDXHXKXKXPXPXPXUXUXPXPX>Xl.e.b.z.d.l.b.z.*.%.W.0.K P ..P +.P L L P L L L J J J P P T O.@XG.k  .v k y h c y ",
"O.n r 9 O.VXAXSXSXAXAXHXFXJXJXJXFXJXJXJXJXJXnXg.$.c.n.z.l.%.*.*.z.W.9.P P P R Y P L L P L L L L J F J L I I XXD.g  .c f y e f e ",
"q q q u ..kXzXfXfXzXzXvXZXBXzXBXSXVXAXAXFXDXvX;X_ $.d.%.} | ] ] %.q.5.L I K I P P P L U L L U G J F G G L P [.8.f / g g e e e e ",
"t f A h P sXdXfXfXfXfXfXxXzXvXzXzXxXvXvXGXAXzXfX#.5 ' %.| %.*X[ ` V 6.L I P H P J J J L J G G F G G G L T I [.8.f / g c c f e k ",
"6 1 9 u F sXdXdXdXtXcXfXdXfXfXvXfXBXZXZXZXzXZXzX^.3 5 { l.%.%.| / d +.G P P G P J F L U J J L G L L G P P I XX0.h v d ) k y h e ",
"A u 9 9 n iXsXtXdXyXdXdXdXsXdXfXzXzXzXzXfXxXZXzXXX7 ; 4 e.} | { > 0 T U S K I P I P F S J L L J L G L Y P I XX8.j c c N y k h y ",
"Y b b b K dXfXfXfXdXdXdXdXdXfXfXfXxXzXzXzXvXzXxXqXk & ; 5 ` { 4 , : U R J F K I L L G G L J S S J G G P P I [.8.j y k g l y w y ",
"T S D G @.sXxXvXzXfXtXdXfXfXdXyXdXfXdXfXfXzXfXdXt.' > % % ; , # # s D.P J I J G L L L J G S J K D G L L J P _.4.k y z s k f q f ",
"L m D U 8.sXzXzXvXfXyXyXyXyXyXtXdXdXxXfXdXzXrXsX-Xt.%.d : % # > > V %XG.P F G G F J P L S G P F G F G L J P _.4.t g c p p r e y ",
"J L 6.D.J.sXfXvXfXfXfXdXtXtXdXfXzXvXZXZXzXzX$X$XjX:Xg.<.' 4 5 ) ' ) qXOXQ.P.L.T K F G L G F F F F G G L J P `.3.e k d 4 Q ( d e ",
"I D.+X$X@XzXdXrXtXtXdXdXtXtXdXfXzXzXzXdXiXiX.X&XMXjX-Xg.g.{ } } { r.1X$XXX$X2XOXQ.G.I S G S S G S F G L S P _.4.e a a Q ~ ^ ( s ",
"I 6.L.U.P.2X3X3X5X3X4X3XrX5X3X3XiXiXsXsX2X6X.X&X9XjXuX:Xl.g.<.i.t.5X1X$X1XiX3X7X7XpXQ.D S R F G A S F G S J _.4.3 p 5 5 ~ ~ &.d ",
"n c S J B [.@X@X<X<X<X<X<X4X@X<X7X7XiX8X7X2X$X&XuX7X8X1X:X*Xl.x.7X3X7X7X7X7X7XsXgXsXpXG.A G G G E Z D S m J .X4.3 p 0 4 ~ ~ ^ 4 ",
"O.I 4.O.P ).{.oX{.{.@X<X<X@X|.2XMXgXiX7X7X7X7XpXtXsXsX7XpX9X4X<X9XiXiXgXgXgXiXgXgXjXgXXX..S S D A A S m m P _.O.0 a p ! Q Q Q 4 ",
"K.K.P.T m (.oX].[.'.{.|.<X[.<XsXgXgXpX7X7XpXsXgX9XlXgXpX9XMXgXgXgXsXgXgXgXgXgXgXkXNXgXMXP.A F A Z Z F S S J _.I r s s a 5 5 s q ",
"R.T.P.6.P ~.].].[.(.[.@X#X{.2XjXgXgXiXsXlX9X7XsX9XpXpXhX9X7XMXnXgXjXgXgXiXsXsXgXgXjXMXgX#XP G A m S S m S L _.O.y e q s l r e u ",
"I.w.4.U L Q.).(.(.).[.oX@X{.iXjX7XMX9XgXgXlXsXlXlXrXtXyX0X3XiXgXgXkXNXhXgXgXkXNXjXgXgX7XpX5.A S S m A S S J .XO.e y y k l k k k ",
"5.4.P s f T.[.`.(.].[.[.@X{.iXjXMXgXgX9XsXgXgXgXgXsX5X;X=X;X-X*XsXhXkXkXkXhXkXkXjXsXsXgXMXY.b S Z m n S m J .XT 6 1 = ; : & = * ",
"J H B M V Y.].).(.(.(.[.{.[.iXjXgXjXgX7XgXgXgXgXNX5X;Xz.z.m.d.x.lXjXkXkXkXkXhXjXgXsXsXkXjX@XF S Z n A A n F _.c X X       . @ + ",
"y n B V V r.(.`.).(.].[.[.(.tXjXjXjXgXgX9XgXgXgX5X*Xb.h.n.z.e.:XkXkXhXkXkXkXhXgXsXsX9XkXgXpX@.Z A n m Z c G `.r                 ",
"T.E.E.r.X.^.'.'.].`.].#XoX(.iXjXNX7XsXjX7XpXgX5X-X;Xn.z.h.a.e.<XgXgXgXjXjXgXgXgX0X2XiXNXCX6X0.n j B c n Z m T.8                 ",
"iXrX3X}.5.R.[.].(.(.).].!.'.hXNXNXkXkXlX7XsX5X,X;X=Xn.v.g.%.W.7XgXiXgXgXgXgX9XgXpX6X4XsX&X(.q.M n m f b b m I.=                 ",
"[.[.{.(.X.Y.T.T.R.Q.Q.R.Q.[.NXCXNXMXkXiX5X>X,Xb.b.l.%.t.t.W.5X7X9XgXgXgXsXiXiXiX3XXXT.R.u.c.t.) b A c b h b J.-   X             ",
"4...7.0.m 8.P.P.P.T.T.T.Q.).pX6X&X&X&X1X4X,X;Xn.e.$.o.}.4X4X8X6XpXgXjX7X7X7X7X3X>XG.#.e.c.M.k.y.n n b c g g F.$                 ",
"K K G.G.G O.H.D.D.J.J.P.K.K.:X XW.W.^.r.*X*Xz.} $.q.!.1X7X2X2X7XsXgXgXsXsX7XiXrX4X#.{ i.j.k.k.i.V h y y f v 4.+         . .     ",
"_._.#XP.m G 7.4.+.4.7.0.9.q.=XN.n.n.c.j.v.b.d.| $.}.1XoXoX1X8X9XiXsXgXgXgXgXsXsX4X#.[ p.a.x.j.k.o.n h z f n O.O         . + O O ",
"/.'.@X8.h G +.T T T 6.6.@.#.N.m.M.M.k.n.n.g.} { W.oX@XqX8X8X2X9XsXiXsXjXjXgXgXsX>XP V } i.i.i.j.y.l b z h b L O         O + $ $ ",
"(.'.`.6.e G T O.T T R +.+.q.N.k.j.x.v.n.i.} [ $.}.2XXXoX1X&XuX7XsXsXsXjXkXgXsXsX9XF.H { } a.j.k.j.N f z h j G X       X . O O O ",
"K J J m y A O.@.J O.R @.6.3.z.n.n.n.v.j.<.| { r.qXoX<X1X1X1X1X3XsXgXgXgXgXMXgXgXiXE.Z ) <.i.<.j.j.) b g g ) l X               X ",
"c e e e q S I G G @.T +.+.@.x.k.j.f.a.<.} } $.r.R.'.{.qX{.oX1XsXsX9XgXjXgX9XgXhXiX!.n N 1.j.j.i.s.V u l s s f X X     X X X o O ",
"4...F y b G Y Y P @.R +.T X.f.i.f.a.e.} { { { r.R.'.}.qXqX:X1XsXsXsXgXhXhXgXgXhXjX<XP ) } i.i.i.a.V x l s s y o X X . . . X     ",
"0.8.I m L G L F L H D E D B e.j.s.} } | ] { q.y.'.}.<X<X1X1X4X9XgXgXgXhXhXhXgXdXgXlXG.V p.i.i.p.g.m y ( l w i o o . . X         ",
"8.I P z = 1 b A b n Z Z D M $.x.<.} [ ` ' r.E.XX{.qX1X3X9X8X9X7XkXdXhXhXhXlXgXhXgX3XY.N p.p.p.i.$.n c a s w < @ X         X @ + ",
"z e r e * r b c x m Z Z D v X.e.} ` ) ) K.>XoXXX4X3X9XsXsXsXsXhXkXkXkXkXkXhXfXhXhX0X'.) <.<.<.j.' y e 4 s w 2 $ & 1 q b P 6.P.(.",
"e e 9 2 1 q h n Z m S A D m H _ _ / M N K.9X1X[.9XlXdXkXkXkXkXkXNXkXkXkXkXhXhXhXsXlX'._ <.i.c.<.B 9 e ) B t 0.(.(.(._.[.@X+X@XoX",
"f 7 9 * 1 q b b D n F Z C Z D v N N S b H.7X0XqX3X3X9XkXkXBXNXMXNXkXNXkXkXkXkXkXdX:X@.o.j.j.j.y.X.y 0 d 7 0 `.'./.E.E.R./.R.E.0.",
"K n e r 0 k M m b S F F F A A S n n h f T `.#XMXgXkXjXhXBXZXSXSXvXhXBXBXZXZXpXoX5.# 3 e.x.k.c.,Xw./.V P g r O.8.O.J P.P.+.5.D.U.",
"4.O.O...J P +.7.L L F F F G D A A f b A G +...D.oX2XNXjXiXjXgX<X1X<XXXOX!.@.0 % 0 ; ' v.n.h.c.-X{.BXxXiX:XOX}.L.J.L.[.|.H.I C G ",
"..P I ..P P 5.5.L J L P P J S m h n n f ..7XXXK.+.K @.P w 7 & $ % & : ; # # % 3 B y.x.k.n.b.N.,X,X5XZ.C.>.C.Z.V.=.V.eXoXV v 7 * ",
"..I K K G K @...6.6.4.O...P L L G m h b 0.1X@XoX#X~.~.5.h w 1 & & # $ % 3 F 9.E.j.N.n.m.m.-Xu.2.1.1.C.;.;.;.-.:.;.:.>.>.2.X.E 6 ",
"0.0.0.7...K O.@...O.0.K.0.5.I J A F m P ).#XoX<XoXoX].).).XX@X[._.L.L.T.Q.(.^.t.m.n.m.n.n.N.eXwX X XZ.:.:.:.Z.Z.C.A.mXeXy.w.`.+X",
"K.Y.Y.K...K ....O.......@.5.5.5.I G n @.6X2X[.oXqXoX].].[.(.(.).[.[.[.].Q.9.r.c.g.m.b.N.m.N.rXaXcXCXcXZ.,.,.mXbXzXeXw.U.I.uX`.w.",
"T.T.T.K.@.K 4.5.+.@.X...X.5.5.5.@.@.P 5.1X$X}.{.].{.{.(.].{.[.[.'.(.R.0.5.X.w.l.e.=Xg.g.f.t.X.G./.{.rXrXeXeXeXcX|.L.S y 8 r 1 i ",
"K.P.R.Y.3.X.@.5.@.9.5.q.5.3.@.5.5.9.@.G.XX].H.K.T.T.].[.].]./.}.oX(.T.G.8.K.y.} k.h.h.g.d.r.c k g O.E.0.`.|.rXzXxXdXtX<X#X(.K.J."
};
