/* XPM */
static char *waka47_jpg[] = {
/* columns rows colors chars-per-pixel */
"64 64 255 2 ",
"   c #020202",
".  c #0A0A0B",
"X  c #05070A",
"o  c #121213",
"O  c #1B1A19",
"+  c #0D0D10",
"@  c #2B281F",
"#  c #262624",
"$  c #372D28",
"%  c #3C3936",
"&  c #3E352B",
"*  c #1B2117",
"=  c #47372B",
"-  c #443C35",
";  c #533C2F",
":  c #613F35",
">  c #3D4336",
",  c #4A443D",
"<  c #46423B",
"1  c #56463E",
"2  c #68483B",
"3  c #764B3A",
"4  c #4A4542",
"5  c #4D4A46",
"6  c #514E4A",
"7  c #564C44",
"8  c #55524A",
"9  c #5B564C",
"0  c #58564A",
"q  c #5B5552",
"w  c #5D5C54",
"e  c #5B5B56",
"r  c #4F504B",
"t  c #664B45",
"y  c #764B43",
"u  c #6C554B",
"i  c #66574A",
"p  c #775549",
"a  c #635D54",
"s  c #6A5D54",
"d  c #645E59",
"f  c #685B58",
"g  c #785C55",
"h  c #5C6458",
"j  c #636156",
"k  c #64625B",
"l  c #6A645C",
"z  c #6D695E",
"x  c #6A6256",
"c  c #73645A",
"v  c #7A645A",
"b  c #736A5C",
"n  c #776457",
"m  c #5C5D64",
"M  c #666562",
"N  c #6A6661",
"B  c #6D6A63",
"V  c #696B66",
"C  c #726C65",
"Z  c #736E69",
"A  c #786F67",
"S  c #737066",
"D  c #797165",
"F  c #76726B",
"G  c #7A756D",
"H  c #7D796E",
"J  c #7B7671",
"K  c #7E7972",
"L  c #7B7A79",
"P  c #6D7067",
"I  c #8B3737",
"U  c #923636",
"Y  c #B43236",
"T  c #C3303A",
"R  c #8F403C",
"E  c #894E48",
"W  c #845D58",
"Q  c #835A47",
"!  c #BD4146",
"~  c #86655C",
"^  c #956959",
"/  c #98735E",
"(  c #936950",
")  c #A26954",
"_  c #AC745D",
"`  c #A9775B",
"'  c #B6795B",
"]  c #B16E59",
"[  c #8B6A64",
"{  c #81756D",
"}  c #82796E",
"|  c #897666",
" . c #957764",
".. c #827C74",
"X. c #897D73",
"o. c #847E78",
"O. c #807770",
"+. c #96726C",
"@. c #AB7B65",
"#. c #B57A64",
"$. c #C77A6A",
"%. c #C37C5E",
"&. c #7F8070",
"*. c #BDCD0E",
"=. c #BAC028",
"-. c #C5CE05",
";. c #CAD60F",
":. c #CFD72E",
">. c #BC815D",
",. c #A08542",
"<. c #8B8276",
"1. c #85827A",
"2. c #8C847B",
"3. c #89857A",
"4. c #918479",
"5. c #928A7D",
"6. c #9A8A79",
"7. c #978F73",
"8. c #AA836A",
"9. c #B98567",
"0. c #A68576",
"q. c #BB8B74",
"w. c #BD947B",
"e. c #B79279",
"r. c #A7927B",
"t. c #AAA152",
"y. c #C4855C",
"u. c #C7895D",
"i. c #C48562",
"p. c #C58A63",
"a. c #CB8D64",
"s. c #CB8B6A",
"d. c #C78769",
"f. c #D48D69",
"g. c #CE9165",
"h. c #CD936C",
"j. c #C5936B",
"k. c #D29266",
"l. c #D4946B",
"z. c #D9976C",
"x. c #CB8D73",
"c. c #C99577",
"v. c #D29474",
"b. c #DB9A74",
"n. c #D79777",
"m. c #D38974",
"M. c #E59B75",
"N. c #E69969",
"B. c #D4AC6B",
"V. c #D2D451",
"C. c #C8D762",
"Z. c #8E8A81",
"A. c #8A8580",
"S. c #938D83",
"D. c #9A8E84",
"F. c #959185",
"G. c #9B9385",
"H. c #9C958A",
"J. c #9E998C",
"K. c #979389",
"L. c #9E9B92",
"P. c #9D9792",
"I. c #A39A8D",
"U. c #A59788",
"Y. c #BC9982",
"T. c #A49D93",
"R. c #AB9D93",
"E. c #A19691",
"W. c #B39B93",
"Q. c #B7A28C",
"!. c #A6A196",
"~. c #ACA395",
"^. c #A6A299",
"/. c #ACA59A",
"(. c #ADA99D",
"). c #B2A595",
"_. c #B3A69B",
"`. c #B3AA9B",
"'. c #BAAC9D",
"]. c #B9A896",
"[. c #BBB29C",
"{. c #B6AC8B",
"}. c #ABA8A3",
"|. c #B4ACA2",
" X c #BBADA3",
".X c #BBADAA",
"XX c #B6B1A5",
"oX c #BDB3A4",
"OX c #BBB5AA",
"+X c #BEB9AC",
"@X c #B8B8B3",
"#X c #9FA48E",
"$X c #C79984",
"%X c #CAA288",
"&X c #D3A388",
"*X c #C5AC9A",
"=X c #C7B49B",
"-X c #D3B191",
";X c #C2B4A5",
":X c #C2B5AA",
">X c #C4BAAC",
",X c #CBBCAD",
"<X c #C8B8A5",
"1X c #D4BBA8",
"2X c #C5BCB2",
"3X c #CBBDB2",
"4X c #CCBCB8",
"5X c #D1BEB2",
"6X c #C3AFA2",
"7X c #BFC693",
"8X c #D2CD93",
"9X c #E4D799",
"0X c #CBC1AE",
"qX c #CAC4A9",
"wX c #D2C3AC",
"eX c #D7CAAC",
"rX c #CDC3B3",
"tX c #CCC4BA",
"yX c #CAC7BA",
"uX c #D3C4B4",
"iX c #DBC5B4",
"pX c #D5CAB4",
"aX c #DBCCB4",
"sX c #D4C5BA",
"dX c #DAC6BB",
"fX c #D5CABC",
"gX c #DBCCBB",
"hX c #DDD2BB",
"jX c #DCD1B7",
"kX c #D3D4AA",
"lX c #E2CEB7",
"zX c #E2D3B9",
"xX c #E4C5A8",
"cX c #CBCBC4",
"vX c #D5CCC2",
"bX c #DBCCC2",
"nX c #DACAC4",
"mX c #D5D0C4",
"MX c #DBD1C4",
"NX c #D9D5CA",
"BX c #DFDDD1",
"VX c #E3D4C3",
"CX c #E4DCCB",
"ZX c #E4DAC8",
"AX c #E4DED3",
"SX c #E6DCD3",
"DX c #E5E1D6",
"FX c #E5E3DB",
"GX c #E9E3D9",
"HX c #E1E0C2",
"JX c #E6E6E4",
"KX c #EBEAE5",
"LX c #EBEBEB",
"PX c #E8E8E5",
"IX c #EEEEF0",
/* pixels */
"o.G G O.1.2.Z.K.J.T.(.;X3X5X,X1X|.T.S.o.o.Z.G.K.H.F.S.5.D z x F 1.J G K ..o...K o...o...L J J J J O.o.O.H I.>XG b ~ j l l l k j ",
"O.G D D D C D G O.2.S.R.>XuXsX5XT.D.X.X.1.D.H.K.T.).).`.~.`.I.D.Z.L K L ..........O.o.....O.J L G J o.o.H I.>XG v ~ j z k l k a ",
"H.J.J.S.2.4.<.O.G G G 2.2.K o.D.K.1.o.4.S.H.~.(.).`.~.~.I.R.U.5.Z...K o...K ................J J H J O.O.} T.>XD b [ k l k d d j ",
"^.^.(. XOXoX2XtX2X^.O.k q 5 8 7 d l C N C O.D.G.#XU.I.R.I.U.U.G.2.K K o.K J o.o.o...o...L ..J J K O.O.o.H I.>XG b [ j k j d d k ",
"(.|.OXOX2XfXrXOX5.l 4 5 q 8 e e M d N V V C G ..2.D.F.G.I.T.E.} 3.1.H ..o.J o.o.o...o.L K K F J H O.J ..{ I.+XH v [ k j h d k k ",
"`.oX+X2XyX2XS.w 4 5 9 w d k B l d l G A.A.o.2.K.K.H.I.E.^.`.).1.5.3...1...J o.o.o...X.K K J G J K J J K O.J.+XH b [ z k k d d l ",
"|.OX2XoXZ.q 4 4 q q a z b C G O.O.Z.K.S.S.K.L.J.^.(.|.>X3X,X2X!.F.K.X.K ..L o.o.o.K o.K J J F J G J J L } J.OXH v +.c k k k a j ",
"2X|.1.9 - 4 6 q d N D } 2.R.2XsXT.D.S.P.T.^.XXOX>X2X,X0XrX,XsX'.H.J.o.K ..J o.1.o...K J J J F J S G J J K J.OXK v [ l l N k w d ",
"P.Z % % 5 8 a c C X.U.`.fXSXGXnXT.P.L.}.OX>XrXqXwXeXyXpXaXjXjX[.K.E.....1.K H K K K K J F J G J F J ..J { H.OXG v [ j N N d k a ",
"- - 4 r 8 w H <.(.rXVXSXSXtX_.T.E.(.OXyXyXyXMXMXNXNXCXDXDXGXGXyX^.^.1...K K K K K ..K K J J J J J J ..J O.E.OXG n +.a l k d e d ",
"- % 4 r 5 B |.nXSXSXvXOXI.K.T.^.OX+XyXbXBXNXAXGXKXLXLXLXLXPXLXcX|.(.1.K J L K ..L ....K J J J J J F ....O.H.OXG g [ j l M d k d ",
"4 4 5 % 5 Z.cXbXOX^.S.D.S.T.|.XXtXvXmXFXLXLXKXKXIXLXIXLXLXLXLXNX(.(.K J K ..K ........L J J G J J F J O.} H.OXF v [ j l M d j d ",
"4 - 4 4 6 e A O.O.o.X.E./.(.XXyXNXFXLXLXLXLXLXLXPXLXLXLXPXPXPXcX^.^.H K K ..K 1.K ..K K J J J J G J o.O.} J.2XD g [ a k d d k d ",
"5 5 5 5 6 8 f C 1.S.H.T.(.oXfXAXFXFXJXIXIXPXPXJXKXGXJXFXFXFXFXyX!.^.1.L K K K 1.K K K J J G F J G G o...H E.2XF n ~ j d d d d d ",
"d 8 6 e k l F Z.E.E._.OX2X2XXXK.J C J ^.cXFXKXDXDXBXAXDXDXFXGXyX!.^.K K K ..K ..K K K J F J J J J F ..J G I.2XF g ~ h d d d e k ",
"l N Z J L F.E.L._.`.OX2X2X5.q & - - % - 9 K.fXAXDXBXDXFXFXFXFXyXL.!.J J K L K H K K J J F F F J J Z J ..{ K.OXZ g ~ a d k d a k ",
"a C A.K.T.!.|.(.;X:X0XrXD.4 , ; 4 - - = $ & J.DXDXDXAXAXCXNXZXrXT.!.K J J K K K ..J J J J Z F F F F ..K &.H.OXH n ~ w j f d d d ",
"X.U.^.}.}. XoX2X,XsXrXrX~ - t ^ ^  .~ 2 2 2 n BXJXFXFXFXGXDXDXcX!.^.L K J J K K J F J F Z A F F F F J J H K.OXS g ~ a k f e d d ",
"/. X|. X>X,X>XuXrXgXnXfXv 1 ~ n.c.n.$.@.@.@.~ NXIXPXPXPXLXLXLXNX^.(.&.J J J K H J J J F J Z J J J F J J K J.XXD g [ e j a e d d ",
" XE.2.O.>XuXgXMXNXSXAXAXO.i / b.b.b.s.h.d.d.8.yXLXJXJXJXLXKXKXNX^.^.J J G J H K J J J F Z Z Z Z J Z F J K K.XXC g W a a a e d l ",
"a 7 w a dXVXCXCXZXCXDXCXO.s  .v.n.v.p.a.d.#.0.lXGXDXDXDXFXDXFXvX!.!.G G J J H K Z J J Z F J F F Z Z G F F S.|.B g W d j e e a a ",
"6 r w w rXgXhXhXlXbXVXlX0.^ 0.n.x.@.) $.] ) +.lXCXZXZXZXCXZXCXpX!.!.G H J G G G J J J J F J F Z F Z J F F S.|.C c W a k d e j f ",
"w j M a :XfXpXfXaXaXVX-Xc.#.q.v.@.( ] m.) (  .xXjXhXhXhXhXhXVXwXT.T.G G G G F J Z J F F Z Z C B F Z J F G S.|.B s g s f w e j l ",
"4 5 q 7 oXaXpXpXpXhXeX-Xm.d.x.n.9.' $.m.' ] q.<XVXVXzXzXVXVXZXpXT.J.S F F G G G F F F J Z J F J G F J J H S.|.S s g k f a e j f ",
"w 8 e 9 oXpXpXpXeXfXaXxXc.#.q.n.m.f.%.m.$.$.d.-XhXzXVXhXhXhXjXwXH.T.F F H H H F J Z J Z J Z Z Z F F H H F K.|.b e g u g 0 q 9 a ",
"B k N d oXhXjXMXjXpXpXeX-X@.( x.s.$.>.#.' ] @.*XjXjXgXaXjXeXhXeXH.T.H F H F F H J Z J C F C C Z F P F H S K.(.z d d u W h a a k ",
"C N Z D :XhXhXhXlXeXpXeXeXQ.p ) #.@.@.( ( ( ( U.aXaXlXlXaXeXgXuXJ.!.G F F H H F J Z G C Z Z Z J G F G F F F.(.k f e 0 u 0 w q h ",
"F F J H [.jXhXhXlXaXaXeXjX<X2 2 ) ] #.9.@.` 3 ).jXaXaXaXaXaXlXeXJ.!.G D F F F F G Z F C Z Z Z F J P H F S F.(.l k d s y 0 0 e j ",
"B K F.F.oXhXjXhXaXeXaXaXuXuXi = 3 #.$.] ) ^ 2 ].jXjXjXeXeXaXzXwXI.!.H F F F F P Z C Z C Z C B Z P F F F S S./.l h u E U U E s s ",
"5.^.@XXXyXhXwXpXpXeXeXgXuXiX| = = Q #.) ^ y 2 r.wXeXpXrXeXaXzXqXJ.!.H P F H F F C C Z Z Z C B C F P F S C S.^.j u 3 3 U T ! Q a ",
"H Z.J.F.`.0X,XrXrX0X1X1X0X=X8.; $ = t 3 Q ) _ 8.%X=X,XrXrXwXaX<XJ.!.G F F F F P C V F Z Z C C Z F S P S C S.^.a 2 2 2 I Y ! E i ",
"j z P k G.;XoX;X:X[.<X>X0XY.c.[ : $ $ ; _ d.f.d.j.w.].*X+X;X>X+X5.J.G F Z F F Z Z C F C Z B C B B B B C B S.!.a t 2 3 I Y T R i ",
"| <.2.S T.|.].'.`.[.[.oX3X3Xw.d.] 3 ; = @.n.b.n.a.e.). X[.;XoX;XH.T.F C Z C B F Z Z Z B B B N C N B V Z k K.(.a y 3 3 I U I y u ",
"G.J.5.z S.`.`._.|.].`.OX@XvXwX&X9.] ( Q 9.v.h.c.s.c.]. X:X>XoX,X|.H.O.B F B F B C P Z B B B C N B B N Z N F.^.a 9 8 t y y y i w ",
"#XG.5.G S././.R./.'.XX2X}.cXnXuX*Xc.#.] 9.h.v.c.h.w.=X:X:X>X,X,X2X!.{ b C Z F N Z Z C B C B B C B N l B B S./.x 6 6 0 u u i q h ",
"H.<.G B 2././.|.R.:XcXcX}.}.cXnXyX<X%Xq.e.n.m.h.x.e.=X:X:X>X,X,X,X+X1.C F F Z B C Z C C B N N V N N N Z V Z.(.j f a i f f i q e ",
"<...x 9 X./.!.R..XuXfXvX@X}.2XvXfXuX1X<X*X&Xn.h.j.w.;X:X<X:X,X,X3X3X_.C F F F Z C C B B B N N N l B B B z Z.(.6 % - % % % % % % ",
"z D c c 4._._.oXuXfXuXtXvXOX2XnXpX5XyXrX1X&Xn.v.w.Q.:X>X>X>X>X,X,X,X3XS.C F Z C P B B B B N N N N B l z z Z.L.$   X X     . o o ",
"k C b v +.I.oXfXfXsXfXuXsX3X>XsXiXdXsXrX1X&Xn.h.c.=X>X3X,X3X3X3X,X,X3X XJ J C C B C P B B N N V B k l B l Z.K.o                 ",
"E.T.U.+.0.].fXmXbXuXgXgXuXsX3X3XrXdXsXuX-Xb.v.b.w.1X>XrX4XrXuX5X<X5X3X4XT.C Z Z B B B N N N k l z k z l k 3.K..                 ",
"0XwX=X6.G.:XgXgXgXgXgXfXsXsXuX5XrXsX4X5X-XM.z.f.e.3X4X3X5XsX5XrX,X3XdXyX~.} C Z B B l N V M k l M l N z k 1.o..                 ",
"`.`.).2.2.|.bXbXbXbXgXsXsXtXuXpXuXsX5X1X&Xz.f.i.x.>XtX1XuXuXuXrX,X>X2X'.r. .C P C C B l N N l z l M f k j ..J X                 ",
"D <.5.D D !.mXbXbXbXlXdXgXfXuXwXiXuXuX1Xc.l.z.d.w.<X4X,XuX3X5XuX,X[.R.q.x.8.| N N C B z l N B l l d l a j K N                   ",
"P 3.F.G J L.yXMXmXmXgXgXgXgXsX5XsXfXpX-Xb.z.l.d.w.;X4X3XpX3X3X,X,XU.0.i.k.h.8.v N B B N l z k k k a x j j K e           . .     ",
"(.OX(.c N 1.oXdXbXbXgXfXvXvXdXsXtXfXwX&Xb.z.a.p.w.oXrX5XuX3X3X>X,Xe.>.u.g.g.j.` N N V N k l l k k j h j s ..6 X       X O O o + ",
"!.oXT.z B o._.zXbXbXgXbXNXvXtX,X6X<X-Xc.b.l.y.p.$X:X2XrXpX5X5X,X5XY.` u.u.g.l.u.| b M V l l l j s a h a s { -         . # # # # ",
"(.).S.j d J S.sXgXbXMXbXvXuX,X*X$Xc.n.v.z.k.p.p.%X>XrX,X0XuXuX3X5X*X_ ' u.g.k.g.8.~ l V k l k j d d j a s { &         X + O o o ",
"P S B k k L K  XvXNXNXvX3X*X&Xc.j.i.M.z.k.f.p.9.%X>X3X,XwXfXdXuX3X3X0._ y.p.a.l.c./ c N k j j j d d j s s { $                 X ",
"0 0 0 0 e G G S.fXMXcX2X-XN.N.z.f.z.v.l.a.u.p.9.].<X,X3XrXsXuXuX5XuX_./ ' >.g.s.j.9.n h a s l d f M e g y ~ #     X   X . o o o ",
"1.F j k C G D H !.vX0XQ.M.b.z.b.k.l.k.a.u.y.p.9.*X1X5X,XsXsXsXsXiXuXrXr./ >.y.a.g.p.~ j j a h k a k s W t k # X X X . X X X   X ",
"3.1.S B C C S S J }.Q.c.M.M.b.B.k.l.k.u.y.y.9.9.6X1X5X3XuXsXsXuXsXrXvX[./ 9.p.k.u.l. .j a j h k j d t E 8 h # + X X + X   X     ",
"&...B < % k j j V J | j.M.M.l.l.k.f.g.u.y.y.9.w. X3XuXuXtXdXsXsXuXdXsXfXr.` a.k.k.h.@.c e V J N j d y y 8 e * + X X       + O # ",
"j 0 6 , , j a k V j z +.d.f.N.g.k.a.a.u.y.#.@.q.].,XsXsXsXsXfXdXuXlX4XgX]./ a.g.k.p.9.v h M L F j a 7 p 9 i > $ < 8 j } 5.U.~.~.",
"w 9 , < , j B k k l N C  .9.u.u.a.a.a.p.>.@.@.U.).:XuXaXuXuXuXsXuXdXiXsX>Xe.9.p.s.a.q.~ k h L &.e d x [ t D #X(.~.`.).[.;X[.`.~.",
"0 5 , , 4 w k k k N B V D | ` >.u.a.a.y.' 8.U.W._. X>XuXuXuXdXdXdXuXdXiXfXQ./ ' g.k.g./ k K I.7.M q , u 6 J |.!.J.J.~.I.I.I.5.J.",
"D w 9 0 6 l k N V V C C V V  .i.' i.i.y.` 8.W.}.'.'.6X5XuXgXdXsXnXsXgXgXpXI.p ) y.u.u.8.z }.uX=XD.K.v ^ e P D.<.H H #X<.<.3.H.OX",
"3.H <.} C <.5.{ C C B B C N { E.%X9.q._ 8.Y.*X>X;X,X,XrXuXfXgXfXdXgXgXrXR.7 | ~ ' a.>.9.<.(.qX{.3XZXkX9X.X].~.E.G.].>XI.o.H j L ",
"H S D G b X.2.X.D F F F F B Z 2.uXoXW.r.].:X+X2X5XuXuXuXuXsXgXMXMXuX~.D z | U.D.] %.g.v.=X3XqX7XeX8X:.:.:.V.V.=.:.C.8X<.b 9 , > ",
"} S G D D } o.O.<.o.o...G Z A G 4XtX2XsXuX,X3X2XsXdXMXnXfXdX0X+XU.D a S <.I.U.).8.9.f.g.-X8Xt.t.,.t.;.;.;.*.;.*.-.*.:.C.7.{ s - ",
"5.5.2.} D G H } { <.D.S.1.O.G G }.SXnXvXbXbXdXlX3X2X3X_.D.G 1 & $ j 6.~.`.~.R.~.7.` g.f.-XkX7X7X*X9X:.-.;.:.:.;.;.;.V.,.2 | <X>X",
"J.U.G.<.D } X.} O.| } o.4.5.<.C O.X.G F.L.R.E.T.k 7 7 , - , 1 z 2.R.`.).~.I.).{.7.` z.z.n.=X0XgXaXvX9XV.;.:.9X9XC.7X>X}.D.2.K.3.",
"U.I.I.<.D } X...X.X.O.| } X.1.1.X.|.(.!.L.^.S.T.<.2.F.U.I.!.!.`.).`.`.~.~.].`.`.H.@.z.f.c.| } S.Q.|.oXqX9X9XSXSXmXmXT.^.!.XXZ 4 ",
"7.U.U.5.{ } 1.<.4.4.4.1.X.X.X.1.D.:X:XOX+X:X_.)._.`.`.!.(.`.`.R._.U.~.].].~.R.).U.8.b.B.b.| e m h 1.7.G.Q. X4X8XvXfXuX,X3X<X`. X",
"I.U.R.U.<.<.4.5.4.4.4.4.<.X.X.4.H.:X X X:X>X;X X'.6X X'.'.].).R.I.I.~.`.`.~.[.~.W.q.z.M.N.e.p , 7 n { T.4.X.6.#XG.G.oXpX,XrX|.5."
};
