/* XPM */
static char *waka45_jpg[] = {
/* columns rows colors chars-per-pixel */
"64 64 255 2 ",
"   c #020102",
".  c #04050A",
"X  c #04090C",
"o  c #0A0A0C",
"O  c #080706",
"+  c #090C11",
"@  c #161619",
"#  c #0E100D",
"$  c #291C1A",
"%  c #2F241D",
"&  c #3C2C27",
"*  c #36362D",
"=  c #2A2C27",
"-  c #1C1B20",
";  c #423C37",
":  c #4F382E",
">  c #384335",
",  c #48433B",
"<  c #55463A",
"1  c #59533D",
"2  c #694537",
"3  c #744739",
"4  c #75523E",
"5  c #7B3F41",
"6  c #4A4542",
"7  c #4D4A46",
"8  c #484743",
"9  c #534E4B",
"0  c #564B44",
"q  c #55524C",
"w  c #5B554D",
"e  c #5B594D",
"r  c #595346",
"t  c #5B5652",
"y  c #5D5B53",
"u  c #585B56",
"i  c #495547",
"p  c #694E45",
"a  c #774946",
"s  c #66554A",
"d  c #765449",
"f  c #635C54",
"g  c #695D55",
"h  c #645D59",
"j  c #665957",
"k  c #765D55",
"l  c #5E6155",
"z  c #58614E",
"x  c #656156",
"c  c #696156",
"v  c #66625B",
"b  c #6A645B",
"n  c #6D695E",
"m  c #656A5D",
"M  c #73655B",
"N  c #736A5D",
"B  c #776458",
"V  c #7A684F",
"C  c #6A6661",
"Z  c #6D6A64",
"A  c #6A6A67",
"S  c #726D65",
"D  c #7B6D63",
"F  c #736F69",
"G  c #7B6968",
"H  c #757166",
"J  c #7A7267",
"K  c #76716B",
"L  c #7A746C",
"P  c #7D796E",
"I  c #7B7671",
"U  c #7E7973",
"Y  c #767675",
"T  c #6B7169",
"R  c #8A3A37",
"E  c #BA2C36",
"W  c #8B443E",
"Q  c #895349",
"!  c #885251",
"~  c #986A4F",
"^  c #876859",
"/  c #966F58",
"(  c #A96B56",
")  c #AA765B",
"_  c #BA7D5C",
"`  c #B57859",
"'  c #AB6B52",
"]  c #8C6562",
"[  c #8B6B66",
"{  c #926A68",
"}  c #82796E",
"|  c #897667",
" . c #967767",
".. c #827B74",
"X. c #857E79",
"o. c #887C74",
"O. c #A87965",
"+. c #B77B64",
"@. c #B04B4B",
"#. c #C47D54",
"$. c #C17F62",
"%. c #B8DB00",
"&. c #C8D804",
"*. c #C9D313",
"=. c #E1D40F",
"-. c #CED233",
";. c #BC825A",
":. c #B6B04E",
">. c #9D876A",
",. c #858176",
"<. c #8A8376",
"1. c #85827A",
"2. c #8C857B",
"3. c #8D897D",
"4. c #8C8B76",
"5. c #928A7E",
"6. c #968778",
"7. c #A8846B",
"8. c #BA8668",
"9. c #A88875",
"0. c #B78A75",
"q. c #AF9476",
"w. c #ADAC74",
"e. c #C2855D",
"r. c #CA8A5C",
"t. c #CD925B",
"y. c #C48563",
"u. c #CC8C64",
"i. c #C3856A",
"p. c #C48B6C",
"a. c #CC8C6A",
"s. c #C78862",
"d. c #D18C64",
"f. c #D48D6B",
"g. c #CD926B",
"h. c #CA9163",
"j. c #D8966B",
"k. c #C88B71",
"l. c #CB9272",
"z. c #C79578",
"x. c #D49472",
"c. c #DB9974",
"v. c #D59A79",
"b. c #E49A70",
"n. c #EAA171",
"m. c #CFA374",
"M. c #B4C273",
"N. c #CED04B",
"B. c #CED272",
"V. c #E9D574",
"C. c #8D8B82",
"Z. c #938C83",
"A. c #968B86",
"S. c #9A9286",
"D. c #9C948B",
"F. c #989489",
"G. c #9E9992",
"H. c #A39A8C",
"J. c #AA9C8D",
"K. c #A39687",
"L. c #B39885",
"P. c #A49D92",
"I. c #AB9E92",
"U. c #A69D98",
"Y. c #A18F8F",
"T. c #ACA295",
"R. c #A5A29A",
"E. c #ACA49A",
"W. c #AEA99D",
"Q. c #A6A194",
"!. c #B2A495",
"~. c #B2A69A",
"^. c #B3AA9D",
"/. c #BAAD9D",
"(. c #B3A897",
"). c #BCB29C",
"_. c #AAA387",
"`. c #ADABA2",
"'. c #A9A7A4",
"]. c #B4ACA3",
"[. c #BCAEA3",
"{. c #B6AEAA",
"}. c #BCB2A4",
"|. c #BDB5AA",
" X c #B8B5A9",
".X c #B4B4B3",
"XX c #D69D82",
"oX c #C59B86",
"OX c #C4A58E",
"+X c #D5A487",
"@X c #C7AA97",
"#X c #D2AC93",
"$X c #C7B599",
"%X c #D7B99D",
"&X c #C2B5A5",
"*X c #C3B6AA",
"=X c #C4BAAD",
"-X c #CABCAD",
";X c #C9B7A6",
":X c #D3BCAC",
">X c #D8BBA7",
",X c #C5BCB2",
"<X c #CBBEB2",
"1X c #C7BBB7",
"2X c #D2BFB3",
"3X c #C2AEA5",
"4X c #BDC497",
"5X c #D6D591",
"6X c #CCC2AD",
"7X c #C5C2A7",
"8X c #D3C4AE",
"9X c #DBC5AE",
"0X c #D8CAAC",
"qX c #CCC1B4",
"wX c #CCC4BA",
"eX c #C8C4B8",
"rX c #D3C3B4",
"tX c #D9C5B5",
"yX c #D5CBB4",
"uX c #DACBB3",
"iX c #D5C6B9",
"pX c #D5CABC",
"aX c #DACBBC",
"sX c #D8C6B8",
"dX c #DBD1B5",
"fX c #DDD3BC",
"gX c #DFD8BC",
"hX c #CFD2BF",
"jX c #E2CDB9",
"kX c #E2D3BC",
"lX c #E4D7A0",
"zX c #EAD385",
"xX c #BCC1C4",
"cX c #CCCBC6",
"vX c #D4CCC2",
"bX c #DCCDC1",
"nX c #D5CFC9",
"mX c #DBD3C3",
"MX c #DBD8CA",
"NX c #DCD9D4",
"BX c #CDD0CA",
"VX c #E3DBCD",
"CX c #E5D8C6",
"ZX c #E3DDD3",
"AX c #E6DCD6",
"SX c #DFE1D9",
"DX c #E4E2D5",
"FX c #E5E3DA",
"GX c #EAE3D9",
"HX c #EAE3D7",
"JX c #E9E6E2",
"KX c #EBEAE5",
"LX c #EBECEA",
"PX c #E6E7E2",
"IX c #F1F0EC",
/* pixels */
"F.2.P o.3.Z.A.S.D.U.[.*X-X-X:X:X}.K.S.Z.1.2.3.Z.A.3.} J n t q Z X.I U P U ..U 1.X...X...Y ..Y ..} I ..X.P S.=X..M ] M b n c h f ",
"L K H H F P ....5.A.S.I.-XrX2XrXT.F.3.....A.D.S.D.P.Q.E.I.H.A.A.C...,.I U U U X.X...X.Y ..Y ..Y I I U ..,.S.=X,.M [ b c m c x f ",
"D.A.C.3.1.P J J F J I C.U.H.S.T.G.Z.1.C.C.S.P.E.^./.(.!.I.I.H.S.C.....U U U U ......X.....Y ..U I I ....,.S.,Xo.M [ b x v c v f ",
"U.U.E.W.^.{.}.{.].R.2.C w q 0 q b F A F Y <.D.H.P.H.J.J.K.K.H.S.Z.U U U U U U X.....X.......G U I I I ....F.|.o.M [ M x b c x f ",
"E.].|.=X=X,XrXmX{.Y 9 9 t q t u j C v C Z S L U 2.5.S.H.J.P.H.1.C.......U U X.X.....X...U U L L } I U ....S.|...B [ b c C v v h ",
"W.}.|.|.wXiXE.P q 8 q t q j Z b h C F X.X.I 1.A.C.S.F.K.P.T.P.o.3.2.....U U X.X.X...X.X...U L I P I U ..} S.=X..J { b c b h h x ",
"{.{.|.eXW.P w 6 9 q j C Z D L J K ..Z.C.3.Z.D.D.R.W.~.}.=X=X=XT.A.A...I X.U U 1.....X...U Y I } P Y I } P S.=X..N { n g v h g x ",
"{.|.R.K 7 8 7 q u v S J } A.I.&XP.A.S.D.D.R.'.].|.|.*X-XrX;X6X}.S.D.X.U X.U U X.X...X.I I I K L L L L } P Z.=Xo.N { n x b c v e ",
" XZ.6 6 8 7 f y N | o.K.*XmXAXVXE.F.F.'.].|.eX6X8XqXqXyXyXyXuX$XS.D.U U U U U X.U U U U I I I Y P P I P ..D.,X} B { x b x c v y ",
"6 7 * 6 q t n 1.5.~.iXVXGXVX=XQ.P.R.{.|.eXwXpXvXmXmXmXZXAXAXMXqXU.R.1.I I X.U U U U U U I I I I I Y P I ..A.|.} B { x b m c x e ",
"* ; 7 6 7 C A.|.mXZXVXwXW.D.G.Q.E.|.wXvXvXMXAXGXFXPXPXLXKXKXLXNX`.].2.I I U U U U U U U I I Y G U Y P ....A.*X..B { c b b g v t ",
"6 6 8 8 7 L wXVXmX|.K.C.Z.D.E. XeXcXnXNXFXJXKXLXLXLXLXLXLXLXLXNX`.`.,.....I ....U U X.U ..I I Y I L I I ..A.|.} B { x c C c b l ",
"6 ; 6 8 6 y Z.Z.,.,.2.A.P.T.{.,XvXMXPXLXLXLXLXLXLXLXLXLXLXJXLXNXR.R.U I ......1.X.U U I I I L L I P U ....A.,X} B { x c b h c y ",
"9 6 7 6 q q f n ..1.F.P.E.].,XmXFXKXIXLXLXLXLXLXKXKXJXLXPXJXFXnXG.`.U I U X.1.I X.U ..I I I L Y I I U ..} F.eX..B ] f c v v c y ",
"t 9 q t t v n 2.C.G.E.].|.qXmXHXDXDXZXNXSXPXFXDXFXDXZXFXDXAXDXvXG.`...U I ,.,.P Y U U Y L L L K I L } ....F.<X} k ^ e x v g c y ",
"h C C S K 1.F.G.R.`. X=XqXpXiXyXwXP.L v n C.wXVXZXDXNXFXDXFXDXpXR.`...U U Y U P U U U Y K L L K I F P } I Z.,XP k { g h v g v y ",
"f F ..A.S.P.I.{.].|.1XwXwX<XrX9.c 0 p p 2 < B 1XDXHXDXDXVXZXDXiXH.E.o.I U ....I ....I K F F K K L J U P P F.=XP B [ f f c f y y ",
"J Z.P.U.'.].[.*X;X;XrX-XyXyX2.0 ~ 0.0.+.O.)  .q.DXSXNXFXDXSXDXvXQ.W.I I I U I ..Y I K K L G K K K K P U P Z.|.L M ^ g l h f j y ",
"K.`.[.].*X*X1X2XrXrXfXyXmX=Xs b g.v.x.f.f.a.y.) nXKXFXKXKXKXKXZXR.'.U I U U P I I I I K K L K K L H P Y ..Z.|.J B ] g l l y j t ",
"|.].P.2.}.-XiXvXMXMXZXHXKX3Xp ^ p.v.8.$.x.k.) ~ }.KXPXKXKXKXLXNXR.W.U Y U ..Y P L L L Y F F F F K K P P I Z.|.J k ] g y y y f t ",
"J x w f |.CXVXCXMXDXDXHXKX*Xd ^ v.z.+.+.+.i.O.O.(.HXHXHXFXFXFXMXR.W.U P I ..I P K K K L L L G Y L K K P L 3. XJ k ] g y t y f y ",
"r 7 q q |.fXkXfXfXCXCXMXfX<XB { k.i.O.+.k.i.~ O.@XCXCXVXAXVXMXmXQ.R.U Y I ..P K I I L L I Y Y F K F K K K 2.}.J g ^ f y f y h y ",
"t v C j ^.yXyXdXaXuXyXgXfXrX|  .v.l.$.$.f.k.+.+.L.jXgXfXCXkXfXyXP.T.P L L Y K L Y K F F K F F Z K F K L K 2. XS c ^ j x f e j f ",
"6 9 t , E.yXuX9XuXdXuXuXkX>X8.8.c.XXXX$.$.` ' $.0.9XgXkXCXCXkXuXH.T.P H L L F F F G F L K L K F L K L I P 3.{.J j k g c g f h y ",
"q 8 t 9 E.yXyX8X8XyXyXyX0X#Xk.y.0.XXk.$.+.( ( ( +.#XfXfXkXkXgXyXD._.L I L L L I L I K L K F K K K H L L K C.].J y g d k w y g y ",
"F v v e E.yXaXfXuXyXtXuX0X%Xv.+.^ 8.$.+.+.+.+.( { L.yXdXtX0XfX0XF.Q.I Y K I L L K L G F L F L F K K L I K C.].J y x s d x j t z ",
"Z b T Z /.yXfXfXkXyXuXjXyX9X#X0.p a +.+.( ( ' ` d 6.dXyXuXjXdXuXG.Q.P K K L K L F Y G F F S F F K T L P L C.`.S l j e d h j u j ",
"K H Y J /.uXdXfXdX0XuXaX0XyX0X$Xd : a +.$.' ' ' : o.fXuXuXuXdXuX_.Q.I K K K J K F Y F F S S F F K H L J K C.^.S l y s a e q t j ",
"Z Z 1.,.).fXdXfXdXdX0XuXuXyXdXuX| : : d ) ) ( d : f 6X0X9X0XdX0XH.E.U K K K L K F L Z F F S F S K Z K K J 3.`.S l c Q R Q Q z f ",
"1.G..X].eXgXyXyXdX9X0X0XuX0X0XaXL.: & & : 2 : & % < &XkX0XdXfX0XG.E.U K K K K K F F Z F F S F S S Z K K F C.W.n s a 3 R E @.d w ",
"..F.'.P.).qX6XyX7X>X8X6X8X8X6XrXOXB : : & % % % : s @XtXrXyXyXtXK.Q.Y L K J J K F F S S F S F F F Z F Z Z 4.W.n a 2 3 R E @.@.s ",
"m n K Z 3.&X$X}.&X;X-X=X;X&X&X@X0.k.~ 4 2 * : 2 ^ 6.}.[.&X=X=X:XD.Q.I K K J F K F F F F S Z F F F Z F Z Z 4.E.b r 2 R 3 E E W s ",
"L J L S 5.}.[.[.[./.).&X}.&X).).8.a.i.+.' Q Q ) (  .{.G.!.}.}.&X).^...F K F K F K K T Z F Z S A Z Z A K C ,.^.N p s 3 R E E W p ",
"F.G.Z.J 3.^.~.!.~././.}.}.|.}.eX#Xl.k.8.` ) ) _ )  .{.^.(.).=X&X-X=XF.F K K F S K Z F F Z Z A Z n Z A A n 3.W.x w d 5 a 3 1 w 9 ",
"K.K.Z.H 2.^.].(.E.^.(./.|.,X'.BX8X#Xz.p.s.y._ _ ' 9.{.|.}.*X<X-X-XqX|.F.K K Z S S H H F Z S Z Z Z Z S Z n 3.E.b t q r s s q j w ",
"_.F.U H 1.W.T.T.W.~.!.&XqXcX'.xXvX8X#Xk.a.a._ e.;.#X=X;X-X=X-X-X-X-XqX|...K A S F Z F T Z Z A Z Z C S A n 1.W.Z j f s g d s w s ",
",.,.m v I E.U.~.T.E.}.sXpXcX{..XBXvX>XXXa.f.x.i.z.>X-X;X-X=XqX:XiX2X<X<XP.P Z T Z Z H Z A C A C Z v C Z Z 2.`.v 7 7 7 : , 8 8 7 ",
"S P n n [ ~.U.~.T.}.2XiXrXpX.X'.wXvX2XXXl.c.c.z.OX:X=X6XrX,XwXsXrXiXrX-X,X<.b C Z Z Z Z C C C C C v C C n 2.R., o X X . o # @ @ ",
"y H B B | I.E.E.|.rXaXsXiXrXwX.X-XvX>XXXv.v.a.z.;X<XqXqXrX=X,X<X-XiXrX-XyXQ.H Z S Z T Z Z C C C C C C b b ,.R.% . .       . X X ",
"3.Z.6. .6.J.W.`.iXbXbX2XtXqXvX,X2XiX>X+Xv.v.g.oX&X<XwX;XiXeX,XiXiXrX-X-XqXqX2.Z Z Z Z Z C C C C C C C Z x P G.@           O     ",
"<X-X;X>.6.(.(.<XaXbXiXsXiXsXrX:XtXsXyX#Xx.g.z.@X-X<XiXrXrXrXrXrXqXrX;X2XeXcX'.S T G k m A A C C m m n x n ..Z.#                 ",
"}.).$X5.6.~.E.wXbXbXpXiXrXrX<X-XrX2XiX+Xx.g.z.@X*X<XrXrXrXrXrXrXrXbX1X<XsXtXI.L Z S F C C C b b M v v v b L 1.X                 ",
",.4.5...Z A.D.wXbXpXiXiXrXrXrXrXrX2XjXXXv.g.0.@X*X-X<X2XiXrXrXrXiX2X<XwXiX(.q.7.D n Z A C C C b n h v b x H Y O                 ",
"b U C.,.K Z.D.wXaXaXiXiXiXsXrXrXrXtX9X+Xc.l.0.;X-X-X-X<XrXrXrXrX2X2X-X].U.L.p.r. .n m Z C b n b n x x x x H A .         . o .   ",
"G.^.E.K A 1.C.=XbXpXpXaXiXiXrX6XrXtX>X+Xv.p.OX6X*X-X-X<X<XrXrXrXjX2X`.4.7.s.j.h.0.| m C C b c v c x v g c L v           # @ @ O ",
"~.|.W.n C U 1.*XbXaXbXaXsXtXrXrXyXtX#Xv.x.8.@XqX*X-X-X-XsXsX8X-XiX<Xq./ _ r.u.g.g. .N C C n c v c v x f j } t         . @ = = @ ",
"].^.H.n b ..o.{.aXbXbXbXbXaXsXiXsX:XXXc.a.8.@X=X*X-X-X-XrXiX2X-X.X-X9.~ ) i.e.u.t.8. .m b g n g v f h h g L 0         O @ - - - ",
"..P J h g I I U.bXaXbXkXaXaXsXtX:X@XXXx.a.k.@X<X-X<X-X-XrXiXrX-X>X-X5.[ / +.$.r.r.f.7.Z h n h g v f h c g D ;           .   . . ",
"e e w h e L J C.BXvXjXbXvXuXjXiX>X+Xc.g.a.p.OX1X<X<X<X<XrXrXwX<X-X=XP.F ^ ' e.8.g.r.8.B v c c h x h l g ! ] * .       .   o # # ",
"J n x g h L K ..<XCXaXNXBXwX1X.X!.v.c.f.a.8.OX1X<X<X<X<XrXsXsXrXqX-X].K D ~ _ ;.s.u.g. .v c c g x b f d s B * . X X + + o # . + ",
"3...P Z L I J J U.MXhX1X*X#XoXL.z.c.j.s.s.8.@X1X=X<X<X<XrXrXrXsXpX-X&XU n V ) 8.u.u.a.7.b f g x v j p Q e c > o X X + .       . ",
"2.,.F , ; y Z f Y .X;X#XXXb.f.d.c.c.g.s.i.0.$X-X*X-X<X2XrXtXrXtXpXsX6XF.A M ) a.d.h.u.8.n l D T x h p ! z z = o X X .     O O # ",
"c y q 7 7 e h S c 6.XXn.n.j.j.b.j.j.r.y.i.0./.&X-X<X2XsXiXtXtXtXsXtXtX;XU m ^ s.r.h.h.8.N l U T f j < d s q = - $ * * r g P 3.S.",
"w e 7 , ; y Z h h B k.n.n.j.j.m.j.d.y.;.i.0./.*X<X2XrX2XsXsXiXtXsX2XtX8XD.C k p.d.r.u.p.D q Y K f l B [ p S 5.D.D.T.~.}.|.}.).}.",
"e r , , , t n c A A 7.c.j.c.j.j.d.s.8.#.$.0.(.&X*X-X2XiXrXrXrXsXaXqXtX9X;XU M 7.h.e.d.a.>.T 4.>.S t < d 6 L }.E.E._.^.T.!.P.S.Z.",
"N f 7 9 i t m Z n m | m.j.x.u.r.e._ ;.` #.9.H.E.[.-XsXaXiXiXtXsXyXwXiXtXsXD.n ^ 8.a.d.u.7.R. X$Xo.C.r Q i c K.<.P P P.2.2.2.S.^.",
"..J } J n P ,.J F Z N 8.j.d.r.8.e.;._ _ 7.6.H.J.I.].-XiXbXaXaXaXaXaXiXiXaX^.n M ) y.u.g.9.!.7X7X).gX7X}._.K.D.D.Z.P.}.K.<.P P C.",
"o.P } } J <.5.o.J F J  .;.e.r.e.` ` ) O.L.$X/.3X3X;X;X&X2XaXaXaXtXaXaXsX&X} P <.8.e.r.h.0.&X7X$XyXlXV.N.-.5XB.:.N.B.0X6.D r 9 , ",
"J H J J H J o.} ,.,.} o. .) _ #.;.` ( O.J./.*X1X:XiXiXrX2XrXyXbXaXCXpX!.N D S.[.2X0.r.t.m.5Xw.:.:.8.-.*.&.*.&.%.&.%.-.:.>.[ t ; ",
"5.<.<.} J P } } P <.5.Z.,.[ ` r.+.( O.L./.*X-X*XtXsXsXiXbXyXpXpXbX].L g <.S.J.J.E.0.c.f.m.5X4Xw.w.w.-.*.&.*.-.*.&.*.-.:.V o.I.I.",
"S.H.S.<.J D } ....} | 1.C.2.7.) ) (  .P.].*XrX-X<XyXvX<X=X/.G.<.x g 5.H.K.H.I.J.H / j.f.XX$XyXbXfXaX5XN.=.=.zXzXB.5XyX X,.4.T.W.",
"H._.J.5.} } o.,.X.o.o.| ..o.<.| ^ 9.o.D K J } o.0 f g 0 , , , < N J.H.J.K.K.J.K.S. .g.c.v.>.4.P.E.7XsX0X5XB.CXDXvX,XD.Z.H.`.Y , ",
"D.G.G.5.} } <.<.2.<.o.| o.2.<.| A.&X}.~.I.Y.A.A.3.C.Z.A.S.A.H.~.E.!.(.J.!.J.J.K.6.O.v.b.x. .j j S Z.D.w.~.$XdXpXdXfX/.).W.(.6.S.",
"_.H.J.D.<.o.2.2.<.6.2.A.2.o.<.2.P. X].[.3X^.E.J.P.P.P.H.T.~.T.T.(.6.J.!.K.!.(.(.K.q.x.b.c.0.r 0 r G } Y.A.4.K.T.{.qXmXvXyXaXkX7X"
};
