/* XPM */
static char *waka11_jpg[] = {
/* columns rows colors chars-per-pixel */
"64 64 248 2 ",
"   c #020203",
".  c #0A0B0B",
"X  c #06080A",
"o  c #191918",
"O  c #0E1112",
"+  c #251D16",
"@  c #32261C",
"#  c #1C2122",
"$  c #2B2824",
"%  c #352B25",
"&  c #39342C",
"*  c #3C3833",
"=  c #211C20",
"-  c #483329",
";  c #453C36",
":  c #483027",
">  c #743D30",
",  c #45433C",
"<  c #4A463E",
"1  c #5A4537",
"2  c #67473B",
"3  c #6B5339",
"4  c #454541",
"5  c #494642",
"6  c #4D4A45",
"7  c #4B4A48",
"8  c #524D45",
"9  c #534E4A",
"0  c #5A4B46",
"q  c #55534C",
"w  c #5A544C",
"e  c #5D5A4E",
"r  c #585747",
"t  c #5B5652",
"y  c #5D5B52",
"u  c #5D5B59",
"i  c #51504C",
"p  c #694B46",
"a  c #774A44",
"s  c #67554A",
"d  c #75574B",
"f  c #635653",
"g  c #635C54",
"h  c #6A5D53",
"j  c #635E5A",
"k  c #6A5B59",
"l  c #795954",
"z  c #5D6253",
"x  c #646156",
"c  c #6A6255",
"v  c #65625C",
"b  c #6B645C",
"n  c #6D695E",
"m  c #67695E",
"M  c #70665C",
"N  c #726B5E",
"B  c #796458",
"V  c #7A614D",
"C  c #656461",
"Z  c #6B6562",
"A  c #6D6A64",
"S  c #686666",
"D  c #716664",
"F  c #726C64",
"G  c #736E69",
"H  c #7B6F69",
"J  c #757165",
"K  c #797266",
"L  c #76726B",
"P  c #7A746C",
"I  c #7C796E",
"U  c #7E7965",
"Y  c #7B7671",
"T  c #7E7972",
"R  c #6F7269",
"E  c #615F60",
"W  c #923738",
"Q  c #B03639",
"!  c #B41B2D",
"~  c #85473C",
"^  c #C13E44",
"/  c #84564E",
"(  c #896856",
")  c #946B58",
"_  c #87725A",
"`  c #926B55",
"'  c #A66E58",
"]  c #AA765A",
"[  c #B57B5C",
"{  c #936D66",
"}  c #817A6E",
"|  c #877767",
" . c #957466",
".. c #827C74",
"X. c #897F76",
"o. c #847E79",
"O. c #877B77",
"+. c #8C6F68",
"@. c #A97962",
"#. c #B87B66",
"$. c #AE756C",
"%. c #AA4949",
"&. c #C37C5A",
"*. c #7E822D",
"=. c #7D8276",
"-. c #B9B43E",
";. c #D2DA12",
":. c #CCD62B",
">. c #E5D135",
",. c #E3D512",
"<. c #B28C59",
"1. c #868176",
"2. c #898276",
"3. c #85827A",
"4. c #8C847B",
"5. c #8D897E",
"6. c #928A7D",
"7. c #938879",
"8. c #908971",
"9. c #AA8268",
"0. c #B88669",
"q. c #A58874",
"w. c #B58A73",
"e. c #B6987C",
"r. c #AEA744",
"t. c #C4845C",
"y. c #D0865D",
"u. c #C68867",
"i. c #D38C66",
"p. c #CA946A",
"a. c #D4946B",
"s. c #DB946B",
"d. c #D8976A",
"f. c #C68C73",
"g. c #D68D76",
"h. c #CA9579",
"j. c #DC9B73",
"k. c #DD9C7C",
"l. c #D79778",
"z. c #E29D7C",
"x. c #E29C75",
"c. c #E2976F",
"v. c #D8A179",
"b. c #E1A17B",
"n. c #D1D74F",
"m. c #CDD371",
"M. c #E8DF5E",
"N. c #897C83",
"B. c #8D8A82",
"V. c #8E8781",
"C. c #938C83",
"Z. c #978C83",
"A. c #9B9385",
"S. c #959289",
"D. c #9C948B",
"F. c #989587",
"G. c #9E9891",
"H. c #A1968B",
"J. c #A39A8D",
"K. c #AA9B8D",
"L. c #A89884",
"P. c #B99887",
"I. c #A49C93",
"U. c #AA9E93",
"Y. c #A29694",
"T. c #A8A18C",
"R. c #B6AB8B",
"E. c #ABA295",
"W. c #ADA49B",
"Q. c #AAA699",
"!. c #B1A595",
"~. c #B1A69B",
"^. c #B4AA9C",
"/. c #BAAC9D",
"(. c #B9A698",
"). c #BBB19C",
"_. c #ACA8A1",
"`. c #B4ABA2",
"'. c #BAAEA3",
"]. c #B4ABA7",
"[. c #BCB2A4",
"{. c #BCB5AB",
"}. c #B7B3A9",
"|. c #B7B8B0",
" X c #C89A83",
".X c #DA9D83",
"XX c #E39C81",
"oX c #C7A58C",
"OX c #D8A488",
"+X c #C8A896",
"@X c #D7AB96",
"#X c #C4B49B",
"$X c #D6B49B",
"%X c #E2A688",
"&X c #C4ACA2",
"*X c #C3B3A5",
"=X c #C3B5AA",
"-X c #C4BBAD",
";X c #CBBCAD",
":X c #C9B6A6",
">X c #D4BCAC",
",X c #D9B8A5",
"<X c #C4BCB2",
"1X c #CCBEB2",
"2X c #C2BBB6",
"3X c #D2BEB4",
"4X c #D7BBB5",
"5X c #E1BCAA",
"6X c #D1CC90",
"7X c #C9C4A8",
"8X c #D5C7AC",
"9X c #CDC2B4",
"0X c #CDC4B9",
"qX c #C9C5B7",
"wX c #D2C3B5",
"eX c #D5CAB4",
"rX c #D9CCB4",
"tX c #D4C5BA",
"yX c #D5CABA",
"uX c #DACBBC",
"iX c #D9C4B8",
"pX c #DCD2BC",
"aX c #D9D0B9",
"sX c #DDD5AC",
"dX c #E2D5BE",
"fX c #E8D4BA",
"gX c #E7CDBD",
"hX c #EAE3B4",
"jX c #E5E68E",
"kX c #D4CCC2",
"lX c #DCCDC1",
"zX c #DDCBC6",
"xX c #DCD3C3",
"cX c #DAD6C9",
"vX c #CBC3C0",
"bX c #E2D5C2",
"nX c #E2DBCB",
"mX c #E4D9C8",
"MX c #E3DDD2",
"NX c #EADED8",
"BX c #E6CECA",
"VX c #DDE2D6",
"CX c #E5E3DB",
"ZX c #E7E3D8",
"AX c #EBEAE5",
"SX c #EBECEA",
"DX c #E7E8E5",
"FX c #F1E8E7",
/* pixels */
"C.G.}.|.}.G.=.J L ..O.5.C.V.C.6.7.2.5.3.I L D v L t 7 4 4 4 4 , q A L A G G o.T V.T T T T T T 3.P T ..T ..X.C.0X3.F { F m b b f ",
"}.|.|._.Y.B.3.2.C.I.~.'.=X=X=X=X*X!.D.Z.B.3.Y b L m j t 6 < , , q Y L L Y T Y O.o.T Y T T T T T Y =.......X.C.1XO.N { M b b b j ",
"}._.S.V.o.o.B.C.F.D.J.^.=X:X3X>X;X*XU.D.6.O.5.5.C.5.2.2...K n g S 3.T P T T T o.o.o.N.T T T T T T T T ......Z.1X3.M { n b C Z v ",
"S...G G G K P P ..o.V.C.J.).>X8X3X*XJ.6...U 7.F.A.H.E.~.~.~.U.J.C.B.3.T T Y 3...3.=.T T N.T T T T T Y ......C.qX3.n { v b b b c ",
"G.S.S.S.5.O.} K H F A G 2.D.D.6.G.G.6.2.3.3.S.G.E.~.^.~.U.K.K.J.Y.C.O.Y T T 3.o.T 3.T o.1.T T T T T T T ..1.C.qX2.M { N b b j j ",
"D.D.I.W.W.~.^.`./.'.`.C.L z 9 7 8 u A G A R Y o.F.H.J.J.T.K.J.K.6.C...} ..o.Y o.o.T o.T T ....T I I T T ..O.C.qX3.b { F b Z g j ",
"U.E.W.`.{.<X<XqXuX-XS.u 4 t t i u y u E S A S Y T O.2.6.D.J.J.J.5.2...Y T o.Y o.o.3.3.o.o.T T T P T Y T T ..6.qX2.b { F m C j j ",
"E.`.`.}.<X1X-X1XS.j 4 7 t g t Z C u S A Y V.Y o.V.S.F.F.I.E.~.[.C.2.4...T T 3.3.o.o.T T T T I I P T T Y I ..5.-X4.M { N b v j b ",
"~.`.`.{.2X{.5.j 4 5 t t h M N K K K } V.Z.V.B.G.Y.Q.Q.`.'.-X1X;X:XF.D.5.X.I 3.T o.o.o...T T T T L T L I Y ..B.<X4.M  .D k Z v j ",
"`.[.}.].B.w < , 9 u j b F ..6.I.2X`.S.Z.D.Y.Q.Q.^.{.-X-XeX;X9X9X:XJ.Q.X.Y 1.T ..o.o.o.T T Y Y P L T L P T ..5.7X5.k  .D M b x k ",
"{.}._.m * , 7 q j Z K 2.J.'.kXZXMX=XD.D.E.`.{.qXqX7XqX7XaXtXbXmXuXF.S.3.o.2.T 3.o...o.T T T I P G T L T ..o.5.-X4.M { D b j c j ",
"F 9 < , , 7 t S J 6.I.0XMXMXxXwX`.I.I._.2X<XqXyXxXcXcXcXZXZXxXP.N 6 4 9 y Z 3.T ..o.o.T T T T T Y T P Y ....2.-X4.k ) F b C x j ",
"& & ; 5 6 9 t T ^.kXZXZXkX'.U.D.G.W.{.qXkXcXcXMXZXDXDXSXDXvXO.; : & % % $ ; A 3.o...o.o.T o...T L Y Y T T o.2.-X4.h { D b b x E ",
"* * 5 4 * < t I.cXxX=XH.6.C.H.I.}.{.qXcXMXZXDXSXSXAXAXSXcXP ; ; 2 p 2 ; : : 0 =.o.O.o.o.T T T T L Y Y T T O.2.9XV.h ) Z h b v Z ",
"4 4 * 5 7 7 q m 3.2.2.2.C.Y.U.].-X0XcXZXSXAXDXSXDXAXSXDXW.9 1 _ f.h.f.] ] @.( J O.o...T o.T Y Y L Y Y T T ..2.9X4.h ) C h b c v ",
"q 4 7 4 7 7 9 j Z F O.C.I.W.`.<XkXZXFXAXAXSXSXSXCXDXDXCX5.p 3 q.z.s.x.j.i.j.w.| o.o.....T Y Y L L P T T T O.2.9X5.h ) b c j v j ",
"f q t 9 g t E Z ..C.D.Y.~.}.-XyXcXMXZXZXZXVXCXCXNXMXVXMX7.9 / 9.z.XXl.c.s.u.#.| T o...T ..Y G Y L G P P T T 2.0XB.b ` k j j x j ",
"D v c m D Y o.S.G.W.`.}.|.1X3XtXeXyXxXcXcXMXVXZXNXVXZXMXE.s B w.k.f.] ] u.' { ..Y o.T Y Y G P Y P Y L L T I 1.<XB.h ` Z b x x h ",
"F c n } B.Y.G.Q.W.].{.=X1XtXtXtXeXyXpXbXbXnXnXnXnXVXNXVX#X( { h.l.f.) #. X@.) } T o.Y P Y G L L Y P Y L I I O.<X4.h ` Z c j g g ",
"c F 2.J.I._.^.=X-X-X:X7XwXeXiXyXkXxXcXnXMXMXZXZXZXDXFXCX+Xu.w.l..Xf.0.g.XXg.f.q.T T Y G Y G G L G L P L T I 1.<X3.h ` Z j y y w ",
"H.J.~.{.].=X=X*X1X7X0XeXaXpXcXcXMXCXDXDXAXDXSXSXAXSXDXDX@Xi.<.f.XX.Xg.l.i.g.g.f.Y T L L P L L L P G L P T T 2.2Xo.h ` D h y e g ",
"'.`.`.D.2.D.wXuXzXbXMXNXZXZXAXAXSXAXAXSXSXSXSXDXFXSXSXDXgXg.] 0..XXXk.s.&.[ #.9.Y T Y L Y L L G Y P L P P Y 1.{.3.h ` b j e y g ",
"C...m r 8 } uXbXnXcXnXZXZXcXZXnXMXVXMXMXZXMXCXCXZXZXMXMXmX@X] ( $.h.h.u.#.' @._ L Y L L Y L L L H G G P P P ..'.O.g ` j g e y g ",
"q 9 7 e q ..pXaXpXeXaXxXpXxXfXpXmXbXnXnXnXnXnXnXnXmXmXNXmXmXP.2 2 ) u.u.&.' $.p G Y L Y Y Y L L G G G K L P } `.3.h ` k j y g g ",
"5 q u C j D 0XeXeXeXrXuXuXpXpXxXxXpXpXdXdXdXdXdXdXbXfXfXkX+Xh.d - p ) h.u.[ ` 1 F P F G P F D K L L L L K P T `.o.h V / x f f g ",
"5 < 4 i t b 9XeX8XeXeXeXrXuXrXpXuXpXpXdXbXbXdXbXdXxXpXaX1Xw.f.d - - 1 ( / 3 - : v P P A L Y P D L L L L P I O.].3.y c l l k y z ",
"B.F w q y b 7XrXeXeX8XeXrXrXeXrXrXaXpXbXbXbXdXbXpXpX7XqXwXw.f.' - % @ - : : @ % j L Y P Y G G Y L P L K I I I `.O.z z z d t t g ",
"`.5.Z j Z F wXaXrXuXeXeXrXrXeXeX8XrXuXdXxXyXiXyXeXqX_.|.uXoX0.a.( 2 - & % + - 0 x J J D G L Y A L G A J I K U }.O.h h g l s f k ",
"S.T A A L ..eXeXpXpXrXrXrXrXeX8XrXrXeXyXeX9X;X;X-X<X].|.kX4X0.i.u.#.) 2 2 d Z.C.C.C.C.5.O.F G G G J J J L K I [.=.e g g a f r e ",
"5.P S R Y 1.eXaXdXpXrX8XrXrXeXrXeXeXyXtXwX1X;X;X9X-X].}.0XyX+X0.p.&.' ] ) q.*X}.].'.{.<X`.4.G F D F L L L K I Q.T e e s a a s r ",
"O.P L V.B.D.tXeXsXrXrXrXrXeXeXrXyXeXtXtXtX3X1X1X1X=X`.}.9X0XtXh.u.u.t.0.q.&X=XW.'.1XqXiXyX1XE.5.P Z Z L L L I Q.2.s p / W Q %./ ",
"T Y B.}.|.|.xXeXrXrXsX8X8XrXeXeXuXeXtXtXtX1X1X1X1X;X|.0X8X1XvX,Xh.u.p.f.oX4X2X{.1XtXwXwXiXyXyX9XI.U D J J n P W.o.9 2 3 2 Q ^ %.",
"T T =.F.S.C.*X*X*X:X;X1X8X8X;XwXtXtXwXwXwXwX1X0X1X1XeXwXwXwXwXwX:X@X XoXrX0XwXwXtXwXuXgXxXyXuXuXbX~.O.A R m K `...0 1 p 2 W ^ Q ",
"m x x A Z D ~.-X*X:X=X=X#X:X9XyXtXtXwX1XwX3X1X1X1X3XwX9XwXtXeXyXwX5X$X,XuXtX3XiXuXuXlXbXpXlXuXzXkXcX0Xo.N J J Q.O.q p 2 > Q ! ! ",
"..2.2.5.1.J E.'././.[.*X*X:XwXyXtXtXiX9X3XtX0X1XwXwX9XwX0XiXyXkXyXlXrXuXtXiXkXuXyXxXBXbXyXuXiXuXpXpX9XP.q._ _ !.I 8 l 2 ~ W W 2 ",
"T.T.J.F.2.F E.^.^.!.!./.*X9XyX8XtXtXiXwXwX1X3XtX3XtXtX0XwXtXtXiX0XkXyXuXtXzXzXiXtXgXuXBX>X,X$X@X+X@Xe.f.l.0.w.e.| 2 q 8 3 3 h y ",
"T.T.T.F.5.P J.~._.W.!.^.{.yXxXeXtX0X9XiX1X:X<XtXtXtXtXtXtXtXtXwXtXlXyXuXuXuXuXeXiXiX,X5X@XOXl.k.z..Xp.a.i.y.<.[ <.) q j e s w w ",
"T.J.6.2.K v D./.W._.^.^.{.tXkXzXyXtX1XtX;X'.1XtX0XtXtXtXtXyXyXtX4XlXuXzXiXuXuXeX8X5X@X%Xk.XXk.z.g.u.p.d.d.d.d.a.p.h. .y p f q g ",
"A.6.8.U n h Z.~.~.^.~.(.oX+X7XvX9XiX9XwX*X/.9XtXtXtXtX0XtXtXiXiXwXuXlXgXuXeXyX3X,X@XOX.Xz.b.k.h.0.[ 0.u.i.j.d.d.c.j.w.3 @ o o $ ",
"U K J K M D A.!.!.E.!.oXOXh.!.}.<XtX1X-X/.^.9X0XtXtXtXtXtXtXwX9XwXyXkXkXuXtXeX4X@XOXk.z.b.l.w.$._ ` ' #.u.i.d.j.d.i.l.w.:     O ",
"c x C F d V q.E.E._.(.j.d.c.s.p.U.].qX`.K.#X=XiX0XkXtX4XkX4XiXtXtXtXiXkXwXwX3X:XoX X.Xg.l.f. .| M B _ ) ) ] i.i.p.p.i.OXd       ",
"E.T.Q.E.P. .K.`.~.`.oXs.s.s.s.h.p.w.L.Y.K.{.3XtX3XwXtXkXkXtX9XwXtXtXtXiXtXwX;X*XP.+X Xw.9.q._ k n N N B / ( ' ] 0.&.[ h.d       ",
"7X7XtX7X$X7.L.`.E.+Xl.d.i.i.i.p.y.9.q.G.U.&X1X4XwXeXyXtX0XtX4X4XtXwX3XtXtX3X;X;X/.>XP.q._ | n v D m j f V V V ( ) ] ] ' :       ",
"T.^.).^.!.| Z.U.L.oXz.s.i.y.y.&.#.7.T.^.&X&X1X0XtXtX0X0XtXtXwX>XwXtXwX3XtX3X1X3XiX1XE.C.F A m S Z b x z x x V | p 1 - @ X       ",
"3.1.P 1.5.J 1.C.L.OXj.j.d.y.y.[ q.q.F.I.=X>X1X1X4X9XqX9XiX4X$X+X3XiX4XtXiXtXiXuXuX=X`.Z.D Z b b v c j y x z c 2.$               ",
"I K I F.D.K =.5.L.v.b.d.d.a.i.t.u.q.5.C.`.;X;X4X4X4X3X,X,X$X+X+X1XwXtXtXtXiXuXlXiX=X-XV.Z m v x b g x e x x x ..#         X O o ",
"}.^.^.}.G.v R 3.e.b.c.v.d.d.j.d.y.u.0.w.e.+X,X,X,X,X$X@X.X.X@X,XtXtXtXtXwXuXlXuXwX;X9X2.v b b c g j b g f s g ..o   X     o = = ",
"T.T.).).G.x L ..q.c.d.p.d.d.v.d.d.j.j.c.i.l.@XOX@XOXXXz.XX.X@X;X3XtXtXtXwXlXlXuX9X0X-X..n b v b v e j g j c g P o         O o = ",
"T.D.E.E.1.y A T X.$.w.u.i.i.i.p.a.j.x.a.z.b.b.XXv.XXXXb.XX.Xl.OX>XwXyXyXuXlXlXtXwXwX'.H n b g b z x f t g g l B X         . . . ",
"y m N Z b e m T I U _ 9.<.[ 0.u.t.u.a.d.j.j.b.k.XXXXz.z.k.l.f.u.&XiXeX9XtXwX1XwXwXiX[.F x x D j x g h t g h l K .             X ",
"g n e g e q x I Y L P }  . .' ' [ [ #.u.0.g..Xl..Xz.k.b.k.a.u.u.(.iXuXwXtXwX9X9XtXiX`.H x j b g j g f e f d p z X   X X X O . O ",
"} 5.I K x b T P T Y Y R I P | B B B B _ _ q.+X Xh.h.k.b.j.#.#.0.(.>XuXxXlXiXwX;X9XtX].F Z j g x y t y e d d f e O . . . X X     ",
"2.F.6.5.A x N F D A A G G A A m m S Z Z D I.1X*X+X Xh.h.f.$.0.P./.:X1XkXzXuXuX9X9XyX<XF g v j b k y y e a s g 6 O X X X X       ",
"J 1.L L x , , v v v Z Z Z Z C C Z A D Z M H.tX;X&XK.P. XP.P.(.=X:X1X=X;XiXyXyXuXeX1XyX4.e j j x H m r r a 0 8 ; O X . X . o $ * ",
", z j q 6 ; 6 v z C C C S A A C A m S C A 5.9XiX=X/.(.#X+X&X&X=XwXyX1X;XeXiXeXpXuXwXuXA.j u E E ..v r q / h i b q z J 3.C.J._.}.",
"* 8 e 9 < , 9 j x Z A A A A S C S C Z A C P `.1XzX1X=X{.{.<X0X1X1XtXtXtXwXyXuXtXlXlXwX8.t u S S 1.M g i l h r S.}._.^.!.^.*X'./.",
"6 x e r , , 8 m Z v n F S G G C b A C A A Z K } ~.0XyXiXwXwXiXuXuXiXuXzXuXuXkXzX1XY.5.2.b g P S.R.1.D 1 1 2 9 8.Q.5.5.6.T.F.G.7.",
"9 I A x e t w D L n D G A F G A S A v j S L 5.n 9 H ..Z.E.`.].Y.U.`.=X=X{.~.6.F q K C.E.4.j I 7X7XQ.^.J.2.N.K 1.C.T P G.G.8.U 3.",
"8 1.I I } 1.P 7.5.K n F L L G Z A Z C v b O.<X[.S.T y m g $ $ % % % & * % + % 8 P I.E.E.~.Z.L.).6X[.bXhX6Xm.6X{.R.e.R.7X{.6.K m ",
"z 1.=.U K K F ..2.} P P J F J J A Z m C j X.{.*X{.|._.D.T w 8 & & $ o + % 6 ..E.W.`.E.E.~.~.7X7X$XoX$Xn.:.;.:.n.:.:.:.n.6X1.c x ",
"n 1.U J } U K } X...X.7.2...} P L F m v Z E.-X*X=X=X].E.I.E._._.W.Y.Z.V.D.E.`.^.W.W.!./.!.T.7X7X-.r.<.-.;.;.n.n.n.n.jXm.n.m.7.5.",
"6.A.6.6.7.} K } X.} } 2.C.C.5.} K P F F P =X=X^.'.'.[.'.!.^.~.U.W.~.`.'.^.~.E.(.!.~.T.J.T.Q.#XeX6X7X7X6X>.;.M.jXhXmXn.m.7X7X6.8.",
"F.L.A.T.A...K } | } } } } X.2.2.5.} F F ..<X;X}.'.'././.~.!.E.'.^.'.~.K.A.Z.H.K.J.K.!.^.^.E.T.).1XeXqXcXaXM.>.>.6XR.r.< t c A j ",
"6.J.J.T.I.2.P X...X.2.X.2.X...2.2.2.2.....W.`.A.D.U.U.~.{.~.E.U.~.E.E.U.K.I.U.~.`.)./.!.Q.~...e I F.T.R.7XaXsXsXsX).A.B.J y 4 & "
};
