/* XPM */
static char *waka25_jpg[] = {
/* columns rows colors chars-per-pixel */
"64 64 255 2 ",
"   c #020102",
".  c #040609",
"X  c #09090B",
"o  c #05080C",
"O  c #1B1C1B",
"+  c #161715",
"@  c #070C10",
"#  c #281E1C",
"$  c #29211B",
"%  c #3D2B1D",
"&  c #262725",
"*  c #362D2B",
"=  c #34312D",
"-  c #3B3937",
";  c #2F3130",
":  c #453B36",
">  c #493326",
",  c #783E33",
"<  c #45423D",
"1  c #4B473C",
"2  c #584637",
"3  c #65493B",
"4  c #7D443E",
"5  c #68653C",
"6  c #494642",
"7  c #4D4A44",
"8  c #4E4B4A",
"9  c #454544",
"0  c #544E4A",
"q  c #564C45",
"w  c #54534C",
"e  c #5A544D",
"r  c #5C5A4E",
"t  c #565648",
"y  c #5C5651",
"u  c #5D5B53",
"i  c #585A54",
"p  c #4C4F50",
"a  c #674A43",
"s  c #744B46",
"d  c #65554B",
"f  c #75574B",
"g  c #625D54",
"h  c #6B5D54",
"j  c #635D5A",
"k  c #6B5D5D",
"l  c #755D53",
"z  c #785A55",
"x  c #5E6356",
"c  c #58634D",
"v  c #646256",
"b  c #65625B",
"n  c #6A655D",
"m  c #6B695E",
"M  c #6A6455",
"N  c #72645A",
"B  c #79665A",
"V  c #75624C",
"C  c #666563",
"Z  c #6B6562",
"A  c #6D6A63",
"S  c #6A6B69",
"D  c #726D65",
"F  c #736E69",
"G  c #786C66",
"H  c #747166",
"J  c #797265",
"K  c #75726A",
"L  c #7B756C",
"P  c #7C786E",
"I  c #797863",
"U  c #7B7671",
"Y  c #7D7972",
"T  c #777774",
"R  c #6E7365",
"E  c #5A5E62",
"W  c #8F3A35",
"Q  c #B12F36",
"!  c #8A4B3E",
"~  c #8B594A",
"^  c #8C4F48",
"/  c #AB4545",
"(  c #83645B",
")  c #876558",
"_  c #966957",
"`  c #97735A",
"'  c #90644B",
"]  c #A56C57",
"[  c #B46D59",
"{  c #AA735A",
"}  c #B6785B",
"|  c #A76E4E",
" . c #8C6A63",
".. c #8A6763",
"X. c #82796E",
"o. c #857569",
"O. c #967967",
"+. c #837C74",
"@. c #847E79",
"#. c #867B74",
"$. c #947F73",
"%. c #916D66",
"&. c #A97A65",
"*. c #BB7C63",
"=. c #B57C65",
"-. c #B37669",
";. c #C67C66",
":. c #C27B5F",
">. c #7F807A",
",. c #CAD611",
"<. c #CCD32C",
"1. c #B48A58",
"2. c #858175",
"3. c #8A8276",
"4. c #86827A",
"5. c #8C857B",
"6. c #8E897E",
"7. c #928A7D",
"8. c #978779",
"9. c #9A9173",
"0. c #A98469",
"q. c #BA8667",
"w. c #A98976",
"e. c #B98D75",
"r. c #B7937B",
"t. c #AB996E",
"y. c #AFAA6F",
"u. c #C5865B",
"i. c #C58B65",
"p. c #C38A6C",
"a. c #CC8C6C",
"s. c #C88767",
"d. c #D28C69",
"f. c #C9926B",
"g. c #D3936C",
"h. c #D5956B",
"j. c #CC8C73",
"k. c #C48B76",
"l. c #D48C71",
"z. c #C89577",
"x. c #D39373",
"c. c #D79978",
"v. c #D4A277",
"b. c #CCD749",
"n. c #D9D84D",
"m. c #D5D56D",
"M. c #D2D270",
"N. c #E4D862",
"B. c #847884",
"V. c #8E8982",
"C. c #8B8683",
"Z. c #938C83",
"A. c #958C86",
"S. c #959185",
"D. c #9A9385",
"F. c #9C948A",
"G. c #9B978B",
"H. c #9D9991",
"J. c #9E9791",
"K. c #A2958B",
"L. c #A39A8D",
"P. c #A69989",
"I. c #B79A87",
"U. c #A49C92",
"Y. c #AB9D92",
"T. c #A79C98",
"R. c #AB9187",
"E. c #ACA296",
"W. c #ACA49A",
"Q. c #AEA99D",
"!. c #A6A397",
"~. c #B3A395",
"^. c #B2A69B",
"/. c #B4AA9D",
"(. c #BBAC9D",
"). c #B9A797",
"_. c #B4AE8E",
"`. c #ACA7A1",
"'. c #B4ACA2",
"]. c #BBADA2",
"[. c #BEAEA9",
"{. c #BCB2A4",
"}. c #BCB4AA",
"|. c #B8B4A9",
" X c #B5B3B0",
".X c #9FA09B",
"XX c #C79983",
"oX c #D49D85",
"OX c #CBA38B",
"+X c #D6A489",
"@X c #C8AA97",
"#X c #CCB29A",
"$X c #D2B29A",
"%X c #D3AE90",
"&X c #C5AEA2",
"*X c #C3B3A5",
"=X c #C3B9A6",
"-X c #C3B5A9",
";X c #CAB7AA",
":X c #C4BAAC",
">X c #CBBBAD",
",X c #CBB3A2",
"<X c #D3B9A7",
"1X c #C4BCB2",
"2X c #CBBDB2",
"3X c #CEBFB8",
"4X c #D4BEB3",
"5X c #E39F86",
"6X c #BEC0AB",
"7X c #CDCA96",
"8X c #E4DD8C",
"9X c #CCC1AD",
"0X c #CCC4A9",
"qX c #D3C4AE",
"wX c #D5C9AF",
"eX c #D1CEA5",
"rX c #CCC3B3",
"tX c #CDC5BA",
"yX c #C8C4B5",
"uX c #D3C4B4",
"iX c #D6CAB3",
"pX c #D9CDB5",
"aX c #D4C5B9",
"sX c #D5CBBB",
"dX c #DACCBC",
"fX c #DAC5B8",
"gX c #DDD2BC",
"hX c #DAD2B7",
"jX c #CBD6AC",
"kX c #E0D4BB",
"lX c #E1D5B3",
"zX c #E6E895",
"xX c #D4CDC2",
"cX c #DCCEC2",
"vX c #D6C7C2",
"bX c #DDD2C4",
"nX c #DDD5CA",
"mX c #DED9CC",
"MX c #D4D2C5",
"NX c #DEDAD0",
"BX c #CED2CA",
"VX c #E1D4C4",
"CX c #E3DBCC",
"ZX c #E3D7C8",
"AX c #E3DDD3",
"SX c #E5E1D6",
"DX c #E5E3DC",
"FX c #E9E5DB",
"GX c #EBE4D8",
"HX c #E6E6E1",
"JX c #E9E7E2",
"KX c #EBEAE5",
"LX c #EBECEA",
"PX c #E7E8E7",
"IX c #F0EDE8",
/* pixels */
"!. X X'.`.5.K P +.6.F.D.!.U.L.L.D.Z.5.@.U F n n A y w 0 9 9 9 9 j K A F K U U U +.Y Y Y Y Y Y U Y K Y @.2.2.W.|.D N %.D A C b g ",
" X|.`.H.V.4.V.H.U.!.|.}.>X>X;X;X;X].L.L.A.C.+.J Y A b y 0 8 6 9 n U F U U +.@.Y @.Y Y @.Y Y U U U U +.@.+.+.W.:XJ N ..m Z n b g ",
"U.6.T U P +.5.6.Z.Z.U.^.(.;XqX<X;X^.F.Z.@.@.6.A.A.D.F.D.Z.3.X.m Y 4.U Y U U @.@.@.@.@.Y @.U U U U U @.+.P X.W.:XJ M ..M n b b g ",
"V.Y P K D G G D J L +.7.K.-X4X;X1X~.D.5.+.4.A.F.K.U.E.W.^.`.Y.L.V.Z.Y Y +.+.+.@.+.@.Y @.Y T +.U U U U U +.+.W.}.J N ) n b j b g ",
"F.J.U.F.F.F.V.Z.3.#.L U P +.D D +.P #.2.2.5.F.H.E.~.~.Y.Y.P.P.D.A.V.U U +.@.+.@.+.@.Y +.+.U Y Y U T L U Y 2.!.{.G N  .n Z b b g ",
"G.H.T.'.{.}.}.1X3XaX'.L w w 0 p w u m b b b K +.5.A.D.F.U.L.K.K.V.C.U U +.B.+.@.@.+.Y +.Y Y Y U K L U U +.+.!.}.J N  .N n j j g ",
"Q.Q.'.}.:X1XyXaX1XC.w < w w w u j j x b K A F Y +.4.6.Z.F.L.K.L.4.4.#.+.#.@.U +.@.@.U +.Y U Y U U L U U 2.P !.}.J N  .n b j j g ",
"/.'.'.}.}.tX}.6.w 9 0 0 g j Z Z Z Z F U V.4.@.V.Z.G.J.L.W././.'.C.V.@.@.+.@.U +.@.@.U Y Y U Y P U L K U Y Y L.}.L N ..n n j b g ",
"Q.'.}.}.'.@.0 6 8 e y g N J X.#.3.+.6.Z.Z.V.F.J.!.Q.'.|.}.:X=X}.'.F.F.X.@.+.Y +.4.Y Y Y T K P L P K U L Y L U.}.J B  .m k j v y ",
"}.yX XL w : 6 w y j D J 2.D.Q.>XnXW.6.Z.G.!.'.}.}.}.}.0X9X9XwXiX}.F.F.U 4.Y K K X.+.Y U P U P P L K L L P U U.}.J B  .n N b v g ",
"U.V.A : : 9 e u A J @.U.:XmXSXGX1X!.F.W.|.}.1XyXtXrXrXsXsXgXgXMX1XF.G.P Y U T >.@.@.Y Y L L K K L L L Y Y +.U.}.J B ) m n x v g ",
"= : : < < 0 y P A.].xXAXSXnX}.U.D.!.Q. X1XyXtXxXnXnXAXGXFXDXDXSX1XY.'.+.U +.Y K U U U +.Y P K P U L K U P +.G.}.J B ) m k b g y ",
"= : 9 8 8 7 m '.CXAXCX1XW.F.S.F.Q.|.}.yXvXmXAXFXKXLXKXLXPXLXLXLXMX`.'.@.T Y Y Y Y Y >.U Y P L L L Y J Y Y Y G.}.H B ( n N b b g ",
"- - - < 6 < A }.1X/.Z.6.Z.S.U./.|.yXMXNXDXKXIXIXLXLXLXLXLXLXLXLXBX!.!.U Z w < 6 u A >.U K K X.L X.L L U +.Y F.}.D z ( n k b n j ",
"< 9 8 9 9 7 0 n L J +.6.H.!.Q.|.tXnXFXKXLXLXPXIXKXKXKXLXLXPXPXPXBX`.6.q : > % % * : g Y Y T P L L L U U +.Y G.-XF z ( g n v v j ",
"8 8 8 p 9 y e j F 4.Z.H.T.'.:XrXAXFXKXJXLXLXPXPXDXFXFXSXDXSXDXDXxX$.d a ) ' ) _  .3 3 K T T I L L L Y K @.U U.1XK l ( g k u g y ",
"y j y y v b D P A.H.H.W.|.>XuXsXVXbXCXSXSXSXSXAXAXAXAXNXSXDXGXGXsXm ~ j.c.c.c.c.h.e.2 n +.F Y F L K K Y U Y G.:XK l ( j j u v y ",
"n j n F +.V.H.L.!.Q.'.}.:X9X>XrXiXsXsXbXmXmXmXCXAXAXSXSXSXSXAXNXaXN 0.oX5Xc.c.x.d.k.f M T K Y K L I K U U P F.}.K l ( j k x g g ",
"n h L V.H.H.Q.^./.}.:X9XrXrXuXtXuXsXsXMXmXNXSXAXSXSXAXAXSXNXNXNXfXG 0.oXg.s.x.a.[ } %.h H R R K H K K U U P G.}.F l G g k x y y ",
"o.5.L.T./.'.{.:X-X>XrXrXuXaXaXsXmXmXSXSXDXDXFXFXPXPXHXDXDXHXPXJXMXX.O.z.i.| x.s.} } -.V J R K U K K F K U U G.|.F l ( g j u u y ",
"!.{.[.].!.}.-X9XrXiXsXhXmXCXCXSXJXJXJXKXPXLXLXLXKXKXPXPXLXLXLXLXMX$.O.z.s.} c.x.e.i.j.&.8.o.H A K K F L U L G.|.A l ( j h r r y ",
"'.H.@.L n /.sXbXbXZXAXSXGXFXFXKXFXJXJXJXPXPXPXHXDXDXFXHXJXJXDXJXCXI.k.oXc.c.c.j.i.c.c.} %.J L K K K F L J L S.|.F l ( v j e r y ",
"n e 0 g q *XZXZXmXZXZXZXCXCXmXnXSXNXNXAXSXSXSXNXSXSXAXCXSXAXAXSXdXXXj.c.oXl.} [ } a.q.) o.H K K K K F J L L Z./.A f ( g j e r g ",
"w e e g e /.iXiXiXpXpXpXgXgXgXbXgXgXbXgXmXZXmXbXbXbXbXbXZXZXbXbX0Xr.-.&.x.;.;.[ :.*.' 2 K K F H F F F H H J V.Q.A l ( v j c u g ",
"7 w u C 7 E.pXiXiXiXiXpXpXsXpXgXgXgXgXgXkXdXkXVXbXgXgXVXkXkXgXgXfXD.w.3 ` l.p.[ } *.4 q A F F A K K K K P J S.Q.A M h z x g g k ",
"e < 9 y 7 U.rXqXqXqXqXiXfXiXpXpXpXhXgXgXgXgXdXgXpXpXpXhXgXkXgXVXuXD.R.q 3 ] k.] ~ f > : F A K K K F F K K H S.^.m x z f g e d r ",
"G.A e u t P.qXiXiXwXiXiXfXpXwXwXpXhXgXgXkXkXgXkXgXpXpXpXpXpXpXpXqXD.U.d > > 3 > > * $ < F K A A F F F K P I Z.Q.S g v d f t c w ",
"Z.K b Z v ~.dXhXhXpXqXiXwXwXfXwXpXpXiXhXpXpXiXpXpXpXiXiXiXiXiXwXqXK./.h > : > $ $ $ = 1 C K H I F A K K K K S.Q.D y h d s e g e ",
"4.K R K H ^.hXpXhXpXwXwXwXwXqXqXwXwXiXiXiXwXiXiXwXwXiXiXiXpXdXdXyX'.-XO.' 3 > : > 3 o.G D A F F H D F K K H A./.m x g d s y j 0 ",
"K A A T P W.sXgXhXpXwXwXwXwXwXiXpXpXgXgXkXhXhXpXpXpXuXpXuXpXwXqX X-XfX+Xq.q.&.~ | w.r.K.N F A H K F A K H D 7.Q.x r d d ^ 4 d 8 ",
"T T 4..XH.|.pXpXpXwXwXwXwXwXiXiXpXdXgXgXdXiXiXiXiXiXuX9X>X;X*X*XQ.@X#X+Xx.f.d.q.:.f.0.(.3.L b A H D D R F A V.W.N d 4 ! W Q / s ",
"U 4..X X|.yXsX0XqXqXqXqXqXqXqX9XpXsXpXpXqX0X0XqXqX0X;X;X:X;X*X*XXXz.z.k.s.f.d.a.s.p.w.*XU.A m H D A m A D D 6.Q.Z q 3 3 W Q / ^ ",
"H R U 2.L F.}.{.=X=X=X*X;X>X=X}.;X=X=X{.}.}.:X2XtXrX<X4X1X*XXXc.l.XX$X@XOXXXl.g.g.e.I.rXQ.K R m F n F A K A 4.W.g 3 3 s W Q Q W ",
"v v A H n 7.{.*X(.{.@X=X=X=X{.{.{.(.{.*X{.{.-XuX4X;X1X4X$Xx.j.c.d.q.<XuXuX%Xc.d.x.z.$XiX XT.V.2.L m A A A Z V.W.n a a a W Q Q W ",
"9.S.D.A.H 6.'.(.Q.^./.{.=X=X(.{.{.].].*X{.#X>XfXqX>X;X,XoXd.d.j.;.r.$X4XfX$Xx.f.j.k.%X4XaXvX3X>X^.F.F A A n V.W.v a f s 4 ! W 3 ",
"P.L.G.V.N 5.^.].^.Q.^.(.*X{.].'./.'.]./.|.9XuXuXrX;X@XoXp.[ *.} I.*X;X2X1X<Xk.x.c.p.z.#XuXtXaXaXbXtXA.m H Z C.!.j e y 2 3 a 0 8 ",
"P.P.L.7.J V.W.T.W.W.E.(.-X{.(.{././.)./.-XsXsXqX<X%Xx.a.[ ^ _ { k.@X#X;X-X<Xk.} } [ ;.oXiXtXsXcXdXVX].L A m 6.!.C c r e f d d p ",
"P.7.2.R g X.W.`.W.E.W.'.{.|.'.(.(._.^.-XaXfX4X$X+Xx.i.} ] _ &.=.-.*.;.j.oXOXa.:.} } d.j.#XwXuXfXfXfXaXV.m A V.W.b w w d d a 0 p ",
"6.#.2.M z L T.^.W.W.^.^.].(.).^.E.E./.>XfX<X%XoXs.q.] &.&.I.I.I.).OXj.;.j.j.s.l.c.z.c.j.XX$XdXgXgXdXdX!.A A 5.T.: # O + + O O & ",
"m M J N G o.Y.Y.W.W.E.E.~.^.E.E.W.Q.W.W.).OXc.l.s.&.O.W.-X1X^.*X}.).z.oX).(.I.r.q.q.} } j.XXfXrXuXdXcX].D N #.^.&             X ",
"J H X.o.) O.I.Y.E.W.~.].-XW.Q.E.~.z.f.g.h.c.z.l.-.&.F.T.(.*X].&X].(.(.*X;X;X&X&X(.~.w.| q.p.OXuXsXcXxX:XD j 2.F.O .             ",
"=X{.{.(.9.w.~.`.~.^.E.~.].T.Y.~.R.z.x.h.v.f.i.;.&.w.@.U.].(.].}.].].].&X*X;X,X&X*X*X@Xr.s.i.z.OX,X,X*X*XF C Y Z..               ",
"0X>X9X}.K.8.Q.`.E.E.E.E.W.G.P.I.c.v.c.h.x.a.p.} O.$.#.`.].^.-X/.].].].(.*X;X;X;X&X*X*XOXi.d.d.f.z.z.f.r.o.g K 2.X               ",
"Y.P.L.D.+.K J.S.K.L.L.!.!.P.r.XXc.h.g.f.f.p.} ] $.o.8.`.Y.~./.W.].].].].*X-X>X>X;X;X&X@Xk.s.d.d.f.i.u.1.0.M K J X               ",
"J m I 6.+.N D.F.Z.S.G.L.H.P.r.oXh.g.a.l.s.*.{ O.D.Z.A.K.Y.~.Y.].].{.*X-X].*X*X>X<X;X*X@XXXq.q.s.z.f.u.i.w.B G Z                 ",
"6.5.S.Q.+.D 2.5.V.5.V.Z.Z.7.r.c.h.f.a.s.*.&.O.7.L.Y.R.R.~.(.*X*X*X-X:X;X*X/.].*X,X*X&X).I.q.q.p.q.u.u.u.e.` X.j           X + X ",
"'.{.{./.F A #.2.4.@.@.@.C.#.e.g.f.p.q.{ ` %.o.V.A.^.Y.~.(.*X4X*X-X2XuX2X-X].&X-X>X;X[.I.w.q.=.=.1.u.u.i.f.0.o.i           + & O ",
"!._.=XE.D C U Y Y Y +.Y C.+.e.d.*.{ { ' _ O.#.Y A.-X].(.;X2X-X>X>XuXfXaX;X*X-X;X;X3X-XY.%.&.} { } } ;.1.u.0.o.p         X + O O ",
"2.G.S.2.m b T Y Y U +.+.@.@.O.=.{ ~ ~ ( +.P Y T A.{.-X-X4X;X4XfXfXdXdXuX2X-X-X4XuX4X*XY.$.%.&.] ] { } } s.0. .:           o o . ",
"r g m m e e Y K P P P 2.Y Y O.O. .( %.o.K Y Y 4.}.tX>XuX4X4XfXdXcXdXdXaX4X;X2X3XuX4X*X~.8.O.) ) _ ' ' | q.` ) <           . X X ",
"K v g t y y K U T P P Y >.T K G G G F F K P P '.cXuXuXuXfXcXcXcXVXdXcXdXuX4XaXaXuXuX@XT.J.+.h N f ' ! | -.4 h -   . X X X o X X ",
"H.D.3.L A K Y K R H J J T T S S S S C S T A L 2XdXdXcXgXcXcXcXcXcXdXcXcXuXuXdXdXdXfX].U.T.U b b l f ) ' ~ 3 k - o .   o o .     ",
"D.5.5.Y 0 e A n C S A A S A S C m C C R S A U.xXbXVXdXcXVXdXvXnXcXcXcXcXuXaXbXdXcXaX(.~.K.F j m h v h s ^ t y ; @ @ . . .       ",
"Y H m n 1 < w A b C C Z m n b C A b A A A A U.vXcXCXbXsXcXVXVXvXcXcXcXdXuXdXbXgXxXaX*X}.V.C j L D t u a f t e & X X X + # ; < w ",
"7 v r 1 6 1 y u b C C C A m C C C A C C S A 4.!.W.1XbXbXvXcXcXnXcXcXcXcXcXcXVXdXsX2X-X].K u i T L u e d ( t g F R K 5.G.E.(.{.-X",
"7 t 7 7 < < v b M Z C S A A C C C C C C C 4.S.L.G D T.sXVXVXvXcXVXZXVXcXVXVXcXuXuX;X>XU.C E E T 3.b t d B 7 N './.W.E.~.(.).).~.",
"A n e 7 7 8 y n A b Z A F A n Z n C Z C J }.}.Q.#.D b F.}.aXVXcXcXcXcXcXcXdXuXuX2X2X1X3.e b Z.!._.I G 3 a < S y.9.5.Y K.P.5.7.S.",
"P L F Z n u n L D A D D F A Z D Z b u C G.rX:X/.W.!.2.N V.G #.T.K.^.-XqXuXiXuXqXuX9X-XH g v !.jX_.G.1XR.9.C.T C.V.B.C.!.9.4.P 4.",
"2.2.+.4.4.+.3.Z.+.J D A K F A A b Z b Z /.}.{.{.{.(.^.D.V.- & * : N #.5.A.!.-X;X2XrX:XX.5.D.(.6X$XuXCX8Xm.m.%X#Xy.y.M.jXT.L A t ",
"2.P J J J D o.X.+.X.#.L J K D K A Z b J >X-X{.(.^.{.].W.U.Z.T : O O & = = - 8 j J L !.rX>X0X7Xy.v.v.y.<.,.,.n.<.,.,.<.M.y.+.V e ",
"3.+.P X.o.I X.#.X.#.7.7.6.#.L L G Z n #.rX>X-X].].].T.'.!.`.'.^.A.b = O + + & * 8 P S.U.{.wX7X_.t.t.y.,.,.,.n.n.n.m.8Xm.m.P.7.6.",
"G.D.D.D.3.J o.X.#.X.#.3.V.Z.+.+.L D m A.:X;X].'.}.].'.Y.Y.W.E.!.Q.W.T.5.D X.Z.A.G.9.U.).^.}.hXjXjXjX|.M.<.,.n.8XlXzXb.7X:X1XD.Q.",
"D.F.L.!.7.I X.#.#.#.3.X.X.3.3.5.3.I D G.2X-XE.L.E./.]./.^.Y.W.^.E.P.E.^.^.^.(.).^.P.P.L.7.J 7.Q.6XwXwXhX8XN.N.m.7X9.5 1 p S e b ",
"D.D.L.L.7.P X.#.3.3.3.#.X.#.#.#.3.+.3.W.2X].D.L.E.~.^./.].^.K.^.~.U.F.V.@.Z.K.A.S.D.D.L.L.m t m Y D.P.!.=XlXlXjXeX6XE.S.J u t 1 "
};
