/* XPM */
static char *waka4_jpg[] = {
/* columns rows colors chars-per-pixel */
"64 64 249 2 ",
"   c #020202",
".  c #040A0D",
"X  c #0A0B0C",
"o  c #050607",
"O  c #1B1B1B",
"+  c #151714",
"@  c #241C18",
"#  c #28231D",
"$  c #372219",
"%  c #372C26",
"&  c #39332C",
"*  c #3B3836",
"=  c #272424",
"-  c #47362C",
";  c #453A33",
":  c #4D312A",
">  c #4A443D",
",  c #45433C",
"<  c #59453B",
"1  c #68493B",
"2  c #764E3D",
"3  c #767532",
"4  c #7A3F41",
"5  c #454443",
"6  c #494643",
"7  c #4C4944",
"8  c #4C494A",
"9  c #524E49",
"0  c #554B43",
"q  c #55534B",
"w  c #5B554D",
"e  c #5C5A4E",
"r  c #575346",
"t  c #595551",
"y  c #5D5A53",
"u  c #595855",
"i  c #4C4F4A",
"p  c #694B44",
"a  c #784C48",
"s  c #67554A",
"d  c #785748",
"f  c #625C53",
"g  c #6A5A53",
"h  c #645D59",
"j  c #675A58",
"k  c #7A5C54",
"l  c #785853",
"z  c #5D6157",
"x  c #666156",
"c  c #65635C",
"v  c #6B645C",
"b  c #6D695E",
"n  c #696658",
"m  c #71645C",
"M  c #7A645D",
"N  c #72695C",
"B  c #776658",
"V  c #74624C",
"C  c #656661",
"Z  c #6A6661",
"A  c #666A63",
"S  c #6D6A64",
"D  c #6A6C6A",
"F  c #736D64",
"G  c #736E69",
"H  c #796862",
"J  c #757166",
"K  c #797166",
"L  c #75726B",
"P  c #7A746C",
"I  c #7D786E",
"U  c #7B7671",
"Y  c #7E7973",
"T  c #787774",
"R  c #8E3833",
"E  c #B33239",
"W  c #82433C",
"Q  c #8B584E",
"!  c #875150",
"~  c #AC4548",
"^  c #87665A",
"/  c #966C57",
"(  c #9A735B",
")  c #876D59",
"_  c #A56C55",
"`  c #A9755B",
"'  c #B77A5D",
"]  c #A26D4E",
"[  c #856C63",
"{  c #8A6A64",
"}  c #82796D",
"|  c #867668",
" . c #9A7A68",
".. c #827C74",
"X. c #837E79",
"o. c #857973",
"O. c #947C73",
"+. c #A87B66",
"@. c #B57E65",
"#. c #C07A61",
"$. c #7B807C",
"%. c #C9D717",
"&. c #CFD434",
"*. c #858176",
"=. c #898175",
"-. c #85817A",
";. c #8B847B",
":. c #8C887E",
">. c #928A7E",
",. c #988476",
"<. c #8E8669",
"1. c #A98267",
"2. c #B78568",
"3. c #A78673",
"4. c #B88A73",
"5. c #A99578",
"6. c #B49471",
"7. c #AEAB74",
"8. c #BD835D",
"9. c #C9895D",
"0. c #D58F5A",
"q. c #C38364",
"w. c #CD8964",
"e. c #CC8C6C",
"r. c #C58868",
"t. c #D58D68",
"y. c #CC936C",
"u. c #C79166",
"i. c #D39264",
"p. c #D4936B",
"a. c #DD956C",
"s. c #D99869",
"d. c #C88D72",
"f. c #CB9375",
"g. c #C4937A",
"h. c #CC9779",
"j. c #D49473",
"k. c #DA9573",
"l. c #D39A7C",
"z. c #DB9B7B",
"x. c #D79976",
"c. c #D68C75",
"v. c #E29A73",
"b. c #E49A69",
"n. c #D0A179",
"m. c #E5A17B",
"M. c #CFD854",
"N. c #EADB54",
"B. c #DBE16C",
"V. c #CECF6E",
"C. c #8E8B82",
"Z. c #8C8482",
"A. c #948C83",
"S. c #958D87",
"D. c #959284",
"F. c #9B9284",
"G. c #9C958B",
"H. c #99958A",
"J. c #9E9892",
"K. c #A39485",
"L. c #A39A8D",
"P. c #A99C8C",
"I. c #A69886",
"U. c #B69A87",
"Y. c #A49D92",
"T. c #AA9E94",
"R. c #A69B9A",
"E. c #A6A295",
"W. c #ACA394",
"Q. c #ADA49A",
"!. c #AEA99B",
"~. c #ADA796",
"^. c #B3A495",
"/. c #B2A69B",
"(. c #B3AA9D",
"). c #BBAC9E",
"_. c #B5A897",
"`. c #ACA997",
"'. c #ACA8A1",
"]. c #B4ACA2",
"[. c #BAADA2",
"{. c #BBB1A4",
"}. c #BCB5AA",
"|. c #B9B5AA",
" X c #BEBAB3",
".X c #AA9EA0",
"XX c #C59A85",
"oX c #D89C83",
"OX c #CBA48B",
"+X c #D5A388",
"@X c #C9AA98",
"#X c #D4AA96",
"$X c #D1B99D",
"%X c #E2A38A",
"&X c #C2B4A5",
"*X c #C4B5AB",
"=X c #C9B6AB",
"-X c #C3BAAC",
";X c #CBBAAD",
":X c #CAB8A4",
">X c #D3BBA7",
",X c #C4BBB2",
"<X c #CDBDB2",
"1X c #C7B7B0",
"2X c #D2BEB3",
"3X c #C9AEA1",
"4X c #E09D83",
"5X c #BEC3BF",
"6X c #CFC892",
"7X c #E3D796",
"8X c #E7E694",
"9X c #CBC2AB",
"0X c #D3C3AE",
"qX c #CDC2B4",
"wX c #CCC4BA",
"eX c #C9C5B7",
"rX c #D3C3B5",
"tX c #D6CAB4",
"yX c #DACCB4",
"uX c #D5C6B9",
"iX c #D6C9BB",
"pX c #DACBBD",
"aX c #D9C6B9",
"sX c #DCD2BC",
"dX c #D8D1B7",
"fX c #D9D4AE",
"gX c #E0D3BD",
"hX c #E2DABF",
"jX c #DAE193",
"kX c #DCCEC1",
"lX c #D5CBC2",
"zX c #DDD2C4",
"xX c #DCD4CB",
"cX c #DBD7C5",
"vX c #DFDAD2",
"bX c #CDC9C0",
"nX c #E1D3C4",
"mX c #E2D9C4",
"MX c #E3DBCC",
"NX c #E7D9CB",
"BX c #E3DED2",
"VX c #E1CFC3",
"CX c #E5E3DB",
"ZX c #E8E3D7",
"AX c #EFE7D0",
"SX c #EBEAE4",
"DX c #EAEBEA",
"FX c #E7E6E2",
"GX c #F0EEEC",
/* pixels */
"A.'.|.,X].C.L G Y *.=.A.F.A.>.A.>.=.=...Y L Z Z v t 7 6 6 5 5 8 y T F S P I ..*.X.X.Y Y Y Y Y Y Y Y Y X...=.[.].S M { K S Z c n ",
"'. X|.Q.S.Z.Z.Z.D.E.{.-X=X;X;X=X&XW.L.S.;.-.L F L Z y t 9 7 5 * Z X.L L Y Y *...Y X.X.X.X.Y X.Y ..Y ..X.X.-.].|.F H { m n v v m ",
"|.J.C.;.X.-.Z.S.H.J.Q.[.&X2X0X>XrX).L.D.-.=.:.A.A.A.A.-...K v f P *.Y Y -.Y *.X.X.X.Y X.X.Y X.Y ..Y ..X.X...].}.L M [ g c c v N ",
";.L L L K K L U X.Y ;.G.^.:XrXrX<X).S.=...=.S.F.G.Y.Q.(.(./.^.P.C.;.Y Y X.Y -.X.X.X...X.X.Y Y U ..Y ..X...o.].}.F m [ m c c Z v ",
"D.H.G.S.;.;.U } K K F L =.D.S.S.G.D.Z.-.-.Z.J.Y./.(.(.Q.W.W.P.I.H.:...*.X.X.X.Y X.X.Y X.X.Y X.U Y Y U ..X...!.}.F M { m c b c c ",
"H.Y.E.E.].].].{.{.}.].-.Z t 6 i q h G G A D -.C.G.L.P.Y.P.P.P.I.>.;.Y Y X.-.Z.X.X.-.X.X.X.Y ..U Y Y U ......Q.|.F M [ m c c v c ",
"Y.Q.].-X}.-XqXuXlXQ.P 7 6 t q u y h c Z G G S P I -.A.S.L.Y.P.L.-.*.$...Y -.Y -.X.X.X.X.X.Y ..Y Y Y U o...o.!.|.J M { v c c c c ",
"].'.].}.*X<XwX/.L 0 6 8 u h h h v c Z L -.-.U Z.A.D.G.Y.E.].].].*.C.Z.-.Y Z.X.Y X.-.Y X.X.U Y Y U ..U U o.I Q.|.J M [ v c C c c ",
"'.[.].-X}.].G 9 5 8 t h m H J P Y I ;.S.S.A.H.J.Y./.].|.-X;X;XqX].J.H.Y Z.X.Y ..X.-.X.Y Y U Y U U U P U ..=.W. XL M { b H y Z c ",
"{.].{./.F 6 6 6 9 f Z H P =.L.{.wXE.D.D.J.J.Q.[.,X-X<XwXqXrX0X9X|.F.D.=.X.Y X.-.-.X.X.X...U Y U U U P U o...E.}.J M { v v c v c ",
"|.'.G.7 * 8 8 u Z F } :.Q.wXMXZXxX!.S.Y.].|.,XeXeXwXzXiXiXyXtXcX;XY.R.*.Y X.X...-.X.Y X.X.U U U U Y Y ......Y.}.J [ { n v z v f ",
"e > 6 ; 8 8 y L ..Y.{.iXBXZXlX{.Y.Y.Q. XeXwXbXlXcXZX9XF.K g s J } ..E.-.X.Y X...X.Y Y ..X.U Y Y Y ..Y ......Y.}.J M { n j c c f ",
"& * 5 6 9 8 h D.<XMXAXzX*XW.L.J.Q.{. XwXbXxXCXCXZXqXN > - : - % % ; v F -...U =.X.X.Y X.X.U Y ..Y Y Y ......Y.|.F [ { n H h Z f ",
"* * 6 * 5 8 c uXvXwXQ.F.>.F.L.Q.|.eXbXvXCXSXSXFXGXR.0 - ; d ` ( d : % > U -...X.X.X...X.Y U Y U Y U U ......Y.}.F k { c v C v h ",
"i 5 , 8 6 6 y F *.....:.G.R.!.}.eXlXCXSXDXFXFXGXCXo.< > s _ h.x.h.` 2 < m o.X.-.-.-.X.X.Y U Y U ..U U X.=...E. XF M ^ h v C v x ",
"5 5 7 7 8 9 q c b I >.H.R.].}.wXBXCXSXSXDXDXDXDX9Xg 0 s ) @.x.v.v.x.2. .| ..-.Y X.X.Y Y Y T U P P U U ....} R.,XL k { x v y c y ",
"u q t t t y Z G -.H.R.'.].}.qXzXcXMXZXZXCXCXCXCX(.! ) ^ +.g.k.z.d.w.k.g.o.X.X...X.......U T T U U U G ..X.T Y.9XL m ^ c h y f y ",
"c c S S G Y A.H.Y.Q.].{.-X<XqXtXiXsXzXxXvXMXBXvXU.@.1.1.2.+X4X' _ @.r.+.| Y o.X.X...U U P P U U U U G ..Y I J.}.L k ^ c v h h y ",
"S c F } D.Y.Q.Q.).{.=X*X<XuXtXuXdXsXcXmXMXMXZXBXOXc.k.4.f.z.oX@.] e.q./ o.U T X.Y U U U T U U U P U P ..Y P J.{.S k ^ c v f f y ",
"F P A.T.(.W.).}.}.;XqXwXuXiXwXsXcXxXvXBXZXCXCXZX>Xt.a.+.h.z.c.f.d.z.q.^ } X.U L X.U U U U U U U L P L U Y I J.|.G k ^ c h f f u ",
"P.E.].{.].{.,X<X<XbXlXlXxXMXvXZXCXFXFXSXSXDXDXDXgXj.r./ 2.%Xc.l.c.c.oX3.H U U Z...U U U U L G G P P P o.U U J.}.L k ^ c h y f u ",
"{.{.E.>.P T.uXiXxXMXMXMXCXZXSXCXDXSXDXSXDXDXDXDXMX+X4.d Q 4.oXx.e.#.4.3.} X.o.T Y T L P P G U L P L L P U U H.[.D l ^ y j f f y ",
"I L e q q (.MXNXMXNXNXMXZXZXZXvXBXBXZXZXCXCXCXCXMX+X3.p p d r.e.#.' +. .U U U Y U T T P U P P U L G L L P P S.].D k ^ f j y f t ",
"t q 9 u r E.sXyXtXyXdXdXsXhXzXmXmXcXMXMXmXMXMXMXgX#X+.1 < 1 / q.r.@./ m U ..T T U U U U U L G P G G L L P L S.].F B ^ c h f f y ",
"7 q h Z w F.iXtXyXtXyXyXgXgXgXsXsXsXhXhXhXmXmXmXnX#X+.< - - p @.r./ ^ B | Y U L T L L G G L G G U L G P I U A.].F g V k x h h y ",
"7 , 6 9 7 >.rXyXtXtX0XyXyXyXyXyXsXcXhXmXmXcXsXsX$X+X4.d : - - 1 2 a p j F J L P P L U U P U P G G P G P P K A.].F f g d g y y w ",
"-.Z u u q >.9XtXyXyXyXyXtXtXyXyXsXgXgXgXmXmXpXrX6.f.z.2.1 : & % $ $ % s *.I I P } P L U G G T T L U K U P P A.].D y g g l f u q ",
"J.U v Z n F.yXsXfXgXyXyXyXyXyXyXyXyXpXsXsXpXtX2X1.x.a.p.2.Q : % : % % f E.R.(._.^.E.;.S G L S L L L G P I L A.(.H f g f l g y y ",
"C.P S L S L.tXfXsXyXfXyXyXyXyXyXyXyXaXiXrXqX=X3X#Xj.e.y.2.` Q 1 ; s P >.}.*XrX;XuXuX}.A.L G L G L L G P P G >.].K z e e a r w w ",
"Y S D T I P.sXdXgXgXyXyXyXyXyXyXyXyXrX2X;X:X3X#XoXg.f.y.u.' ` / >.^.).{.&X;XuXaXuXiXzXqXG.U L L F L G P L K >.(.b e x d a ! p r ",
"P F Y S.D.!.tXtXfXyXyXyXyXyXyXaXrXrX<X<X;X@X@X#X%Xr.d.e.8.r.r.4.:X*X=X;X<XqX<XiXiXpXaXpXkXE.P S F J F L L K >.(.b s ! ! W E ~ p ",
"I Y J. X XeXcXtX0X0X0XyX0X0X0XyXtX<X<X<X=X@XOX+Xc.y.c.e.y.d.d.>XrX<XuXwXpXiXiXiXiXuXkXkXaXkX[.I S F F G K F :./.B 0 2 W R E ~ Q ",
"Y Y Y H.=.D.9X-X;X;X9X9X9XtXuXuXtXuX=X;X>X@XoXoXz.j.r.d.g.#X2X2XtXrXiXkXiXkXkXpXiXiXkXuXpXpXkX[.I F F J N b :.Q.n 0 1 1 W E E R ",
"n x x K x I ).}.{.}.&X:X=XqXuXiXuXrX2XrX>X#X+Xz.x.e.f.oXOX3XaXuXaXiXuXuXuXiXkXkXnXkXuXlXaXgXnXkX(.$.D F F S $.(.m s p 1 R E E R ",
"o.=.:.A.I ../.[.[.).(.{.{.rXiXyXkX<XrX>X+X+XoXk.f.f.XXXX@X;XuXlXlXiXpXiXuXiXkXkXaXVXrXyXaXgXnXVXlXH.L S F J ..'.M s a p ! W a 1 ",
"P.I.F.A.J I Q.)./.(._.{.{.tXiXpXlX2X0X@XoXv.x.f.g.XX@X@X&X1XuXiXuXuXpXkXiXpXkXpXkXtX:X2XaXzXzXzX-X5.1.L G F =.!.c s q 0 1 p r r ",
"I.P.E.H.*.*.!./.Q./.(.(.{.rXpXiXlX2X>XoXz.c.d.4.XXU.3X1X1X<XbXkXkXuXuXuXiXiXkXpXsXqX;X2XuXxXcX}.U.l.u.1.J b =.!.b t z s a l w w ",
"P.5.D.I b J ~.Q.Q./.!.).{.uXlXpX2X>XOXl.v.e.d.@X@X3X=X;X1X<XrXiXkXiXiXiXuXpXkXiXuXtX).3XlXxX}.L.h.z.b.s.1.D $._.J w f f l s i 6 ",
">.=.*.b n F W.)./.(.W.).{.iXpXuX0X#Xf.t.w.2.U.*X*X=X1X;X;X<X2X2XrXuXiXpXkXkXiXuXlX;XK.R.,X].5.l.v.s.b.b.2.| -./.7 # O + + @ @ = ",
"I b P N M H L././.(.W.(.*XpXiX9X:X+Xk.i.#.@.@X1X1X1X=X1X2X<X2XuXwXrXiXaXuXiXiXiXuX2X].A.X.| g.a.v.v.m.b.s.6.,.'.=             . ",
"n n N K ^ k P.R.^.~.W.'.,X}._.P.l.x.p.w.r.2.3X1X1X1X<X<X<X<X2XlXuXuXaXaXuXaXuXtX;X<X1X:.F ) ` e.0.s.v.s.s.p.5.I.=               ",
").`.~.^.3.O.^.Q.(.'././.3XOXl.h.h.y.w.w.q.4.@X-X1X1X<X<X<X<XrXaXuXuXuX2XrXrXrXrX<X<X;XS.b F ) ( 9.q.i.p.s.s.OXU.@               ",
"9X9X9X&XU.O.^._.Q.E./.~.+Xx.s.s.y.i.w.w.@.U.).{.1X1X=X1X<X<X2X2X2XuXrXrXrX<X;X;X2X2X2XG.A A v M ) ' u.p.b.0.z.5.+           o   ",
"_.~.`.`.L.| F.L.P.L.P.5.+Xx.s.s.e.w.w.' @.U./.[.-X*X=X=X1X<X2X2XaXuXuXiXuXrXrXrXrX2X=XA.D D Z S M 8.i.p.0.0.a.<.X               ",
">.K K :.-.F C.J.D.F.G.I.n.h.y.p.w.w.r.' +.K.T./.[.*X=X1X;X<XrX2XuXaXuXaXiXiXuXiXuXaX;Xo.S D Z A ) q.9.i.i.i.f.| X           o   ",
"I I *.J.C.S $.Z.Z.S.F.I.z.p.i.w.q.w.q.`  .K.L.T.^.&X=X<X<X2XuXaXlXiXuXuXuXuXiXiXrXuX;X| b S n m ` u.0.i.y.u.3.K o         X X + ",
"`.`.(.|.*.x I :.Y -.;.>.c.i.w.q.q.#.@.+.O.S.K.T.T.).=X2XrXrXuXrX2XuXaXuXuXrXiXuXuXiXqX..F Z v N ` u.i.i.u.1.| S         o + @ O ",
"E._.).}.*.x I *.*.} ..=.j.p.r.2.q.@._ +.3.L.L.T.^.[.;XrXrXuXrXrX2XkXaXuXiXkXlXuXpXiXwXA.S Z c N ' 9.t.0.y.` N g           O O O ",
"L.E.E.J.L f G Y U T T =.y.a.w.2.` _ / [ Y D.E.T.^.&X=X=XuXaXrXpXiXkXiXrXuXiXkXkXtXuXkX@XS D c ) 9.9.s.y.4.V M p             . . ",
"x b S n v t F U o.T T | 4.y.#.' _ / | } P ;.T.^._.&X=X2X2XiXiXpXuXiXiXpXkXaXuX2XzXlXuX2XJ.v B 2.i.s.a.2./ d k 9             o . ",
"b z e e w r Z P U T L o.3.2.' _ / ^ P G L U L.{.[.3X;X2X<XrXiXiXkXiXkXkXkXkXkXkXtXkXtXaX&X| ( e.s.s.p. .^ p s 5   o o o . X X X ",
">.:.P I c L ..L F U L U | | / / [ H G S G L S.&X&X&X;XrX<XrXuXuXkXkXkXkXkXkXxXnXpXkXpXrX>X5.4.a.a.p.2.B Q p f , . . . .   o     ",
"L.H.<.*.x e S S Z D G A b b N M Z Z G G L D ;.*X;X;X<XwXaXuXrXiXkXkXkXnXkXnXkXzXVXaXrXrX3X+Xz.v.v.g.B s 2 l z * . X X X o       ",
"*.*.$.J e * 7 S j Z C C A S A c C Z S D A S ;.uXrX2X<XrXkXpXuXkXuXaXkXzXzXnXnXnXkXkXrXwXU.l.v.m.k.| f p a u y & . o X + # & 8 j ",
"> z e i q 5 q h Z C C A Z A A c Z A C C A S ;.lXpXuXuXiXiXkXkXkXkXkXkXkXzXnXzXzXlXiX[.>.3.l.m.x.j.f e s [ w j S J I ;.H.`.(.[.{.",
"> e r i , ; u C Z Z A S Z H A A Z C z S Z S Y bXVXiXaXkXuXlXNXzXkXkXkXkXkXkXiXuX,X5.M @ d l.k.l.XXn f r k r f '.~.`._.`.`.(._.^.",
"x x r 7 > , q v v Z Z S S G S Z c Z C h Z S G |.xXnXzXaXxXiXkXnXnXkXnXkX1X/.E.;.g - f $ 2 d.r.x.z. .| : 2 < e L.5.$.} J.J.D.>.D.",
"N P F x j w f F F S S F G S S S G C v C C Z c X.P.E.,X,XlX2X1X*XT.Y.Y.C...m w & @ # 0 [ 1.d.e.k.s.I.bXW.K.;.*.*.:.Z.*.E.5.<.I } ",
"J =.o.} =.I ..F.X.L Z F J L S S c c S C C Z v =.{.A.F f } L 7 & & % % % % @ @ @ ; X.>.I.4.g.d.c.d.#XmXjXV.V.6X$X7.7.V.9X{.I F e ",
"I ..K F I F J =.=...} I P J F J b v c x Z v Z G.-X-X{.L.G.P 0 ; & % & = # % w ;.Q./.(.P.3.1.@./ ( 2.n.M.&.%.M.&.%.%.%.M.7.<.N s ",
"=.} P } I K P } } =.=.>.;.=...P J b n c Z c P {.{.).&X}.].Q.].Q.'.T.Y.G.E.(.!.]._.`.(./.^.3.^ { <.3.6.%.%.%.N.M.M.B.8XB.M.7.*.>.",
"F.A.>.F.=.K K } =.} *.=.>.A.;.} P J L S Z H S.qX&X{.&X-X[.(.[.Q.(.(.[.).)./.^./.^./.(./.K.T.^.(.].qXtXB.&.%.N.7XhX8XM.6X:XeXD.H.",
"F.F.L.P.F.} P ..} *.=.o.....=.:.;.P J F S L S.{.W.).).(.[.[.].[.[.(.W./.W.>.F.K.L.T.L./.(.{.(.(.^.9XdXdX7XN.N.N.6XF.3 w 0 e u y ",
"5.I.H.P.G.} [ =.=.o.o.=.o.o...=.;.=.=.I Y F ..Q.A.A.L.Y.E.[.R./.^./.Q.W.W.L.E.T.(.(.[.{._.W.W._.P.A.J.'.9XfXsXtXfX6X.XD.=.L y 7 "
};
