/* XPM */
static char *waka13_jpg[] = {
/* columns rows colors chars-per-pixel */
"64 64 253 2 ",
"   c #010202",
".  c #050A0B",
"X  c #090909",
"o  c #14110E",
"O  c #1B1916",
"+  c #0D1113",
"@  c #241E18",
"#  c #34241A",
"$  c #1D2820",
"%  c #292824",
"&  c #382A24",
"*  c #3C362D",
"=  c #3C3834",
"-  c #46362B",
";  c #433E37",
":  c #4D3328",
">  c #6E392F",
",  c #402A1F",
"<  c #44423C",
"1  c #4C463D",
"2  c #57453A",
"3  c #49583B",
"4  c #67453A",
"5  c #79493C",
"6  c #494642",
"7  c #4C4A46",
"8  c #484744",
"9  c #524D4A",
"0  c #554C44",
"q  c #55524C",
"w  c #5A554C",
"e  c #58574A",
"r  c #5B5651",
"t  c #5D5A53",
"y  c #595856",
"u  c #4E5148",
"i  c #694A44",
"p  c #65564C",
"a  c #76564B",
"s  c #635D55",
"d  c #6A5C54",
"f  c #645F5A",
"g  c #685753",
"h  c #755A53",
"j  c #714A47",
"k  c #5C6356",
"l  c #646155",
"z  c #6C6255",
"x  c #65625C",
"c  c #6B645D",
"v  c #696A5D",
"b  c #71665B",
"n  c #746A5D",
"m  c #7C6658",
"M  c #786B53",
"N  c #6C6462",
"B  c #6D6A64",
"V  c #686865",
"C  c #736D64",
"Z  c #746E69",
"A  c #796E6B",
"S  c #776A65",
"D  c #757166",
"F  c #797166",
"G  c #75726B",
"H  c #7B746C",
"J  c #7C796E",
"K  c #7A7B68",
"L  c #7B7671",
"P  c #7E7A73",
"I  c #767672",
"U  c #6E7069",
"Y  c #60606A",
"T  c #883B37",
"R  c #B13135",
"E  c #C13E44",
"W  c #88574A",
"Q  c #8B5A4F",
"!  c #896855",
"~  c #996B58",
"^  c #906D55",
"/  c #A76C55",
"(  c #B67A5D",
")  c #AA7657",
"_  c #926B65",
"`  c #976D67",
"'  c #837B6D",
"]  c #87766A",
"[  c #987867",
"{  c #837C74",
"}  c #897E75",
"|  c #837E78",
" . c #857A78",
".. c #937D75",
"X. c #866C62",
"o. c #A87967",
"O. c #B87A6A",
"+. c #AA7168",
"@. c #A94648",
"#. c #C47F68",
"$. c #7E8277",
"%. c #80813B",
"&. c #CCDB12",
"*. c #D1D52E",
"=. c #858174",
"-. c #898175",
";. c #85827B",
":. c #8B847B",
">. c #8C897D",
",. c #898A7A",
"<. c #938B7D",
"1. c #97897B",
"2. c #8D876F",
"3. c #A9846A",
"4. c #B88468",
"5. c #A88A78",
"6. c #B78976",
"7. c #B9927A",
"8. c #AEAD67",
"9. c #B2A34D",
"0. c #C6875A",
"q. c #CC8C6B",
"w. c #C58866",
"e. c #D68D67",
"r. c #CC936A",
"t. c #D9966A",
"y. c #C58C75",
"u. c #C79579",
"i. c #D49472",
"p. c #DB9473",
"a. c #DB9A74",
"s. c #DC9C7B",
"d. c #D49879",
"f. c #D38F78",
"g. c #E39A6D",
"h. c #E39D7C",
"j. c #E49C75",
"k. c #D9A27D",
"l. c #C8A772",
"z. c #E3A27E",
"x. c #EAA47E",
"c. c #CCD455",
"v. c #D4D74B",
"b. c #D1D074",
"n. c #E7DE62",
"m. c #977782",
"M. c #8E8A82",
"N. c #8B8782",
"B. c #938B83",
"V. c #978B86",
"C. c #949184",
"Z. c #9A9285",
"A. c #95938A",
"S. c #9C958A",
"D. c #9D998D",
"F. c #9B9892",
"G. c #948A92",
"H. c #A1968B",
"J. c #A39A8D",
"K. c #A79789",
"L. c #B49988",
"P. c #A49C92",
"I. c #A89E96",
"U. c #A08F87",
"Y. c #A8A28D",
"T. c #B8A68D",
"R. c #ABA295",
"E. c #ADA49A",
"W. c #ADA99D",
"Q. c #A6A397",
"!. c #B2A69B",
"~. c #B3A99C",
"^. c #BAAC9D",
"/. c #B4A696",
"(. c #BBB39C",
"). c #ACACA4",
"_. c #B5ADA3",
"`. c #B9AEA2",
"'. c #B3AFA9",
"]. c #B5B1A5",
"[. c #BCB2A4",
"{. c #BBB4AA",
"}. c #B8B5AB",
"|. c #BAB9B3",
" X c #ADB2AE",
".X c #C79A84",
"XX c #D99C83",
"oX c #E49F81",
"OX c #C4A38A",
"+X c #DCA384",
"@X c #D5A288",
"#X c #C5AA98",
"$X c #D7AD93",
"%X c #D1B492",
"&X c #E4A583",
"*X c #E8A785",
"=X c #E4AC91",
"-X c #C2B4A5",
";X c #C3B5AB",
":X c #C4BAAD",
">X c #CBBCAD",
",X c #C9B6A5",
"<X c #D5B8A7",
"1X c #C5BCB2",
"2X c #CCBEB2",
"3X c #D4BEB3",
"4X c #C0AFA8",
"5X c #BDC091",
"6X c #D0CC93",
"7X c #CBC5AA",
"8X c #D5C5AE",
"9X c #CDC2B4",
"0X c #CBC5B9",
"qX c #D2C4B5",
"wX c #D5C9B3",
"eX c #DACCB4",
"rX c #D4C5BA",
"tX c #D6CABB",
"yX c #DACBBC",
"uX c #DAC5B7",
"iX c #DCD1B7",
"pX c #DDD2BB",
"aX c #D6D3B4",
"sX c #D6D4AE",
"dX c #E2CDBD",
"fX c #E0C9B7",
"gX c #E1D5BD",
"hX c #E5D6BA",
"jX c #E4DDA9",
"kX c #E5E69F",
"lX c #D5CDC3",
"zX c #DCCEC1",
"xX c #DDCEC8",
"cX c #D7D1C3",
"vX c #DDD2C3",
"bX c #DDD5CA",
"nX c #D8DACC",
"mX c #DEDBD2",
"MX c #E2CEC3",
"NX c #E2D3C3",
"BX c #E3DBCD",
"VX c #E4D8C6",
"CX c #E2DDD2",
"ZX c #EADDD8",
"AX c #DDE3D5",
"SX c #E4E2D6",
"DX c #E4E3DB",
"FX c #EAE4D9",
"GX c #EAE6E3",
"HX c #EAEAE5",
"JX c #EBECEA",
"KX c #E6E8E3",
"LX c #F1EDE7",
/* pixels */
"B.F. X|. XA.P Z I H | V.M.B.V.V.1.:.:.| P I B f G q 9 8 6 8 < < 9 G Z V H G L { | | P P P P P  .I P { | { | <.9X;.n ` n c c N f ",
"'.'.}.).F.N.;.>.<.P.~._.;X1X;X;X-X/.H.Z.N.| J b H x f t 9 6 8 < q I L G I H | { P | | P P P P P L P P { { { B.9X:.C _ C c c c s ",
"}.W.A.,.;.=.>.C.Z.H.P./.,X>X>X3X3X-XI.S.B.} >.-.B.:.:.} { S b t c ;.{ L L P | { | P | P  .P P P P P P | ' { B.0X:.n _ n c x c s ",
"A.=.G B C F J F  .| M.V.H.^.8X8XuX-XU.:.{ { V.Z.V.H.I._.~.W.R.S.B.B.| P L L | { | | | | | P P P H L P { { { B.0X:.b _ n c x c l ",
"A.A.B.C.>.| J H H C B G ' C.J.<.P.S.V.>.;.;.C.P.I.`.~.~.R.K.Y.J.J.V.| P P P ;.{ P | | | P  .P P H P L { { { M.0X;.b _ n c c V l ",
"B.S.P.E.E.~._._.(.{.W.V.H y 9 9 9 y B Z B B H N.V.H.J.J.K.J.K.H.<.>.| L L | ;.P  .| | P  .P { P H J L { { } M.9X:.v _ n z l c f ",
"I.E.W._.}.:X9X0XtX7XV.t 7 q y r t y f y x C B D { } :.<.S.J.J.J.} :.-.L P P { P | | | | P P P P H J I P P { <.1X,.b _ D c x l l ",
"E._._.].1X9X1X:XV.s 6 7 y t s f V x V B P >.P ;.N.B.C.S.J./.W.[.V.>.| P | | | ;.| | P | P P P L H J H L J ' >.1X-.c _ n c f N l ",
"R._.'.4X1X1XM.f 8 8 q t f b b H F F { B.B.N.M.A.F.I.E.E.;X-X:X;X(.B.F.;.{ ' | L { { | ' P P L P H J G G L { >.:X>.z ` n b x N s ",
"]._.;X'.N.r ; 8 q r f N A { B.R.1X~.A.V.A.F.Q.]._.].:X:X9X9X0XwX8XH.F.N.{ } } { | | | P P P L L H H H H L { :.:X>.z ` n z x x f ",
"1X_.).f = = 7 q f N A :.P.].lXFXFX}.C.A.E._.}.{.9X9XwXtXqXtXtXeXuXP.E.;.L { { { { ' { J P P I L H H H H L { :.7X>.z ` n c x x s ",
"B 7 6 ; 6 9 q f Z B.R.1XBXCXVX1XE.S.P.).1X9X0XcXcXcXnXBXBXFXFXSXCXI.W.M.| ;.| { ' { { J P P H P L H H L P P :.:XM.b ` m c x l f ",
"< * = 8 6 9 q N.~.vXFXZXlX`.I.Z.P.~.{.0X0XcXnXbXAXDXKXJXJXJXGXHXFX}.E.I q N I =.P | | { { L L P L H F H P | ;.:X:.d ` c c f N s ",
"* = 8 8 8 ; y I.CXlX[.H.>.>.H.I.].{.0XcXmXFXLXJXJXJXJXJXKXKXGXJXnXH 7 - * & - 0 A | { { { P L P L H H L P  .>.1X:.g _ b c f c x ",
"8 8 = < 6 7 q D } | | :.V.H.I.].:X0XmXGXHXGXKXJXKXJXJXJXJXJXJX0XV 2 : : & , & # s L { P P L L L H H H J P { >.9X<.d ^ z x f x x ",
"7 7 7 8 9 7 q r c F ;.B.P.~.`.1XcXCXHXHXJXJXJXJXKXHXKXGXDXGXcXb < 0 ^ [ _ a a ! p J { { P L H H G F J J P ' >.9X:.d _ c l f c d ",
"y r t q t t f V $.M.S.I.).4X2XuXbXBXSXSXSXDXSXDXSXFXFXBXSXBX{.9 2 3.d.h.i.r.w.p.6.M ]  .I ] C L G Z G G H J -.0XN.f ! f f f d l ",
"C t c N c Z ;.S.F.Q.).'.{.1X0XwXtXeXvXbXBXBXBXSXnXmXSXSXFXFXE.0 j 3.i.&XoXa.j.p.6.H P L G H D L G H G H J J -.1XN.s ! f f f l s ",
"F f c { >.S.P.R.~.^.[.{.1X0XrX0XwXuXvXbXbXBXBXBXFXDXDXCXSXDX].p h 4.d.s.q.w.d.( ` ] L I I F S D G G L H P P -.{.>.d ^ N x l s s ",
"x S } S.I.E.~.;X,X,X9X9XrXuXuXeXzXbXbXCXCXSXSXSXZXDXGXDXDXAXaXd b 7.XX7./ / f.+.! [ H H L D A Z G G G H P P -.1X:.g ! f l t t t ",
"Z.I.E.}._.`.;X,X,X9XqXtXlXzXVXVXSXDXDXKXHXHXHXHXHXHXJXHXGXLXVX[ ` u..X6.O.4.+Xy.O.6.F F L Z A I Z L G G P { -.1X-.d ^ c t r t x ",
"_.'._.P.| Z.9XtXcXbXCXSXZXKXKXJXFXHXHXJXHXJXJXHXJXKXHXKXGXLXdXu.6.d.s.s.f.p.h.f.p.y.X.C ' U G G L Z G D H J | {.N.f ^ N l t t x ",
"B.H l t 0 =.vXBXBXBXBXSXmXmXmXmXCXSXAXCXDXDXAXDXSXAXAXZXZXZXfXp.y.w.s.+Xp.p.#.#.q.6.F D ] G G G Z Z Z D H H { _.| s ! l s e r l ",
"e q q u e ' wXgXfXiXeXiXpXpXgXgXVXVXVXBXBXBXCXBXBXBXBXBXmXnXVXk.O.o.u.XXXXd.( O.4.6.D D J U C H C Z Z Z G J ' _.m.f ! c l s t s ",
"1 w t V t C 9XwXeXwXeXwXeXyXhXpXiXpXvXvXVXvXVXVXvXVXVXiXvXvXVXpXu.a ~ w.q.o.Q W / m f U Z H S S N I U H P J { _.:.k h h k s t l ",
"8 < 6 9 r c 0XwXwXwXwXwXeXfXeXwXiXiXpXvXvXNXpXpXgXpXVXpXhXVXVXgX<Xh 4 ! o.5 : > W a l L A Z D A A H G G H F J ].-.s z h h g p t ",
"M.Z t 9 y x >XwXwXwXwX8XwXeXeXeXeXiXpXVXgXpXNXpXgXiXiXaXpXgXVXgXuXa - 2 +.O.#.O.+.i p H Z G I Z C G S ] ..[ } _.$.k k d h s t k ",
").N.V N x F 9XeXiXeXeXeXeXeXeXwXeXiXaXaXpXpXpXpXhXiXiXeXeXeXwXtX,XQ : - Q q.O./ +.: 1 A A Z B C U G H 5.L.u.7.-X-.t l l g t e g ",
"B.P v S D =.wXhXpXaXeX8XeXwXwXwXeXeXaXeXeXeXeXeXeXwXeXuXtXtX1X1XqX) 4 & : ~ o.O.a & 1 C A Z U S U Z F 7.=X*X+X$X} d l s i p e g ",
">.H B G J =.qXeXhXpXiXeXeXeXeXeXeXeXiXpXpXiXiXiXwXwXqX9X9X1X{.|.vX.X! : , : i > : - l C C C Z S C Z S 3.a.x.x.k.J w k h j 5 a e ",
"P G G ;.M.A.tXeXaXeXiXeXeXeXeXeXsXiXgXhXgXpXpXyXtX3X>X,X:X1X'.|.vXqX6.W : & * # # z P.H.} D S F A Z N [ r.&Xz.+X] i g j T R @.W ",
"P P ;.|.|.|.cXtXsXwXwX8X8XeXwX8XeXyXpXpXiXeXwX8X9X>X>X>X1X1X).|.uXzXOX( ! i > ; i U.1X;X[.R.P.B.' V V F 3.=X+X@X' u 4 4 5 R E @.",
"L J P C.M.<.;X>X>X7X>X9X7X8X7X>X7X9X>X9X2XrXlXqXqX2X>X2X2X0X1X>X8XlX2XL./ / / / ..#X1X~.].:X2X>X`.' V X.3.+Xk.s.] 9 2 j 4 R R R ",
"B l l D B C ~.-X[.-X[.,X,X>X,X,X-X,X,X9XqXqXqXqXqXqX2X2X2X2X3XqX9XrX2X#X6.w.4.u.-X2X>X;X9X;X,XqX>XS.C S 3.&X=X+X] e 0 j > R R R ",
"=.=.=.,.{ F R.^.~.^.^.(.{.-X-X[.[.[.-X9XtXrXqXqXrXqX9XqX2XuXrXrXtXyXtXqX<X@X.X<XyXuX0X3XrX2X2XqXqX-X{ N [ &X*X@XJ e j 4 T T T T ",
"Y.J.J.C.;.D E.`.~.^.~.^.[.-X[.`.^.[.>XrXtXrXrXqXqXrX3XrX3XtXuXrXeXyXzXzXgX3X<XuXrXtXzXzXzXyXyX9XqXrXJ.B 2.+Xz.u.J 0 i 1 a 4 2 t ",
"Y.Y.Y.Y.B.F I.~.!.~./.~.[.[.[.`.^.:XqXtXrXqXqX0XqXuXqXrXrXyXrXrXuXtXzXyXNXvXtXMXzXzXzXNXMXNXzXrXqXyX{.F 5.&Xh.u.L p w t e a u g ",
"Y.J.<.=.A N S.~.!.!./.~.[.[.[.`.-XtXzXtXqX0XqX2XqXqX3XqXqXyXrXrXfXtXlXzXMXcXlXzXvXzXzXMXzXNXNXyXyXuX>X] 7.*Xh.u.;.q t s p a u p ",
"S.<.-.D c d S.~.!.E.E.~.(.].^.[.9XtXzXtXrX3XrX2X1XrXqXrX9XtXtXtXyXrXuXyXzXcXvXvXyXzXzXlXzXMXMXyXzXtXqX5..X*Xa.u.F % & $ % @ $ & ",
"D F F D N N Z.R.E.!.R.~.~.~.~.[.tXzXtXrXqXqXqX1X;X2XrXrXtXyXuXuXcXuXMXzXtXNXNXtXzXNXzXVXlXzXtXzXNXzXtX#X=X*Xa.u.l             . ",
"l c B n ! M 5.Y.R._.E.!.;X].Y.OX).1XuXlXrX9XqX>X`.2XrXrXtXyXyXuXyXyXyXyXzXyXzXvXzXzXzXMXdXyX0XxXnXlX,X$X+Xx.d.d.7               ",
"Y.R.E./.L.[ K.!.W.W._.I.^.^.OX@Xu.J. X9XwXqX3X{.[.2X2XrXzXuXyXMXyXyXyXuXyXyXMXzXyXzXzXzXuXwX:X2X,XOXL.@X&Xx.d.u.6               ",
"8X8X0X>X#X..K.`.W.Y.E.E.R.OX+Xa.g.f.L.W.:XqX:X!.^.;X2XrXtXtXtXtXyXyXuXeXtXzXzXzXeXuXpXzXqX9X^.#XXXy.w.XX*X&Xf.6.;               ",
"Y.R.~.~./.] V.I.Y.J.I.P.T..Xj.t.d.g.a.7.F.W.`.L.-XqX9X2X2XrXzXrXtXuXqXtXuXuXtXtXuXrXzXzXqX<XL.u.h.q.i.&XoXp.r.w.&               ",
":.=.H -.<.F | A.Z.H.S.S.OXk.t.t.e.e.t.e.5.G.F.T.9XuXwX2XqXrXrXrXqXqXqXrXuXrXrXtXtXrXyXuX3X,Xu.s.j.i.d.&Xh.i.q.4.&               ",
"{ H H S.A.D P B.M.V.V.Z.OXl.t.t.0.0.0.4.6.V.V.`.2XuXtXtXzXrX2X1XqXqX1X3XqXqXrXuXlXrXrX3X>X#X6.h.x.p.s.k.s.i.q.) @         X o + ",
"_.E.W.].F.x D ;.| ;.=.5.k.z.t.t.0.0.4.[ { | 1.'.rXyXrXrXrX9XqXqXqX9X2XqXqXrXrXrXlX0X3X>X;XR.o.d.x.s.s.d.i.q.4.~ o         o O $ ",
"Y.R.(.[.A.x D =.{ K =.7.x.g.g.t.t.4.[ K P $.;.#XqXMXzXrXzXzXyXrXqX9XqXqXuXrXrXzXrXqXqX>X;XH.! u.h.s.s.i.e.w.O.[ o   .     o O % ",
"J.D.R.R.=.e U P P I ' 7.k.t.t.k.r.0.3.} L L J W.uXzXlXvXzXyXzXlXyXzXyXvXzXzXzXzXcXyX3X>X-X1.m [ s.a.t.f.4.w.O.! .         X . X ",
"d n c v c t B J P L J 5.d.z.g.t.t.e.w.[ H G H P.uXyXzXzXyXdXNXNXvXvXpXyXzXNXNXzXvXuXuX>X].| z m y.d.e.w.w.w.4.m .             X ",
"f d s s w 0 f  .H ' J ' 6.i.g.t.t.t.e.4.] G $.;XzXzXlXlXyXyXzXlXvXvXvXlXzXzXNXyXyXuXqX2XW.U f s ` 6.r.r.q.0.[ d .   . . X X X + ",
"} ,.J D f C L ' D H A H ] 4.r.g.t.t.t.w.3.D $.2XuXzXlXzXzXdXvXzXtXzXvXvXvXuXyXuXtXwX2X:XA.x x t h ..4.7.q.~ m y + . . .   . .   ",
">.Z.>.,.n l v C B N Z N D K 3.i.g.a.i.t.w.3.1.>XuXfXdXzXdXdXMXzXyXuXyXzXzXyXyXyXrXrX1X:X' l x c l d h M W j e u + . X . .       ",
"D =.J D l * = x V f Y N v k M o.0.d.a.g.t.i.d.$X<XuXzXbXNXMXNXxXVXNXyXyXzXtXyXyX0XrXqX`.n d l V K t r e j p e < + X X X X O % * ",
"1 l t 9 e < 7 N x f c N V V z S ~ 4.r.d.t.g.t.k.#X<X3XzXzXNXNXMXfXdXNXzXzXzXyXrXrXlX2XI.l l Y U $.x y e a l u p q t C K <.J.W.[.",
"= q t 9 7 = q x f d b V N S b B c ! ) w.i.z.z.z.j.+X+X=X=X$X$X$X#XuXVXNXzXzXyXuXqX2X2XB.t Y y Y ' B q 3 Q s 9 H.W.W.~./.~.(.(.^.",
"1 s w 0 < 6 0 l c V B B B C N x x n m ` 4.d.x.z.h.*XoX&XoXXX.X%X-XzXzXzXNXyXyXqXuX3X>X;.k s J 1.OX} v 1 4 2 e ,.Y.D.-.D.P.Z.S.C.",
"t J C x t t r v S N N N C B B C N N s z X..XXXXXh.h.&X&X&XXXXX$XuXMXMXyXMXuXqXtXqXqX{.{ t t ;.}.7XY.].F.[ m.H 2.B.P Z S.Z.1.F -.",
"e -.| ' ' { H V.B.H b C D D Z B V x k x C.-XOXu.a.h.h.&X&X+Xp.r.L.L.qXlXlXuXqXrXqX0XI.' S { S.(.5X(.cXjX6Xb.6X(.E.8.R.7X7XM.2.z ",
"s ,.' H H F C | >.{ L ' H C C S V V x x E.9X/.K.u.XXs.h.oXp.4.( m # ; z | S.P.J.:.F H [.1X9X8X7X%Xl.%Xv.v.&.v.n.&.*.*.c.6X! z p ",
"n { F F F F F } ] { } >.>.} { F K B B S 4X;X].Q.3.y.d.s.p.w.O.6.X.& @ o O o @ # * c } K.[.7X:X6X8.3.9.9.&.&.v.c.c.n.kXn.c.6X1.-.",
"Z.Z.V.Z.<.' ] ' } { } -.B.V.:.{ ' F C ] 1X2X1XE.H.L.u.y.( / / ] 1.S.>.y 9 w S ;.S.S.S././.(.sXsX7X6X(.b.*.&.n.n.kXkXv.b.7X7X>.1.",
"<.S.S.J.S.=.F H { ' } { ' { -.-.-.F C -.9X1X;XH.Z.1...[ _ ` 2.>.} Z.J.P.R.R.E.]._.P.J.E.D.{ <./.>X7XvXfX6Xv.*.v.sX8.%.p q V c f ",
"Z.J.J.J.S.-.J | ..} -.} } } -.} =.=.-.H.1X1X!.<.<.Z.B.B.V.U.V.<.H.<.<.1.V.1.Z.S.U.S.Z.B.I.G q z 2.F.D.^.8XhXkXaXsX5X<.2.v y < - "
};
