/* XPM */
static char *waka51_jpg[] = {
/* columns rows colors chars-per-pixel */
"64 64 253 2 ",
"   c #020202",
".  c #0B0B0B",
"X  c #05070A",
"o  c #1D1D1C",
"O  c #151514",
"+  c #13100F",
"@  c #31251E",
"#  c #282725",
"$  c #3A2921",
"%  c #3B3936",
"&  c #211917",
"*  c #49372C",
"=  c #54382D",
"-  c #453D37",
";  c #52382E",
":  c #49453D",
">  c #5A453A",
",  c #67463B",
"<  c #74453B",
"1  c #67503E",
"2  c #4A4642",
"3  c #4D4944",
"4  c #4A4845",
"5  c #524E4A",
"6  c #554D45",
"7  c #55514D",
"8  c #5B554C",
"9  c #5D5A4E",
"0  c #575347",
"q  c #5B5553",
"w  c #5D5B53",
"e  c #585955",
"r  c #694B42",
"t  c #784A45",
"y  c #66564C",
"u  c #78564A",
"i  c #635D55",
"p  c #6B5C53",
"a  c #645E59",
"s  c #695E59",
"d  c #685650",
"f  c #745C53",
"g  c #5D6158",
"h  c #5F624F",
"j  c #636256",
"k  c #65635B",
"l  c #6A645C",
"z  c #6C695E",
"x  c #6B6256",
"c  c #75645B",
"v  c #7B635C",
"b  c #736A5E",
"n  c #776758",
"m  c #716D58",
"M  c #6B6661",
"N  c #6D6A63",
"B  c #676764",
"V  c #726D65",
"C  c #736E69",
"Z  c #796B63",
"A  c #757167",
"S  c #7A7265",
"D  c #76716A",
"F  c #7A746D",
"G  c #7D796F",
"H  c #7C7771",
"J  c #7E7972",
"K  c #6F706B",
"L  c #5D5E62",
"P  c #903C3A",
"I  c #B22F35",
"U  c #86584B",
"Y  c #865751",
"T  c #B64146",
"R  c #84625B",
"E  c #86695A",
"W  c #986B58",
"Q  c #94725A",
"!  c #A56C59",
"~  c #B36D58",
"^  c #A9745A",
"/  c #B7785A",
"(  c #A7654F",
")  c #836C65",
"_  c #866966",
"`  c #82796E",
"'  c #897769",
"]  c #957866",
"[  c #827C74",
"{  c #8B7D74",
"}  c #837E78",
"|  c #817770",
" . c #926E60",
".. c #A97966",
"X. c #BB7C64",
"o. c #B77B66",
"O. c #C37D63",
"+. c #CA7E5E",
"@. c #ACAC3B",
"#. c #BBCF0B",
"$. c #C8D705",
"%. c #CCD311",
"&. c #CCD334",
"*. c #E6E211",
"=. c #B8825B",
"-. c #A09F5C",
";. c #858176",
":. c #8A8276",
">. c #86817A",
",. c #8C857B",
"<. c #8C8A7C",
"1. c #91867B",
"2. c #938A7D",
"3. c #978877",
"4. c #9A8E73",
"5. c #AA8168",
"6. c #BC8264",
"7. c #B8886A",
"8. c #B88B75",
"9. c #B99179",
"0. c #A78878",
"q. c #B3AB7A",
"w. c #B4B176",
"e. c #C8885D",
"r. c #D58D5E",
"t. c #C6BC56",
"y. c #C28464",
"u. c #C58A65",
"i. c #CC8C64",
"p. c #C48C6C",
"a. c #CB8D6C",
"s. c #C98568",
"d. c #D28D66",
"f. c #CC936A",
"g. c #D69769",
"h. c #C68D72",
"j. c #D68B73",
"k. c #CA9578",
"l. c #D39472",
"z. c #DB9B7A",
"x. c #D79A77",
"c. c #E29D7B",
"v. c #C5AC6E",
"b. c #E5A47E",
"n. c #D6CE5D",
"m. c #E5D75B",
"M. c #D3D26B",
"N. c #8E8983",
"B. c #938C83",
"V. c #988D82",
"C. c #969185",
"Z. c #9B9285",
"A. c #9C958C",
"S. c #9D998D",
"D. c #969189",
"F. c #9E9A91",
"G. c #9B9693",
"H. c #A1968B",
"J. c #A49A8D",
"K. c #AA9C8E",
"L. c #A59484",
"P. c #B69887",
"I. c #A49D93",
"U. c #AA9D92",
"Y. c #A89F98",
"T. c #AD8D82",
"R. c #A5A195",
"E. c #ACA195",
"W. c #ACA49A",
"Q. c #A9A59B",
"!. c #B2A495",
"~. c #B1A59A",
"^. c #B4AA9D",
"/. c #B9AD9D",
"(. c #B9A597",
"). c #BAB29D",
"_. c #B8A38A",
"`. c #ADA8A3",
"'. c #B4ACA2",
"]. c #BAAEA2",
"[. c #B8AFA9",
"{. c #BBB2A4",
"}. c #BDB5AB",
"|. c #B9B6AA",
" X c #BDB9B5",
".X c #C79C85",
"XX c #D49786",
"oX c #C8A48C",
"OX c #D6A389",
"+X c #C9AA97",
"@X c #D6A996",
"#X c #CAB898",
"$X c #CFB393",
"%X c #C4ADA4",
"&X c #C4B4A5",
"*X c #CCB4A3",
"=X c #C3B6AA",
"-X c #C5BAAB",
";X c #CBBBAD",
":X c #C6B8A7",
">X c #D2BCAD",
",X c #D7BAA5",
"<X c #C4BDB3",
"1X c #CCBEB2",
"2X c #C7B9B8",
"3X c #D1BEB2",
"4X c #BEC2B1",
"5X c #CFC79B",
"6X c #CBC2AB",
"7X c #D3C3AE",
"8X c #D6C9AB",
"9X c #CDC2B4",
"0X c #CCC4BA",
"qX c #C6C4B9",
"wX c #D3C3B4",
"eX c #D9C4B5",
"rX c #D5CBB4",
"tX c #DBCCB4",
"yX c #D4C5B9",
"uX c #D5CABB",
"iX c #DBCCBB",
"pX c #DAC6BB",
"aX c #DDD2B6",
"sX c #DCD2BB",
"dX c #D5D1B3",
"fX c #D0D1AF",
"gX c #E2D5BD",
"hX c #E3D6BB",
"jX c #E1CFAF",
"kX c #E7E0AC",
"lX c #DBCDC3",
"zX c #D4CCC2",
"xX c #DCD4C4",
"cX c #DAD7C9",
"vX c #D6D5CD",
"bX c #E2D5C3",
"nX c #E3D9C4",
"mX c #E4DBCD",
"MX c #E5D8C9",
"NX c #E4DED1",
"BX c #E5DAD1",
"VX c #E1CCC3",
"CX c #DEE1CD",
"ZX c #E4E1D3",
"AX c #EBE2D4",
"SX c #E6E5DC",
"DX c #EBE5DB",
"FX c #E9E9DD",
"GX c #E9E0CF",
"HX c #EBEAE4",
"JX c #ECEBEB",
"KX c #E9E6E4",
"LX c #F1E8E7",
/* pixels */
"V D C C F [ [ } D.G.I.].>X>XwX:XR.B.{ G ,.C.A.Z.Z.R.E.~.E.4.<.N.>.J G J ;.>.J J } } } } H } H H } } } J ` ^.|.S v ) x k a k M A ",
"B.,.} J | C V Z V F { K.^.].].{.A.N.N.>.N.S.R.E.^./.~.E.!.E.J.B.>.;.J J ;.} >.>.} H } H } H H } H J J } ;.^.'.b v ) z l l k z K ",
"U.R.W.W.Q.Q.Q.Y.U.1.F M w 7 q a J G J J ;.D.R.Q.!.E.K.K.K.J.V.B.,.} J J J } J N.} } } H H H H H H J J } [ ~.^.z v ) l l M k l N ",
"W.~.{.}.=X1XzXyX~.H 7 5 7 7 8 q i a k B k D G ;.2.2.H.K.J.J.Z.B.>.J G J N.>.J J } } } } } H H H J } J J [ ^.^.z v ) l k k k l z ",
"^.{.}.<X0X0X'.{ 8 2 5 e e e i p j N D J H J [ ,.N.B.A.I.J.R.C.H <.J J J J } J N.} } } } H H H H } J J J } `.'.V v _ z M k k l N ",
"[.{.<X<XQ.| 7 : 5 7 e M B V S b D J ,.B.N.B.D.I.R.R.W.'.{.=X[.Z.D.N.J >.} } } J } H } H H H H H H J H H | ~.^.V R _ z l k k M N ",
"[.<X`.C 3 2 3 5 w k z S ` <.U.F.B.B.D.G.G.F.W.'.}.|.}.6X1X:X6XU.F.B.J J } } J N.} } } } H H F H F H J H | !.'.V R _ z l l k l V ",
"|.J 2 % 3 5 q a V D ' J.{.zXAXvXS.C.F.R.'. X<X<X9XqXwXwXtXwXlXE.F.B.} J J J J J } H H H H H F H C H J } | !.~.N _ _ l l l M M V ",
"a 4 - 4 7 i b ' 2.E.0XBXDXBX0XY.G.`.[. XqX1XuXlXtXrXsXnXMXMXnX~.R.S.J J ;.} J J J J J J H | H H D H J H ;.W.^.b R _ l z k s z N ",
"% - 4 5 q V Z.[.xXAXNX0X=XY.A.Y.^.}.4XzXuXvXcXcXDXFXFXFXFXSXDX X[.F.J J } } J J } J } J H H H H F H J G [ Q.'.S R _ l M l a l B ",
"2 2 4 4 7 H.cXDXMX=XR.Z.F.F.I.}.;X1XzXNXSXKXKXHXJXJXJXJXJXHXJXqX|.R.G J } } J J } [ } [ | | F F F G | G [ Q.'.z R ) x k M l M N ",
"2 % 2 2 5 } `.F.B.} ,.V.A.Q.[. XzXcXKXJXJXJXJXJXJXJXJXJXJXJXJX X`.G.J J } } J ;.} } } J | | F F A F [ | } W.`.x R ) s z M l M N ",
"2 4 4 4 5 q k D | ,.C.R.W.[.0XvXSXSXSXvXNXSXHXHXKXHXKXHXSXHXSX|.R.S.J J } } J J } [ } H H H F | A F { [ :.`.'.l R Z a k l z a N ",
"4 5 5 7 q a N } B.J.R.'.{.9XxXzXQ.,.S i l F Q.SXDXSXZXNXZXAXAX{.Q.S.G G } } } J [ [ | F F F D | A H [ [ [ W.[.l R Z p a a s a M ",
"k i a M V { D.A.Y.~.{.-X9XuXK.p = r u u , = s }.ZXNXNXZXNXZXGX|.Q.S.H J } } H G [ | H F F F D F D D | | | W.'.x R v a i i k w M ",
"M D [ N.F.Y.Y.`.'.}.}.0XwXA.1 > W 7.a.s./ ..W T.NXNXZXZXmXmXMX[.R.D.J } } J H J [ | H F F F D F D F [ | G W.].p R v s w a a a N ",
"F <.G.R.W.^.{.{.:X6X>XeX9XS > d 7.x.j.j.d.d.s.8.iXCXZXBXcXCXmX}.`.G.H H J H J H H F H H C F F H D D H J J W.W.z R n x p i g j l ",
"I.'.'.[.{.=X-X<XwXwXpXyX6Xz > n 5.x.x.l.a.a.y...yXSXSXLXFXFXKXqX`.G.J H J H J H H F F F D F C D D D G J G W.W.l _ v k i i w j l ",
"].'.F.R.-X9XwXyXxXxXmXmXcX[ y ) 7.z.p.o.^ p.X.] [.HXKXLXHXHXJXqXY.G.H H H H H H H C H F D _ D H D A G J H W.W.l R f a w i i i l ",
"| D i ;.yXnXMXZXMXAXAXAXZX4.u E 7.z.7.^ ! y.o.( P.SXSXLXHXSXFXqXY.G.H H H H H H H F H H D F C F D A G G G Y.Q.k R R a e q i a j ",
"3 6 0 ` xXMXnXbXnXnXnXmXxXP.W ..h.z.a.o.o.j.s.~ 8.mXcXNXZXmXGX-XY.G.H J H H H H F C H H D F C C D N D F F I.I.a R c i 9 i a a a ",
"i z e V 9XtXsXtXtXgXiXgXaXOXp.7.h.z.z.h.X.O.O.o.h.jXhXbXbXhXnX).F.G.F J H F F H F C C F K F C C D D F H F I.I.a v v p 9 w s a w ",
"5 i 8 V wXiXiXwXrXiXiXsX8XOXj.5...h.z.j.o.~ ~ ! 8.*XnXgXhXgXhX&XR.C.A J F C D C H C H C C F C C D D J J H R.Q.l x f f i h i a k ",
"3 7 3 z 9X6XtXiXrXwXtXtXtX@Xl./ Y W X.X.o.~ o.! / P.hXhXgXhXbX|.R.C.D J H K H H H C D F C F F C K C J J F I.Y.k p f f p w w i i ",
"k e i V 1XwXaXiXiXeXtXtXiXtX@X7.u , U ..X.~ ~ ! U P.fXdXjXtXiX{.S.C.G A G F F D F K F F F K C C N D G G F I.U.i j h p d q q d 9 ",
"N k z ` uXgXsXsXtXtXsXrXwXrXjXoXu > , U h.X.( ~ u 3.sXrXjX8XiX:XF.D.G F A D K H F F C C C C C F A D F F D R.U.i x x y u x s w j ",
"N D F ;.9XaXaXsXrXtXaX8XrXrXtX,XE * * > W o.^ W , x 9XtXjXaXiX&XI.C.F F D D N G F C C C C C V C C D D A D R.I.i p p 8 t 9 e e a ",
"N H J B.9XgXhXaXaXtXrXtXaXrXdX8X4.* $ * = , , = * * !.tXtXaXhX*XI.S.F G D D N V F C C V C C V C C N D A D R.U.8 g d t P U 9 e a ",
";.F.`.Q.uXsXtXrXtXtXtXtXiXwXaXhXoXW * $ $ $ $ @ $ > K.iX8XdXsX:XU.A.F F D D N D C V C V C C V C N V D A D U.S.8 h < P I T U d y ",
"B.`.|.'.yXwX6XrX8X8X8X7XwXwXwX#Xk.7.W u > * $ $ > ' W.&X=X6X6X=X^.H.A C F D C D C V C C C C N V N C A V V I.S.0 , < < I I T u y ",
"A H H H ^.:X:X&X&X:X;X:X-X:X*XP.l.x.7.o.W < < U W L.Q.H.R./.{.;X:X~.:.V D C C N C C C V C C N C N V V N V S.H.0 t < , P I I u y ",
"z D K V R./.)./././.:X:X{.:X>X+Xu.g.a.e./ / ^ =.! 0.'.`.&X&X&X=X-X1XR.G D N D C C V C V V C V C N V A N M J.A.0 r r < P I I t 0 ",
"4.Z.:.A I.].^.~././.).&X%X{.4XiXoXXXa.i.e.=./ o...P./.{.:X&X;X:X;X;X1XI.D A z A V V A N z A B N z N K N z R.S.9 y u t U < t y 8 ",
"I.2.;.V I.~.E.E.!.(.(.$X+X(.{.uXlX#X.X7.u.s./ X.9.*X:X}.:X*X;X2X;X;X1X}.B.M A N A V A V N N N N z B A K N S.<.9 8 5 r r r y 8 7 ",
"I.2.,.D Y.!.W.W.E.(.@X@XOX.X!.0XzX0X,XoX7.6.O.O.P.>X:X=X=X;X1X1X9X1X1XyX'.F D N A N A N N N N B z M B N N S.B.w w q y d d q e w ",
"<.F k y B.'.~.I.Q.+XOXXXc.k.P.|.vXzXiX>X@XoXoX.X+XwX2X;X1X>X3X9X9XwX>X3X1XZ.D K A N A V M N z N V N N N z I.G.8 e q q 8 6 5 q e ",
"F A b b Z.W.U.~.}.>XOXz.c.j..X{.1XyX1X;X3X>X>X;XwXwX1X1X0X1X1X9X9XyX1X:XyX}.J K A z A K N N N N M K M C z F.D.# o o & O o # # # ",
"S z x n 3.R.~.-XlXtX@Xx.l.l..X-X0X0XyXyXyX3XpXlXyX1X9XwXyX1X1X9XwXeX;X;XwXyXJ.V K M N N M B M N z N k B k A.<.            X X . ",
"S ' ] v L.K.%XlXVX0X*Xk.f.f.k.*XuXyX9XyXeXwX3X;X0XwXwXwXyXyXyXiXwXwX;X1XwXwX^.' N M M M z M M N M N M M z S.D         X       X ",
"-X&X(.] K.!.-XlXpX0X3X.X8.f.7.+XeXyXyX9X3XwX9X:XqXwXeX7X3XyXyXwXwXwX1X=XyX9X~.3.D N N M B M M N k M M a z B.k                   ",
"6X:X).<.J.E.2XbXpXiX3X+Xh.6.6.oX9XwXwXwX3X;X6X;X3XwXyXyXyXyXyXyXpX9X:X1XqX!.9.i.] z K N M B s N k k l j k <.7                   ",
"2.2.2.A 1.J.-XiXpXyXyX,Xk.p.7.oX9XwXeXwX3X2X;X:X1X3XwXwXyXwXyXyX9XeX&XJ.L.9.f.f.5.Z B M l N M M k l M l k ,.5                   ",
"A ;.D.K [ B.{.zXpXiXiX,XOXl.p.oX1XwXyXwX;X;X9X;X;X1X1XwX3XwXyXwXwXeX(.] ..u.d.f.f.] N M k N M l k l k k j >.:                   ",
"C.R.D.N H ,.'.lXpXVXpX,XOXg.h..XwX1XyX0X;X;XwX;X;X;X1X3X3XwX1X3X7X1X~.W ^ e.e.i.g.7.S B s l k M a a k k j ;.%           . + .   ",
").|.C.j A } I.lXlXlXiX,XXXx.f.k.>X1X0X1X1XwXwX;X;X1X;X;X3X3X1X;X>X<XW.E ! / y.i.r.d.5.j z k j M l j w k l } #         . o o o O ",
"!.).2.i N J B.zXlXlXlX,Xx.g.a.k.*XwX2X1X;XwXwX1X3X;X1X3XwX3X1X1X-X1X~.Z E ^ / e.d.g.5.n M k a l k j g z x [ #         O o o o # ",
"4.<.S 7 V [ { =XlXlXlX,Xk.l.a.a.oX>X9X1X>XeX>X1X1X1X1X1XwXwX9X1X;X;X].D Z Q ^ / i.f.u.Q M B s k j q j p f ) o           X   X . ",
"i j i e M F A W.VXxXlX,Xk.g.d.a.9.*X1X1XwXwX1X1XwX3X1XwXyXyXeXwX>X1X-XJ N n ^ O.p.e.g...a B s k x i l p f R +           . X + + ",
"h j 9 9 k H F A.vXzX3X@Xg.f.h.j.9.P.*X1X3X1X;X;XwXeXwXwXwX9XwXwXwX3X;X:.K k ] i.r.i.f.6.Z B p g w k u f 0 Z +       . . . + . + ",
"2.[ k A J D V } %X*XoXOXd.d.p.i.h.9.%X1X1X;X;X;XwXwXwXwXwXeXwX7XwXpX3XE.K B Q i.i.u.i.u.n B p k a k u u 0 w O . . . X X X       ",
";.;.l 6 q M M k 0.OXl.g.d.d.a.i.p.8.(.;X2X=X;X1X9XwXwXwXwXyXeXwX6XwX9X:X;.z E 7.i.f.i.u.n N n i l p r t 9 7 O . X . X         . ",
"N z 9 % 2 a a M ] c.g.g.g.s.a.i.y.8.P.:X:X:X*XwXwXwXwXwXeXyXyXyXeX9XwXwXR.N E 5.u.r.i.u.' K { M i 8 r d h 4 O . . O O # % 5 l N ",
"9 3 3 : 7 j a k Q c.g.f.a.O.s.u.7.7.L.&X:X:X;XwXwXrXeXwXwXyXyXyXeXyXyXwX=XH b ] p.e.e.d.{ L { D q e R v 6 V A J ;.C.J.^.{.-X|.Z.",
"0 7 2 : 5 B N i ' z.r.p.y.y.s.y.6.7.T.).:X&X;X3XwXeXpXwXwXyXwXyX9XyX9X>XwXA.N n 7.i.r.f.3.K 2.F w 5 d f : Z.).^.Q.^.^./.!.!.U.2.",
"9 0 3 3 2 w N z ' f.e.y.6.e.s.X.6.8.P.].=X{.=X=X;X3XyXwXyXpXyXwXwXuX9XeXrX'.A j Q p.r.e.9.Q.).4.F g > 6 : 2.R.2.;.2.H.L.B.N.A.'.",
"A N z k w H V N ) i.e.y./ =.=./ / 9.(.^.-X].:X%X=X-X1XyXiXiXiXeXeXyXxXtXwXI.M z m 7.e.g.k.).fXq.{.=XP.L.<.<.<.2.;.I.W.1.| J D.`.",
"{ [ ;.` G 2.<.' m 5./ / / =./ / X.9.K.[.].&X;X2X:X1X;X1XiXiXiXiXiXyXiXyX2.y ` S ' 9.d.i.XX).5X$XbXkXm.M.M.6Xq.q.w.5X-X,.V j 7 7 ",
"S V S S V | :.S ` ' Q ^ / / ~ ^ ..P.!.=X;X>X3XzXwXwX9XwXwXiXVXiXMXiX/.S c ;.J.R.4X#Xl.f.x.$Xw.v.v.t.&.%.%.&.%.$.#.&.M.-.A j % # ",
"| | ` S V ` ` | :.3.3...=.=./ ^ P.+X~.{.-X1X3X3XwXwXeXeXwXyXiXuX{.3.y Z H.Z.J.U.&X@Xc.g.g.w.w.-.5.t.%.$.$.#.$.$.$.$.&.@.Q 1.<.;.",
"Z.Z.2.` Z ` | ` [ :.:.3...W ( ^ 3.U.J.Y.=X3XyXyXiXiXyXyX1X!.{ p 6 n Z.J.J.!.U.U.3.5.b.g.l.#XfXkXrX5Xn.$.*.&.n.&.%.@.w.n x 3.&X<X",
"J.J.A.` S [ [ [ ` G ` ` ' '  .] ` C.:.[ V.K.U.~.U.].~.B.b 6 6 V V.U.!.U.K.J.L.K.3.8.x.b.z.9./.2XqXiXjXm.m.n.kX5X<.I. XG.J J B 9 ",
"Z.J.Z.:.S ` { { ;.:.{ | [ ,.1.{ Z.}.'.!.U.K.V.2.V.Z.Z.H.E.R.J.'.E.~.H.~.!.U.~.L.0.k.b.z.g.8.x A :.J.Q.#XdXsXSXSXcXvXzXqX2XzXS.` ",
"H.J.K.3.[ :.:.,.<.:.{ 1.,.` [ { A.}.].].].~.U.K.U.U.I.U.E.E.E.R.K.K.(.U.H.~.~.K.9.b.z.c.g.x.c 7 f ' 4.C.2.J._.#XyXuXwXaXtXsX6X}.",
"J.K.W.Z.:.,.,.2.2.,.<.3.<.3.:.{ ~.:X/./.{.^.E.!.R.E.~.(.!.K.!.Z.L.!.!.!.!.(.K.K.p.d.c.b.g.OX) q 5 0 N.).<.G D B 0 j V N S j 6 % "
};
