/* XPM */
static char *waka3_jpg[] = {
/* columns rows colors chars-per-pixel */
"64 64 254 2 ",
"   c #020102",
".  c #04060A",
"X  c #090B0D",
"o  c #0A0708",
"O  c #16120D",
"+  c #1B1816",
"@  c #120E0B",
"#  c #291D1A",
"$  c #27231C",
"%  c #392518",
"&  c #282623",
"*  c #362B25",
"=  c #39342E",
"-  c #3D3935",
";  c #1D1E22",
":  c #473529",
">  c #443C37",
",  c #4E342A",
"<  c #3F423B",
"1  c #45413D",
"2  c #49443A",
"3  c #5A4639",
"4  c #53442F",
"5  c #67493B",
"6  c #6E4537",
"7  c #706E3B",
"8  c #4A4644",
"9  c #4C4B45",
"0  c #474645",
"q  c #544F4B",
"w  c #574B44",
"e  c #55524C",
"r  c #5A534C",
"t  c #5A5649",
"y  c #5A5551",
"u  c #5D5C54",
"i  c #565654",
"p  c #52554F",
"a  c #694C47",
"s  c #774A46",
"d  c #66554B",
"f  c #78584A",
"g  c #635D54",
"h  c #6B5C52",
"j  c #635E59",
"k  c #655552",
"l  c #785C55",
"z  c #5D6155",
"x  c #646155",
"c  c #6C6156",
"v  c #65635B",
"b  c #6B645B",
"n  c #6D695E",
"m  c #65685D",
"M  c #74645C",
"N  c #7D645C",
"B  c #72695E",
"V  c #7C675A",
"C  c #6F634E",
"Z  c #666561",
"A  c #6B6662",
"S  c #6C6A63",
"D  c #646962",
"F  c #736C64",
"G  c #7B6C64",
"H  c #736E69",
"J  c #756762",
"K  c #6D7169",
"L  c #757166",
"P  c #797266",
"I  c #76726A",
"U  c #7A756D",
"Y  c #7D796E",
"T  c #7B7671",
"R  c #7E7972",
"E  c #7E7D79",
"W  c #6E7470",
"Q  c #5E6764",
"!  c #8F3936",
"~  c #B82F38",
"^  c #B53941",
"/  c #834440",
"(  c #8B5A4D",
")  c #865D53",
"_  c #AE4749",
"`  c #82635A",
"'  c #896858",
"]  c #996955",
"[  c #977057",
"{  c #A7775E",
"}  c #B5775D",
"|  c #A8704E",
" . c #826562",
".. c #846B64",
"X. c #8B6962",
"o. c #837A6D",
"O. c #84766B",
"+. c #977665",
"@. c #827C74",
"#. c #8A7E74",
"$. c #847E79",
"%. c #857A75",
"&. c #987269",
"*. c #A77967",
"=. c #B87D66",
"-. c #C07D60",
";. c #7E8772",
":. c #CCD711",
">. c #D0D432",
",. c #9E8A6F",
"<. c #858175",
"1. c #8A8276",
"2. c #85817B",
"3. c #8B847B",
"4. c #8D8A7D",
"5. c #928B7E",
"6. c #968779",
"7. c #948D74",
"8. c #A78367",
"9. c #BC856A",
"0. c #B8856A",
"q. c #A88976",
"w. c #B88B76",
"e. c #B49675",
"r. c #B4AB6A",
"t. c #D38D5E",
"y. c #CB8D6B",
"u. c #C78967",
"i. c #D68D68",
"p. c #CE936C",
"a. c #D3936C",
"s. c #D9956C",
"d. c #D79667",
"f. c #C48D76",
"g. c #D78D71",
"h. c #C89678",
"j. c #D49374",
"k. c #DB9574",
"l. c #DB9B73",
"z. c #D49B7B",
"x. c #DC9B7A",
"c. c #D79879",
"v. c #E19867",
"b. c #E19A78",
"n. c #E18D68",
"m. c #D8A17B",
"M. c #E3A278",
"N. c #E4A26C",
"B. c #E4975F",
"V. c #CED555",
"C. c #E2D957",
"Z. c #D9E26B",
"A. c #D6D766",
"S. c #897A8D",
"D. c #8E8A82",
"F. c #888581",
"G. c #938D83",
"H. c #978C85",
"J. c #969184",
"K. c #9B9285",
"L. c #9C948A",
"P. c #9D988B",
"I. c #95928B",
"U. c #9C9892",
"Y. c #A49A8C",
"T. c #AA9B8D",
"R. c #A49788",
"E. c #B39C8C",
"W. c #BA9885",
"Q. c #A49C93",
"!. c #AA9E93",
"~. c #A69E9A",
"^. c #B39F91",
"/. c #ABA395",
"(. c #ADA59A",
"). c #AEA99D",
"_. c #A7A496",
"`. c #B3A395",
"'. c #B1A59A",
"]. c #B3AA9D",
"[. c #BAAC9C",
"{. c #BAA797",
"}. c #B2A996",
"|. c #ADA8A1",
" X c #B4ADA2",
".X c #BAAEA3",
"XX c #B5AAA5",
"oX c #BBB2A5",
"OX c #BDB5AB",
"+X c #B9B6AA",
"@X c #BCB8B1",
"#X c #C99A83",
"$X c #DA9B81",
"%X c #E19B81",
"&X c #C7A18A",
"*X c #DBA386",
"=X c #C4AB97",
"-X c #D8AA96",
";X c #D9B39C",
":X c #CCB29A",
">X c #C2B4A4",
",X c #C2B5AA",
"<X c #C4B9AC",
"1X c #CBBCAD",
"2X c #C8B7A5",
"3X c #D3BDAD",
"4X c #D6B7A6",
"5X c #C4BCB2",
"6X c #CCBEB2",
"7X c #D4BEB1",
"8X c #C3AFA5",
"9X c #D4D393",
"0X c #E5E29A",
"qX c #CAC1AD",
"wX c #D3C6AE",
"eX c #CDC2B3",
"rX c #CCC5BA",
"tX c #C8C6BB",
"yX c #D2C4B5",
"uX c #D6CAB4",
"iX c #DACBB5",
"pX c #D4C6B9",
"aX c #DAC7BC",
"sX c #D6CABC",
"dX c #DACBBD",
"fX c #DBC4B5",
"gX c #DCD2BD",
"hX c #DBD3B7",
"jX c #DAD7A8",
"kX c #E1D5BD",
"lX c #E4D5B9",
"zX c #E5CDB5",
"xX c #E3DAA4",
"cX c #D5CDC2",
"vX c #DBCEC2",
"bX c #D6CBC5",
"nX c #DDD2C4",
"mX c #DBD5CA",
"MX c #D4D1CA",
"NX c #E2CEC5",
"BX c #E1D4C3",
"VX c #E3D9C4",
"CX c #E2D4C9",
"ZX c #E4DCCD",
"AX c #ECD7C2",
"SX c #E2DDD3",
"DX c #EBDDD2",
"FX c #E5E1D5",
"GX c #E6E3DB",
"HX c #EAE4DA",
"JX c #EBEAE5",
"KX c #ECECE9",
"LX c #E5E8E5",
"PX c #F0EDE4",
/* pixels */
"I.|.+X@X|.4.I I R @.5.5.K.K.5.K.3.6.1.@.Y K v S v i 9 8 0 0 0 0 Z I I S Y @.o.@.2.$.$.$.R R <.T I R R 2.3.1..X|.F G ..F n A v b ",
" X@X+X_.J.2.3.D.P./.oX<X<X1X1X1X,X].P.K.5.3.T L I S j y 9 1 > 1 I T I I R @.@.2.$.$.$.R R <.R R R <.@.@.1.<. X XJ  ...M b A m F ",
"|.U.F.E R 2.G.G.K.L./.].oX7XfX7X7X'.R.K.1.1.4.3.3.G.G.G.4.Y B j @.2.T R E @.$.#.$.@.$.$.R <.<.R @.R @.$.<.@. X XH  .G v j A v J ",
"$.T S H I L I U @.$.5.L.'.2XwXyX6X'.H.3.@.3.K.L.!.!.`.XX[.{./.T.G.D.R R @.@.$.$.$.@.2.$.<.R R <.<.R R $.@.@. X).F  . .b v A v F ",
"I.U.L.H.D.@.@.Y G H H J 1.G.3.D.L.K.D.2.3.4.I._./.].'.`.!.T.Y.R.I.G.@.@.@.$.$.$.$.$.2.2.@.R @.R R Y @.$.@.@. X Xn N ` n c A v M ",
"K.Q.Q./.]. XoXOX>X<X'.$.A i 0 8 q j A b K S Y G.H.K.Q.Y./.T.T.R.G.3.R R $.$.$.$.$.2.2.$.@.@.@.Y T Y R $.@.@. X XF ....n j b x b ",
"~.)..X@XOX<XrXpXrXY.A 8 0 i i j u j u v I S F U 1.3.5.G.R./.T.R.1.3.$.@.$.$.$.$.$.@.$.2.R <.R Y T R R <.1.@. X XF ....b j v x b ",
" X). XoX<XpX6XQ.S 8 8 i i j j Z Z Z S T F.@.$.3.G.L.Q.Q.(. X.X[.3.H.2.@.$.$.$.2.2.E @.$.<.R E U Y R R R @.o.). XJ ..X.b j b z b ",
"XX.X X5X5X~.A 0 0 9 y j n G P o.T T 3.J.D.I.I.~._. X].+XOX1X6XeX'.L.H.E $.3.$.S.@.2.@.@.$.T T T T U Y E @.@._. XF  ...n c v m c ",
" XoX5XU.j 1 0 9 g j n F U 3./.,XcXQ.G.H.L._. X+X@X<X<XeXuXfXfXiXoXP.L.%.@.#.$.$.R 2.@.2.R T R T T U T R @.@.(. XF  ...b b v b v ",
"@X|.2.> = 1 e y v H #.L..XcXZXFXbX~.I._. X+X5XtXtXuXvXrXeX=X{.{.Q.L.U.1.@.$.1.@.E $.@.$.$.T R T T T R @.@.%.(.+XF ....b c v m c ",
"w - > 0 q q y L 1./.<XcXFXDXpX[.Q.Y.).+XeXrXcXcXnXZXeXD.j > > - > w Y U 2.$.@.@.@.2.R $.@.R @.T R T R @.#.@.).+XH X...B b v v j ",
"- - 8 0 8 e b Q.rXZXFXcX XQ.P.Y.(. XqXcXbXmXDXHXJXrXJ 1 = 3 5 3 : % % w ;.F.R <.$.$.@.$.$.E R T R T T @.@.o._.oXF ....n b b b b ",
"= 1 - 0 0 9 F rXcX<X!.H.G.J.Q.).@XtXMXSXGXLXJXKXKX_.w : 5 [ y.p.e.) 6 3 I F.E @.$.2.$.$.@.T E T R T T @.@.o._.oXn N ..b b A A b ",
"< 0 0 0 1 9 g H o.@.$.G.L.Q.).OXrXmXSXJXKXKXKXKXLX#.2 3 f u.b.l.z.p.0.+.U $.S.<.2.2.@.@.@.T R T R T R $.@.@.).OXn N ` b b b b v ",
"9 9 9 0 9 9 r j J @.G.P.~.XX@XtXmXJXKXLXKXKXKXJXvXM w d ` w.$Xc.i.i.p.e.O.$.<.o.$.$.E R E U T U T H T @.#.@.).OXA N N j j j v h ",
"p u y i i u A I 3.I.~.|..X<XrXgXnXZXFXFXHXFXGXHX5XJ l l 8.b.k.f.*.=.y.=.P S.%.%.@.@.@.@.T I T T T Y T R @.@.Q.@XA l ` g x j x j ",
"j j b H U @.I.U.Q.)..XOX1X6XwXhXsXnXnXmXZXSXSXFX6X*.*.{ 0.b.c.=.] 9.y.{ 1.R $.%.@.@.E ;.R U T U T T T @.R T Q.oXH ` ` j v x g g ",
"F c F 1.P.!.~.).XX.X,X<XeXwXyXuXsXgXmXmXSXFXSXFXfXg.s.w.f.%X%Xf.=.g.j.] O.<.R @.R @.T R T T E U U I U T R @.Q.+XS ` ` j v c x j ",
"b U H./.|.XX.X,X<X6XeXrXsXdXsXsXmXmXSXSXFXGXGXGXNXg.n.9.w.$X%Xc.$Xj.b.9...<.T @.R R Y T T T R I T T T R R T Q.+XS l ` g z g g j ",
"~./.oXoX'.,X1X1XqXuXsXgXmXZXZXSXGXLXJXLXKXKXKXKXJX*Xg.*.&.h.*Xb.g.-.-.#X7.I @.T R R Y T Y U Y I U U T E R @.Q.oXS ` ` x u k u g ",
".X).P.4.U ].pXdXnXZXZXSXHXHXJXPXJXJXJXKXKXKXJXKXLX3Xh.[ f ] 9.x.g.} | { 1.T @.T @.T Y T T I Y I I L I T T Y U..Xb l ` x u u u v ",
"$.A r e q oXZXVXCXZXZXZXZXZXZXSXZXFXSXSXFXFXSXFXGXgX&X*.5 5 ( u.g.-.=.] V Y U E E T I R U I U U U I U T U H K.(.m l N g z d g v ",
"r q e u w  XgXuXcXvXdXnXBXVXnXVXVXVXVXZXZXZXZXSXDXnX:X*.4 3 6 [ %X-.] ) M U @.T R T U E T I U U I S F I U U P.XXS ` ` x v g g v ",
"9 i j Z e /.uXwXiXiXiXdXgXgXkXgXgXgXVXVXVXVXBXBXVXAX;X+., , : 5 X.] ( 3 h E T W R H H T I I T F I I I L @.R I. Xj h h f x j h x ",
"q 1 0 q 2 Y.uXiXfXuXuXiXiXdXdXgXhXgXkXVXkXgXkXkXnXzX-Xh.s : % * , , , % a H I T T R T R $.I H T U I U I R Y K. XS v h ) h g u z ",
"3.A p i q P.eXiXuXuXuXuXiXuXiXiXhXhXVXVXVXVXVXVXnX:Xh.m.0.f 4 * * # * % a $.T O.#.R H L H H I S L I L T Y I J.[.K g k h h g z p ",
"I.I j S v /.iXkXhXiXiXiXzXiXiXiXhXhXhXhXgXVXBXvXmX=X9.z.l.h.' a , : : k %.XX.X.X.X X'.Q.$.F T T I I H Y Y Y H.).M j g d s g u k ",
"D.I D I K _.uXiXlXhXuXuXiXiXiXiXuXuXiXdXgXdXsXeXtXyXh.a.l.a.9.[ ] ( f /.(.XX7X6XeXsXsXpX].<.B F T I I T L Y H.).c u x x s w g u ",
"Y K D T U /.gXkXhXhXhXuXiXiXiXiXiXgXkXVXdXsXrX5X@XgX4Xh.p.u.u.9.-.} R.<X@X.X7X6XuXfXuXvXsX,XK.F H H H T L U J.).m z x f / s d e ",
"Y I R I.D. XhXuXiXiXuXuXiXiXiXiXhXhXdXiXyXeX5XOX@XrXnX2Xz.h.p.p.i.f.4X<X6XyXeXcXiXdXdXdXsXnXqXL.U F F I I L G.(.c d s / ! ^ _ 6 ",
"Y @.U.@X@XrXgXwXwXwXuXuXwXwXwXiXgXdXyXqX1XeX5X@X@XMXMXbX:X&Xp.m.h.;XpX7XcXpXdXNXdXnXsXsXdXvXsXsXG.I S S I H G.(.h d a / ! ~ _ ( ",
"I T 2.4.<.Y.2X1X2X<X1X1XeXuX,XqXpXpXyX6X6XpX7X<X<XtXsXrX6X3X4X4X2X3XaXdXsXvXvXvXBXnXnXvXdXvXvXnXaX5.B J K n 7.|.v a 5 6 ! ~ ~ ! ",
"x x n L n 1.].>X>X>X>X2X<X<X>XeXpXsXpXeXyXpXyX6XeXsXsXpX7XpXsXfXfXaXdXvXnXcXvXvXCXvXdXNXvXpXaXnXvX7XT W F c 5.|.m w s 6 ! ~ ^ ! ",
"1.1.3.5.Y 3.[.oX].[.}.oX>X>X1XsXaXsXpXeXeXpXpXpXcXpXaXsXcXcXcXnXdXvXsXsXcXsXrXsXBXBXnXdXsXdXvXnXVXNX+XK F G 4.).l d a a 6 ! / a ",
"T.R.K.5.I o./.).(.].}.[.>XoXyXdXsXpXpXpXyXpXpXpXpXpXpXaXdXsXsXsXnXvXbXbXnXsXsXnXdXBXNXaXyXdXCXNXnXMX,Xq.B F 3._.v e r a f a t p ",
"R._._.K.@.1.].}.(.'.}.[.oX<XpXsXsXsXpXpXpXpXpXpXpXfXsXvXvXdXdXdXvXmXNXvXnXvXCXBXBXNXdXdX6X7XvXNXSX<Xh.m.8.B D./.n p u d f h k r ",
"Y.7.7.P v H (.).).).(.[.oXqXdXsXaXsXpXpXyXyXpXpXpXrXsXsXvXdXdXNXvXCXNXvXvXvXNXNXCXNXvXpX.X1XvXmX5X&Xm.v.k.,.4.`.n r k k k w q e ",
"5.1.4.n b G /.'.].(.].].oXsXcXsXsXaXpX6X6XyXpXpXpXpXpXsXsXdXaXvXvXNXCXvXvXBXkXBXvXvXmX7XR.!.,X,XW.*Xm.N.d.d.e.`.< + ; O O O + & ",
"P b Y b J G !.'.)./.'.).oXsXcXcXpXpXyX6X6XpXpXpXaXvXdXsXvXaXaX7XcXvXvXdXNXvXvXnXvXcXvX6X#.%.6.6.j.c.b.l.N.B.h._.& .         . X ",
"B v B V ` X.T.(._.{.`. X5XcXcXMXNXpXuX6X,XaXpXpXaXaXaXaXaXfX7X4XaXvXsXcXnXvXNXvXnXdXyX6X@.b c O.0.a.B.d.l.v.d.e.+             o ",
"[.}.]./.q.6.`.}._.].`.{.=X{.=X8X<XeXtX<X].7X7X3X4XfX7X3X4X4X4X;XpXvXsXcXvXvXNXvXdXaXpXOXY F b M ) { t.d.s.l.d.h.>               ",
"qXeXeX2XE.6.`.}._./.E.&Xm.m.z.h.^.[.oX[.W.4X4X;X;X;X;X-X-X-X-X-X3XdXcXcXcXbXvXdXpXpX6X].P F A j c ' } i.l.d.t.z.`       .       ",
"/././.].K.O.R.P.P.Q.E.m.s.d.s.l.f.f.h.#Xh.*X*X*X*X*X%X$X%X%X$X$X4XfXvXcXcXcXnXsXpXyXeX/.H S A A S M 8.d.v.d.d.l.' o             ",
"1.Y Y 2.<.B H.P.5.R.W.m.t.t.t.i.j.y.p.c.x.x.k.b.x.x.x.k.k.g.g.c.;XfXvXcXcXbXvXsXsXpXyXP.n m A S D M 0.l.v.t.d.y.:               ",
"Y I 3.P.4.S 3.F.5.7.e.m.d.d.p.d.p.l.l.l.l.c.j.x.c.$Xx.b.g.g.j.j.2XpXdXcXcXcXvXsXaXpXeX5.m S S A v X.y.d.t.t.d.[ @     .   @ O O ",
" X). X X@.v E F.R q.m.M.l.l.b.M.m.m.l.j.u.9.w.h.#X#Xh.$Xg.f.h.#X1XpXsXsXvXcXdXsXsXuXeX5.A A A v x [ t.t.d.p.u.d   .     o + # ; ",
"_._.oXoXP b U $.2.w.b.M.z.N.d.d.s.d.u.u.=.*.q.E.#X#X#X#X$X#X#X=X3XpXpXdXdXdXvXcXdXyXyXK.H Z v c b 0.d.d.l.t.8.q         X + + ; ",
"P.Y.!.P.F g Y R @.h.N.l.a.t.i.u.t.u.=.*.&.#.Y._.=X=X{.E.W.E.{.>X6XyXyXyXpXsXaXcXuXfX7X~.S b v Q { u.d.t.n.w.*.4 .         . X X ",
"z n n x x g F R <.h.s.p.u.u.u.9.u.*.[ ....O.Q..XR.R.R.R.R.E.[.,X6XeXrXyXpXaXvXcXsXiXyX'.n b j F 0.p.d.d.u.] X.>             . X ",
"P c d z e e H T Y w.y.f.0.} } *.[ ' M L S U '.8X!.!.!.T.`.'.[.<X6X7XfXsXsXdXdXvXdXyXwX>XU v h +.p.b.d.l.} 6 a >   . o X X X X X ",
"P.5.L L b H U U H +.+.[ ' ' ' V l M F W K 4.eX7X,XoX.X[.[.oXoXOX6XpXpXfXpXiXvXdXdXyX3X2X@.Z ..u.N.b.m.8.( h M - . . . . .       ",
"P.P.3.;.x z S S S J N h g C M b A H S S S 5.yX<X,X,X>X,X>X>X,XeX7XpXyXpXaXaXdXdXyX7X6X2X1.c *.c.M.b.w.f f r y - . X X X .       ",
"1.L Y U 2 = r g D A A A m n D Z D D Z S A 1.,XqX2X1X1X1XyXyX7XyXeXpXpXaXdXvXdXdX1X1X1X1XK.V q.n.l.*X8.d s e i = X X O + & - e g ",
"3 x u 9 e 0 e j v v Z Z D S A A Z Z Z Z A O.XXsX7XeX6XeXpXaXaXpXdXdXvXvXvXvXsXfXyX6X6X,X5.+.u.k.l.x.,.g X.t z P I %.D.U._. XoX>X",
"2 x e 9 0 1 y S b j S F S S A b A Z Z S A A G.'.pXcXrXrXpXvXvXvXvXvXmXBXCXvXsX6XeX7X1XI.B *.u.j.s.z.q.3 f q n {.'./._./.].[.{.`.",
"B x r 2 2 2 r m Z A b F J F S S S Z Z A A F ~.I.#.|.6XvXnXvXCXCXCXnXCXCXvXsXyXeX+X`.1.K c 0.g.c.m.$Xe.3 a 3 z T.K.<.Y Y.K.7.3.K.",
"U P J v g r g B H A b F H S b S m b v A A 1.,X.X!.1.H @.H.L.P.%.o.3.G.D.$.@.O.b q c w m o.f.b.a.h.p.:X7.T.1.;.F.H.S.4._.7.5.%.@.",
"Y Y @.@.@.@.1.H.2.U B F L F S F b m g v v Y.<X,X,X.X_.L.A = & O O # & * & $ + @ $ w c o.#.0.} } } =.;X0X9XA.9X>Xr.r.A.qX}.Y b t ",
"<.o.L P U G U 1.3.@.U P P L n F S b x c J oX>X[.].oX)._.(.|.I.I e > $ $ + & > g I #.H.3.q.*.] ] | | 9.V.:.:.>.>.:.:.:.V.r.7.S t ",
"3.;.Y U U P U 1.I #.5.4.3.o.Y Y F S S S $.6X<XoX.X.X'./.]./.(.oX.X'.U.L.#.I.Q.'._.'.Q.T.R.+.,.,.,.,.r.>.:.:.C.C.V.Z.0XZ.V.e.<.J.",
"J.J.J.5.#.U G o.#.@.o.1.H.K.3.Y I H J b 3.eXOX[..X.X.X'.'.].[.}./.XX.X.X'..XXX'.[.`./.!.5.1.[.hXhXuXqXA.>.:.C.0XlXjXV.9XoX>XL._.",
"J.P.Y.R.5.O.U @.O.@.o.#.o.@.1.3.#.Y F F 3.,X!.T.[.'.]..X).'.].[.].'.!.Y.K.K.K.R.T.K.P.Y.T.'.(./.oXqXvXlX9XC.C.C.jXP.7 w w y p e ",
"P.L.R.Y.H.%.U $.1.@.%.#.%.o.#.<.<.7.o.#.3.oXK.Y._.'.].XX.X'.!.XXoX.X'.R.K.L.Y.R.5. X).[.'..XL.c P 5.Y.Q.5XgXhXhXjXoX].P.<.U z 9 "
};
