/* XPM */
static char *waka34_jpg[] = {
/* columns rows colors chars-per-pixel */
"64 64 256 2 ",
"   c #020202",
".  c #050609",
"X  c #05090B",
"o  c #0B0A0B",
"O  c #0A0708",
"+  c #171716",
"@  c #0C100E",
"#  c #201815",
"$  c #3C1A19",
"%  c #39271D",
"&  c #23201B",
"*  c #272523",
"=  c #372C28",
"-  c #3A342C",
";  c #3C3934",
":  c #18231D",
">  c #452D24",
",  c #45332F",
"<  c #473C37",
"1  c #583F38",
"2  c #462C1F",
"3  c #45423D",
"4  c #4A453D",
"5  c #594639",
"6  c #52422C",
"7  c #6A4739",
"8  c #7A453D",
"9  c #6B523C",
"0  c #4A4542",
"q  c #4D4A45",
"w  c #474646",
"e  c #524D45",
"r  c #514D4A",
"t  c #5B4643",
"y  c #4D5349",
"u  c #55524D",
"i  c #5A554D",
"p  c #59584B",
"a  c #5A5551",
"s  c #5D5B53",
"d  c #595954",
"f  c #594D51",
"g  c #684C45",
"h  c #774946",
"j  c #63544C",
"k  c #6B5C4E",
"l  c #65584C",
"z  c #77564D",
"x  c #635C54",
"c  c #6B5C53",
"v  c #645E5A",
"b  c #695E5B",
"n  c #685652",
"m  c #775A53",
"M  c #614A52",
"N  c #5B6255",
"B  c #636256",
"V  c #65635B",
"C  c #6A635C",
"Z  c #6D6558",
"A  c #756455",
"S  c #73645B",
"D  c #756A5C",
"F  c #796759",
"G  c #736F57",
"H  c #6B6561",
"J  c #6D6A63",
"K  c #686764",
"L  c #736D64",
"P  c #726E69",
"I  c #786B64",
"U  c #747166",
"Y  c #797266",
"T  c #75726A",
"R  c #7A756D",
"E  c #7C786E",
"W  c #76796E",
"Q  c #7C7671",
"!  c #7E7973",
"~  c #787874",
"^  c #6F706A",
"/  c #646464",
"(  c #8D3C39",
")  c #AB3335",
"_  c #C7212F",
"`  c #814C3E",
"'  c #BD3740",
"]  c #855B56",
"[  c #8C5549",
"{  c #9B664A",
"}  c #8B6A5C",
"|  c #866758",
" . c #976A57",
".. c #87715C",
"X. c #937056",
"o. c #A36A4E",
"O. c #A26B54",
"+. c #A9765A",
"@. c #B37A5D",
"#. c #B6795B",
"$. c #B26F5E",
"%. c #8E6D62",
"&. c #827A6E",
"*. c #867669",
"=. c #987A66",
"-. c #837C74",
";. c #897E73",
":. c #847E79",
">. c #847A75",
",. c #947E71",
"<. c #9A6E61",
"1. c #A97B66",
"2. c #B47C63",
"3. c #B87D66",
"4. c #B76861",
"5. c #A34847",
"6. c #C7776B",
"7. c #C7B93F",
"8. c #BCC23C",
"9. c #C8D309",
"0. c #D0D316",
"q. c #CFD829",
"w. c #BC835E",
"e. c #B79153",
"r. c #858174",
"t. c #8A8176",
"y. c #86827A",
"u. c #8C857B",
"i. c #8E897D",
"p. c #90877C",
"a. c #928A7F",
"s. c #978676",
"d. c #918C71",
"f. c #AA8369",
"g. c #BB8465",
"h. c #BB856B",
"j. c #B78669",
"k. c #A58876",
"l. c #B78A74",
"z. c #B8917A",
"x. c #AC9572",
"c. c #AEA771",
"v. c #C6875B",
"b. c #D38F5E",
"n. c #C48B6B",
"m. c #CB8C6C",
"M. c #C88865",
"N. c #D38B65",
"B. c #CE9262",
"V. c #CA926B",
"C. c #D39369",
"Z. c #C78B73",
"A. c #D48C70",
"S. c #C99477",
"D. c #D39473",
"F. c #D79A78",
"G. c #DAA27D",
"H. c #B8C261",
"J. c #D1D858",
"K. c #D5D766",
"L. c #E6D877",
"P. c #E0E07E",
"I. c #8D8A81",
"U. c #8A8883",
"Y. c #948C82",
"T. c #978B86",
"R. c #9B9385",
"E. c #9C958B",
"W. c #9E9A8D",
"Q. c #979488",
"!. c #9D9A94",
"~. c #958A92",
"^. c #A1958A",
"/. c #A39A8C",
"(. c #A89787",
"). c #A39C92",
"_. c #AA9E92",
"`. c #B49A89",
"'. c #ABA295",
"]. c #ACA49B",
"[. c #AEA99D",
"{. c #A6A196",
"}. c #B2A395",
"|. c #B2A59B",
" X c #B3AA9D",
".X c #BAAC9D",
"XX c #BAA497",
"oX c #BEB39D",
"OX c #AFA788",
"+X c #ACA9A3",
"@X c #B4ACA2",
"#X c #BAAEA2",
"$X c #B6A6A3",
"%X c #BCB2A5",
"&X c #BBB5AB",
"*X c #B8B4A9",
"=X c #BCB4B8",
"-X c #CD9E85",
";X c #D79E80",
":X c #C8A68C",
">X c #C7AB98",
",X c #C7B39C",
"<X c #D4AA94",
"1X c #C3AEA5",
"2X c #C3B5A4",
"3X c #C4B5A9",
"4X c #C5BAAC",
"5X c #CBBCAD",
"6X c #C8B7A6",
"7X c #C5BCB2",
"8X c #CDBEB2",
"9X c #C9B8B6",
"0X c #D1BEB3",
"qX c #D4BFB9",
"wX c #D1B3A8",
"eX c #D4D293",
"rX c #CCC3AE",
"tX c #D6C9AF",
"yX c #D5C5AC",
"uX c #CCC2B3",
"iX c #CDC4BA",
"pX c #C7C6B7",
"aX c #D3C3B5",
"sX c #D5CAB3",
"dX c #D9CCB4",
"fX c #D5C6B9",
"gX c #D9C6BA",
"hX c #D5CABB",
"jX c #D9CABC",
"kX c #D9C4B5",
"lX c #DDD2BC",
"zX c #DAD2B7",
"xX c #D8D1AA",
"cX c #E1D3BB",
"vX c #EAD9BA",
"bX c #E0C9B7",
"nX c #E0D88F",
"mX c #DCCDC2",
"MX c #D7C9C2",
"NX c #DCD3C3",
"BX c #DCD5C9",
"VX c #DDD9CC",
"CX c #D4D2C6",
"ZX c #DFDDD3",
"AX c #E2D4C5",
"SX c #E3DACB",
"DX c #E4D9C4",
"FX c #E2DDD4",
"GX c #E8DBD1",
"HX c #E5CAC1",
"JX c #E6E4DD",
"KX c #E7E3D9",
"LX c #F2E5DD",
"PX c #EBEAE5",
"IX c #E9E9E6",
"UX c #F3EDEB",
/* pixels */
"*X&X*X{.I.-.t.Y.^._.2X3X4X2X3X1XXX^.a.y.r.! L P V v a w w w w y P T P Q ! Q >.-.:.&.-.Q R &.>.Q Q R >.:.-.t.7XW.J } A H I H H C ",
"+X).U.y.u.I.Q.Q.E.'.@X3X5XaX0X5X6X}.'.E.U.y.:.y.-.-.R L b i q u Q ! Q ! :.! >.! -.-.-.&.! &.&.Q Q R >.>.>.t.7XE.b } m H I V H C ",
"! ^ ^ T T T R :.y.Q.Q.).|.aXkXkX4X(.p.:.-.y.Y.R.^./._._.'.^.T.a.U.y.~ Q ! ! ! :.-.-.-.-.>.Q -.Q Q R -.:.:.t.7XE.b } m H H B v C ",
"I.Q.I.y.-.-.R U T T J :.E.]._.'.'.R.i.y.t.Y.W.)._.}.|.|.'._.'./.Y.u.! ! :.! ! -.-.! -.:.! ! Q R E Q ! ! :.;.3XE.H %.F b C B b H ",
").)._.].].'.].].].).T.Q H a r i s L R T T E I.!./.].'./.^.^./.R.Y.y.! :.:.~ Q -.:.! ! ! ! ! E R R R Q ! -.:.&X^.H } A H S B v C ",
"{.'. X3X3X3XuXMXhX].T r r u d u u V s / V K U ! -.p.T.R.^././.i.u.t.R ! ! Q ! -.:.! ! :.Q R ! ! R W Q Q ;.:.&XW.H %.A v C V v C ",
"[.%X%X%X7XiX7X].J r < r s s d V V C V T r.! ! -.I.Y.i.E./.'.'.T.r.y.-.:.:.! ! ! :.:.! ! ! Q E R ! ! ! Q -.t.*XW.H %.F H C V v C ",
" X@X*X7X7X).P e w u d / K J U T L Y &.Y.T.y.I.E.!.)._.@X%X%X4X%XQ.E.I.! Q ! ! y.:.! ! -.! Q R E R R R R ! &.*XW.I %.F H Z V C H ",
" X&X*X!.K w w r u d B L Y ;.R.}.].Y.T.Y.~.!.+X].@X&X&X4X7X6X8X5XW.).U.! ! ~ y.;.:.-.! ! ! W E R R Q Q Q R -.&XE.H %.D J C B C C ",
"&X#XW < ; 0 r u b L ;.a.'.rXBXKXMXW.Y.!.[.+X&X7XiXrX5XrXdXdXyXdX_./.I.! R R ! :.! ! ! ! R R R R R R R Q R ;.&XE.C %.F H C B b V ",
"s q 3 w 3 r C T ;.E.@XhXFXKXCX*X).E.'.*XrXpXaXmXjXAXDXrX.XXX,XzX X].Y.! ! E R Q ! Q ! Q R R R R T W R Q ! :.&XE.b %.F H C V b V ",
"- ; < 0 i r L E.pXBXKXBX7X].).E.].*X&XiXiXBXNXCXFXpXi.5 3 , < U p.+XE.Q -.R Q ! ! ! ! ! R ! R R R R R ! ! :.&XW.b } F C C C b V ",
"- w q 3 4 i !.FXVXpX@X^.T.T.).|.&X7XpXCXZXIXIXUXBXZ < < = , = % = L I.~ ~ R >.:.:.:.! :.Q Q W R R R R E ! -.*XR.b } S b C V C V ",
"w ; ; w w q U I.I.t.;.a.R.W.+X&XpXBXJXPXPXIXIXIXE.5 5 |  .| g 1 2 , T ! ! >.R -.:.! -.! ! R R R R R R -.! -.*XE.c | A V C C b C ",
"w u q q u u i V Y -.i.E.).[.*XpXCXJXIXIXUXIXPXJXI 5 { S.F.D.n.+.3.] k W ! -.Q -.:.! ! ! R W R R R R Q ! ! t.&XE.b | c V C B b C ",
"r u u y r d K ^ :.Q.{.'. X3XfXNXZXIXIXJXIXIXLXSXQ j =.S.C.C.A.C.N.n.A *.~ >.:.:.Q Q Q Q R R R R R R Q ! -.t.&XE.B | k v C B v C ",
"x H H H T R u.Q.).].+X%X7X8XsXhXhXhXDXSXKXZXFXBXG A 1.F.Z.3.n.Z.h.+...R Q -.! :.Q ! ! E R T T T R R R E r.! *X!.v } c v V B x V ",
"i V P -.E.!.{.].@X#X3X7XrXaXaXsXhXhXNXNXBXZXSXsX<.%.z.D.3. .#.m.+. .*.Q Q Q ~ -.Q R R R T U T T R U R R ! -.*XE.C | l v C s x V ",
"D -.E.W.].].@X&X6X5X5XrXuXaXsXhXCXCXNXVXVXKXKX5XZ.f.z.n.3.o.#.A.O. .;.Q Q Q ~ R ! R W R R U T R W U R R ! -.*XE.b | c v B s s B ",
"^.).@X@X#X7X3X4X5XuXfXfXhXMXCXSXKXKXJXJXIXJXLX0XA.h.S.F.A.n.m.A.3.3.,.R R Q T Q E R R R R T T R U U R E R >.&XE.v } c v V x x x ",
"%X#X|.E.E.7XuXfXhXNXVXSXKXJXJXPXPXIXIXPXIXIXPXMXV.w.l.F.m.A.D.V.6.S.%.Y R &.Q &.R R R R T T T T T U R Q R ! *XY.b %.c v x B v x ",
"y.U x i R mXDXDXVXFXKXKXJXJXJXJXJXJXJXIXIXIXPXGX:X<. .S.D.n.4.o.#.h...W R Q Q Q ! R R R T T T T T U ~ R R Y @Xa.b } c s x s B x ",
"e r u u U hXNXjXlXNXNXlXNXlXNXNXAXVXSXVXFXZXSXAXDXk.7 X.g.6.4.o.o.+.k Y Q Q W R R R R W R T T T U U T T R Y @Xi.v | k s x s x x ",
"i s H x Y pXdXdXtXdXdXdXcXlXlXcXzXjXcXlXAXBXNXlXlX(.t 6 X.6.6.+.O.] l W ! R E R R Y T T T T P T T ^ T T ! R  XY.v ] k V V N x x ",
"3 0 r i C pXjXsXdXsXyXsXdXsXdXzXlXlXNXlXlXlXNXNXvX}.< , 7 #.#.X. .7 e T P R L U U R L T T U T T T T U E R R  XY.b C z c s c x x ",
"K u r a Z 5XrXyXsXyXsXdXdXsXdXdXdXzXcXlXlXlXlXlXdX,Xk = 2 1 [ [ 7 % , P P T W R T W T T Y T L W T U U E R W [.Y.x N c ] c s s B ",
":.H s V L 4XtXcXdXaXsXsXdXsXsXsXzXzXlXlXlXlXlXzXsX>X+.6 - = > $ % % 1 I U E ! T T T ^ L T T P T T U U E U E  XI.s x n ] z d j s ",
"~ ^ J P &.rXzXzXlXsXsXsXtXaXsXsXsXdXsXdXsXzXhXdX.Xz.S.@.z < = % 2 5 &.u.T L R T T T W T T P J P T T U E U R [.a.V x l n l s x v ",
"Q J ^ T r.pXlXcXzXsXtXdXtXtXyXyXtXsXzXsXdXdXiXpXkX<XS.Z.6. .8 9 { | ].+Xt.&.&.L L L U U T P J T T T T T U R ].i.x N x g g j d s ",
"P T :.U.T.5XzXdXdXtXtXtXdXtXsXdXzXlXDXcXlXhXrX%XzX0X>XS.m.v.#.2.@.=.[.*X].&X#X_.E.:.R J ^ P J P T T T T U R [.u.x k z 8 ( [ k i ",
"R y.+X*X@XhXlXdXdXyXyXrXyXsXsXsXzXlXlXhXfXpX*X+XfX9XhX>XS.V.n.m.l.,X4X7X3X8X9X8XfX%X).E L T J P P T P U U T ].u.s z h ( ) ) 5.k ",
"! y.!.{./.4XuX6X5X5X5X8XyX5X5X5XuXsXaX5X4X7X=X=X7XfX7X%X2X:X-XS.#XaX7XqX8X5X8X0XaXjXiXI.H T T T ^ T T J L U ].t.y g g ( ) ) 5.| ",
"B B ^ ^ L  X3XoX%X2X6X6X3X6XwXwXqX9X8X8XiX8X8XuXaXuX8X8XaXuXuX5X0X8XaXfXfX0XaXfXjXaXfX8X&.U T T T H ^ J J T ].t.t t 9 7 ) _ ) ` ",
"E U -.! T ).#XoX.X.X,X2X%X,X>X,XwX>X5X5X0X8X8XuXfXaXuX8XuXfXfXiXfXaXfXhXfXkXaXfXjXjXjXMX].R J P J H ^ J J L ].u.g g 7 8 ( ) ( h ",
"R.^.E.r.Z ).%X X X X.X2X,X:X:X:X-X`.,X0XqXaXaXaXuXfX8XuXaXfXfXfXjXfXjXhXfXfXfXfXfXjXjXjXiXi.V P C J T K J T '.u.i n g g 9 8 7 g ",
"(./.R.y.T ). X].[.|. XoX:X:XF.F.m.2.>X0X8XfXaXsXfX0X0XfXaXfXaXfXfXjXfXhXhXhXhXhXfXjXfXaXfX@XC T J H J H L T '.:.i p u g m i d d ",
"/.R.u.W U W.@X[.{.].@X X:XF.F.D.M.f.<XfXaXaXaXaXfXfXaXfXaXaXaXkXjXhXjXjXMXhXjXMXjXaXaXaXfXiX-.C J J H J L L ].y.x s x n m l a s ",
"d.u.Y k l R.[.{.[.[. X X:XG.F.V.#.j.6XiXaXkXsXfXaXaXaX0XaXaXaXjXhXjXjXdXjXjXjXdXjXaX5XaXjXhX).J J J L J C H +Xt.y y 4 4 < 4 < 0 ",
"! E G I I T.].[.'.$X]. X:XF.D.V.#.`.5XiX0XaXfXfXsXaXaX0XaXaXkXgXdXjXgXgXjXjXjXfXjXaX6XjXmXjX4X! H C J C C Z [.W o X X O   o @ + ",
"s C S F m s.'.].}._.]. XXXS.n.g.3.>XfX7X0X0XgXfX0XaXaXaXaXaXaXsXgXhXjXjXjXjXjXjXaXuX6XaXjXjX&XR H C C C C L {.V     X       O   ",
"R.a.k.s.,.(.|.'.@X_.}.&X.Xz.+.+.l.6XuXqX8XpXaXkXfX0XfX8XaXaX8XaXjXfXjXjXjXgXjXgXqX5X1XiXMX+X(.f.I C H H B Z !.a                 ",
"pXtX5X>X,.(.|.].].XX_.|.'.l.o.o.f.2XuX8X3X8XuXyX8XaXfX0X5X0X0XjXhXgXjXjXfXjXhXfX0X8X].).^.z.Z.M.=.C v V C V Q.w                 ",
"%X%X%XoX;.^.).).).}.).).'.z.+. .h.}. X X$X1X9X9X8X0X8X5X5XfXaXfXjXfXjXMXjXgXfXfXiX X*.=.g.D.C.C.l.A V v Z B U.3                 ",
"u.&.u.i.D ;.E.E.E.^.^.).`.z.j.2.h.l.l.(.R.|.wX5X8X0X8X9X8XjXaXaXjXgXjXjXjXjXfXfXpX}.} @.B.B.N.D.D...B v b B I.-                 ",
"D L I.Q.U E R.T.Y.Y.R.E.(.l.h.2.3.Z.Z.1.r._.2X6X9X0XkX8XaXkXfXfXjXgXjXjXmXgXjX0XyXXX%.<.f.v.b.C.N.f.k N x b u.*           o .   ",
"'.].@XW.V W y.t.y.t.I.I.k.h.m.@.M.m.A.l.d./.1X6X8X8XfX8XhXfXjXjXjXfXgXgXjXjXgXfXfX].L | +.b.b.B.b.n.A N s v y.+         o + + o ",
"'.@X@XQ.B ! y.! -.Q t.:.s.M.M.@.g.3.M.h.k.).XX6XaX8XaX8XfXjXaXgXjXfXjXMXjXjXgXfXMX*XE F  .#.v.M.B.V.} B s V :.+       X @ * * * ",
"'. X XI.x L -.~ -.R ! ;.k.w.w.@.@.w.n.h.,.^.XX5X8XaX0XaX8XkXaXjXjXfXjXjXjXfXjXfXwX6XY Z A 1.#.N.B.D.<.l N v R @         @ + + + ",
"W -.W L a J ! Q R ! Q ;.f.j.@.2.1.g.m.f.s.(.XX2X0X0X0X0XaX0X0XgXgXgXjXgXgXgXjXjXjXqXI.V C +.B.M.V.b.=.B l ] I o               . ",
"Z u i p i C ! R W ~ ! ;.1.@.#.+.+.g.g.=.t.}.}.,X6X8X0X0X0X8X8X0XgXgXgXgXjXjXjXjXfXmX@XC V 2.B.B.b.v.%.C z z m +       . . o @ @ ",
"r.U L x C L P :.R ~ ~ >.=.1.+.o. .@.j.,.*.'. X.X6X8XqXaX0X0X8XaXjXgXgXgXgXgXjXkXaXbXiXr.Z 2.v.v.C.B...l z M x X . . . . X X . . ",
"Q.Y.y.D P -.P P L T ^ T *.+.O.{ { { f.*.J W.2X2X3X0XkX0X0XaXaXfXgXjXjXgXgXmXcXjXjXHXaXR.S j.b.b.v.w.A m z y i : X X X . .       ",
"i.r.-.x - 4 v V V V K V Z }  .[ [  .,.I P ).5X8X5XqXgXgXgXjXjXjXjXjXjXjXjXjXjXjXlXgXaX XA @.v.v.B.f.c h h d q o . .         O @ ",
"Z N x i 3 u H v V V K K C D ..m ] %...J K |.gX4X2X0XfXjXmXmXmXmXdXhXjXAXjXjXjXjXhXgXjX1XA #.w.B.D.X.p h g d q * * - ; r v R p.R.",
"p s e 0 3 e x V V K H K J J C A S S C K H ).jX8X2X5X0X0XqXfXhXmXmXMXjXAXNXNXmXjXBXjX.Xs.A g.v.B.g.G N ..I u r.Q.).).'. X#X%X%X2X",
"a s q 3 3 q H v V C J J K K V K K K N K K u.0XNXfXgXgXfXkXfXmXAXAXAXAXhXfXjXuX2XR.D % 5 ;.V.B.B.O.x f g n u /..X_.{.'.'.'.OX/.k.",
"Y C p e u u C c H J J U U U J K C C x K V K ! y.@XiXmXNXmXmXMX X X X_.R.>.R v 4 < t : p n.D.B.F.d.a.I x n j E Q.-.D ~.R.d.r.i.!.",
"r.&.W R U I ;.p.U T R U J J H H C V V K J T E.y.Z Y R E.t.U x i u i r 1 - , = = ; c D <.C.G.G.G.$XMXsXoX$X}.OXa.W.~.$X_.~.E Y T ",
"&.R E E E R u.p.E Y U U E R J H J V H s B -.pX#X@XE.-.i.i - # & + + # # # = g D I.k.z.D.F.C.C.C.wXxXL.J.q.J.P.H.8.J.eX&XF b a 6 ",
"&.R Y Y Y Y -.&.r.y.t.r.R E T T C C V H v Y.3X%X%X&X#X].).{.!.U.y.R H I E Y./.XX(.S.D.F.D.F.F.j.e.e.7.q.0.9.0.9.9.9.q.J.c.R J ; ",
"a.p.i.t.Y I E &.R ;.a.R.a.u.E R Y L V H L ].#X.X4X#X|.|. X'.].].%X%X*X%X[.[.'.(.l.F.F.F.F.;X;Xc.c.OXK.0.0.0.K.K.J.K.nXnXc.d.$X@X",
"E./.E.R.&.Y &.;.;.&.*.&.t.d.u.;.U L L L u.7X3X.X#X#X.X.X X.X#X X'.'.}./././.a.s.D.m.F.C.;XF.;XeXNXMXxXL.0.0.L.vXxXxXx./.+X=X)./.",
"W./././.t.&.>.:.;.;.;.;.&.&.;.;.t.;.R L -.#X#XXX#X#X.X#X.X|.'. X X.X XE.a.d.k.s.j.m.F.m.V.n.Z.W.OX=XtXxXnXnXeXeXoXd.x e 4 y y q ",
"R./.R.(.:.*.;.;.u.t.;.t.t.;.:.t.;.u.t.u.;.].^.p.E.^.'.|. X.X|.|. X}.$X_.'./.(.k.+.h.M.M.v.m.3.V V r.E.W.].2XzXlXzXpX7X&X'.R.r.&."
};
