/* XPM */
static char *waka52_jpg[] = {
/* columns rows colors chars-per-pixel */
"64 64 256 2 ",
"   c #020202",
".  c #0A0B0B",
"X  c #06080A",
"o  c #161616",
"O  c #100F0F",
"+  c #2A221E",
"@  c #1E1E20",
"#  c #272424",
"$  c #3A2A28",
"%  c #36342B",
"&  c #3F3A32",
"*  c #201F1B",
"=  c #423C37",
"-  c #4B342B",
";  c #432C1E",
":  c #46443C",
">  c #5B473B",
",  c #67473A",
"<  c #74473C",
"1  c #6F523E",
"2  c #4A4642",
"3  c #4C4A44",
"4  c #4B4946",
"5  c #534C44",
"6  c #524E49",
"7  c #5B4D4A",
"8  c #55524C",
"9  c #5B5A4D",
"0  c #585649",
"q  c #5A5651",
"w  c #5D5C54",
"e  c #575853",
"r  c #514F50",
"t  c #674D45",
"y  c #774943",
"u  c #66554B",
"i  c #77544B",
"p  c #635D55",
"a  c #635E59",
"s  c #685E5A",
"d  c #685953",
"f  c #765B55",
"g  c #5D6254",
"h  c #646156",
"j  c #65625C",
"k  c #6A645C",
"l  c #6C695E",
"z  c #696256",
"x  c #73635A",
"c  c #78675B",
"v  c #6E6A55",
"b  c #6A5E61",
"n  c #666562",
"m  c #6A6661",
"M  c #6D6A63",
"N  c #696A67",
"B  c #726D65",
"V  c #736E69",
"C  c #7D6B62",
"Z  c #737166",
"A  c #797166",
"S  c #76716B",
"D  c #7A746C",
"F  c #7D786F",
"G  c #7C7671",
"H  c #7E7973",
"J  c gray44",
"K  c #6A6D74",
"L  c #5F6460",
"P  c #AA3438",
"I  c #B02E36",
"U  c #8B3937",
"Y  c #87403C",
"T  c #885949",
"R  c #89534D",
"E  c #AE4344",
"W  c #98644B",
"Q  c #83655C",
"!  c #8A655E",
"~  c #876957",
"^  c #976A56",
"/  c #9A765C",
"(  c #876B53",
")  c #A66C4E",
"_  c #A76C58",
"`  c #A87459",
"'  c #B37B5C",
"]  c #B87B5A",
"[  c #856A64",
"{  c #81796E",
"}  c #877669",
"|  c #977865",
" . c #827B74",
".. c #8A7D73",
"X. c #837E79",
"o. c #847975",
"O. c #936D60",
"+. c #A87B64",
"@. c #B57B66",
"#. c #A27C71",
"$. c #C17B5A",
"%. c #C67C63",
"&. c #BDCD18",
"*. c #C7D506",
"=. c #CFD70F",
"-. c #D2D22D",
";. c #E4DB14",
":. c #B8865D",
">. c #A3954E",
",. c #8B8275",
"<. c #85827A",
"1. c #8C857B",
"2. c #878478",
"3. c #93897D",
"4. c #958679",
"5. c #9C8C74",
"6. c #B78668",
"7. c #AA8772",
"8. c #B98876",
"9. c #B8937B",
"0. c #AA8C6C",
"q. c #B1B76B",
"w. c #B2B55C",
"e. c #CA895E",
"r. c #C8875E",
"t. c #D18A5C",
"y. c #C38564",
"u. c #C58B64",
"i. c #CC8C63",
"p. c #C8896A",
"a. c #D28B6A",
"s. c #C99168",
"d. c #D2936C",
"f. c #D89469",
"g. c #C88A73",
"h. c #CD9475",
"j. c #C69677",
"k. c #DB9C7B",
"l. c #D79877",
"z. c #D48D74",
"x. c #E29B75",
"c. c #E1976A",
"v. c #D8A273",
"b. c #C7B356",
"n. c #CECC57",
"m. c #D7D26B",
"M. c #E5D36E",
"N. c #A09F35",
"B. c #8D8983",
"V. c #938D83",
"C. c #9A8E83",
"Z. c #938E88",
"A. c #949186",
"S. c #9A9286",
"D. c #969289",
"F. c #9C948A",
"G. c #9E988D",
"H. c #96988A",
"J. c #9E9892",
"K. c #A2968A",
"L. c #A49A8D",
"P. c #AB9C8D",
"I. c #A79686",
"U. c #B79886",
"Y. c #A49C92",
"T. c #AA9E92",
"R. c #A09595",
"E. c #AC9894",
"W. c #A6A195",
"Q. c #ABA295",
"!. c #ACA59A",
"~. c #AAA69B",
"^. c #B3A495",
"/. c #B2A59A",
"(. c #B3AA9C",
"). c #BBAD9C",
"_. c #BAA694",
"`. c #BBB19F",
"'. c #AFA68C",
"]. c #AEAAA2",
"[. c #AAA8A9",
"{. c #B4ADA2",
"}. c #BBADA3",
"|. c #B5AEA8",
" X c #BCB2A4",
".X c #BBB4AA",
"XX c #B8B4A8",
"oX c #B9B6B4",
"OX c #AFAFB1",
"+X c #D89E83",
"@X c #C89886",
"#X c #D6A48A",
"$X c #C8A895",
"%X c #D5AA96",
"&X c #C5B69B",
"*X c #D0AC92",
"=X c #E2AC97",
"-X c #C3B4A5",
";X c #C4B6AA",
":X c #C4BAAC",
">X c #CBBBAD",
",X c #C9B7A6",
"<X c #D3BCAD",
"1X c #D9B8A7",
"2X c #C4BCB2",
"3X c #CDBEB1",
"4X c #C5BEB9",
"5X c #D1BEB3",
"6X c #DBBFB2",
"7X c #C3AEA4",
"8X c #E2BDA9",
"9X c #CFC895",
"0X c #CCC3AC",
"qX c #D3C3AD",
"wX c #D8C8AD",
"eX c #CDC2B4",
"rX c #CCC4B9",
"tX c #CACABC",
"yX c #D3C3B4",
"uX c #DAC5B5",
"iX c #D5CBB4",
"pX c #DBCCB5",
"aX c #D5C5BA",
"sX c #D9C6BB",
"dX c #D5CABB",
"fX c #DACABC",
"gX c #DCD3BC",
"hX c #D9D3B8",
"jX c #E2C8B7",
"kX c #E3D3BB",
"lX c #E1D0B2",
"zX c #E0C6AF",
"xX c #E4DFA3",
"cX c #CFC7C3",
"vX c #D5CBC2",
"bX c #DBCDC2",
"nX c #D6C7C4",
"mX c #DAD3C6",
"MX c #DEDAD1",
"NX c #E2D6C3",
"BX c #E2DBCB",
"VX c #E4D9C9",
"CX c #E4DED4",
"ZX c #E6DFD6",
"AX c #E0CEC2",
"SX c #E5E2D5",
"DX c #EAE3D5",
"FX c #E6E4DC",
"GX c #EAE4DB",
"HX c #ECE8DB",
"JX c #E3E1CC",
"KX c #EBEAE3",
"LX c #ECECEC",
"PX c #E9E7E2",
"IX c #EFEFEE",
"UX c #DBE0DC",
/* pixels */
"S V V S B D <.X.1.D.Y.}.5X5XuX,XY.V.o.D V.C.F.F.K.!.Q././.I.F.1.1.o.G o.o.X.X.X.H X.X.H H H G G G H H X.{  X(.Z Q A m j j k k M ",
"D.Z.1.X.X.A B V B D { L.Y.T.P.^.V.V.B.X.A.R.Q.!.(.`.P.^./.T.L.F.1.o.H H o. . .o.H X.X.H H H G G D G G X.{ {.~.Z Q [ l j j k k n ",
"P.!./.Q.{.}.(.}./.K.A M 6 8 6 w D V V V X.V.R.L.Q.Q.P.P.P.I.C.3.1.X.H o.o.X.X. .H X.H H X.H G G D G o. .{ {.W.l Q A k l k k k j ",
"!.(. X:X;XyXnXaXY.B 3 3 r 8 e a a a m N l B  .1.3.3.F.P.P.T.S.1.X.o.G o.o.X.X.X.X.H X.X.X.H G G G H  .X. .{.~.l Q [ k j j k k l ",
"{.XX2XrXrXrXR.m 4 2 e 8 w w l s N m S X.G H <.1.A.V.G.Y.Q.Q.S. .3.X.D {  . .X. .H X.H H o.G D J  .G  . . .{.~.l ! [ k n k s s l ",
"(..X2X.XJ.n 2 2 e 6 a M B B A B S X.Z.Z.B.D.Y.Y.~.W.~. X X:X|.G.F.1. . . . . . .H X.H H G o.D G F G H G  .(.(.l ! [ m m j k k m ",
"oX.XD.h 4 2 4 q w b B } ..K.{.Q.D.Z.Z.J.J.].{.].XX.X3XyX:X0X3XY.Y.V. . . . . . .H H H H G G S o.D D G F { (.!.l ! [ m m k k k l ",
"(.l = = 4 q a n A { 4.E.>XmXDXtXD.H.J.].]..X2XrXeXeXqXiXqXpXsX^.T.V. .{  . .{  .H o.H o.G J S G A D H G  .(.~.k ! [ s m j l j k ",
"4 : 2 6 6 s A ..K.(.nXCXDXmX.XY.J.!..X4XeXtXaXaXgXgXgXMXBXBXJX^.~.A.G H H  . . . .H o.G G D G D D F H  .{ {.~.l O.C l j m p k m ",
": 2 2 r q A Y.3XZXZXBX3XQ.F.R./..XoXrXvXbXmXBXZXFXHXPXLXPXHXHXoX|.J.H H G  . .G  .o. .G G D S o.F H  . .{ {.!.l [ [ m j m k s m ",
"= 2 4 2 6 ~.SXDXyX{.D.V.D.Y./.|.2XrXmXCXFXPXPXIXLXLXLXIXLXLXLXoXXXJ.H H H <. . .H  . . .o.D D D D F o. .{ {.!.k ! [ k j l k k n ",
"2 = 2 4 6 H F.1.,.,.B.F.T.{.:XtXmXMXKXLXLXIXLXLXLXLXKXIXKXPXKX|.~.A.F H  . . . .X. .o.H D o.S D A D G G { {.~.l ! C k h k k l m ",
"4 2 2 6 6 8 j G X.1.F.Y.!.}.rXmXKXKXIXKXPXKXKXKXPXFXFXKXFXSXSXXX~.H.H H H <. .{ X.o.G G D D S D D F H <.{  X~.j ! c j a j k k m ",
"4 e 8 8 q l Z 1.V.R./.{.;XrXVXDXZXFXKXKXPXFXSXSXHXFXSXSXSXDXSX{.~.H.H  .G  .H  . .G G G D D D D A F H F { }.!.l ! C s h j j s m ",
"n h j S F 1.F.Y.~.{..X>XrXdXfXdXmXmXtX~.H Z 3. XmXSXSXCXDXDXSX{.~.D.F H G  . . .o.H G D D S D D Z F G F { {.!.k ! C p w h p s n ",
"M S <.D.R.Y.Q.|.|..X4X3XeXyXdXgX X,.u > > > , u XXBXSXJXJXmXMX`.W.D.G  .H  .G o.H G D D D D S S D F G  .D {.Q.s [ f p w a p s m ",
"..Z.W.~.Q. X X;X>X>XyXeXaXpXsX^.u t ^ @.y.' ` ^ 7.bXUXSXVXCXSX X[.H.J H H G G D G G D S D D D G D D H G { {.W.j ! v p s p w w k ",
"Y.(.|.{. X,X:X3XeXyXvXvXdXmX;Xv > / @Xz.z.a.z.y.6.yXPXHXHXKXKX2X{.F.H H H H G D G G J D V V V D Z S H G F {.Q.k ! x h p p p w k ",
".X!.D.W.0XqXdXdXmXNXJXDXDXDX.X5 > 0.l.z.d.p.a.a.' $XFXKXKXLXKXoX].Z.G H H H G G S S D S J S S S S S H G F (.Y.k [ c p g p w p s ",
"A k q 1.bXNXVXVXDXHXJXDXDXSX~.5 f | g.h.6._ y.y.` 7.VXSXPXPXFXOX~.D.J H H H G G G S S S G S S G B S G G F !.R.p ! f h w p s p w ",
"5 6 5 ,.mXNXNXNXfXNXgXNXVXVX(.u c | @Xz.@._ %.g.` ` yXMXDXBXJX XQ.D.S H o.D G D S S D D S S J D Z V G S S Q.F.p [ c p w a s s q ",
"p n p { dXpXpXiXgXgXkXkXpXNX7XT T 0.k.a.y.@.%.g.6.` %XgXVXkXkX`.Q.Z.D H G D D A G S D V S S V S S D G G A Q.L.p Q f d a w s s w ",
"6 q q B yXpXpXdXwXiXgXkXhXkX8X+.@.+.h.l.z.p.%.%.@.] #XkXNXkXkX`.Y.V.S D G V A D G G J V S S S S S S H o.D !.L.k f f f d w p p p ",
"6 8 8 B aXqXyXdXpXuXpXdXiXqX8X@Xh.+.j.+Xl.%.@._ W ) j.lXgXkXgX`.Y.V.A G G V D D V S S S D S D S Z S H G D ~.G.p h f f p w w a h ",
"j w a D yXpXpXiXpXwXpXgX0XpXwXl.a.` ^ #.g.$.@.@.@._ _ ,XhXuXVX`.Y.V.G V D S S G D V S V S S V S S D  .D D ~.G.p h h i i w e w p ",
"m l l  .iXkXkXhXhXwXpXpXiXhXzX%Xz._ < 1 ^ ] p.' _ _ T $XiXfXjX).R.Z.A S D S A D D S V D S V Z S V D G D D Q.G.p k 9 9 i e d a p ",
"M S G 1.dXpXkXgXhXfXpXsXiXiXlXwX*X@.< > t ^ p.y.) _ y ).hXgXpX&XY.F.D D S S S V G V S V V V V J V S D A Z Q.F.w s u u T u d a d ",
"M G <.V.iXgXgXpXhXpXpXpXsXiXpXgXlX*Xi - - , R ` / y - o.wXkXkX).L.F.A G S B S A A V V B V V V V B V D S A W.S.u d d t Y i g e e ",
"B.~.].|.dXfXpXhXpXwXwXpXpXiXiXgXmXwXO.- % & - - - $ $ 7 &XwXhX}.Y.F.A G S V B S S V V N B M B B V V A S D W.A.0 y R < I E T i u ",
"3.].].].eXeX0XyXqXwXqXqXqXqX0XiXhXqX8.y ; $ % $ + + ; u &XzXgX.XL.S.Z A S V Z B V S S J B B B B N B S S S Y.Z.5 y , < I P E i q ",
"l D V G {.:X,X-X,X:X,X0X,X,X,X:X&X@X@X6.T , - ; ; - ! P. X>X>X(.K.S. .Z Z B B Z V V V V V B B m M B Z M B Y.3.5 < > < P P I R 9 ",
"B D V N !.).`.).(.`.XX-X X-X X{.&Xp.s.s.6.` _ i T +.7.P.W./.7X X X XW.2.D B M B V V V B V V B B N B Z l B T.C.5 y t R U P P y 9 ",
"5.S.2.A W.).).~.(.`.`.|. X).}.OX-X8.a.s.:.:.@._ _ 6./ U.{.J.}.&X;X>X3X}.X.l M M Z Z B B Z B M M l S M M l W.A.6 u t < Y y t t t ",
"L.S.2.B K./.!.{.Q._.)..X}.(. XoXrX$Xp.u.s.6.6.:.' ' 0._.|.|.:X,X3X>X5X>X/.{ l J B B B M B B M M M M J M M W.2.0 9 0 t t 7 9 e g ",
"G.3.X.D Q.(.Q.Q.Q.^.).{.(.-XrXoXtXqX#Xs.i.i.y.:.$.' U.,X.X2X:X>X5X5X5X5XaXL.B M B B B B M M M M M M M M M W.1.s g p d d d 9 9 e ",
"3.A k p S.Q.!.~.~.^.(. X;XsXnX[.4XbX6X$Xg.p.a.] $.@.$X3X-X3X>X3X>XaX>X5XdX:X,.l B l l N M l n M l n J M M W.B.q q q 7 7 6 6 6 8 ",
" .v x l K.!./.!.!.P.).eXaXbXnX[.oXcXvXyX$Xh.g.6.u.j.1X3X>XyX<XaX5XsX3XyXyXaX(.B M m B B M B m N n n m N l T.<.* o o O O O o * # ",
"Z Z x f C.T.T.!.Q./.:XdXdXpXaXoXOXcXmXvXsX1X%X%X#X$X6X2XyX5XyXaXyXaXyXyX3XrX3X1.B m m B l m N m n M m l l J.S             X . . ",
"} ,.| ~ P.Q.Q.Q.(.eXdXvXaXuXsX4X[.2XtXeX3X5X<X3X6XyX3X3XaX5XrX2XaXaXyXqX3X3XaX/.D m m M k m m m j N m k j F.l                   ",
"eX,X'.,.P./.!.Q.eXfXfXnXsXuXpXaXtXaXjXjXuXnXsXdXaXrXeXrX5XsXdX:XyXdXyXeX>X3XeXeXX.B B m n j m n l j l s l G.e                   ",
";X,X`.,.P.!.Y.~.vXfXfXsXsXsXsXsXsXdXsXjX6XsXvXsXeX5XaXaXsXaXaXsXnXaXuX5X>X5XsXeXI.M N N k k k n n m s s k V.2 X                 ",
"3.3.3.M 2.S.F.(.bXfXfXsXsXfXaXuXaXyXqX=X=XuXsXaX3X5XyXfXsXaXsXfXbXsXyX>X:XrXeX-X9.} M n m k k m l m k k h V.=                   ",
"M 2.1.S ..D.C.(.bXvXfXsXsXsXsXaX<X1X%X#X+X1XsX6X3XyXyXaXsXsXsXfXaXpX6X3X.X2X).U.j.0.Q k m m k k p s m a j B.%                 X ",
"J.~.A.l V 1....XbXdXsXsXsXsXsXsX1X1X#X+Xk.#X1X5XyX5XyXaXaXsXsXfXdXaXyX3XY.P.9.p.f.s.| x m n j z p p n a j <.#         X o o . X ",
"(.`.3.h S 2.H oXbXdXsXaXsXaXyXyX1X%X+Xx.l.@X%X6XyX3X3X3XyXsXsXsXjXaXeX X..+.6.i.t.u.0.( n n j z s p n w k X.*         O # # @ @ ",
"`.`.,.h B H D oXbXfXsXsXsXsX5X5X6X%X+Xx.k.l.%X5X5X3X>X3XyXsXsX5X6XyXeXT.Q ^ ] t.r.e.d./ k L j h k h j h x o.o       X o o @ @ o ",
",.2.M q B H H .XAXfXfXsXsXsX5X5X8X%Xl.z.l.+X1X>X5X3X>X3XaXsXyX5X,X3X3XC.c ^ ` $.r.i.d.6.c j h s h z h s f [ O           X X X X ",
"h 9 a q M A D (.bXbXfXsXbXfXuX>X1X%Xh.s.l.=X1X;X>X3X>X3XyXaXyX>X:X>X;X3.B c ( ` ' y.r.6.c l j k p j p f f Q O             O O o ",
"h g 9 9 M F S J.bXfXdXfXjXsXiX1X1X#Xs.y.8.$X>X,X3X>X>X3XyXaXyX5X>X:X0X3.M N c ` :.i.e.i.[ z j s L h i i 0 s X X X   X . O X X X ",
"3.2.k F G G B B.vXmXmXvXbXnXaX6X#X@X6.6.9.$X-X,X3X3X3X5XaXsXsX5X>X:X:X3.M M A +.r.e.u.i.#.j a h w h i i u p . . X . X   X     X ",
"2.<.9 3 5 k m D fXVXmXmXAXpXqX=X#Xk.s.6.9._.7X,X>X3X5X5XyXsXuXyXyX>X:XI.M n x +.s.i.s.i.#.M Z w s p t y 9 8 O X X . X         . ",
"h p 9 : 6 j s N oXvXtXtX5X>X7X%Xl.l.u.6.I.^.}.7X3X3X3X3XyXsXsXyXuX3XeX).{ n v | u.e.i.r.7.B 2.m q a i u 9 r O o o # % & 5 k D o.",
"w 6 6 = 3 j a m 3.$X$X*X@X@Xj.h.a.a.] 6.U.}.|.7X3X3X3X3X5XaXsXaXyXaXyX>XL.l x } u.e.e.e.7.m 2.N p q Q f 0  .2.1.A.G.!. X-X:X}.,.",
"8 6 : : 5 k j a / v.x.c.z.l.f.f.a.r.' 9.>X:X;X-X5X3X3XyXsXaXsXsXyXyXyXqX`.D l c 6.i.i.i.0.H 5.H w 6 f u 0 G. XQ.!.!.).).^.^.T.C.",
"w 8 2 8 q j j l / #Xc.f.f.f.d.f.y.] ] U.>X.X}.>X5X5XsXaXsXsXsXuXyXaXyXqX>XV.l f / u.i.e.9.'.&XF.o.q t 7 5 3.Y.1.2.3.K.3.V.1.G.|.",
"S V F h l o.D M / x.f.f.d.l.d.d.' ' ' U.}.{.}.5X4X5XbXsXaXsXsXaXyXeXyXqX<X!.m v / r.s.e.9.:X9X'.5X0X$XE.H.B.1.3.2.(.Q.1. .X.B.[.",
"{ { ,.D F 3.4.D | k.c.l.l.f.i.] ` ` O.I.(.{.2X2X>XeXdXsXsXsXbXfX0XyXyXaXeX:XD { V.:.t.i.j.0X9X&XxXxXm.n.m.9Xq.q.n.9X0X} v q 6 : ",
"A Z A A A { { { 5.h.f.d.u.i.$.` ) ) +.U._. X;X}.).-X5XsXsXsXsXaXaXyXyXfX,X4. XaX0Xs.s.f.j.9Xw.w.j.b.=.=.=.-.*.*.&.-.n.0.H k : % ",
",.,.{ F D } F 2.} 6.i.u.] ] ) W W W 0.^.).7X7X&X:X>X,X<XsXfXfXfXyXbX5X,X..c K.{.`.l.l.d.j.9Xq.w.0.n.*.*.*.&.=.*.*.*.-.>.} 5.3.K.",
"3.S.3.D A F { { } | :.' ) ) W ( ^ / 3.Q.}.7X,X0XqXyXaXyXyXaXfXbXVXaXE.d ..4.K.C.Z :.l.f.*XhXhXmXwXwXm.;.;.-.m.-.&.N.5.A z 3.}.(.",
"L.'.H.{ A { ..{ X.} / ` W W T W O.O.z D Y.7X3XeXaXyX5X5XsXvXeX:XK...A S.C.K.Q.4.} y.f.x.j.4.G..X0XwX9XM.M.m.NX'.D.D..XJ.Z K N 9 ",
"L.L.S.,.D ..,.,.<.o.| | W T T ( I.T.S.<.....3.V.T..X>X|.L...x s A 3.T.Q.C.K.P.4.0.f.f.f.6.p g S 2.G.(.&X0XiXJXHXFXMXmXcXtXvXY.,.",
"G.L.K.4... ...1.1.B.#.| ( f ~ | /.T.C.K.R.Y.K.B.4.C.C.C.C.C.V.P.^.P.P.K.F.P.F.4.6.x.x.v.9.f 8 0 z <.3.S.4.R.^.`.;XaXqXqXqXgX,X X",
"L.'.^.F.1.3.V.4.,.V...5.5... .S.|.K.I.^.P.Q.T.T.Y.L.K.T.^.Q.Y.Q.L.T.L.L.P.P.P.5.h.c.k.v.j.l > 0 p > I.`.4. .v e : : 0 e 8 : = # "
};
