/* XPM */
static char *waka23_jpg[] = {
/* columns rows colors chars-per-pixel */
"64 64 254 2 ",
"   c #020202",
".  c #0B0C0C",
"X  c #05070A",
"o  c #1A1A18",
"O  c #16130D",
"+  c #251E1B",
"@  c #1A211A",
"#  c #27231D",
"$  c #36271D",
"%  c #2A2724",
"&  c #362C26",
"*  c #38332C",
"=  c #3B3935",
"-  c #473629",
";  c #423D3A",
":  c #583C35",
">  c #513929",
",  c #7D3E35",
"<  c #46423E",
"1  c #574636",
"2  c #69483B",
"3  c #75463A",
"4  c #70742A",
"5  c #7A3F43",
"6  c #4A4543",
"7  c #4C4A45",
"8  c #4A4846",
"9  c #524C45",
"0  c #524D4A",
"q  c #5A4C48",
"w  c #54524C",
"e  c #5B554C",
"r  c #5D594E",
"t  c #585546",
"y  c #5B5651",
"u  c #5E5A53",
"i  c #5B5958",
"p  c #4F554B",
"a  c #694C47",
"s  c #744945",
"d  c #62544D",
"f  c #69574A",
"g  c #78584A",
"h  c #625C54",
"j  c #635E59",
"k  c #6A5B53",
"l  c #755E53",
"z  c #5D6258",
"x  c #656156",
"c  c #6B6256",
"v  c #65615C",
"b  c #6B645C",
"n  c #6B695F",
"m  c #686D5B",
"M  c #71645A",
"N  c #726A5E",
"B  c #786559",
"V  c #72715C",
"C  c #595967",
"Z  c #666562",
"A  c #6A6561",
"S  c #6D6A63",
"D  c #696B67",
"F  c #736D65",
"G  c #736E6A",
"H  c #7A6B65",
"J  c #6D7068",
"K  c #757166",
"L  c #797167",
"P  c #76726A",
"I  c #7A756C",
"U  c #7D786E",
"Y  c #7C7671",
"T  c #7E7972",
"R  c #767775",
"E  c #6E7572",
"W  c #8B3839",
"Q  c #863A2C",
"!  c #B73339",
"~  c #AF3236",
"^  c #95413F",
"/  c #925349",
"(  c #87675A",
")  c #946A54",
"_  c #986C52",
"`  c #A66B53",
"'  c #A9755A",
"]  c #B5785B",
"[  c #B26B5C",
"{  c #8C6462",
"}  c #8A6E61",
"|  c #926A68",
" . c #827A6E",
".. c #867668",
"X. c #997A69",
"o. c #837C74",
"O. c #8A7D73",
"+. c #847C77",
"@. c #907C73",
"#. c #A87B66",
"$. c #B97B65",
"%. c #AB7367",
"&. c #C67E6A",
"*. c #C9785D",
"=. c #7D8079",
"-. c #BBD430",
";. c #CAD513",
":. c #CFD52F",
">. c #BC825E",
",. c #A7995D",
"<. c #858175",
"1. c #8A8276",
"2. c #85817B",
"3. c #8B847B",
"4. c #8D897D",
"5. c #8E8976",
"6. c #918A7E",
"7. c #948478",
"8. c #999675",
"9. c #AC8269",
"0. c #B98569",
"q. c #AA8977",
"w. c #B78D76",
"e. c #BC937A",
"r. c #AB907D",
"t. c #ADA974",
"y. c #A2AA55",
"u. c #C5875E",
"i. c #C48564",
"p. c #C48569",
"a. c #C48B6B",
"s. c #CC8C6C",
"d. c #C78964",
"f. c #D38C6A",
"g. c #CA906D",
"h. c #D6936C",
"j. c #C88C71",
"k. c #D38D72",
"l. c #C89477",
"z. c #D39474",
"x. c #D59A7B",
"c. c #D99876",
"v. c #CFA773",
"b. c #D2D852",
"n. c #CFD16C",
"m. c #E4D95D",
"M. c #857B84",
"N. c #8B8681",
"B. c #8E8A81",
"V. c #858480",
"C. c #938C83",
"Z. c #978E86",
"A. c #969185",
"S. c #9B9386",
"D. c #9C958B",
"F. c #9E998D",
"G. c #96918A",
"H. c #9C9891",
"J. c #A3968B",
"K. c #A49A8D",
"L. c #AB9B8C",
"P. c #AA9685",
"I. c #B89987",
"U. c #A39C92",
"Y. c #A89D93",
"T. c #B09C95",
"R. c #A7A28B",
"E. c #A5A194",
"W. c #ACA295",
"Q. c #ACA59A",
"!. c #ADA99D",
"~. c #A8A599",
"^. c #B2A394",
"/. c #B1A69B",
"(. c #B4AA9D",
"). c #BAAD9D",
"_. c #B7A996",
"`. c #B5B08D",
"'. c #AEAAA1",
"]. c #B4ADA2",
"[. c #BBAEA1",
"{. c #B3AAA7",
"}. c #B6B1A4",
"|. c #BCB2A4",
" X c #BCB5AA",
".X c #BCB7A9",
"XX c #B9B9B2",
"oX c #99A09A",
"OX c #C79C85",
"+X c #D69C86",
"@X c #C9A289",
"#X c #D5A389",
"$X c #C7AA99",
"%X c #D6AA93",
"&X c #D4B49F",
"*X c #C7B19D",
"=X c #C2ADA3",
"-X c #C3B4A5",
";X c #C4B5AA",
":X c #C4BAAB",
">X c #CBBBAC",
",X c #C8B7A6",
"<X c #D4B9A8",
"1X c #C4BCB2",
"2X c #CCBDB2",
"3X c #C4B7B3",
"4X c #D1BEB2",
"5X c #D1CE8B",
"6X c #E8DA9A",
"7X c #CCC1AC",
"8X c #CAC6A8",
"9X c #D3C4AD",
"0X c #D6C9AE",
"qX c #D8C9AA",
"wX c #D3D2AB",
"eX c #CDC2B3",
"rX c #CBC4BA",
"tX c #CAC6B6",
"yX c #D3C4B3",
"uX c #D5CAB3",
"iX c #DACCB3",
"pX c #D5C6B9",
"aX c #D5CBBB",
"sX c #DACBBC",
"dX c #D9C5B9",
"fX c #DDD1B7",
"gX c #DDD2BB",
"hX c #D4D6B9",
"jX c #CCD7AD",
"kX c #E1CDBA",
"lX c #E0D3BB",
"zX c #E0DDA6",
"xX c #E5E3AE",
"cX c #D4CDC2",
"vX c #DCCEC2",
"bX c #DDD2C3",
"nX c #DED9CD",
"mX c #D9D3C7",
"MX c #D5D3CA",
"NX c #E1D3C5",
"BX c #E3DACD",
"VX c #E3D7C8",
"CX c #E3DDD3",
"ZX c #E2DDD9",
"AX c #E1CFC1",
"SX c #E5E0D5",
"DX c #E6E2DA",
"FX c #E8E4DC",
"GX c #EAE2D6",
"HX c #E9E6E2",
"JX c #EAE9E5",
"KX c #EBEBEA",
"LX c #E7E6E4",
"PX c #F0EDE6",
/* pixels */
"U.{.XXXX{.N.I T o.6.C.Z.Y.D.J.D.S.6.3.<.U I A Z G y w 0 6 7 6 8 y K J F L U o.I +.2.R o.T T T Y Y  .T +.2.1.Y.:XL M | N F A j y ",
"'. X'.F.C.3.N.B.H.Q.|.1X2X;X>X>X:X/.K.D.C.3. .L I A A y 8 6 6 ; x Y P P T o.o.+.T 2.T T T T T Y Y U Y +.+.o.U.:XL M { b S b v h ",
"E.C.<.T U 2.B.B.G.G.Y.(.).,XyX<XyX).J.C.<.o.4.C.C.C.D.A.3.3.P b I 2.T U <.o.+.+.T +.T T T T +.Y U U Y T o.o.Y.:XL c ( c b v v h ",
"6.U U P K P F F P U  .6.J.-X4X4X>X(.Z.2.T o.A.A.K.J.W.W.Q./.W.Y.B.B.T T o.T T o.+.V.T +.+.R T Y T I T T o.o.U.:XU M { M b j v u ",
"G.F.U.D.A.A.3.3.o.+.I P T 3.Y G 1.3.2.3.2.N.F.F./.Q./.W.L.J.J.P.G.B.U T <.T T T T V.T T T T T T I P P T T <.U..XL M { n b j v h ",
"J.E.Q.~.]. X X1XrX2X'.+.j w 8 0 w i A Z Z Z I T 6.C.S.K.Y.K.J.J.C.3.T U T <.T +.T +.T +.T T T T U I P Y =.T U.:XL M { M b j j y ",
"E.~.}..X:X:XrXpX1XD.S 8 8 y y y v v i v G P K T o.1.2.C.D.K.K.J.2.1.+.o.T =.T T +.2.T T T Y T T T I Y U T  .K..XI B { b b j j h ",
"'.].]..X:XrX:XS.j 6 6 0 i j A b Z Z S I 3.3.T 4.C.G.F.F.W.Q.].].3.C.C.2.T +.T T +.+.T T T Y R Y U I I U U U F.:XU N | b b j j h ",
"].{.[. X.XZ.i 8 8 0 y j A N H O.O.+.3.B.G.B.A.H.~.~.!.)..X:X:X:X}.C.D.+.o.T T T +.o.T +.T I T U U L L I P U D..XI M | b n v j h ",
" X}. XB.e = 7 0 i j A G  .Z./.:XmX'.C.C.H.H.~.}..X.X.X:X7XeX7X7X XD.F.o.Y I T T +.T T T R P U P I G P I I o.D.:XL M | c n v h h ",
"'.H.o.; ; 6 w u j L +.D.[.cXCXGXtX~.B.F.}.{.XXtXeXeXtXaXfXgXcXbX1XD.U.o.I R T T o.o.T T T U U K P P P  .U o.H.1XL B | c b v j u ",
"7 & ; 6 8 0 u K 6./.pXBXFXnX:XW.D.F.~.XXtXrXrXMXmXnXCXCXSXDXFXLXcXE.'.2.T T T U Y T R T Y Y U K L I I I I o.F..XU N | c b b v u ",
"& = 8 8 8 y v ~.bXSXGXrX/.D.S.J.~.].XXcXMXnXnXCXHXJXKXKXKXKXKXKXnX'.'.2.Y Y T U o.T Y Y Y I U I L I I U U o.D. XL N | x b A b u ",
"; < ; 8 < 6 v .XtX}.F.B.C.D.U.~..X7XcXMXZXJXJXJXKXKXKXKXKXKXKXKXnX~.'.T Y Y T o.o.+.T T Y I U I P I I I o. .S.:XH M ( k v b b h ",
"; 6 8 6 < 0 w v K L T 4.D.U.!.}.rXMXSXJXKXKXKXKXKXKXKXKXKXJXJXHXMXE.!.Y R T U T +.T T Y Y P I I K I P I T o.D.1XP M { h v v j u ",
"0 8 8 8 9 w u j K o.B.H.~.'. XrXnXDXJXKXKXKXKXLXLXHXFXFXDXDXDXSXcXoX!.Y T S n S I Y Y Y P P I P P I P I o.o.D.2XI k { d v j u e ",
"y i i y u Z Z R B.H.U.~.].:X7XuXmXVXBXSXSXSXSXSXnXSXSXCXCXZXSXDXmXK.E.F q = & & * < E I L K P G K P P I Y T G.1XK M { r h h h e ",
"Z v D P I 3.G.D.U.'.{..X:XeXyXuXaXaXmXmXnXnXnXBXCXSXSXCXCXSXSXCXaX~.O.1 : > > 2 2 1 < H L P P P U I I Y T I A.3XL M ( h j v u e ",
"D u S N.H.Y.W.).}..X:X>XeXeXeXeXuXaXgXmXnXnXCXSXSXCXCXnXnXnXCXnXcX<.f ) ' 9.0.k.z.9.: M I G P P P P G I Y T G.1XH M ( h v x h e ",
"K 3.F.~.~.(.).-X-X>X7X7XyXuXuXaXbXnXnXSXSXDXDXDXFXHXHXDXDXFXHXFXZXN ( #Xc.z.c.c.d.s.g q E G L K L P G P L U C..XL M { k j j u e ",
"R./.]..X].;X X1XeXpXaXcXbXnXBXSXSXDXHXPXJXKXKXJXKXKXKXJXJXKXKXKXnX .X.#Xx.g.x.s.] $.#.1 P K P K P I P Y I I A..XH l ( h h u h e ",
"-X/.S.T b Q.cXaXVXBXCXZXDXFXFXHXJXJXHXJXJXJXKXJXHXJXHXHXHXJXHXHXnX3.( l.p.` l.d.] ` 9.l H P L L L G P L I I A.|.F k { h h r y e ",
"F r 9 y t (.BXVXVXBXBXBXSXBXSXCXBXnXnXCXCXCXCXCXCXCXSXCXCXSXSXSXbX1.} OX0.` j.z.g.0.x.' X. .P G L I P P I K 4.!.F c ( h h u u e ",
"w y w i 9 /.iXiXwX0XfXuXfXgXgXfXbXhXnXBXnXBXnXmXbXNXbXbXbXbXNXNXcXS.X.l.z.l.c.f.s.h.c.] 9.} G I F G G P P P 4.).F M { x h u u r ",
"7 0 i Z 9 J.aX0XiXiXiXiXiXiXkXfXgXgXgXhXgXgXmXgXgXgXgXbXgXgXNXgXuXP.0.@X+Xh.f.` [ j.+X` X.G P N K P K P U K 4.].H u M l c r d u ",
"w < 6 w 9 S.uX9XyXyX9X9XuXiXiXiXfXfXgXlXgXgXfXhXgXgXlXlXlXfXfXgXkXr.0.0.+Xc.&.%.` p.$.3 H I G E K K K P P K 4.].P u k f k d h r ",
"H.J y i e S.uXiX0XyXyXyXiXdXiXdXuXfXfXgXfXgXlXgXfXkXsXiXiXiXiXqX9Xr.l.( #.p.$./ ` $./ - e L G E K P K I U K 4.}.K u h a g d r t ",
"G.K x n v J.uXfXiXiX0XiXdXiXyXyXuXiXuXfXfXgXfXlXkXiXiXiXiXqXfXfXuXU.L.( s _ c.[ ] 0.3 $ q H H G J P J P I K 4.].F h z f a r r w ",
"2.I K I J E.uXfXkXiXiX0X0X0X9X9XyX0XuXuXuXuX0XqXqXfXiXfXqXfXqXiX0XH.T.B : : #.] ) g - $ 1 L K H K P G P L K 4.!.H j u h a a r q ",
"U S F R L W.aXlXlXkXqX0X0X0XiX9XuXfXgXgXfXfXiXiXiXiX0XiXqXiXiXfXqXY._.7.: ; > f : # # & 9 E D F F K S P P K 4.!.F j h a 3 / s q ",
"I P 2.H.F.|.uXyXiXiX0X0X0XiXiXiXiXfXgXgXgXaXuXiXfXqXiX0XiXiXiXkX0XG..XR.a > - $ $ $ : f A E A J S G F G G G 3.!.b y a s Q ~ ^ a ",
"T T H.XXXXtXaXuXqX9X9X9X9XyX9XyX0XuXhXaXtX7X7X7X9X9X9X9X9XyXyX9X1XoXtX,X#.) s : - s ' P.7.G K S S F A G G S 3.~.l d s 3 Q ~ ! / ",
"J I R <.T S.:X-X-X:X:X,X7X7X:X,X,X,X,X:X:X,X:X:X3X>X:X2X<X,X3X;XXXH.eXiXOXj.0.) _ ] 0.q.^.K S F S A A K F n 1.~.b 2 1 2 , ~ ! ! ",
"v x v U S <.|.,X).|.-X|.-X,X|.|.|.|.|.|.-X|. X X,X>XyX>X-X;X;X,X$XT.#X@Xl.a.f.i.>.p.0.q.:X2.S S G S A n F m <.].j s s s , ~ ~ W ",
"6.C.4.B.L 3././.(.`.).|.|.-X|.|.).).(.).).|.|.|.,X9XyX2X2XeX<X<X+X+X@XOXOXl.j.g.a.p.0.I.tXG.G b n A K A S S <.!.m d a 5 5 W 5 2 ",
"K.L.F.4.K <.(./.!.].).).|.|.).(.(.(.).(.).).|.:XuXyXyXyXyX<X@X+Xc.x.%X<X,X$X+Xg.u.a.OX,XrXQ.J.B.U n A D S D 2.~.b p p q a a 1 t ",
"L.L.U.A.o.3.W./.W././.(.|.|.).(.`.(.(.(.(.[.>XyXyXrXtXyX<X#Xz.z.h.0.OX<X<X<X#Xh.f.z.%XyXrX3X1XtX(.D.I S S Z 2.!.b d h e d k d e ",
"J.8.4.F c I Q.(./.~.W.(.|.|.).(.(.}.(.(.].;X2XpXpXyX7X&X&X#Xs.g.d.e.=X3X:X<XOXz.z.h.l.%XyXpXeXcXgXgXU.S S S <.!.G w y q a f q w ",
"4.2.1.M l L W.^.!././.!.).].(.(././.~./.|.2XpXpXdX4X&X#Xx.0.` ] 0.@X<X4XXX8XOX&.] ] ] OX9XkXpXpXyXbX;XI b S <.!.q @ + @ # o o % ",
"m x L M H H K./.~.Q.W.~./.!.W./.!.W.W.!.;XcXsXyX<X$X#Xx.a.` / [ $.w.OX*X*X&X#X*.] ] k.+X<XdXvXyXsXsXvXC.b b T !.*           X X ",
"B F  .H ( ) T.T.^.W.(./.1XW.W.Y.~.W.^.|.tXMXuX&X#Xx.s.p.' _ %.#.#.$.$.&.k.k.k.k.+Xc.h.h.@X;XpXpXaXbXaXW.c x U F.%               ",
"-X).(./.q.@.^.]./././.Q. XW.W.W.H.Y.^.).7X:X%Xl.z.j.#.#.I.I.I.I.I.P.q.$.w.j.w.l.w.p.u.0.l.$X4XpXdXdXsX:XL b I H.@               ",
"8XuX8X8XP.7./.Y.E.W.W.Y.~.J.U.J.L.I.e.e.OX@Xx.c.p.0.#.L.=X_.).{./.T.I.L.I.^._._.OXw.0.$.a.l.&XaXdXkXbX2XZ v I 3..               ",
"K.K.F.K.7...U.H.F.U.L.E.W.U.J.K.e.g.l.l.l.l.z.h.p.#.7.U.W.W.[.{.;X;X=X=X[.).=X=X$X_.OX0.d.g.@X<XcXpXcXrXP z K  ..               ",
"T J U 6.1.M A.A.A.D.S.K.F.F.L.I.z.h.c.c.c.c.s.&.#.X.B.H.W.L.).1X;X4X2X2X3X;X;X<X=X-X=X+Xf.f.l.%X[._.^.).G u F B .               ",
"3.3.8.~.1.n 3.4.N.4.3.A.G.6.r.l.x.c.z.h.h.f.d.$.X.@.Z.Y.^._.-X;X2XdXpXpX2X;X;X=X;X;X=XOXz.h.g.l.w.0.a.w.} d R S X         . O . ",
"'.|.|.|.K v T 3.+.+.+.N.V.1.w.v.c.z.h.h.s.p.$.#.B.@.6.J.T.).;X*X;X2X>X4XeX1X:X>X>X;X*X@Xl.g.s.s.h.h.h.x.q.h J x         X o o o ",
"~._._.|.P A I o.T  .+.V.T o.e.h.h.h.g.s.p.$.#.@.+.J.J.L. X;X X>XpX4X<X4XyX4X>X;X;X,X,X$Xe.0.s.f.l.d.u.u.q.c P e       X X @ + @ ",
"4.D.U.3.S x L U Y U T T =. .e.c.s.z.0.i.] #.@.U  .T.L.].,X>XyXpXpX4XdXdX2X2XpX2X>X>X;X$Xe.a.d.f.i.u.d.u.a.) H 7             X . ",
"r x b n x w T T Y U L T 2.5.e.z.i.&.] ' ' X.+.G +./.).>X>X4XyXpXpXpXdXdX4X4XpX4X>X>X;X=XI.p.i.i.p.a.a.d.s.#.B 6           X X X ",
"K x r e e w I G E Y P T o...9.s.$._ _ ( } ..G G J.;X,X4X4XdXaXpXcXAXvXdXpXsXdXdX4X>X;X-XI.0.0.] ] 0.0.u.s.0.l =       X X . . . ",
"E.4.<.L b P T Y J I I Y U L X.#.` ( ( H F P G Z.;X4X4X4XyXAXvXcXvXAXvXaXdXdXpXdX4XyX;X[.I.#.' ] ] ' >.>.d.' l = X X X X X   X   ",
"D.4.4.U r r v G b S A Z D D H B H l F G J D G ].pXdXdXAXsXAXsXbXvXvXcXdXcXdXpXdXdXvX3X).^.} ) #.` ] ' ] u._ k = X X X X X       ",
"U =.I v 7 = y v b b A Z D Z Z D Z Z D D J n o.rXAXvXsXvXvXvXvXvXNXNXvXAXAXdXdXAXsXAX4X(.K.F M } ) ' ' ] 0.g w * . . . . o % = 8 ",
"< r w 9 9 ; u z j v A S v Z Z Z Z D Z Z D A J.vXvXvXcXcXvXbXvXbXvXAXvXcXsXyXdXvXvXvX4X).B.Z i P } ) ' ' X.k h n m K <.4.K.!.}.|.",
"9 z w 7 < < u b Z Z A F b F A Z v v A b S n J.[.2XvXVXvXvXvXbXbXNXAXNXvXdXdXcXvXvXdX2X$XT C C E <.B _ / g t c ).!.!.~./._.)._.W.",
"m x w 7 < 6 h N A Z A D F S A b A v v A S K +.Z.A D.rXbXvXvXvXAXvXsXNXbXbXaXbXmXkXpX.X~.n x 8.K.t.V B 1 2 6 x E.D.4.<.E.8.D.5.C.",
"o.L F n v h c N F S F F G F S S A v v x G U.Q.J.y 9 A =XAXvXsXVXVXVXNXvXfXNXVXvX4XeX:XA.u x F..X-XK.3XL.J. .T O.4.M.T ~.8.o.+.2.",
"<.<.<.<.o. .4.G.+.L N F P P F Z F j b b G.rX2X].D. .L 3.W.1XvXcXaXmXcXvXyXdX4X;X>X;X[.Z.o.3./.|.8X:XCX5Xn.n.5X$Xt.t.t.hX{.o.N d ",
"<.T N K L K I  .<.o. .U P F F P D v j A  X1X;X[.{.'.S.U C.h j M.C.T.1XvXpXyX4X;X:X>X2X2XrXuX8X`.v.v.x.:.;.;.b.-.;.:.;.5Xt...b d ",
"4.<.I U  .F  .o. .O.7.6.6.o.U P F F S o.1X;X[.).=X].].J.D.6 % # # ; Z N.~. XpXcXyX2X4XvXaXwXjXt.y.,.,.:.;.;.b.b.b.n.xXm.n.`.5.O.",
"A.S.D.8. .F L  .O. .o.3.C.6.1. .U F b U.1X2X;X[.[.].].Q.U.Y.C.h # o + # & = b 3.Z.6.Z.|.)..XwXwXjX8X,Xn.;.;.m.6XxXxXb.8X,X8XD.R.",
"F.J.K.K.C. .L o. . .o. . . .O.3.o.K K !.:X1X|.).].[./.T./.Q.Y.'.Y.b * o O O + * e F D.Q.1.N 5.(..XtXbXkX6Xm.b.m.5Xt.4 1 0 h C c ",
"S.F.F.K.C. . .+.O.1.+.O.O.O.o.3.3.1.3.].:X1X/.^.).[.[.Q.U././.L./.].U.2.S T 3.C.G.A.W.E.C.h w n o.A.R./.8XhX6XhXjX}.R.5.V x 7 = "
};
