/* XPM */
static char *waka27_jpg[] = {
/* columns rows colors chars-per-pixel */
"64 64 254 2 ",
"   c #010102",
".  c #05060A",
"X  c #06090C",
"o  c #0A0A0C",
"O  c #181817",
"+  c #0E0D0F",
"@  c #211E1A",
"#  c #29231B",
"$  c #342618",
"%  c #272624",
"&  c #372C27",
"*  c #3B3834",
"=  c #3E3129",
"-  c #1F2022",
";  c #452C24",
":  c #463328",
">  c #453E38",
",  c #593D3A",
"<  c #603227",
"1  c #45423D",
"2  c #4B463D",
"3  c #56443A",
"4  c #4E4A36",
"5  c #65473B",
"6  c #76463B",
"7  c #71523D",
"8  c #4E3F44",
"9  c #494542",
"0  c #4C4944",
"q  c #494746",
"w  c #524C45",
"e  c #524E4A",
"r  c #5C4C45",
"t  c #54524C",
"y  c #5D564C",
"u  c #5D594D",
"i  c #565447",
"p  c #5C5651",
"a  c #5D5B53",
"s  c #5E5D59",
"d  c #545752",
"f  c #6B4C44",
"g  c #684845",
"h  c #794944",
"j  c #67564A",
"k  c #79564A",
"l  c #635D53",
"z  c #635F5A",
"x  c #685B56",
"c  c #7D5C54",
"v  c #755955",
"b  c #5B6156",
"n  c #55614B",
"m  c #656156",
"M  c #65625B",
"N  c #6A645C",
"B  c #6B665A",
"V  c #796658",
"C  c #6D6A4F",
"Z  c #666561",
"A  c #6A6561",
"S  c #6D6A63",
"D  c #6F6E68",
"F  c #686767",
"G  c #726D64",
"H  c #726E69",
"J  c #776A64",
"K  c #747166",
"L  c #75736B",
"P  c #7A756C",
"I  c #7C796E",
"U  c #797466",
"Y  c #7B7671",
"T  c #7D7973",
"R  c #7A7975",
"E  c #6E7569",
"W  c #893D37",
"Q  c #923637",
"!  c #AF3134",
"~  c #90473F",
"^  c #8A3F43",
"/  c #885B4B",
"(  c #835E57",
")  c #8B634B",
"_  c #9C694D",
"`  c #83645A",
"'  c #886759",
"]  c #9A6A58",
"[  c #87725C",
"{  c #99725A",
"}  c #A66E53",
"|  c #AA765A",
" . c #B57B5B",
".. c #A1694B",
"X. c #896B61",
"o. c #846963",
"O. c #81796E",
"+. c #86766A",
"@. c #977665",
"#. c #827C74",
"$. c #847D79",
"%. c #887C76",
"&. c #97776A",
"*. c #B57A63",
"=. c #A97762",
"-. c #A94746",
";. c #C65F58",
":. c #7C826F",
">. c #C9D614",
",. c #CFD52F",
"<. c #AE8F5A",
"1. c #868176",
"2. c #898176",
"3. c #86827A",
"4. c #8B847B",
"5. c #8D897D",
"6. c #8D8872",
"7. c #92897E",
"8. c #958678",
"9. c #96927C",
"0. c #8A8568",
"q. c #B98567",
"w. c #A78A78",
"e. c #B68A74",
"r. c #BC9279",
"t. c #A88A6F",
"y. c #B1B067",
"u. c #A29F5A",
"i. c #C58C5E",
"p. c #C38B6B",
"a. c #CB8C6B",
"s. c #C68866",
"d. c #C9926A",
"f. c #D6966C",
"g. c #C98D74",
"h. c #CD9374",
"j. c #C69779",
"k. c #D49574",
"l. c #DA9C75",
"z. c #D29A7C",
"x. c #D79978",
"c. c #D28D71",
"v. c #E19578",
"b. c #C2AC6D",
"n. c #E9A47D",
"m. c #E4D359",
"M. c #D6D56A",
"N. c #CDCD6D",
"B. c #E6DF70",
"V. c #D6DC5E",
"C. c #897C8D",
"Z. c #8D8882",
"A. c #938D83",
"S. c #988D84",
"D. c #948F89",
"F. c #9B9285",
"G. c #969389",
"H. c #9B948A",
"J. c #9D998C",
"K. c #969287",
"L. c #9C9A92",
"P. c #A48D83",
"I. c #A2968C",
"U. c #A39A8D",
"Y. c #A99888",
"T. c #B69888",
"R. c #A49C93",
"E. c #AA9E93",
"W. c #A99E9C",
"Q. c #B29F90",
"!. c #A8A48A",
"~. c #A6A195",
"^. c #ACA295",
"/. c #ADA49A",
"(. c #AAA69A",
"). c #B2A394",
"_. c #B2A59A",
"`. c #BBA69B",
"'. c #B3AA9D",
"]. c #BAAB9D",
"[. c #B9A595",
"{. c #B8B39B",
"}. c #B0AE88",
"|. c #ADA7A1",
" X c #B5ACA2",
".X c #BBADA2",
"XX c #B6B1A5",
"oX c #BCB2A4",
"OX c #BCB4AA",
"+X c #B9B6AB",
"@X c #BDB6B3",
"#X c #C99983",
"$X c #D69D84",
"%X c #C5AA98",
"&X c #D3AA96",
"*X c #D0A990",
"=X c #C3B4A5",
"-X c #C4BAA6",
";X c #C3B5AA",
":X c #C5BAAC",
">X c #CBBBAD",
",X c #CCB5A4",
"<X c #D4BCAC",
"1X c #D7B7A5",
"2X c #C5BCB2",
"3X c #CBBDB2",
"4X c #D4BCB2",
"5X c #D5BCB8",
"6X c #C2AFA0",
"7X c #E2DF91",
"8X c #E6E294",
"9X c #CBC2AB",
"0X c #D2C6AE",
"qX c #D5C9AF",
"wX c #DDC9AE",
"eX c #DBD2AD",
"rX c #CDC2B3",
"tX c #CCC5BA",
"yX c #C9C6B9",
"uX c #D2C3B5",
"iX c #D6CAB3",
"pX c #D9CDB5",
"aX c #D3C5BA",
"sX c #D5CABC",
"dX c #DACCBC",
"fX c #DAC4B6",
"gX c #DDD2BC",
"hX c #DBD1B7",
"jX c #E2D4BB",
"kX c #E2D3B4",
"lX c #E5DFA3",
"zX c #CBC593",
"xX c #D5CCC1",
"cX c #DACDC2",
"vX c #DDD4C3",
"bX c #DED9CC",
"nX c #DAD4C8",
"mX c #DEDCD2",
"MX c #E1D9C6",
"NX c #E1DACC",
"BX c #E1D6C5",
"VX c #E3DED3",
"CX c #E4DFDB",
"ZX c #E5E1D5",
"AX c #E5E4DC",
"SX c #E9E6DD",
"DX c #EAE6DB",
"FX c #F0E8DB",
"GX c #E5E6E3",
"HX c #EAEAE5",
"JX c #EBEBEB",
"KX c #E9E7E3",
"LX c #F4F0E7",
"PX c #DFE1D6",
/* pixels */
"|.+X+XXX(.3.P #.4.S.F.R.E.R.R.I.P.A.%.3.Y L S S F s e q 9 9 1 1 Z D F S R Y T $.#.$.#.T I T T Y T T T #.$.%./.XXS V X.D G A N N ",
"+XXX~.G.4.3.A.G.J.^.+X2X3X>X>X<X2X.XR.I.Z.Z.O.O.T G N a t 0 q 9 S R Y Y R R T T #.#.T T T #.T Y Y R I $.$.#.'.oXU V X.N z M m A ",
"L.4.R L P T 4.4.G.S.R.^.].>X<X<X;X_.I.A.T #.4.D.S.F.H.H.A.4.#.U R T Y Y T T %.#.#.T #.#.#.#.T Y T R T 1.$.#. XoXG V ' N z b m A ",
"4.$.T R L G L S G P 2.%.I.=X=X,X2XE.7.3.$.4.D.H.U.E.)./._._.^.U.D.Z.Y Y T #.#.#.#.#.#.R T T T Y R P T 1.$.#.'.oXS V ' A A M m N ",
"H.~.R.R.J.H.D.Z.Z.$.#.P #.Y z J P O.4.%.T 3.K.~.)._._.E.R.U.I.F.D.Z.T Y #.#.$.#.O.R $.#.T T R Y T P P 1.T $./.'.N V X.A A M M z ",
"H.R.R.'.OXOX2X3XaX3XW.S t t q e t p z z M N K I 4.A.H.I.U.R.U.F.%.$.Y T $.$.#.O.$.T $.T #.T T Y T R P 1.$.T /.'.G V X.A v Z m N ",
"'.|. X2X;X@XtXtX|.T e 9 e e d s z z M Z L L P T %.4.5.A.H.I.I.I.T 3.T Y #.#.#.#.#.$.$.$.T R Y Y Y R P R $.O./.{.G V X.N z M m A ",
" X'. X+X;XtX X+.e 9 q s z Z S z z S H R Z.$.$.Z.G.H.J.R._.'. X'.Z.D.$.Y #.I I #.#.$.T T Y T Y Y L T P P T I W.oXG V X.N z M m z ",
" X XOX@X|.H e 9 e e p x G V O.8.A.2.K.D.A.K.L.L.(.'. XXX=X=X-X-X_.H.Z.P %.%.O.T #.#.T T T T T T U U P P #.#./. XG ` X.S M M m N ",
"+X2X XG 0 * q t p A H I 2.I.oXdXbX~.5.A.R.~.'.+XoXOXOX9XrX9XuXrX XJ.L.$.R Y $.T $.#.Y T P L P P P L P P T T ^. XD ` X.N M M M z ",
"D.R z * 9 w t z S I 7.W.tXVXZXNX@XU.G.~.+X+X@XyXyXrXaXhXvXgXvXvXXXG.G.R T $.O.P #.$.Y #.I P I L P P P P O.I ^.XXG ` [ N Z x m x ",
"* * 1 > 0 0 p 1.H.:XbXZXVXsXXXR.G.R. X+XyXyXxXnXnXbXVXZXDXDXSXGX9X'.K.l w , w B D $.#.#.I P I U Y P P T #.O.^.XXS ` X.N M N m M ",
"* * 9 9 q 0 P @XVXNXnX+XR.S.F.R. XOX2XxXbXbXPXDXKXHXHXHXJXJXJXJXsX7.t = & & # % q D :.R R T P K P P P R $.T ~.XXS ` X.N Z N z z ",
"* * 1 9 1 9 K XXoX~.7.2.7.I.R. X+XyXxXPXGXHXKXJXJXJXJXJXJXJXJXJX@Xu : : & & & % # 9 K T T I I O.P P Y T 3.T ~.XXB c o.N Z m M M ",
"1 q 9 9 9 e p N K P %.A.I.R.'.2XyXmXAXJXHXJXJXJXJXJXJXJXJXHXKXGX~.3 ( ] k 5 : ; ; ; x I Y P P H P P Y T T T (.XXS V ` m z B M M ",
"w e q q e e u N T %.D.R.|. XOXaXZXDXAXJXJXJXJXHXZXGXSXGXSXZXZXZX9.7 z.z.k.q.| =.@., v %.L R Y L P L P T T T ~.oXN c ` z z M m x ",
"t Z a M b B L 1.K.L.R.|.+X2XrXsXvXvXbXNXZXZXZXZXPXVXbXVXCXKXZXAXH.X.$Xv.l.l.l.v.f.{ l I U L P I U P H T #.T ~.XXF ` V z Z z l z ",
"A z S L T A.J.R.^.'.XX+X:X3XuXsXiXsXdXnXNXNXVXNXPXZXZXZXVXVXVXbXY.@.$Xz.l.k.x.c.h.@.B P Y P L G P U H I T T R.XXF c ` m z x m z ",
"N x %.A.L.(./. XoX=X-X-XrXrXuXuXaXsXxXnXbXbXmXZXVXZXZXVXVXbXNXdXw.e.$Xq.| a.c.} _ { +.H L K K K P L U P T I R.XXD c ` m s l u m ",
"#.S.R. X X X X;X:X>XuXtXsXdXsXcXbXNXZXAXAXAXSXSXKXKXAXAXGXSXFXgXp.z.z.s...*.*._ _ =.&.R E K G Y K L L Y P T R.OXS ` ` m s l u z ",
"W.XX X XR.2X:XtXtXsXxXnXbXmXVXCXSXKXHXJXJXJXJXJXJXJXHXGXJXJXLXBXg.h.z.z.a.x.c.p.q.p.@.Y E L U H U L G Y P P R. XA ( ` m s l u x ",
" XF.#.G z ;XaXdXNXVXZXAXDXKXSXFXSXDXGXGXGXGXHXHXGXHXGXGXGXSXKXNXg.e.$Xc.c.k.k.c.k.e.` P D U L L L L H Y P P J. XM c V m s u u M ",
"u w w a y tXNXMXBXMXMXvXMXNXnXMXbXNXNXZXNXZXmXVXmXZXZXVXmXmXZXVX%X] e.*.*. .| } a.@.J O.U L U L U L G P P K J./.M c V x s u l m ",
"t z p m y oXsXpXqXpXpXpXgXgXgXBXgXvXvXvXMXMXbXnXgXBXjXBXnXbXgXMX+Xg } | =.q.*._ } f F H U P S K G H G L P L G.(.N V ' m a u a m ",
"2 t l z w oXiXiXiXiXiXiXiXiXdXjXhXhXvXnXgXgXgXvXdXgXvXgXgXMXjXjX%X3 5 *.c.v.g.*.v 3 A D E K U H P H K I P I U.(.Z m k c z d m m ",
"t 9 9 p i _.rXqXqX0XqXiXiXiXpXpXeXdXgXBXgXpXdXsXiXpXpXpXhXgXkXgX>X3 : / p.*.*.} : > L D L I S H L U E P P P J.(.N m v B x j j m ",
"D.F p M u _.0XpXqXqXqXiXiXiXqXqXpXpXpXgXjXhXjXgXkXpXpXgXpXpXpXpX.Xj : ; h ] ] , $ 2 U D K L U P K K L P P K H.(.B m l l v a a b ",
"Z.H Z D N '.sXgXpXiXqXqXiXqX0X0XpXiXdXpXiXiXiXiXdXiXiXiXdXuXuXrXtXP.g ; : & & & : j S L K K S M G L K P P K K.^.x z l j k d b x ",
"#.H D R H  XiXeXkXpXqXqXqX0X0XqXqXqXaXpXqXeXiXdXuX>X>X:X:X>X2X2XrXuXP.f : $ : , o.S.L K G G L D L K D P L U K.~.j b s f h i d a ",
"L A D :.1.'.hXhXhXiXqXqXqXqXiXiXqXsXgXgXgXgXpXuX3X-X=X=XoX;XOX2X5X;X XT.) 6 ) _ 8.oX%.S G G G L L G G L L K K.~.l b z h Q ~ j u ",
"P P Z.~.~.-XiXqXqXwXqXqXqXqXqXqXhXgXgXgXiXiX9X:X2X>X;X;X;X:X3XyX5XrX9X2X&Xq.<.r.[.;XA.U B G B H G G S U K K K.~.l j 6 ^ ! ! -.j ",
"I 3.~.+X XyXpX9X9X9X0X0X0X0X9X0XqXpXdXiXrXrXrX2X2X3X>X-X;X>X2X>X:XiXaXxX5X&X%X3X3X.X+X(.F.7.T D H G S U K B A.(.m 3 6 5 W ! ;./ ",
"S G L $.G U.-XoX,X-X-X-X-X:X=X-X:X;X;X>X<XuXuX2X2X3X5X2X5X3X2X3X>X3XrXaXaXfXaXaXaXsXaXuXaXtXOX_.R A D D L N H.~.n r 5 6 W ! ! -.",
"m M S U M K.oXoX].].{.=X-X=X{.=X{.{.oX-XrXyX3X:X3X:X>X3X>X3X>X>X3X3XuXuXuXaXaXaXsXsXtX3XuXsXdXfXJ.B D A S S A.~.j g h 6 W ! Q W ",
"F.9.F.Z.K S._.].'.].].oX-X=X.XoX=X%X`.>XrXtX5X4XrX;X3XuXuXuXfX0XuXuXuXuXaXdXdXxXsXxXaXrXrXaXxXcX>X#.G N S K 5.~.l r g f 6 W W 5 ",
"U.U.J.2.G 5._.]._._.`.'.=XoX]. X`.].].aXtXxX3X5XrXOX2XtXaXaXfXuXuXfXuXaXaXdXdXdXdXdXdXaXsXdXdXxXsXR.G S L B A.U.s t t r f 7 y d ",
"U.U.~.5.L A././././._.'.oX]. X]. XOX+XyX:X2X+XyX4X;X3XaXaXaXtX9X<X0XuXuXaXaXdXcXdXdXdXdXgXxXsXdXxX2XY Z L A G.R.m t a j j j p d ",
"F.9.1.m l #./.'././._.].oXoX]..X X X_.[.Y.r.Y.).oXoX;X<X1XfX1X&X1X1X<X<XuXaXdXdXdXcXdXdXdXaXsXdXsXaXK.Z D F K.(.m t p r j w e e ",
"5.O.I B B +././.^.^.^.'.'.].)._.).%X#Xz.l.z.r.e.U.Y.%X*X$X$X$X$X&X1X<XuX5XaXdXcXpXdXdXdXdXsX<X<X1X1XI.B S S 5.~.* - @ O O + @ % ",
"B x G V J &.E.)././.^./.`._.^.).}.T.z.f.f.f.p.q.e.#X$Xz.l.c.a.p.&X&X<XuXrXaXdXdXxXsXdXcXpX>X%XT.T.T.w.G B M Z.J.O           . X ",
"I P O.+.' @.).E./.).).6X:X/.^.^.Q.j.i.i.d.h.a.d.z.l.l.k.k.s.a.s.j.#X*X1XuXuXdXdXpX<XfXiXaX,Xj.v.f.f.s.{ m F 3.5.o               ",
"-X9X-X{.t.w._././.).E.). XR.~.!.T.j.d.i.d.d.l.z.z.$Xz.x.c.s.q.e.r.e.e.&X5XuXuX4X&X*X&X&X1X*Xp.$Xl.f.f.t.m b 1.3.o               ",
"-X9X-X9Xw.S./.|.E.^.E.U./.L.J.J.r.h.l.l.f.x.k.p.e.g.*.#Xj.e.r.#X%X%X%X>XuXaX4X,Xk.c.x.z.$Xz.s.l.l.d.i.g.X.N R L                 ",
"Y.9.K.K.O.+.H.H.I.U.E.R.^.R.U.Y.z.l.l.l.d.f.g.| @.w.w.*X%X%X%X,X<X4X4X4XuX4X<X&Xz.a.c.k.k.z.d.d.s.<.<.q.@.m R s                 ",
"P N T 4.T K H.H.A.G.H.U.U.I.F.T.f.f.a.i.d.s. .| &.Y.P.[.%X6X6X3X>X>X>X3X>X<X1X*Xj.q.a.a.s.p.q.p.a.i.i.s.r.C Y s             .   ",
"A.A.J.~.T S 3.2.3.3.7.S.S.7.8.w.d.a.s.p.q.} ) @.Y.`.T.P.E.`.6X;X>X3X>X>X;X>X1X#Xq.q.*.q.p.| ..*.s.p.q.s.e.` L t           + O + ",
" X X{.'.S A T %.$.$.3.Z.$.%.+.8.q.q. .=.{ / ` 2.).;X).Y.`.`.`.`.oX:X>X;X6X>X&X#Xt.r.e.e.e.{ ) _  .i.q. .t.X.P q         o O # O ",
"!.{.{._.N A T T #.T T 3.R T K +.{ / ) ) ( ` T :.S. XQ.Q.`.`.`.`.,X%X%X=X,X%X*Xg.T.T.w.&.+.[ c k _ ..| | | [ U >         X O - O ",
"P S.A.$.m N P T R L R T $.T P L G B U H L Y R C._.OX].'..X.X6X`..X X.X).`.6XT.T.E.Q.9.8.8.I B x / ) ' { / V +.&         . . . . ",
"l m u m a i P R R P T T $.T E L U U P H Y Y R L.xXsX;X.X.X.X`..X.X`..X_.`.6X_.[.`.).T.P.F.+.x B j j 7 7 / c X.&           . X X ",
"K B m a p l T P E R P R T R P E G K D H L Y Y  XsX3X;X;X;X>X.X:X.X.X.X.X.X6X`.`.]._.).`.^.I z M s m b j v g c % . . . X X o X X ",
"~.5.1.G N P #.G L L L L Y L D D S H D L H H L 2XvXaX5X3X>X2X=X>X.X=X;X.X;X;X.X.X X`.`.].E.H z z M a u j ( p M % . . X . .       ",
"5.5.5.K w i z S S S N D F S Z Z M F D D H H #.tXxXxXcXnXxXaX3X>X;X:X3X2X2X>X:X>X:XoX=X;XR.Z M F a a m f g t d % X X o X         ",
"K K N N 0 1 a z m M M A A Z Z Z Z Z M F S H U ^.2X5XsXxXsXaXxXaX5XaXaXaXaXaXaXtXaX5XuXxXR.s M R B u i f j x p # o + O O % * t p ",
"w b i 0 1 1 M M m M N F A A Z Z F Z M A Z A H #.3.Z. X2XxXxXxXxXaXsXaXaXaXuXaXaXaXfXuXsXH.s Z R E i i v o.i m U T $.K.J.'.XXoXOX",
"t d i 1 1 2 z M N A N D D F Z Z Z Z Z F Z G A.J.P N 3.4.I. X;X5XaXaX5X3XuXaXuXuXaXuX;X:XZ.b F :.4.M t g v 0 I oX'.(.(._.(.}.).).",
"L N i 2 2 2 a B F Z S D S S F A A A Z Z A G OXOXR.7.U m 1.z z $.U._.OXOX;XOX6X).A.P V S B N K.oX}.E B 3 f 8 Y I.7.0.O.~.9.Z.F.S.",
"P I G B N m K I L S S G H H H S N N z M N T .X;X X.X_.4.1.> @ # % * q d z t t q 0 r i M N G }.-X{.'.tXJ.I.4.3.9.Z.C.9.~.6.2.L 0.",
"%.1.O.1.1.I 2.A.O.K G G S H S S M M A M z 4.OX.X.X_.].^.E.A.#.p * % - - O o O % # 0 I $.A.H.{.{.6XeXkXB.M.M.zX{.y.y.-XxXS.+.m x ",
"O.I G G U K I 1.%.P O.O.P P G G G M M m S _.2X`..X.X X^.E._..X X^.S.G w 9 2 x G S.S.E.R./.'.{.}.b.b.r.,.,.>.>.>.>.>.,.V.u.U N q ",
"5.1.O.#.O.K +.O.+.O.7.7.%.#.I I K B S S U OX:X]. X].`.)._.'._.E.[.].]._._.^.'.].'._.U.E.'.!.{.}.u.u.y.>.>.>.,.V.V.B.7XM.M.E.6.7.",
"F.F.F.F.%.K P +.2.O.O.2.7.S.2.P K G G B P .X'.)..X X'.].E.^._. X^.^./._./.U.^.^.^.!.^.U.J.9.{.eXhXpXqXV.,.>.B.lX7X8XM.oX@XoXJ.XX",
"J.I.U.U.4.U O.#.O.O.2.O.+.O.2.6.#.P G G %.OXE.F.I.`.'.'. X/.R./.'. X/.H.S.7.F.S.H.S.F.P.J.(.U.'.+X4XfXkX8Xm.V.N.zX0.C 4 2 z l l ",
"H.J.J.U.7.O.O.#.4.%.1.1.#.2.%.2.1.3.3.#.Z..X(.^. X'.'. X_.'.'.U._.'.].E.^.).].]./.oX'. X XW.%.m P D.R.|.-XkXeXgXiXXX(.A.0.F p 2 "
};
