/* XPM */
static char *waka18_jpg[] = {
/* columns rows colors chars-per-pixel */
"64 64 255 2 ",
"   c #010202",
".  c #05090B",
"X  c #0B0C0D",
"o  c #080304",
"O  c #181716",
"+  c #110B0D",
"@  c #182319",
"#  c #32271C",
"$  c #2B2623",
"%  c #342A24",
"&  c #3A332B",
"*  c #333128",
"=  c #3B3834",
"-  c #281E20",
";  c #4A3628",
":  c #423E3A",
">  c #483B33",
",  c #4A3128",
"<  c #5E3123",
"1  c #43423D",
"2  c #4A453D",
"3  c #594A3E",
"4  c #6B463A",
"5  c #734B3D",
"6  c #583F46",
"7  c #464441",
"8  c #494542",
"9  c #4C4A45",
"0  c #4C4C49",
"q  c #534D45",
"w  c #564C46",
"e  c #55524C",
"r  c #5A544C",
"t  c #5B5B4E",
"y  c #575345",
"u  c #5A5652",
"i  c #5D5A53",
"p  c #585955",
"a  c #4F565E",
"s  c #684B44",
"d  c #774842",
"f  c #67574B",
"g  c #795848",
"h  c #625D54",
"j  c #635E59",
"k  c #695B55",
"l  c #775B54",
"z  c #5D6456",
"x  c #646155",
"c  c #6B6254",
"v  c #66625C",
"b  c #6B645C",
"n  c #6C695E",
"m  c #67695E",
"M  c #72645B",
"N  c #78675A",
"B  c #7E6B4C",
"V  c #666562",
"C  c #6B6662",
"Z  c #6D6A63",
"A  c #6A6B67",
"S  c #736D64",
"D  c #736E69",
"F  c #796C65",
"G  c #757166",
"H  c #7A7266",
"J  c #75726A",
"K  c #7A756C",
"L  c #7D796E",
"P  c #757172",
"I  c #7B7671",
"U  c #7E7972",
"Y  c #797877",
"T  c #6C6C72",
"R  c #646167",
"E  c #8C3838",
"W  c #AF3438",
"Q  c #B81B2E",
"!  c #80503C",
"~  c #C43D44",
"^  c #89594B",
"/  c #855C53",
"(  c #904343",
")  c #896659",
"_  c #996854",
"`  c #916B55",
"'  c #A26957",
"]  c #AA745C",
"[  c #A87557",
"{  c #B6785B",
"}  c #AD6E4C",
"|  c #8C6863",
" . c #946D68",
".. c #80766C",
"X. c #817A6E",
"o. c #887769",
"O. c #987768",
"+. c #827C74",
"@. c #897E74",
"#. c #837E79",
"$. c #867874",
"%. c #A87865",
"&. c #B87B64",
"*. c #A64743",
"=. c #C57A65",
"-. c #C47D5F",
";. c #7C8029",
":. c #79827D",
">. c #D0D911",
",. c #CDD030",
"<. c #E0D637",
"1. c #B7855C",
"2. c #858176",
"3. c #8A8276",
"4. c #86827A",
"5. c #8B847B",
"6. c #8D897C",
"7. c #928A7E",
"8. c #95867A",
"9. c #968D79",
"0. c #A98668",
"q. c #BA8567",
"w. c #A58978",
"e. c #B88A75",
"r. c #BB947B",
"t. c #A8926E",
"y. c #B0AB67",
"u. c #C78A5C",
"i. c #C48B6C",
"p. c #CC8C6C",
"a. c #C78865",
"s. c #D78C69",
"d. c #CA936A",
"f. c #D5926B",
"g. c #C88B74",
"h. c #D68D74",
"j. c #CA937C",
"k. c #C99677",
"l. c #D49574",
"z. c #D49C75",
"x. c #D89878",
"c. c #CFA97C",
"v. c #E19A70",
"b. c #D0D451",
"n. c #DCE170",
"m. c #D8D566",
"M. c #7B7F80",
"N. c #897E82",
"B. c #8E8B82",
"V. c #8C8883",
"C. c #948C83",
"Z. c #998E83",
"A. c #928B86",
"S. c #959185",
"D. c #9B9286",
"F. c #96928A",
"G. c #9C948B",
"H. c #9E9A8D",
"J. c #9E9A91",
"K. c #9A9792",
"L. c #A39384",
"P. c #A3968B",
"I. c #A39A8D",
"U. c #AB9B8C",
"Y. c #A89889",
"T. c #BA9B88",
"R. c #A49C93",
"E. c #AB9D93",
"W. c #A59995",
"Q. c #B79D92",
"!. c #A18F81",
"~. c #BBA68C",
"^. c #A7A195",
"/. c #ABA295",
"(. c #ADA59A",
"). c #AEA99E",
"_. c #A9A498",
"`. c #B1A69B",
"'. c #B4AA9D",
"]. c #BAAC9D",
"[. c #B7A596",
"{. c #B7B19C",
"}. c #B1AD8B",
"|. c #ACA8A3",
" X c #B4ACA2",
".X c #BBAEA2",
"XX c #B9ABA4",
"oX c #B5B1A5",
"OX c #BCB2A3",
"+X c #BCB4A9",
"@X c #BAB7AB",
"#X c #BEBCB4",
"$X c #9E9FA4",
"%X c #C79984",
"&X c #D19B81",
"*X c #CAA388",
"=X c #C5A998",
"-X c #D5A994",
";X c #D4AD93",
":X c #C4AEA4",
">X c #C3B4A5",
",X c #C4B6AA",
"<X c #C4BAAC",
"1X c #CBBBAC",
"2X c #C9B7A6",
"3X c #D6B8A7",
"4X c #C5BDB2",
"5X c #CBBEB2",
"6X c #D1BDB1",
"7X c #D0ABA2",
"8X c #E0BDAA",
"9X c #CCCB8B",
"0X c #E1D58E",
"qX c #EBE299",
"wX c #CBC5AB",
"eX c #D4C4AD",
"rX c #D5CCAD",
"tX c #CCC2B3",
"yX c #CCC4BA",
"uX c #C8C5B6",
"iX c #D2C4B4",
"pX c #D5CAB3",
"aX c #DACCB4",
"sX c #D4C5BA",
"dX c #DAC6BC",
"fX c #D5CABB",
"gX c #DACCBC",
"hX c #DDD2BC",
"jX c #DDD1B7",
"kX c #D2D3AA",
"lX c #E1D4BC",
"zX c #E0D2B7",
"xX c #E3CFAF",
"cX c #EEE9A7",
"vX c #D5CCC2",
"bX c #DCCDC1",
"nX c #D6C7C2",
"mX c #DDD2C4",
"MX c #DCD5CB",
"NX c #DAD5C9",
"BX c #D5D2C9",
"VX c #E1D3C4",
"CX c #E2D9CD",
"ZX c #E3D7C7",
"AX c #E3DDD3",
"SX c #E7DED7",
"DX c #E3CCC6",
"FX c #E5E1D6",
"GX c #E5E3DB",
"HX c #E9E3DA",
"JX c #E6E6E2",
"KX c #EAE9E5",
"LX c #EBEBEA",
"PX c #E9E7E2",
"IX c #ECEBF0",
/* pixels */
"S.|.@X@X@XG.J J L X.3.9.L.C.G.7.8.7.3.2.U J C x P e e 0 1 7 1 7 u J D Z I J I +.#.U +.Y $.U U Y I U +.+.+.2.C.4X2.S | S b b b h ",
"oX@XoX).F.4.4.F.F.^.|.<X5X,X1X1X<X.XI.S.S.5.K F J v v i 9 9 1 1 u U U J I I +.+.#.U #.U U U $.U L U U U X.2.S.tX2.S | M b b v j ",
"@X^.B.4.U 2.B.A.B.K.R.'..X1XpXeX5X:XE.G.7.3.3.6.C.C.C.5.+...S h D #.#.I I I +.2.#.#.U #.U U #.U L U U U +.+.A.yX2.S | M b C v j ",
"A.I G G Z G K G I 2.4.C.P.>X1X5X1X:XZ.5.+.X.C.H.Z.I.W./.`./.^.P.F.V.$.U U I 2.U #.U #.#.U U U U I I I #.+.+.A.uX2.M | b b v b h ",
"G.F.G.G.C.2.+.+...F S K $.C.C.5.C.Z.C.5.5.4.A.F.E.'.`.`./.Y.U.I.J.B.U U U U U 2.#.+.#.U U U U U L L I U 2.+.C.uX+.M | c b b j h ",
"F.R.E.(. X XXX+X,X,XXXA.b r 9 8 y h b v v n K V.C.H.G.I.I.L.P.P.6.4.2.U I 2.#.U #.U U #.U U U I J L I U U +.C.uX#.b | b b b v h ",
"R.(. XoX+X<X5XtXvX|.$.e 8 e i u h p v V A J C S +.+.5.C.G.I.I.Y.4.4.2.I U U U #.#.#.#.#.U Y U I L I K I L X.C.4X2.b  .b b v j h ",
").).oX+X<X5X4X.X$.r 7 9 i j j V C i C D U 4.$.5.V.V.G.G.H._.'. XS.6.2.U U U U 4.#.#.U #.U $.U I L U J I L +.C.<X4.M  .b b j v x ",
"(. XOX+X4X XU 0 7 0 e h C F F K L L +.B.C.V.F.K.J./.(.oXOX<X<X<XoXG.D.U Y U $.2.U #.I $.#.J J I H K L K L +.A.4X4.c  .C b v v h ",
"oXoX4X/.L 9 : 0 e j b Z J @.G.`.yX XF.C.A.H.R.).OXOX@X<XwXwXwXwX<XS.J.$.#.I 4.$.4.#.$.I I #.I I H L J J K I C.4X3.b  .n b v b h ",
"OX).D.w & : u i h S L 5.R.<XMXHXBX XF.F._. X+X4XwXuXtXyXfXfXfXBXfXS.R.4.I I +.+.+.$.U U J U I I J L K K K L 6.4X5.b O.M b j v h ",
"i 1 : : 9 e e V +.Z. XfXHXHXfX+X_.G.R.oXuX4XuXvXvXNXMXCXAXFXFXGXMX^.|.V.I +.U U U Y U #.I $.J I H K K K U +.6.<X5.M  .C j v b h ",
"= & : 8 9 9 u F.<XNXHXCX4X/.G.G.H.).@XuXnXBXMXCXGXJXKXKXLXLXLXLXAXoX4X$.Z j S J I 2.I I $.U I I J K I U U +.7.<X3.M  .b b b b j ",
"= : : 8 1 7 i |.mXyX'.S.5.C.G.^. X#XyXBXMXGXKXLXLXLXLXLXIXLXLXLXGX|.F.y & $ % & e D U I U U U I L I J I U U 6.4X@.j  .c j b v b ",
"1 8 = 7 7 9 q C U X.+.3.S.R._. XuXyXNXGXLXLXLXLXLXLXLXLXLXKXLXLXNXI 2 & $ & $ - $ 8 X.$.U I I U K I I I U U A.5XV.k  .b b v v v ",
"0 9 0 0 0 e r t n K V.S.W.R. X4XNXGXLXLXLXLXIXLXJXJXPXPXGXGXGXAX).2 * & % # % # % % S I I I J I J I U U U I V.5X6.k | c k j v h ",
"j u u e u j v Z V.V.K.^.|.oX5XdXNXZXAXFXFXFXHXHXAXAXAXAXGXJXGXGX..1 ; > * # * , 4 2 y X.o.K J Y J L J U L K 5.uX@.c ) M j h c j ",
"S b C C D U 5.K.W._.|. X4XiXtXiXfXgXmXMXMXCXAXAXAXAXFXAXFXGXFXNXF > g / B g ) [ p.0.t K P K J ..J J J I L L 5.4X5.c | k j j v j ",
"C k b X.A.R.R.).'..XOX@X5XiXtXsXiXfXgXNXmXMXMXFXAXGXGXFXAXFXAXNX8.f j.h.h.i.a.f.f.a./ X.I Y K F K K J U U L 4.4X@.c ) b h x x h ",
"M ..Z.E._.).'..X>X1XtXtXtXtXpXfXfXmXNXCXAXFXFXFXGXJXJXGXGXGXGXGX Xg e.x.x.x.x.s.i.i.%.O.H D P P J J J J K K 6.4X@.k ) b j h i i ",
"P./. X+X`.+X1X1X1XtXyXfXvXmXmXCXGXFXGXJXKXKXKXKXKXLXLXKXPXKXKXLXMXB %.&X&Xk.g.a.^ _ &.%.o.G J P J J J I J L 5.<X+.c | b j i h t ",
".XXXR.A.K G.tXfXMXCXAXSXKXKXPXKXKXKXKXKXKXKXLXLXKXKXPXPXPXKXKXKXZX%.%.g.] ^ &.i.[ ] g.O.K J J D G K J I K K 3.OX+.k | b i i t i ",
"$.S i r y G.VXZXZXCXCXAXSXAXCXAXCXAXAXFXFXFXGXGXFXFXFXFXFXFXHXFX3Xe.g.k.&._ a.x.p.g.k.) D P J N G G G J L K +.oX+.f ) b i t t i ",
"e e e p q 7.aXaXaXjXpXpXjXhXhXlXlXlXmXCXCXCXCXCXZXZXmXZXZXMXZXCXjXk.q.l.x.g.l.z.p.x.i.B K P J K G G A J K F +. X2.c ) b h i h h ",
"9 r i V e 4.sXiXaXaXdXaXaXaXlXzXhXhXhXhXlXVXlXVXVXhXhXlXlXmXVXVXZX=X%.h.x.x.f.i.{ g.%.w Z J S S J D S J K K 2.oXX.c l l i h h i ",
"8 2 8 e e +.yXiXeXpXpXpXaXaXaXaXjXhXhXhXVXhXhXhXhXhXhXlXlXlXhXhXaXL.8.` g.j.h.[ } { ^ ; S J S K J D J K K K +.oX+.i M l l f h p ",
"A.G u u u U 5XrXpXpXpXpXpXaXpXpXjXhXlXlXlXlXhXzXzXhXhXjXhXjXhXhXzXU.I.w g g.&.{ } ] 5 , S J S J G J G K K H 2.oX+.t z x l r t h ",
"_.+.v x v 4.gXlXgXaXpXpXpXpXpXaXrXkXjXhXjXhXjXjXhXjXaXrXpXaXaXhXrXU.`.f ; g q.=.' ` 2 # M S C J D D G F J H +. XX.h n h f t i f ",
"A.Y Z Z J 6.uXaXlXzXpXrXpXpXpXpXrXpXpXpXpXpXaXaXaXrXaXpXaXaXpXpX#X<XdX@., ; 5 ^ 5 ; # * h S m Z A D S J G F +. XI j k k 4 s i t ",
":.Z S P U S.hXjXlXgXaXpXpXrXpXpXpXaXjXhXhXhXjXgXhXjXdXaXiXtX1X1X$X#XnX4X3 % > , # # & h K G m S S D S K K G X. XI p j l 5 d s t ",
"+.J L V.F.H.yXpXgXaXaXpXpXeXaXdXaXgXlXmXhXhXhXhXgXaXiX6X1X<X,X,X|.@XbXfXY.w , , # < 4 Z.G.J S D Z S Z K H S L  XI r f ^ E W *.g ",
"U U F.+X#X@XhXrXrXeXeXeXeXeXpXiXsXgXmXhXfXtXwXeXrXiX6X6X5X5X1X,X#X4X3X3X>Xw.) 5 / _ ) ].).K D C Z Z S S F S L ).K w 4 5 4 W ~ *.",
"L J L C.6.7.@X<X1X2X>X1X1X1X<X2X>X1X1X1X1X1X>XiXeXiXyXsX5X1X5XwX5X-Xz.s.k.<X7X&.{ &.L.:X+X(.G.N.K S G Z Z Z J }.K w s s 4 W W W ",
"m x x G S H [.OX:X{.>X>X1X>X2X2XOX>X{.OX>XOX>XtXiXiX1X6XiX6X5X3X;X&Xr.j.z.r.;XeX%X:X6XsXuX,X1X1X+XG.+.Z D C G /.H w s s E Q Q E ",
"@.3.3.9.+.$. X].].].].{.>X>X{.>X{.>X].OXOXoX5XsX6XnXeXpXaX6X3X-Xz.h.g.3XeX*Xx.;XiXaXnXbXsXiXaXiXbXuX(.G Z S J }.H y d s ( E E d ",
"U.Y.H.3.K J /.'.'.`.`.'.>X{.].].].{.{.{.OX<XvXnX6XsX6XuXiX=X&Xs.x.h.a.].<X-Xx.l.z.&X7XdXbXnXbXnXsXmXpX6.Z Z L _.K y j 4 s 3 y r ",
"U.}._.S.2.U (.'.(.(.`.].OX{.].].'.[.].`.OXsXvX6XaXsXuX1X8X&Xf.a.u.a.Q.>X2X-Xg.d.x.h.&XeXdXyXsXgXgXgXgX`.D S J ).G r t k y l y t ",
"H.9.9.L Z S R.].(._._.'.OXOX].].].].].].,XbXdXsXiX5X2X-X&Xp.[ _ [ e.=XwX2X3Xj.a.p.{ q.*XeXhXfXgXDXgXVXyX@.b G ).L t u z f h s k ",
"9.6.2.n k N I.].(.(.(.'.]..X].].].].'.oXyXmXdXsXiX=X-Xx.p.{ _ ` ' &.%X=X2X<Xj.{ ] } &.j.;XaXdXdXdXgXZXmXZ.Z F '.v $ $ @ $ @ @ - ",
"G n H N F F P.}.(.`.(.(.].'.'.]./.(./.@XvXbXdXiX-Xx.p.a.&._ ' &.%.=.=.q.%X%Xx.l.z.l.s.s.&X6XbXnXgXgXlXmXR.b S (.0 o     o o   X ",
"c c S N N ) U._.(.`.`.].+XXXE./.|._.~.*X~.OX7X*Xl.a.&.%.w.Y.Y.Y.w.8.%.a.h.p.g.p.x.q.q.d.p.j.3XfXdXBXvXVX'.b A /.: o             ",
"].}.(./.w.O.U.'.).`.`.`.XX XR./.U.r.z.z.k.r.x.x.f.&.%.w.=X:X`.E.Q.P.w.e.%Xr.~.%Xe.e.0.} { i.&X3X1XOX{.=X[.P I Y.= o             ",
"wXwXtXeX~.8.E.`._./././.(._.I.I.r.k.d.u.k.x.l.u.a.q.%.[.XX'.`.'.XX XE.Q.Q.[.].].[.=XT.t.q.a.g.z.r.r.k.g.r.) M 9.$               ",
"`.`.^./.L...G.I.I.I.U.W.R.E.P.Y.k.k.f.z.z.l.p.i.&.%.O.U.E.W.Q.|.:X:X.X:X:X]..X,X2X.X=X=Xr.i.f.a.p.f.s.f.d.t.c 6.@     o         ",
"6.H n 6.7.S 5.S.S.D.G.I.W.R.Y.U.z.z.z.f.f.a.q.q.] O.o.L.W.Q.].OX5X1XtXiX1X.X:X:X2X.XXX[.T.i.i.p.g.d.1.a.a.g.N :.O         o     ",
"2.2.2.R.C.A :.B.B.C.C.S.S.Z.7.L.z.z.z.d.s.d.1.[ %.w.8.L.U.'.1X5XtXiXfXiX1X2X>X>X6X1X>XQ.L.q.q.i.p.d.u.d.u.p.O.:.O         X . X ",
").).oXOXV.b L 3.4.4.3.4.6.3.o.w.z.s.p.f.u.{ ] %.9.L.!.Y.].<X5XiXtXdXbXsXtX5X5X5XiX1X>X[.w.%.&.&.s.u.u.u.d.u.t.K X         O O O ",
"_./.{.OX5.j J 3.+.U U U 5.+.o.9.z.d.g.q.{ { %.O.+.A.Q.[.,X5X5XfXbXbXDXdXsXsXiXsXgX5X,X'.w._ ] &.1.1.1.1.a.a.r.J X         O O $ ",
"I.I._.R.G h G U U I H 2.2.U X.w.f.q.1.[ [ ' O.$.+.P.`.1X6XsXgXbXbXbXsXiXgXdXdXbXvXtX].[.t.o.O.%.] 1.{ { 1.d.1.N o o       . . X ",
"x c m x x h Z L Y L L U 2.U o.o.&.] _ ^ ` o.K Y U..X1XsXgXbXDXbXVXfXiXsXfXgXbXVXmX1X:X].U.X.) | ` ' ' %.{ u.0.f o           o o ",
"n x h y t w n $.J U U L Y #.K ..O.%.) N F J J V.>X5XsXgXbXgXmXmXbXsXsXfXgXbXVXVXdX2X1XXXI.5.S l N ` ^ _ ' { %.f   . . . . X X + ",
"S.6.X.L b S I J J I L Y U I D N b F F Z P J J _.bXdXaXVXbXbXbXmXiXsXgXVXbXbXVXbX1X1X1XXXR.S.S j f M / ^ _ _ N e X X . . .   .   ",
"H.H.B.2.v x C S Z Z A D D A Z C V A A T T C I ,XVXbXdXgXVXVXgXfXsXgXVXZXVXZXVXsX5XsX6X>X/.4.c j h i k g ^ l t 1 . . . X .       ",
"2.:.L S u & 2 Z b v V V C V V V V V V V A A @.5XnXmXCXVXVXDXgXsXbXbXZXbXbXbXbXsXuXsXsX1X.XG h S J v y f 5 y p = . . . . X O $ & ",
"3 t z e e 2 e j v v V C Z b C V V C V C A v J S.(.>XbXMXbXbXdXfXVXVXDXfXgXfXsXtXyXsXsX5XR.V a P L v e y l s p h e z G U B.I.).{.",
"2 y r e 1 1 e v v V V Z b Z C V v A A j Z K V.F.S K W.<XgXbXgXVXDXbXgXsXfXiX5XiXsXsX6X,X4.R a T 2.n p y N f i E.`.`.(.(.].>X{.[.",
"v b t 2 1 2 e b v n Z C b Z Z C C b V C v G.4XXX$.J 3.I S.,XnXVXmXsXiXiXsXiXdXbXfX5XtX<XG h $.S.}.o.Z 9 4 3 t J.^.S.4.R.H.G.9.G.",
"n L n x f t h S A C Z S D S Z C C v v V Z  X5X>X XW.+.u U @...U.OX<XtXtX6XiXsXiXfXiX5X+XS u 6.uXtXS.OXt.Z.o.G 4.6.X.I F.G.X.o.#.",
"S 4.L X.2.L X.7.4.K Z S J S G Z C v v v J <X<X.XXX+X).F.4.e $ & y M C.R._. X'.).!.E.P.A.X.U I.{.OX{.HXxX9Xm.c.{.Y.}.{.<X@X7.Y c ",
"G L G G H G H 5.6.X.H K K H G S Z b C b 5.uX+X X.X'. XXXE.5.j = O - * : 8 7 : = & w w K.XXyXwXkXc.c.c.m.,.>.<.b.>.,.,.m.}.B k h ",
"3.3.X.X.H F H ..K +.6.C.@.$.K K S Z b b K.5X<X.X]..X]././.).|.W.Y u % O + + O O # j ..Z.}.{.kX}.y.t.0.>.>.>.b.b.b.n.0Xn.b.9X6.+.",
"G.S.C.D.5...L ..3.$.$.3.C.Z.6...K K Z b (.4X1X.XXX>X].`./.(.`.`.+X|.G.K h r n +.C.P.G.E.`.{.kXkXwXwXuXb.,.>.m.qXcXqXb.n.kX@X9.9.",
"H.I.P.R.S.X.H ..X.X.@.$.....@.6.+.+.H F `.5XXXE.`.'.`.]./.`./.(.R./.'. X(./.`.oX XR.E.P.E.7.9.{.uXwXuXkX0X<.<.b.9Xy.B y t c T C ",
"Z.Y.I.^.S.2.H 2.3.$.+.3.@.X.$.@.2.3.+...|.5XE.C.P.(.`.'.].'.I.`.`.^.P.G.Z.S.I./.E.P.Z.L.P.W.c c 3.^.$X#XuXaXqXkXkX#XS.$.T e 8 * "
};
