/* XPM */
static char *waka1_jpg[] = {
/* columns rows colors chars-per-pixel */
"64 64 256 2 ",
"   c #020203",
".  c #030509",
"X  c #0A0A0A",
"o  c #160D0A",
"O  c #191815",
"+  c #0D0F10",
"@  c #1E201D",
"#  c #32251E",
"$  c #3A2A23",
"%  c #3D3934",
"&  c #2F2A24",
"*  c #2B1E18",
"=  c #483428",
"-  c #423C37",
";  c #543C31",
":  c #56382A",
">  c #43301F",
",  c #45413D",
"<  c #4A443C",
"1  c #594337",
"2  c #6A4A3B",
"3  c #774C3F",
"4  c #696F33",
"5  c #4A4541",
"6  c #4C4945",
"7  c #4A4745",
"8  c #524D49",
"9  c #524A42",
"0  c #55514C",
"q  c #5B544D",
"w  c #5A574C",
"e  c #5B5652",
"r  c #5D5B54",
"t  c #5C5B58",
"y  c #524E54",
"u  c #674D46",
"i  c #754A45",
"p  c #66554B",
"a  c #765648",
"s  c #635C55",
"d  c #635E5A",
"f  c #695A55",
"g  c #755C55",
"h  c #784E50",
"j  c #5C6355",
"k  c #646156",
"l  c #64635B",
"z  c #6B645C",
"x  c #6C695D",
"c  c #686456",
"v  c #76665A",
"b  c #726750",
"n  c #5F5660",
"m  c #656361",
"M  c #6B6661",
"N  c #6D6A63",
"B  c #6C6D69",
"V  c #726C64",
"C  c #7C6C63",
"Z  c #746E69",
"A  c #746764",
"S  c #757166",
"D  c #7A7265",
"F  c #76726B",
"G  c #7A756C",
"H  c #7D786E",
"J  c #7B7670",
"K  c #7E7973",
"L  c #767673",
"P  c #6E7168",
"I  c #616661",
"U  c #8B3936",
"Y  c #A73336",
"T  c #B5303A",
"R  c #C83641",
"E  c #8A504B",
"W  c #88624D",
"Q  c #8D6A5B",
"!  c #886656",
"~  c #94695A",
"^  c #967256",
"/  c #A7775C",
"(  c #B17458",
")  c #896964",
"_  c #956A66",
"`  c #85776A",
"'  c #987764",
"]  c #827C75",
"[  c #8A7D73",
"{  c #837E79",
"}  c #897F78",
"|  c #977D74",
" . c #A87B68",
".. c #B67A63",
"X. c #B56C64",
"o. c #BD4245",
"O. c #C07F61",
"+. c #7F8078",
"@. c #BBD00F",
"#. c #CAD60D",
"$. c #CAD129",
"%. c #D0DF2E",
"&. c #B6855C",
"*. c #858075",
"=. c #8A8275",
"-. c #85817B",
";. c #8B847B",
":. c #8D897E",
">. c #938B7E",
",. c #968778",
"<. c #9B927D",
"1. c #9E8566",
"2. c #A88269",
"3. c #BB8265",
"4. c #B98769",
"5. c #A98A77",
"6. c #B48B73",
"7. c #B68976",
"8. c #B79578",
"9. c #B8B368",
"0. c #B0AF5D",
"q. c #C7875A",
"w. c #CD8B57",
"e. c #CE8B64",
"r. c #CB8C6C",
"t. c #C68869",
"y. c #D58B6A",
"u. c #CA936B",
"i. c #D4936C",
"p. c #D89668",
"a. c #C98B74",
"s. c #D58E75",
"d. c #CB9474",
"f. c #CA9578",
"g. c #D59373",
"h. c #DD9B74",
"j. c #D89778",
"k. c #E59C7A",
"l. c #E3986A",
"z. c #DDA377",
"x. c #CBA971",
"c. c #E3A27C",
"v. c #E7A279",
"b. c #EFA471",
"n. c #C4A258",
"m. c #B9C273",
"M. c #CEDB4D",
"N. c #D2D36F",
"B. c #E7DA66",
"V. c #DEDE68",
"C. c #8E8A82",
"Z. c #8B8683",
"A. c #938C83",
"S. c #988B85",
"D. c #959186",
"F. c #9B9285",
"G. c #96938A",
"H. c #9C958B",
"J. c #9D998D",
"K. c #9D9A92",
"L. c #999692",
"P. c #8D9180",
"I. c #A3958B",
"U. c #A29A8D",
"Y. c #A89787",
"T. c #B79988",
"R. c #A39C92",
"E. c #A99D93",
"W. c #B49E92",
"Q. c #A28F83",
"!. c #ABA295",
"~. c #A6A29B",
"^. c #ACA59A",
"/. c #ADA89D",
"(. c #A7A394",
"). c #B2A69B",
"_. c #B4AB9D",
"`. c #B5A998",
"'. c #BAB39A",
"]. c #ACA38C",
"[. c #ACA8A3",
"{. c #B4ACA2",
"}. c #B9ADA3",
"|. c #B4A6A3",
" X c #B6B0A5",
".X c #BCB2A4",
"XX c #BCB5AA",
"oX c #BBB8AA",
"OX c #BBB8B2",
"+X c #999DA0",
"@X c #C89A83",
"#X c #D79F86",
"$X c #CAA588",
"%X c #DBA182",
"&X c #D5AA93",
"*X c #C8AF95",
"=X c #E3A382",
"-X c #EAA885",
";X c #F1A281",
":X c #C2B6A5",
">X c #C2B6AB",
",X c #C4B9AB",
"<X c #CABCAD",
"1X c #C3B8A7",
"2X c #D3BBAA",
"3X c #C4BCB2",
"4X c #CBBEB3",
"5X c #C2BCB8",
"6X c #DBBDB5",
"7X c #E39E81",
"8X c #CAC89A",
"9X c #D8DA9B",
"0X c #E2E390",
"qX c #CBC2AC",
"wX c #D4C6AD",
"eX c #CDC2B4",
"rX c #CDC4BA",
"tX c #C7C5B9",
"yX c #D2C4B6",
"uX c #D5C9B3",
"iX c #DACCB6",
"pX c #D4C6BA",
"aX c #D5CABC",
"sX c #DACBBC",
"dX c #DAC6B8",
"fX c #DDD2BB",
"gX c #D9D4B8",
"hX c #DAD2AD",
"jX c #E1D5BE",
"kX c #E4D7BA",
"lX c #E4CFB2",
"zX c #DFE581",
"xX c #CAC8C2",
"cX c #D5CCC2",
"vX c #DCCEC2",
"bX c #D8CCC8",
"nX c #DDD1C5",
"mX c #DDD5CA",
"MX c #D8D4C8",
"NX c #DFDCD5",
"BX c #E2CEC3",
"VX c #E1D3C4",
"CX c #E3D9C4",
"ZX c #E3D5C9",
"AX c #E3DACC",
"SX c #EAD9CA",
"DX c #E4DDD3",
"FX c #E7DBD3",
"GX c #E5E1D3",
"HX c #E6E3DA",
"JX c #EAE5DC",
"KX c #EAE3D6",
"LX c #EBE9E4",
"PX c #EAEAE7",
"IX c #F1EDE8",
"UX c #E9F1EC",
/* pixels */
"~. XOXOX(.K F J ] ;.A.F.D.G.L.G.>.>.;.] K V k F t 0 0 6 , 7 5 7 F F Z F J J ] ] -.{ ] ] ] ] ] G H H ] -.] ;.4XH.k ) C v N m z l ",
" X X XR.;.-.C.G.R.{.XXeX,XqX<X<X>X^.H.F.C.;.G G F N l e 5 5 , 6 J J G K { { { { { { { { ] ] ] ] H ] ] ] -.=.4XJ.z ) C v N m z z ",
"R.A.Z.-.] ;.A.C.G.R.!.}.1XyX2X2X3X!.F.A.-.;.C.A.>.A.D.C.;.] A x -.-.K { -.{ { { { { { { K ] [ K ] K { ] ] ;.4XU.V ) v z z z M z ",
"-.S B F S Z G D ] } ;.F._.<X2XyX>XE.A.-.] ;.H.J.!.^.)._.}.}.!.E.C.Z.{ ] -.K K { { ] { { K ] ] ] K ] ] { { -.4XR.x ) C f z l z z ",
"G.K.H.G.C.=.[ ] S D D G ;.;.} =.S.A.>.=.=.A.R.!.)._._.!.!.E.Y.Y.D.C.] { { ] { { { { { { ] ] ] ] H K K { { *.3XH.v ) v z M z z z ",
"L.R.!./.{.}.oX3XrXoXJ.L d 6 7 y 0 d M z V A ] A.A.H.U.Y.].E.E.F.:.Z.] { { { { { -.{ { { J ] ] ] H ] ] ] -.[ >XU.z ) C v z l z z ",
"/.{. XXX3X,XrXaX3XZ.t 5 0 e t t d l l M F N Z G *.;.>.D.E.!.!.F.-.Z.{ { { { Z.{ { { ] ] ] ] ] ] H *.K ] ] ] oXR.A ) C z m l d z ",
"{.{. XXX3XrX.X>.e 5 6 y d t z M M l B K Z.] ;.A.G.J.U.(.`._.1X/.C.D.Z.{ { K Z.{ ;.{ ] ] ] ] ] K G K J K [ ] XXU.V _ C z z l m l ",
"_. XXXOXXXZ.e , 7 y e f A C ` [ ] } A.A.A.L.K.~.^.[.oXoX4XeX4XeX~.(.A.{ K { { [ -.{ { ] { K K K J J J K ] ] XXU.B _ ) l c x l z ",
"XX3X X;.y - 5 8 q z Z D [ F.}.eXxXR.A.H.R.E.{.oX3XtXqXeXuXaXiXgX^.U.A.] K Z.] Z.{ { ] K ] K J J G J J K K ] XXR.N _ D l c x l z ",
"{.K.A % % 5 e d v ` =.I.1XMXGXGX3XJ.H.~.{.3XtXrX4XsXaXaXCXnXiXkX_.R.<.] ] { -.K { { ] K ] K K K J J K { ] ] XXR.N _ C l z z m z ",
", % - 7 5 q m Z A._.vXDXKXMXoX(.K.R.XX5X5XcXbXcXFXZXKXGXtXqX1XfX}.XX(.H ] K -.-.{ { { { ] K K K K K K { ] ] XX(.N _ C l v m l z ",
"% 5 5 5 8 8 J OXmXDXAXeX_.U.H.R.{.OXtXbXmXmXFXJXHXIXxXC.j - - p z L.[.L -.] { { { { { { ] K K J J J J ] { ] XXR.z _ C j z l m z ",
"% % 7 7 - 6 Z.tXtX XK.>.D.H.E.}.oXxXMXFXLXLXPXIXUXOXz = < $ $ $ > - L K ] *.{ -.-.-.{ { ] K J J J J J ] { ] XXR.k _ A k z z m z ",
", 7 - 7 8 8 r J K K ] A.R.^.}.3XrXNXLXPXPXPXPXPXcXv a ! W 3 ' ~ W : < L G [ ;.-.{ -.{ ] K K K J J J J { { ] XXE.l _ A k z m m z ",
"7 7 7 7 8 8 e z Z -.G.R.^.}.OXpXDXLXLXPXPXPXUXUXW.Q f.s.y.y.s.j.d.~ ; G ] ] ;.{ { { { K J J J J J J K ] ] { XX^.k Q v k f z d z ",
"e t 0 e s d B J Z.L.~.[.XX3XpXnXMXAXGXKXKXHXHXJXW. .z.h.=Xs.g.t.e. .1 V -.{ { -.] { ] K J J J J J G H K ] K |.E.d _ v s t l d z ",
"r z V Z K { D.R.~.{. X,XeXuXuXuXpXfXnXmXAXNXNXGX{.2.f.4.r.j.r...3. .u v J { { J ] ] K K F F F F F G G { ] K XX[.z Q g d d k d z ",
"x d Z ;.R.R./.XX_.:X1X,XrXpXuXuXaXfXMXAXDXGXGXHXtX1.f.4...s.t.../ 7.~ ) [ } { ] ] K K J J J J J G G G K K ]  X!.x ~ v d l d f l ",
"v *.!.^.[.}..X}.,XqXrXyXaXgXcXnXmXNXGXGXGXHXJXLXCX6.a.a...a.j.a...a... .| ] L ) K K K K F J J K G F G K { K {.!.l Q b d d s s l ",
").^.XX{.{.,X4XeXeXaXcXMXmXmXDXJXJXLXLXPXPXLXPXPX6Xf.j.a.j.j.g.r.s.g.O...| ] ] ] K J J J J F Z F G F J K ] ] {.!.k ~ v d r j f k ",
"{.).H.] D >XaXsXmXAXDXGXJXJXLXIXLXLXLXUXUXPXPXUXlXf.k.j.j.y.t.a.g.g.(  .| ] { L ] J J J J F F F G G F J K G /.R.t ! v d r s d k ",
"Z r 6 w z aXCXSXSXAXSXAXKXAXmXAXAXDXGXGXGXHXHXHXVX6.d.7Xf...( X.r.7.a ) [ ` J Z J J J J J F G J F S F J J Z ^.U.l ! b d r s s k ",
"0 w 0 d e eXuXsXiXiXfXfXjXjXfXCXCXCXCXAXAXAXAXAXmXT...f.a.X.( X...' = s ] ] Z K J J J J J F F S F B F J J Z ^.R.I ! f l k k d j ",
"6 e d m w 1XaXwXiXiXiXsXfXfXjXVXfXjXCXCXCXjXjXCXMXwXW  .t.X.X.X.3.a $ p H L P D F G F D J F F Z F F F L *.H !.R.d j ! h s d j k ",
"9 5 6 0 8 .XuXuXuXuXuXiXiXiXiXiXfXjXjXCXVXVXjXjXmXgX` u ..y.( (  .: # x =.J K D J J F F G L F G H F F G K D ^.R.j g j E l d k l ",
"-.l e r w '.uXwXuXuXuXiXiXiXiXiXfXjXCXCXCXkXVXkXVXnX>.; ~ ../ ^ 1 $ $ ) _.L.P H J J S S F F L B G F F G H F ^.U.l N j g r 8 t f ",
"Z.M d N c  XgXfXfXiXiXiXsXiXiXiXiXfXsXkXfXfXfXfXkXkXW.; > 1 ; > $ $ 1 W T.4XK.D J G Z H S M K P G B F H L S ~.U.f m f i g f d k ",
"Z.S N K V .XiXfXfXgXiXiXiXiXiXiXaXiXfXfXiXiXiXfXiXiX<XC > $ # $ = 2 ^ 3.2.<X3X^.H.G.S.>.K Z B F S B S J G S (.J.d m d 2 i f s k ",
"S M B K D oXaXfXkXsXiXiXiXiXiXiXfXfXjXjXjXnXnXCXbXOXtX/.a 2 : 1 W / 4.3.6.yXoX1XpXxXbX3X3X!.S P F F F J G S R.J.r j g 2 U i p j ",
"J L -.G.G.,XfXgXiXiXuXiXiXiXiXgXfXfXCXfXfXgXuXaXxX+XxXaXT.2./ / ..4.t.&.7.4XtX1XyXpXVXsXnXpXA.V F Z F F S V R.U.j p E U T R E b ",
"J -.[.OXOXrXfXuXwXwXwXwXwXuXwXwXsXfXfXfXiXeX<X,XoX[.OXbXsX@Xu.t.t.t.d.t.*XpX4XpXdXiXdXsXvXbXeXD.Z F P F D N U.K.p i 2 2 Y Y o.E ",
"G F -.C.] !.<X,X1X1X<XqXqX<X<X<X<X<XpXaXpX4X4X3XOXE.5XbXbXdX$X@Xu.p.s.*XyXyXsXcXsXpXvXvXVXvXaXsXG.S B P x C F.K.p u u 2 U T Y E ",
"k k B S f A._.'.:X'.:X1X<X,X1X:X1X<XyXpXyXyX4X4XxXXXtXcXyXdX2X2X&X&X&X2XsXpXBXsXvXaXsXvXvXZXsXBXyX:.N Z D V H.E.w u i i U Y Y E ",
"*.:.:.:.S F.}..X`._.'..X1X:X.X'.,XyXpXsXyXpXyXpXpX4XdXdXpXcXdXvXuXdX6XvXvXvXBXsXnXnXnXvXvXVXdXsXBX4X` D B B F.Y.p p h i 3 i i u ",
"U.!.F.:.N C.^._./.}._.'.:X.X_. XyXsXvXdXpXpXyXpX6XsXcXdXvXcXvXaXMXnXvXBXvXbXvXsXyXvXnXVXsXsXyXsXsXSX>XK B B R.F.t w f u u p w r ",
"Y.!.U.:.G D._.!.!.).).'.:X'.}.3XiXsXdXpXsXyX6XyXrXaXpXdXvXdXsXsXaXMXnXBXvXMXbXsX4XbXvXnXsXyXdXsXnXVXZXU.N Z D.K.j w r f a p q d ",
"F.F.=.x c =./._.!.^./.{..X X1XpXsXpXpXyXdXyXrXpXcXaXpXdXiXsXsXsXiXsXnXnXBXbXMXbXvXnXvXvXvX4X2XsXAXnXpXY.5.v >.R.f w 0 p p 9 0 0 ",
">.*.=.x z [ !.^.!./.)._._.:X4XvXsXpXpXyXyXyXaXsXpXpXdXvXsXsXdXsXsXsXnXfXsXMXvXvXVXVXvXvXsX1X,XsXnXZX`.@Xu.&.8.H.& O + + o X O O ",
"S z D b v [ !.!././.).!.)..XyXvXpXpXpXyX3XpXdXpXpXdXvXsXaXvXsXBXBXMXMXBXBXsXnXBXVXVXvXsXdX).}.yXxX).T.z.p.p.$X;.X     .     X . ",
"v z D v ! ' E.R._./.)._.,XdXvXaXdXvXcXdX5X4XsXdXaXsXsXsXsXsXsXdXvXvXvXBXvXvXZXvXZXZXBXiXrXA.U.E.L.8.u.p.l.l.h./ +   .           ",
"'._._.].5.5.)._.).).!._.5XxXcXlXvXdX4X4X|.>XsXdXvXvXsXsXVXsXsXsXvXvXvXvXvXvXnXZXbXBXsXvX.XS A C ) 4.w.p.p.l.e.u.1               ",
"qXqXeX1XQ.5.^.!.(.^.].].:X3XtXBXpXyXrX4X).,XvXdXdXvXvXsXsXsXiXvXvXbXvXvXvXvXvXVXvXvXdXpXU.M z A W ^ ( &.p.p.p.u.' o             ",
"].!.].(.;.] I.K.H.K.!.$Xv.$X}.5XpXpXrX.XY.|.yXcXpXpXdXcXsXsXsXsXvXnXnXnXvXvXvXvXvXsXsXyX:.M z z b a ^ 3.( p.p.q.d.>             ",
"K D +.>.` Z S.D.H.G.Y.z.l.v.$XW.`.>XXXR.S.).<XpXdXcXpXpXsXsXsXvXvXvXvXvXvXvXvXvXsXsXyX}.S l z l m M b ! 4.p.q.e.i.a             ",
"{ ] >.H.] N ;.;.>.,.d.k.p.v.k.g.5.F.C.D.I.,XyXrX4XpX4XpXyXpXpXaXpXdXvXvXvXvXvXvXiXsX4XR.M N V z A m w a 4.u.q.q.e.!   . . O O o ",
"{._..X/.G M *.:.+.2.k.z.d.p.p.q.5.| K L :.<XcXcX4XpX4X4XyXpXyXpXpXvXvXvXVXvXvXvXpXsX4XF.N M M d f d z z ^ &.w.e.i.a     + @ @ O ",
"!.`.'.^.N M G ] -.d.k.h.w.w.q... .) K L K |.vXvXcXcXpX4XpXcXdXvXvXvXVXVXVXvXsXpXBXsX<X=.z l z z j k m d v a.p.u.g.1 .   X O O @ ",
">.].F.C.d m K F 5.%Xz.p.e.q...^ S L F L L ;.4XvXvXvXVXvXvXvXvXBXBXVXVXBXsXpXsXBXsXyX1X] x z z l I j l c ! f.j.z.d.#       .   . ",
"s k c M r q G ] 7.=Xx.p.p.q./ G S N K F G =.rXcXvXbXvXvXvXbXbXZXBXvXdXyXpXsXBXVXBX4X{.S k z M k l l r v 6.=Xc.c.f.* .   . .   + ",
"D k q q 0 r F F a.v.z.j.p.w./ F F P F V H _.nXbXbXvXvXvXnXnXvXvXsXpXyXpXsXBXVXVXyX,X_.S k M M d d d v 6.c.v.v.%X/ O .   . + + . ",
"F.:.K D l J K G 5.j.v.h.p.w...J N B B Z ,.aXnXnXZXZXZXZXZXZXvXvXpXaXsXvXnXZXBXvXyX>X|.S k l k t r z 2.=Xv.v.c.c.1.+ + X .       ",
"J.:.*.H r q z V D 3.h.c.k.p.e.' v l B N H.aXsXsXZXZXvXvXvXbXvXpXvXsXvXVXVXZXVXvX<X,X).V d l m F l ' j.k.l.c.=Xv.Q X X   . .     ",
"=.H D d 8 - e z k Q t.z.c.z.l.u.,.) N m A.ZXSXsXBXVXBXZXZXZXvXvXvXvXsXvXZXZXvXpX:X<X/.V l m m K P 7.;Xp.j.%Xj.h.b O @ # % 6 c G ",
"0 r w 6 5 , s d k v ' a.h.z.c.v.%X7.` v K 5XcXvXvXvXnXZXZXZXbXvXnXvXVXVXZXVXpX<X<X4X/.z j j t P [ f.k.y.j.s.a.j.5.>.K.U.[.OX<X.X",
"< j w 6 , , s k k m M ^ r.z.=X-Xb.k.T.` J ;.(.cXZXnXnXbXBXVXVXZXVXZXZXZXvXdX4X,X<XtX!.d m l m Z.5.a.a.t.d.y.s.8.$X(.^.`.).).].].",
"z c 0 < < < r x f B m B ` 4.7X;X-X-X%Xf.T.Q.v ` 4XvXAXCXbXZXCXCXBXVXZXZXvX4X<X<X4XrX^.l j c Y.'.$X2./ 2./ ^ ' Y.:.*.H U.>.C.>.<.",
"H D V c r w c x N N A F C ` 7.=X-X-X-X%X#X$X,.=.G =.}.3XbXZXnXZXZXAXZXsXpXyXyXyXsX}.D d d M [.eX:XE.aX_.|.S.S.A.S.;.F.'.<.,.J ] ",
"] *.] ] *.] :.<.+.Z A Z P x ` 7.k.-X-X-Xk.%X@XT.A.] F 5 s M V [ S.E.}.}.>X<X}.>X=.` >.;.G.^._.qX*XhXAXV.M.N.8X8X9.9.N.iX<.C p 0 ",
"*.] S S D S D *.;.] H H G G A H a.=X=X;Xc.c.%Xf.Y.S.H.V 5 * o O $ % - - < 9 6 f - V 1XaXyXwX8X8Xn.x.x.$.%.#.$.#.#.@.#.8X0.*.v y ",
"=.*.D D D D *.*.D *.:.:.=.[ ` J 6.%Xc.b.-Xk.k.y.7.Y.I.I.!.A.d % O o O X o O @ 8 d } I.:XgXhX9X9.0.1.x.#.#.#.M.M.M.zX0XN.N.D.<.F.",
"A.F.F.>.=.D D ` =.*.*.] >.S.;.H ,.$X7Xk.k.s.s.y.a.6.Q.J.S.U.}./.K r < 5 k F K D.H.H.I.H./.oXuXgXgX8XgXV.%.#.B.0X9X9Xm.oX'.1X<.).",
"F.J.U.U.:.D D ` *.=.[ [ ] ` =.=.=.5.f.s.y.e.s.s.a.5.>.S.E.I.I.~.{./.^./.{.}././.U.^.R.;.x l :.J.oXrXuXgXlXB.B.N.uXA.4 - 8 t y 9 ",
"F.U.U.U.<.D ` =.` =.[ =.] ] =.=.=.| 7.a.e.y.s.s.4.5.F.{ I.E.I.H.F.Y.U.Y.!.`.!.I.F.F.J.J.S e p k Z =.F.(.'.uXsXgXiX8XOX^.A.-.V d "
};
