/* XPM */
static char *waka10_jpg[] = {
/* columns rows colors chars-per-pixel */
"64 64 256 2 ",
"   c #020203",
".  c #050A0C",
"X  c #0A0B0B",
"o  c #080408",
"O  c #181715",
"+  c #0D1110",
"@  c #2D1E1A",
"#  c #26221A",
"$  c #362B25",
"%  c #3A342C",
"&  c #3C3933",
"*  c #282923",
"=  c #1E221F",
"-  c #49342A",
";  c #443C36",
":  c #543A32",
">  c #763E2D",
",  c #3E483D",
"<  c #46423C",
"1  c #5A4639",
"2  c #694839",
"3  c #744D3C",
"4  c #626339",
"5  c #4A4643",
"6  c #4D4A46",
"7  c #4A4847",
"8  c #524D4A",
"9  c #574C45",
"0  c #55524C",
"q  c #5A554D",
"w  c #5B594D",
"e  c #535246",
"r  c #5B5652",
"t  c #5E5B53",
"y  c #595856",
"u  c #534E52",
"i  c #664C47",
"p  c #754A44",
"a  c #64544C",
"s  c #62594D",
"d  c #6A574B",
"f  c #775648",
"g  c #635C54",
"h  c #6A5D54",
"j  c #645E59",
"k  c #665957",
"l  c #775852",
"z  c #5B6154",
"x  c #5A614F",
"c  c #636155",
"v  c #6C6356",
"b  c #65625C",
"n  c #6B635C",
"m  c #6C695C",
"M  c #73655B",
"N  c #72695D",
"B  c #786759",
"V  c #70614C",
"C  c #5E5E62",
"Z  c #666461",
"A  c #6B6561",
"S  c #6D6A63",
"D  c #686A65",
"F  c #726C64",
"G  c #736E69",
"H  c #766A64",
"J  c #767166",
"K  c #797166",
"L  c #76726B",
"P  c #7A756D",
"I  c #7C796E",
"U  c #797B69",
"Y  c #7B7671",
"T  c #7E7973",
"R  c #797C7A",
"E  c #6E7672",
"W  c #626469",
"Q  c #8E3737",
"!  c #B03235",
"~  c #89453E",
"^  c #885951",
"/  c #AF4444",
"(  c #8D6A55",
")  c #866A5A",
"_  c #936B58",
"`  c #95725B",
"'  c #A66954",
"]  c #AA755A",
"[  c #B6795B",
"{  c #946C66",
"}  c #827B6D",
"|  c #867568",
" . c #997A69",
".. c #827C74",
"X. c #897E75",
"o. c #837E79",
"O. c #8C7D7A",
"+. c #937C77",
"@. c #8B6561",
"#. c #A97B65",
"$. c #B67866",
"%. c #C37A52",
"&. c #C47D62",
"*. c #7C8333",
"=. c #7C8375",
"-. c #D5DA0C",
";. c #CED62D",
":. c #E1D33A",
">. c #AF8F59",
",. c #99836A",
"<. c #858175",
"1. c #898275",
"2. c #85817A",
"3. c #8B847B",
"4. c #8D897D",
"5. c #92897D",
"6. c #9A8677",
"7. c #948E73",
"8. c #A6826A",
"9. c #B8856A",
"0. c #A88775",
"q. c #BD8D74",
"w. c #BA9278",
"e. c #A49763",
"r. c #B1AC76",
"t. c #C7865C",
"y. c #D68F5C",
"u. c #C38464",
"i. c #CC8C6C",
"p. c #C78867",
"a. c #D58D68",
"s. c #CB936B",
"d. c #D4936B",
"f. c #D9956E",
"g. c #D99668",
"h. c #C68D73",
"j. c #D48E73",
"k. c #C99479",
"l. c #D39473",
"z. c #DB9674",
"x. c #DB9B74",
"c. c #D49A7B",
"v. c #DB9B7D",
"b. c #D79679",
"n. c #E29A78",
"m. c #E49767",
"M. c #D6A27B",
"N. c #C8A57B",
"B. c #E4A378",
"V. c #C0BA42",
"C. c #D7D45B",
"Z. c #CCD84A",
"A. c #DBD76F",
"S. c #897F80",
"D. c #8E8A83",
"F. c #8B8681",
"G. c #948D83",
"H. c #988E86",
"J. c #9A9285",
"K. c #95918A",
"L. c #9C958B",
"P. c #9A9689",
"I. c #9D9993",
"U. c #9A8B90",
"Y. c #A2958B",
"T. c #A39A8C",
"R. c #A9988A",
"E. c #B79785",
"W. c #A49C92",
"Q. c #AA9D93",
"!. c #A59393",
"~. c #AE938C",
"^. c #ABA28D",
"/. c #ACA394",
"(. c #ADA49A",
"). c #AEA99C",
"_. c #A7A198",
"`. c #B1A496",
"'. c #B2A69A",
"]. c #B4AA9D",
"[. c #BAAC9C",
"{. c #B6A796",
"}. c #B9AF94",
"|. c #ADAAA2",
" X c #A7AAA8",
".X c #B5ACA2",
"XX c #BAADA2",
"oX c #B5A9A4",
"OX c #BCB2A5",
"+X c #BCB4AB",
"@X c #B8B4A9",
"#X c #BCB8B3",
"$X c #AAB4B5",
"%X c #D99C83",
"&X c #CC9E84",
"*X c #C8A38B",
"=X c #D9A387",
"-X c #C6AB98",
";X c #D5A893",
":X c #CCB697",
">X c #E3A58C",
",X c #C2B3A5",
"<X c #C2B6AA",
"1X c #C5BAAC",
"2X c #CABCAD",
"3X c #C9B6A6",
"4X c #D7BAA8",
"5X c #C4BDB2",
"6X c #CBBDB2",
"7X c #C6BEBB",
"8X c #D5BEB2",
"9X c #C6AFA1",
"0X c #E9BFA6",
"qX c #BFC8A2",
"wX c #D1C98D",
"eX c #CDC2AE",
"rX c #CBC6A5",
"tX c #D3C3AC",
"yX c #CDC2B4",
"uX c #CCC4BA",
"iX c #C7C4B7",
"pX c #D3C3B5",
"aX c #D6CAB3",
"sX c #D9CCB4",
"dX c #D3C5BA",
"fX c #D5CABB",
"gX c #DACBBC",
"hX c #D9C4B9",
"jX c #DCD2BB",
"kX c #DCD1B5",
"lX c #D8D3A7",
"zX c #E2D6BE",
"xX c #E1D0B7",
"cX c #E6E5AF",
"vX c #F1E090",
"bX c #D5CCC2",
"nX c #DBCDC1",
"mX c #D4C7C4",
"MX c #DDD2C4",
"NX c #DDD5CA",
"BX c #DAD6CA",
"VX c #D0CBC7",
"CX c #E2D4C3",
"ZX c #E2D6CA",
"AX c #E3DBCC",
"SX c #E4DAC5",
"DX c #E4DDD2",
"FX c #E1CFC2",
"GX c #E6E0D3",
"HX c #E6E3DB",
"JX c #EBE5DA",
"KX c #F2E3DC",
"LX c #EBEAE5",
"PX c #E8EAE8",
"IX c #F0ECE1",
"UX c #DEE3DF",
/* pixels */
"G.I.@X#X@XI.T G G T T 4.H.G.J.5.5.1.4.2.T L S b L r 7 7 5 5 , 5 0 G L D G L Y T ..R ..R ..Y ..o.Y Y o.o.o.3.K.5X..H { S m n n g ",
"@X@X@X XI.D.o.F.J.W.).OX+X<X6XOX<X`.L.J.D.2.I S L b z r 8 5 < < 0 E L L Y P o...o.o.......Y Y Y Y Y ......1.H.iX2.N { N n n n g ",
"#X(.K.F.o.O.D.G.L.J.W.XX,X1XpX2X6X,XQ.L.4.1.3.3.D.5.4.1.P J m w S 2.T T T Y o.o.o.o.....T Y Y P T T T o.R ..G.iX1.M { m n b n b ",
"G.R L G G P P G o.O.D.H.Y.}.tXtXpX,XY.4...} 5.J.J.W.Q.|.].'.'.Y.F.G.2.Y Y T T o.o.o.........R ..T Y Y ......H.uX<.N { S n b n c ",
"I.K.L.K.3.....P L J S L 1.J.J.5.Y.!.G.2.2.2.K.W.Q.'.'.].`.T.Q.R.I.G.o.P Y T T o.o.....R ......Y Y Y Y ......G.yX<.N { N n n b g ",
"K.I.W.(.(.'..X.XOX+X|.D.L C 0 8 8 j S G S S T 2.L.Y.Y.W.T.R.R.Y.G.D...Y T T o.o.o.o.o.o.R ..T Y Y Y Y T ..o.G.5X..N { m n n b g ",
"W.Q.|..X+X1XyXyXjX+XH.t 5 u y u j y j z A G S J T o.3.G.T.Q.T.W.3.3...} ..R o.o.o.o.o.....T ..Y P Y Y ..T ..5.iX1.M { N n b b c ",
"(.oXoXOX5XyX1X5XL.t 5 6 0 t g b Z j D D T 2.Y 1.D.G.L.K.L.).]..XH.3.3.Y Y ..T 2...o.o...T T T Y P Y Y Y I ..5.5X3.N { N n b b b ",
"/.OX.X@XiX+XD.c 7 7 0 r j M M K H K T 4.G.D.G.L.I.W.|.].OX<X1X<X+XL.L.2.Y o.2...2.o.o.....Y Y Y I P P Y I ..4.iX4.M { K n Z b n ",
"OX.X+X@X4.r < 5 6 w j m K } 5._.iX.XL.D.K.I._..X#XOX+X1XpXyXpXuXeXY.W.1...T R ..o.o.o...T Y Y Y P P Y Y I ..3.1X1.M { N h b b g ",
"#X@X|.A & & 6 0 j N J ..L..XbXJXGX@XH.L.(..X+XuXeXyXgXfXfXfXfXjXgXY.W.3.Y 3.R <.R ..R ..Y Y Y Y P I Y T T ..3.iX3.M { N j b b j ",
"F 8 7 & < 6 u b J G.(.iXAXJXNX1X(._._..X5XiXuXfXMXMXBXBXJXGXJXKXAX(.(.G.T 1.T 2.........T T Y Y P I I T ..} 4.1XF.v { M n Z Z h ",
"% % ; 5 7 0 r 2.].MXJXDXfX.X_.P.T.(.+XuXbXBXNXDXHXLXLXHXLXHXVXW.K.E D.R T o...o...o.o.o...T T T I I P T ....1.+X3.h { v n Z A j ",
"% & , 5 ; < r _.NXbX+XT.H.G.J.T.+X5XiXVXDXHXHXLXPXLXPXPX7X5.9 ; $ $ - ; 5 T 2.1...o.O.o.o.T Y T I P P P <...3.iX3.h _ v n j n n ",
"5 & & 5 6 6 6 A 1.....X.H.W.(..X<XmXHXDXPXPXPXLXPXPXPX7XK : 2 2 3 3 - - - F <.R ..o.o.o.T T Y Y L Y P Y ....3.yX4.d { v n j b b ",
"u 7 7 5 6 8 0 y m K 2.G.W.(..X5XZXDXLXPXLXPXPXPXLXLXDX..: 1 #.q.c.9.] ( { B 1.....o.o.R T Y Y Y L P P Y ....1.iX4.V { v n j b n ",
"r 0 r 0 r y b A T D.I._..X@X1XfXNXSXGXGXHXHXHXJXHXKXiXg i a w.v.n.x.z.a.l.,.} O.T ....T Y Y P Y L Y L Y T T 1.7XD.h _ j j j j n ",
"F A n n S L <.K.L.(..X.X<X1XyXfXfXgXjXNXBXGXAXGXDXAXfXb 9 B 9.z.v.d.i.z.p.#...R R T T Y Y Y G G L L L L ..I 1.iX4.h _ j j j j j ",
"H h n Y G.W.I.(.].XX+X+XyXyXpXdXgXgXMXNXNXZXAXDXAXGXNXB a | q.z.h.] ] h.] ( P T Y ..Y G Y L Y Y P P L P ..I 1.5X3.h _ n n j j g ",
"v N ..T.W.(.].<X<X2X6XyXfXfXbXfXfXMXNXAXGXHXJXJXJXLXAX .( ` %Xl.9.' [ l.] ` | R Y Y Y Y T Y L Y P P L L P I o.5XO.j _ n j g t g ",
"J.W..X+X.XOX<X<X1XyXuXfXbXNXBXAXGXHXLXHXLXLXLXLXPXPXDXk.h.8.%Xb.l.u.k.%Xh.9.+.U ....Y Y Y Y F G G J P P P P 1.5XO.h _ A j t t g ",
"OX@X|.I.2.L.yXfXMXMXAXGXGXJXIXLXPXPXPXLXPXPXPXLXPXPXGXk.f.9.%Xv.b.b.b.j.h.&X .L Y Y Y G Y P G L Y L G P P P ..+X3.h _ A g t y g ",
"G.T b 0 e 1.MXSXBXSXAXAXAXDXGXAXAXDXDXGXHXHXHXHXGXHXDX%Xa.#.q.v.v.n.i.[ $.h. .Y Y P G P Y L L Y P G L Y K L T .X..k ( k g r g g ",
"0 e u r e P bXjXjXaXjXjXjXSXSXjXSXAXAXAXAXAXAXAXzXDXBX0Xv._ _ u.b.b.p.[ ' $.) L P Y Y Y Y Y L L G F G G P T ...X3.h ( n j g j j ",
"7 8 g b t S yXsXsXsXsXsXsXjXjXjXjXjXjXMXSXzXzXjXZXSXCXMX4X#.1 f ] p.' ^ ^ @.d K L L L S L P G S G L G E L K ..@XO.h m @.c z g b ",
"7 5 < 8 0 m iXaXpXaXaXaXsXkXkXgXjXjXjXMXMXCXSXjXCXkXCXtX*X#.1 1 f $.j.%.' { h K P Y L L L L G Y G P J L T L ...X=.t b l l s a g ",
"F.G y r y A eXaXaXaXaXaXsXgXsXsXkXkXjXjXMXCXCXzXSXjXgXE.9.9.1 ; ; { u.[ ' p 1 P L P L G J L G G G L L L T L ...X<.t c v l a q x ",
"|.D.F j Z J eXsXkXgXaXaXsXsXsXsXkXkXkXjXjXjXjXfXjXiXdXw.u.d.3 - % : 3 f : - ; H L Y Y G G G L L G G G J I L } .XO.g v t l a a y ",
"K.T S L L =.aXkXjXjXkXlXaXaXsXtXaXaXsXfXfXaXaXyX5X XuX-Xp.d.] i - - $ $ * $ & n P G F P P G S D G G F G P L I ].R k h w d 9 q a ",
"4.K S L L 1.eXkXzXjXsXsXsXsXsXsXsXsXaXpXyX2X2X2X@X XVX4Xh.p.i.#.^ : - - : h | I } ..Y F A G Y G F H S L K K I .XX.t h s p ^ d t ",
"R L J 3.D.K.iXgXkXsXsXsXsXsXsXsXgXaXdXyX2X2X2X2XoX$XVXdX-Xh.p.i.] ( ^ f J.[.oX).XX5XXXL.P F G S F L S G J F I ].+.0 a p Q ! / ^ ",
"T T F.@X#X#XMXfXaXsXsXtXtXsXsXsXfXfXdXyX6X6X6X6XXX XVXdX2Xk.i.u.$.' #.#.<X XoXOX2X1XuXuXoXK.o.L F H S F J F K ]...9 i 3 Q ! / / ",
"T P =.K.K.5.<X2X2X3X1XtXtXeX2XaXdXdXpXpXpX3XpX1X+X@XuXdXpX-Xq.p.t.i.0.9X6XoX,X2X6X8XfXfXfXdX1XQ.S.H H H K S J ).2.9 1 d p ! ! ! ",
"v c z S S F /.,X,X,X9X3X1X1XyXdXdXdXpXpX6X2XpX8X6X5XuXdXdX8X-X%Xj.b.;X8XdX5X5XpXdXfXnXhXgXmXNXfX8XQ.R D v S E [.U i 2 2 Q Q ! ! ",
"1.1.1.3.R K (.OXXX[.[.OX[.1XpXgXdXdXdXdXtX6XpX6X8XdXpXhXpXfXpX4X;X;X0XhXdX6XdXbXnXnXnXxXhXgXFXnXsXVX X| ` B J ].F.9 f 2 ~ Q Q 3 ",
"W.^.P.J.1.H T.].].].XX[.XX2XfXgXdXdXdXhXtXpXpX6XpXdXpXhXpXyXuXfX8XtX8XdXdX8XnXnXnXMXFXZXsXnXCXCXDXoXE.a.l.9.8.Q.Y u 0 9 q 2 1 a ",
"/.^.^.^.4.K Q.[.'.'.'.XX<X6XhXfXhXdXdXpXyXpXpXpXhXuXyXdX4X8XhXfXbXnXdXfXgXgXhXnXgXZXSXCXpXfXZXAX7X`.B.m.g.m.y.h.,.f y j e l s g ",
"T.P.5.1.K m L.(.(.'.(.'.5XfXnXgXdXdXdXpX4XpXpXdXmXdXyX4X4X4XpXfXnXnXsXfXgXnX<XnXgXZXCXgX8XfXZXnXoXc.B.B.x.g.[ y.t.9.{ a d s 1 t ",
"L.G.1.J h n J..X(.].(.oX6XnXnXjXfXdXyX6X2XdXpXdXuXhX4X;X;X2XpXmXnXgXgXhXgXnXiXMXgXAXCXdXyXdXbX5XQ.M.>Xx.t.y.s.y.g.d.s.) $ + = * ",
"J J U m H A J./.(.].(.XXfXMXfXgXdXpXpX6X3XdXdXfXfX4X;X%X;XtXpXhXgXgXfXfXgXhXFXgXgXCXCX1X[./.(.H.#.k.p.t.t.%.d.d.z.g.x.l.@ o . X ",
"n g D N B ) 6.`.`.`.`.[.9X#XuXgXfXpX2X7X+XtX4XVXfX4X=Xb.=X4X9X4XxXsXnXnXgXnXgXnXmXZXxX9X5.E U m ` ] [ p.s.s.g.g.d.g.g.s.-       ",
"/././.`.R.,.~.[.|.|.{.x.z.c.{.|.#XyXhX-X[.pXdXuX4X;Xn.n.v.&X&X*XpXgXnXhXdXnXgXxXnXZX8XL.L K |  .#.9.d.g.g.g.d.y.d.d.p.0.$   o   ",
"eXyXeXyX-X+.Y.'.'.`.*XM.m.g.b.c.Q.`.<XQ.'.8X8X4X>X%Xx.n.n.j.9.h.<XfXgXgXnXFXnXhXxXFX#XR S 0.q.s.l.s.g.g.g.g.g.a.s.9.f @         ",
"^.{./.].Q.X.H.Q.T.w.c.x.d.x.g.y.u.,.K.6.*X;X=X=X%X%X=Xv.n.j.p.h.3XdXnXfXnXgXdXhXsXdXW.P  .c.B.n.M.g.d.g.g.d.9.9.` 2 +           ",
"3...U <.1.K X.H.P.E.M.g.y.d.t.t.t.9.0.s.z.z.v.v.n.n.%Xv.b.j.&.h.<XsXnXdXdXpXdXxX8X.X5. .k.x.n.n.l.9.9.9.9.#. . .: o             ",
"Y J I J.L.P I 4.H.w.M.g.g.g.d.k.i.x.M.x.z.z.n.n.z.l.b.b.b.j.&.&X2XaXfXyXdXfXdX6XXX_.0.h.n.B.B.v.8.` ) ) B M N <.O .       X O + ",
"XX.X].@XL.A L 2.1.w.x.x.x.g.x.x.x.m.a.l.l.b.d.p.k.q.q.&Xk.w.E.-XyXpXpXdXfXfX6X[.(.E.k.b.n.>X%Xb.) g v g g g c U O         O + = ",
"T./.{.OXL.b P ..6.c.m.d.c.s.g.g.s.i.a.i.&.[ ] H.E.E.~.E.E.[.<X7X8XeXdXfXdX5XOX].`.w.c.b.v.>Xn.h.B a g c j h h I O       . O O @ ",
"W.Y.`.).<.s m R 6.k.g.t.s.a.t.9.t.t.$.[ #.{ 0.^.Q.Q.'.XXoX,X<X1X6XyXdXhXhX6X,XXX{.k.j.h.%Xn.c.| z h a Z z w B B X         o o X ",
"g n m m n q b T 1.h.z.i.9.t.[ [ [ ] ] `  .~.~.Q.R.H.Y.'.,X<X<X<XyX6XpXdXdXpX<X[.XXh.9.l.h.l.q.M g c k a c h l H X o           . ",
"v n w w g 8 n ..K #.$.] ] $.] ] _ _ B N } [.'.~.R.Y.Y.`.OX1X6X6X6X2X<X6X6XyX6X1X<X*X9.t.p.p.8.h g y g i h l p n     . X X X X + ",
"I 4.I K h A Y P =.} ) ) ( ( ) B B N N A I .XoX[.`.XXoX'.XX1X5XdXdXpXpX2X<X,X1X2XyX4Xw.#.#.] | j g g g r p l a 0 + . . . X       ",
"<.L.4.4.N c m N Z S S m A A m A b D A G K .X<X,X<X<XXXXX+XOX<X5X6XdXhXdX2X1X1X2X6X4X,X0.@.B M n A a w w p d s 7 . . . . .       ",
"J 1.I L m < < v n A D Z D D Z A Z D A A J oXyX1X6X6X<X<X2X<X<X<X2X2XpXdXhXpXpXpXtX8XVX@Xj b c A | y 0 s d d w , + . . . X O * & ",
", c t 6 8 & 5 b n Z A A D S D A D A D A S W.mX6X6XpXfX8X8XhXdXpX8XpXpXpXpXdXpXpXsXfXbX.Xz t C W ..b 0 a l a e b r b J 2.G./.).OX",
"% e t 8 5 < 8 b j j A A A S A b A n S D j D.mXdXpX8XhXnXfXdXgXgXgXgXfXdXdXhXdXpXfXCXdXJ.v b C W R H w e l h e !..X).].).}.OX[.[.",
"5 b w e < < e j j n A F A F F A A A A b A Y @XnXnXgXfXFXgXFXFXgXFXxXCXFXsXgXnXfXuX'.} 5.I g J L.r.X.D 4 2 1 1 7.`.J.F.J.R.Y.5.5.",
"q K F m s q 0 F H F A F F G F A S A Z D Z g ..Y.fXZXMXnXFXnXAXZXZXZXNXZXZXfXXXH.h K G.Y.Q.K 2.rXrX X_.P.,.O.R 2.1.=.R I.T.1.=.2.",
"e <...P ..} I 5.4.P F F J F S S F A y j Z F n q r 3.L.W.+XoX+XW.I.U.K.F.K q ; ; F J.'.(.(.T.P.OX:X9XSXcXwXwXwXrX`.e.r.rX1XU.| x ",
"w <.T K K I N } 4.P K K P P G F m A S b b n ..L.G a < y S % * # O O O O + # g W.'.'.`.'.oX].}.rX*XN.:XZ.;.-.Z.C.;.;.;.Z.wX+.V M ",
"v 1.I F K I K } | } 3.5.3...I } K m A A n n L.uX<XoXQ.K...g g 9 0 0 0 j 1.L._.].]./.].,XOX^.^.qXe.e.e.V.-.-.C.Z.C.C.wXA.C.r.0.7.",
"7.L.5.G.4.} K } ..X.} 1.J.H.3.T I K J A b F !.<X<XOXOXoX(.oXXXoXXXXXoX]..X].'.{.(.'.'./.Q.`.^.rXqXrX6XA.:.-.C.vXcXcXZ.A.aXrX1.1.",
"7.Y.T.T.Y.} K ..P X.1.} } } ..5.1.} F F G ..+X<X,X,X1X<X@XoX(.]..X].XXoXQ.L.R.`.XX'.`.9X].OX^./.1XsXkXlXzXC.:.:.wX}.*.4 0 v z C ",
"5.Y.T.^.T.1.K ..X.1.X.} 1.X.....1.3.} T } H.6XXXXX+XoXoX+XXX.XOXOX.X'.Q.J.R.`.].XX'.OX{.'././.1.U !._.).rXlXlXxXlXwXL.3.J k 8 & "
};
