/* XPM */
static char *waka16_jpg[] = {
/* columns rows colors chars-per-pixel */
"64 64 256 2 ",
"   c #010203",
".  c #04050A",
"X  c #07090A",
"o  c #181818",
"O  c #0A0D11",
"+  c #28211C",
"@  c #35261F",
"#  c #272625",
"$  c #382C26",
"%  c #39342A",
"&  c #3C3734",
"*  c #22241F",
"=  c #4B372A",
"-  c #433B35",
";  c #523831",
":  c #5C3329",
">  c #44423D",
",  c #4A443E",
"<  c #584539",
"1  c #58422B",
"2  c #644A3C",
"3  c #764639",
"4  c #656332",
"5  c #433D49",
"6  c #4B4642",
"7  c #4C4945",
"8  c #484745",
"9  c #524C45",
"0  c #534E4B",
"q  c #594B48",
"w  c #54514B",
"e  c #5B554C",
"r  c #58584B",
"t  c #5B5552",
"y  c #5D5A53",
"u  c #595956",
"i  c #4E5F4D",
"p  c #684B42",
"a  c #744C46",
"s  c #65564C",
"d  c #745948",
"f  c #635C54",
"g  c #6A5C53",
"h  c #645E5A",
"j  c #645755",
"k  c #775854",
"l  c #5B6153",
"z  c #6B6256",
"x  c #65625B",
"c  c #6A635C",
"v  c #696459",
"b  c #72665C",
"n  c #75675A",
"m  c #7E7749",
"M  c #666563",
"N  c #6B6561",
"B  c #6D6A64",
"V  c #6C6B69",
"C  c #676866",
"Z  c #726D64",
"A  c #7A6D63",
"S  c #736E69",
"D  c #776D68",
"F  c #6E7365",
"G  c #757266",
"H  c #797266",
"J  c #75736A",
"K  c #7A756C",
"L  c #7C796E",
"P  c #74796B",
"I  c #7C7671",
"U  c #7E7973",
"Y  c #787976",
"T  c #757471",
"R  c #685F60",
"E  c #923336",
"W  c #B23136",
"Q  c #865D49",
"!  c #82524C",
"~  c #AF4343",
"^  c #8A6858",
"/  c #976B58",
"(  c #90674B",
")  c #A56D57",
"_  c #A8755A",
"`  c #B47B5C",
"'  c #B77B59",
"]  c #AA6A4F",
"[  c #8D6661",
"{  c #956C68",
"}  c #817A6E",
"|  c #84766A",
" . c #977767",
".. c #827C74",
"X. c #8A7C74",
"o. c #847E78",
"O. c #867975",
"+. c #937E72",
"@. c #A97A64",
"#. c #B87A64",
"$. c #C47867",
"%. c #7D8275",
"&. c #868938",
"*. c #CCDA0C",
"=. c #CBD130",
"-. c #E2D92E",
";. c #BA835E",
":. c #AB815B",
">. c #858176",
",. c #8A8276",
"<. c #85827A",
"1. c #8B857B",
"2. c #8C897D",
"3. c #928A7E",
"4. c #938678",
"5. c #938770",
"6. c #BD8363",
"7. c #B9856A",
"8. c #A58978",
"9. c #B68A78",
"0. c #B9947B",
"q. c #A99074",
"w. c #A6A357",
"e. c #C3875A",
"r. c #D08C5B",
"t. c #C38A64",
"y. c #CB8B6B",
"u. c #C68867",
"i. c #D48B6B",
"p. c #CB936A",
"a. c #D6966A",
"s. c #C48D73",
"d. c #C98B76",
"f. c #C89578",
"g. c #DB9C74",
"h. c #D59A7B",
"j. c #DB9B7C",
"k. c #D79477",
"l. c #D58A76",
"z. c #E39778",
"x. c #CDAB74",
"c. c #D5D356",
"v. c #E1D74C",
"b. c #D1D06E",
"n. c #DEE269",
"m. c #857881",
"M. c #8E8A82",
"N. c #8D8483",
"B. c #938C82",
"V. c #998D83",
"C. c #948E88",
"Z. c #959185",
"A. c #9B9385",
"S. c #959289",
"D. c #9C958B",
"F. c #9D988B",
"G. c #9D9892",
"H. c #A2958C",
"J. c #A39B8C",
"K. c #AB9C8D",
"L. c #A89686",
"P. c #B99A87",
"I. c #A49C92",
"U. c #AA9D94",
"Y. c #A59997",
"T. c #B19896",
"R. c #A48E85",
"E. c #A6A189",
"W. c #ABA295",
"Q. c #ADA49A",
"!. c #A9A698",
"~. c #B1A495",
"^. c #B2A69B",
"/. c #B3AA9D",
"(. c #BAAD9D",
"). c #B6A798",
"_. c #B8B499",
"`. c #BBAF88",
"'. c #ADABA4",
"]. c #B4ACA2",
"[. c #BAAEA3",
"{. c #B1ACA6",
"}. c #BCB2A3",
"|. c #BCB4AA",
" X c #B8B5A9",
".X c #BBBAB4",
"XX c #9FA0A2",
"oX c #D89C86",
"OX c #CB9C87",
"+X c #E49B83",
"@X c #C8A88B",
"#X c #D9A487",
"$X c #C9A995",
"%X c #D7AB97",
"&X c #D6B49A",
"*X c #C9B290",
"=X c #C2B5A5",
"-X c #C3B5AA",
";X c #C4BBAC",
":X c #CABCAD",
">X c #C8B9A6",
",X c #D7BAA9",
"<X c #C4BCB2",
"1X c #CBBDB2",
"2X c #C3BAB8",
"3X c #D3BEB2",
"4X c #C1AEA7",
"5X c #E0BDBB",
"6X c #CFCE8F",
"7X c #E5D38B",
"8X c #CBC2AD",
"9X c #CAC4A6",
"0X c #D2C4AD",
"qX c #D8C5AC",
"wX c #CCC3B4",
"eX c #CCC5BA",
"rX c #C6C1B6",
"tX c #D3C4B4",
"yX c #D5C9B3",
"uX c #DACDB4",
"iX c #D5C5BA",
"pX c #D9C6BC",
"aX c #D5CABC",
"sX c #DBCBBC",
"dX c #DAC5B5",
"fX c #DDD2BB",
"gX c #D9D3B7",
"hX c #D3D2AA",
"jX c #E2C9B9",
"kX c #E1D4BD",
"lX c #E2D6BA",
"zX c #E8E2AA",
"xX c #E4E484",
"cX c #D5CCC2",
"vX c #DCCDC2",
"bX c #D6C7C4",
"nX c #DDD2C4",
"mX c #DDD5CA",
"MX c #D9D5C8",
"NX c #D5D1CD",
"BX c #E1D4C4",
"VX c #E3D5CB",
"CX c #E3DBCC",
"ZX c #E5D7C7",
"AX c #E3DDD3",
"SX c #E8DED4",
"DX c #E0C8C6",
"FX c #E4E1D6",
"GX c #E6E2DB",
"HX c #E9E4D9",
"JX c #E6E6E3",
"KX c #EAE7E1",
"LX c #EAEAE5",
"PX c #EAEBE9",
"IX c #E7ECEA",
"UX c #F2EFEA",
/* pixels */
"Z.!. X<X XG.U G K ..1.3.B.A.B.B.3.3.B...U S V x G w w 8 > 7 > > 0 G D N I S U ..m.U U U U U U o.T ..U ....} B.rX>.n { Z b N c f ",
"]. X X'.D.1.<.M.D.I.].-X;X;X=X>X>X/.H.D.C.<.L G K x c u 7 8 > 8 e K J J I I ....o.U U o.o.U I U K U ..Y U ..Z.rX2.z [ b c z c h ",
" X!.M.o.<.<.2.B.M.D.W.W.=X:X,XqX:X>XK.H.2.,.>.1.B.1.B.1...H v x Z ..I U I ......o.U U o.Y U I I L U U ....>.B.eX2.z ^ c c h c c ",
"C...G Z G G J J I ..<.2.L.=X:X:XaX-XA.1.} ..3.A.D.I.U.^./.~.W.J.B.M.o.I U I o...o.o...o.....U ..K U I U U ..B.eX2.z [ b N c c x ",
"G.S.S.S.M.>...L X.N Z I O.B.D.3.B.D.B.1.2.<.S.F.U.].^./.E.K.K.L.H.B.o.I U U o...o.....Y ..U U U K L I U >...B.wX,.z { Z c c h h ",
"S.D.W.!.^.].[.[.[.;X{.C.B u 7 7 9 j N h M c U M.V.D.J.J.J.J.J.L.B.<.U U I o.o.o.o.o.o.o...U I I K K K U U ..3.<X2.v  .b c c h h ",
"I.!.].].|.;X1XrXcX|.o.0 0 t 0 t u y h x B F x S U ..1.3.A.J.J.J.<.<.U U U o...o.Y o.o.o.U U I I L L K U U ..2.<X2.v { b z x h c ",
"!.].].}.<XeX1X-X1.j 8 7 0 t h R N h N B U <.K 1.1.C.A.A.J.W.Q.[.3.3.<.I ....O.o.o.o.o.U U U U U I U T I L L 3.<X2.z { Z c x h N ",
"^.].{. X2X{...y 8 8 0 y c b Z L K } ..N.M.M.C.G.G.!.^.[.=X-X>X;X=X3.J...I ..o...O.o.o...I U U I K K K K K U 2..X2.z { n c x N x ",
"]. X<X].<.0 & 8 0 y x N J o.A.W.cX].A.B.B.Y.!.!. X|.|.;X:X8X8XwX;XF.I.1.I ......o.o.o...I I I I J K L K I U ,.8X2.z { b c z z h ",
" X'.Y.u % - w u f Z I 1.I.;XmXHXAX[.D.F.Q.].|.<X;XwXyXwXaXgXaXfXeXD.U.1.} o...O...O...U U I I I J I L K I U 1.<X2.z { n c h x h ",
"x 6 8 & 8 w 0 h K B.].aXAXHXcX;XQ.D.D.].<X1XwXcXgXMXmXmXAXFXAXSXAXQ.{.<.I ..L ..O...U U U I I U K K K U U U 1.;X2.v { z z x h h ",
"% % & 8 6 8 t M.;XvXHXCX1XQ.I.D.F./.|.rXcXmXCXCXFXGXLXLXPXLXLXLXJX'. XM.o...o...o.o...U o.U I U I K K U U ..1.;X2.z { b c x x h ",
"& & - 8 8 6 u U.MXeX].F.B.3.D.W.[..XeXNXmXGXHXLXIXPXIXIXIXPXPXPXGX'.{.K f r z Z I o.o.U U U I I I K K K U ..1.<X2.g [ c c x c c ",
"8 8 8 > 8 8 7 c ......1.C.D.W.]..XwXmXLXPXPXPXIXPXPXIXLXPXPXLXIXLXM.v - $ $ $ $ 0 B ..U U I I I K P K L U ..1.8X2.f [ z x x c h ",
"9 7 8 5 9 9 w f z K <.B.I.Q.].<XgXFXUXPXJXIXIXIXHXHXLXGXJXHXFXFX{.f - $ $ $ $ $ + t } O.U I T I G J K U U U 1.wX2.g ^ z h x h h ",
"x r e t t y x N Y C.G.W./.[.:XaXnXMXAXFXHXGXGXHXGXFXGXGXFXGXGXMXc - < 2 d p 2 2 d < V U } G B } G G K I U L ,.wX2.z ^ h h f f c ",
"B x N D D K N.S.G.U./.].|.<XwXaXyXaXvXmXmXCXCXFXFXmXFXAXAXAXAX;X< < :.f.d.7.6.y.g.@.n G } Y S I J G J K U U >.;X2.h ^ M x f f f ",
"Z f c } B.I.I.Q.{.[.|.;XwXyXtXyXyXaXsXnXmXmXFXAXFXFXFXAXAXSXmX Xq d 0.j.z.z.a.i.g.7.n H L U K I K J G P U K ..;X2.f ^ R z f y f ",
"b A B.I.U.Q.^.[.=X>X;X:X8XyXwXyXvXmXmXAXFXFXFXFXGXGXJXFXGXJXHXcXs z 9.h.z.z.k.k.) _ | P P G F H J G G K I K >.<X1.h ( h h y y f ",
"A.Y.].|.].|.;X;X:XwXaXcXnXmXmXCXFXFXGXLXIXLXLXLXPXPXPXJXJXLXUXGXP d 9.oX9.( ` d./ / +.G D K G G G G K H L K >.;X<.g / R x f y y ",
"|.[.!.S...V.:XyXcXmXVXAXFXHXKXLXLXLXIXLXIXIXIXLXJXJXPXJXLXKXLXSXq.( d.j.` ( 7.h.6.@.9.| I I T J G J P J T K ..|.,.h ^ R f e y f ",
"X.K t r e 2.BXCXZXSXSXCXAXAXAXAXCXFXAXAXAXFXFXFXFXFXFXFXHXSXFXnXl.#.f.+Xy.$.k.j.i.l.P.[ J T G S S G G G K K U [.<.g ^ h f e f f ",
"9 e w t r >.fXsXhXuXuXuXfXfXfXfXMXlXCXCXCXCXCXCXCXCXCXnXCXVXCXfXl.y.s.j.z.+Xk.l.y.k.q.Z P P J H G S B G L I U ]...g / c h f y f ",
", r u x w K aXyXuXdXsXuXsXfXkXkXfXfXfXfXfXBXBXfXlXfXfXnXfXBXlXfX#X#.:.a.j.+Xs.] ] d.+.k D D C F S J G G K K ..].X.f k k x y f f ",
"7 , > w 0 Z wX0XtX0XqXyXuXuXuXsXfXfXfXfXfXfXfXfXfXfXnXfXlXlXBXBXdXP.a  .d.l.7.$.] _ d g I T J K G J J J K K ../.,.f f k k g s u ",
"C.V i u u D tXaXyXyXqXyXyXdXaXuXgXlXfXMXkXkXlXkXfXnXfXkXlXuXfXnXgXT.k 2 ( 7.$.$.' @.2 z S F T D J J G K L J U {.,.f l g d l r u ",
"'.<.N x N I yXuXfXuXyXyXqXyXyXyXuXgXgXgXgXgXsXgXgXfXdXdXuXuXgXnXfX~.{ ; 1 ( l.#.) ^ = w S V J Z G D G J U J L '.X.l z g k k i y ",
"B.G B N G ,.yXgXfXfXhXyXyXyXqXaX0XqXuXuXaXgXqXuXuXgXuXuXhXuXfXgXyX$X) = = < k / 2 ; @ 6 I Z F b G S V K K G ..]...u f y s s i s ",
"<.G V P U 3.yXgXlXfXuXqXyXyXyXyXyXhXuXfXfXfXlXgXuXlXuXjXuXuXgXeXeX$X7.d $ $ = @ @ + - q D Z F B S S S G G G L /.Y y l s a 3 a f ",
"U G J %.M.F.yXgXkXuXuXqXqXyXqXyXuXgXkXBXfXfXgXlXgXfXyXuXqXyXeX{.1XtX0.#.d = ; $ @ : Z } Z Z G S B S Z G G B L ^.o.s s ! E W ~ d ",
"L ..C. X2X.XgXyX0X0X0X0XqXyXyXtXuXlXkXfXyXtX0X0XyXqX0XtX>X8X2XXXeXkX@Xu.6.] Q p Q k L./.K S G Z B S S Z G B L /...q 3 2 3 W ~ ~ ",
"P P %.S.B.2.|.8X;X:X:X:X3X:X:X>X;X:X:X8X3X:X;XtXiXeX1X1X1XrX.XXXrXaXdXOXu.6.` ' $./ ).2X|.A.} G S b G N V c G /.P p ; p 3 W W W ",
"c x z G S K Q.).=X}.=X>X>X>X;X>X=X>X>X=X-X=X-X1XiXiX1X1X:X1X.X X<XcXcX$Xf.e.e.9.u.9.>XrX{.;X1X^.B...B G G S G W.| r p p 3 E W W ",
"4.,.,.,.K } {.=X(./.(._.}.=X}.(.}.}.}.}.(.}.:XiXiXtXiXtXtX:X<X2XtXbXcXtX&Xk.i.z.f.&XiXeX}.wXaXaXaX|.,.G B F P '.U w a a a E E 3 ",
"H.E.L.Z.O.D U.Q./././.(.}.}.}.(._./.(.(.(.;XyXbXiXbXtXyXtX3XtXbXbXbXtXdXdX,XoXz.,XjXwXtXyXsXtXaXcXmX/.H J c G /.U w s p < p p i ",
"E.W.E.A.2...U./.Q.Q.W.(.}.}././././././.=XtXsXiXiXpXtXtXpXdXiXiXpXvXuXyXbXMXyX&XeXcXvXvXpXpXDXBXpXBXyXA.G N G !.I s i r r d e s ",
"J.L.3.L Z B I./.Q.Q.Q.).}.}.[.].].]././.;XpXbXtXiXiXtXtX3XpXpXtXtXsXpXtX3X,XjXdXaXuXsXbXVXvXBXvXZXnXmX;XI N G /.%.y f l k g 0 j ",
"A.3.5.G h k L.(.^.Q././.[.}.[.].]././.[.tXcXbXiXpXtXtXtXpXbXsXdXuXtX,X,X&XoXoX%X,XjXjXfXnXcXsXZXVXjXnXmXD.N D ~.S # # * + + * # ",
"P n G b A A H.~.W.Q.Q.Q.^.^.^.U.!.!./.|.sXsXpXpXpXwXtXsXiXbXpXdX5X,X%X%X&XqX,X#XoX#X&X>X.XcXZXjXkXVXsXVX[.N Z Q.h     .     . . ",
"z v b b n n L.U.~.Q.^.^.-X(.Q.Q.!.E.].eXfXsXiXiXtX:X3XpXiXpXdX,X%X#Xj.oX,X>XqX,X+Xj.h.k.f.qXvXDXvXmXlXjXaXP N U.7         .     ",
"_.~.!.Q.K. .K.).^.^.^.U.(./.!.!.T.Q. XaXnXiXcXcXiX;X<XiXpXdX,X#Xj.k.l.d.%X,X,X,Xj.i.i.h.s.$X,XBXvXvXBXnXnX3.c W.8               ",
"9X8X8X8X(.+.K.].!.!.^.U.^.Q.K.E.H.U.<XbXNXbXsXtXtX>X>XwX,X&X#Xg.k.a.f.7.$X,X1X<X@X7.#.$.] t.h.%XdXVXAXNXmXQ.c Z.&               ",
"~.~./.~.L.| V.Y.E.J.U.U.U.W.J.I.E.`.$X$X2XcXsXqX>X$X$X&X%X#Xj.z.k.i.u.7.@X>X8X<X*Xf.#.' ' ' t.f.%XpXbX2X;XQ.G 2.#           .   ",
"..} K 1.3.Z 2.Z.S.A.G.J.I.J.A.H.0.x.g.g.0.).=X=X@XOXh.j.#X+Xk.d.d.$.#.@.P.$X&X$Xj.d.#.` @._ _ 7.u.f.K.P.0.q.| <.# .         .   ",
"<.L L A.B.N >.B.M.2.3.A.S.Z.4.8.k.a.a.a.u.9.0.`.oXh.k.h.k.f.R.9.q.8.@.@.8.P.OXd.d.f.0.9.P.q._ _ 6.y.p.a.a.a.9.<.o         . O X ",
"'.Q._.|.D.c J <.<.>...2.M.<.| q.a.a.p.p.i.a.a.g.g.k.s.s.9.8.8.R.D.H.R.H.L.T.P.P.).).T.R.K.P.0.6.t.a.i.r.r.r.y.5.o         O o o ",
"E.Q.(. XB.h J >.o...} >.%.>.+.P.g.g.g.p.a.a.g.i.y.$.@.8.L.A.3.R.T.H.Y.T.T.[.).4X|.].-X{.U.8.8. .y.6.p.p.t.' t.6.o         o o # ",
"W.J.W.J.K y G >.U Y U L ,.%.<.p.g.g.g.g.a.a.p.t.u.#. .H.Y.H.H.K.^.].[.[.-X|.4X-X<X).4X].U.4.| n ` t.6.t.p.a.u.p.=         O X X ",
"f v b b x f b U L I U L ..U 5.k.g.y.p.t.y.t.t.;._ 7.+.V.Y.U.^.[.|.-X-X;X:X:X:X1X1X4X[.).K.4.n b @.` e.;.;.;.t.t.;   .       .   ",
"z z y y t w x I K U U U ....5.g.a.e.t.;.;.;._ _ q.L.L.T.T.[.-X:X1X1X1X3X3X3XtXiX3X1X[.^.H.M.c h ^ _ #.' ' ' ;.t.p   X . . O O O ",
"Z.2.P G x G U K H K I K I ..5.k.u.' ` #.) _ / 9.L.K.T.[.-X<X1X1X1X1X1XtXtXtXiXiXbX3X|.^.H.X.v x z { ) _ ' :.' p.p X X X . O X   ",
"Z.Z.2.,.v y v G C B V B V S H @._ ) / / ^ ^  .).^.).=X:X3X1X1XwX3X3X3XbXpXsXsXsXpX:X4X~.A.G x x c n ^ ( ( ] ] ;.p   . X X .     ",
"U >.U L l - > c x x M M R N M ^ ^ n k n G x 2.|.4X-XtXpXdXpXaXiX3XpXiXbXuXsXvXvXtX>X=X).Z.x y M Z h g d Q Q ) ) < O X X X o # & ",
"w l e 9 9 , 9 f M z N C B C M N c x C x S C U.;X1X1XsXpXsXsXDXvXvXcXpXsXsXBXBXcX3X-X-X].M.y u V >.c 9 s / Q /  .d u B } 2.W.Q./.",
"> w y w , > t x x h b N B C M M M M C M M K -XvXpXiXvXvXcXvXkXpXvXjXvXVXnXZXDXiX1X>X}.].Y u u V X.v l 9 d Q 2 L./.'.!.~.~._.(.(.",
"r v 9 7 , , 9 c c c N B B G V N c c B x N N B.iXVXvXcXuXnXsXsXBXkXVXBXnXnXkXsXyX1X-X;X|.Z e P Z.).>.M 7 p 2 q A.W.A.5.F.E.A.A.S.",
"z K G c f e y Z G B B S V V S B c c x x N 2.^./.;XcXBXvXcXvXnXnXVXVXnXBXVXVXpX:X>XwX;X^.b f >..X9XE./.q.O.| K L 1.o.L Z.G.2.} >.",
"z >...U L U } B.2.K b G J G S B B N h x V /.1X/.H.K.^.cXCXAXCXmXVXVXDXVXnXtX3XtXtXwXwXQ.Z ..K._.`.=XVXlX9Xb.6X_.L.q.E.9X1X3.K z ",
"G >.L K H K K } ,.} L L K B Z G C x M h L ;X}.=X[.Q.V.B.3.I.rXaXvXBXmXuXyXtXtX0XwXaXwXcX1XrX9X9Xx.x.*Xc.-.*.=.c.=.=.=.n.`.m n j ",
"J >.G L H H H ,.} X.<.4.<.....K G B V z V.;X).4X[.[.].H.H , - $ q } ^.;X<XeXaXwX1X<XU.;XfXhXhX_.w.w.w.w.*.*.v.c.n.n.xXb.c.6XM.4.",
"A.S.Z.A.2.| H ..,.} X.,.3.V.3.} L K Z b Q.wX;X[.[.].Q.U.Q.Y.,.q # o # & 6 q e 9 e g D L. X9XgXhXgX9XrXn.=.*.c.7XzXzXb.6X9X;X5.D.",
"A.F.F.E.Z.} H } O.} X.| } X.X.<.} } Z H ^.<X-X].[.[.^.^.^.W.Q.[.Y.Z , $ $ & q f J B.D.~./.1.,._.,XuXaXuX7Xv.-.-.6X`.&.4 0 V N u ",
"A.J.F.W.A.,.K ..<.X.,.X.X...,.X.,.,.,.} ].-XH.U.W.[.(.^.Y.^.U.I.^.^.Q.H.B.I./.W.Q.U.W.U.H.I t h ,.S.XX_.1XvXuXhXhX6XZ...S r 8 % "
};
