/* XPM */
static char *waka14_jpg[] = {
/* columns rows colors chars-per-pixel */
"64 64 255 2 ",
"   c #020201",
".  c #0B0C0C",
"X  c #050809",
"o  c #181715",
"O  c #0C1111",
"+  c #1A251B",
"@  c #26251A",
"#  c #3E281D",
"$  c #292623",
"%  c #372B25",
"&  c #38332A",
"*  c #3C3933",
"=  c #241F1C",
"-  c #48362B",
";  c #443D36",
":  c #4F372E",
">  c #70392C",
",  c #50341F",
"<  c #3F403B",
"1  c #45423D",
"2  c #4A453E",
"3  c #574838",
"4  c #595131",
"5  c #67493B",
"6  c #78493B",
"7  c #453E45",
"8  c #464442",
"9  c #494543",
"0  c #4C4943",
"q  c #4E4D4A",
"w  c #524C44",
"e  c #524E4A",
"r  c #594843",
"t  c #55524C",
"y  c #5A544C",
"u  c #5B584B",
"i  c #555351",
"p  c #595552",
"a  c #5E5B53",
"s  c #585B57",
"d  c #554C51",
"f  c #654B44",
"g  c #744944",
"h  c #67564B",
"j  c #7A5B4B",
"k  c #635D54",
"l  c #6A5D55",
"z  c #645E5A",
"x  c #685A58",
"c  c #795952",
"v  c #5B6355",
"b  c #526047",
"n  c #656156",
"m  c #65625A",
"M  c #6A645C",
"N  c #6D685D",
"B  c #6A6254",
"V  c #76675B",
"C  c #76715F",
"Z  c #6C6561",
"A  c #6D6A64",
"S  c #696A65",
"D  c #736C64",
"F  c #736E6A",
"G  c #766A65",
"H  c #747166",
"J  c #797266",
"K  c #75726A",
"L  c #7A746C",
"P  c #7B796D",
"I  c #77796C",
"U  c #7C7671",
"Y  c #7E7973",
"T  c #797773",
"R  c #6A6C6B",
"E  c #903636",
"W  c #AF3436",
"Q  c #BC1F30",
"!  c #865752",
"~  c #8C4F47",
"^  c #B24442",
"/  c #896857",
"(  c #956B58",
")  c #946A53",
"_  c #AA755A",
"`  c #B4785A",
"'  c #A46A59",
"]  c #926C63",
"[  c #82756C",
"{  c #837A6E",
"}  c #8A786A",
"|  c #977968",
" . c #827C74",
".. c #897F75",
"X. c #837E78",
"o. c #867B78",
"O. c #8C746F",
"+. c #A87B68",
"@. c #B57B64",
"#. c #AE776A",
"$. c #7C8175",
"%. c #888B3C",
"&. c #C1B23D",
"*. c #CCDA10",
"=. c #CDD730",
"-. c #E5D329",
";. c #858175",
":. c #898176",
">. c #86827B",
",. c #8A847B",
"<. c #8D897D",
"1. c #938B7E",
"2. c #978679",
"3. c #968C78",
"4. c #B98669",
"5. c #A68676",
"6. c #B78976",
"7. c #B9947B",
"8. c #A6896E",
"9. c #AEA15B",
"0. c #CC8559",
"q. c #C88A68",
"w. c #D58C69",
"e. c #D2936C",
"r. c #DB9B6C",
"t. c #D8976A",
"y. c #CC8D71",
"u. c #C68C76",
"i. c #D48E72",
"p. c #C99579",
"a. c #D49472",
"s. c #DA9A74",
"d. c #D49B7D",
"f. c #DC9C7B",
"g. c #D99677",
"h. c #CC9169",
"j. c #E59C79",
"k. c #E29A6A",
"l. c #DFA07A",
"z. c #C6AE77",
"x. c #E4A37C",
"c. c #E6A177",
"v. c #CFD554",
"b. c #CDD174",
"n. c #E3E263",
"m. c #8E8983",
"M. c #8C8582",
"N. c #938C83",
"B. c #9A8E84",
"V. c #958D88",
"C. c #959185",
"Z. c #9A9384",
"A. c #9C958B",
"S. c #9A968A",
"D. c #9D9891",
"F. c #A1968C",
"G. c #A29A8C",
"H. c #A89988",
"J. c #B99A86",
"K. c #A49D93",
"L. c #AB9D93",
"P. c #A29292",
"I. c #A88C89",
"U. c #B7A78C",
"Y. c #A6A195",
"T. c #ABA395",
"R. c #ADA59A",
"E. c #AAA69B",
"W. c #B3A495",
"Q. c #B2A59B",
"!. c #B4AA9C",
"~. c #B9AD9D",
"^. c #B9A896",
"/. c #BAB69B",
"(. c #A9A38A",
"). c #ABA8A3",
"_. c #B4ACA2",
"`. c #BAAEA3",
"'. c #BAAFA9",
"]. c #B5B1A4",
"[. c #BBB2A4",
"{. c #BCB5AB",
"}. c #B8B4AA",
"|. c #BCB9B3",
" X c #9FA0A4",
".X c #C99A85",
"XX c #D89C84",
"oX c #E49E82",
"OX c #C9A488",
"+X c #DAA386",
"@X c #C9AB96",
"#X c #D8AB97",
"$X c #C8B19B",
"%X c #D9B39C",
"&X c #E6A386",
"*X c #C2B3A5",
"=X c #C4B9A5",
"-X c #C3B5AA",
";X c #C4BBAD",
":X c #CBBCAC",
">X c #CCB8A8",
",X c #D5BAA7",
"<X c #C5BDB2",
"1X c #CCBEB2",
"2X c #CEBBBD",
"3X c #D1BEB3",
"4X c #D9BFB3",
"5X c #C0AEA0",
"6X c #CFCB92",
"7X c #E9DE9A",
"8X c #E9EA92",
"9X c #CDC2AE",
"0X c #C9C8A4",
"qX c #D3C3AC",
"wX c #DAC8AC",
"eX c #D6D3AA",
"rX c #CDC3B3",
"tX c #CCC3B9",
"yX c #C9C5B6",
"uX c #D4C4B5",
"iX c #DAC5B4",
"pX c #D6CAB4",
"aX c #DACCB4",
"sX c #D5C5BA",
"dX c #D9C6BC",
"fX c #D5CABB",
"gX c #DACABD",
"hX c #DBD1B6",
"jX c #DDD2BB",
"kX c #D6D1B6",
"lX c #E3C7B9",
"zX c #E1D4BC",
"xX c #E1DEB3",
"cX c #E6CDAF",
"vX c #D5CDC2",
"bX c #DCCCC2",
"nX c #DDC6C0",
"mX c #DBD2C4",
"MX c #DDD5CA",
"NX c #DAD6C8",
"BX c #D5D0C9",
"VX c #E2D4C3",
"CX c #E3DBCD",
"ZX c #E4D7C9",
"AX c #E3DED3",
"SX c #E2CCC4",
"DX c #E4E1D5",
"FX c #E5E3DB",
"GX c #E9E3DA",
"HX c #F0E8DD",
"JX c #E8E7E2",
"KX c #EAEAE5",
"LX c #EAEBEA",
"PX c #E6E7E3",
"IX c #F0EDE3",
/* pixels */
"N.D.}.|.].D.T H J  .X.1.N.V.V.N.1.:.,.>.T K A z F i e 9 8 9 < 8 t H D A J D P  .X.Y Y Y Y Y Y Y T Y Y X.X...N.<X>.A ] G Z M z n ",
"].}.}.).D.m.>.,.N.D.R.[.-X-X>X*X-XQ.F.V.<.>.T A J m m p 0 9 1 1 t T T K K T  . .>.Y X.Y Y Y Y Y T  . . .o.X.N.yX>.M ] V m m Z n ",
"}.E.S.M.X.>.,.N.V.D.K.Q.*X9X,X,X3X*XW.F.N.>.,.:.N.,.,.>.P J M z Z >.Y Y L Y  . .X.X.X.Y Y Y Y Y T Y Y  . .X.N.yX:.A ] V m M Z M ",
"V.Y H R D K L L Y ..N.N.F.$X:XpXuX*XI...{ { V.C.Z.F.K.R.R.T.T.G.m.<.;.T Y L >. .X.Y X.X.X.Y X.Y U Y Y  . . .N.<X:.A ] V M B Z B ",
"S.V.V.A.,.X. .[ J D D K  .N.Z.A.A.A.N.m.M...V.A.K.!.R.R.T.F.G.H.K.N. .P Y T  .X.X.X.X.>.X.Y Y Y U T Y  .o. .N.yX>.N ] G Z m A n ",
"C.D.K.R.R.R.!._.[.{.].m.R z q 9 t s S R Z D L M.V.G.G.G.G.F.G.H.M.N. .[ Y >.X. .Y X.X.Y Y  .Y Y L Y U  . . .N.<X:.N ] V m n z n ",
"K.R.R._.{.;X<XrXvX{.V.a 9 d t p a a z z Z F A H L >.>.<.Z.F.F.A.:.,. . .T >.X. .X.X.X.Y Y Y Y U L U T Y  . .m.1X1.Z ] G m m x M ",
"E._.!.}.<X1XrX;X1.k 9 9 p z a Z B k A D T >.T $.m.V.C.S.T.T.!.[.N.M.>.Y  . .Y >.X.X.X.Y Y X.Y U U U U U U U ,.<X,.M ] D M B M n ",
"R._.`.{.<X|.,.z 9 q t a z l D J J J  .,.V.,.m.S.D.K.R._.[.-X>X>X>XZ.A.,.Y Y M.Y Y X.X.Y Y T T  .L L I L  . .,.<X,.M ] G N m m n ",
"_._.;X{.M.i ; 9 e i z Z L  .N.L.<X'.A.m.C.D.E.!.'.{.{.;X1XrXrXpX1XA.K.>.L  .X.T X.>.X.Y Y L L U L L J L U  .,.;X,.l ( Z V x m M ",
"yX].K.z * ; e i m N F :.F.{.vXGXDX<XC.C.Y.).}.{.9XyXrXtXfXaXhXjXfXF.L.,. . .>. .X.>.X.Y X.U L  .L L L L U  .>.<Xm.l ( G B m m m ",
"M 0 0 ; 8 q i v J N.Q.tXAXGXmX1XY.D.D.).|.yXyXmXfXBXMXCXDXDXDXDXCXY.!.m. .U  .>.T Y Y Y  .U T U U L L T  . .,.;Xm.M ' F A m k k ",
"* * 1 1 8 q i >.[.bXHXAXtX`.K.A.K.!.}.yXvXvXNXCXFXFXJXKXLXLXKXLXFX}.}.V.Y M.>.Y  .>.X.Y Y Y T L L L J L Y X.,.;X>.l ( Z M m M z ",
"* * 1 8 8 8 p K.ZXvX[.G.N.1.A.Y.{.{.yXvXAXGXKXLXKXLXLXLXLXLXLXLXPX).E.J i e x D U X.M. .X.Y Y Y U L L U  . .,.<X,.l ( Z B m A M ",
"9 1 ; 1 9 9 e D X... ...N.D.R.}.;XtXMXPXLXPXPXLXKXLXLXKXKXLXKXKXFX .y & % % % % 0 R  .Y T Y T Y L L L P  . .,.<Xm.l ( M m z B z ",
"t 0 9 8 q q t y Z J >.N.G.R.[.{.mXDXJXPXLXLXLXLXFXPXPXPXPXPXDXAX1.2 : ; : - - % % a Y X.U U U U J J P Y U  .,.yX<.l ( Z m m m l ",
"a t p e p a z Z  .N.A.K.R.{.<XfXNXMXDXDXDXFXFXFXDXDXDXDXDXFXKX`.r ; / +.4._ ) / ` ! D o.[ J L L F H K L U { >.<X,.z / B m n m n ",
"D z A A A L M.V.S.R.).'.{.rX1XuXfXjXmXNXMXCXCXDXAXAXAXDXPXFXAXF.3 h 7.&XoXg.w.XXe.| J U U T F L K J I L  .Y ..;X<.l / m m m n m ",
"D k B  .M.D.K.E.!.{.'.<X1XdXuXuXpXfXjXNXZXCXCXDXAXFXAXFXFXFXZXN.5 j 4.c.oX&Xk.j.h.8.{ F U L F L J H D I Y U :.;Xm.z / x n n z k ",
"M J ..P.R.R.R.}.[.:X:XrXrXuXuXpXvXmXNXAXDXDXDXDXFXJXKXFXPXPXFXR.r V 4.g.u.+.` w.' ( O.F U F C I H H H J T L :.;X<.l / B n a a a ",
"N.L.R.}.`.{.;X;X-XuXuXvXfXmXNXAXDXDXPXPXKXKXKXKXLXKXKXPXPXPXKX9Xl J p.d.6.) ` g.' ( O.L T K I H H H L K L P ;.;X>.l / Z m a a z ",
"{.[.).D.U N.rXsXbXZXMXAXDXJXFXKXKXKXKXKXKXKXKXLXKXPXKXPXKXJXHXuX+.+.p.g.u.@.i.XXy.4.8.J F K L F H H K K U L  .{.:.l ( M z u a n ",
",.J m p u :.mXCXCXDXCXAXDXGXAXAXAXAXAXAXDXFXFXFXGXAXFXDXFXFXHX,Xa.6.XXj.XXg.j.g.i.d.7.C F F K I H H H K L L  .[.>.l / B k a a n ",
"y y e e u  .uXzXeXhXeXeXhXjXjXVXxXNXCXCXAXCXCXMXCXMXAXCXMXCXZX,Xw.@.p.&XXXf.i.@.@.i.7.V I J J H K H H H U U  .`. .k / Z n a a a ",
"9 u z m a K uXpXpXaXaXaXaXhXzXjXkXjXjXjXzXZXZXZXVXzXzXzXVXZXVXaXXX@.( u.r.f.u.@.' 6.| B J H L A F F F H P P Y ].>.k B ! l a k u ",
"9 9 8 q t N <XuXqXpXpXiXaXaXaXgXkXjXjXjXmXjXzXjXVXzXzXjXzXVXVXzXcX6.c / 6.@.! > > ! j V H H L K F H H K L L P ].>.h n j l k k a ",
"m.F p t p A yXaXpXaXpXwXaXiXaXaXhXhXjXxXzXzXhXzXhXzXzXzXzXzXzXzXjX$Xf r ! #.g ! ~ ' 5 N A A H R H H G J [ [ P ].>.k v B c k a i ",
").>.A z m I rXcXhXkXaXpXaXaXaXpXaXkXkXjXzXhXhXzXzXhXhXwXpXgXzXVXVXW.h - f @.q.u.4.+.: k H I K H D H K G L L  .]...x l k c h a a ",
"V.L A A H ;.9XhXjXhXhXwXaXaXfXpXpXpXaXaXhXaXaXaXhXaXaXaXaXzXvXtXuX7.! : - ) q.` @.) # r K R A A K D H H H J P _.Y p x a h y u h ",
"<.L A H I ,.9XzXzXzXhXaXaXpXaXpXaXaXaXkXhXhXhXkXkXkXgXaXaXgX<X).yX$X_ , % - ( #./ 5 % w K D D F F R H P } [ [ R.$.b z x g ~ h u ",
"Y K D M.m.S.yXkXhXhXhXaXwXkXhXaXkXhXjXVXzXjXkXjXjXfXuX:X;X<X}.).kXpX6.) - % : : - - 1 m H N D F R D } 6.6.2.:.E. .t h ! E W ^ j ",
"Y Y N.}.|.|.BXfXqXqXqXqXqXqXpXaXkXaXjXzXjXpXrXqXuX9X1X1X1X1X}. XuXNX@X4.] : # # % - ..Y.:.D K R S G 5.+X&Xp.8.!.{ 3 f 5 5 W ^ ^ ",
"Y U ;.S.V.<.>X:X>X:X:X:X9XqX9X:X;X:X9XqX9XrXuXdXuX4X3X:X1X<X{._.yXvX9X6.4.) 6 5 6 j [.yX|.R.1.K F J p.&Xl.+X.X~.P f 5 g 5 W W W ",
"A n n N A D R.=X*X=X=X=X>X:X>X=X=X;X>X=X:XrXsXdXuXuX1X<X1XtXtX<XtXfXfX@X4._ _ @.+.I.:X[.'.rXtX<XL.2.p.oX&X&XXX^.P y f f > E Q W ",
"{ { ;.;. .K R.[.~.!.!.[.{.=X=X[.[.[./.~.;XpXdXdXdXsXuX1XtXuXsXsXnXrXuX=XU.u.y.y.J.>XnX<X-XsX1XuXfX$X.Xg.s.&X+XU.P 3 c g E E E 6 ",
"H.(.G.C.;.J T.!.Q.Q.!./.[.=X*X~.~.~.~.[.rXgXdXuXdXsXuXrXuXuXsXgXdXnXbXfX,X#Xd.+XiXdXtX3X1X3X:XgXpXaXJ.4.h.j.p.U.;.2 a 2 4 5 h u ",
"(.(.(.F.,.L K.R.R.R.!.!.~.[./.~.~.!.~.:XfXfXsXsXuXsXuXtXuXsXdXuXfXSXbXvXhXlX#XwXpXuXsXbXdXdXgXuXiXpX$X8.d.w.p.U.O.h u h u c f k ",
"L.H.3.;.G A A.Q.R.R.!.!.[.[.`.~.[.~.{.uXfXdXsXsXnXuXsXuXsXsXdXuXfXsXnXvXgXVXdXuXfXuXdXdXpXiXgXdXaXfXuXJ.d.y.a.U.$.s s m h k e i ",
"Z.1.:.J B M V.Q.T.R.!.E.!.[.[.!.~.!.:XfXsXtXdXdXuXuXuXsXuXdXdXuXfXpXbXbXsXmXbXvXbXdXvXdXuXgXgXmXaXdXdX$X4.h.q.OXF % $ @ $ = $ $ ",
"J J H C M V F.^.R.R.!.R.Q.~.Q.Q.Q.`.rXmXsXuXdXuX<X:XuXsXdXdXdXdXdXfXdXdXuXjXSXSXdXnXdX>X;XgXdXSXaXgXdX@X4.s.u.OXv           X X ",
"l M N V / j 5.T.E.Q.Q._.].~.^.Y.E.{.jXfXvXdXnXuX2X-XdXdXdXfXbXgXfXfXfXfXdXnXmXmXSXvXsX<X1XuXgXgXVXNXsX-X7.e.u.J.i   X           ",
"W.E.R.Q.H.| H.R.Q.Q.Q.).[.~.T.T.W.[.yXBXvXuXuX:X-X*XtXfXdXbXbXdXfXpXsXfXdXbXbXmXbXnXvXbXdXnXnXnXlXVXjXcX+Xl.q.7.9               ",
"9X9X9X:X5X| L.).W.L.R.L.R.E.Z.L.OXJ.!.}.tXvXfX;X`.5XuXvXdXnXdXdXfXsXsXsXdXbXbXbXbXnXbXgXsX3X1X2XZXZXhXwX&Xj.q.7.*               ",
"Q.W.E./.W.} 1.K.K.G.K.K.R.Y.3.OXx.s.p.7.H.].|.;XF.`.;XtXsXvXdXbXdXgXgXuXdXbXbXmXmXSXdXdXsX3X<XsXBXyX=X@XXXs.y.J.&               ",
":.Y H ,.,.J :.D.V.Z.A.F.K.K.J.OXt.r.k.r.7.H.F.A.Q.-X3XnXsXnXsXvXfXgXsXuXgXdXvXnXbXgXbXbXsX<XW.$X/.J.J..Xd.e.y.6.@               ",
" .Y T D.V.H ;.<.M.m.N.V.C.Z.7.d.r.t.e.w.w.q.5.B.5XuXdXdXsXsXuXsXuXfXfXfXdXgXjXbXmXgXdXnX<X!.2.5..Xa.w.i.s.e.q.4.o         . . X ",
"!.!.!.{.S.M I >.M.>.X.M.>.3.p.s.r.t.0.h.q.@.| K.5X1X3X1X1X1XsXsXsXdXgXdXdXgXmXSXfXdXdX3X;XW.| 5.oXk.w.j.s.h.4.@.=         o o o ",
"(.T.!.{.C.B F ..Y X.{ $.M.5.+Xc.r.t.0.0.+.O. .D.3XdXuX<X2X1XnXsXdXdXdXgXgXgXgXbXsXdX4X3X*XW.] 4.a.e.h.a.y.q.q.6.%         o o $ ",
"G.Z.R.A.>.u D T Y U o.T ..7.XXx.r.t.w.q.| P I D.1XdXlXaXuXdXvXuXdXgXSXvXvXdXbXmXnX4X3X:X*X^./ | i.f.w.s.h.4._ ` %       X . X . ",
"n V N N m n A P T { U T  .7.j.t.s.t.e.w.4.| I D.rXsXbXbXfXdXsXsXvXmXgXdXbXbXdXSXdX3X:X-X`.1.l } d.y.y.y.q.4.4._ $             X ",
"n B k k a e m Y L Y Y T :.7.f.r.s.r.r.r.0.8.| Y.sXbXbXZXbXbXgXSXmXvXfXfXdXbXvXbXsX:X:X*XQ. .z A 6.y.a.u.4._ _ / .   X X X O . . ",
";.;. .C M N Y Y K L T T } 2.4.a.t.r.t.r.h.u.4.OX,X3XnXmXMXbXlXVXmXmXgXgXiXgXnXbXuX3X3X*XR.K v m | q.q.4._ ` _ c O X X X X X X   ",
"m.S.m.<.N M n H N A S R A V / +.y.e.t.r.s.t.e.s.OX$X,XaXgXfXaXpXlXlX4X4XiXgXsXfXtX1X3X*XL.C m n [ @.q._ _ ` _ h O . X X X       ",
"I ;.P P k * ; M B m S Z Z S N N | 4.w.w.r.j.g.e.s.+X#X%X,X,X%X#X#X#X#X%XdXdXfXsXfX<X:X*X3.n k Z K / _ @.` ' / e O . X X X o $ * ",
"2 k a 0 w 1 0 m l S m Z S S S A m V ( ` q.h.s.x.j.oXoXoX&X&X&X&XXX+X@X>XsXfXuXuXuX3X3X-X .p s R Y m V / +.] h a t p N  .N.G.Q.!.",
"* t y u 1 1 t z Z m M G N S S Z S V / / ( _ w.t.x.x.x.l.c.x.x.c.XX&X,X4XnXsXuXiX3XdXsX-XT s s R X.Z u y l l r F.].!.R.Q.Q.[././.",
"t M p w 2 0 0 m m m Z A A F D M M Z m m D V | 5.p.g.f.j.c.&X&XoXg.XX@X,XiXgX1XtXuXuX1XG.M x J Z.U.;.v 4 f : p 3.(.3.1.3.(.Z.3.A.",
"u L D B a a y M D A N D D A A A A m S M l B.@X2./ +..Xf.j.j.oXs.w.y.p.@X,XpXuXiXsXpX<X>.u z ;.{.0X(._.I.+.2.F Y M.>.H D.F.>. .;.",
"a ;. . .L  .[ N.V.J A D K K F A A m m M H {.9XF.:.V | .Xf.oXj.y.0.0.7.@X:XrXuX4X:XuXrXN.J  .Z.=X/.$XvXxX0X6Xb.!.E.S.U.yX=X3.[ N ",
"M $. .L K J J :.>.:.L L U D A K A A x k :.;X]./.).A.,.#.6.p.y.q.q.u.OX>X1XsXsXdXfXyX1X-X<X;X0X0Xz.z.%Xv.=.*.=.n.*.=.=.v.6X[ B x ",
"H P P J L J J .... ...<.:...Y J A H A N A.1X`.!.Q.`.P...} 8.+.@.#./ V S._.}.L.Z.o.:.1.L.}.kXeX/.9.9.%.&.*.*.v.v.b.n.8Xn.v.b.M...",
"Z.Z.1.1.2. .J { ....{ ..V.C.:. .I H D V R.uX'.Q.^.L.F.F.1.2.2.5.O.3 @ @ = % 2 a L 1.A.Q.!.{.eXeX0XkX>X6X=.*.n.7X7X8Xb.b.0X9X<.N.",
"S.G.G.G.F...J [ } { ....{ ..,.>.,.[ D C _.<X!.!.L.~.Q.G.K.A.N.Z.I.V.<. .{ V.K.Y.K.A.F.T.G.;.<.!.2X0XpXeXeXn.=.-.eXb.%.4 d R l M ",
"Z.Z.H.G.F.:.L  .:...:... .{ ..:.:.:. . .'.-XG.N.G.K.Q.L.L.L.T.S.A.A.H.W.L.L.R.Q.T.F.Z.3.K. .a m { S.D.@XuXNXeXeX0X/.3.:.D p 8 & "
};
