/* XPM */
static char *waka50_jpg[] = {
/* columns rows colors chars-per-pixel */
"64 64 251 2 ",
"   c #020202",
".  c #0B0B0B",
"X  c #05080B",
"o  c #181817",
"O  c #12130E",
"+  c #221A17",
"@  c #28221B",
"#  c #39251E",
"$  c #292824",
"%  c #382B24",
"&  c #3C3730",
"*  c #49382D",
"=  c #453C35",
"-  c #4D302B",
";  c #45423C",
":  c #4A453B",
">  c #584538",
",  c #68483C",
"<  c #74473B",
"1  c #64553E",
"2  c #494542",
"3  c #4D4A44",
"4  c #4B4645",
"5  c #534C44",
"6  c #524E4A",
"7  c #5C4D43",
"8  c #5A554C",
"9  c #5D594D",
"0  c #565249",
"q  c #5B5653",
"w  c #5D5B54",
"e  c #595A55",
"r  c #4F5245",
"t  c #6C4B43",
"y  c #664C44",
"u  c #734945",
"i  c #64554C",
"p  c #66584C",
"a  c #77574B",
"s  c #635C54",
"d  c #6B5B54",
"f  c #635D59",
"g  c #6A5E5B",
"h  c #645652",
"j  c #785B54",
"k  c #5F665A",
"l  c #636156",
"z  c #65625B",
"x  c #6A645C",
"c  c #6C6A5E",
"v  c #686458",
"b  c #74655B",
"n  c #7C635C",
"m  c #726B5E",
"M  c #776455",
"N  c #76725D",
"B  c #625D61",
"V  c #6B6661",
"C  c #6D6A63",
"Z  c #676665",
"A  c #726C65",
"S  c #736E69",
"D  c #796965",
"F  c #7A7166",
"G  c #76716B",
"H  c #7A756D",
"J  c #7D786E",
"K  c #767167",
"L  c #7C7670",
"P  c #7E7972",
"I  c #757174",
"U  c #6D6D6D",
"Y  c #5A6168",
"T  c #AB2F33",
"R  c #A5292A",
"E  c #85413C",
"W  c #BC3C43",
"Q  c #875249",
"!  c #98654C",
"~  c #856958",
"^  c #976A57",
"/  c #8A7056",
"(  c #A4664D",
")  c #A46C57",
"_  c #A5745A",
"`  c #B7785B",
"'  c #B66D5A",
"]  c #866A64",
"[  c #866963",
"{  c #82766C",
"}  c #827A6D",
"|  c #8A7967",
" . c #9B7665",
".. c #827C74",
"X. c #897F74",
"o. c #847E78",
"O. c #A97964",
"+. c #BB7C63",
"@. c #B77A66",
"#. c #AE4A48",
"$. c #C17D6A",
"%. c #BBBE2F",
"&. c #BECD0C",
"*. c #C8D403",
"=. c #CCD416",
"-. c #D4E009",
";. c #C9D424",
":. c #CAD536",
">. c #E0D432",
",. c #B7825D",
"<. c #848176",
"1. c #8A8275",
"2. c #86827A",
"3. c #8C847A",
"4. c #8A897C",
"5. c #91867C",
"6. c #938A7E",
"7. c #978678",
"8. c #928A6D",
"9. c #B98668",
"0. c #B98C76",
"q. c #AF8B74",
"w. c #B5AF71",
"e. c #B1AB51",
"r. c #C88A5D",
"t. c #D18A5B",
"y. c #C38464",
"u. c #CB8565",
"i. c #CC8C64",
"p. c #CB8C6A",
"a. c #C68A69",
"s. c #D18D6A",
"d. c #D48C66",
"f. c #CD936C",
"g. c #CA9267",
"h. c #D39165",
"j. c #D3936B",
"k. c #DA9469",
"l. c #C78C73",
"z. c #D28C72",
"x. c #CC9574",
"c. c #C99779",
"v. c #D49572",
"b. c #D89978",
"n. c #E29B77",
"m. c #CEA574",
"M. c #E2A17B",
"N. c #D4D151",
"B. c #E3D356",
"V. c #7C8280",
"C. c #8C8983",
"Z. c #938C83",
"A. c #968B82",
"S. c #9B9285",
"D. c #9B958A",
"F. c #9D998D",
"G. c #959185",
"H. c #9E9B92",
"J. c #9A9892",
"K. c #A2968A",
"L. c #A39A8D",
"P. c #AA9B8C",
"I. c #A59586",
"U. c #B89986",
"Y. c #A49D93",
"T. c #AA9E93",
"R. c #A39C96",
"E. c #B79C91",
"W. c #A5A195",
"Q. c #ACA395",
"!. c #A6A299",
"~. c #ABA59A",
"^. c #ADA999",
"/. c #B1A495",
"(. c #B2A699",
"). c #B4AA9C",
"_. c #BAAC9C",
"`. c #B9A595",
"'. c #B9B29E",
"]. c #B5A88D",
"[. c #AEAAA2",
"{. c #B4ADA2",
"}. c #BAAEA2",
"|. c #B5A9A6",
" X c #B5B1A5",
".X c #BCB2A5",
"XX c #BCB4AA",
"oX c #BEB9AB",
"OX c #BEBAB4",
"+X c #A6B3A2",
"@X c #D49D84",
"#X c #C69C86",
"$X c #C6A38A",
"%X c #C9AA96",
"&X c #C9B499",
"*X c #D7B499",
"=X c #D4A88C",
"-X c #C2B4A5",
";X c #C5B9A5",
":X c #C3B5AB",
">X c #C5BAAC",
",X c #CBBBAD",
"<X c #CBB8A7",
"1X c #D3BCA8",
"2X c #C4BCB2",
"3X c #CDBDB1",
"4X c #C4BABA",
"5X c #D1BEB2",
"6X c #D3BEB9",
"7X c #C2AFA0",
"8X c #D1C88A",
"9X c #CDC58E",
"0X c #E4D898",
"qX c #C9C5AA",
"wX c #D3C3AD",
"eX c #D8C7AA",
"rX c #CCC2B3",
"tX c #CDC5BA",
"yX c #C5C2B8",
"uX c #D3C4B4",
"iX c #D5CAB5",
"pX c #DACDB4",
"aX c #D5C6BA",
"sX c #DAC6BA",
"dX c #D5CBBC",
"fX c #DACBBB",
"gX c #D9C4B5",
"hX c #DDD2BC",
"jX c #D9D2B8",
"kX c #E3CBB9",
"lX c #E2D4BD",
"zX c #EAD4B8",
"xX c #E2D4AD",
"cX c #D5CCC1",
"vX c #DACEC2",
"bX c #DDCEC9",
"nX c #DDD3C3",
"mX c #DCD8CB",
"MX c #CDCBC7",
"NX c #E3D9C8",
"BX c #E3DED2",
"VX c #EADCD1",
"CX c #EBD7CD",
"ZX c #E5E2D5",
"AX c #E5E3DA",
"SX c #EAE5DC",
"DX c #EAE4D7",
"FX c #E6E5E1",
"GX c #ECECEB",
"HX c #E9E9E6",
"JX c #EFEDEF",
/* pixels */
"S S A J } <.<.4.Z.D.T.:X-XuXuX;XQ.A.3.S 3.A.G.A.F.K.Q.T.K.6.X.o.C.I H L o...o.P ..I o...{ I H P L ..P P } ).oXK M ~ l z x Z z C ",
"4.2...H S D A A F ..X.Y.}.:X-X:XK.Z.3.<.Z.A.K.Y.(./.(.(.(.T.K.G.C...L H o.o.........o.......H L H ......<.^.XXA b [ v z g z z c ",
"Y.L.W.Y.R.R.R.D.6.3.H H V h f S ..P L L C.G.~.{./././.P.P.K.S.5.C...L H P ..P ..o...o.P P ..I L G ..o...} Q..Xm n [ x z g z f V ",
"^.^.XX.XXX:XcXcX>XC.w r 3 4 q q f Z w Z x G X.X.6.S.I.P.K.P.L.5.o.L ..I P 2.P P o...o...I ..L L H I P ..<.Q. XA b [ x v g z f c ",
"). X>X2XtXcX:XZ.f 6 3 q e e z f f V V P G G <.2.C.G.G.K.P.Y.S.H 2.P <.P <.<.P 2.o.....P L L J L L L P ....Q..XS n ] v l g z z A ",
".X{.>XtX.XC.g 4 4 q q h V x C m D I o.G.2.4.D.Y.F.W.^.).}..X{.6.G.4.P <.P <.P o.....o.P L L H P H H L H } W.}.S n ] v z B z z A ",
".X2XXXC.q 4 3 6 q x A A } 1.6.G.Z.Z.D.D.G.J.!.~. XoX:X>X<X>X3X/.F.C.H P P P o.P ....o.L L L I L F J L H } W..XS n [ x z V k z C ",
"2X4.6 = = 6 q w c C } 6./.qXBXmXF.Z.D.Y.[.oXoXyXrXrX,XuXuXgXiX(.H.G.H <.P P o.P ..L L L G L G J G H P ..J W.{.S ~ [ x z B z z C ",
"U 6 & 2 6 h b F 3.D.XXnXBXSXcX{.J.H.[.oX2XtXtXtXiXdXdXnXmXnXnX'.F.G.H P o.L L P P L L L H L H L F P L J <.Q.[.A ~ [ V x z f f C ",
"& & 2 6 w x 3.Q.tXVXDXvX4X(.D.Y.Q.>XrXiXtXvXmXMXAXZXZXFXSXDXDXoX{.W.J <.P L L P P L P L L L I J H P L ..} W. XA ~ [ z z z l v Z ",
": ; 3 3 3 4.dXDXBXtX).F.G.D.W. XyX>XMXBXZXFXFXGXHXGXGXJXJXGXHXMX XW.P P P L P P o.P P P L L G J H H P ....W.[.A j [ f g z z f C ",
"3 & 4 3 r 2.|.^.Z.Z.3.6.Y.~. XoX|.XXOXmXGXFXJXGXGXGXGXJXGXGXHXMX^.H.J ..C.P o.P o.P P P L L G I H H P X.J W.{.A j [ f f v v x U ",
"4 2 2 2 6 w V S 1.o.Z.Y.~.|.R.A 5 : 7 x Y.mXSXJXGXHXGXHXHXFXSXOX!.J.P P o.P o.o.o.P P L H I F L H H <.<.} ~.XXC j n f z f z v Z ",
"6 6 6 6 q q V P 2.Y.Y.{.|.X.7 = = : * = = 9 F.AXZXAXAXZXZXAXZXoX!.H.P o.o.P P P o.P L H G H H L F J ..P H ^.XXC j n l z f l f Z ",
"f f Z B x J Z.G.Y.^. X2XK.7 * 7 ~ ~ ~ ~ , > p yXBXBXBXAXZXZXZXqX!.H.P P o.P P P P L I H G H S H H F P P H W.{.A j ~ z f l w d Z ",
"x A L 2.D.R.Y.~.).XX>X>X7.> > n s.z.p.a.@._ / ].ZXBXBXAXAXBXBXoX!.J.P P o.P P P P P L I G G S I H J L L } Y.{.A a D l z v w g Z ",
"m 2.F.!.W./.'..X:XqX<XsXX.i y ] v.b.v.s.p.i.9.=XDXDXmXZXBXmXNXoXY.F.L L L L P P L J L H H G S H H G H H J W.+Xc Q m f f g l w C ",
"S.^.!.{.}.>X>X>XrXiXdXdX3.y j  .f.b.x.l.s.p.9.`.SXAXAXFXAXSXAXyX~.W.P P L L J H L H I H S G H I G G H H J W. Xv ~ b z f s h w C ",
"_..XQ.^.>X2X4XtXhXhXmXmXP.j ~ O.b.v.9.` y.y.) I.HXGXHXJXGXGXGXMX!.Y.L L L L H P L I J S S S S S G H J J J W.{.v Q n v f h w w c ",
"6.J v H aXfXNXVXZXBXZXZX$XO._ @.@Xu._ ! +.` ( 7.AXFXAXSXFXHXSXMX!.R.L L L L H H L F I H G H S H G H P J J W.^.v j b f w 8 w f x ",
"5 3 q F mXnXNXNXNXCXmXzX@Xx.9.l.b.d.` @.z.$.( q.NXDXBXZXZXDXDXtX!.R.P P I H H F H G P L I J S H S C K J H F.!.l j M d w w f f f ",
"f q q A uXhXpXeXdXhXpXkX@Xv.9.0.b.n.p.z.z.z.9.l.pXNXlXhXhXNXnX>XH.J.G L J J J J L G J I G S A A G S K H K D.!.l n M d f w f s s ",
"5 f w x <XiXpXjXpXjXsXzX*Xc.) ^ 0.v.u.@.@.+.` 9.uXlXlXlXlXlXhX;XH.F.H L G G S S S S G G G G S G G G G H J F.!.c g j a l 8 f s w ",
": 5 0 s rXuXpXiXeXdXdXxXeX*X_ a ^ +.+.@.) ! ( O.;XlXlXzXlXlXhXqXF.F.G G G I G L L G H G G G S G G G H H K F.!.v d d d d w f l l ",
"z w e v 1XwXiXjXeXlXiXdXhXkXU.< = Q $.' @.@.^ ~ <XlXlXiXlXNXhX&XF.F.H H G G S H L G G G G I S G G G H H F T.W.v f f j s i e d k ",
"C V Z C uXlXhXhXjXpXpXpXiXfXP., - u ^ z.) ( ^ a <XpXiXiXjXjXpX<XF.F.G A H H K K G G G S A G S G G G H H G Y.Q.s V w h Q h w q v ",
"V S J P rXhXjXjXhX1XeXkXeXiX%X, * * < +.` ( ^ - ].pXpXiXpXeXpX;XF.F.H H G G K K G S G S A S A G G G H G G Y.W.s w f p u i h e f ",
"C H J 4.rXhXhXzXeX*X=X*XjXjX1X .- % * u ! ! u - } uXlXpXjXhXlX<XL.L.H H S K G H G S G A A S S G A G H H A Y.Y.w h s d , y i w f ",
"P G.H.!.dXjXeXeX@XM.l.%XpXiX*Xb.Q > % % - * # % b ).<XwXwXrXgX;XL.L.H G C U K K G C S S S S S S S G G K A F.W.9 t u E T W Q p d ",
"C.[.OX[.cXfXqX=Xb.b.a.$XpX;X$Xx.a.! y - % # # * } T.(._..X-X:X:X^.F.A G G G G G G C S S S G C G S C C K A F.F.9 u < < T W #.a i ",
"I 2.<.H {.3X<X$Xx.b.p.#X<X,X$Xc.j.9._ Q > - , ~ T.).}.)..X-X;X:X.XP.K G C S G G G C G A S C C G C K C K C F.F.8 y u < E T W Q i ",
"k S S c Y.).&XU.l.c.l.c.%XgXwX&Xc.,.` ) !  .^ q.).).}.}.;X:X;X3X3X^.H G C C S G G A A S V C C G C C C C C F.F.0 t y < R R R Q d ",
"7.6.2.H Q.(.).).`.l.g.l.U.rXcXgX6X%X0.+.+.O.O.%X}.-X.X-X-X:X:X3X,X-XW.S Z c C I U A A C C C c C C C C U C G.Y.8 y u Q E E u t h ",
"P.D.P z S.Q.^.Q.I.l.g.f.0.}.MXiXtX3X&X%X%X$X`.<X<X:X:X-X:X:X>X,X,XrXoXC.x F A S S S G A C C C C C C C C C L.F.i 8 i t < , 7 0 q ",
"S.S.C.P Y.).).(.'.@Xv.x.0.`.3XrX4X3XrXqX,X<X<X,X3X3X3X,X<X>X,X3X,X3X4X'.K D A c S A G C C A Z C c C C V C F.D.f e 8 p p p 8 e k ",
"G.J v h 6.Y.|.:XtX*Xx.z.x.%XuX2X3X3X3X3X<XrX,X,X3X3X3X3XuX3X3X3X,X:X,X>XD.S A N C C S A C C C C c C U C c F.F.h w 8 i p h h q q ",
"2.K v b S.|.6XdXuXeXc.v.x.$X,XtX5X3X5X5X<X5X5X3X3X,X3X3XuXaXuX3X<X,X3XuXoXV.U A C V C C C C V C c C V A x G.L.& $ @ $ + @ $ $ $ ",
"c m b M 5.:XcXvXcXuX@Xv.j.c.&X6XrXrX5X,X,X,X<X>XuX3X,X3X5XaXuX6X,X5X3XdXyXG.C A C c C C C A V V v C V x v D.S..           . O O ",
"H F M M 7.,XvXgXfXuX@Xj.j.b.%X3XuXuX5X5X3X3X,X,X5X3X,X3X3XuXuXuX,X,X:XyX&Xq. .C C C C V V C V A V U V V v G.4.      X           ",
".X_.U. .I.,XvXfXkXiX=Xv.j.z.#X:XgX5XrX,X3X3X,X5X,X3X,X3X5XtXuXgX,X<X>X+XI.p.9.C A C C C V V c C x z z V z C.I                   ",
"wXwX.X7.L.>XfXnXvXsX=Xj.x.j.v.%X3X3X,XrX3X5X,X,X,X,X,X3X3X,X3XrXwX.XA.0.a.h.a.,.m Z U m b U z x Z z z z v C.k                   ",
"S.L.G.H <.).vXdXvXfX=Xk.v.j.z.#X<XuX<X3X3X5X,X,X,X5X5X3X5X3X3X,XrX_. .9.p.j.f.a.| c Z A x Z z x x z k z f 4.q                   ",
"c <.4.H H T.dXfXvXnX*Xj.k.v.v.x.&X1X>X3X3X3X,X<XuX3X3X5X5X,X,X,X6X&XO._ r.f.g.h.9.] V C v x Z x x v f z f <.6                   ",
"4.F.J.C H C.:XcXdXnX*Xj.d.v.v.j.E.1X,X,X3X3X5X,X,X,X,XuXgXuX3X3X6X<Xq.( ` i.r.i.g.O.A Z z v x z x f k z l <.2   X     X . . X   ",
"'..XL.9 A o.Y.cXvXgX$Xj.h.v.v.h.0.*X,X>X,X<X5X3X3X3XrXrXuXuXuXrX,X,X`.^ _ i.r.u.d.9.] v c l x Z f z w k f X.&         . o o o O ",
"_.'.G.s A o.2.4XdX&Xc.f.k.f.f.k.l.$X,X3X,X,X,X3XuXuXgXuXuXgXuXuXwX3X4X| ! ` r.i.d.p. .d z c f z f k w f g ..$         O + $ $ $ ",
"6.S...f x P J R.<X@Xf.f.k.f.f.j.g.c.<X<X<X<X,X3XuXiXgXuXuXuXgXgXsXrXtXD.~ ^ ,.g.g.r.9.M Z z f z f f f d d ..+           . . X X ",
"v v w q z H H ..`.b.j.g.h.h.b.j.d.0.<X,X,X5X3X3XuXrXuXuXrXgXdXgXsXgXuXXX} | ,.t.f.h.g./ z Z v z q f d d d { +             X X . ",
"9 p 9 0 l I H A 7.b.h.g.g.s.h.i.a.9.%X,X<X<X3X3XuXuXuXuXsXgXgXgXgXdXsX6XW.M 9.d.j.g.r. .w z k Z Z f d a y n o   X X X X . .   O ",
"1.J v K P H A H J l.h.r.p.u.p.a.a.9.`.,X>X<X,X,XuXuXuXgXaXgXgXdXfXuXuXsXoX1._ i.i.g.h.9.b v l w v q a a y x + . X X X X X X   . ",
"1.1.c e q U C x N 9.i.i.p.u.p.y.y.9.U.<X3X,X,X<X,XuXgXiXaXaXgXgXgXgXiXdX5XP./ 9.j.h.p.y.M Z M l f s t t 8 w o X X X X           ",
"K c w ; = V z V x  .$.y.u.p.f.9.i.a.U.<X3X,X,X,X<X,XuXdXdXdXaXdXcXhXfXuXsXrX| O.r.t.p.f.] Y J v w f t u 0 r o . . . O o $ = 5 i ",
"w : 3 ; 2 v w z z ~ _ @.` u.s.y.$.l.U.<X3X,X,X,X<X,X5XgXdXdXcXdXiXfXdXhXlXdX6./ ,.u.u.r.~ Y P U e q j ~ 5 z 9 x H <.6.W.).'._.P.",
"8 5 ; 2 6 z Z z Y c N / _ 9.u.y.+.c.U.<X,X3X<X3X,X,X,XuXgXfXfXfXfXfXdXvXrXF.J v / r.g.r.q.U <.H w 8 i n : 6..X).Q.).^.'..X)./.K.",
"l 0 ; : 3 e V v C k c n N  .) _ 0.`./.;X,X5X3XrXuX5X5XuXuXdXfXhXfXnXnX}.3.: i A v _ t.r.0.I.^.L.A s 7 y : 8.Q.G.4.G.L.S.G.G.G.Y.",
"m x z z w S A C S K A S S m M b _.>X).>X5X5XaXtXaXsXgXdXdXfXpXiXgX'.A.b c : X.C.H / t.g.c.&XqX].`.).6.7.<.<.1.<.L 6.Q.4.H P Z.2X",
"<.} 1...F 3.5.] N C A A A c c V [.cX2X:X3XuXgXgXgXdXgXNXvX,X:XK.{ m > 0 l 6.K.Q.G.1.g.k.v.m.&X%XnXzX8XN.N.qX^.w.w.8XiX1.H c 8 B ",
"H A F F m X.1.{ J H H H K A c c Z.cXNXcXtXdXfXgXcXaXiX).3.x 5 * @ & 5 } 6.L.L.P.P.`.M.b.b.m.w.m.m.N.:.=.:.N.=.*.&.:.9X8.N f & $ ",
"} { } F K { } X.1.1.3.<.H F C A } Y.|.3XcXsX,X:XR.H 8 $ + @ + + # p S.).Q.L.Q._.D.P.c.b.b.m.e.e.8.e.-.&.*.&.&.*.*.*.;.e.| 1.H H ",
"G.A.6.} F F } X.{ 1.6.A.Z.X.H A A 3.Z.A.D.S.5.5.x = ; 0 9 9 f H S.Q.).Q.Q./.Q.P.R.q.b.M.M.m.9XxXqX9XN.*.-.N.N.;.=.%.w.| 1 5.&X,X",
"K.L.K.X.F { } X.X.X.} { ..5.X.} G ~.2X}..XXX(.Q.L.Y.T.Y.W.{.).(.).Q.Q./.].P.Q./.T.9.b.n.b.b.=X4XiXiX0XB.>.>.0XeXw.].'.R.C.<.I l ",
"S.L.K.1.{ } X.1.X.X...X.X.X.X.X.3.(.|.}.:X:X{.{._.`.T.(.Q././.Q.Q.K.P.(._././.).Q.a.n.n.M.n.$X<.8.[.~.OXiXxXSXCXMXmXoXOXOXOX..z ",
"I.L.L.5.} X.1.3.X.5.5.3.X...X.5.X.}.}..X:X:X.X}./.}._._.)._././.L.Q./.)./.).Q./.I.a.v.b.b.k.b.N f X.5.D.6.F.].qXjXmXjXeXhXiX4XqX",
"K.P.Q.S.1.1.5.3.5.5.1.5.5.5.3.X.S.3X:X-X}.}.}.}.}.).Q.~.Q.}.)./.T./.)._././.^./.Q.b.` b.b.b.y.B 7 8 X.E.7.{ } G l V 1.3...| A 5 "
};
