/* XPM */
static char *waka35_jpg[] = {
/* columns rows colors chars-per-pixel */
"64 64 255 2 ",
"   c #020202",
".  c #08080A",
"X  c #080D11",
"o  c #0E1313",
"O  c #181816",
"+  c #0D110B",
"@  c #271C18",
"#  c #27241C",
"$  c #34271B",
"%  c #282525",
"&  c #382B26",
"*  c #3B352A",
"=  c #3D3A35",
"-  c #4A3629",
";  c #453B35",
":  c #50362D",
">  c #422C17",
",  c #44423C",
"<  c #4A453D",
"1  c #59463D",
"2  c #564932",
"3  c #68493B",
"4  c #78493B",
"5  c #453542",
"6  c #454342",
"7  c #4A4642",
"8  c #4C4943",
"9  c #4C494A",
"0  c #514D4A",
"q  c #544C45",
"w  c #54524B",
"e  c #5A544C",
"r  c #5D5A4E",
"t  c #585447",
"y  c #565451",
"u  c #5A5652",
"i  c #5D5B53",
"p  c #5C5D57",
"a  c #4F584B",
"s  c #6B4B43",
"d  c #754C46",
"f  c #645D4E",
"g  c #67554A",
"h  c #75574A",
"j  c #635D54",
"k  c #6B5D55",
"l  c #645E5A",
"z  c #6A5E59",
"x  c #645555",
"c  c #775B53",
"v  c #5C6255",
"b  c #68614F",
"n  c #636255",
"m  c #6B6255",
"M  c #65625B",
"N  c #6B645D",
"B  c #6D685E",
"V  c #67695A",
"C  c #72645B",
"Z  c #756859",
"A  c #6B6561",
"S  c #6D6A62",
"D  c #676863",
"F  c #726D64",
"G  c #736F69",
"H  c #766963",
"J  c #6D7168",
"K  c #757166",
"L  c #797266",
"P  c #76726B",
"I  c #7A746C",
"U  c #7D796E",
"Y  c #7C7671",
"T  c #7E7972",
"R  c #7A7875",
"E  c #7D6C74",
"W  c #8D3836",
"Q  c #AB3336",
"!  c #C82132",
"~  c #8F413D",
"^  c #875A4F",
"/  c #8C4F49",
"(  c #B34548",
")  c #95644D",
"_  c #86665A",
"`  c #89655C",
"'  c #8A6A5C",
"]  c #886653",
"[  c #926B59",
"{  c #996B56",
"}  c #98725B",
"|  c #8D6C54",
" . c #A56D55",
".. c #A97559",
"X. c #B67B5A",
"o. c #A06F4F",
"O. c #827A6E",
"+. c #87766B",
"@. c #9C7864",
"#. c #827C73",
"$. c #837D79",
"%. c #897D77",
"&. c #966F65",
"*. c #A67B65",
"=. c #B77A64",
"-. c #C97666",
";. c #7C8372",
":. c #B7C436",
">. c #CDD30C",
",. c #CAD333",
"<. c #E4D927",
"1. c #BD825B",
"2. c #B1974E",
"3. c #858175",
"4. c #8A8275",
"5. c #86837A",
"6. c #8B857B",
"7. c #8D897D",
"8. c #888975",
"9. c #928A7D",
"0. c #978778",
"q. c #928975",
"w. c #A7826C",
"e. c #B8866A",
"r. c #A88978",
"t. c #B89279",
"y. c #AD9175",
"u. c #B1AF62",
"i. c #C6895C",
"p. c #CB975E",
"a. c #CB8C63",
"s. c #C4846C",
"d. c #C58B6B",
"f. c #C68967",
"g. c #D28A68",
"h. c #CE9163",
"j. c #CA936B",
"k. c #D3936C",
"l. c #D79467",
"z. c #C68D73",
"x. c #C79479",
"c. c #D49572",
"v. c #D49A73",
"b. c #D99978",
"n. c #D48B72",
"m. c #E49A78",
"M. c #CBA779",
"N. c #C5BA47",
"B. c #B5C67F",
"V. c #D1D94D",
"C. c #D4D468",
"Z. c #E6D776",
"A. c #8E8A82",
"S. c #8B8780",
"D. c #938D83",
"F. c #988A84",
"G. c #959285",
"H. c #9A9286",
"J. c #96928A",
"K. c #9B948A",
"L. c #9D998E",
"P. c #9E9B91",
"I. c #9A959C",
"U. c #8E9283",
"Y. c #A39586",
"T. c #A19589",
"R. c #A39A8D",
"E. c #A99C8D",
"W. c #AA9481",
"Q. c #B59989",
"!. c #A49C92",
"~. c #AA9D93",
"^. c #A99D98",
"/. c #A18F83",
"(. c #A9A18E",
"). c #A5A294",
"_. c #ABA295",
"`. c #ADA59A",
"'. c #ADA99D",
"]. c #A6A399",
"[. c #B2A69A",
"{. c #B2AA9D",
"}. c #BBAB9E",
"|. c #B4A697",
" X c #B9B19C",
".X c #ACAAA3",
"XX c #B3ACA2",
"oX c #BAAEA2",
"OX c #B5A9A8",
"+X c #BBB2A5",
"@X c #BCB5AB",
"#X c #B9B5A9",
"$X c #BEB9B1",
"%X c #C89B84",
"&X c #D69C84",
"*X c #C8A999",
"=X c #D6AB95",
"-X c #CDA991",
";X c #C5ADA2",
":X c #C2B4A5",
">X c #C4B6AA",
",X c #C4BAAC",
"<X c #CBBBAD",
"1X c #CAB7A7",
"2X c #D4B9AA",
"3X c #C5BCB2",
"4X c #CCBDB2",
"5X c #C6B5B2",
"6X c #D1BEB2",
"7X c #DEA7A2",
"8X c #E19E83",
"9X c #D6D28C",
"0X c #CCC1AE",
"qX c #CAC5AA",
"wX c #D3C4AE",
"eX c #D5C9AE",
"rX c #DAC8A6",
"tX c #CDC2B3",
"yX c #CCC4BA",
"uX c #C6C2B8",
"iX c #D2C3B5",
"pX c #D6CAB3",
"aX c #D9CCB4",
"sX c #D4C6B9",
"dX c #D5CABB",
"fX c #DACBBC",
"gX c #D9C4B7",
"hX c #DCD2B6",
"jX c #DDD3BB",
"kX c #D7D4BC",
"lX c #D9D3A7",
"zX c #E1D4BC",
"xX c #E7C8BE",
"cX c #E4DF9A",
"vX c #C9CBC5",
"bX c #D5CDC2",
"nX c #DBCDC2",
"mX c #D1C5C2",
"MX c #DCD3C2",
"NX c #DCD5CB",
"BX c #DED9CB",
"VX c #D8D4C7",
"CX c #DFDBD0",
"ZX c #E2D5C4",
"AX c #E2DBCD",
"SX c #E5D6C6",
"DX c #E3DCD2",
"FX c #E6DED5",
"GX c #E0CEC0",
"HX c #E8E3D9",
"JX c #E8E2CD",
"KX c #ECEAE5",
"LX c #E9E8E6",
"PX c #E5F2E6",
"IX c #DEE0D2",
/* pixels */
"#X#X.X!.6.$.6.G.R.|.>X,X1X<X1X:X}.R.D.D.T I S F M l i 0 7 , 6 0 K P G P T T T T O.Y #.#.R Y T Y Y I #.#.#.4.3XH.S ` m A S N N N ",
".XJ.S.R $.D.G.G.!.).`.>X<X,X1X2X:X_.R.L.S.6.3.3.6.3.R S N i 0 w T T P R #.Y T T #.O.O.T Y Y T Y Y Y #.#.#.4.3XK.N ] Z M S N z M ",
"$.P G R E G Y #.5.A.G.L.oX6XgXwX1XR.6.3.P 5.H.K.R.R.~._._.!.H.9.6.5.I T $.Y T $.#.#.#.T #.T T Y Y Y #.$.#.4.3XK.N ] Z A N V l M ",
"D.D.D.S.#.#.O.H F K K T K.R.E.E.R.G.9.6.3.D.L.R._.{.{._.|.E.E.R.A.6.R U #.Y T $.#.T T #.T T Y Y Y Y #.#.#.3.,XH.A ` m N N n l N ",
"P.!.).'.'.[.XXXXXX[.J.Y N 0 0 e N H S G G T 7.P._._.~.E.R.Y.Y.F.A.6.T #.#.T T T $.T #.$.T #.O.I Y Y T #.$.%.@XH.N ` C M N n z N ",
"!.!.{.>X,X3XyXbXsX!.N 9 0 0 y u u M l D A A F T #.6.9.H.E.R.!.0.3.5.U T T T T T $.#.T $.#.O.Y I Y Y U #.#.#.$XJ.N ` Z S N z l M ",
"{.#X@X#X$XyX>X^.l 0 7 y j u i A n M M P T T T 5.D.D.D.L.R.E._.H.5.6.$.U T T T T $.T T $.Y I I I I R I I #.T #XL.N ' Z S A n l M ",
"XXXX#X3X@XL.S 7 9 0 u p A F F H G I T G.D.6.G.L.P.^.`.XX#X:X4XXXG.J.6.$.T T T #.$.T T O.Y I I I I Y I R T 3.#XP.F ' Z A N n A N ",
"#X$X#XJ.M , 8 0 u l N H +.4.T.{.XXD.J.A.K.P.].XX@X$X3X4X<X<X1X<XP.G.8.$.Y R #.O.$.T T T I I I I L I L U I $.@XK.A [ Z A z l j N ",
"@X.XK ; = 8 w i N F O.0.|.tXSXHX3XK.D.L.XX#X#XuXtX0X,XpXaXaXaXaXL.).D.#.#.P T #.$.O.T Y I I I I L I I T U #.@XK.N [ C A C N j M ",
"< < 6 6 9 w n B 4.R.#XsXFXHXbX#XP.P.].OXuXuXyXbXhXkXqX X|.|.wXSX.X^.F.Y #.R I R $.Y T Y I I I I I I I T #.3.@XJ.N [ C A N N i M ",
"* , = 9 y w L _.tXAXHXNX>X^.L.L.).#X$XuXvXVXNXIXNX`.f ; ; - q /.D.OXJ.Y U #.R R $.T T T I I I L I I I U #.U >XK.N [ Z M z M v N ",
"* , 6 6 ; u !.AXBXtX[.J.D.G.P.'.$XuXyXNXHXHXLXHX^.1 - ; * $ & $ ; P.J.R R P T $.$.T T T Y E I I L Y Y Y #.O.@XK.A [ C D C A n N ",
"6 , 6 9 7 0 P 3.6.%.#.6.H.!.{.$XuXNXHXLXPXKXKXNXf : ^ ^ ] h 2 - - m S.P T I $.$.$.T T #.I I I I G I Y O.$.#.@XJ.z ] N M z A p N ",
"< 8 6 6 w 8 e F F %.D.!._.'.+XyXIXLXKXLXKXKXKX#Xt s e.x.c.d.X.=...h 6.T T #.Y T #.T T T I P I L G I Y O.$.O.5XK.l ] z M N M n M ",
"w y a w u i A P 6.K.^.].{.$XsXMXFXFXLXLXKXLXLXXXr ^ x.c.k.k.c.n.d.*.+.Y #.I T T T Y Y Y P I I I P G L E #.#.$XK.l ] z l k M j l ",
"l D N B K #.7.L.^.^.XX+X<XtXiXfXMXnXMXBXFXDXDX.Xt } z.n.e.z.n.f.*.*.T T +.T #.T $.T R P P P P P P P I I T #.@XK.k ` b k D M i M ",
"j N P 6.P.!.^.[.oX+X>X,X0X0XiXdXpXdXMXVXAXBXAX*Xc } x.x.*. .s.X.{ *.S.R I T U T Y Y P R P P P P I G I I U #.#XH.N ` f k v l r k ",
"F #.K.^.`.'.{.@X>X,X<X0XiXtXtXdXMXMXBXBXDXCXAX-Xe.e.c.s. .o.z.X.{ *.F.J L Y I Y I Y P P P P P P P P P P Y #.oXH.C ` f N M i r p ",
"R.^.OXXXXX4X,X,X4XtXpXdXMXMXVXAXHXHXHXLXLXPXFX&Xz.e.b.n.z.d.c.n.=.e.9.G I R L Y I E P R P P K P P P P I I #.#XJ.z ` f z M j j M ",
"#XXX'.D.J.,XtXfXbXBXAXDXHXHXHXKXLXLXLXLXKXPXHX7Xs...x.b.g.n.z.n.-.z.3.P I R Y #.P P P P G G P P P P I I U #.@XG.k ` b l p k j p ",
"$.N e e #.dXSXSXBXAXDXHXHXHXHXHXHXHXLXLXLXLXFXGXt.) w.%X-.X. . .=.e.T P L R Y Y P P P I I P P P G G P P I I XX9.M ` b x u i j j ",
"w 8 w t U fXjXjXjXjXMXjXMXMXMXMXNXSXAXBXDXDXDXSXwX] h @.=.=.=.*...) F P L P Y P Y P I P I G G G G F F K P I {.7.M _ f z i e r i ",
"e l D i K tXkXpXaXaXpXaXhXhXaXzXjXzXhXjXSXMXMXZXdX&.: c =.-.=.=.{ 4 V P +.Y I P G Y G G G G G F G F P I I U XX7.l c f A l f f j ",
"6 7 w e N tXpXeXpXpXpXpXpXpXjXjXhXjXMXZXMXMXzXzXeXO.= : ) s. . .{ : k J R G L E P K K P R K F I P K I I I I XX9.M r h h f y V v ",
"D e w w M qXwXwXpXpXpXpXaXpXpXpXhXkXjXjXhXjXjXzXZXQ.: $ - d { { 4 $ q G G G R K I P P S K I F H P G P P P I XX6.x j k _ n e u f ",
"$.D M M L tXaXaXaXpXpXpXpXaXpXaXdXkXjXzXjXjXhXkX:X%X] - # & : $ $ & q L L F T J J G P K S G G L F F P P L P {.7.k n r h g x l x ",
"U G S S O.tXzXzXjXpXwXwXpXpXaXaXpXaXpXeXeXpXkXdX*Xx.d.) 3 - @ $ > 1 H.4.H I D R R J P G S P F F F S P P P L {.7.u v n g g v i e ",
"K B G R 6.sXzXaXjXaXeXeXeXeXrXqXaXaXpXpXpXpXyX3XaX1Xx.f.e.) 3 3 ) ] [.].$.P I F F G P G S K G B K F P K P K '.6.l j g 3 d t t M ",
"P K ;.A.G.0XaXaXhXaXeXeXaXaXaXaXaXzXzXzXMXdX$X.XsXMX:Xx.i...X.=.*.*.}..X].].K.9.I F G S K H V K F S K K K K '.6.a g h W ~ / g r ",
"U S..X$X#XbXdXeXeXpXwXwXeXgXaXaXjXjXfXiXtX3X$X.X5XyXyX*X%Xz.f.g.e.*X>X$X3X>X<X,X@X!.U B G K B K S S J J F K {.9.a h 4 W Q ( / b ",
"R 5.P.P.L.>X0X1X1X1X<X6XiX<X1X<XtXtXtX4X3X3XtX3XwX,X3X3X;X*X%Xz.;X<X4X4X<X6X<XuXtXsX`.I D K G S H A G S S F ].%.q s 3 3 Q Q ( h ",
"M M G G F [.>X:X:X:X:X:X1X:X#X<XiX4X4X4X4X4X4XdXgXiXtXtXtXsX4X<X4XtXiXsXiXiXiXiXsXtXyXH.S S P G G D S G S F _.3.1 3 3 3 Q ! Q s ",
"U I 5.T H ~.oX}. X}. X:X:X}.+X4XsXdX4X6X6X6X4XiXiXiXtX4XtXsXgXsXiXsXgXsXsX6XyX6XsXdXdX@X#.B S S S V H D B G '.3.e d 4 4 W Q W s ",
"Y.H.G.3.S !.{.oX{.{.{.+X+X X>XfXiXsX6X6XiXiXiXpXiXiXiXtXtXiXiXiXsXsXsXsXsX6XiXsXsXdXmXdXR.S S S D B S D S K `.4.w g 3 s 4 d s x ",
"Y.Y.G.8.L L.`.[.[.{.{.oX}.+X4XbXsXsXsX6XyXiXiXiXtXiXiXiX6XiXiXdXdXsXgXdXgXsXdXbXsXiXiXsX,XI S S V D B D S G `.#.r r w g h g e i ",
"Y.9.8.U S ).'.{.`.{.'.XX+X>XiXsXiXsXiXyXsXsXdXtXiXiXiXiXpXiXiXsXfXmXfXnXnXfXfXfXdXiXiXiXdXJ.B V V D A D G S '.4.e u r g k g e p ",
"9.6.Z V f G.'.'.{.XX[.XXoX,XsXiXpXtXiXiXiXiXiX6XwXiXiXgXiXiXtXiXfXgXfXfXfXfXdXsXiXpXiXpXfX#XK D D V N S S B '.3.8 0 ; < ; = = 6 ",
"I U K Z Z Y.[.{.'.{.`.'.XX+XdXdXfXpXiXgX2X=X=X8X*X1X6XiXtXiXiXgXsXsXfXfXfXfXmXgXiXtXiXfXfXyX8.D S N N A N S `.F . .   .   . o O ",
"i C S Z C 0.E._.).`._.{.[.#XdXbXbXiXgX2X=X&Xb.n.;X2XgXiXiXtXiXiXsXfXfXfXnXnXdXsXdX<X<XiXfXbXK.V N V N A N B ].r     .       . . ",
"H.9.Y.r.+.W.[.`.|.[.[.>X}.+XdXgXpXpX6X=X&Xc.c.&X;X2XsXiXtXiXiXiXiXsXfXdXsXsXiXyXyX2X2X6XvX.XJ.Z N D M V M k !.w                 ",
"tXpX<X|.q.R.XX[.'._._.[.~.+XVXnXbXbX6X=X&Xc.x.%X1X2XiXiXiXtXiXiXiXdXmXsXsXsXsX6X,X5XOX.Xy.e.t.w.C p n m M N K.6                 ",
"XX{.+X_.O.H.!.R.P.L.L.~.~.#XbXmXvXmX2X8Xm.c.x.-X<X<X<X4XiXiXwXiX6XdXfXfXsXiXyX6XtX^.%.r.f.l.l.f.' p M m l v G.=                 ",
"6.O.8.9.F 4.J.L.K.T.!.^.!.'.,XoXoXoX-X&Xb.v.%X*X>X1X>X4XtXiXiX6XsXsXfXdXdXsXdXiXtXr.[ z.l.h.k.c.w.M v k l v S.%                 ",
"B L 7.G.F #.A.D.F.F.K.U.9.(.-X-XQ.x.%Xz.e.w.Q.*X;X>X4X4X<XiXgXiXdXdXfXfXfXsXsXiXsXr.) X.d.v.g.h.z.Z r f l M 5.%           .     ",
"_.'.#XK.V P 5.4.5.$.S.S.8.t.b.m.b.b.c.e.@.*.Q.;X>X4X6X4X6XiXsXiXsXfXfXnXfXmXgXsX6X/.' ..1.h.h.l.k.+.b j l N T O         + O O o ",
"(. XXXG.k P 5.$.;.T 5.5.8.t.b.l.v.v.g... ./.*X6X4X6X4X6XiXiXiXiXsXgXmXfXfXfXfXgXiX].F { X.i.i.h.l.w.n j M N I o         o O % % ",
"(.{.`.4.e G T Y I O.%.3.+.t.v.p.b.l.s...*.Q.6X6X6X4X4XtXiXiXsXsX6XfXfXfXfXfXgXsXwX XV Z { X.i.h.h.e.b r p k H o       . o O O o ",
"L I P F w F U O.L $.Y #.4.t.v.v.k.d.=...*.*X4X3X3X5X4X3X4XiXiXsXsXsXgXfXfXfXfXfX4X<XU M ] f.h.h.a.e.n p j ] _ .             . . ",
"n t t t e N P U L R Y T O.t.l.l.f.X... .*.Q.;X;XoX>X4X4X4X<X4XiXsXgXdXfXfXfXiXiXbXsX9.n ' i.i.h.h.e.k z c h k .           . X X ",
"3.P F v N F P #.I Y Y $.%.r.g.i.X.X. .{ *.r.|.[.[.:X4XtX6X<X6XiXsXdXfXxXaXfXfXaX6XgX`.V [ d.i.i.i.e.m c d g M X . . X X X X     ",
"J.7.3.S B R G S L J G P K @.i.X... .{ { w.y.E.*XoX>X<X<XiXiXiXiXiXfXfXfXgXfXfXfXfXxX>XV } f.i.f.a.} g d g g a X X X . .         ",
"8.#.;.r = 7 l D l A S N M +.e... .) ^ ' 0.~.Y.oX1X<X<XiXiXfXgXiXiXiXfXfXfXfXfXfXiXgX:XZ } 1.1.a.f.' p d g w 7 X . .         + O ",
"n r t 0 , 0 M l l A A N D L ..| ] ^ c Z +.{.(.[.+X<XiXiXfXfXfXnXfXfXfXfXfXfXfXnXfXfX0XU ) 1.i.a.e.Z w d t a 9 @ % = 8 p S #.A.F.",
"j e 8 8 , < V M M D H N J C Z h g c k N L `.:XoX:X<XtXtXiXdXdXnXZXfXfXpXfXfXdXsXMX1XR.L } a.h.a.} t y ` b a D.(.(._.|. XoX:X:X+X",
"u e 8 , < < V N M D S D J D Z N k A M J D 9.oX<X0XsXsXiXsXnXnXnXSXZXZXdXfXdX4X XF.1 & f r.k.h.j.} p 9 s 2 r ~.|.(.E.E.(._.~.Y.9.",
"I N f t t t m N N B B F F G S A N N j A N F m V ).,XyXmXbXbX3X`.!.^.9.q.P S w * $ ; : ..k.l.l.M.8.I.B n g u 8.9.$.F 0.0.9.4.7.I.",
"O.O.#.I L F 3.8.L F F S G S D N N N M l G {.!.O.G B H D.G e q , ; = * & * * @ # < b } t.v.v.v.-X*XaXSX3X X_.).G.J.K.#XoXD.U K P ",
"O.I O.U I L 8.7.L L I I I P G B S l M M G oX#X{.'.R.4.D.j ; & % O @ O # @ ; n ;.0.t.v.v.v.b.b.M.*XrXC.,.,.V.9Xu.:.:.9X{.H m 7 * ",
"%.I L L L L U 3.4.%.%.#.O.I K G K M M M %.+XoXoXXX+X'.].!.'.!.^.L.6.F #.6.L._.y.c.m.m.b.8X8XM.u.2.2.N.<.>.>.>.>.>.>.V.V.u.+.E 6 ",
"9.9.9.7.U L U O.O.4.6.D.D.6.U L F B N L _.3X+X[.oX+XXX_.[.[.].'.[.oX@XXX'._.r.t.j.c.m.b.b.b.M.B.u._.C.>.>.>.C.V.V.C.cX9Xy.3._.|.",
"G.T.R.K.O.L U O.O.O.O.4.%.3.4.4.L L S I XX>XoX+X}.}.oX}.[.|.@X}.[.|.}.).G.3.q.t.f.k.j.l.h.c.1XbXkXeXlXZ.<.<.Z.ZXMXcXq.I.'.qX].9.",
"Y.R.R.Y.4.+.O.4.4.4.3.O.O.O.%.%.%.+.K I !.5X[.~.[.oX+XoX[.`.XX`.{.[.R.R.8.U 0.*.e.z.c.g.a.s.@.F.).#XrXpX9X9X9XlX X6.j w 6 a 8 8 ",
"H.T.R.R.4.O.O.6.%.4.4.4.4.4.4.4.%.6.6.6.!.>XK.D.F.!.`.`.{.#X~.[.[.XX{.!.!.~.r.0.@.*.s.s.s.t.c r l 6.9.H.|.oXaXnXaXqXwX#X.X(.8.A."
};
