/* XPM */
static char *waka21_jpg[] = {
/* columns rows colors chars-per-pixel */
"64 64 254 2 ",
"   c #020202",
".  c #050B0B",
"X  c #0B0B0B",
"o  c #0A0908",
"O  c #191817",
"+  c #15120D",
"@  c #241E19",
"#  c #30241D",
"$  c #282523",
"%  c #362D27",
"&  c #39322B",
"*  c #3C3733",
"=  c #352F31",
"-  c #14251D",
";  c #483329",
":  c #443C34",
">  c #463D38",
",  c #4C342D",
"<  c #7A3E36",
"1  c #44423D",
"2  c #4A433D",
"3  c #4F4337",
"4  c #58483D",
"5  c #68493B",
"6  c #79423B",
"7  c #7A7E27",
"8  c #464342",
"9  c #4A4642",
"0  c #4D4A45",
"q  c #4E4B4A",
"w  c #524E4A",
"e  c #564D45",
"r  c #56534C",
"t  c #59544C",
"y  c #5B5A4E",
"u  c #575447",
"i  c #5B5551",
"p  c #5D5A53",
"a  c #575855",
"s  c #564F56",
"d  c #674C45",
"f  c #784744",
"g  c #67574B",
"h  c #775446",
"j  c #625D53",
"k  c #645E59",
"l  c #6A5B54",
"z  c #745652",
"x  c #646156",
"c  c #6A6156",
"v  c #65625C",
"b  c #6B645C",
"n  c #6C695E",
"m  c #666A5A",
"M  c #726455",
"N  c #71645C",
"B  c #77685C",
"V  c #776E52",
"C  c #666562",
"Z  c #6A6561",
"A  c #6D6A63",
"S  c #6D6C69",
"D  c #686967",
"F  c #736C64",
"G  c #796D64",
"H  c #746E69",
"J  c #786965",
"K  c #757166",
"L  c #797266",
"P  c #76726A",
"I  c #7A756C",
"U  c #7D786E",
"Y  c #77796E",
"T  c #7B7771",
"R  c #7E7972",
"E  c #767772",
"W  c #717071",
"Q  c #5E605F",
"!  c #893B35",
"~  c #AB3034",
"^  c #C5383B",
"/  c #C33D44",
"(  c #875A48",
")  c #985146",
"_  c #946A4C",
"`  c #856858",
"'  c #986C56",
"]  c #9C735A",
"[  c #8F6A57",
"{  c #A86B57",
"}  c #A6745A",
"|  c #B5785A",
" . c #AD6849",
".. c #8C6562",
"X. c #876A66",
"o. c #936E66",
"O. c #906A69",
"+. c #82756C",
"@. c #81796E",
"#. c #867566",
"$. c #977767",
"%. c #837C74",
"&. c #897F75",
"*. c #847E79",
"=. c #857B78",
"-. c #917D72",
";. c #A77863",
":. c #B77B65",
">. c #B37E71",
",. c #C47966",
"<. c #C07959",
"1. c #CBD914",
"2. c #CDD22C",
"3. c #E8D936",
"4. c #B18C5B",
"5. c #858176",
"6. c #8A8376",
"7. c #86817A",
"8. c #8B847B",
"9. c #8D897C",
"0. c #938A7F",
"q. c #96877A",
"w. c #928C73",
"e. c #B98468",
"r. c #A68977",
"t. c #B98A75",
"y. c #B49079",
"u. c #B1AB79",
"i. c #A49E56",
"p. c #C6875A",
"a. c #C38A6D",
"s. c #CB8B6C",
"d. c #C78867",
"f. c #D48D6C",
"g. c #CB956A",
"h. c #D5956C",
"j. c #C88C75",
"k. c #D48D73",
"l. c #CC9374",
"z. c #C6967B",
"x. c #D39375",
"c. c #D89878",
"v. c #E1987A",
"b. c #CDA573",
"n. c #CCD248",
"m. c #D4D852",
"M. c #E6D347",
"N. c #D5D673",
"B. c #D1D869",
"V. c #897F87",
"C. c #8E8A83",
"Z. c #8C8681",
"A. c #938C83",
"S. c #9A8E85",
"D. c #928B88",
"F. c #969185",
"G. c #9A9286",
"H. c #969289",
"J. c #9C948B",
"K. c #9E998D",
"L. c #9D9885",
"P. c #9C9793",
"I. c #A3978B",
"U. c #A39A8D",
"Y. c #AB9D8D",
"T. c #A39885",
"R. c #B79B88",
"E. c #A49C92",
"W. c #AA9E92",
"Q. c #A49B96",
"!. c #B39992",
"~. c #A7A18C",
"^. c #BBA58D",
"/. c #ACA295",
"(. c #ADA49A",
"). c #A9A599",
"_. c #B2A69B",
"`. c #B4AA9C",
"'. c #BAAD9D",
"]. c #B8A695",
"[. c #B8B39C",
"{. c #AFB68C",
"}. c #ADAAA2",
"|. c #AAA8A4",
" X c #B4ACA2",
".X c #BBADA2",
"XX c #B5B1A4",
"oX c #BCB1A4",
"OX c #BDB5AA",
"+X c #BDB9AC",
"@X c #B6B3AB",
"#X c #BBB9B2",
"$X c #C79B85",
"%X c #D89D83",
"&X c #C7A58B",
"*X c #D4A386",
"=X c #C8AC98",
"-X c #D6AB97",
";X c #CEB396",
":X c #C3ADA3",
">X c #C2B4A5",
",X c #C3BBA6",
"<X c #C4B6AA",
"1X c #C4BAAC",
"2X c #CBBBAC",
"3X c #CAB5A5",
"4X c #D2BDAC",
"5X c #D5B8A6",
"6X c #C4BCB2",
"7X c #CCBDB2",
"8X c #C5BAB6",
"9X c #D2BDB1",
"0X c #D0CF94",
"qX c #C8C2AA",
"wX c #D3C4AE",
"eX c #D6CBAE",
"rX c #CCC2B4",
"tX c #C8C4B8",
"yX c #D3C4B5",
"uX c #D6CAB3",
"iX c #D9CCB4",
"pX c #D4C5BA",
"aX c #D5CBBB",
"sX c #DACBBC",
"dX c #DAC4B8",
"fX c #DDD2BC",
"gX c #D7D3B5",
"hX c #D3D4A8",
"jX c #E2D3BB",
"kX c #E5CFB7",
"lX c #E7E2A7",
"zX c #EADC99",
"xX c #D4CDC2",
"cX c #DCCDC2",
"vX c #D7C5C1",
"bX c #DCD2C4",
"nX c #DBD5CA",
"mX c #DCD6C9",
"MX c #CFD2CC",
"NX c #E0D4C4",
"BX c #E3DBCD",
"VX c #E4D8C8",
"CX c #E3DED3",
"ZX c #E8DED4",
"AX c #E6C9C1",
"SX c #E4E1D5",
"DX c #E6E4DC",
"FX c #EBE4DB",
"GX c #E8E1D6",
"HX c #F1E9DC",
"JX c #EAEAE5",
"KX c #EAEBEA",
"LX c #E7E7E4",
"PX c #F0EBE5",
/* pixels */
"P.}.@X#X XA.H G T 8.0.Z.E.J.J.H.0.0.0.%.E E Z Z H r w w 1 8 8 8 a Y F Z I I T @.%.%.%.%.%.T %.R Y R T =.7.6.K.1XU b o.n H Z k t ",
"}.@X@X).H.9.9.A.U.Q.@XOX2X2X2X<X2X`.U.S.A.8.U G U b k j w 0 8 * k T P P R U %.%.%.%.%.%.%.U T T U R T %.&.6.U.6X%.M ..b n b v p ",
"|.H.R R %.*.A.D.D.D.E.`.'.2XyX4X2XoXY.J.9.&.8.0.A.A.S.Z.&.&.G b P *.R R %.R =.&.%.6.%.%.%.T R T U R R %.%.%.I.6X@.M ..c v v k k ",
"Z.%.E R H F J P T %.&.S.Y.<X4X4X7X`.S.&.U @.A.J.J.Q.W._._.`.W.I.D.C.*.%.%.R R %.%.%.%.%.R T %.T U U U %.%.%.J.6X@.b ..x v v x p ",
"S.J.K.J.H.Z.7.7.+.@.P H T Z.6.=.6.Z.7.9.7.Z.P.E./._._././.W.I.I.J.9.R *.R R *.R %.%.R R R R %.E I R Y %.%.%.J.1X+.b o.b b b k j ",
"K.E.Q.(. X.X.X<XrX8X X8.C a 8 q t v C C v Z P *.0.S.G.J.Y.Y.Y.T.D.7.%.R R R R R &.*.R %.R R R T I I I U %.@.J.6XU M ..c b v k y ",
"E.). XOX1X1X7XpXvXK.F 9 9 s r p i p k Z H H A P %.7.8.S.J.I.Y.I.8.6.*.R R R R R *.*.R R R R R I I U I R %.@.J.1X%.N o.v v x k j ",
" X`. X1X6XrX6XW.N 2 9 q p Z k b v Z Z H Z.7.U C.D.H.H.J.I.(..X`.A.C.Z.*.R R T 5.*.*.R *.R R %.E Y U U @.@.U S.6X%.B o.b b v j j ",
").XXoX+X8XP.v 0 q w i k n G L +.R %.8.C.C.C.H.P.K.).).XX1X>X>X2X XS.H.R E *.R +.*.R E %.%.R I Y I I I U I %.H.+X%.M o.A Z k x j ",
"OX@X+XA.k 8 9 0 w k b J @.8.U.oXmX}.C.F.J.E.).}.OX+X,X+XrXrXqXrXOXJ.P.Z.R *.R U %.%.*.R Y I P I I I P U I %.S.6X*.M o.b Z x x j ",
"}.).6.2 > 9 w p b H @.A.`.tXBXHXaX).H.K.}.XXOXtXrXrXyXuXaXaXxXbXtXJ.H.R P T R *.%.=.R E I R Y Y I I I U I @.S.6X*.M o.b v x x y ",
"w * 1 > 9 q r P &.E.6XmXFXSXrX(.E.K.).XX6XtXaXaXxXmXmXCXGXGXGXGXnXQ.|.Z.T R R R *.R %.R R I I P L I I U Y %.A.#X%.M o.n v x x j ",
"% = 8 9 9 s k K.cXZXZXaXoXE.G.K.).XX#XtXxXnXCXCXDXJXJXJXKXKXKXKXMX X@X6.I *.*.P T T R R T I P I L I I U R R A.6X%.M o.v k x x k ",
"* 1 1 1 8 8 j +XxX#XI.A.A.S.J.(.XX#XtXmXCXDXJXJXKXKXKXKXKXKXKXKXnX).}.*.I T R *.=.R R R T T I I P I I %.%.%.A.qX@.M o.x k x x x ",
"9 1 1 8 8 w t l T T %.9.J.P.).@XtXxXCXJXJXJXJXJXKXKXKXJXJXJXJXJXnX).|.%.J k j F T R *.T I I P P L I P R R %.S.rX@.M O.k v x x j ",
"q 0 q q q q i j A %.Z.H.Q. XOX7XmXSXJXKXJXKXKXLXLXFXLXLXDXDXGXSXnXP.P.r : % $ % > k R R Y P U I L I P R R %.S.rX%.l [ j k x x p ",
"a p i r p k b P 9.J.K.W.`.1XrXiXbXmXCXSXSXSXSXSXSXSXSXCXSXSXSXDXBX&.e : # % # $ $ % N R P P I I K L P T E %.F.rX@.b [ j k v v y ",
"C v A K P U C.J.Q.}. X@X<XrXyXaXaXgXaXbXmXmXCXSXCXCXSXCXCXCXSXCXtXg : = ; % % , ; ; u P T P H P L I P T R R 0.1X@.N ..j x p x y ",
"n j F 7.J.P.}.`._..XOX1X8XyXtXyXpXpXfXfXbXmXBXSXSXSXZXSXSXCXmXmX/.: e d d 5 h ] ;.h 3 D P H L Y H P H P R R A.6X+.N ..l v p p y ",
"F %.S.E. X`. X@X,X2XrXrXpXuXaXaXbXmXmXSXSXSXSXFXDXLXDXDXDXDXDXLX'.g r.j.a.:.s.c.v.$.3 A Y I H H L P H T I U 0.#X+.N ..j k p y r ",
"W. X X X XOX7X2X7XyXaXaXbXmXmXBXSXDXJXJXJXJXJXJXKXJXLXLXLXJXJXJXxX#.z.c.v.c.v.s.f.e.5 X.L G P I L P P P I Y A.1XI N ..j j p y u ",
"OXQ.I.9.H W.pXaXbXBXCXCXGXFXHXPXJXJXJXJXJXJXJXJXJXLXLXLXLXJXJXLXMX&.j.c.x.z.x.| _ 4.} >.$.G K K H P K P I U 9.OXL l ..j x i p u ",
"I j r r e (.BXVXVXBXBXCXCXBXBXBXBXCXSXCXCXSXSXSXSXCXSXSXSXSXSXSXSXq.e.t.{ } j.<._ e.e.| $.H P Y H I H P L K 6. XG l ..y k y p u ",
"u t r a u ~.iXiXfXiXpXiXfXfXfXfXbXfXfXmXVXBXBXCXNXNXNXVXbXmXVXBXjXr.e.t.' ] x.f.j.x.d.} $.P P F F H A L P I 6. XI N [ j k k k y ",
"9 q Q m r G.uXuXuXuXuXiXiXfXsXfXfXfXfXfXfXbXfXgXfXgXfXfXfXjXfXfXkXz.s.c.x.l.x.f.f.%Xt.h G P K H F P K I P Y 8.XX+.j v z m j y y ",
"r > 1 q 9 0.uXwXwXwXwXuXuXiXiXiXgXfXbXjXfXfXfXfXfXfXfXfXjXjXNXjXjXR.e.*Xc.l.s.,.d.l.;.4 G P S S A P K P P P 9.@XP j l h l j y y ",
"H.S a a i F.yXyXuXuXeXuXeXiXiXdXuXfXfXjXfXjXfXjXsXfXaXsXsXuXiXjXcXT.r.] %Xc.| } | e.5 : F P P K F P G L L L 8. XP p x g z g y t ",
"P.E v C x G.pXfXfXiXuXeXeXiXiXeXiXuXfXiXiXfXfXjXjXiXfXpXiXiXiXiXuXI.K.g ' j.{ )  .} ; ; b J H A F L F L L H 6.XXJ p x y h j i t ",
"C.I S Y K L.uXjXfXiXeXiXeXiXeXwXiXeXuXgXuXiXiXeXsXiXiXiXeXiXiXiXiXY.Q.l 5 } d.) { } ; : Z J F H F K A L G F 6.}.J p k y f g y r ",
"I Z D E Y ~.uXgXjXiXeXeXeXiXeXdXeXiXgXfXfXfXkXiXiXiXiXiXiXkXiXiXiXQ.<XJ ; 5 :.{ { h % & b J B F B H B H F F 6.`.S p l d f f g r ",
"Y H R C.J.(.uXuXsXiXiXeXeXeXeXiXiXiXfXbXfXaXiXiXiXiXiXiXiXuXpXuXOX`.vXE., ; 5 ( d , # e F F b F n H Z K A F %.}.A j l f ! ~ ) f ",
"R %.P.#X#XtXaXwXwXwXwXwXwXwXwXwXiXfXfXgXeXqXqXwXwXwX4XqX2X2X,X>X|.).tXpXX.; , % # ; , A.6.K F H C H A S A S 5.`.n g d 6 ! ^ ^ ) ",
"P P R C.5.F.1X2X3X3X<X2X2X2X,X2X2X,X2X2X3X3X7X1X2X9XrXrX8X<X>X>X#X|.8XaX=XX.3 , , ( [ y.).W b G C A C A A K Y  Xm 5 3 d 6 ~ ^ ~ ",
"x x b P x %.'.:XoX>X>X3X<X3X<X3X>X>X>X>XoX>XoX<X1XrXrXrXrX7X7X7X2XrX5X2XtXXXr.' { } } ].#XW A J F F S A v n Y (.A f d f < ~ ~ ! ",
"w.6.6.0.Y 8..X:X`.`.'..X>X>X[.'.'.>X'.[.>XoX.X2XrXrXyX4X4X9X7X7XrX-X$Xc.z.5X-X=Xd.z.=X>X#XQ.7.P F N m H D S 7. Xm e g f ! ! < 5 ",
"~.~.L.A.L %.Q.(._.`._.'.oX'.[.`.`.`.`.`..X'.>XrXdXdXyXyXyXyXwX4X-X%X*X-Xj.z.%X5X=X3XyXyXyX2XrX@XS.%.n C K Z U ).A r r 4 e 5 d t ",
"L.~.~.L.%.6.).)./.(._.`.oXoX`.`.`.`.`.`.`..XrXpXwXpXpXpXpX5X=X*Xc.x.=XdX9X;Xc.*XsXsXaXcXuXyXaXpXyXOXZ.F H n R `.N p t r g d t i ",
"~.0.9.K l G ). X(.(._.`.oXoX`.`.`._.`.`._.7XaXpXyXyXrX7X5X-Xx.f.h.d.z.4XvXyX*Xh.c.$X5XdXaXxXpXsXsXaX(.F v n 5.}.J y p z z g i w ",
"0.5.5.m N B Y._.(.(._._.oX[.`._.(._._.(..XrXaXyXyXrX4X5X-Xc.x.x.j.t.&X5X1X9X-Xk.h.v.c.5XvX8XaXaXdXsXrX6.b b R }.r $ $ - O @ @ $ ",
"L M U b B X.Y././._._./._._.(._.)._./.(.<XaXaXpXpX4X-X*Xx.e.:.e.| =X2XrX,X9X&Xa.j.h.d.z.4XcXaXuXsXsXcXG.b b R ).*       o .   . ",
"b b L F ` ` !./.(.(._.`.2X_.(./.(././.}.tXxXsXtX-X*X*Xc.:.) ) { { R.&X>XqX2X$X,.| |  .d.-XvXaXaXsXaXaX_.N m H (.$ .             ",
",X[.`._.r.-./.`.(._.(._.oX/.W.E.E.~.~.&X^.].].;X*Xz.t.;.} [ ' ;.| :.,.j.*X%Xk.x.d.| d.f.z.wXaXaXcXbXmX`.l b H J.$               ",
"qXeXqX2XR.q.].Q.W.(.W./._.E.E.E.U.R.$Xx.l.l.c.c.k.e.] ;.R.R.].'.`.=X$X,.f.d.e.e.l.j.s.d.a.&XwXdX7X9X7X`.n m n F.O               ",
"~./.~./.S.+.I.E.E.E.Y.W.Y.E.U.U.L.y.s.d.g.h.c.x.d.;.$.~.2X3X:X X(._.R.R.$X;X=X$Xt.t.;.{ | a.*X5XR.$X$XY.v k A 7.X               ",
"5.K L 9.q.N S.F.G.J.G.E.K.E.G.G.^.c.h.h.b.h.h.x.:.] q.].OX!._.W.}.!._.!..X3X5X:X3X3X^.t.} p.d.y.g.x.x.y.l l H I X               ",
"5.R 9.K.9.C 8.9.8.Z.9.D.S.G.8.S.c.b.h.h.h.d.d.:.;.o.q.Y.!..X:X XoX X`. X@X:X<X2X,X>X'.&Xe.d.s.f.h.h.h.l.` l H U X         X + X ",
"}. X,XoX%.C 5.5.*.*.*.7.8.6.@.q.c.b.g.g.s.j.e.] $.q.S.I.Q..X.X.X=X'..X:X:XOX+X,X1X3X&X=Xy.:.d.d.g.p.p.d.$.g A A           O O $ ",
"~.].'.oXP Z R *.R R *.*.*.%.U q.x.h.s.k.,.| | ] &.S.-.I.W. X.X3X8X8X7X7X>X3X:X3XOX:X=XR.R.>.| d.e.d.p.d.r.A H j           O O $ ",
"H.K.J.J.n v L R T T I @.Z.%.#.r.k.l.d.e.| } $.o.U A.E.E.'.>X7X2X9X9XdX7X2X<X.X.X.X XW.r.e.:.| | p.e.d.d.t.h V g           X X . ",
"t n b v x t P Y E T I @.*.R +.r.k.e.| } ] [ #.L L S._.'.<X7XdXsXdXsXsXpXyX7X:X.X<X>X_.r.$.;.| } | | | p.a.( G d             X X ",
"K x u r j u K P T I T R *.T +.-.:.{ [ ` ` X.I E E._.>X2X7XyXpXsXcXNXcXdXsXpX<X3X9X>X'.T.` $.] ' } ] } | e.h z 2   . . . . . X X ",
"K.w.5.I x P R Y P F I T R W J J [ ` B z F P H Z.<X2X2XyXdXcXcXNXcXcXsXpXsXyX2X7X9X:X'./.@.` ` ` [ _ _ } ;.h y 8 . . . . .       ",
"K.9.9.5.y p v A F A A S S S C Z b A A S S F A Q.7XyXsXNXsXsXvXcXcXvXpXsXsX9X9XdXyX>X'.!.F.K c ` h ( (  ._ g p * . . . . .       ",
"5.%.K n u * w C v k A Z C m C C C S S D D S Y 6XcXcXsXcXsXcXcXcXpXaXsXcXcXyXaXcXpX<X'.(.P.E b H ` 5 h ` h e i =   . X X + $ & 2 ",
"2 x r w w : y x j v A Z C b v C C C Z C C S R 6XaXxXcXbXNXcXcXsXsXcXcXVXcXpXsXsXpX2X<X_.P.S Q W @.x g g l t j m p b P 6.J./. X.X",
"0 y y 0 : 1 a v v Z C C F A C D C C v A m S H I.6.I.7XcXNXsXcXsXcXcXVXNXaXpXcXpXrX7X4X<XD.Q a E 6.v u u X.e j /. X(././._.'.'.].",
"b x r 1 2 2 t n b Z C A S F A k A k Z C Z %.E.I.T t A E.xXbXbXcXcXNXcXcXsXsXsXyXyXuX2XOXI p 5.~.^.V b 4 d > l ~.U.6.8.P.r.P.w.H.",
"U U F c k t k B F A A H F A S S b b k k Z ).6XoXP.U b G I.6X7XnXcX7X9XsXpXsXsXyXvXrXpX(.j k L.,X;XP.tXr.-.=.Y 0.Z.&.%./.w.6.@.7.",
"5.5.&.%.%.%.6.G.*.H n F L H A A b Z v b =.7X1X>X`.OXI.I U =.k 6.I._.>X1X1X1X9XyXpXrXaXW.+.6./.[.[.rXjXzXN.B.0X{.T.u.[.,XXXw.L g ",
"6.+.L L I L I 6.&.U +.@.P H J H S b k k J.6X>X'..X_. X XS.n & $ % e F %.8.J.(.8XqX<X2XpXrXrXqX,Xb.u.;XM.2.1.n.2.2.2.2.N.u.` y y ",
"8.%.+.@.I L I 6.@.%.8.q.8.%.U L J A b A  X7X2X'..X.X.X(.U.Q.D.v & O @ & & & 1 1 i Z -..X,XgX0X{.i.i.i.2.1.1.m.m.n.B.lXN.m.{.w.Z.",
"G.G.L.0.6.L L @.&.@.&.6.8.S.6.U P P n %.8X8X<X'._..X_.W. X/.(.`.Q.I 9 $ + o + @ @ t G W.[.qXhXhXlXqX+XN.2.1.m.lXlXlXn.0X,XqXF.K.",
"G.G.U.U.0.U P %.@.&.&.%.@.&.8.8.&.P F 8.<X<X<X X.X.X.X_.Y./.`.(.`. XE.6.G b H 8.6.T.F./.(.A.8.oX7XcXsXcXzXM.3.2.0Xu.7 4 t c Q m ",
"K.L.K./.S.@.I @.&.&.&.&.%.%.&.&.6.&.8.S.rX6X.XS.I.U._.'._.W./.`.Y.E._.`._._. X`. X(.E.Q.Q.%.j c 6.L.).).rXjXgXgXhXXXL.5.F s 9 & "
};
