/* XPM */
static char *waka17_jpg[] = {
/* columns rows colors chars-per-pixel */
"64 64 256 2 ",
"   c #010203",
".  c #0B0C0C",
"X  c #05070A",
"o  c #171716",
"O  c #0E0E10",
"+  c #201C18",
"@  c #1C231D",
"#  c #32241C",
"$  c #2A231C",
"%  c #292624",
"&  c #362C28",
"*  c #39322B",
"=  c #3E3A35",
"-  c #3A3733",
";  c #1A2E25",
":  c #443B35",
">  c #4D352B",
",  c #7D3D35",
"<  c #402A1F",
"1  c #44433D",
"2  c #4B453B",
"3  c #56483B",
"4  c #68483A",
"5  c #6B503E",
"6  c #454542",
"7  c #494543",
"8  c #4C4A45",
"9  c #4D4B49",
"0  c #524E4A",
"q  c #564C44",
"w  c #54534C",
"e  c #5B544C",
"r  c #5B584B",
"t  c #5B5652",
"y  c #5D5A53",
"u  c #595856",
"i  c #4E5850",
"p  c #684D43",
"a  c #754C46",
"s  c #635A4E",
"d  c #6A554A",
"f  c #75594B",
"g  c #635D55",
"h  c #6A5D53",
"j  c #645E5A",
"k  c #685A56",
"l  c #745854",
"z  c #5D6356",
"x  c #646156",
"c  c #6A6255",
"v  c #65625B",
"b  c #6A645C",
"n  c #6E695D",
"m  c #646C5F",
"M  c #73655C",
"N  c #72695E",
"B  c #7A6456",
"V  c #71705B",
"C  c #656561",
"Z  c #6A6662",
"A  c #6D6A64",
"S  c #6A6869",
"D  c #736C65",
"F  c #726E69",
"G  c #796C66",
"H  c #6C7367",
"J  c #747166",
"K  c #797167",
"L  c #75736B",
"P  c #7A756C",
"I  c #7D796E",
"U  c #757A69",
"Y  c #7B7671",
"T  c #7E7A73",
"R  c #797975",
"E  c #606978",
"W  c #5C5D62",
"Q  c #8D3939",
"!  c #AD3436",
"~  c #B71E30",
"^  c #C03A41",
"/  c #885A46",
"(  c #904D4C",
")  c #866658",
"_  c #956756",
"`  c #94694D",
"'  c #A56B58",
"]  c #AD755B",
"[  c #A67558",
"{  c #B77A59",
"}  c #AE6D4F",
"|  c #8D6A63",
" . c #8B6865",
".. c #926B68",
"X. c #81796E",
"o. c #887769",
"O. c #997868",
"+. c #827C74",
"@. c #847E79",
"#. c #877A76",
"$. c #9A7E7A",
"%. c #A97A66",
"&. c #B77A64",
"*. c #A54245",
"=. c #7D8178",
"-. c #C0BD3C",
";. c #CFD415",
":. c #CAD12F",
">. c #E6D437",
",. c #A98E59",
"<. c #858176",
"1. c #8A8276",
"2. c #86827A",
"3. c #8C857B",
"4. c #8E897D",
"5. c #86897B",
"6. c #91897E",
"7. c #93867A",
"8. c #948D71",
"9. c #B4846B",
"0. c #BA846C",
"q. c #BC8664",
"w. c #A88778",
"e. c #B98B75",
"r. c #B8927A",
"t. c #AD9073",
"y. c #AFB073",
"u. c #8A8E41",
"i. c #C8885B",
"p. c #C38363",
"a. c #C48A63",
"s. c #C38B6C",
"d. c #CC8C6B",
"f. c #C98867",
"g. c #D28C6A",
"h. c #D28C65",
"j. c #C9926A",
"k. c #DA946C",
"l. c #D5956C",
"z. c #C88D76",
"x. c #D48C75",
"c. c #CB9275",
"v. c #C8967A",
"b. c #D49473",
"n. c #DC9B7A",
"m. c #D69877",
"M. c #E29A76",
"N. c #CEAC6C",
"B. c #CFD751",
"V. c #D2D56A",
"C. c #E4E166",
"Z. c #8E8B83",
"A. c #898581",
"S. c #938C83",
"D. c #988D86",
"F. c #959185",
"G. c #9B9385",
"H. c #9C948B",
"J. c #9D998C",
"K. c #979389",
"L. c #9E9A93",
"P. c #A2968B",
"I. c #A39A8C",
"U. c #AA9B8D",
"Y. c #A89686",
"T. c #B69A89",
"R. c #A49C92",
"E. c #AA9E93",
"W. c #A29795",
"Q. c #B79F94",
"!. c #A58E89",
"~. c #A9A38C",
"^. c #A5A295",
"/. c #ACA395",
"(. c #ADA49A",
"). c #ADAA9C",
"_. c #AAA698",
"`. c #B2A395",
"'. c #B3A69A",
"]. c #B3AA9D",
"[. c #BAAC9D",
"{. c #B3AB96",
"}. c #B8AE90",
"|. c #B4ACA2",
" X c #BAADA2",
".X c #B3A7A6",
"XX c #BDB2A4",
"oX c #BCB4AA",
"OX c #B6B2A8",
"+X c #B5B3AD",
"@X c #C79885",
"#X c #D69D83",
"$X c #CCA38B",
"%X c #D5A388",
"&X c #C8AB97",
"*X c #D7AA94",
"=X c #D4B39A",
"-X c #C6B698",
";X c #C2B4A5",
":X c #C4B6AB",
">X c #C3BAAC",
",X c #CBBBAD",
"<X c #C8B7A6",
"1X c #D3BDAC",
"2X c #D5B8A5",
"3X c #C5BDB2",
"4X c #CCBEB2",
"5X c #CBBBB6",
"6X c #D2BEB2",
"7X c #C1AEA2",
"8X c #E0A899",
"9X c #CDCC90",
"0X c #C9C4AA",
"qX c #D2C4AD",
"wX c #DAC6AE",
"eX c #CDC2B4",
"rX c #CDC4BA",
"tX c #CCC8B8",
"yX c #D3C4B4",
"uX c #D5CAB4",
"iX c #DACBB5",
"pX c #D4C5BA",
"aX c #D9C6BB",
"sX c #D5CABD",
"dX c #DACCBC",
"fX c #DAC3B6",
"gX c #DDD2BC",
"hX c #DCD2B6",
"jX c #D6D6AB",
"kX c #E1D5AB",
"lX c #E0D3BD",
"zX c #E5D5B8",
"xX c #E4C7B9",
"cX c #E2E696",
"vX c #D5CDC2",
"bX c #DCCEC1",
"nX c #DCD2C4",
"mX c #DDD5CA",
"MX c #DCD7CA",
"NX c #DFDBD5",
"BX c #E1D3C5",
"VX c #E3D4C9",
"CX c #E3DACC",
"ZX c #E2D9C6",
"AX c #E3DDD3",
"SX c #E4DFD9",
"DX c #E3CCC2",
"FX c #E5E1D6",
"GX c #E6E3DA",
"HX c #E9E5DC",
"JX c #E8E1D7",
"KX c #E9E6E2",
"LX c #EAEAE5",
"PX c #EBEBE9",
"IX c #E7E7E5",
"UX c #F1ECE6",
/* pixels */
"K.^.OX+XOXK.P J P P #.F.H.H.S.D.6.6.4.2.R J A v J e w 9 6 7 6 6 e F H A L F T @.T 2.T T T @.@.T R Y +.@.+.#.G.4X#.n ..D b Z b g ",
"OXOX+X).H.2.2.Z.J.R.|.oX,X4X,X<X<X'.I.H.Z.5.X.G P m v t 9 7 7 6 t Y P P Y Y +.@.@.2.@.T T T T Y P Y T +.+.+.S.4X2.n ..M c b b y ",
"oX^.Z.<.2.2.5.S.K.H._./.;X<X1X2X4X;XR.P.S.+.1.3.S.7.3.S.@.P n s A <.T R Y T @.+.2.T @.T @.T T T +.P R +.+.X.S.rX4.m | l b b b g ",
"6.+.J H L L L J Y I 2.4.U.7X,X6XyX7XG.3.+.I 6.H.P.R.R._.'._._.J.Z.S.2.P T T @.+.@.@.T @.T T T @.Y R Y +.+.+.S.rX3.b | B b Z k z ",
"H.H.J.H.S.@.T I P K D F +.H.S.3.S.D.S.Z.A.2.F.L.E.'.'.(.R.Y.U.Y.J.F.+.P @.T @.#.T @.T T @.T Y @.I I R Y T X.6.eX1.b ..N b b c z ",
"K.H.R._.|.|.XXOX:X3XOXD.Z y 9 8 0 j Z C C A P Z.S.H.P.I.R.U.Y.P.S.3.T T R T Y 2.@.@.@.@.@.T Y T I Y +.Y I <.S.3X#.M ..M v v h y ",
"^.^.].OX X>X5XrXvX.X@.u 9 w w u u u j j A L b D @.@.2.S.F.I.P.R.2.2.+.+.R T +.2.@.@.@.+.Y Y Y T P +.Y T I <.S.3X<.n ..M v j b j ",
").).|.oX3X3X4XXX+.s 8 8 y y y v C j Z A +.3.I 5.A.Z.J.J.E./.(. XS.6.3.I Y Y 2.@.T @.@.@.T T T Y P I Y Y P I 4.3X3.n ..M g b b z ",
").|.OX+XoX+XT t 7 8 0 g b Z G P +.P +.Z.S.A.Z.L.L.^.(.|.XXXX>X>XXXD.H.2.R Y 2.+.2.T @.@.T Y Y P L P P P I I 4.3X3.n O.M b x b j ",
"OXoXoX(.@.7 = 9 w j v Z X.X.6.'.tX|.F.6.K.R._.|.OXoX:X>XeXeXeXeX4XP.R.2.T Y #.2.2.@.T Y Y R P Y J P P P R Y 4.>X3.c ..n b v v h ",
"OX).^.u = 7 9 t j Z K 3.I.:XmXJXMX+XK.J.).|.OX>X3XeXuXuXiXhXgXgXvXH.J.+.Y #.@.@.+.@.+.+.T @.Y T P U P I I +.4.3X3.c ..n b v v j ",
"v 6 = = 7 0 t Z +.Z..XpXAXHXmXoXR.H.J..X3X3XrXnXnXMXMXMXFXFXFXHXCXR.OXS.Y X.@.+.Y Y R T T T J +.P I I Y T T 3.3X4.h ..M b j v j ",
"* = = 6 9 9 0 S.>XCXHXAXrX|.P.H.^.|.oXrXrXvXMXAXGXGXIXLXPXLXLXPXGX.XoXA.P F P Y @.@.Y Y +.+.P R P X.P Y T +.4.>X3.c ..M b j b b ",
"= - 1 6 6 7 u |.nXrX].J.6.6.H.R.|.oXvXvXNXHXLXPXLXPXPXLXPXPXPXPXGX|.F.0 1 & * 7 j P @.+.Y T Y R P P Y Y T +.3.3X7.c ..n c j b b ",
"8 1 1 6 6 1 y n +.U Y 3.S.L._.|.eXtXNXGXPXLXIXPXIXPXPXPXPXPXLXHXMXY q & * & # # * q +.+.T L R P P P Y +.+.Y 4.3X4.h | c b j j Z ",
"9 6 0 6 9 9 e s x I 3.S.R.^.).eXvXFXLXPXPXPXPXIXHXLXIXIXIXGXGXGXR.2 * : & & & # % : Z Y @.Y P Y L P Y T Y R 4.eX6.h | c g g j j ",
"g t t t t u v A 2.Z.J._.|.oXeXuXnXmXFXFXGXGXGXGXNXNXFXNXFXGXGXMXl > 3 3 p > > p f p k I @.Y K U L I J P T I <.rX2.h ..c g y g g ",
"n b Z A F Y #.K.R.(.).OXoX4XeXiXsXvXnXmXMXCXNXFXFXNXFXAXFXGXNXsXs 3 8.9.0.0.] 0.k.e.l U H L Y U G L J R T I <.3X3.h ) c h g x x ",
"D j n X.D.R.^.'.'.XXoX:X4XeXeXyXaXdXdXnXnXMXMXFXGXGXFXAXFXFXMXvXA d v.M.M.M.k.n.M.c.B J H R P P J L L P Y I #.:X3.c | c g j j g ",
"M G S.I./._.).oX;X,X>XeXpXuXuXtXvXnXMXMXFXFXFXHXGXHXGXGXGXGXGXFXA.p 0.n.n.b.b.x.} [ O.o.Y Y F U L R J P I P 2.3X1.h | c h y g y ",
"J.R.|.XX|.oX>X>X4X4XrXtXgXMXMXCXFXGXHXLXLXLXLXLXLXPXPXIXKXPXPXPX).f %.#Xz.[ 0.s.` ` e. .#. .D H L L L P R L 2.3X2.h ..c g y g y ",
"oXoX(.H.X.F.eXsXmXmXNXAXKXKXHXUXUXLXLXLXLXLXLXLXLXHXLXLXKXPXPXKX=X%.0.@X&./ &.g.,.{ z.o.L J L L J L P P I L <.oX2.k  .c g y y s ",
"#.J t w e 6.ZXZXBXVXCXFXAXAXCXCXCXCXAXNXFXGXGXGXHXFXFXJXFXJXJXAX%Xq.c.#Xz.&.b.M.x.m.@Xo.L H J P J J L P P L +.'.#.h  .h g t u s ",
"w w w u e 1.gXiXjXhXiXuXgXgXlXgXMXZXZXZXCXCXCXNXMXgXZXCXnXBXCXBX8X0.e.m.#Xm.m.m.x.h.e.B R U D P J A A L L I <.|.1.h  .g g j g g ",
"8 w z C w +.vXuXuXuXiXiXdXgXhXgXhXgXgXgXgXZXgXlXgXgXlXgXgXBXBXnXhXm.' z.n.n.x.&.' 0.%.h D L D D D J L L P P T |.#.h h M y y k t ",
"0 1 7 i q P yXqXyXuXuXyXfXiXiXiXhXhXhXMXgXgXgXgXlXgXgXlXgXlXBXgXzXT.) ) e.#X&.&.} &./ 3 U F P D J L J L P U T |.2.g l / l k g y ",
"Z.A w w t P eXwXuXuXuXwXuXwXuXuXuXgXgXlXlXgXgXgXzXiXdXzXzXdXlXnXiX).#.q d &.p.' { &.4 2 A F L R J L J L I J +.|.@.z z x l h r t ",
").2.b v m #.yXhXgXiXiXfXiXiXuXwXiXhXhXgXgXgXgXgXlXiXiXiXiXiXgXgXkXE.$.p > / x.&.' _ > : C P F S L D D P I J I |.+.u z x f g r y ",
"D.R m A P 3.uXiXgXgXiXiXiXwXuXuXwXjXuXuXuXhXiXwXdXiXiXiXiXhXnXgXuXpXe.4 > > / _ f > * & j G J C D F A P P K X.|.T k k k d d r s ",
"@.L A R Y S.tXhXlXgXhXiXiXiXiXuXfXiXhXgXgXgXhXdXiXiXdXiXiXiXiXeX).6X<X_ > * > > < # : e A D D A A D D P P K I ].+.t v g a a d s ",
"R L R Z.F.L.sXhXiXhXiXwXiXuXiXuXiXgXgXnXgXgXhXhXgXdXiXfX6X,X>X X.XvXdXT._ a < & # > p G.#.P A D A D D F J N I '.#.q l a Q ! *.d ",
"Y @.Z.+X+XoXnXuXqXqXqXqXqXwXuXuXuXsXgXgXtXtXqXqXqXqXqX,X,X4X4XoX.XtXgX2X{ } f 5 a _ ) ;X^.G G A F F D G D D I |.I q a 4 , ! ^ *.",
"Y R R S.Z.S.>X,X,X,X,X,XeX,X,X<XeX,X,X6XyX<X,X,XeXrXpX6X5X4X4X:XoXyXwX1X&X0.{ { q.} %.1XoX XS.@.P M A F A F P _.X.q 7 p 4 ! ! ! ",
"c c g N Z G {.;X;XXXXX;X<X<X<X;X;XXX;X<XXX;X:X4XaXpXyX6X4X4X5X5X>X2X%X*X2X&Xv.h.x.e.7XsXoXXX4X4X'.H.K A L b J _.<.3 p p Q ! ~ ! ",
"#.1.3.4.+.P (.[.[.[.'.[.XX;XXXXXXX[.XXXX[.XX4XpXpXfXyXqXyX,X4XpX=X#X#X=X&X=X*X#X%X2XbXrXrXrXuXfXsXpXE.D A Z P ).=.8 a a , Q Q p ",
"~.U.P.4.Y P /.).].).{.[.XXXX[.XX[.].|. X[.:XpXpXfXpXpXyXeXyX1X2Xn.x.@X=X$X*X*X&X2XiXtXyXbXDXpXdXvXnXpX2.b D J ).I q g p 3 5 q r ",
"~./.~.6.#.Y ).|./././.].;X X'.].'.].[.'. XrXsXpXfXpXrXrXeX2X*Xm.b.g.f.&X4X2X#Xm.=X2X6XxXfXDXvXsXDXaXbX|.P Z P ).F s e s s d e s ",
"I.J.F.U n b J.{./._.'.'. XXX[.[.|.|.'.|.:XpXsXpX6X6XrXpX1X*Xn.k.m.x.z.<XrX,X#Xk.z.#X%X1XdXbXbXnXBXdXbXdXS.n Y ).=.j e u f g p t ",
"6.7.1.V M M R.[.(._.'.'.[. X].].].{._.[.4XdXpXpXpX6X1X1X=X%Xm.g.a.p.@X,X:X&X$Xv.x.k.&.v.1XyXsXdXdXBXgXmXE.A J _.D & % ; % @ @ % ",
"J D K M G G P.Q./.).'.`.'.[.'.(./././.XXdXbXfXaXrX<X&X%X#X#X0.' ' &.e.&X5X:X&Xv.{ { } z.$XyXgXxXbXbXnXVX5XY n ).i     X       O ",
"c x A G B ) Y./._.'.'.).oX[.'.^.'./.).rXsXgXdX6X2X=X#Xn.#X&.[ _ _ } { &.Q.<X*X#Xh.f.f.d.l.%XwXsXiXbXVXlXdX=.H /.6               ",
"{.{.)./.Y.O.T._./.].'.(.XX'.(.^.^.R._.0XrXtXdX<X*Xv.b.s.9.w.O.%.w.w.9.e.@X&X#Xb.n.z.m.d.p.b.*XqXaXbXVXlXdXS.b I.=               ",
"0X0XtXeX&XO.U.(._.`././.).(.E.J.L.T.@X$X`.|.2X%Xg.d.0.%.w.!.Y.!.Q._.E.T.@Xz.v.0.9.9.e.%.] q.j.%X6XpXtXtXyX).n H.-               ",
"}.{.~.].U.G H.E.I.I.U.U.E.R.I.P.T.v.k.h.s.v.n.x.h.p.9.T.`.R.'.`. XoXXX[.@Xr.T.Q.T.T.T.r.e.q.a.h.&XQ.~.t.r.T.M 3.%               ",
"<.Y J 4.6.D 4.K.H.F.J.I.R.I.J.U.c.N.h.h.l.m.l.l.g.q.w.Q.'.R._.&X;X:X X7X&XT. X.X`.'.`.Q.T.z.d.k.x.j.c.c.k.x.%.+.o         X     ",
"T T T H.S.A =.3.S.4.6.G.K.H.7.t.j.n.l.l.k.l.d.d.&.%.w.S.H.(.`.[.3X:X:X4X<X[.7X:X>X XXX'.Y.r.s.l.l.h.g.h.i.i.e.1.o         X . . ",
"|.).OXoXF.v P 2.2.<.2.3.A.A.1.r.M.M.m.j.h.h.f.0.&.O.O.D.P.'.`.,X5X5XpXvXyX<X<X4X4X X:X{.Y.w.0.j.j.j.f.a.i.,.s.o.O X     X . o o ",
"~.~.XXXX4.j L @.+.R I @.2.=.o.r.k.l.h.j.q.q.q.] %.w.7.Y.`.7X,X5X6XfXsXrX5XpX6XpX6X<X7X[.U.w.9.q.d.d.d.s.j.h.c.%.X         o o $ ",
"R.P./.I.I s J P @.R I +.2.R o.z.b.f.a.i.p.{ ] %.X.U.U.E.7X,X6X4XpXBXaX6XaXpXdXbXpX:X:X7XT.w._ 9.q.p.f.a.i.j.q.{ o         X . O ",
"g N V c g r H +.Y L R X.@.R X.e.k.f.a.p.] %.%.o.7.U.[.7X,X6XyXaXbXDXdXpXfXpXdXbXyX:X:X XE.G.| O.{ { { { { i.j.[ o               ",
"n v e y y t Z Y Y L R +.@.T +.w.f.{ ] ' _ ..o.1.`.[.;X,XyXpXaXbXbXbXpXpXpXyXbXBXfX:X;X.X(.G.M M %.] ] { { i.j.[ o       X . O O ",
"3.3.I L b F T P Y L L P R Y X.o.{ ] ) B o.P P I.4X:X6XfXaXbXdXbXbXaXfXpXpXdXbXmXyX,X:X_./.D.j j ) _ ' ' { [ q.] o X X . . .     ",
"J.J.S.<.b y n H D A A A S S A D | | M A L F X. X4X6XdXbXdXbXbXmXdXpXyXdXpXbXVXdXyX6X,X'.E.3.h b h f ) / ` ' ] ` o X X X X       ",
"<.<.P J s - 1 b v v v C C C Z j v Z A F S A S.pXdXdXBXnXbXVXDXbXpXpXdXbXbXBXCXdXeXeXeX;XE.X.j A K s s f / ' _ 4 X X X X . o % - ",
"8 x r 0 9 1 0 v j C C C S A Z C C j S A S A J.mXBXVXnXbXBXbXdXaXaXdXbXBXBXBXVXpX4X4X4X,X(.A W S <.y w e B ) d s i r A I Z.I.).XX",
"1 q y 0 2 1 r j j Z C C S Z C C Z Z S z S C @.5XbXVXmXBXbXpXdXdXbXBXBXVXVXBXdX4X4XyX4X4X^.W W E 5.b r e D c e R.].).).).].XX[.{.",
"r v e q 2 1 q h v b m Z A F F C Z v A F u P P.H.L.:XvXvXmXbXdXmXVXVXCXdXVXsXsX6XpXyXqXeX5.g R K.}.2.S 3 p 3 8 L.~.6.1.H.y.P.G.S.",
"m I A g e e e D J A A A F F F Z Z Z v v Z ^.3XXXX.P I.:XvXmXCXVXZXbXdXBXdXyX,XyX5XpXrXoXK r 8.0X9X6.OX!.$.#.K =.Z.2.+.W.L.@.o.X.",
"n 2.+.X.#.+.X.G.5.P A D L L F Z C A j v L oX4X XOX.XP N P.#.P.|.[.;X,XyXyXyXpXpXiXyX>XoX3.+.H.|.=X{.vXjXV.V.9XOX`.8.}.4XXXS.Y v ",
"D 1.P D X.P K X.<.X.I I P J D D A Z v v X.>X;X X[.;X XH.#.* $ - 2 g +.7._.oXeXrX>X>X XpX3XeXtX0X$XN.=XB.B.;.;.B.;.:.:.V.}.<.5 s ",
"<.<.I K I K X.1.X.+.5.7.2.+.X.P J A v n S.4X;X;X X[. XE.E.H.A * o o & - = : 7 e j h k Q.eX0X9X}.y.8.,.-.;.;.B.B.B.V.cXC.B.-XS.7.",
"H.G.F.F.1.K K X.1.+.+.1.S.S.4.X.P J D n R.rX;X].[. X'.(._.(..X(.2.j % o . o + % - G 2.E._.0XjXjXjX9XXXV.:.;.C.cXZXcXB.9XjX3X8.7.",
"G.I.~.I.J.X.P X.X.X.+.o.X.+.#.3.+.X.G N /.rXXX].oX[. X'.E.'.E._. X'.F.<.Z P #.D.H.~.I._.R.H.S.'.<XiXuXjX9X>.>.>.9Xy.u.5 3 S b g ",
"Y.I.I.H.P.+.X.X.3.#.+.1.1.X.#.#.1.1.X.+.(.XXP.H.Y.].'.|.'.E.'./.Y.'.[.'.'.{.XX|.|._.E.R.R.2.y n 5.W.{.).0XgXjXjXjX0X7.5.V u 1 - "
};
