/* XPM */
static char *waka28_jpg[] = {
/* columns rows colors chars-per-pixel */
"64 64 249 2 ",
"   c #010202",
".  c #060A0C",
"X  c #0A0B0D",
"o  c #040508",
"O  c #161514",
"+  c #191918",
"@  c #0C1010",
"#  c #221E1C",
"$  c #25221E",
"%  c #34271D",
"&  c #282523",
"*  c #372C27",
"=  c #393329",
"-  c #3D3935",
";  c #47352C",
":  c #433E3A",
">  c #453C35",
",  c #4B342A",
"<  c #46423C",
"1  c #4A443E",
"2  c #5A483B",
"3  c #694838",
"4  c #75473B",
"5  c #493F47",
"6  c #464441",
"7  c #494642",
"8  c #4D4A45",
"9  c #4E4B49",
"0  c #4D4749",
"q  c #524C44",
"w  c #524D4B",
"e  c #5A4C47",
"r  c #55524B",
"t  c #5A554C",
"y  c #5C5A4E",
"u  c #565749",
"i  c #5B5651",
"p  c #5D5A53",
"a  c #5A5956",
"s  c #544B50",
"d  c #6A4A46",
"f  c #764B44",
"g  c #65564C",
"h  c #76554B",
"j  c #635C54",
"k  c #635E59",
"l  c #685954",
"z  c #765D55",
"x  c #636156",
"c  c #65625C",
"v  c #6A645C",
"b  c #6C695E",
"n  c #68665A",
"m  c #78665A",
"M  c #716A52",
"N  c #656462",
"B  c #6A6561",
"V  c #6D6A63",
"C  c #676966",
"Z  c #726D64",
"A  c #736E69",
"S  c #7B6A63",
"D  c #6D7169",
"F  c #747166",
"G  c #797265",
"H  c #75736A",
"J  c #7A756C",
"K  c #7C796E",
"L  c #77796D",
"P  c #7C7671",
"I  c #7E7973",
"U  c #767771",
"Y  c #6C6672",
"T  c #5F6260",
"R  c #873D38",
"E  c #86382C",
"W  c #B22C34",
"Q  c #B5333B",
"!  c #86403E",
"~  c #885C46",
"^  c #835D55",
"/  c #944A47",
"(  c #83635B",
")  c #886859",
"_  c #986B56",
"`  c #946C55",
"'  c #A26A58",
"]  c #A8755A",
"[  c #B5785C",
"{  c #B16C5D",
"}  c #8A6B61",
"|  c #846B62",
" . c #82756B",
".. c #837A6D",
"X. c #887768",
"o. c #977767",
"O. c #827C74",
"+. c #897E74",
"@. c #837E79",
"#. c #827775",
"$. c #98786F",
"%. c #A77B65",
"&. c #B57964",
"*. c #A6746A",
"=. c #B04444",
"-. c #7F8177",
";. c #B9CE1B",
":. c #CBD311",
">. c #CCD534",
",. c #D1E102",
"<. c #B9835F",
"1. c #868369",
"2. c #848175",
"3. c #8A8275",
"4. c #85827B",
"5. c #8B847B",
"6. c #8D897C",
"7. c #938B7E",
"8. c #97887B",
"9. c #989076",
"0. c #B78769",
"q. c #A78877",
"w. c #B88B76",
"e. c #BB947C",
"r. c #AC866F",
"t. c #B2AB6D",
"y. c #C3865B",
"u. c #C38C64",
"i. c #C68869",
"p. c #CB936C",
"a. c #C69166",
"s. c #D6956A",
"d. c #C68D74",
"f. c #D18C75",
"g. c #CA9677",
"h. c #D49474",
"j. c #DA9573",
"k. c #D49A73",
"l. c #DB9B7A",
"z. c #D89978",
"x. c #D38B6D",
"c. c #CEA472",
"v. c #E6A378",
"b. c #E89F7E",
"n. c #CED951",
"m. c #E2D459",
"M. c #D0D56D",
"N. c #E6D46E",
"B. c #E1E076",
"V. c #887E84",
"C. c #8D8983",
"Z. c #948D83",
"A. c #968E86",
"S. c #959185",
"D. c #9B9384",
"F. c #95928B",
"G. c #9C958B",
"H. c #9D998E",
"J. c #9D9A93",
"K. c #A39A8C",
"L. c #A89887",
"P. c #B59A87",
"I. c #A49D92",
"U. c #AA9E93",
"Y. c #A59994",
"T. c #AE9287",
"R. c #BAA38F",
"E. c #A6A195",
"W. c #ABA295",
"Q. c #ACA49A",
"!. c #A9A69A",
"~. c #B1A69A",
"^. c #B3AA9D",
"/. c #BAAC9D",
"(. c #B5A595",
"). c #B0AB8F",
"_. c #ACAAA5",
"`. c #B4ACA2",
"'. c #BAADA1",
"]. c #B6B0A5",
"[. c #BCB2A3",
"{. c #BCB5AA",
"}. c #BAB6AB",
"|. c #BCB7B2",
" X c #C89C85",
".X c #D79D83",
"XX c #C8A38C",
"oX c #D8A286",
"OX c #D1AD9A",
"+X c #CAB299",
"@X c #E3A280",
"#X c #C3B3A5",
"$X c #C4B9A7",
"%X c #C2B6AB",
"&X c #C4BAAC",
"*X c #CABBAC",
"=X c #CBB6A6",
"-X c #D6B8A6",
";X c #C6BDB2",
":X c #CCBEB2",
">X c #D0BBB1",
",X c #C2AFA1",
"<X c #E5B5A1",
"1X c #CAC88F",
"2X c #E3E58C",
"3X c #CCC1AE",
"4X c #CBC5A3",
"5X c #D2C3AE",
"6X c #D6C9AE",
"7X c #CDC2B3",
"8X c #CEC5BB",
"9X c #C7C4B7",
"0X c #D2C4B5",
"qX c #DAC4B5",
"wX c #D5CAB4",
"eX c #D9CDB4",
"rX c #D4C5B9",
"tX c #DAC6B9",
"yX c #D5C9BB",
"uX c #DACBBC",
"iX c #DCD1B5",
"pX c #DDD2BB",
"aX c #D7D0B6",
"sX c #CCDCB7",
"dX c #E1D4BD",
"fX c #E3D3B5",
"gX c #E7E3AC",
"hX c #D8CDC1",
"jX c #DDD4C3",
"kX c #DFD9CC",
"lX c #DAD3C9",
"zX c #DEDBD2",
"xX c #E2D6C3",
"cX c #E2DACD",
"vX c #E2D8C8",
"bX c #E3DDD3",
"nX c #EADFD5",
"mX c #E0C4C1",
"MX c #E5E3DC",
"NX c #EAE5DC",
"BX c #E7E2D6",
"VX c #F0E4D8",
"CX c #E6E6E2",
"ZX c #E9E6E2",
"AX c #EAE9E5",
"SX c #ECECEB",
"DX c #E7EAEB",
"FX c #EFF0EE",
"GX c #DEE0DB",
/* pixels */
"}._.|.}.J.4.P I 3.Z.K.K.I.I.K.I.G.A.+.+.P F V V c p r q 7 < 7 7 B F F H H U I C.@.I I I I I @.P I I O.@.4.O.^.].V m } V V v c V ",
"]._.!.F.5.5.S.F.K.Q.{.&X*X*X*X>X%X^.Y.K.C.C.I G I A v j r 0 7 7 H P K K P P I I 4.I @.@.I I I I P P I I 4...^.`.V ( | v N v x B ",
"F.4.U U K O.4.3.S.A.H.W./.*X-X-X#X(.G.7.I ..5.K.A.G.K.G.A.7.#.F 4.2.I P I I V.4.4.O.@.@.I I I I I U O.I 4.#.^.].D ( ( x c v c B ",
"5.@.#.P G Z Z Z b G +.5.K.#X=X$X=XU.C.C.@.Z.F.D.I.U.~.~.~.^.W.W.C.5.I K I I I @.I I O.I #.I I I I I I @.@.O.`.`.D ( ) c k v c B ",
"H.Y.I.Y.G.G.F.Z.Z.5.#.K O.H x Z F K 5.@.I @.S.J.W.~.~.Y.L.U.K.7.S.5.I P @.I @.@.I I @.@.#.P P I K J #.I 4.#.^.^.C ^ } v N c c B ",
"G.K.Q.`.[.|.;X;XyX9XI.B i s 0 9 i p k k N B L O.+.Z.A.G.K.I.K.D.2.4.K P I @.4.V.4.@.O.@.I I I I K P I I O.O.^.`.V ^ } v k x v B ",
"Q._.[.|.&X;X9X8XQ.H w 7 i a i T k p c n K A H I +.C.Z.Z.G.Y.K.D.O.4.I I I #.4.@.@.I I @.I I I P K P P P I K ^.^.V ( } v k k x B ",
"`.`.`.[.;X;XU. .w 6 w a a x b v B V H O.Z.+.4.C.F.F.G.I.Q.'.].`.5.Z.4.@.#.I @.@.@.@.I #.I I P I P J P H I K Q.^.D ( } B k v c B ",
"`.`.}.}.E.V w 6 0 w g v A G ..6.7.3.Z.S.C.F.J.J.~.^.`.$X$X*X&X&XW.D.S.K ..3. .@.@.P C.P P H K H K F P I K K Q.].B ( } v c l v B ",
"|.9X!.v < - 8 i p v A K 3.K.{.jXkXE.5.S.I.Q.^.{.[.&X&X&X*X3X7X7XW.I.F.P #.O.O.U @.#.@.P P K K K P H P I I K Q.`.B ) } v N v x v ",
"Z.#.i - 6 w t p Z #.7.Q.8XbXBXkX|.J.F.!.}.&X&X7X9X7XyXyXjXjXjXjX{.Y.F.I O.#.@.P I I I P P H K P K H P I I O.!.`.B ) } v c x x c ",
"= > : 6 w w k I K.&XcXBXcX8X^.H.F.!.].|.;X8XyXjXcXlXBXNXNXMXNXAX{.Z.K w 1 t H P I I #.I P K H G K H K I ..O.Q.`.b ( } c c l x N ",
"= > < 0 8 9 I 9XcXBXhX{.H.Z.S.I.^.{.;X8XlXzXbXNXAXZXFXFXSXDXFXnXC.1 * % = $ - t U 4.I K #.I P L K L P P O.O.W.^.v ( ) v N k x c ",
"- : - 6 < 6 A ].[.I.7.2.7.K.Q.`.$X8XhXGXZXDXSXSXSXFXFXDXSXSXCX_.r > ; = = * % # j I I I K K K L K J J I O.O.Q.].v ( } v c v v B ",
"6 0 6 6 7 r i k V K 5.A.K.E.`.{.yXbXZXDXSXSXFXDXDXDXDXDXSXSXbXK 2 ) ` ^ 3 , , * > A O.I K H H P J H P I 2.O.Q.{.v ( ( x c v x v ",
"9 9 9 r q r i V I 4.S.J.Q.`.9XyXbXZXCXSXSXSXSXCXbXCXnXCXMXbXjXn ~ .Xz.h.d.] %._ 8  .#.G K K L L P J P I O...E.{.v z ( p c l v k ",
"a N i x k V H 2.F.Y.!.`.{.*X7XuXpXjXkXcXcXBXcXMXzXBXcXBXMXGXlXS o.g.v.h.j.f.j.s.) F P P P H K F K J H P O.K E.].v m m x k k k N ",
"k k B P 5.C.H.E.E.~.`.{.&X:X7XwXwXuXpXjXkXcXkXkXzXkXBXBXBXBXuX( %.z.l.x.j.j.x.u.) F K #.P H K H K H J P #.K E.].B ^ m c a k k v ",
"v v +.A.I.H.Q.^.'.$X&X3X7X7X3X7XwXyXjXjXkXzXBXzXBXBXMXMXkXvX-X] P.z.[ ] i.f.' _ o.G H K L V G H H H H P K K E.].V ( | c p l j k ",
"+.5.Q.~.`.`.&X:X$X&X3X7XyXyXyXhXlXkXzXMXBXNXNXAXZXSXMXGXCXBXOXd.g.d.&._ x.i.' ` %.X.H I L F F F H A H A K K I.].N ^ ( k a j j c ",
"`.`.{.`.U.;X:X:XrXhXhXlXbXbXBXNXAXAXAXSXSXSXSXSXSXSXAXCXFXVXOX0..Xl.g.d.j.x.&.r.*...H K L F F F H H H P I J I.`.c ^ m x p j j c ",
"Q.A.#.Z B &XuXjXvXbXbXBXNXNXNXNXZXNXAXCXCXCXCXCXCXZXZXMXZXVX-Xr.d.l.z.f.j.x.f.h.$.K A J D H H F J H H G P G J.~.c ^ m x a j p c ",
"i t q t j 8XxXxXjXxXxXxXvXvXlXkXcXkXcXBXcXBXBXzXkXcXBXcXBXBXcXP._ z.f.d.[ &.&.i.| H H K F H L H H A A H K F G.E.k ^ ( x i j j c ",
"w a j k y &X0X0XwXeXeXeXpXuXpXdXxXpXjXjXjXvXjXjXkXxXpXjXkXyXjXP.d %.[ ' *._ { _ z D A P A H G V A A A H K A H.E.c ( m x a j k c ",
"7 w p c q [.yXwX6X6XqXwXeXeXiXiXiXiXpXxXpXpXfXpXpXpXiXpXxXdXjX9.> f &.{ { ' _ 3 t H A Z H F H D H A A U K H H.E.v j z ^ g p x v ",
"i 6 7 i r ^.7X6X6X0X0XwX0XwXwXeXpXpXpXdXpXeXeXeXeXiXwXeXfXdXdXL.; , %.i.[ { ^ * j L A Z F F H F F A H K K L H.!.c k z z j p k x ",
"C.V a c p `.7XeXwXwX0XwXwXwXeXqXyXeXpXdXpXpXfXiXiXaXwXeXuXeX>Xq., * 2 _ ' ^ , % j A H H H F F V F A H K J F G.E.k j x j i i j x ",
"C.A N V n [.uXfXiXeXwXwXwXqX6X6XeXwXeXeXwXeXeXeXiXaXeXaXrX0XtXU.~ ; = ; ; ; % ; J A Z A Z V A Z F A H H J F G.E.k j g h d l p c ",
"I A D H F [.eXiXpXeX6X6X6X6X6X6XwXwXwXwXwXwXwX6XwXwXrX9X{.{.hXhXR.h , * % % , M E.4.V V F F F V F V F H J F H.E.x x j f f t y k ",
"J v F I ..[.aXfXiXeX6X6X6X6X6X6XyXeXpXxXpXiXuXwX:X=X%X{.`.[.;XhX:XP._ 3 3 ~ ~ } {.A.A S V Z Z Z F V A H J F G.I.y y g f / f g y ",
"K L C.!.E.3XwX6XeX6X6X6X6X6XwXwXpXuXdXpXeXwX0X:X*X$X[.%X&X:X;X9X;X>XXXr.r.&.w.R.%XQ.Z.O.F Z V F H A D A F b S.H.y g h ! Q Q / h ",
"P 4._.|.].9XwX3X5X5X5X5XwX3X3X7XwXwXeXwX*X7X0X*X&X&X:X*X:X>X:X:X>XrX8X-Xg. X=X=X&X;X&X[.Q.S.J B V B Z Z F V S.I.t d d 3 E Q =./ ",
"V B L 2.G K.%X&X[.4X$X$X$X$X$X$X$X$X$X*X7X8X:X:X:X:X8X:X:X:X:X:X>X0X0XrX0X0XrXrX0X0X7X0X0XrX[.D.Z V Z V V b D.E.u 2 f 4 E W W ~ ",
"b v Z F v D.'./.`./.,X$X$X$X#X[.#X[.[.&X7X0X>X:X;X:X:X:X:X:X:X:X0X>X0X0X0X0XrX0X0XyXwXrX0XyXyX:X5.v V V F V S.K.l d d 4 R W W / ",
"9.D.D.6.G G./.(.^.^.^.[.=X[.[./.^.^.#X*X0X0X0X:X:X>X:X>X0X0X7X7X0X0X0X0XwXyXrXrX0X0X0X0X0XuXhXhX`.G B V V b S.H.y d d d / R 4 g ",
"L.K.G.5.b Z.^.~.~.).^./.'.'.'.^.^.^.%X0X0X0XqX:X:X0X8X0X0X0XrX0X0X0X0XyXyXyXuXyXuXuXyX0XrXyXuXyXrX5.b Z V V F.H.p g r t d 3 u u ",
").).H.C.H F.Q.U.Q.Q.Q.'.[.'.^.~.^.^.&X0X0X0XqX:X:X0X0X7X7X0X0X7X7X0X7XrXuXuXpXuXuXuXuXuXyXrXyXpXhXY.Z A A V S.G.i i t l d g y g ",
"9.6.K n j 5.^.`.Q.Q.^.^.[.'.'.^.^.[.7XyXtXrX7X:X:X:X:X0X0X0X0X0X0X0X7X0XyXuXuXuXqXuXuXuXwX0XwXuXuX%XG B A B S.J.u t i g d t 9 i ",
"7.O.K b b ..U.Q.~.Q.W.^././.^.^.Q.%X0XrXrX>X:X:X&X:X0X0X8X0XrX0XwXrX0X0XrXuXyXuXuXuXuXuXuXyX0XyXjXjXZ.c V c G.J.* # + O O @ O & ",
"v x S M m $.U.W.Q.W.W.^.^.~.W.W.W.[.%X,X'.'.%X&X%X:X:X:X0XrX0X0XyX0XrX0XrXtXuXuXuXuXuXtXuX0XrXuXpXjXQ.B V N Z.Z.@   o   o o o . ",
" . ...X.) $.U.W.W.(.W.`.&XW.U.W.W. Xk.k.k.s.e.!.'.:X>X0XrXrX>XrX5X0XrXrX0XtXuXhXmXuXuXrXrXhX;XrX7X3X[.L c v 8.5.X               ",
"&X*X[./.8.w.^.~.(.^.W.^./.U.I.W.P..Xv.k.k.j.g.q.E.$X7XwX7X7X7X0XtXrX8XyXuXtXtXyXyXyXwXuXuX{.W.XXXXg.e.X.x x 6.U o               ",
"{.$X3X&XD.T.~.!.W.W.U.K.U.K.K.K. Xl.s.s.j.j.0.o.U.OX-X-X-XOXOX-X>XhX8XhXhXtXuXtXuXeX3X3X$X9.r.XXoXj.s.r.m x 4.C                 ",
"E.9.D.7. . .G.F.K.K.K.Y.U.K.K.K.g.k.s.u.p.a.u.0. XoXoXoXz.z..X.X-XtXrXhXuXtXuXtXtX0X5X>X=X| ] l.v.v.s.p.o.p #.p                 ",
"H n -.6.#.J Z.Z.Z.S.G.U.K.G.D.L.c.s.a.0.a.p.g..Xl.oXl.l.j.j.j.z..X-XqXuXtXuXhXuXtXrX0X>X>X) _ x.v.v.s.s.r.M O.e                 ",
"Z.S.K.E.G A 4.4.5.4.6.Z.Z.5.3.q.l.k.k.l.l.k.l..XoXoXk.z.j.x.x.x.f..XOXtXuXuXuXhXhXyXrXqX:X| ~ 0.v.b.s.s.a.) I 0         o O O X ",
"Q.[.{.^.V V @.+.@.4.2.5.@.@...e.l.k.k.l.z.k.s.i.g..Xz.k.h.f.d.f.i.d.OXtXtXyXrXtXrX0XuX>X:XX.` &.s.x.a.y.a.o.K <         X + & O ",
").^.[.E.c c I #.#.I I @.@.I X.g.k.a.a.x.u.u.<.] %.w.0.g.d.i.w. X&.0.-XhXyXhXtXtXqX-X-X<X-XD.` &.y.<.<.y.a.0. .-         X + + O ",
"K Z.D.J v v I I P I K O.@.I $.q.u.u.y.[ i.&.o.` $.P.r.P.q.q.q.XX/.=XqXqXuX7XtXqX<Xz..X.X.Xa.u.u.y.u.0.y.a.<.o.*         o . . o ",
"y n y g p t K J P K J O.4.P X.$.&.] ] ] _ ) m 8.-XU.P.q.T.XXT.,X>X0X0XwXrX0X5X-XoXh.j.j.h.s.p.h.a.k.k.u.<.0.o.%           o . . ",
"G b l k p j I U L P I O.4.U A | ` ^ ) } m m G Q.*XL.L.U.T.~.~.`.*X*X*X*X8X*X-XXXp.p.s.j.j.j.p.w.a.u.<.[ ] ] G &   o o . . . X . ",
"I.6.2.Z H U P F A A A P U H V V b b V V Z A K `.#XU.U.W.U.~.'.'.=X*X*X*X3X=XXXg.i.i.i.x.h.g.&.o.] ] 0.] ` ( v & . o o o         ",
"Z.2.Z.F 8 q v v B B V V V C N N B N C Y C Z I :X*X'.#X'.,X#X'.'.*X=X=X#X=XR. X&.] ] ] 0.w.$.} | ` ` o.~ h j r + X . . . o       ",
"A K b t 1 < p c x k N B B n N C N N N D C V K ].rXtX:X*X#X#X#X#X$X#X,X'.'.P.q.] o.q.q.e.q.S B P m g h 3 g t r $ X @ O $ & > r x ",
"q t q t 1 < c c b c B C V n C N v N N v V B V 2.Y.`.%XrXhX;X:X,X*X%X=X'.'.~.T.q.L.U.U.Q.F.B T I F y g l m r n F P @.F.E.^.].{.%X",
"y y r < < 1 x c v N N D n v N N N C B v V V Z I 5.V 5.C.`.;X;X;X{.#X,X/.`.`.[.XX(.`.Q.W.J.C N -.4.p q g z q 2.[.`._.Q.Q.).^.(.L.",
"F x t 1 0 8 p C B B V V V V v n B c c Z k V 5.{.G.J G F C.B A C.S.U.U.K.I.W.K.7.K F N Z A b H.].e.L v 3 d w D L.Z...3.E.9.C.6.F.",
"I K F n c k F I A Z Z Z Z A V V B k N k k V Y.|.].W.A.K P < $ $ = : w g r 1 > > = < j k G G ).4X).E.9XY.K.C.2.9.V.V.D.E.S.2.K 1.",
"2.O.K -.2.K 3.9.O.J A Z A V V V c B B c B Z '.%X[.^.`.I.A.J k 1 & + O O O @ O # * q G 6.Z.K.[.1X+XwXjXB.M.M.1X+Xt.t.1XlX7.Z x s ",
"O.G F G G G ....+. ...K J K A A V N k k l Z.%X'.^.^.Q.K.Y.U.U.Y.J.V.V e > 8 N #.A.D.K.K.Y.U.).).t.c.c.>.;.:.>.;.:.;.>.M.t.G m 9 ",
"5.3.O.2.J Z  ...K +.7.Z.3...K I A B c Z c U.*X'.'.'.~.U.U.W.U.U.Q.^.^.^.W.W.^.`.^.^.U.U.Q.U.K.t.t.r.t.:.,.:.n.n.n.B.2XM.M.K.6.1.",
"D.A.S.F.O.G  .2.3. ...3.7.S.+.K K Z H Z V Q.#X~.[.^.^.'.K.U.^.'.^.^.W.W.W.U.K.U.W.~.K.K.A.H.H.4XsX1X4XM.>.:.N.gXgXgXM.[.}.|.K.&X",
"K.K.K.I.3.K  ...O...3.X.....+.5.5.G Z Z S ^.Q.K.K.^.^.^.^.W.K.Q.(.).W.G.7.7.D.K.D.A.K.7.K.K.Q.(.[.yXwXfXN.m.m.N.M.1.M < 0 i y y ",
"9.D.K.W.6.....+.5.+.3.X.+.3.+.3.3.3.3.3.#.Q.W.Y.^.^.^.'.'.`.^.Y.!.`.^.Q.W.Q.^.~.~.`.`.^.^.Q.F.Z I 8.I.W.4XiXiXaX8X].E.D.1.Y x 8 "
};
