/* XPM */
static char *waka9_jpg[] = {
/* columns rows colors chars-per-pixel */
"64 64 252 2 ",
"   c #020202",
".  c #030409",
"X  c #0A0A0B",
"o  c #090707",
"O  c #181516",
"+  c #0F0F0F",
"@  c #231B19",
"#  c #28231B",
"$  c #1A1922",
"%  c #372A26",
"&  c #39342B",
"*  c #3C3833",
"=  c #282524",
"-  c #1D2120",
";  c #463B35",
":  c #4F392E",
">  c #733D34",
",  c #44423C",
"<  c #4A433B",
"1  c #574739",
"2  c #67493A",
"3  c #71503C",
"4  c #616331",
"5  c #4A4643",
"6  c #4C4A46",
"7  c #474744",
"8  c #524C44",
"9  c #534E4A",
"0  c #5A4A46",
"q  c #55514C",
"w  c #5B554C",
"e  c #585649",
"r  c #595651",
"t  c #5D5B53",
"y  c #5A5A57",
"u  c #46514D",
"i  c #694C45",
"p  c #754944",
"a  c #6B544B",
"s  c #67564A",
"d  c #765749",
"f  c #635D54",
"g  c #6B5D54",
"h  c #635E5A",
"j  c #695A57",
"k  c #775953",
"l  c #586252",
"z  c #636155",
"x  c #6B6255",
"c  c #65625B",
"v  c #6B645C",
"b  c #6D695D",
"n  c #656958",
"m  c #72695E",
"M  c #77665A",
"N  c #7A6956",
"B  c #656561",
"V  c #6A6661",
"C  c #6C6A63",
"Z  c #696C68",
"A  c #736C65",
"S  c #736E69",
"D  c #766B65",
"F  c #757166",
"G  c #797166",
"H  c #76726B",
"J  c #7A746D",
"K  c #7C796E",
"L  c #7C7671",
"P  c #7E7973",
"I  c #7A7875",
"U  c #6C716A",
"Y  c #6D5E61",
"T  c #8B3A3C",
"R  c #B03135",
"E  c #86523F",
"W  c #83534B",
"Q  c #AF4545",
"!  c #8D6B5E",
"~  c #896856",
"^  c #976957",
"/  c #9A735B",
"(  c #876D53",
")  c #A7775B",
"_  c #B67A5C",
"`  c #A86B54",
"'  c #8D6964",
"]  c #936C67",
"[  c #82756B",
"{  c #81796E",
"}  c #897A6B",
"|  c #987766",
" . c #827C75",
".. c #837E7A",
"X. c #897C76",
"o. c #957E73",
"O. c #A77964",
"+. c #B57D64",
"@. c #BB7C64",
"#. c #AE6E62",
"$. c #C37D62",
"%. c #7F823D",
"&. c #7C847A",
"*. c #D7D90C",
"=. c #CDD52F",
"-. c #E8D93C",
";. c #D4E10D",
":. c #9A9855",
">. c #B6875A",
",. c #858174",
"<. c #898176",
"1. c #86827A",
"2. c #8B847B",
"3. c #8C887D",
"4. c #918A7D",
"5. c #998776",
"6. c #928771",
"7. c #A58269",
"8. c #B88568",
"9. c #A78B76",
"0. c #B98C74",
"q. c #BB9279",
"w. c #A8957F",
"e. c #CD8A5C",
"r. c #C38464",
"t. c #C38C6D",
"y. c #C88A67",
"u. c #D48D69",
"i. c #CB926B",
"p. c #D49365",
"a. c #DA9565",
"s. c #D4946B",
"d. c #DB956A",
"f. c #DB996B",
"g. c #D79868",
"h. c #C78B73",
"j. c #D88C71",
"k. c #CA9475",
"l. c #DC9A75",
"z. c #DB9B7C",
"x. c #D69777",
"c. c #E4996A",
"v. c #E39B75",
"b. c #E38A6C",
"n. c #CBAE76",
"m. c #E6A376",
"M. c #D0D74D",
"N. c #D2D369",
"B. c #E1DF5B",
"V. c #7E7C81",
"C. c #857C83",
"Z. c #8C8681",
"A. c #8E8981",
"S. c #828187",
"D. c #948C83",
"F. c #978C85",
"G. c #969185",
"H. c #9B9286",
"J. c #96928A",
"K. c #9C948B",
"L. c #9C988B",
"P. c #9D9992",
"I. c #A3948B",
"U. c #A49A8C",
"Y. c #A99D8D",
"T. c #A99587",
"R. c #B79886",
"E. c #A49C92",
"W. c #A99E94",
"Q. c #A69D97",
"!. c #AF958A",
"~. c #AAA48C",
"^. c #B9A28D",
"/. c #ACA395",
"(. c #ADA49B",
"). c #ABA598",
"_. c #B2A495",
"`. c #B1A69B",
"'. c #B3AA9C",
"]. c #B9AD9D",
"[. c #B5A998",
"{. c #B6B292",
"}. c #AEA9A4",
"|. c #B4ACA2",
" X c #BAAEA3",
".X c #B4A6A2",
"XX c #B6B1A6",
"oX c #BCB1A4",
"OX c #BCB4AA",
"+X c #B8B5AC",
"@X c #BCBAB2",
"#X c #B3AEB2",
"$X c #C89C86",
"%X c #DA9C81",
"&X c #D6A389",
"*X c #C6A997",
"=X c #D7AC97",
"-X c #CBB697",
";X c #CEAA94",
":X c #C3B4A5",
">X c #C3B6AA",
",X c #C5BAAC",
"<X c #CABCAD",
"1X c #CAB7A5",
"2X c #D4BAA9",
"3X c #C5BDB3",
"4X c #CCBDB2",
"5X c #D1BEB2",
"6X c #C4AEA1",
"7X c #E2A890",
"8X c #D5CF8D",
"9X c #CDC5AC",
"0X c #D5C7AD",
"qX c #CCC1B4",
"wX c #CDC4B9",
"eX c #C8C3B7",
"rX c #D2C4B5",
"tX c #D5CAB3",
"yX c #D9CDB5",
"uX c #D4C5BA",
"iX c #D6C9BB",
"pX c #D9CCBD",
"aX c #D9C6B9",
"sX c #DCD2BC",
"dX c #D9D1B5",
"fX c #D7DBA8",
"gX c #E1D5BC",
"hX c #E7CBB1",
"jX c #E4E69F",
"kX c #D6CDC2",
"lX c #DBCDC1",
"zX c #D3CEC8",
"xX c #DDD3C4",
"cX c #DDD4CA",
"vX c #D9D5CA",
"bX c #CCCAC3",
"nX c #E1D4C3",
"mX c #E3D6CA",
"MX c #E3DBCD",
"NX c #E8DBCC",
"BX c #E5DED1",
"VX c #E2DFD8",
"CX c #E0CFC7",
"ZX c #D9E2D3",
"AX c #E5E2D5",
"SX c #EAE2D5",
"DX c #E5E4DB",
"FX c #E9E6DB",
"GX c #E8E1CF",
"HX c #EAEBE4",
"JX c #E8EAE7",
"KX c #F2EDE6",
/* pixels */
"A.P.+X@X+XP.I A D  .X.2.D.D.D.D.2.2.3.1.I F V z U q 6 6 7 7 * , q H A A H S L I .... .I  .P  . .S I  ...P 1.J.wX2.D ' D j j C h ",
"+XXX+X}.Q.Z...3.F.E.(.OXOX:X>X:X<X`.H.D.3.1.K b J x h r 6 6 7 , w I P H L L  . .....P .. .L P  .L  .I .. .,.J.4X<.A ' m V v b f ",
"+X(.P.S...3.D.D.J.K.W.'.:X<XtX1X<X:XW.I.3.<.2.<.A.3.3...P D x f C 1...H H L ..........I .. .I I J I { ..X. .F.4X2.A ' m V c V f ",
"J.P A U H G S J  .X.D.H.U.6XrX0XuX>XI.X.K K D.I.I.I.W.`.`.'./.U.D.A. .I P P .. ......... .I { L L P L ......D.eX2.b ' m m v V f ",
"J.P.J.3.X.2. .F G A b S <.J.D.J.U.J.F.2.A.1.J.L./.`.'.`./.Y./.U.E.F. .{ P P .. ....... ...I  .L K { L  .P  .D.eX<.M ' m v B v f ",
"J.K.E.(.(.(.(. X].OX.XZ.H h 9 6 e y C Z U C I 3.F.K.K.I.Y.Y.U.I.D.A. .K P  ............. . . .P H L J  . . .D.4X..v ] A v v h f ",
").).}.|.OX3X4X3XkX>XF.h 6 9 q r r y h h V S V H  .2.1.D.I.U.E.U.X.2.<.P P .. ........... .I P P J P P P P { G.eX1.m ] D x v h f ",
").(.|.+X,X3X4X3XF.f 5 6 q h t c c c B S H Z.J X.Z.F.J.L.E.E.'. XD.A.X. .....P ........ . . .P L J P J K P  .D.,X1.m ] V v c c c ",
").oX XOX3X@XD.h 7 5 q t h m m D G G J 4.D.Z.J.P.P.).(.(. X,X,X4X>XL.L. .I I X...........{ I P P [ L P P K  .4.3X3.v | m x c c h ",
" XXX@X+X3.q , 6 9 q h m G [ 4./.3X|.K.F.J.E.(.).|.,X,X<X<XrXrXqX<XF.E.2... ........... .P L L P L H L H P  .3.eX2.k ] b x v c h ",
"3XXX).B ; * 6 q h m D ,.L.oXkXAXAX@XL.G.Q. X3XeXiXeXqXyXsXiXiXcXlXI.(.2.L ........P .. .P L P J J L J P P  .2.3X2.x ] v v c c h ",
"A q 6 ; , 6 q B G D./.eXMXSXcX,X(.E.E.+XeXeXeXwXkXxXMXMXMXSXFXZXMXQ..XZ.P C........... .P P L L J L L K P  .2.3X3.x ] b x x c h ",
"& & 7 7 7 6 q ..].cXSXAXuXXX/.L.L.'.+XeXwXkXZXAXDXDXDXHXHXHXHXJXFX+X3XJ.I 1. .............I L L [ { L L  . .2.3X1.x ] M B j v j ",
"* * * 7 7 , y ).xXkX>XU.G.4.G./.XX@XwXvXDXDXHXHXJXJXHXJXwXQ.D.J.J.3.P.Z.P &...2.P ........ .P L L L L L  . .<.eX<.g ' v v B V v ",
"7 , 7 7 6 7 6 A 3.,. .,.G.E./.XXeXwXvXHXHXJXJXJXJXKXzXL.g < : ; & & 8 v P Z...S.........I P L L J L L L P  .2.qX3.g ' v v c c c ",
"9 7 6 , 6 9 e t b H 1.A.E.}.}.3XiXSXHXJXJXJXKXJXJXbX3.1 1 d k k s ; % ; H ....P ......P P J J L J L S L  .,.3.eX2.g ' v x h c z ",
"y q q q r r c v I D.P.).(.+X9XuXxXcXGXAXFXDXAXAXMX_.0 1 a 8.s.s.8.O.^ ^ M C.S.P P I  .P P H H L J H H J { { 2.3XZ.j ] x v z c z ",
"b h v V Z H  .J.K./.}.XX>XqXwXdXdXsXcXcXMXZXMXAXAXL.1 9 ~ 0.l.x.l.j.u.0.5...P ,.P  .P L H H H H S G H J { { 2.eXZ.Y ! v v z c f ",
"G x v J A.I.P.(.`. XOX>XqXtXrXtXdXtXsXvXcXmXMXNXZXG.8 s ' 0.%X%Xu.u.u.+.| } J [ P P P H L S H L H J H J K J <.3X2.j ' v c f h y ",
"x m X.E.(.|.`.oX:X,XqXqXuXiXiXiXiXxXvXBXBXBXSXFXFXT.s N ! x.x.8.^ +.h./ ' { L L L J P H P H H H G H H J H L <.eX2.j ! x c h y t ",
"K.Q.(. X|.oX>X<X3XwXrXsXxXxXcXmXAXAXDXHXHXHXJXHXKX*X/ | O.%Xj.O.^ r.k.] ' [  .I H P J J L H H H S H H H L L X.3X2.k ! v c t y f ",
"'.XX}.E.2.K.4XiXiXsXcXGXAXSXFXFXJXHXJXHXHXJXJXJXSX=Xj.0.0.%Xz.h.h.j.j.@.o.[ P H P L L S H J H L H H H S [ J ..>X2.x ! v f t y f ",
"F.X.h q 9  .pXNXMXMXMXAXGXGXAXAXAXAXAXAXDXAXDXDXAX=Xj.0.0.%X%Xx.j.v.b.j.0.J H K L L J S J H H J P S J J L J { XX,.h ! x f t y f ",
"e q 8 q w { iXxXsXiXdXsXsXxXcXcXxXcXMXcXMXAXmXMXZX=Xj.+./ k.v.x.%Xr.` +.0.[ I G S L J L L J H H S A A S L J X.XX,.f ! x j y h f ",
"5 r r Z r J 5XaXyXaXyXyXyXyXsXgXsXsXsXgXnXnXnXMXgXnX=X>.d | 8.z.0.@.#.#.] G H J H G H S H S D D A H H H H J ,.XX<.f M k j f h t ",
"5 5 7 6 r V 4XrXtXtXtXtXyXyXyXyXdXsXgXnXnXgXgXnXgXsX0X0.p 2 ^ h.^ E > W k G H J P H D H J H H H S H H H P K K XX&.f n k k c g r ",
"4.Z r 9 r v 9XdXtXtXtXtXyXyXyXyXyXgXsXnXgXgXsXsXgXtX;Xq.2 : 3 ` $.$.#.] k D D H S L L I L S S J H H H J P H  .XX<.j n g k t t l ",
"'.2.B B B H 9XdXdXyXyXtXyXyXyXtXyXdXdXsXsXgXsXsXgX[.O.0.3 : : d h.$.` ^ a G H H H I S S S S H H H H F H K H P XXo.j z f a j e j ",
"G.P b S H 1.rXdXgXsXyXtXtXyX0XtXtXyXyXyXyXpXpXqXwXT._ a.^ % % : E / ^ 2 : C L S A S S H H S S A S S A H L F K XX&.t j f a a q j ",
"2.F Z U P ,.rXdXgXgXsXyXtXyXtXtXdXyXgXsXtXuXwXOXwX*X$.a.@.k : % % ; : % * v S J J J S H L Z S S S S A H J F K |.P t f k p p s e ",
"X.H H 1.D.G.wXtXdXyXyXtXtXyXtXtXtXyXyXyXrXqX3X`.5XaX0.u.y.8.( : : % % ; f J.E.Y..XK.{ D S H H S A A A S J D J |.X.r s d T R Q W ",
"P P 3.+X@X@XsXtX0X0X0X9X0X0XtXtXpXrX<X<X<X,X:XE.*XkX].t.i.r.) ( p : i o.H. X6X>X5XbX.XZ.S S H S A D A D D m J '.X.9 p 3 > R Q Q ",
"I P I J.F.4.:X<X1XqX1X9XrX9X9XiXiXrX5X5X3XwX>X!.$X5XrXR.r.u._ ` ` ^ `. XP.OX,X4X5X5XlX5X(.X.L S m U I k D Z U ^.Z.0 2 i 3 R R R ",
"b b l b S A `.1XoXoX:X,X1X<X4XiXiXuXrX5X4XqX>XR.$X2XaX*Xh.y.@.8.0.q.4X3X|.,X<XrXuXuXuXlXlXkX X<.D C S Z Z Z J Q...1 3 i T R R R ",
" .,.,.1...H /.oX].].].].:X,XwXyXlX5XaX5X5X<X2X%Xx.=X=X;Xh.t.j.j.;X2XrXeX4XrXuXrXiXlXiXpXkXCXlXwX}.2.V n Z B H (.S.e a i 3 T T p ",
").~.~.G.,.A W.].].'.].'.oX<XkXkXkXuXaX5X4X2X2X&Xl.&X$Xk.k.k.=X&X1XaX<X4XuXuXiXsXCXlXiXsXuX5XCXNXcX}.<.M m S I /...9 a 1 1 p 0 q ",
"~.~./.L.4.H E.`.`.`.[.'.].<XpXiX5XuXuX5X2XqX-X&Xz.%Xx.j.$.h.2X2X5XrXuXpXlXlXuXlXlXxXiXaXpXCXnXlXkX).q.8.7.! G `.&.r t s a k s y ",
"U.U.w.<.H v I.`.(.`.`.'.oXqXiXiXaXuXrX5X5X9X=X&Xz.z.v.j.y.+.1XlXlXrXyXpXlXkXpXlXnXmXiX4XrXCXNXcX}.q.m.f.g.e.7./.X.q y y a a 0 q ",
"4.4.1.F v v G.`.`.`.`.`.>XtXiXuXuXuXrX5X5X2X=Xz.x.z.j.j.h.$X6XkXkXrXpXiX3X3XiXCXmXmXrX<XiXNXmXkX^.l.c.c.m.a.p.^.! ; = = # @ - = ",
"K F F F x m H.`.).'.`./.>XiXyXiXuXuXrX5X2X-Xz.v.j.x.k.k.h.$X1XkXkXuXiXiXlXkXnXiXlXmXqXOX4XlXbX Xk.%Xc.c.f.a.f.p.q.: X       . . ",
"x b v M N d 9./.(.`._._.<XpXxX0XaXrX3X1X=Xx.v.s.j.h.0.R.R.6X5X5XuXuXlXlXlXlXlXlXlXnX X(.XXXX|.T.a.c.c.a.a.a.f.d.f.i.:           ",
"_.~.~.`.R./ !.`.`.`.'..XeXzXvXbXkXaX-X&X&Xx.x.k.h.0.R.$X1X<X5XlXlXkXkXlXlXlXpXpXiXuXQ.2.[ V [ [ 8.y.y.p.p.f.p.g.g.v.O.o       . ",
"9XtX9X9X*X5.T.|.`.(.}.'.:X*X+X}. X1X&Xx.d.d.y.0.R.$X6X6X5X4XwXwXuXlXuXlXlXpXlXiXpX X .V V Y V v N ~ ) y.a.a.p.g.s.v.O.O     o   ",
"~.'.).[.~.o.F.E.U.P./.^.&Xx.k.q.T.$Xz.d.a.y.O.0.6X>X>X>X3X4X4X3XuXuXuXiXlXlXuXuXuXW.D m A A S B c M / y.d.f.a.p.s.8.k o .     o ",
"2.,.G ,.2.F ,.G.K.G.I.$Xv.a.a.g.k.x.s.d.u.+.O._.4X>X>X>X4X<X2XrXuX5XuXlXlX5XuX5X>XQ.A C n B V B c N O.p.a.a.a.p.r.d o       .   ",
"I K K G.J.H &.3.4.3.9.k.f.g.g.l.c.s.y.y.$.+.R.:X>X>X>X>X4XrXrXaX5XkXlX5XlX5X5X5X<XE.V B Z C C x N / y.d.f.p.i.8.( +       + $ X ",
"|.'.`.@XP.V F <.X.,.5.x.l.l.k.v.g.y.r.r.@.O.R. X>X4X4X4XqXuXrX5XlXuXuXkX5X5X<X<XwX'.H S C z g ~ ) t.f.f.a.y.+.) # o .     + O - ",
"U.~.[.,XJ.B G ,.&.&.9.z.l.x.g.a.t.r.r._ ) | ^.(. X,X3X4XrX<X4XrX5XlXuX5X4X>X>X>X4X(.C S C M ! 9.i.d.d.p.e.8.) / +   . o   O O $ ",
"/.K././.X.t b K G P w.s.p.i.t.y.>.$.$._ O.H.H.T.Q. X3X4X4X4X4X4XrXuXuXpXlXuXiXiXiX>XG V D | 8.p.p.f.d.y.8./ ^ M X         X . X ",
"f v A A x t C P { P 6.i.u.y._ e.@._ _ O.T.Y.I.E.I.E. XrXpX3X,X<X3XrXiXlXlXlXuXuXkX3X{ b [ q.l.l.v.i.r.O.( ~ W N X             o ",
"f x w f w e v P { I 6.k.a.y.>._ _ ` / ! !.W.Q.Q.W.W..X>XuXuXuXaX4X4XqXrXuXlXiXuXuXwX3.m 7.z.z.l.t./ ' x j d p g o     . X o o X ",
"K 3.K F h v P J H J } k.u.r._ ) / ^ M V D.W.W.}.(.'. XoX4XiXpXuXuXuX5X4XqXqXrXuXrX4X`.5.k.l.l.z.| x j f a k i y O X X + X X     ",
",.J.4.3.b l A m V S D | +.#.^ d ~ j Z Z ..`. X'.:X X X.X X6X4XiXlXlXpXuXuXrXqX4X2X>X>X$Xl.d.v.x.[ f t w p d 0 u X X X X .       ",
"F ,.K F x , , c B V h ~ ~ ! N k V B U Z Z (.,X<X>X:X>X4X<X,X:X,XrXrXuXlXlXiXuXrX5X>X-X$Xj.v.z.x.o.t e t 3 s w 7 + X X X X O = * ",
", l f 8 8 , 6 b h v B V b M m b V V B B h K.4X4X5X5X5X3X5XuXuX4XrXrXrXuXpXlXlXkXrX2X;X%Xj.%Xz.x.5.z w t k x w x l l F 1.G./.'.XX",
"* 9 t 9 6 , 9 y c c B Z Z Z c V B A B V V D.uX3XuXuXlXrXrXpXlXlXxXpXiXiXaXiXrXrX4X:X$Xh.x.k.x.k.6.v t r W h e F.XX{.'.[.[.oX].].",
"< c t 8 , < 9 z c V C V C A S B v C V Z B J wXuXrXrXrXCXpXnXiXsXnXCXmXmXCXlXpXrXOXH.~ | 8.+.8.0.~.A.S 1 2 1 8 K.~.4.<.K.Y.H.I.D.",
"e F F v t w e A S C A C A A C Z Z c c B V m (.mXiXuXrXiXpXnXmXcXnXnXnXpXxXxX:XF.w w ' | ~ / O.q.9XU.#XP.| C.I I 4.S.K L.E.6.K J ",
"8 ,. .K K { G 4.Z.G V A F H F C C V c h c B J J.OXiXlXkXlXcXmXcXsX3X<XoXI.D ; # < G I.5.} 5.9.^.-X-XvXjX8XN.N.-X~.w.{.fX3XA. .n ",
"e 1. .F J K G  .3. .[ { G A A F V C x c c V B h , D X. .Q.A. .v 5 & % = O O ;  .U.W.F.K.W.Y.~.-Xn.n.;XM.M.*.=.M.=.=.=.M.8X6.s j ",
"b { K F G J G {  .{ ,.4.3.,.{ J S D b b c b S Z.4.h 8 < K % # @ O $ % * 8 L P.|.[.T.(.'.'.{.~.~.:.:.:.=.*.*.N.M.B.B.8XN.N.n.G.<.",
"G.H.4.G.4.{ G { X. .} 2.4.H.4.{ K H D v b C C |.eXOX XU.Q.X.4.4.K.Q.(./.`.'.[.`.~.].OX`.).`.`.~.9X9X0X8X-.*.N.jXfXjXN.N.9X9X3.4.",
"H.L.I.T.I.,.G { { { X.{ } ,.<.2.,.K G C F A G '.:X3XOX@X}.|..X(.`.`.`.'.].W.U.~.`.oX/.[.OX'.'.~.@XkXyXhXhX-.-.-.8X{.%.4 8 b c y ",
"6.I.I.~.U.<.{  .<.X.X.<.,.{  .X.2.,.X.X.G Z D.<X X X>XoX>X X6X:X]. X].`.I.F.I..XoX'.'.].[.Y.[.U.6.P.~.'.9XtXfXfX0X8XI.3.G t 8 & "
};
