/* XPM */
static char *waka26_jpg[] = {
/* columns rows colors chars-per-pixel */
"64 64 253 2 ",
"   c #020202",
".  c #06090B",
"X  c #0B0B0B",
"o  c #04060A",
"O  c #181917",
"+  c #090C0F",
"@  c #281B1A",
"#  c #2F241E",
"$  c #282524",
"%  c #332A27",
"&  c #39332D",
"*  c #3A3431",
"=  c #3E3B35",
"-  c #472C1C",
";  c #493327",
":  c #423D3A",
">  c #4B3A32",
",  c #52372E",
"<  c #4A453D",
"1  c #45443B",
"2  c #55453A",
"3  c #584C35",
"4  c #66473A",
"5  c #6D4E37",
"6  c #6A6A2E",
"7  c #454443",
"8  c #4A4643",
"9  c #4D4945",
"0  c #4B4B4B",
"q  c #524E4A",
"w  c #554C48",
"e  c #55514C",
"r  c #5A554C",
"t  c #5B5A4D",
"y  c #555649",
"u  c #555451",
"i  c #5B5652",
"p  c #5D5A54",
"a  c #5A5B57",
"s  c #684B43",
"d  c #754945",
"f  c #67564B",
"g  c #77564A",
"h  c #635D54",
"j  c #635E5A",
"k  c #695B56",
"l  c #7B5C52",
"z  c #745C57",
"x  c #5B6358",
"c  c #646156",
"v  c #65625C",
"b  c #6A645C",
"n  c #6C695E",
"m  c #696455",
"M  c #726555",
"N  c #79655A",
"B  c #69644E",
"V  c #666462",
"C  c #6A6561",
"Z  c #6D6B64",
"A  c #6C6C67",
"S  c #736D64",
"D  c #7A6E64",
"F  c #746E69",
"G  c #786D69",
"H  c #6F716B",
"J  c #757166",
"K  c #7A7266",
"L  c #75726A",
"P  c #7A756C",
"I  c #7D796E",
"U  c #75786F",
"Y  c #7B7671",
"T  c #7D7973",
"R  c #787977",
"E  c #736971",
"W  c #8E3936",
"Q  c #B22F39",
"!  c #84473A",
"~  c #885248",
"^  c #976549",
"/  c #83655A",
"(  c #87675A",
")  c #986956",
"_  c #9E7257",
"`  c #836953",
"'  c #A46C56",
"]  c #AA765A",
"[  c #B4795C",
"{  c #AC6C52",
"}  c #8A6A62",
"|  c #82796E",
" . c #877668",
".. c #977665",
"X. c #837C74",
"o. c #897F74",
"O. c #847D79",
"+. c #877A78",
"@. c #927167",
"#. c #A77964",
"$. c #B87963",
"%. c #AE4647",
"&. c #C37D69",
"*. c #7F807A",
"=. c #CED715",
"-. c #CED229",
";. c #B98559",
":. c #858176",
">. c #8A8176",
",. c #86827A",
"<. c #8B857B",
"1. c #8D897D",
"2. c #928A7E",
"3. c #96897A",
"4. c #97937A",
"5. c #88876D",
"6. c #AC866A",
"7. c #BD856A",
"8. c #B98566",
"9. c #A58777",
"0. c #B88C75",
"q. c #B8947D",
"w. c #A8927D",
"e. c #ADA96D",
"r. c #99925B",
"t. c #C38B6D",
"y. c #C78868",
"u. c #CC936C",
"i. c #C6936B",
"p. c #D4946B",
"a. c #C78D75",
"s. c #D48B72",
"d. c #C89578",
"f. c #D29A74",
"g. c #D79577",
"h. c #D38A6D",
"j. c #C3AB77",
"k. c #D0916B",
"l. c #D3D54F",
"z. c #D2D46E",
"x. c #E6DD6A",
"c. c #8E8A82",
"v. c #8B8581",
"b. c #938D83",
"n. c #998E84",
"m. c #938A89",
"M. c #959185",
"N. c #9A9285",
"B. c #9C948B",
"V. c #9E998E",
"C. c #969289",
"Z. c #9D9A92",
"A. c #A39485",
"S. c #A2968A",
"D. c #A39A8D",
"F. c #A99A89",
"G. c #B99C87",
"H. c #A49C92",
"J. c #AB9D93",
"K. c #A39896",
"L. c #AE9890",
"P. c #A9A48C",
"I. c #A5A295",
"U. c #ACA395",
"Y. c #ACA49A",
"T. c #AEA99C",
"R. c #A9A798",
"E. c #B1A495",
"W. c #B2A69A",
"Q. c #B4AA9D",
"!. c #BAAC9D",
"~. c #B5A996",
"^. c #BCB69C",
"/. c #BDA18B",
"(. c #AEAAA2",
"). c #B4ACA2",
"_. c #BAADA2",
"`. c #B1A6A4",
"'. c #BCB2A5",
"]. c #BBB4AA",
"[. c #B6B3A8",
"{. c #BCB8B2",
"}. c #A99FA0",
"|. c #C89B86",
" X c #D49D83",
".X c #C69F90",
"XX c #E09C80",
"oX c #CBA38A",
"OX c #C8A487",
"+X c #D2A388",
"@X c #CAAA97",
"#X c #D4AA96",
"$X c #C9B49C",
"%X c #D6B19A",
"&X c #CDB08E",
"*X c #C1AFA4",
"=X c #C2B3A5",
"-X c #CBB3A4",
";X c #C3B9A5",
":X c #C3B5AA",
">X c #C9B7AB",
",X c #C4BAAC",
"<X c #CBBBAC",
"1X c #CCBAA4",
"2X c #D3BAA8",
"3X c #C5BCB2",
"4X c #CCBDB2",
"5X c #C8BABA",
"6X c #D3B6AD",
"7X c #CCC892",
"8X c #E8E294",
"9X c #CCC1AD",
"0X c #CBC5A8",
"qX c #D3C5AC",
"wX c #D5CAAF",
"eX c #D7C5AB",
"rX c #CCC3B4",
"tX c #CDC5BB",
"yX c #C9C4B9",
"uX c #D3C4B4",
"iX c #D6CAB4",
"pX c #D9CCB4",
"aX c #D4C5BA",
"sX c #D5CABC",
"dX c #DACCBC",
"fX c #DCC4B4",
"gX c #DDD2BB",
"hX c #DBD3B6",
"jX c #CBD1A8",
"kX c #E4D3BC",
"lX c #E2CBB1",
"zX c #E4E5A9",
"xX c #E2DE9E",
"cX c #D4CDC2",
"vX c #DCCEC1",
"bX c #DDD3C2",
"nX c #DCD7CB",
"mX c #D6D2CA",
"MX c #E2D3C3",
"NX c #E2DBCC",
"BX c #E4D8C7",
"VX c #E3DED3",
"CX c #E3CDC0",
"ZX c #E5E1D5",
"AX c #E5E4DC",
"SX c #EAE5DC",
"DX c #EAE4D6",
"FX c #E6E6E2",
"GX c #E9E7E3",
"HX c #EAE9E5",
"JX c #EBEBEA",
"KX c #E6E7E7",
"LX c #EEEEF0",
/* pixels */
"T.[.[.[.I.1.I I >.2.N.H.H.H.H.S.n.2.1.,.R L A Z b p e 9 8 7 8 7 c L A L L U X.T T X.X.Y R X.X.Y T Y Y +.,.X.Y.'.L M } D C b b b ",
"[.).R.Z.v.,.c.C.Z.Y.].,X<X>X<X4X<XQ.S.B.C.,.I G T S b a q 8 7 : S Y L Y Y Y X.X.+.X.+.Y T T T Y T Y Y X.o.X.Y.].G M ( n C b b j ",
"Z.v.R U X.O.,.<.b.B.H.J.!.2X2X2X,XE.B.b.+.X.<.n.M.N.B.N.b.<.I G T ,.U T T T X.X.X.O.O.T T T T Y T Y Y X.X.T Y.].G M ( n b c c j ",
"1.X.P L K G S S S I o.X.D.:X-X<X4XJ.2.o.o.v.N.N.H.J.U.Y.Y.Y.U.H.b.c.Y Y Y X.X.X.X.O.X.O.T T T Y T Y Y T o.X.U.].L M ( b j c b V ",
"C.H.I.D.N.M.M.2.1.X.| Y X.I b G I X.,.O.Y X.C.H.U.W.Y.D.J.F.S.A.C.c.T T T T X.X.T O.O.T T T Y Y T Y Y X.o.X.Y.].G M } b C m b j ",
"V.D.R.).].].{.4XsX5XY.L i u 0 0 u p v b v Z L T >.b.B.V.H.D.S.S.<.O.Y T X.,.X.X.T X.X.X.X.X.Y Y Y Y L Y +.X.Y.).G N } M C h c j ",
"T.Y.).].,X3X3XtX[.O.q 8 q u u j j v j c F F L T :.v.b.b.B.D.D.F.O.O.T T T O.T o.X.X.+.T T T Y Y T Y G X.X.| U.[.G M } b C h c j ",
"Q.[.)._.3XtX).o.q 8 8 u j j C V b A A T 1.,.X.b.b.B.B.H.Q.Q.Q._.b.c.,.X.T X.I T O.O.+.T Y T X.L X.Y E Y I P J.].G M @.m V c c j ",
"Y.Q.].{.[.Y e 7 0 e h k S G K >.2.<.1.M.b.b.B.Z.R.T.)._.].:X,X0XQ.B.4.| X.X.X.T O.O.U R R L X.I P L J K T X.H.'.J N } n C c c j ",
"].yX[.G 9 : 8 q j C n G o.S.'.aXmXT.1.b.Z.I.(.).].].,X,X9XrXwXrX(.C.C.X.X.Y T T +.X.T T G | X.L P P K I T X.H.].S N } n b c h j ",
"Z.,.k : : 9 i j n Y <.H.3XnXVXZX{.P.C.R.[.[.{.yXrXrXiXtXgXbXgXbX{.C.V.U T O.X.| X.X.I X.I Y P L P P K I X.X.H.[.S N ( b V c h j ",
"= * 7 : 9 q i Y N.=XbXVXZXsX'.H.V.I.(.{.yXyXsXnXnXVXVXVXAXAXSXAX9XH.).T K K m n K X.I T O.G L U P Y I Y R X.H.^.S N @.m C c h j ",
"* * 7 8 0 q L [.VXVXbX,XR.B.N.V.T.[.3XyXmXnXZXAXFXJXJXJXJXJXJXJXgX).I.h : * % * q V R T T Y | P Y I P Y T O.H.'.S N } c b c b j ",
": = 7 7 : 7 S [.'.Y.b.>.2.N.I.Q.[.yXmXVXFXHXHXHXJXLXLXJXLXJXJXJXcXc.i ; % % & $ # % C T L X.P P Y P P I T X.H.].G N ( c C j n k ",
": 0 0 7 8 q i c G I X.<.B.I.T.].yXNXAXJXJXJXJXLXHXJXHXHXKXJXKXKXyXm > s d s 4 ; 3 - 2 Y Y Y L P I P J I O.X.H.'.S l / j b c b j ",
"w q 7 0 u q r j G O.C.K.Y.).,XsXVXSXJXFXJXJXKXKXAXGXAXAXAXAXAXZXrXf ` |.a.t.8.8.7...2 D Y Y U K U K J I X.T H.].G l } c j a h k ",
"i j p j j j Y T C.Z.U.W.].,XtXdXdXbXnXZXDXDXVXVXVXZXVXVXAXAXAXZXrXN 6.g.g.g.g.g.g.i.g J U J J H J P J Y X.I V.].S N / c j h c i ",
"b h Z P T c.Z.H.H.T.).'.,X4XrXuXdXdXcXbXnXnXNXNXVXZXVXVXZXVXVXZXsX/ 6. Xg.g.XXs.7.7.l Z U J J L P J P Y X.T Z.].J l / v v h c i ",
"b c | c.B.H.Y.W.'.:X,X<XrXrXuXaXiXsXbXnXnXNXVXZXZXZXVXVXVXVXnXnX3X( 0.g.&.[ a.$.) ] ) N Y U J P L L J Y T I Z.].n g N c v t h i ",
"P 3.H.Y.].`.].:X:X,XrXrXuXsXsXcXnXnXVXAXAXAXAXSXAXFXGXAXAXFXFXFXbX9.d.d.] '  X&._ [ 8...P L P J L J L U Y P V.).S l / c v h h i ",
"Y.].[.).W.].<X<XaXsXcXvXNXNXVXZXAXSXHXJXJXJXJXJXJXJXJXHXHXJXHXJXlX0.g.XXa.y.g.s.d.s.y...G L J H L J L L T I Z.].A l / j p h h p ",
"Q.C.X.P h '.aXMXNXNXNXVXDXSXSXSXHXHXFXFXKXKXKXKXGXGXAXAXFXGXAXGXBXd.a.XXg.s.s.h.a.g.8.@.J J J J L L L P Y L B.).n l / h p p h p ",
"c r q p q ,XMXBXMXNXBXBXNXNXNXnXVXVXVXVXVXVXVXVXZXZXVXVXVXVXZXZXdXq.' d.t.$.] { { t.) N L J J U L L L L I L b.R.n l / j p r h j ",
"e a i x p Q.dXpXiXsXiXdXgXMXbXbXgXhXgXnXNXNXnXgXbXbXbXgXBXnXbXBXaX3.g #.$.$.a.$.[ ] 4 v H K P A J S S L I K C.Y.n l ( c c r h j ",
"9 q a v e Y.iXiXiXdXdXuXiXdXgXgXhXgXgXbXbXgXgXgXvXvXbXbXgXgXBXMX4XB.f 4 #.p.y.&.$.~ ; b J J L A J P S J I P M.T.b x l z h i h k ",
"r 9 8 i 9 U.uXuXuXqXuXuXuXpXpXpXhXhXgXgXgXgXdXhXdXiXdXhXgXgXkXgX6Xn.M ; 5 &.&.[ _ 4 % J F J G S J J H P I J M.T.c x z M h t h a ",
"C.F i p y U.uXpXiXqXqXuXiXuXeXpXiXhXgXgXhXhXgXhXhXpXpXpXiXiXiXiXuXT.N ; ; s ~ s , # % H L K S D J J J P P J N.T.M p m k k y k f ",
"v.F v A m W.dXhXhXiXwXiXpXuXqXqXiXiXsXhXiXiXhXpXhXpXpXpXhXiXiXiXiXiX9.s : % % % @ > q Z H J S S J Z J P J J N.Y.k p h d d e k a ",
",.J S U J W.dXpXgXpXwXwXwXqXqXqXwXwXiXiXiXiXdXiXiXiXuXqXuXiXrX_.^.fX6Xq.) 5 - - 5 N 2.J n J S H J Z S P J J N.Y.b i t k d r f u ",
"P Z A R I Q.hXdXhXiXwXwXiXwXwXpXsXdXgXhXhXgXhXpXuXuX<X>X=X:X].W.[.5XaX$X$.{ ^ ^ #.6.!.<.n J Z H J S S J J S n.I.V h f g W ~ f a ",
"P U v.Z.Z.].hXqXwXwXwXwXwXwXwXiXiXdXgXdXiXiXiXuX<X4X4X>X'.=X:X>X5X4X-X2X@Xd.0.i.t.6.=XB.Z S b n S J A S L Z c.U.x f 5 W Q Q ~ f ",
"I *.I.{.[.3XgXqX0XqXeXqXqXqX0X9XiXdXhXiX<X<X<X9X4X>X<XrX,X:X3X4X+X+X+X.X=X2Xu.p.i.#X:XY.U L S n A S Z A L Z 1.Y.z w 5 3 W Q %.%.",
"H S P :.K N.:X;X;X;X>X,X<X,X:X;X$X;X,X{.].9XuX<X5X4X2X<X:X=X2XoXg.|.-X-X<XwX$X.X,XuX<X<X_.T.H.<.Y j F A Z Z 1.I.t s 4 d W Q Q W ",
"c v S J m 2.]._.!.!.!.'.;X=X'.=X'.'.].'.;X<X4XyX4X3X4XuX%XoX Xs.s.&XpX6X%X#X+X%XuXdXuXsXtXrXaX4X].<.b A H Z ,.R.M 2 s 4 W Q Q W ",
"3.N.N.2.K M.).E.~.!.!.^.;X=X'.!.[.'.W.@X9XrX4XcX3X4X4X@Xd.g.h.y.d.OX2X6X%X#Xd.+X6XfXfXsXtXcXvXkXdXW.G b Z Z v.R.h w s 5 d W W 2 ",
"J.D.M.3.n <.W.Q.E.E.Q.!.'.'.Q.Q.Q.~.~.=XuXiXrX4XqX>X@X Xg.p.y.i.0.G.4X4XaXfXoXg. X%X2XuXrXsXsXdXdXuXN.Z Z A c.H.j w t 3 5 5 r u ",
"E.F.V.2.P 2.Y.Y.E.E.E.!.'._.!.Q.Q.E.'.rXcXsXiX1X%X#Xd.8.] #.[ [ |.*XcXcXuXqXOXh.u.g.oX%XuXdXaXMXvXcX).F A A 1.H.v u p r k f f i ",
"N.2.:.n h | Y.T.Y.W.Y.Q.'._.!.!.Q.T.).].].,X<X-XoX X;.^ ! ) ' { $.8.|.@X9XqXoXs.p.p.a.|.2XdXdXdXCXcXyXT A Z b.Y.x a q r f 2 i 0 ",
",.X.:.m b P U.Y.E.U.Y.Y.Q.Q.W.W.R.E./.G.q.G.|.|.|.8.' ' ) ' #.G.0.t.y. X2X1X/.$.y.u.[ 7.OX2XdXuXfXfXuX>.b n 1.I.: @ @ O + O O $ ",
"n b K M N  .J.E.Y.Y.Y.Y.W.W.J.U.U.OXf.p.p.f.s.h.$.) ( L.W.$X>X<X5X4X-X#X+X|.y.[ ] [ { [ a.oX-X<XOXq.G.| n b 1.Z.O   o .       . ",
" .K  .} ( ..E.Y.E.E.U.~.-XT.I.E.q.d.f.g.p.f.u.y.#./ n._.:X>X>X>X-X-X%X@X|.a.0.6.#.] ' ' ;.0.i.d.p.u.i.6.b x ,.4.O               ",
";X'.=X_.9.3.J.W.Y.E.Y.U.Q.R.H.L.j.d.f.p.f.u.7.] ..@.A._._.*X*X*X].*X-X@X@X#X@X#X!.@X|._ ^ { y.t.y.y.i.6.N v *.b.+               ",
";X0X,X;XA.3.W.Y.U.E.Y.H.U.H.L.|.g.f.f.u.y.y.] ) @...A.W._.:X*X*X:X_.*X>X-X-X-X-X].3X<X@X] [ &.y.u.;.;.[ ..b U P X               ",
"P.4.V.N.o.G K.B.S.H.K.H.J.H.F. Xp.f.u.u.y.[ ) ..A.A.A.!.*X:X*X].].].:X<X>X:X:X>X4X=X-X%X0._ ] u.h.i.y.y.6.m J S X               ",
"I n P 1.| n N.B.n.n.N.D.H.N.A.g.p.k.y.&.[ ' @.3.Q.S.A.L.!.`._._._.].:X=X=X=X>X3X6X-X@X@X0.#.' ] y.8.;.y.0.M J b                 ",
"c.c.N.R.X.Z :.>.1.v.2.N.n.2.4.i.y.8.[ ' ) )  .b.Y.J.J.E.L.E._.).!.*X_.!.E._.*X*X!.^.w.9...#.) ' ] 8.{ y.8.( J t           O O X ",
"(.).'.Q.A A :.:.T O.O.1.O.O.>.8.[ ' ) ^ (  .o.<.H.*X*XW.E.W._._.!._.=X_.W.!.*X*X=XQ.F.3....._ ) ^ ] ;.;.#.` S u         + O O O ",
"R.T.=XU.n v Y T R +.X.o.R R | ..' ~ g N K R T X.<._.*XQ._.)._.:X=X:X:X].W.).*X*X:X_.D.N.K  .( ` g ! ^ ` #./ G 7         . O $ O ",
",.b.M.:.h v I P I I Y T ,.T P I D N G P U T Y T S.].:X*X*X>X:X>X<X4X6X*X_.*X>X>X'._.J.S.3.<.h b g g 5 N / B } =         o . X + ",
"x c c n h e I T P P P X.:.T P P K P S J Y Y L Z.aXaX4X5X4X<X>XaXuXdXuX>X:X3X6X4X<X_.E.U.U.>.k j B M f f z g } &             . . ",
"K b t r r h X.L P Y Y T X.Y L F S J A A Y P Y ).uXsXuXuXaXdXaXaXdXdX4X4X4XuX4X4X4X_.E.Q._.+.b c x c k f g s z %   o . o . X X X ",
"I.2.<.J n L X.L L L L U U L Z Z Z Z H A A F X.5XBXvXdXdXdXdXdXbXCXdXdX4XfXdXdXdXuX3X]._.Q.S v j j a h g l y j % o o + o   .     ",
"M.1.:.J t t h A C Z Z A A Z b v V V A A A L c.cXMXdXvXbXdXbXvXvXCXdXaXdXdXvXCXdXaXaX3X,XK.b j A C i t s d y a $ + + + . .       ",
"J I n c < 1 p b v v v C Z C v V V Z v A A A +.].tXvXNXbXvXdXvXvXvXaXdXvXvXCXdXaXuXuX4X4X<.j j R n t r s g e r $ X X + O $ & 8 i ",
"< p q q < < c a v v v C Z Z C Z V C v V v F T b.I n.).aXNXvXvXMXdX5XaXCXCXvXdXdXiXuXtX,XA a a U P r t k } r z S Y X.1.V.R.).'.:X",
"y t y 1 1 1 h v v C C Z A A C V V v V A V v.).B.n P X.X.Y.rXvXaX6X>X4XaX4XaXaXuXrXuXsX).v V V *.o.c u r N 1 J [.T.T.R.R.Q.~.~.E.",
"H v q < < < h c A C Z Z Z Z b C Z V V j A `.,X=XD.b.D j X.J P H.).:X3X>X<X,X<XqXfXiXrXD.b m 4.R.R.J D 3 s < S E.4.*.O.H.4.<.C.v.",
"P I J n m h G I A Z S G S S Z Z Z C j V K ].].!._.).U.Y 1.= $ & 9 V +.<.b.n.2.3.>.M.O.E i Z P.0X^.F.3XJ.F.,.T b.m.O.3.U.3.<.5.>.",
":.:.:.:.X.I >.n.+.G S Z F L A C v v v C ,.{.:X=X=X).].Y.H.O.b & O @ $ * % % % * % q j F O.Z.'.^.&XqXBX8Xz.z.7X$Xe.e.7XqXH.J j r ",
":.J J J K K P o.o.X.| I K L F G A C c v b.4X:XQ.W._.W.W.H.T.R.Y.v.j = $ O O $ * 8 G 4.F.P.$X7XP.j.j.q.-.=.=.l.-.=.=.=.z.e. .B w ",
"1.:.:.| P G K o.| X.3.2.1.O.I L J n v m H.4X=X*X*X_.E.J.Y.Q.W.Y.).Q.Y.N.o.>.N.H.P.E.D.J.(.^.jXe.e.r.e.-.=.=.l.l.l.z.xXx.z.A.3.<.",
"4.N.N.N.o.K K | >.| X.>.1.b.>.+.J D n D R.,XQ.W.!.!.'.E.L.U.Q.Y.U.E.E.P.J.E.W.W.W.J.J.Y.I.(.jXhXjXiXqXx.-.=.l.8XzXzXz.7X^.5XK.`.",
"B.D.D.H.2.| P X.o.| >. .| o.>.2.<.P D D W.:XD.M.D.Q.Y.!._.W.H.).W.E.D.B.2.n.N.S.K.b.A.N.V.M.b.T.3XaXfXhX8Xl.x.l.0X4.6 9 0 p i b ",
"N.H.S.I.2.P  .>.>.>.>.o.| >.X.o.:.:.>.X.Q.].U.T.T.Q.Q.Q.W.).J.S.J._.T.D.D.H.H.Y.P.~.Y.Y.`.<.f k I 4.D.R.{.hXlXjXjX^.}.C.5.V 3 7 "
};
