/* XPM */
static char *waka41_jpg[] = {
/* columns rows colors chars-per-pixel */
"64 64 251 2 ",
"   c #020202",
".  c #0A0B0B",
"X  c #060809",
"o  c #090D12",
"O  c #1B1C1C",
"+  c #161513",
"@  c #0D0F0F",
"#  c #241B1B",
"$  c #29251C",
"%  c #1F2022",
"&  c #382D25",
"*  c #3A332B",
"=  c #3A3834",
"-  c #292727",
";  c #271C22",
":  c #48362A",
">  c #443A34",
",  c #523328",
"<  c #7D3D3E",
"1  c #3E453E",
"2  c #49433D",
"3  c #47443C",
"4  c #54463D",
"5  c #764739",
"6  c #6D4738",
"7  c #4A4643",
"8  c #4D4A44",
"9  c #474643",
"0  c #514C44",
"q  c #524E49",
"w  c #594A47",
"e  c #55524B",
"r  c #5B554D",
"t  c #5D5A4E",
"y  c #575748",
"u  c #565552",
"i  c #5B5651",
"p  c #5C5B53",
"a  c gray37",
"s  c #674D46",
"d  c #764A44",
"f  c #63554B",
"g  c #675749",
"h  c #775648",
"j  c #635D55",
"k  c #6B5C54",
"l  c #635E5A",
"z  c #685A57",
"x  c #795B53",
"c  c #5D6258",
"v  c #57614F",
"b  c #646256",
"n  c #6A6457",
"m  c #65625B",
"M  c #6B645C",
"N  c #6B685E",
"B  c #74665B",
"V  c #6E6A56",
"C  c #666661",
"Z  c #6B6561",
"A  c #6D6A63",
"S  c #6B6B67",
"D  c #726D64",
"F  c #736F68",
"G  c #7B6D65",
"H  c #747066",
"J  c #797166",
"K  c #75726B",
"L  c #7A756C",
"P  c #7D796E",
"I  c #797B66",
"U  c #7B7670",
"Y  c #7E7973",
"T  c #787A75",
"R  c #6C7162",
"E  c #92363A",
"W  c #B6353A",
"Q  c #B52B33",
"!  c #85413E",
"~  c #87514D",
"^  c #AD4243",
"/  c #886859",
"(  c #926C5A",
")  c #976A56",
"_  c #9E735C",
"`  c #8D6651",
"'  c #A6765B",
"]  c #BA7B5B",
"[  c #A46B57",
"{  c #8A6B67",
"}  c #926F65",
"|  c #827A6E",
" . c #877868",
".. c #967867",
"X. c #827C74",
"o. c #887E74",
"O. c #847E79",
"+. c #8B7C79",
"@. c #917D74",
"#. c #AD7A63",
"$. c #A67966",
"%. c #B27C63",
"&. c #B97D65",
"*. c #C57E62",
"=. c #BECC12",
"-. c #C9D707",
";. c #C9D312",
":. c #CBCD38",
">. c #CED337",
",. c #BC835B",
"<. c #A58D4D",
"1. c #868176",
"2. c #8A8276",
"3. c #86817A",
"4. c #8C857B",
"5. c #8D897D",
"6. c #91857C",
"7. c #918A7D",
"8. c #998879",
"9. c #958E75",
"0. c #BB8468",
"q. c #A78976",
"w. c #B78D76",
"e. c #B99174",
"r. c #AD896D",
"t. c #B6B574",
"y. c #9B9A5A",
"u. c #C7855B",
"i. c #CC955F",
"p. c #C48464",
"a. c #CC8C65",
"s. c #C48B6C",
"d. c #CC8C6A",
"f. c #C68667",
"g. c #D18D66",
"h. c #D38B69",
"j. c #CC9165",
"k. c #CC926C",
"l. c #CA9668",
"z. c #D49365",
"x. c #D3936B",
"c. c #D9956C",
"v. c #D99967",
"b. c #C78A71",
"n. c #C99677",
"m. c #D29472",
"M. c #D69A78",
"N. c #D48C76",
"B. c #C5B477",
"V. c #CBA675",
"C. c #E19C73",
"Z. c #B5C179",
"A. c #D3D755",
"S. c #D8D670",
"D. c #E2DB67",
"F. c #877E83",
"G. c #8C8782",
"H. c #948C83",
"J. c #978D87",
"K. c #959184",
"L. c #9A9286",
"P. c #9C948A",
"I. c #9B978B",
"U. c #9B9792",
"Y. c #A2968A",
"T. c #A39A8D",
"R. c #AB9C8D",
"E. c #A59687",
"W. c #B79B87",
"Q. c #A49C92",
"!. c #A99D92",
"~. c #A49A96",
"^. c #B0978C",
"/. c #ABA28C",
"(. c #BBA18C",
"). c #A6A195",
"_. c #ACA194",
"`. c #A6A39A",
"'. c #ACA59A",
"]. c #ADA99E",
"[. c #B2A496",
"{. c #B3A69A",
"}. c #B5AA9D",
"|. c #BAAD9D",
" X c #BCA69A",
".X c #BAB19D",
"XX c #B4B480",
"oX c #AEAAA1",
"OX c #ACA1A9",
"+X c #B4ACA2",
"@X c #BBAEA3",
"#X c #B7AEAB",
"$X c #B5B2A4",
"%X c #BCB2A4",
"&X c #BDB4AA",
"*X c #B8B5A9",
"=X c #BCB9B2",
"-X c #C69D84",
";X c #C6A48A",
":X c #C7A793",
">X c #C5B49A",
",X c #D8B699",
"<X c #C3B4A5",
"1X c #C4B5AB",
"2X c #C4BAAD",
"3X c #CBBBAC",
"4X c #C9B7A7",
"5X c #C4BDB2",
"6X c #CBBDB3",
"7X c #C9B9B3",
"8X c #D1BCB4",
"9X c #CCB7A7",
"0X c #D4CF8B",
"qX c #E2D792",
"wX c #CBC2AD",
"eX c #C3C2AE",
"rX c #D5C8AD",
"tX c #CDC2B4",
"yX c #CDC3BA",
"uX c #C8C4B7",
"iX c #D3C4B4",
"pX c #D5CAB4",
"aX c #DACCB4",
"sX c #D3C5BA",
"dX c #D5CABB",
"fX c #DACCBC",
"gX c #D9C6B8",
"hX c #DCD3BB",
"jX c #D8D5B6",
"kX c #DAD4AA",
"lX c #E3D5BC",
"zX c #E6CEB6",
"xX c #E7E1A3",
"cX c #CECBC3",
"vX c #D3CCC2",
"bX c #DACCC2",
"nX c #D6C7C1",
"mX c #DCD3C4",
"MX c #DCD5CA",
"NX c #DBD7C7",
"BX c #DCDAD3",
"VX c #E2DBCC",
"CX c #E3D7C6",
"ZX c #E3DDD2",
"AX c #E7DED7",
"SX c #E5E4DD",
"DX c #E9E3D9",
"FX c #EDE0CD",
"GX c #EAE9E4",
"HX c #E9E8E7",
"JX c #EFEDF0",
/* pixels */
"@XQ.J.4.4.H.P.I._.{.%X3X9X3X3XrX<XY.Q.P.H.G.+.| P F M i q 3 9 i O.U F Y Y O.O.O.Y Y Y Y Y T U U O.U O.X.O.H.tX4.n { D N m M l m ",
"1.L L Y X.+.2.4.7.T.!.}.3XiX8X9X<XT.L.3.Y 4.H.L.K.P.Y.L.H.o.J D 3.T U X.Y Y o.O.O.O.O.O.X.X.Y U U O.U X.O.7.uX4.n { M M m M m l ",
"5.3.Y L F F F F K O.X.4.@X2X4X3X{.P.3.Y 3.J.P.T.!.[.+X X{.{.!.P.G.3.Y X.Y Y Y O.O.O.Y O.O.X.U U U X.O.U O.H.uX4.n { n k m M l j ",
"U.Q.T.U.P.P.L.H.G.G.O.L Y N k G O.3.O.3.3.J.Q.'.[.[.!.!.E.E.E.E.G.3.Y Y Y O.O.X.Y Y O.Y T O.Y U Y Y X.X.1.5.5X4.n { D M m m l m ",
").).}.&X%X&X6XbXyXoX+.i q q u u e m c m m A Y 1.H.K.L.R.R.Q.~.H.4.O.L Y Y O.O.O.O.O.O.O.X.X.U U X.Y X.X.X.F.eX4.M } G M c m l l ",
"'.}.%X&XtXyX6X<XG.z 2 w i u u a m m m K Y K P O.O.H.7.L.T.Q.Y.X.O.O.Y Y Y O.X.O.O.O.X.Y Y Y U U Y U U X.+.+.2X4.n { D M m m m l ",
"$X$X*X5XeX#X5.p 7 0 e i j Z S Z Z A P 5.G.1.G.J.P.Q.Q._.}.%X%XT.G.H.O.Y T 3.Y O.X.Y Y Y U U Y U Y U Y X.+.4.5X5.n } D M m M m j ",
"+X#X=X$X3.e 3 q u i l D D  .o.H.4.H.J.G.H.I.~.`.].+X@X2X4X2XtX@XU.J.O.Y Y 3.Y O.O.X.X.Y Y U U L U F U U Y 3.2X4.M } H M m m m m ",
"2X#XX.q > 7 4 r z Z G o.L.{.yXZX5XH.K.U.~.$X=X*X2XyXtXtXsXrXpXeXK.Q.3.X.3.Y Y Y O.O.Y Y Y U U F U K Y Y X.5.2X4.Z } A Z M Z l j ",
"o.D > = 7 e b D | 6.T.%XMXDXMXyX_.P.U.#X=XuXeXuXpXwXpXNXhXhXhXwXT.'.+.Y 3.Y Y O.O.Y Y Y Y U U L U H Y Y Y 5.2X5.M } G Z n z j p ",
"* = = q u e F 2.@XdXFXDXmX5X'.P.~.{.2XuXuXdXNXNXBXVXSXSXSXGXGXBX].+X4.Y Y Y Y Y X.Y Y Y T U Y K T L Y Y X.5.2X5.B } D M n M m p ",
"= 7 q 7 7 j +XVXAXCXuX'.K.H.T.{.#XuXuXvXBXSXSXGXJXJXJXJXJXHXJXHXoX#X4.Y 3.Y Y Y X.O.Y Y X.T Y U U K Y Y o.4.2X4.k ( Z M n M b j ",
"= 9 9 1 7 l T.&X'.Y.4.4.K.Q.oX#XeXbXBXGXHXSXdXK.4.5.`.BXGXGXJXGX].].5.Y O.O.T 1.O.O.X.X.Y U Y U U K U Y o.3.5X4.k ( Z M n Z l b ",
"8 7 9 7 0 q l D U X.G.P.~.{.#XtXMXSXGXJXMX4.0 > : 3 : j Q.DXBXZX`.].3.Y O.O.O.O.o.O.Y Y U L U K U P U O.O.4.eX4.k ) Z M n Z k j ",
"q 8 8 w q i j F 3.H.U._.+X*XyXCXGXSXGXMXo.2 : , & & * * > L.SXBX`.].5.T O.O.P Y X.Y Y Y U L U H K P K Y O.2.6X4.x ( Z l m m j b ",
"l l l a l F Y G.I.~.'.$X=XeXpXmXNXMXFX5Xf s B 5 4 3 & & & w vXZX).].3.Y O.O.Y Y Y Y U U K K L F K K K Y O.4.5X+.k / Z l j l l p ",
"Z M H P 5.P.Q.`.'.+X*X5X6XtXsXdXpXmXbX.Xg ' M.a.' ` h x d w $XVX).'.3.Y O.X.Y Y Y U U K K K K U U K K Y P 4.5X4.z ( k C p M p j ",
"j L 4.P.Q.'.oX@X%X&XwXwXtXiXpXaXdXmXmX|.N w.-Xk.m.p.f.b.&.h #XMX`.].4.Y X.Y L U X.U U U K K K K P K P Y P G.5X4.x ( M m b M p i ",
"4.~.{.@X+X}.&X2X4XwXtXpXpXfXdXbXmXAXGX4XG b.C.m.h.h.g.u.p.' mXSX`.].3.Y X.U L U T U U U U K K K L H K Y L 4.=X3.z ( N Z p z t i ",
"+X@X+X~.%X6X6XtXdXbXmXMXZXAXSXGXGXGXDX;X@.n.f.%.' N.f.[ ' ..ZXHX).].G.U Y U L Y U U K U K K K K H H L U P 5.=XO.z ( M l p l j i ",
").7.P n P.dXhXNXCXZXDXDXDXGXGXGXHXSXCXn.w.M.&.) #.b.[ ` ( / tXSX`.oX5.T Y U K U U U F U K K U K L L L L L 3.&XO.z ` l j t j t r ",
"e 2 e 0 U.FXCXVXCXCXCXVXFXVXNXVXBXVXlXc.b.M.&.#.&.h.[ ) ' $.rXFX`.].3.U T U U L U K K U K K K K F H K L K 1.#X| z ` z i t j t r ",
"u p m e P.hXrXrXaXhXjXhXhXhXhXhXCXCXlX-X$.N.d.b.f.m.f.p.0.r.aXlX).'.1.P U U U U U K K U K K K K D K K L L O.@XP l ` M l j j b i ",
"8 p l 0 H.pXpXjXaXaXaXjXhXhXhXlXzXhXCX,X@.n.b.*.m.f.p.f.h.r.NXmX).'.O.L U K F K K K K U K F F F H K K U P 2.*Xo.l ~ n z j j j p ",
"0 3 u q 4.iXiXpXiXpXpXaXaXaXaXdXjXCXlXpX..$.[ ' s.m.h.f.s.W.zXlX/.!.X.K K D K L T I K K P K K K K K L L K 1.$XX.c M x ~ p c k y ",
"A u u e 7.iXrXpXaXpXpXpXaXpXaXdXhXhXlXaXB 6 ) ] -XM.m.x.b.W.zXjXT.!.1.Y P K L P T K K K K K F F K H L P K 1.#XO.z M g x t p z e ",
"K S R N K.pXjXlXhXhXaXaXaXpXpXpXfXzXgXdXV , ` b.n.M.M.N.0.:XjXhXR.).1.K K K K K K K K K F F F F K H K P L 1.$XP c m b h f p p u ",
"L S S F ).hXaXaXhXaXpXpXpXpXpXrXrXaXaXtX .: 5 %.n.M.M.s.[ W.aXmXT.'.3.K S K F K T K K K F S F F K D K K K 1.+XP p k j d f p i f ",
"D A T Y I.pXaXlXaXaXaXaXaXaXpXaXpXjXNXfX6., , h b.n.n.s._ ..3XhX~._.2.F K K K K K K K K K F A K F F H H K 1.}.L v k n 5 d g p e ",
"L 3.U.U.}.hXpXjXkXaXrXrXaXaXaXaXlXjXjXbX:XB , h s.m.d.0._ ...X2X'.'.4.L K K S K F F F F F A F K H F H K H X.oXP g d ~ E Q ^ ~ t ",
"P U.=X=X&XfXiXtXrXrXwXiXrXrXiXrXhXvXeXtXbX{./ _ s.M.d.%.` @.{.'.[.%X'.P.6.O.K U F F F F F F H A H H H H D | ]. .f s 5 5 W ^ ~ s ",
"H P T T 4.%X4X4X9X9X9X3X9X9X4X3XyXuX=X&XvXyX(.s.l.k.p.%.) q. X%X}.4X<X2X5X+X3.F K K F K K S A H A A D R N P ].L 4 6 ! 5 Q W ^ 5 ",
"M N P m P }.%X}.|.%X|.<X<X3X7X2XtXeX&X+XtXgX9X-Xx.a.p.%.r. X<X<X2X1X1X6X3XsX&XO.D K D H K K D D S A D A A X.'.G s s 6 5 Q Q Q s ",
"H.H.K.P 2.+X}.}.}.|.|.2X3XtXiXyX6X2X5X+X1XiX:Xn.x.f.b.b.(.<X1X<X1X2X3X6XiXsXtX{.P N H H A A A A C A A A A X.].I w h d E 5 d s w ",
"E.P.J.H H Q.[. X[.{.}.3XyXdXsXsX8X7X6X@X1X6X;Xx.d.b.-X:X1X7X5X7X5X6X6XiXdXiXiXyXQ.A H H A A A A A A Z A N Y ].L i p s d h t e e ",
"T.Q.L.3.O.+X`./._.[.+XtXdXdXsXsXnXiXiX3X1X9XM.v.d.f.-X<X7X5X5X8X6X5X7XsXgXiXtXiX&XX.A A A A A Z A A A A N P ].L r v y g h g f w ",
"9.5.N b N '.`.].[.[.|.yXbXdXsXsXyXiX3XiX<X:Xm.i.h.f.W.<X6XuX7X8XyX6XyXsXiXgXiXiXtXP.N D S Z A D A A M A A Y oXH i z f g r e t u ",
"1.1.N n B Q.'.'.'.[.}.yXnXdXsXdXyXgX3XpX>X;Xm.v.h.p.-X<X6XsX8XiXyX6XsXnXtXiXiXiXdX@X| D F S A Z A Z Z A N P +Xj % ; ; # O O - - ",
"p N B B  .R.'.'.'.[.{.wXdXnXsXsXdX8X3X9X;XM.x.f.f.e.;X9X5XyXyXdXsXiXsXsXiX6X3XiXdXtXJ.A C S A M S Z Z M M L `.7             o o ",
"F |  ./ / ^.{.'.[.[.{.3XfXbXbXfX6X@X X(.b.C.h.d.f.b.:X<X5XyXsXyXsXsXsXsXsXiX3XpXfXdX+XK C C A Z Z m M m N K `.=                 ",
"<X|.>XL.@.[.{.[.}.[.R.4XbXcXvX8X;Xm.k.j.v.v.h.d.f.w.:X4X<X3X3XsXnXsXgXiXyXtX3XgXvXcX$XI S Z Z Z m M M j N H U.-                 ",
"2XwX6X!.@._.[.!.)._.R.}.yXvX9X:XM.x.k.l.x.k.d.a.f.w..X3X1X3X6XnXyXiXgXsXsXyX2XpXeX<X(. .Z m M l m M j M n H P.O                 ",
"T.T.K.7.J L.~.K.Q.I.R._.tXdX;XM.c.x.x.c.k.d.a.p.*.w.>X1X7X1X7X8XiXiXgXgX8X7X}.}.R.n.d.r.G Z D M N m m n b N G.+                 ",
"R I 6.4.A 4.K.H.Y.K.Y.Q.+X4Xn.M.c.v.x.c.j.j.d.u.&.w.<X1X7X1X3X8XiX3X6X6X3X4X8.q.e.k.z.x...Z m M M m m m b N 3..                 ",
"4.H._.4.D O.4.7.4.5.K.G.K.R.n.c.c.z.z.x.a.a.p.] 0.W.@X7X7X6X7X8XiX3X6X2X6X<X( #.d.z.z.c.0.V c N m j l l j A T .         . . . X ",
"%X@X*XP b P O.o.X.3.5.4.O.4.w.m.M.x.v.x.a.a.&.] w.W.{.1X1XtX6X8XgXiXiX3XwX9X) r.p.l.i.g.k.} m C m j j p j A F X       X + O O O ",
"[.%X$XP p U X.X.Y Y 1.3.3.P o.r.l.x.c.z.a.p.%.%.E.[.+X@X4X3XtXiX8XiXiXwX4X1X..( ,.z.g.x.l.r.n p m b l j n D Z         . + O O O ",
"9.L.5.A p K Y L K O.X.Y O.T S ..p.x.c.x.a.,.#.#.R.{.@X<X9X3XtXsXtXgX8XgX6XuX7.G ' u.h.x.l.e./ m b l l j k A l             X . . ",
"n N j b u L P L H L X.+.X.U K K  .n.f.p.p.] #.q.^. X@X@X<XiXiXiX8XaX8XiXiXiX).N ( ] u.z.v.l./ c b z j j ~ / q             X . + ",
"N t r j q M L P L P Y X.Y U K K { q.w.#.#.%.W.^.'.@X@X}.4XgXgXpXiXiXiXiXgXfX%Xo.B &.u.a.g.j. .c b t p x d k 8   X X X @ @ + @   ",
"K.3.Y M F X.U K K H U Y K S S S C L [.W.(.^.<X!.{.@X<X<X9XwXgXdXgXiXgXaXpXdXdX).J _ u.l.z.j...k j p b ~ g g 1 . X X X X         ",
"3.4.1.p u Z Z Z S S S S S S C C S S ~.5X7X7X1X&X@X<X1X9X3XtXgXpXpXiXgXaXiXiXgX3X2._ u.a.x.a...k j m f < f p = X o o o X         ",
"P n N e = e m C m m C Z S C C C C C O.=XsXtX6X3X1X<X3X3X3X6XiXgXdXfXgXfXgXgXgXtX8.$.u.a.g.d.q.G m j s ~ y w = @ .   + + - > 8 u ",
"n q 0 0 = u m m C C Z Z Z C C C l C Z @XtXyXtXiXsX8X6X6X9X3XgXfXgXmXpXgXsXpXgXfX.X%.u.a.g.k.q.| j y s / c f D c L P K.T.{..X%X4X",
"0 e 8 2 3 p m Z C C A A S Z C C Z S M *XsXdXnXbXbXbXbXsXsXtXgXfXgXbXdXpXiXdXdXaX<X#.] z.i.u.q.9.B p y B f M {.$X}./.}.{.%X.X/./.",
"N c 8 2 3 t m m C Z A D A S Z C C c F 6XbXnXyXbXnXMXVXbXmXfXdXgXfXdXfXdXdXmXfX<XG.` ,.u.u.i.(..X| S 4 s w l Q.E.G.4.T.P.P.K.H.P.",
"| D N n j n J D N D D F D S Z S A l X.yXvXnXbXfXbXbXCXCXCXCXCXfXgXbXfXfXfX|.L.g w { ] ,.j.l.*X3XI.eX/.E.+.F.6.4.3.+./.E.1.O.2.U.",
"4.o.o.2.| o.H.4.G D D D F F S Z p m 3.cXMXMXMXCXCXVXMXmXbXdX7X&X2X%X`.4.N f M D 9.8.] u.h.d.>X>XrXlXqX0XA.0X>Xt.t.XXuXOX .R r j ",
"J J D J D J o.| o.| P J D D D D A l N 5.Y.~.%X6XnX5X'.G.S l f p e : & * 2 n o.~.T.q.p.z.h.j.B.S.V.B.:.:.-.>.>.-.-.=.A.t.y.k i $ ",
"4.| | P G J o.| X.2.7.H.o.| L F D M N | J.F D k O.Z > $ + O + + # # 3 N K.{.Q.{.`.q.p.z.j.V.Z.y.<.e.>.;.-.=.-.-.-.-.=.>. . .G.L ",
"8.K.J.5.L G | o.| X.2.6.6.4.| P D B D Q.5X+X@XQ.~.7.| D J F L L | 7.T.}.+X|.[.}._.e.z.v.V.,XjXkXuXwXS.>.-.-.S.0XD.S.kX0Xo.2..XwX",
"E./.T.H.| F | o.o.o.| | o.O.2.2.| L N {.1X2X2X%X[.[.|.}.}.{.}.@X}.%X{.}.[.[.[.[.T.e.c.v.x.w./.<XeXdXkXqXD.A.xXZX5XuXK J.~.`.G.b ",
"I.R.T.H.|  .o.4.2.2.o.o.o.o.o.2.o.o.4.%X%X%X<X%X%X}.{.{.}.}.[.[. XR.Y.R.R.!./.R.E.b.c.c.M...V G G.I._.%XiXrXkXkXuX.XT.G.I P b t ",
"7.T./.P.2.| 4.6.4.6.6.4.2.o.o.2.2.o._.tX<X|.%X%X.X}.}..X}.@X X{.[.E.E._.{.{.}.{.W.M.c.z.n.D 3 p r J 2.H.J.~._.7XkXnXiXbXaXwXwXtX"
};
