/* XPM */
static char *waka22_jpg[] = {
/* columns rows colors chars-per-pixel */
"64 64 256 2 ",
"   c #010201",
".  c #060B0C",
"X  c #0B0B0B",
"o  c #060808",
"O  c #191817",
"+  c #090C10",
"@  c #231E18",
"#  c #27231D",
"$  c #37271D",
"%  c #252523",
"&  c #3B3733",
"*  c #362F29",
"=  c #21221F",
"-  c #493629",
";  c #423E3A",
":  c #453A31",
">  c #553D31",
",  c #7C3E39",
"<  c #432918",
"1  c #3F443D",
"2  c #44423D",
"3  c #4A453E",
"4  c #57463A",
"5  c #524934",
"6  c #6C4738",
"7  c #787A3B",
"8  c #4A4643",
"9  c #4C4A45",
"0  c #484745",
"q  c #524D49",
"w  c #544C44",
"e  c #54524B",
"r  c #5A544C",
"t  c #5D594E",
"y  c #575447",
"u  c #5A5652",
"i  c #5D5A53",
"p  c #5A5A56",
"a  c #4F514C",
"s  c #6A4A44",
"d  c #784644",
"f  c #66574B",
"g  c #795847",
"h  c #625D54",
"j  c #6A5D54",
"k  c #645F59",
"l  c #645855",
"z  c #735A55",
"x  c #646257",
"c  c #6B6156",
"v  c #65625C",
"b  c #6B645C",
"n  c #6C6A5C",
"m  c #72645B",
"M  c #7A6658",
"N  c #585A61",
"B  c #656562",
"V  c #6A6662",
"C  c #6D6A63",
"Z  c #686C66",
"A  c #736D65",
"S  c #7B6D64",
"D  c #736E6A",
"F  c #766965",
"G  c #6E736A",
"H  c #747166",
"J  c #7A7266",
"K  c #75726A",
"L  c #7A756C",
"P  c #7C786E",
"I  c #75796A",
"U  c #7C7671",
"Y  c #7E7973",
"T  c #797977",
"R  c #6D717A",
"E  c #5D6055",
"W  c #8B3633",
"Q  c #AF2E34",
"!  c #C8393D",
"~  c #83473D",
"^  c #935349",
"/  c #8C614C",
"(  c #9A684E",
")  c #886559",
"_  c #976955",
"`  c #9C775E",
"'  c #A66B57",
"]  c #A8765C",
"[  c #B37B5C",
"{  c #B9785B",
"}  c #AF6D52",
"|  c #8D6562",
" . c #836963",
".. c #946C6A",
"X. c #81796E",
"o. c #837668",
"O. c #997867",
"+. c #837C74",
"@. c #897E75",
"#. c #857D7A",
"$. c #837977",
"%. c #917D72",
"&. c #A67965",
"*. c #B67C65",
"=. c #A67F70",
"-. c #C37E5E",
";. c #C27C65",
":. c #C5434B",
">. c #B9D930",
",. c #CED813",
"<. c #CAD42C",
"1. c #E0D03F",
"2. c #B48B5B",
"3. c #858175",
"4. c #8A8276",
"5. c #84827B",
"6. c #8B857B",
"7. c #8D897D",
"8. c #928A7E",
"9. c #968677",
"0. c #958A71",
"q. c #B98569",
"w. c #A98A78",
"e. c #B78A75",
"r. c #BA957A",
"t. c #A2836C",
"y. c #A8A863",
"u. c #C5855B",
"i. c #D58D5B",
"p. c #C38464",
"a. c #CC8C6B",
"s. c #C78867",
"d. c #D48A69",
"f. c #CD916C",
"g. c #D4956C",
"h. c #C98C75",
"j. c #D68E77",
"k. c #CC9373",
"l. c #C89779",
"z. c #D49B75",
"x. c #D69778",
"c. c #CFA476",
"v. c #D1D650",
"b. c #D5D36B",
"n. c #CDD26B",
"m. c #E4D557",
"M. c #8E8982",
"N. c #8D8682",
"B. c #938D83",
"V. c #978D85",
"C. c #969185",
"Z. c #9A9386",
"A. c #96938A",
"S. c #9C948A",
"D. c #9E998D",
"F. c #9D9A93",
"G. c #8F908A",
"H. c #A39B8D",
"J. c #AA9C8D",
"K. c #A69586",
"L. c #B49C8A",
"P. c #A39D92",
"I. c #AA9E92",
"U. c #A69D9A",
"Y. c #B0948C",
"T. c #A9A38B",
"R. c #A4A194",
"E. c #ABA295",
"W. c #ADA59A",
"Q. c #AEA99D",
"!. c #A7A59A",
"~. c #B2A59B",
"^. c #B4AA9D",
"/. c #BAAC9D",
"(. c #B6A495",
"). c #BBB19E",
"_. c #BBB89A",
"`. c #B3AB8A",
"'. c #AEABA2",
"]. c #A7A6A1",
"[. c #B4ACA2",
"{. c #BBAEA2",
"}. c #B5ABA6",
"|. c #BCB2A3",
" X c #BCB5AB",
".X c #B8B4A9",
"XX c #BDBAB3",
"oX c #9DA9A5",
"OX c #C99B83",
"+X c #D69A82",
"@X c #D5A38B",
"#X c #C8A897",
"$X c #D6AA95",
"%X c #C9B59D",
"&X c #CCAE92",
"*X c #C2B4A4",
"=X c #C4B9A6",
"-X c #C3B5AA",
";X c #C4BAAC",
":X c #CBBCAC",
">X c #CAB6A6",
",X c #D5BAA7",
"<X c #C4BCB2",
"1X c #CBBDB2",
"2X c #C2BEBB",
"3X c #D8BCB3",
"4X c #C3AEA0",
"5X c #BFC0AE",
"6X c #D2D194",
"7X c #E6E398",
"8X c #CAC1AD",
"9X c #C5C3AD",
"0X c #D3C4AE",
"qX c #D6CAAE",
"wX c #DAC7AE",
"eX c #D5D2AD",
"rX c #CCC3B3",
"tX c #CCC4BA",
"yX c #C8C5B7",
"uX c #D3C4B4",
"iX c #D5CBB3",
"pX c #D9CBB4",
"aX c #D5C6BA",
"sX c #D5CABB",
"dX c #DACCBC",
"fX c #DAC4B8",
"gX c #DDD2BC",
"hX c #DCD2B6",
"jX c #CDD3A9",
"kX c #E1D2BE",
"lX c #E3CCBB",
"zX c #EAE3A5",
"xX c #D3CCC2",
"cX c #DCCEC2",
"vX c #DDD2C4",
"bX c #DCD5CA",
"nX c #DEDACE",
"mX c #D6D3C9",
"MX c #D6D3C9",
"NX c #E1D3C5",
"BX c #E3DACB",
"VX c #E2D8C7",
"CX c #E3DDD3",
"ZX c #E3DFD9",
"AX c #E1CFC1",
"SX c #E5E1D6",
"DX c #E9E2D6",
"FX c #E5E3DB",
"GX c #E9E4DC",
"HX c #E9E0CF",
"JX c #E6E5E2",
"KX c #EAEAE4",
"LX c #EBEBEA",
"PX c #E9E8E4",
"IX c #F0F0E8",
"UX c #D9E3DB",
/* pixels */
"F.'..XXX.X5.K Y P 6.B.Z.P.S.A.Z.V.8.8.#.L K b B Z p r 9 2 8 2 1 u D D D L L U Y +.+.Y Y Y U +.U Y L Y +.3.4.P.;XL m | A A b k r ",
"'..X'.R.C.4.M.B.S.U.{.;X1X:X:X:X>X^.P.S.C.6.P J Y V b p q 9 3 2 v U L K Y +.Y +.+.3.Y Y Y Y Y T P P +.#.+.+.H.<XP m | m V b b i ",
"!.C.5.T Y 5.B.B.V.A.P.~./.>X3X,X:X/.H.B.5.#.6.8.B.8.C.V.7.#.J b Y #.Y Y #.+.+.3.+.+.Y Y Y Y Y Y Y P Y +.+.+.P.<XP m ) j b k b p ",
"B.Y L J H H H A K P @.B.K.=X8X>X:X/.V.6.+.+.B.Z.S.P.W.W.E.!.E.R.V.N.+.+.+.+.+.+.+.5.Y #.#.Y T Y Y L Y P #.+.D.;XL m | k b k v h ",
"V.S.H.A.V.B.6.6.+.$.L D L 6.Y J 6.7.#.#.5.N.F.R.E.^.W.E.I.J.P.K.A.B.+.+.3.X.Y +.#.3.Y +.Y Y Y U P L L Y $.+.H.;XJ m | b b b k h ",
"D.U.E.W.[.|..X;X1X1X'.#.B p 0 9 q k V V v V K Y 4.C.Z.H.P.H.K.S.7.6.P +.#.+.X.$.+.+.Y Y Y U Y T L L Y P #.X.S.;XL m | m b k k h ",
"E.W.[.XX;X;XtXtXaXS.C 8 0 a a l B k k v D K H Y Y 6.6.B.S.H.H.K.6.6.+.Y Y Y Y U #.3.U +.Y Y Y Y P P P P +.X.Z.;XP m ..b b k k h ",
"'.[.^. X<X1X;XK.j 3 0 q l v k V B V V I 4.4.Y M.M.F.C.F.E.W.^.^.M.M.5.#.Y Y $.Y +.#.Y Y Y Y Y U T L K L +.X.V.;XP m ..b b v k h ",
"'.'..XXXXXS.v 8 0 q q k F m L X.6.X.6.V.M.M.A.F.P.!.[.[.|.=X;X=X[.B.S.+.U U $.Y +.+.+.+.Y U Y K L K K L K P Z. XX.m ..b b b v i ",
" X XXXC.r ; 9 9 u k V A P 7.E. XbX'.B.V.S.U.Q.[. X X;X;X1XrXiXuX XZ.F.+.$.T U Y $.#.+.+.U T U K L I J P K +.S.;XX.m ..c b b x i ",
"[.F.Y 8 2 8 e p v L #.C.[.sXDXDXsX!.C.F.'.[. XtX9XrXrXiXsXsXsXvXtXF.P.#.T Y Y U $.+.+.Y Y I I L L L H L L +.Z.9XX.m ..c b v x p ",
"3 & 8 & 8 q p D 6.E.<XBXSXBXrX~.H.U.!..X2XtXtXsXbXbXnXSXDXSXDXFXtXP.].5.Y Y Y +.+.Y Y Y Y I L L L I H Y U #.Z.;XX.m ..c b v v i ",
"& & & a 0 q i R.sXCXZXxX[.Z.A.K.R.'.XXyXmXmXnXSXFXJXKXLXLXLXLXLXnX}..X5.Y Y +.+.Y Y U Y Y L L L K L H P Y #.C. XX.m ..c V b k h ",
"& 8 0 & 2 9 v  XtX XP.B.B.C.P.!.[.<XsXmXUXJXJXIXLXLXLXLXLXLXLXLXnX!.].P U T Y Y #.+.Y Y L L L L K L J P +.+.V.;XJ m ..h b B v h ",
"8 ; 1 0 0 q e b J P X.6.C.P.Q. XtXMXZXKXLXLXLXLXLXLXLXLXLXLXLXLXbXR.!.T Y Y +.+.Y +.+.U L L L I J L J T +.+.Z.8XX.c ..j v v v i ",
"9 a 0 0 9 q r k S +.6.S.!.!. XyXBXGXGXLXLXLXLXLXJXJXJXJXFXFXFXSXmXF.].Y K p r h D T Y U L L K K K I J L Y #.A.rXJ z | h k v v i ",
"u p u e p v b L N.S.U.Q..X-XrXsXbXbXnXCXSXSXSXFXFXSXnXCXCXFXGXFXmX].!.f ; & $ % * 3 R Y L S L L H K K I Y P C.;XP m ) h h h i r ",
"V k C K L 5.V.F.U.'.}. X;X1XrXiXiXdXgXbXnXnXnXnXnXCXFXSXSXSXSXnXgXA.i 2 & - $ - > - w K K S J Z J K K T P T B.;XX.m ) x h v x i ",
"F k S 6.S.I.W.W.{.{.-X;X1XrXrXrXuXpXdXvXnXBXCXHXSXSXCXCXnXnXnXnXgXJ 4 g z / ' q.q.( > G G A L L K K D U Y P B.XXP m | h i x k r ",
"m +.A.E.[.'.{.;X;X8X8XuXrXsXsXsXvXmXbXCXCXSXFXGXKXGXFXUXFXFXPXGXdXb O.+X+Xx.g.x.x.h.6 x G L S L K K K L P P Z. XJ z ) h h k i r ",
"E.[.[..XW.-X-X:X:XtXsXsXgXbXnXHXGXGXKXKXPXPXLXLXKXLXKXLXLXIXIXKXFX$.e.x.x.x.x.j.] q./ j Z P S n K L K K L P B.;XS b ) h i i i r ",
"{.E.A.7.A !.sXdXmXCXCXZXGXKXGXLXKXKXKXKXKXLXLXPXPXPXJXJXJXPXPXGXUX+.&.x.s.2.g.*.} &.&.) X.S J L K L K K K I B..XS z ) h t x i r ",
"P h 9 e 9 Q.VXVXVXBXBXBXCXCXBXnXnXnXnXCXSXSXUXSXSXSXCXSXnXSXDXDXnXo.` l.] ( a.h.*.[ e.*.=.J D U D L K K I K 7.[.J j ) h i i p y ",
"e r e E q !.iXpXpXhXpXpXhXhXgXgXNXgXvXvXBXBXVXnXgXvXvXvXBXBXBXBXfXV.O.l.e.*.j.j.j.z.z.} *.J G D D D A K J J 6.[.S b ) x h x i r ",
"3 e i b q Z.iXpXiXiXiXpXpXhXgXdXgXgXgXgXgXgXvXkXgXgXgXgXNXkXkXlXqXw.e.z.OXx.d.j.s.x.x.( O.L L D A K H K J L 7.[.L l j z x r x u ",
"q 8 0 a 9 C.uXuXuXuX0XiXqXpXpXiXgXgXgXgXgXgXgXhXNXgXgXgXkXlXkXkXpXY.e.h.@Xx.u.' { h.h.6 M S Z L H K K K L L 7.[.S h j z j f i r ",
"G.G u p u C.uXuXiXiXqXqXpXpXpXuXpXgXgXgXgXgXgXgXgXgXdXpXdXpXpXpXdXK.e.q.r.x.;.' ' *./ - i L D R H K S K L J 6.[.J t x f g f t e ",
"V.K k B v K.sXkXpXpXqXiXqXpXqXpX0XpXiXhXhXhXgXgXpXhXpXpXpXpXpXpXiXZ.K.g g *.;.^ } q.4 $ u U D D Z K D K L D 6.}.J p h r d t a u ",
"7.L Z P H H.iXhXkXpXpXqXqXqXqXiXqXiXiXiXiXiXhXpXpXpXpXpXpXpXhXhXqXR.~.z > _ h.} *.O.> $ i D Z S S K D K K J 5.'.S p E a f r w r ",
"P C Z T P T.pXhXkXhXqXwXwXqXqXiXpXpXgXgXgXgXpXpXpXpXpXpXfXwXpXdXwXK.[.N.- > _ &._ 6 $ $ r K n J D D A D K J 6.'.G p x s ^ d s w ",
"P K Y A.A.Q.aXiXpXqXqXqXpXqXpXpXpXsXgXvXcXgXpXhXpXpXpXpXpXpXpXpXdX!.2XY.> - - > - < $ 4 b A V A C D A D J Z 5.'.n t z ^ W Q ^ d ",
"T Y F.XXXXyXdXuX0X0X0X0X0X0X0X0XiXhXgXgXrX8X8X0XuX0X0X0X0X0X0XuX XoX2X3X .> - - # : s N.5.A L Z V A C D G A 3.'.b s 6 ~ W Q :.^ ",
"D L U N.Y C.9X*X=X=X>X;X:X:X;X=X X=X9X X;X;X1X:X:X:X-X1X1X-X*X>X.XF.2XxX(.' / 6 6 / &.w.!.D V H H Z b D H C +.Q.n 4 4 6 , Q ! Q ",
"v b k I n Y {.4X/.).*X=X;X=X*X|._.|.).|.|.*X|.|.*XuXrX;X1X1X1X<X.XW.>X,X,Xr.q.[ [ p.[ e.-XT R D Z D C C C C +.Q.c s s s , Q Q W ",
"6.9.7.B.I 5.{.4X/.(.^./.*X*X).).|.).).|.|.|.|.*X1XuX0XiX1X:X1X1X,X$X+X+Xj.OXq.d.u.s.q.L.1X6.U B C C Z A C C +.Q.Z y f , d W , 6 ",
"J.H.S.C.J +.W.~.~.Q.(./.).)./.)./.).^.|./.^.|.;XiXuXuXuXuX1X,X,X+Xl.OX$XOXl.k.x.f.q.#X=XXX~.P.C.P V b C C C 5.Q.A r e w w s s s ",
"H.T.H.A.+.4.Q.W.Q.E.E./.*X).^././././.^.^.^.;XuXaXuXaXaX1X,X+Xx.g.h.@X:XiX,Xl.z.l.OXfXsX9XuX1XrX|.P.+.V A b 5.'.V r u y f f f q ",
"T.C.7.n b S W.^.E.Q.(.^.{.|./.).(.)./.^.).*XtXdXfXuXrXuX3X+Xh.j.g.;.OX3X<X3Xc.f.k.x.$X3XxXxXfXxXcXcXP.V D V +.Q.G p l f d y r e ",
"8.3.3.n z S I.W.Q.Q.W.W.^.{././.~.^.Q.`.{.1XaXaXuXuX,X%X@X+X;.h.;.q.$XyX<X4X@Xd.a.j.h.&XdXxXcXcXuXcX-XL V C Y '.a % $ = O @ @ % ",
"A v I m S ) J.T.E.Q.~.E.^.~.W.E.W.~.E.!.-XaXcXaXsX,X$X@X+X*.( ] *.L. X<X,X,XOXq.2.{ { l.3XaXdX0XdXdXvXB.b b Y ^.&         o   + ",
"n n J J M ) Y.E.E.~.~.^.;XE.(.E.E.R.!. X3XlXdXtX%X@X+Xx.q.( ' ' [ *.OXOX,X$Xx.s.*.{ u.c.%XuX1XdXaXxXcXU.b c J F.%               ",
"%X)..X(.w.t.(.W.Q.~.~.Q.|.E.E.P.P.J.T._.=XtX0X$Xz.k.q.*.] O.=.=.&.[ ;.;.a.s.k.j.x.z.j.k.l.3XcXsXlXlXdX-Xn V K F.O               ",
"9X9XiX=XL.9.~.'.E.E.E.(.E.R.J.H.P.r.r.r.L.#X&Xk.a.q.&.=.L.(.(.(.Y.w.e.s.h.r.e.Y.q.q.s.-.s.@X1XxXuXpXsX<Xm b C B.O               ",
"T.E.R.H.8.S A.D.H.P.P.L.J.R.D.K.K.l.f.d.l.OXz.g.s.] O.K.~.~.(.E.{.U.U.(.{.[.#X#Xr.r.e.*.p.h.&XsXxXsXxXyXG p J X.+               ",
"Y S L 7.6.J C.A.Z.A.S.T.K.F.A.r.k.k.z.z.x.x.j.d.q.&.9.[.}.~.{.|.#X{.{.}.}.4X>X%X&X4XL.q.a.s.l.#XJ.L.L.L.n i I o.X         o     ",
"#.+.7.H.6.m 3.7.M.M.7.8.8.G.Z.r.z.z.z.z.z.a.p.q.&...9.I.~.~.4X4X*X4X:X*X{.4X4X4X*X-X/.#Xl.a.x.h.h.f.f.l.) h Z n o         X X X ",
"'.^.|..XY k T 7.4.#.5.6.4.5.9.z.z.z.f.g.d.a.q.t.9.9.9.Z.I.~.-X4X1X<X;X-X-X-X{.-X;X4X#X#Xh.q.a.g.i.g.i.g.` f Z b o       o O O O ",
"T.E.).).L v P #.X.T T 4.5.T 0.z.x.g.d.a.s.*.*.&.+.V.K.L.{.|.-XaXfXuXuXaX3X-X X-X>X>X#X#Xl.h.p.s.r.s.2.s.w.m D i         o O O = ",
"M.H.A.V.C x K L U Y Y $.5.Y 0.x.j.g.a.u.*.] O.o.Y S.I.(.-X1XuXuXaXaXdXaXrX:X:X>X:X;X:X(.e.q.p.s.u.q.q.s.q./ S q           . X + ",
"t k m x h y P Y L T I $.#.#.t.x.a.2.q.{ ] O.%.P P P.{.4X:XuXuXaXdXaXcXcXuXaXaX0X:XuX=X(.e.q.{ q.u.s.u.u.k.&.) 9           o o . ",
"L h i y h e D L L I I Y #.Y t.h.q.' _ _ )  .L G B.^.;X1X3XaXcXxXcXcXcXdXdXdXdX1XuXaX;X/.w.e.[ [ { *.{ u.f.' z 3     o o X X X X ",
"S.7.3.I V J +.I K K K U Y K J O.] / M S F L D 5.{.1XuXfXcXAXcXcXcXcXcXcXdXdXfX1XfXuX9X Xw.` &.[ ] [ { 2.q./ j 1 . . . . o       ",
"A.C.7.P p t b V C C Z D K Z C A M m F A K K C D.uXfXdXcXcXcXvXcXcXcXcXcXcXdXfXdXcXfX;X{.K.M ) ) ( ( ' 2.[ M i & . . . .         ",
"3.P K n q & q b v V V V Z B B B B C C V Z V L ;XvXvXcXcXcXcXNXcXcXvXcXcXcXaXaXcXAXcX-XJ.S.V j ) ( / ( } ] z e * . o . X O % & 3 ",
"9 t p 9 3 2 t k v V V V B V B B B B V B C C B.aXcXcXcXcXcXAXNXNXAXbXNXvXcXfXaXAXcXfX>XI.C.B p K ..) ` _ O.f j n v C Y M.D.^.|.).",
"3 E y 9 9 2 u v v k b V F A C B B B V B B C 4.[.-XcXbXvXcXdXcXvXcXvXcXcXcXdXcXNXmX>X>X^.5.N N R 3.c z f n w k Q.^.^.E.E.~././.`.",
"C b r 0 8 0 e V V V C C C Z Z V v C x V V S #.B.B +.|.vXcXcXcXcXbXcXNXNXcXcXcXcX1X-X-X[.D t 6.E.c.I n 5 6 8 k T.D.3.4.H.K.A.0.C.",
"P P n n j p j L A C D I D D A Z b V k V b P.^.U.D e k ~.dXNXcXvXAXBXAXfXAXNXfX1X:X:XrXH.j k S.=X=X8..XK.Y.+.P +.7.+.X.W.0.5.+.4.",
"3.3.P X.+.+.4.V.6.L F C K K A V V x h b Y <X1X{.U.#.V @.S.}.-XxXaXaXcXAXfXdXfX:XuX1X1XU.#.N.!._.|.yXHX6Xb.b.6X_.I.y._.1X).3.J t ",
"4.P J H J S J X.#.P P L K S D K C v v b U.<X-X|.[.|.H.+.9.k e L @.K.[.-XuXdXfXuXuX8XtXtX<X9X8X_.c.c.f.1.<.,.v.>.,.<.<.n.`.o.f l ",
"7.+.X.P X.J L @.X.X.6.8.6.#.L J A A V F ;X<X{.{.{.{.[.!.S.k & @ # 3 l D #.H.|.aXrXiX8XiXhXeXeXy.y.y.2.>.,.,.v.v.v.b.zXb.v.r.0.5.",
"A.Z.V.B.@.J J X.4.o.@.@.7.B.4.X.L D b 4.-X1X:X/.{.~.~.[.P.W.S.V * @ O @ O # 2 e k L 4.[.9X=XeXeXjXjX9Xv.>.,.m.7XzX7Xn.6X X9XD.Q.",
"S.S.J.D.8.X.J X.4.X.@.X.X.4.4.7.@.P F H.<X1X-X^./.-X~.I.P.^.E.W.[.+.3 # @ O # * e C N.}.U.L 8.[..XfXtXhXzXm.1.m.6Xy.7 5 q x E E ",
"8.Z.H.H.8.X.X.X.@.@.@.@.@.4.4.3.4.@.@.[.<X-X{.(./././.~.I.E.~.E.E.~.W.G.L Y C.Z.C.Z.H.(.V.k t b 5.K.E./.5XzXjXeXeX9XF.4.I v 3 & "
};
