/* XPM */
static char *waka37_jpg[] = {
/* columns rows colors chars-per-pixel */
"64 64 250 2 ",
"   c #020202",
".  c #05090C",
"X  c #080908",
"o  c #161716",
"O  c #0D1211",
"+  c #28231D",
"@  c #242221",
"#  c #3C2D23",
"$  c #3B342B",
"%  c #393833",
"&  c #301E14",
"*  c #453428",
"=  c #443C37",
"-  c #513930",
";  c #7B3F3F",
":  c #3B423B",
">  c #44423C",
",  c #49473C",
"<  c #58463B",
"1  c #654839",
"2  c #76463A",
"3  c #733F41",
"4  c #464341",
"5  c #4A4642",
"6  c #4D4945",
"7  c #4A484A",
"8  c #554D46",
"9  c #55524C",
"0  c #5A544C",
"q  c #5A584C",
"w  c #5B5652",
"e  c #5D5B53",
"r  c #595A56",
"t  c #445148",
"y  c #6B4943",
"u  c #754A45",
"i  c #62534C",
"p  c #68564A",
"a  c #75554B",
"s  c #635D54",
"d  c #6B5E55",
"f  c #635E5A",
"g  c #685855",
"h  c #745C54",
"j  c #5E6256",
"k  c #57604D",
"l  c #646156",
"z  c #696155",
"x  c #65625A",
"c  c #6A635B",
"v  c #6C695E",
"b  c #66685B",
"n  c #73695D",
"m  c #776558",
"M  c #796D52",
"N  c #6B6661",
"B  c #6D6A62",
"V  c #696968",
"C  c #736662",
"Z  c #726D65",
"A  c #746E69",
"S  c #7A6C64",
"D  c #747066",
"F  c #797365",
"G  c #75716A",
"H  c #7A756D",
"J  c #7D786E",
"K  c #7A7C65",
"L  c #7C7671",
"P  c #7E7973",
"I  c #777671",
"U  c #8F3A37",
"Y  c #AC3737",
"T  c #C12D37",
"R  c #A43941",
"E  c #855B4B",
"W  c #8B534F",
"Q  c #85635C",
"!  c #896859",
"~  c #956A57",
"^  c #9B745A",
"/  c #8C715C",
"(  c #A66C56",
")  c #A8755A",
"_  c #B37B5D",
"`  c #B7785B",
"'  c #866B63",
"]  c #817A6F",
"[  c #887768",
"{  c #957766",
"}  c #827673",
"|  c #827C74",
" . c #897E75",
".. c #847E79",
"X. c #887E7C",
"o. c #917C71",
"O. c #A87B66",
"+. c #B77A62",
"@. c #A14E4A",
"#. c #C37D5D",
"$. c #C27D62",
"%. c #BBCB20",
"&. c #C7DA01",
"*. c #D1D50F",
"=. c #C9D033",
"-. c #E2DB32",
";. c #BC825F",
":. c #A68E51",
">. c #94856E",
",. c #848175",
"<. c #898276",
"1. c #86827B",
"2. c #8A837A",
"3. c #8D897E",
"4. c #8A8E72",
"5. c #928A7D",
"6. c #958778",
"7. c #B78467",
"8. c #A68977",
"9. c #BA8B74",
"0. c #B2937A",
"q. c #B3B375",
"w. c #B1B65C",
"e. c #C4845C",
"r. c #CB885C",
"t. c #D48D5B",
"y. c #C28364",
"u. c #C58B63",
"i. c #CC8C63",
"p. c #CC8C6A",
"a. c #C88669",
"s. c #D28A69",
"d. c #CB9469",
"f. c #D4956B",
"g. c #D6956B",
"h. c #C88C73",
"j. c #D58C73",
"k. c #C79578",
"l. c #D49A7C",
"z. c #D99876",
"x. c #E59B76",
"c. c #D2A97B",
"v. c #E5A373",
"b. c #D3D457",
"n. c #D9D469",
"m. c #CBCE77",
"M. c #E0DF60",
"N. c #8C8681",
"B. c #8E8A82",
"V. c #868980",
"C. c #938C83",
"Z. c #988E88",
"A. c #9B9285",
"S. c #969189",
"D. c #9C948B",
"F. c #999687",
"G. c #9E9795",
"H. c #A49A8C",
"J. c #AB9D8D",
"K. c #A59686",
"L. c #B79B87",
"P. c #A49C93",
"I. c #AB9E94",
"U. c #A79B95",
"Y. c #B09F95",
"T. c #A6A195",
"R. c #ACA295",
"E. c #ADA49A",
"W. c #AEA99E",
"Q. c #A9A498",
"!. c #B2A495",
"~. c #B2A59B",
"^. c #B4AA9D",
"/. c #B9AC9E",
"(. c #B4A99A",
"). c #B7AF95",
"_. c #AEAAA1",
"`. c #AEA7A1",
"'. c #B4ACA2",
"]. c #BBAEA3",
"[. c #B7ABA7",
"{. c #B6B2A6",
"}. c #BCB2A4",
"|. c #BCB4AB",
" X c #BAB6AB",
".X c #BCB8B2",
"XX c #9699A0",
"oX c #D59982",
"OX c #C39886",
"+X c #C9A489",
"@X c #D9A78B",
"#X c #C8AA98",
"$X c #D7AA98",
"%X c #C6B29A",
"&X c #CEB68E",
"*X c #C6ADA2",
"=X c #C3B4A6",
"-X c #C3B5AB",
";X c #C3B9AC",
":X c #CBBCAD",
">X c #C9B8A4",
",X c #D4BBA9",
"<X c #C4BCB2",
"1X c #CBBDB2",
"2X c #C3B9B5",
"3X c #D2BEB2",
"4X c #E29A82",
"5X c #D2CF99",
"6X c #E8E38B",
"7X c #CCC2AC",
"8X c #D3C6AD",
"9X c #D5C9AD",
"0X c #D9C9A5",
"qX c #CCC2B4",
"wX c #CDC4B9",
"eX c #CBC9BA",
"rX c #D3C3B5",
"tX c #D9C4B5",
"yX c #D5CAB3",
"uX c #DACCB3",
"iX c #D4C5BA",
"pX c #D9C7BA",
"aX c #D5CABC",
"sX c #DACABC",
"dX c #DBD1B6",
"fX c #DDD3BB",
"gX c #D7D1B5",
"hX c #D3D2AC",
"jX c #E3D5BC",
"kX c #E1D4B8",
"lX c #E2C9AE",
"zX c #D5CBC1",
"xX c #DACDC1",
"cX c #D5CFCB",
"vX c #DCD3C4",
"bX c #DCD4CA",
"nX c #D7D4C6",
"mX c #DDDCD0",
"MX c #C3C5C0",
"NX c #E2DBCD",
"BX c #E1D7C5",
"VX c #E4DED4",
"CX c #E4DBD5",
"ZX c #E7E3D9",
"AX c #E5E5E2",
"SX c #ECEBE5",
"DX c #ECECE9",
"FX c #E9E6E4",
"GX c #F1EDE9",
"HX c #F0F0EB",
/* pixels */
"{.|.`.S...<.C.D.~.].:XiXqX3X3X3X=XJ.H.B.B.P G G b c r 7 7 4 4 w G G A L } P ..P | | | | | L P L L L | <.,.5.wXA.v ! C c c c c x ",
"G.B.P P 1.3.C.Z.D.H.~.-X:X:X3X3X;XH.A.3.1.N.B.C.3.3.1.} G N 9 0 X.P I P P | ..P | | | | } } L I L L ..} | 2.qXC.z ! C f d N c x ",
"| L G G G G G H ..1.B.D.].:XrXtX-XH.3...P <.C.C.K.U.Y.!.!.R.H.K.N.1.I P P P ..P | | | | | P P P P L P | | <.qX5.c ! n N c x l f ",
"D.S.S.B.3.<.| | B H H L C.Z.C.6.D.C.<.3.<.Z.P.E.~.!.(.!.I.H.H.K.B.1.L P ..P P ..| | | | | P P P I P ....| <.<XC.d ! n f c l s l ",
"P.P.R.^.'.'.}.2X-X'.Z.Z s 7 8 w w B B N N P <.C.D.H.H.J.J.H.H.Z.N.1.P P ..P P P ....} P | P J I J L } | | 2.;XC.d ! C N z s z x ",
"I.~.}.-X;X1XwXeX|.B.g 6 9 9 9 r e N N N A B A ..X.X.5.S.H.P.H.5.1.X.I P ..P I ..1...P 1.| J J J I L L P | <..XA.c ! C N c s c x ",
"'.{.{. XwX1X[.S.w 6 5 9 e f f V v x c I X.I 1.C.C.Z.S.H.T.R.R.A.N.N.P P ..P P } P P P P J J I P P P L L | 1.2XD.N ! S N c l l c ",
"'._. X2X'.1.r > 7 9 r x N S G G G | B.C.C.N.S.S.P.W.~.'.}.;X:X}.S.S.1...1.P P ..,.,.P P J I G K G J H I P <.|.C.C / S N c x l x ",
"}.<X[.X.8 4 4 9 e f n S ] 5.R.;X{.C.S.S.G.P.`.'.}. X X7X7X7X7X>XD.G.3.L P P P P ,.P P P J H H H J H I P P <.;XA.d ~ n N c f l c ",
"{.G.w % = 6 w w C G | A.].zXNXZX|.C.D.P.W. XqX7XrXrX8XtXyXuXuXtXU.P.3.} } | P 1...P P L H H H H H H L L P ,.;XC.N ~ n C z c l l ",
"= = = 5 7 w B J C.W.iXVXZXbX:XQ.U.P.^. XqXqXqXfXbXbXbXZXZXVXZXmXW.W.B.| } L H P P P P P J H J H J J P L P ,.2XC.f ~ C N z x j s ",
"% > 6 4 9 s | '.bXVXVXwX~.D.D.P.E..XeXeXnXbXmXZXAXSXDXSXAXDXDXAX'. XS.} I P P P ..} P P I J J J J H P P | ,.;XC.f ~ n N c x l l ",
"% = 4 4 > 9 Q.mXaX XD.3.C.D.Q.^..XeXnXmXZXFXDXFXDXSXAXGXDXDXDXAX_.'.S.P P P P ,...P | P P J J H G H P P } ,.;XC.f ~ v N c x l x ",
"= 6 4 4 9 8 x <.,.,.,.B.D.T.^.qXeXnXZXDXHXDXHXDXSXZXbX X`. XcXAX_.[.1.I P P H | ..P } L H H J H H H P P |  .2XC.f ~ c N c c l f ",
"7 6 7 6 5 w e b J <.S.G.Q.W. XaXVXZXSXAXDXAXGXZX2X3.e 9 8 - f C.P._.B.,.P P P P P P P I G G J G H J L } |  .2XZ.f Q c x l f j x ",
"6 e 9 r r f A P C.D.T.W.{.qXyXvXVXNXZXAXFXFXmXD.p p ! ! a 1 1 1 J T.S.I P P P P P P P I G J J G H H H P }  .:XZ.f ! c f s f l s ",
"f c B v J ,.D.G.U.W.'.|.:XqXrXrXtXBXnXNXBXVXqX0 M p.j.p.d.;.$._ Q F.B.} P P P } L L L L G A A G H A I P J | ;XC.z ' z s l x e f ",
"s N P 3.D.P.E.'.{.|.;X1XwXiXiXiXyXnXnXbXbXbXT.i / oXx.h.h.s.j.7.! A.3.L I P H P } L H H G A G G H G H P P | 2XC.g Q z d x j s s ",
"Z X.P.U.W.{.}.'.;X7X7XqXqXrXyXuXvXnXmXCXZXZXE.p O.oXj.` y.j.$.) ~ K.S.P P I G L P I I H G G G A G A G J H | |.C.d ' g z x e e l ",
"'.~.].'.{.2X;XwX7XrXyXsXvXvXbXZXSXZXAXSXZXGX<Xa ^ k.9.) 7.p.) ) O.K.B.P I I J P L G G G G G G G A G I H P | |.C.z Q d d j s e s ",
"].W.D.| F.wXaXyXBXCXCXCXZXFXSXDXSXDXAXHXAXDXaX/ 9.k._ ( $.4X( ~ O.K.2.G H J J P L G A A A G A A G G H J P | |.C.d Q z d r f s s ",
"C q 0 0 3.sXBXNXNXVXCXVXVXVXVXZXVXZXVXZXAXFX,X9.+.oXh.a.j.j.$.j.a.0.N.I G H J P I A G G G G G A A G H G H J '.3.d Q z s r e l q ",
"9 9 0 8 | vXjXuXhXgXgXdXvXfXfXfXvXNXNXNXVXNX#Xa.7.oXl.a.$.+.) +.y.8.1.I I H H I L G G H G A G G Z A A G H J '.<.s Q z z r e e q ",
"w e N e J qXyX9XuXgXuXuXdXfXsXkXfXdXdXBXvXvX@Xi.^ 9.a.+.O.) ( ( #.{ P G H S S P G A A A A A A B A A G H J J '.<.i Q s c e e s e ",
"5 4 9 8 Z aXuX9X8X9XyXyXuXuXuXdXgXgXBXjXfXdXlX+X/ E _ ( +.h.9.( ^ u ] A A A Z D I G A A A G G A G G G I G P {.2.d s a h i w d q ",
"Z r 9 9 Z 7X7X9XuXyX9XyXyXyXyXyXdXfXjXdXfXfXjXlX6.1 E _ +.` +.( E < G I G I H H G G A A A A G A Z Z G H G P _.3.r l z ' s s q q ",
"P N x N ,.yXhXdXuXyXrXyXuXyXyXyX9XdXdXdXvXgXfXjX(., - E h.$.( ` 1 < J G B G P H G G H G G A C A B D H H G J '.2.d x g h p r e s ",
"I B A Z <.yXdXkXfXyX8XyXyX9XyXuX9XuXuXgXgXyXyXdX>X1 # 1 ~ ) ~ E * # Z A G G A A B A G G A Z A A B D G J G J '.,.e f i p e i w 0 ",
"G B I G 3.yXdXuXjX9X9X9X9X8X8X9XuXuXgXdXgXkXdXuXOX2 * # * * * * & > ..A Z D S G H F D B D G D D D B G G A H W.| e x p u y 0 q e ",
"G H V.B.D.eXdXdXdXuX9X9X9X8X9XuXfXfXvXjXkXkXuXuX9.8.~ < # # & # - n _.N.G H D G B D D D D Z B Z D Z G G Z P W.| 0 g a ; Y W a 8 ",
"P B.{..X;XvXyX7X9X8X8X8X8X9X9X9XfXfXfXuX9XtX:XeX>X9.7.7.E 1 1 E ~ / |.`.E.D.2.,.G G D Z B B Z D B Z A A C J ^.| q u u U Y T @.q ",
"I ,.S.B.D.|.;X>X:X:X,X:X7X:X,X:X>X7X7XqXrXwX{..XyX+Xd.#.` ( ( ` ( { :X{.`.;X:X-X_.D.| D Z D G B v B A Z N G W.| 8 1 1 2 Y Y @.a ",
"x c v v D ^.|.^.}.|.=X>X;X}.=X=X}.-X>X1XeX2X_.[.aXqX#Xh.e.` ) +.;.L.2X;X|.>X3X1XrX1X^.F C D A V B B B B B G _.,.< y y 2 Y Y Y W ",
",.| ,.P J E.(.].)./.(.}.>X%X/.=X1X1X:X<X2X.X`. XrXsXrX#Xh.a.#.s.+X%X1X2X2X,XiX3XrXaX1XS.D Z G B v B B B B G _.| < u 3 ; U U U 3 ",
"F.H.D.P D R.].!.^.^.W.}.}.}.^.;XiXiX1X:XwX<X{.2XqXeX1X|.%X+Xk.h.,X:X1XwXrXrXiXiXiXiXnX|.,.v b B B B B B B G W.J q s y u 2 1 8 8 ",
"J.H.S.1.P U.E.!.R.~.~.].}.'./.wXiXiXiX1XiX1X1XaXiXsXyX7X%X#X%X>XtX3XwXiXtXiXiXiXaXrXsXaXQ.v c B B B B B B D W.| q k 9 i z q e r ",
"K.5.| D Z P.W.W.Q.R.^.'.'.^.}.iXiXzX3XwXrXwXrXiXwX,X$X@XoXk.#XwXwXwXaXsXiXsXaXzXiXsXaXaX;XJ D N v B N B B Z _.,.e e e g h i e w ",
"4.,.Z s s H.^.Q.E.R.~.^.}.^.1XaXwXzXiXiXrXrXrXiXsX$Xj.z.g.j.$XeXiXiXaXsXrXrXsXsXsXsXiXrXaX2.B N N B B B A Z _.H = = $ - * % % % ",
"D Z m n ' K.T.E.~.E.R.].^.(.qXiXiXiXiX3XiXrXsXtX>X@Xj.f.i.a.$XaXaXiXiXaXwXaXaXaXsXrXqXaXaXG.B B N B N B c Z _.l           . O o ",
"l C n ! m 8.!.R.T.~.R.}.!.!.rXaXiXzXiXwXiXrXtXtX@X4Xj.j.u.7.#XeXxXrXtXaXsXsXsXuXsXwXtXyXaX}.G B B B B x x B E.9                 ",
"R.J.K.8.{ J.~.~.~.~.!.-X^.Q.rXsXtXaXzXiX3XtX,X*X@Xz.x.f.y.9.#XiXiXiXiXiXsXsXsXpXtXeX2X8XfXzXP B c c C c x B T.5                 ",
"qXqX:X!.>.I.~.R.R.R.J.(.T.P.iXsXxXsXiX3XiXrX,X@Xl.oXh.h.9.0.>XpXiXiXiXiXaXsXiXiXiXwX3XrXeXMXC.c b x c s l v D.%                 ",
"W.^./.J.] K.T.U.H.H.K.R.I.R.xXxXcXpXiXiX1X>X@Xx.oX7.^ L.%X=X:X1X1XwXiXiXiXiXrXrX3X=X:XzXqX~.8.d c v x l l l B.@                 ",
"] F <.3.c <.S.S.A.A.H.H.P.E.bXxXcXxXxX3X:X$Xl.x.y.~ 8.*X;X|.=X:X1XiXiXiXtXiXiXrX,X!.`.Y.0.d.k./ l x x l l b N.+                 ",
"H F C.S.Z ,.C.C.Z.C.Z.C.S.U.zXsXiX1X1X3X$X@Xf.p.) 8.#X*X-X.X-X:X1XiXzX1XiXiXrX3X:X>.>.9.p.t.f.8.s l s l s c ..o           X X X ",
"^.{.{.B.s D 1.1.X.1.C.1.3.A.>X%X+XL.L.OXz.z.7.) 8.*X*X[.2X1X1X;X1XiXzX3X1X1X:X:X~.[ +.r.g.t.d.;.m l e j s c P O         o o o o ",
"J.^.].C.x I X.P L } 1.1.| 8.+Xz.@Xk.k.z.z.f.y.O.J.*X~.'.-X-X1X1X1XiXiX1X1X1X:X:X*X' ( #.i.y.d.d.' d e l g v I O         o o @ @ ",
"T.Q.P.] s A P P J P ..X.[ 8.x.x.g.f.g.x.f.e.` +.~.Y.].;X-X1XiX3XwXiXzX3XiX1X3XrX%XZ / ` r.i.z.t.o.c e l g c B           X o o o ",
"Z D v b e B P H K L } V.} 9.x.l.x.f.f.d.p.$._ 9.~.].=X;X-X-X1XiXiXiXiXiXiXiXrXiX/.S v ) ` ;.i.f.^ b f s g Q h X             .   ",
"s q q s 8 x J H H I ..P L 9.x.z.z.f.f.d.y._ 7.L.^.^.].|.=X;X1X1XrXwXiXiXiXiXrXiX(.Z v ~ ` r.r.u.7.b e h a p 0         . . X O O ",
"3.,.B l v H J J H G ..P ] 9.z.g.f.i.r.r.` _ O.8.Y.~.[.].].}.;XrX3XiXiXtXiXtXtXtX!.z l ! ;.r.i.i.9.b e a u g 9 . . . . . . . X   ",
"3.3.1.v v Z Z Z v B A A D 8.f.d.u.e.;.` ` +.8.5.J.Y.~./.].*X:XsXiXiXiXpXiXtXtXtX=XG l / u.u.i.t.+.s e E p w t o . . . .         ",
"2.H G q % , x l l V x v C { i.r.y.$.` ` ( O.8.H.Y.Y.(.].*X;X3XiXtXpXtXiXrXtXtXtX8XZ.d O.i.e.r.r.{ n l u p i : . X X       X o + ",
"l q 9 9 > r l x x V N B B ' h.d.$.` +.^ { L.J.~.~.~.*X=X=X>X1XiXpXpXpXtXiXtXrXtXrX~.S O.r.r.s.u.! g e u i w 9 $ % 5 e K 3.S.P.T.",
"q e 5 , > 9 s c c B v B V n 7.;.+.~ ~ ' K.3X;X>X*X*X:X:X>X>X:XiXsXpXpXpXpXpXtXtXrX-X[ 7.r.e.r.:.M i r ! c 0 5.R.Q.W.).{.}.}.^.^.",
"l q 9 = , 9 B f c V B Z V v ^ ;.( ~ ! h G.3X<X:X3X:X1X3X3X1X3XsXpXpXpXpXpXpXtXrX3X}.[ ;.r.i.i.9.F d > u 8 9 (.!.K.K.H.J.J.J.5.5.",
"] v s 0 0 q n n N V D Z B C S S Q ' n c I.pXqX>X3XtXtX3XsXpX3XpXuXsXxXaXsX3XtXpX,X*X/ y.d.d.d.7X4.Y.S ' z s J >.K B F.5.,.,.3.G.",
"<.| | | H F <.2.Z B Z G D S C c h d s v U.iXxXqXiXiXiXxXsXxXxXxXtXsXxXaXsXsXpXtX;X>.7.h.d.t.d.).{.bXjX5X&X-X`.K.D.E.}. X>.<.B D ",
"F H H F G S | <.] ] F D D D D B n x b e Z D.}.yXxXxXxXBXBXBXBXxXxXxXBXvXsXaX~.Z., p h.l.g.f.c.q.&X0Xb.=.=.b.m.=.=.%.n.).Z s 9 % ",
" .] H F F H  . . .| <.<.,.J G D B b x b | ~.R.R.~.].I.].2X|.'.~.R.R.~.K.n < > p m 9.x.x.l.c.q.q.:.:.b.&.&.&.%.&.&.%.=.=.w.K P > ",
"6.5.3.2.F F <.] J ,.2.C.3.<.} J C G V v C.=X=X}.Y.U.,.| } z 8 = = $ # * z <. .o.OXz.x.g.l.&X7X5X}.).b.*.&.*.n.M.b.n.6X0X5.X.[.;X",
"F.H.H.F.] F | | ,.,.] ] ,.<. . .H S Z c Y.-X;X].[.[.R.~.`.R.!.U.3.C.6.H.Q.H.8.0.z.x.v.v.@XJ.).9XeXnXhXM.-.-.6XsXhXhX>.S.G..XU.6.",
"H.H.P.D.] F  .| | ] ]  . . .2. . . .] ] *X-X:X}.[.~.'.'.R.W.'.^.{.].!.Q.P.6.9.f.v.x.d.x.oXm Z 3.K.Q.>X8XhX5XhX5X XF.B r 9 l 6 , ",
"5.H.T.H.<.] ] 2.<.6.6.<. . .<.<.<.<.<.I.1X]./.}.].].~.Y./.^.T.W.U.H.5.5. .>.k.i.z.f.l.x.l.6.s r s P S.F.0.(.yXsXdXrX7X7X=X!.K.I."
};
