/* XPM */
static char *waka5_jpg[] = {
/* columns rows colors chars-per-pixel */
"64 64 256 2 ",
"   c #020101",
".  c #05090C",
"X  c #0B0B0B",
"o  c #060608",
"O  c #16130F",
"+  c #1A1715",
"@  c #090E12",
"#  c #251C1A",
"$  c #26241D",
"%  c #38241C",
"&  c #272824",
"*  c #392824",
"=  c #39322C",
"-  c #3C3935",
";  c #0D2518",
":  c #443228",
">  c #453D37",
",  c #53352B",
"<  c #66352B",
"1  c #45423C",
"2  c #4B453D",
"3  c #414135",
"4  c #57453A",
"5  c #5D503F",
"6  c #68493B",
"7  c #714A3C",
"8  c #777538",
"9  c #4A4642",
"0  c #4D4A45",
"q  c #484745",
"w  c #534E4A",
"e  c #544A43",
"r  c #56524B",
"t  c #5A544D",
"y  c #5C5A4E",
"u  c #555447",
"i  c #5A5652",
"p  c #5D5A52",
"a  c #5A5658",
"s  c #4F5A4C",
"d  c #6A4C45",
"f  c #774947",
"g  c #62594C",
"h  c #69554A",
"j  c #625D54",
"k  c #645E5A",
"l  c #695A52",
"z  c #765B55",
"x  c #7B5B4A",
"c  c #5E6657",
"v  c #656256",
"b  c #65625B",
"n  c #6A645C",
"m  c #6C695E",
"M  c #696356",
"N  c #716455",
"B  c #726A5D",
"V  c #766659",
"C  c #6F6753",
"Z  c #6B6561",
"A  c #6D6A63",
"S  c #676865",
"D  c #726D64",
"F  c #746E69",
"G  c #796B66",
"H  c #747167",
"J  c #7A7266",
"K  c #76726B",
"L  c #7A746D",
"P  c #7C796E",
"I  c #7B7867",
"U  c #7C7671",
"Y  c #7D7973",
"T  c #7A7975",
"R  c #6D7669",
"E  c #5E5F63",
"W  c #8E3838",
"Q  c #B13037",
"!  c #81543D",
"~  c #CC3A45",
"^  c #82554B",
"/  c #A94544",
"(  c #8B655E",
")  c #866958",
"_  c #976A56",
"`  c #96735D",
"'  c #896954",
"]  c #A76B58",
"[  c #A7775D",
"{  c #B97B5B",
"}  c #B46C57",
"|  c #896964",
" . c #926B63",
".. c #817A6E",
"X. c #85766A",
"o. c #977967",
"O. c #817672",
"+. c #827C74",
"@. c #847E78",
"#. c #897E74",
"$. c #A47A65",
"%. c #B97966",
"&. c #C17E5D",
"*. c #C27E66",
"=. c #C7D813",
"-. c #C8D60B",
";. c #D0D52D",
":. c #858075",
">. c #898275",
",. c #86817A",
"<. c #8B847B",
"1. c #8E8A7D",
"2. c #918A7D",
"3. c #968678",
"4. c #988B74",
"5. c #A9836B",
"6. c #BB8365",
"7. c #BB866C",
"8. c #B78869",
"9. c #A98977",
"0. c #B78A75",
"q. c #BB957C",
"w. c #A59778",
"e. c #B4B377",
"r. c #D18C5C",
"t. c #C58563",
"y. c #CA8B65",
"u. c #C38B6C",
"i. c #CC8C6A",
"p. c #C78866",
"a. c #D58C68",
"s. c #CD926C",
"d. c #CC9467",
"f. c #DA9564",
"g. c #D4936C",
"h. c #D79668",
"j. c #CB8D71",
"k. c #C48C74",
"l. c #D38C74",
"z. c #C99677",
"x. c #D39573",
"c. c #D49B7B",
"v. c #D89878",
"b. c #E39869",
"n. c #E49872",
"m. c #D6A27B",
"M. c #E5A37C",
"N. c #D4D846",
"B. c #D1D651",
"V. c #E2D74B",
"C. c #D8D576",
"Z. c #DFE15E",
"A. c #877D82",
"S. c #8E8A83",
"D. c #888681",
"F. c #938C83",
"G. c #988D85",
"H. c #959185",
"J. c #9B9286",
"K. c #95928A",
"L. c #9B948A",
"P. c #9D998D",
"I. c #9F9A86",
"U. c #9D9992",
"Y. c #A49A8D",
"T. c #A7988A",
"R. c #B59A88",
"E. c #A49C93",
"W. c #AA9E93",
"Q. c #A39F99",
"!. c #A38D82",
"~. c #AAA68D",
"^. c #B4A18C",
"/. c #ABA394",
"(. c #ACA49A",
"). c #ADA99D",
"_. c #A6A496",
"`. c #B2A394",
"'. c #B3A59A",
"]. c #B4AA9D",
"[. c #BBAC9D",
"{. c #B8A694",
"}. c #BAB393",
"|. c #AEA8A2",
" X c #B4ACA2",
".X c #BAAEA2",
"XX c #B0A5A1",
"oX c #BCB2A4",
"OX c #BCB4AA",
"+X c #B7B4AA",
"@X c #BEBAB1",
"#X c #B69DA0",
"$X c #C99C87",
"%X c #D69D82",
"&X c #C89E90",
"*X c #D5A587",
"=X c #C7AB96",
"-X c #D7B89C",
";X c #CCAB93",
":X c #E3A482",
">X c #C3B3A4",
",X c #C4B5AA",
"<X c #C3B9AD",
"1X c #CBBBAD",
"2X c #C9B7A6",
"3X c #D3BCA7",
"4X c #C4BCB2",
"5X c #CDBEB2",
"6X c #CCBAB7",
"7X c #D2BEB2",
"8X c #D2BFB8",
"9X c #C0AFA3",
"0X c #BBC0AC",
"qX c #D5D08D",
"wX c #CAC2AB",
"eX c #D6C8AE",
"rX c #CCC1B4",
"tX c #C9C4B9",
"yX c #D3C3B5",
"uX c #D4CAB4",
"iX c #DBCCB4",
"pX c #D5C6B9",
"aX c #D9C6BB",
"sX c #D5CABB",
"dX c #DACABC",
"fX c #D9C5B5",
"gX c #DDD3BC",
"hX c #DAD2B8",
"jX c #DBD3AE",
"kX c #E1CBB8",
"lX c #E1D5BD",
"zX c #E1D0B6",
"xX c #E3C0AD",
"cX c #E4E3B1",
"vX c #E7E795",
"bX c #D4CCC2",
"nX c #DDCEC2",
"mX c #D4C2C0",
"MX c #DDD3C4",
"NX c #DAD5C9",
"BX c #D6D2CA",
"VX c #E3CEC2",
"CX c #E1D2C4",
"ZX c #E3DACC",
"AX c #E4D6C7",
"SX c #E4DDD2",
"DX c #E6DFD3",
"FX c #E5E1D5",
"GX c #E4E2DA",
"HX c #EAE4D9",
"JX c #F1E7DD",
"KX c #ECEBE4",
"LX c #EBECE9",
"PX c #E9E7E3",
"IX c #F0ECE6",
"UX c #EDEFEE",
/* pixels */
"F.|.+X+X+XL.L K L O.>.H.H.F.H.H.2.3.1.>.P F n b A r q q q q 9 q i K A A U U Y Y @.Y Y Y Y Y Y P U U +.@.+.:./.OXG n  .A D n n p ",
").+X+X|.K.,.+.S.H.E.).OX1X,X>X,X>X(.L.H.S.,.L A L b k i 0 9 > - b U F P U Y +.@.+.@.Y @.+.Y Y Y Y U Y @.+.+.(.@XK n | n n k n j ",
"+X_.K.D.,.<.H.F.K.E.).].>XwXyX3X1X.XE.L.F.,.1.1.F.2.S.<.O.K B j K ,.P Y +.@.+.+.,.@.Y @.T Y +.P U Y Y +.+.:.(.<XJ n | M n k n k ",
"D.U K A A K U L Y Y 2.J.T.,XaXyXpX.XG.<.O.+.H.K.T.Y./.(.'.'.(.Y.F.F.:.Y @.U +.+.T @.@.Y @.Y Y P Y Y Y +.+.@._.<XJ B | l n n S p ",
"K.K.K.F.,.+.Y L J B D K >.L.K.F.L.J.F.F.,.1.P.P.(./.].'./.W.W.Y.L.G.@.O.@.+.#.+.T @.@.@.+.Y Y P U Y U @.+.+._.<XF B | n n n k i ",
"K.E.W._.]. X X.X X<X X,.A i q 0 t v B n m A +.S.H.T.Y.Y./.T.Y.T.F.<.O.+.@.@.+.@.@.,.Y @.@.Y Y P U Y U Y :.O.Y.@XJ N | n k k k i ",
"E._. X+XOX<XrXrXsX X@.w q r w a p p j S A K A D Y ,.<.F.T.Y.E.T.<.#.@.@.U @.O.+.@.,.Y @.+.Y Y P U Y U U +...E.<XJ Z  .b k k k i ",
" X). XOX<XrX5X>X@.w 9 w i k k n b b S A @.,.U ,.S.L.L.U.E.(. X XG.S.S.@.@.Y +.@.@.@.+.@.Y U L P U Y U U Y +.E.4XJ G  .n n n b p ",
"XXXX X4X4X+XU i 9 0 r j n D G J U L @.F.F.F.K.U.W.W.].+XOX1X<XwX+XF.U.O.O.+.Y +.,.@.@.+.Y U Y U P U F O.+.O.Y.OXO.V ( B Z v j k ",
" XOX@X XO.9 > q r i b D ..>.J.'.tX(.J.L.L.L._.+X X4X4X4XuXwXrXuX,XL.P.<.@.L P Y ,.@.@.Y U U U U L P K U Y Y Y.OXL V  .n n b b j ",
"@X|.Y.w = 9 q i b D L 1.E.,XMXJXSX|.K.L.|.OX4XtXtXbXsXsXMXMXgXMX4XE.U.@.O.+.#.@.@.+.+.U U U U U K P P U O.+.T.4XL V  .n n n j r ",
"b 0 9 - 9 w i F O.L..XsXZXHXbXOX_.W._.+XrXtXsXsXNXNXSXDXFXHXFXGXbX XXX,.P Y O.@.@.+.+.+.U U U Y P P Y +.+.+.L.4XL V  .M k n j i ",
"= - - q w w k K.4XNXJXNXtX XY.J.U.|.@XtXbXBXSXDXPXKXIXIXLXLXUXUXSX|.@XD.@.,.O.@.@.@.+.@.U U Y U P P U U +.+.J.<XL N  .n Z n b k ",
"- - 9 9 > q E 4XNXsX XL.2.G.Y.).@XtXbXBXDXPXKXLXPXKXbX|.K.,.U.+X0XQ.+XT K T +.#.,.@.@.@.@.U Y U K U P U :.+.L.4XU N ( l Z n j k ",
"9 q - q 0 q i D <.:.+.,.H.U.|.@X@XBXDXKXUXLXPXLXKXXXA 2 , 4 4 4 9 t <.,.T +.+.#.,.@.#.@.U U U U P Y K O.#.O.L.4XU V ( k b M j a ",
"0 q 0 q 0 w r p D L D.K._.).+XtXNXHXLXKXLXLXLXLXtXj 4 4 6 5.$.' e : > G +.@.+.<.@.@.@.+.U U U U D +.K O.@.L Y.6XL N ( k k n v a ",
"i t r r i p n A ,.H.P._. XoXwXgXMXZXHXFXHXGXGXGXJ.e 4 h ( j.v.l.0.! , y Y @.+.#.@.Y Y U U U K U L L L U +.U H.4XL N ( k k v j y ",
"b b A D L Y <.L.Q.XX XOX4XrXtXdXiXgXMXMXNXFXFXNXX.d l ) $.j.v.v.c.u.[ | +.@.@.@.Y @.Y U K K K U K K F U Y Y K.4XO.N ( j k b j t ",
"A l n Y H.E._.).].oX>X4X5XtXyXsXsXiXMXMXZXZXFXiX' ' ) o.j.:Xv.p.y.i.k.3.@.P P ,.U Y U K U F F U L K F U U P G.4XO.N | k n b y y ",
"m J F.W.Q.'.].>X,X1X5XtXsXsXsXhXNXNXSXSXFXHXHXrX6.i.$.$.l.%Xk.] } y.8.X.P Y ..P U U U U U F F U F K F U U P F.<XL N ( j k j y r ",
"J.E.+X+X X<X4X5X1XrXuXsXMXNXNXZXGXGXKXLXKXLXJXbXa.l.u.u.c.v.u.] p.j._ | K Y +.U Y U U U F K F K F U L U U U K.4XJ N ( j k p y t ",
"OX+X_.K.U Y.5XaXNXNXSXDXHXJXIXKXPXKXLXLXLXLXKXNXl.l.%.$X:Xv.j.l.c.j.' O.T T Y A.U U L U U K U F F K K U U K G.OXX.N | j a p y p ",
",.H p r t P.AXAXZXZXDXFXZXZXDXSXFXFXGXDXGXGXHXNX*Xk._ 0.%Xv.x.a.j.g.8.X.T Y U U U U U U U F K U F K F L L F <.oXF l ( j a t t r ",
"u r 0 y t J.MXiXhXiXhXgXgXlXAXgXMXZXZXZXFXZXAXlXz.8.f ) 7.v.l.*.%.*.0.X.T K L P U U U K K U K K F F F F L K 2. XJ N ( j b j y i ",
"0 r a S r F.sXeXiXiXzXiXzXCXgXMXCXkXzXjXgXCXgXgX$X8.6 6 ' 7.&.%.} _ R.O.L U U K K H L P K F D F F K U K L P 1.oXX.n z z n p j p ",
"9 > 9 i 2 :.yXuXuXuXeX3X;X3XkXiX;X$Xz.;X-XkXAXgX-X$.6 4 d ] &.} } _ 9.O.K U L L U T L A K U U F F K K K L L 1.].H v z l l p g t ",
"S.A u r t :.rXeXuXuXuXeX;X&X-X-X*Xc.d.u.k.&XeXhX;X$., : 4 _ g.{ ] _ 3.Y K Y Y L K K U U F F F L F K K K I K <.+XR c l h z p t r ",
"_.Y b c b 2.hXhXhXgXsXkXxX;Xc.*Xm.v.n.x.v.z.-XR.*X8.7 * : 7 [ [ ` ^ !.@.T U L K K K K K F K F K K F H L P J <.oXK j M h f l p r ",
"S.U m m I 2.uXuXgXhXuXiXzX-Xc.x.c.M.v.a.v.z.;X0.i.i.] 6 * * : 7 d , L.,.R F D J J F U H F K F F G D F H L H :..XG k c s d j y t ",
"T A R R Y P.dXlXlXiXzXiXeXjX-Xl.z.v.v.x.j.q.2X&Xy.f.p.o.6 * % * : : J.E.E.E.E.E.F.O.F H K D A K G D F K K H :. XU p j d f f h u ",
"T R P S.K._.uXuXjXfXzXfXeXiXeX;Xv.x.s.d.k.$XsX8X0.g.t.8.^ , , % : e F.].,X7X6X5XyXE.O.H H F D F H H H H H D >.XXD l f ! W Q / 7 ",
"K T K.+XtX@XiXuXeXiXeXeXiXuXfXyXc.l.g.i.6.R.tXsX=X7.j.6._ ^ 7 V >.E.'.<X5X5X5XpXpXsXOXS.A F F D A A H A D D @.).G t 7 7 W Q ~ / ",
"T P P H.S.F.rX2XwX2X2XyX1XyXyXyX*Xx.s.y.0._.4XrX4X=Xq.%.} _ 5.{..X,X<X5X5XyXyXfXfXdXdX1XL.K A K D A D m D F +.).B d 2 d 7 Q Q Q ",
"b M v R m L ].>XoX>X>X2X,XyXuXyX*Xs.s.y.q./.<X<X,X>X;X$X8.0.{.7X1X5X5XpXyXpXfXsXaXMXaXdXyXE.O.F F A m A F D L  XG d f d W Q Q W ",
":.>.>.1.Y ..]. X].[.oXoX>XuXpXyX%Xp.d.t.k..X4X,X,X1X7X3X2X2X1X7X8XyXpXyXpXpXdXdXaXdXdXkXMXpX(.G S A A A A A I }.A y l f W W ! 6 ",
"T.~.I.2.P K /.].).].{.].oXuXsXyXc.p.y.t.k.>X8X5XyX5X5X1XyXyXsXtXyXrXpXyXaXpXdXdXdXdXdXkXfXCXnXQ.R A A S A A Y ].D y t 4 u d h e ",
"~.~./.I.<.P (./.).(.'.].oXsXuXyXv.y.d.p.k.>X7X5X8X7XyX4XtXfXiXfXyXyXpX7XaXaXnXdXuXaXfXiXsXhXNXaX1.J m m A S P  XG i p g g l g t ",
"T.w.2.P G Z _.].(.).(.[.OXpXaXfXx.y.i.p.u.=X1X6X1X1XpXpXtXfXaXsXpXfXpXpXaXdXdXdXyX1X7XaXbXMXsX1Xw.5.| D A S P ].G s g h f u u t ",
"w.1.:.B n V E.].).XX'.'..XuXaXyXx.y.y.a.u.=X7X5X7XyXrXyX1XpXpXpXyXyXpXdXaXaXpXaXyX>X8XMXMXNX5X{.h.g.8.` D S P ).a $ # ; # + # & ",
"H m J B Z D Y./.(.].'.`.[.uXdXeXv.g.y.i.u.;X7X6X4XrXyXfXrXaXaXbXyXpXpXnXaXnXaXmXrX9X,XtXBXuX{.&Xb.b.x.8.X.M R ].2       o     o ",
"n v B B V | T.~.(.'.'.XX,XBXNX3Xg.t.y.a.t.$X3XrX5X8X5X5XyXaXyXfXpXaXdXdXdXaXpXyX,X^.'.tXwX~.z.h.b.b.f.f.6.V R /.=               ",
"[./././.!.o.T.].'.{./.XXoXrXrX$Xg.y.i.d.u.z.2XtX5X7X1X5XyXyX7XyXyXpXpXpXaXpXpXyXyX].2.F.!.0.x.b.h.b.b.f.v.9.J P.&               ",
"2XwXwXuX[.3.`.'.(./._./.'.=X=Xz.g.i.y.a.t.z.=X4X1X5X1X7X8XyX5XyXyXpXaXdXpXpXpXyXfXoXJ D | $.t.r.x.h.f.a.d.m.9.L.&               ",
"`.].~.~.G.X.J.Y.E.Y.Y.E.~.^.*Xv.i.p.y.y.p.u.R.1X1X5X1X1X5X1X5XyXyXyXpXpXyXyX8XyXsXrX+.n J V ' 5.6.d.h.f.f.f.z.1.+               ",
"<.P D 1.F.D 2.J.G.L.L._.Y.R.c.r.p.y.y.i.t.7.9.=X1X1X1X7X8X7X5XyX5X5X5X5X7XyXaXdXpXdXL.A A c m J ] d.h.h.f.f.z.,.@               ",
"O.L U U.F.n P 2.S.S.G.H.F.w.s.y.t.p.y.i.t.7.5.W.>X1XyXwXyXyX5X5XyX7XyXpXaXdXdXdXkXCX].F F Z Z A t.d.d.f.r.g.8.@.X         X O X ",
").XX.XOXS.n P 1.>.,.<.,.D.9.u.d.t.t.p.y.t.7.o.Y.[.2XyXyXyXyXyXyXyXpXpXdXnXnXdXdXaXdXrX<.Z A V | y.d.d.b.r.u.o.H X       o + + $ ",
"~./..X.X>.n F @.P T O.@.A.G.d.t.t.t.t.t.{ 7.o.J.'.1XfXyXyXpXdXdXpXyXyXyXpXdXnXdXbXdXaX2.E m l  .r.h.h.r.f.$.m B o         + + + ",
"U.P._.P.L j H Y T Y O.@.@.3.5.t.i.t.y.{ { 5.T.G.R.>X5XyXdXaXfXaXdXaXdXaXaXaXdXdXdXdXpXoXO.E n o.t.f.r.h.0.V ^ v           o o o ",
"y m H m b y m Y U U O.Y Y +.o.[ y.i.t.{ 6.0.^./.`.=X1X1X7XaXaXaXaXdXdXdXMXVXnXdXdXnXdXfXW.n N 8.h.d.f.6.` z ' t             o . ",
"M v t y p r j P P P L Y T T ..X.8.7.*.*.8.R.oX X`..X1X5X1X8XdXdXnXnXnXnXnXdXpXpXyXnXdXaX1X3.$.s.n.d.b.6.( h h w     . . X X X X ",
"F.<.P J b A U Y K K L P T T L G )  .] $.o.T.<XXX'.].,X1X5X1XpXaXnXnXnXdXdXdXdXnXaXMXpXfXuXq.j.g.f.s.t.` ^ d t w @ . . . o       ",
"H.H.1.:.v p n A Z Z A A m A A S S n G G m Y  X,X]..XoX1XyX5X1XpXdXnXMXnXVXnXVXCXVXbXnXVX3Xz.h.h.h.c.o.6 f g j > . . . . o       ",
":.:.P H p 1 1 b S S Z b m n n Z S S Z S S m G.pX,X,X.X>XaXyX1XyXpXaXnXMXNXnXnXnXVXnXZXyX;Xv.M.M.m.%.M u f g r - . X X O + & > 0 ",
"u c y 0 9 1 r b k b S n n m Z S E b S S A A L OXyX1X>X>XyXpXpXfXyXtXsXdXnXCXCXCXCXnX4X#.5.:XM.:Xz.N r y ' g y A b H :.F.E.'..XOX",
"3 0 y u 2 3 t b l k S S A A Z S A b b A Z D A K.fXyX1X1X1XfXnXdXMXnXaXdXnXnXMXCXsX9XX.# ^ M.M.%Xz.m a r l h g _.].].`.`.'.[.[.].",
"y n u 2 9 0 r n A Z n A A A A A b A b b A b A D.sXpXnX5X5XaXnXnXVXnXCXnXyXyX5XoX4.t j = 7 j.v.%X$Xo.D 9 7 4 e Y.w.2.:.Y.T.H.4.S.",
"M L D b a t t Z D D m D D A A A S Z S b Z b n Y tXtXmXCXnXnXnXCXnXdXnXMX6X(.>.n 3 * e l ` j.y.x.*XR.6XE.2.1.T 3.F.D.+.(.w.>.:...",
"n ..O.+.......G.D.L Z D K H D A A Z b k b Z b A 2.E.4XnXbXbXMXbXpX4X XL.O.n e * $ t @.G.5.t.l.x.n.m.AXcXC.C.qX2Xe.e.e.tX X+.H y ",
"D ..J G J J H :.@.+.O...L H D D A b b b S A Z S n r k O.#.Q.2...n t 2 = $ + # * +.(.(.{.9.z.u.u.%.i.c.Z.;.-.V.N.-.=.=.B.}.@.C k ",
"P :.P J ..J I :.+.#.>.2.>.>.P P F A D Z b Z A A H _.A 2 2 G $ + O + # & & 1 J T.[.{.]./.`.$.` ` ' 4.9.;.=.-.V.B.N.C.vXC.N.e.S.4.",
"H.J.H.2.>.I J P #.+.#.>.2.H.1.O.O.J D n Z A A A :.6XOX XE.L.P #.O.S.K.K.L.(.].`.`.`.(. X'.T.3.G.W./.1XqX;.=.Z.vXcXvXN.qXwX4XK.H.",
"P.Y.Y.T.!.+.J +.+.........#.>.<.>.L J H K D A F 2.OX4X4X<X(. X X.X X]. XoX]./.~./.`.{.Y.)..X.X).|.~.iXVXqXN.V.V.qX~.8 u e l i g ",
"L.I.Y.T.T.#.O.+.>.#.>.>.>.+.#.>.>.:.:.+.L D D +.'.oX>X4X,X,XOX X{.[..X'.W.G.H.J./.'.oXoX.XXX'._.'.~.~.#X2XhXlXjXjX@X~.H.:.A a 2 "
};
