/* XPM */
static char *waka54_jpg[] = {
/* columns rows colors chars-per-pixel */
"64 64 255 2 ",
"   c #020202",
".  c #0A0B0D",
"X  c #070708",
"o  c #0C0E11",
"O  c #171717",
"+  c #0E1310",
"@  c #29251D",
"#  c #372B1D",
"$  c #272625",
"%  c #372A27",
"&  c #3C3B38",
"*  c #303530",
"=  c #291F1D",
"-  c #473429",
";  c #463C38",
":  c #54382E",
">  c #3F403A",
",  c #44423E",
"<  c #49493C",
"1  c #5A4537",
"2  c #41402E",
"3  c #65493A",
"4  c #74503C",
"5  c #4A4643",
"6  c #4C4A45",
"7  c #464543",
"8  c #524E4B",
"9  c #554C44",
"0  c #54534B",
"q  c #5A554D",
"w  c #5B594D",
"e  c #555447",
"r  c #5B5552",
"t  c #5C5B54",
"y  c #595A58",
"u  c #6A4B42",
"i  c #794843",
"p  c #6C544B",
"a  c #65574B",
"s  c #785749",
"d  c #635D54",
"f  c #6B5B53",
"g  c #645E59",
"h  c #6A5E5A",
"j  c #625753",
"k  c #755A55",
"l  c #5D6057",
"z  c #656156",
"x  c #65625A",
"c  c #6B635C",
"v  c #6C695E",
"b  c #6B6456",
"n  c #73645C",
"m  c #776558",
"M  c #706852",
"N  c #6B6662",
"B  c #6D6963",
"V  c #696666",
"C  c #726D65",
"Z  c #7B6B63",
"A  c #736E69",
"S  c #756B67",
"D  c #757166",
"F  c #7A7265",
"G  c #76726B",
"H  c #7A756C",
"J  c #7C786E",
"K  c #7C7671",
"L  c #7E7972",
"P  c gray49",
"I  c #6F7571",
"U  c #943A37",
"Y  c #B53238",
"T  c #855849",
"R  c #83504B",
"E  c #AE4646",
"W  c #87674D",
"Q  c #8A6A5C",
"!  c #876558",
"~  c #956B55",
"^  c #99755E",
"/  c #8D785D",
"(  c #A86B55",
")  c #A87458",
"_  c #B6785A",
"`  c #AD6B50",
"'  c #8A6A61",
"]  c #916A63",
"[  c #84756A",
"{  c #837A6E",
"}  c #887568",
"|  c #967867",
" . c #837C74",
".. c #8B7D73",
"X. c #847E79",
"o. c #8C7D78",
"O. c #AA7A64",
"+. c #B87B64",
"@. c #A5756D",
"#. c #C57D67",
"$. c #CA7C58",
"%. c #C8D605",
"&. c #D1D40C",
"*. c #CBCF2E",
"=. c #DDDC1B",
"-. c #B38C5B",
";. c #B6B355",
":. c #858176",
">. c #8B8275",
",. c #878179",
"<. c #8B847B",
"1. c #8D897E",
"2. c #8E8872",
"3. c #91867C",
"4. c #938A7D",
"5. c #978675",
"6. c #998774",
"7. c #AC846B",
"8. c #BA8668",
"9. c #A88875",
"0. c #B98A75",
"q. c #B39573",
"w. c #A79F67",
"e. c #C9875C",
"r. c #D48C5C",
"t. c #C38462",
"y. c #CC8B63",
"u. c #CC8C6B",
"i. c #C6876B",
"p. c #D38C67",
"a. c #C8926A",
"s. c #D4936C",
"d. c #DB956C",
"f. c #DC9A6D",
"g. c #DA9666",
"h. c #C58B75",
"j. c #D18C75",
"k. c #C99477",
"l. c #DA9572",
"z. c #DB9A73",
"x. c #D79777",
"c. c #E49B74",
"v. c #E39C78",
"b. c #E2956E",
"n. c #DBA17A",
"m. c #E5A27B",
"M. c #BFCA43",
"N. c #D7D674",
"B. c #D6D35A",
"V. c #A3A82A",
"C. c #8E8981",
"Z. c #8B8683",
"A. c #948C83",
"S. c #9A8F84",
"D. c #948F89",
"F. c #948A85",
"G. c #9B9285",
"H. c #9C958B",
"J. c #9D998D",
"K. c #959387",
"L. c #988F95",
"P. c #A2958A",
"I. c #A3998C",
"U. c #A89789",
"Y. c #BA9986",
"T. c #A49C93",
"R. c #AA9D93",
"E. c #A59894",
"W. c #A18D84",
"Q. c #ACA295",
"!. c #ACA49A",
"~. c #ADA99D",
"^. c #A9A597",
"/. c #B2A495",
"(. c #B2A59A",
"). c #B4AA9D",
"_. c #BAAC9E",
"`. c #B6A898",
"'. c #B3A891",
"]. c #ADA9A3",
"[. c #B3ACA2",
"{. c #BAADA1",
"}. c #B3AEAC",
"|. c #BCB2A4",
" X c #BCB5AA",
".X c #B8B4A9",
"XX c #BDBAB0",
"oX c #BFAFB0",
"OX c #C69A86",
"+X c #DE9F80",
"@X c #CAA995",
"#X c #C9B39A",
"$X c #D9B39C",
"%X c #D4AA8F",
"&X c #E6A885",
"*X c #E3B19A",
"=X c #C3B4A5",
"-X c #C4B6AA",
";X c #C4BAAC",
":X c #CBBBAD",
">X c #C8B7A5",
",X c #D2BDAD",
"<X c #D6B9A7",
"1X c #C4BCB2",
"2X c #CCBEB2",
"3X c #C8BEB9",
"4X c #D2BEB2",
"5X c #D0B7B2",
"6X c #C0AEA2",
"7X c #E2A596",
"8X c #BEC3B9",
"9X c #BEC18C",
"0X c #CED085",
"qX c #EAD392",
"wX c #CEC1AD",
"eX c #C7C4A3",
"rX c #D8C5AC",
"tX c #CDC2B4",
"yX c #CCC4BA",
"uX c #C7C4B7",
"iX c #D3C3B5",
"pX c #D6CBB4",
"aX c #DACCB4",
"sX c #D4C5BA",
"dX c #D9C6BA",
"fX c #D5CABB",
"gX c #DACBBC",
"hX c #DAC3B4",
"jX c #DDD2BB",
"kX c #D8D2B7",
"lX c #E2C7B7",
"zX c #E1D4BC",
"xX c #E2D6B8",
"cX c #E1C8A7",
"vX c #D4CCC2",
"bX c #DBCDC1",
"nX c #D5C5C2",
"mX c #DCD3C2",
"MX c #DBD5C6",
"NX c #D4D2CB",
"BX c #E3DCCC",
"VX c #E3D7C4",
"CX c #E4DED3",
"ZX c #E5DFD8",
"AX c #E5E1D4",
"SX c #E9E2D5",
"DX c #E5E3DC",
"FX c #EBE5DA",
"GX c #E9E9DD",
"HX c #E7E0CE",
"JX c #EBE6E1",
"KX c #ECEBE5",
"LX c #ECEDEB",
"PX c #E6E9E8",
"IX c #EFEFEB",
/* pixels */
" .J G A V B A J  .>.S.|.:X4X4X=XG.<.:. .A.H.I.P./.!._.`.'.'.T.A.1. . .X. .X. .X. .X. . .L L L  .K L X.X.>.;XI.x ! Z c c c x x h ",
"I.H.K.J.D.C.<.{ { H H <. .[ >.3.A.<.<.1.S.E.^.).).'.(.R.U.U.G.A.<. . .>. .X.X.X. .X.X.X.X.L L L L L  .X. . XI.x ' Z c B N b b h ",
"Q.).|.|.{.-XsX4X XC.x r 6 6 8 8 c x x N F X.F.H.I.P.I.U.U.I.S.F.<.K  .X. .X.X.X. .X.:.X.L L L K K  . . . .-XI.b ] C b c c x c x ",
"{.|.|.;XfXgX3XQ.N 8 5 8 8 y y y g N C G C H K :.4.F.H.I.I.R.1. .<. . . . .X.X.X. .P X.:.L L L L L K  . . .;XI.c ] Z x x b x c x ",
"[.-X;XuX1XT.B 5 6 6 r g g c n c x G P Z.L Z.Z.J.H.J.T.!.(.[.J.C.A.X.>. . . .X.X.X.L L L K J K K L L  . . .oXT.x ] Z c c c x c c ",
"].3X8XL.N 6 7 8 t d N C F { ..[ ,.Z.D.D.D.J.T.!.!.[. X;X;X:X|.T.J.1.>. . . ...X.L :.X.K K J J K K K  . . .{.P.n ] Z B N n x c N ",
"uXD.N ; ; 0 0 r h C { >.J.[.sX;XD.D.H.H.^.}. X X;XwXtXiXtXiXwXU.T.A. . . . . . .L P P L K K I J K K K  . .|.J.c ] Z v c c b c c ",
",., & 7 8 r x H } 4.Q.tXSXFXCX[.K.T.]. X1XuXuXtXpXsXtXpXaXaXkXR.T.<. . .{  . . .L L K L L L J J K K L X. .=XP.c ] ' c N c x c h ",
"> 7 6 8 q c ..P.|.vXFXFXsX{.Q.J.^.[.uXtXuXfXmXMXMXCXAXDXAXAXBX^.[.A. . .L L X.L L  . .J J J J J J L L  .:. XI.c ] Z N c c x x c ",
"> ; 6 0 g A.uXCXFXMX;XQ.H.H.T.~.XXuXvXMXMXAXJXJXJXPXLXIXLXLXJX.X XK.X.X.X.L L  . . . .J J J J J J L L  .{  XI.b ] Z x c c b x c ",
"7 7 7 & x .XMX1X!.J.A.F.J.^..XuXyXMXFXDXLXLXLXPXIXLXPXLXPXIXKX}.[.K.L L  .X. . . . . .J K J J G J J L  .{  XH.x ] n x c c c c c ",
"5 & 7 6 0 x H  .X.X.F.T.!.[.1XyXNXDXKXLXKXPXPXIXJXPXKXIXKXGXAX).].1.K L  . .>. . . .L J J J G J J J J :.:. XH.z ' S d g c x c h ",
"5 6 6 6 0 g N F 1.D.E.!.[.;XMXFXJXIXIXLXIXLXJXDXGXSXAXAXAXFXCXR.].4.L L  .L  . . . .K K K J J G F J L X. .;XJ.h ' n g g c g x c ",
"r r r y c C  .A.I.R.)..X1XsXmXBXAXFXZXAXGXAXuX/.<.C H T.uXCXAX].~.K. .L L :. .L L L K H J G G J H J K  . . XJ.g ' n g x h d x c ",
"x N A L C.H.E.[.!.[. XtXiXgXgXfXMXMXSXFXsXG.k 1 3 3 1 : m tXCX^.^.1.L L L L :.X.L L K H G J G J F J L  . . XH.h ' h y x x z g x ",
"D K D.J.E.].).[..X;XtXtXtXtXsXgXkXkXMXfX5.1 3 Q O.O.) W ~ Y.aX~.~.1.L  .L L L L L L K A G K G J H J K  . ..XH.d ] n g g c y x g ",
"G.E.R.[.).=X;XXX;XtXtXiXfXfXjXMXkXNXMX:Xj 9 O.x.s.p.j.y.t.0.lX~.[.D.J K L L L K G J J A A H H K D H J J J  XH.g Q f d g g l t h ",
"[..X].;X-X-X;XyXsXpXmXMXMXCXCXAXFXLXFX=X9 f 0.x.x.b.d.u.j.t.5X}.[.C.J K L L L K K K J J F H H G D J K L :. XG.g Q b z d d d l g ",
"E.A.F R.iXgXgXMXBXBXSXSXFXFXJXKXKXPXJXtXd m 0.z.j.i.#.j.#._ @X}.].1.G J L L L K G G G G A D A F D J K L L [.S.g ! k x l j g g g ",
"t r 8 T.VXBXBXBXBXBXHXSXCXCXAXCXCXJXDXsXm ! 0.l.8.` _ i._ ` Y.!.).C.G K L L L K G J J H J H H H D G K L J ).A.g ] k x y j g g t ",
"6 r e I.gXgXgXfXgXjXmXVXVXzXmXjXjXBXBXaX^ ~ 0.l.8.` _ u.+._ Y.I.~.Z.J J L L K G G K K J K A A S D G A K H !.F.f ] n x y d f j w ",
"x c e A.dXaXpXpXaXgXgXzXjXjXxXzXxXzXjXrXa.O.h.x.j.#.i.j.p.#.h.Y.!.<.D G K K H G G G G G G A A G D J K K J [.F.b m k b t l z j t ",
"6 e 6 >.iXrXpXkXpXkXaXaXaXkXkXxXzXxXjX$Xi.h.0.k.+Xj.#._ _ _ #.W.!.,.G G K A G A G I G H G G A K J K K L K [.A.x f k k d t z d t ",
"0 r e >.gXpXrXsXpXpXpXpXpXgXkXkXmXjXmXcXz.i.~ a.j.+.+.( ( ` +.| !.,.D G G G K J K H G H K A A K D K K L J [.A.d d k ' x w z d t ",
"h h z 4.sXjXkXkXaXpXkXpXpXpXkXaXzXkXVXjX#Xk.T T O._ ` #.j.` O.k E.Z.J D H J J D G H A A H A K A F F H H J [.1.z x w k g l j k w ",
"V C N A.pXzXzXkXaXaXaXaXpXrXkXaXaXpXpXaXcX$X~ 1 s ) #.#._ _ ~ p T.Z.G G D S D  .H G A A A A A A A F H H J ^.1.t x h s s t y t y ",
"B G J I.pXzXzXmXaXaXaXpXaXaXrXpXaXjXjXjXxXrX@.< : R +.#.` ) s 1 T.4.S K K K G A G J A S C C A A S F H F F ~.1.d g a u p w t y 0 ",
"J ,.1.^.fXzXzXaXrXaXaXaXaXaXkXkXjXxXjXaXkXlXY.1 - - : ! 4 9 - : H.K.D G I H D S A D A A A C A C S H H G H ~.<.w k k i U R f x j ",
"K.[.XXuXgXsXaXmXaXaXaXaXrXpXkXkXjXzXkXpXpXwXOXT - % % - # = % - 4.1.B H A G G G A A A A A A A A C A A D J ].,.e p i U Y E T d a ",
",.J.K.T.tXwXeX>XwXwXwXwXwXwXpXwXiXwXtXtX;XY.i.8.s : ; % = # - m J.A.S F K G S S A G A S A A G A B A C A D ~.:.9 u 4 3 Y Y E p a ",
"z D N J (.|.|.=X#X=X=X>X=X=X=X=X-X X=X;XeXOX8.u.8.( W 3 3 R ^ ~.[.^.G.4. .{ G A A A C C B A A A C A C V D ~. .9 3 3 1 Y Y Y i q ",
" .1.G K )._.`._._._.|.|.|.|._._._. X-XXXuX@Xi.y.i._ ( W ( _ O.~.[.[.=X|.|..XE.X.V A C C A B A N C A C C D !.,.e s R U U U U a q ",
"G.P.H K Q.(./.].(.'._.|._.).).).[. X3X}.uX4X@Xu.0.8._ _ _ +.9.{.|.).-X;X:X:XtX_.L A A A N B K B N N A B D !. .q a u i i u a j 9 ",
"W.P. .{ !.!.R.R.(.)._._._.).).{.wX3XnX}.uXbX@XOXp.y.8.t.8._ Y.#X-X|.2XwXwXtXfX;XT.G C A B G B B A B B N D !. .r t a p p a q w 8 ",
"4. .F G !.Q.!.!.Q.(._._._._.|.2XiXiX3X].uXvX4X@Xu.t.8._ _ 8.@X-X2X-XwX:XiXiXfXiX3XA.v D A A c B B A V N D ~.X.x t j f f j y t r ",
">.v b n P.!.!.R.!.(.`._. X;XyXfXiXiX3X].XXvXbXiX@Xh.h.#.#.%X,XuX:XtXiXiXiXsXiXdXyX|.J C B B N N x A V N D ^.J 7 7 ; ; ; & & ; ; ",
"L c m Z P.!.!.`./.Q.Q._.yXgXnXsXiXpX2X}.1XyXnXdX2X=X@XOXOX$XrXtXwXsXiXiXgXsXiXdXtXfXK.c B x N c B B B B B ~.x . .       . + O O ",
"C m m ' S.Q.T.Q.Q.!._.iXsXgXgXsXfXtX3X3X2XiXnX2XtXtX>X4XrXwX:XiXiXiXsXsXdXdXiXdXtXfX~.D N B N B B B B B B ^.e                   ",
"J.U.9.| U.Q.Q.Q.R.(.:XmXgXiXfXsXsXiXtXsXdXfXnXiX4XdX4XnXnXtXhXdXdXsXtXnXsXnXiXiXrXiX1XC.N B v B B B B b v T.7 X           X     ",
"wX=XY.| /.(.!.Q.!.Q.;XmXsXdXnXnXdXdX4XsXiXiXnXsXdXdXbX2XtXdXsXnXdXyXtXnXsXsXiX2XwXsXsXQ.N x S c v x x x v J.*                   ",
"~.[.J.{ T.I.I.U.T.!.sXbXdXdXsXsXdXiXiXiXgXgXdXdXdXfXiX2XsXbXsXyXsXsXnXgXsXiXiX:XhXhXzX|.D N N c N g x N x C.*                   ",
"{ 4.<.n 1.G.K.G.H.).bXgXfXdXsXsXsXiXiXdXdXhXiXdXfXdX2X2XsXsXfXgXfXsXbXbXdXdXtX;XyXvX2X'.5.x N c c x x g v <.@                   ",
"J K.1.C <.D.1.C.A. XbXsXdXdXdXsXiXiXiXdXdXiXiXgXgXiX2XtXdXdXsXbXnXsXbXgXdXsXiX>XyX8X(.0.h.Q v d x x g h c <.=         X X X X X ",
")..X1.x K ,.X.X.1.2XbXiXgXiXsXtXtXiXiXdXdXdXgXbXiX2XiXsXsXyXsXnXgXfXbXgXiXdX-X/._.~.q.y.s.7.b h x x N g N X.+         . O + o X ",
").|. .x L ,.X.L F.sXbXdXfXsXsXiX:X2XdXdXdXgXgXaXiX,XiXdXiXtXsXgXbXfXbXgXyXiXR...9.7.a.y.r.8.m N z z x y B G .       X O $ $ $ O ",
"~.^.F z A G H K E.nXbXfXfXsXsX4X:X:XdXfXdXgXfXiXiXdXiXiX2XtXdXgXgXfXsXsX4X2X3.n ( _ e.y.y.e.^ V g g l z v S X         + O O O O ",
"D F x t G L H L .XbXbXgXfXgXdXiX6X6X4XsXsXbXdXdXiXgXiX:X4XiXdXbXgXsX4XsX3X{.F n Q ) _ _ s.y.8.x x x h k k k X           X     X ",
"j e t 0 V K G L 3XbXbXbXdXgXfX4X6X(.5XdXsXsXiXsXdXdX4X2XiXiXiXbXlX4X2X2X1XR.n c m ~ ) _ r.s.7.c y b k k ! u             . o O O ",
"F v t v F H I .. XsXbXvXfXgXdXwX(./.5X4XdXiXsXsXsXtX2X:X,XiXsXgXfXiX:X>X:XH.n h c ! ) e.e.r.8.n N d s p w w X X o X X . X X   o ",
"3.:.N B F [ V } Y.@X#X:XuXvXsX2XR./.:X4XdXiX4X4X4X:X:X,XiXiXiXgXmXdX:X:X1XI.n B c ' 8.e.y.r.8.v g z R p w 7 o o X o o   X X X   ",
"L D r > < d l } z.c.x.OX`.).[.!.U._.4XiX:X:X,X4X:X:X:XtXiXfXdXgXfXfXiX:X:XI.b B b | i.y.y.y.8.v x t i p e & o X . X       X O $ ",
"w 0 8 , e N l | n.c.b.l.s.k.0.9.U.=X2X4X=X:X4X4X5X2XiXiXiXdXiXbXgXfXiXiX-XI.b x c | a.r.y.y.8.b q h p u q 7 $ * & 7 y K 1.H.L.D.",
"w 6 5 , e N g @.c.c.g.g.r.$._ | /.-X2X4XiXbXiX4X5X4XdXiX,XdXdXlXdXiXiXiX:X/.[ g v } u.e.e.y.8.z g j } f j A.U.^.R.).[.{.>X-X(.A.",
"w < 5 , e g g 7.c.c.g.r.r.$.^ B Y.:X4XfXmXbXiX5XyXgXfXiXiXgXlXzXgXgXtXiX4X-X3.g l Q e.e.a.y.q.D w < k 9 t !.'.R.T./.Q.Q.Q.P.J.A.",
"l w q e q N B 8.g.z.f.f.g.p.) Q 9.<X4XdXdX:X:X,XfXaXrX<XrXcXrXrXgXaXpXwXiX4XT.v l ! t.r.a.a.%XK.I.D ! a z 3.1.[ S G.G.2.X.Z.].}.",
"L J  .H J <...8.g.c.f.f.g.g.p.i.9.@X<X<X,X#X<XhXlX<X$X*X*X*X$X$X,XsXtXtX4X4X[.D c ! u.g.q.a.%X~.gXjXrX).~.Q.U.K.J. X(.A. .A P Z.",
"K G [ F F >.5.q.g.p.p.g.f.c.d.d.d.z.f.z.n.m.&X&X7X&X&X&Xv.v.v.+X@XrXsXiX,X>X:XI.I.k.x.f.j.@X%X<XcXN.B.*.N.N.M.*.*.0X'.v M 1 > * ",
"D F [ F F  ...9.y.t.8.e.p.g.f.f.z.z.z.f.z.m.&X&X&X&X&X&Xm.n.z.x.OX>XgXiXdXiX;X1XlX%Xn.g.a.;.;.w.-.*.&.%.%.%.%.&.%.*.B.w. .v 2 7 ",
"<.<...F A { } | 8._ -._ e.e.e.p.d.p.d.d.m.m.z.v.m.m.&Xv.l.j.x.x.0.<XjXiX:XG.b A.%Xx.z.g.k.9XN.w.#XB.%.&.%.*.*.%.&.*.;.s ! '.1X|.",
"I.P.F.[ A K  .| ^ ~ ~ ~ ~ ) ) ) _ _ _ _ 8.i.i.k.l.c.x.l.l.c.x.k.hXlX:XH.Z F { 5.a.m.m.v.@X8XuXNXkXxXN.=.=.*.N.;.V.2.} M n  .S.A.",
"I.I.G.{ J  . .{ ..} } ! m s s s s T W W T 4 3 s O.k.x.u.p.u.0.OXU.U. .>.3.2.6.0.z.m.l.d.| K 2.Q.'.tXrXN.qXqXMX).K.J.].L.B V 0 t ",
"P.I.G.{ { ..>...,. .:.>...| } } ..5.} m M m p f p Q ^ ) 0.7.' Z F X.G.E.S.5.7.h.z.x.z.j.~ r a h :.1.I.Q.|.eXBXSXDXDXMXkXNXnX;X}.",
"U.R.I.2...X.3.4.1.<.1.>. .<.2.<.H.R.4.A.4.W.3.X.[ { { } | 5.>.<.C.H.P.5.G.6.^ t.d.x.x.s.Q y d 8 p ! U.L.<.4.S.E.S.[.~. X=X{.T.{ ",
"U.'.Q.K.F.5.4.4.4.3.4.4.4.A.2.>.T.|./.(./.Q.P.S.S.C.C.1.<.3.3.F.G.4.W.W.W.6.O.#.p.x.x.a.} 0 < e f s {.=X3.C t & $ @ @ @ $ $ O O "
};
