/* XPM */
static char *waka43_jpg[] = {
/* columns rows colors chars-per-pixel */
"64 64 256 2 ",
"   c #020202",
".  c #040B0B",
"X  c #0B0C0C",
"o  c #060507",
"O  c #191817",
"+  c #10100F",
"@  c #28221A",
"#  c #382419",
"$  c #242322",
"%  c #382C25",
"&  c #39332B",
"*  c #3C3934",
"=  c #241F1B",
"-  c #47352C",
";  c #443C37",
":  c #5B3E32",
">  c #52382A",
",  c #7E3F36",
"<  c #3E413A",
"1  c #44413C",
"2  c #4A443C",
"3  c #59483A",
"4  c #634739",
"5  c #754A3A",
"6  c #4D4A44",
"7  c #4A4744",
"8  c #524D45",
"9  c #564D4A",
"0  c #55524C",
"q  c #5A544D",
"w  c #5A574B",
"e  c #5B5652",
"r  c #5D5B52",
"t  c #575852",
"y  c #4E5051",
"u  c #6A4D41",
"i  c #634C43",
"p  c #784945",
"a  c #67564B",
"s  c #78574A",
"d  c #625D54",
"f  c #655F5A",
"g  c #6A5E5B",
"h  c #6B5A53",
"j  c #755853",
"k  c #5C6355",
"l  c #4F6151",
"z  c #646256",
"x  c #686257",
"c  c #65625B",
"v  c #6B645C",
"b  c #6C685E",
"n  c #62695E",
"m  c #72655C",
"M  c #72695E",
"N  c #786658",
"B  c #706653",
"V  c #6B6561",
"C  c #6D6A63",
"Z  c #676966",
"A  c #726D65",
"S  c #786E65",
"D  c #736E68",
"F  c #736865",
"G  c #757066",
"H  c #7A7166",
"J  c #76726A",
"K  c #7A756D",
"L  c #7D786E",
"P  c #797A68",
"I  c #7C7770",
"U  c #7E7972",
"Y  c #787973",
"T  c #6F746D",
"R  c #655F61",
"E  c #8A3A3D",
"W  c #AB3239",
"Q  c #B52E35",
"!  c #BE3D41",
"~  c #C02F40",
"^  c #854347",
"/  c #855A4C",
"(  c #AB4448",
")  c #8C6554",
"_  c #8B6A5A",
"`  c #926C5C",
"'  c #976957",
"]  c #88715C",
"[  c #956D52",
"{  c #A56D57",
"}  c #A6755C",
"|  c #B87A5B",
" . c #AA6A4D",
".. c #896B67",
"X. c #936B67",
"o. c #82776D",
"O. c #81796E",
"+. c #897565",
"@. c #977966",
"#. c #837C74",
"$. c #847E79",
"%. c #8A7E74",
"&. c #977C72",
"*. c #A77964",
"=. c #B57C64",
"-. c #B87B62",
";. c #A36F61",
":. c #C07F61",
">. c #C17A5A",
",. c #B6C40D",
"<. c #C6D704",
"1. c #D1D414",
"2. c #CBD12D",
"3. c #E0DD06",
"4. c #98866D",
"5. c #868176",
"6. c #898175",
"7. c #86827A",
"8. c #8B847B",
"9. c #8E897E",
"0. c #92897D",
"q. c #96887A",
"w. c #9B957E",
"e. c #AB8469",
"r. c #B38263",
"t. c #BB8363",
"y. c #B9866B",
"u. c #A98A76",
"i. c #B88973",
"p. c #A7967D",
"a. c #B9947E",
"s. c #B1926C",
"d. c #B3B56B",
"f. c #B5B05F",
"g. c #C7885B",
"h. c #CE945D",
"j. c #C68563",
"k. c #CA8663",
"l. c #CB8C65",
"z. c #C38B6D",
"x. c #CB8C6A",
"c. c #C58869",
"v. c #D58C68",
"b. c #CC936C",
"n. c #C89369",
"m. c #D39265",
"M. c #D4936C",
"N. c #D8956A",
"B. c #C78D73",
"V. c #CD9472",
"C. c #C99779",
"Z. c #D59777",
"A. c #E39E78",
"S. c #CEA375",
"D. c #D2B05E",
"F. c #D5D54F",
"G. c #D5D36E",
"H. c #E2D670",
"J. c #D8E87B",
"K. c #8D8881",
"L. c #938C83",
"P. c #9B8E83",
"I. c #968D8C",
"U. c #9B9285",
"Y. c #9B948A",
"T. c #9D998D",
"R. c #969287",
"E. c #999893",
"W. c #988E97",
"Q. c #A2968A",
"!. c #A39A8C",
"~. c #A89989",
"^. c #B79C88",
"/. c #A59C92",
"(. c #AA9E92",
"). c #A89F99",
"_. c #ABA295",
"`. c #ACA49B",
"'. c #A9A599",
"]. c #B2A69B",
"[. c #B3AA9D",
"{. c #BBAD9E",
"}. c #B5A695",
"|. c #BAB29E",
" X c #AFA48A",
".X c #ADAAA1",
"XX c #A7A6A1",
"oX c #B4ACA2",
"OX c #BBAEA3",
"+X c #B1A7A1",
"@X c #B6B1A5",
"#X c #BDB2A4",
"$X c #BCB4A9",
"%X c #B9B6AC",
"&X c #D89B84",
"*X c #C39885",
"=X c #C7A68C",
"-X c #C9AA96",
";X c #D6AC96",
":X c #C6B79E",
">X c #D3A78A",
",X c #C1AFA7",
"<X c #C3B3A4",
"1X c #C2B5AA",
"2X c #C4BAAD",
"3X c #CCBCAD",
"4X c #C9B8A5",
"5X c #D5BBA8",
"6X c #C5BCB1",
"7X c #CCBDB1",
"8X c #C8BAB9",
"9X c #D1BEB3",
"0X c #D9BDB1",
"qX c #E29A81",
"wX c #D3CE8E",
"eX c #CCC0AC",
"rX c #CFCAA0",
"tX c #D4C4AE",
"yX c #D7C9AA",
"uX c #C6C2B4",
"iX c #CCC2B3",
"pX c #CBC4BA",
"aX c #CDCBBC",
"sX c #D3C3B4",
"dX c #D9C6B5",
"fX c #D5CAB4",
"gX c #DBCBB4",
"hX c #D4C6B9",
"jX c #DAC6B9",
"kX c #D5CBBA",
"lX c #DACBBB",
"zX c #DBD2BB",
"xX c #D8D1B5",
"cX c #E1CABA",
"vX c #E3D5BD",
"bX c #E1D1B5",
"nX c #E1DC8B",
"mX c #D6CDC3",
"MX c #DACDC2",
"NX c #DBD3C3",
"BX c #DCD4CB",
"VX c #DED9C9",
"CX c #D7D5C6",
"ZX c #DCD9D3",
"AX c #E3D6C2",
"SX c #E4DAC9",
"DX c #E3DED3",
"FX c #E1CAC1",
"GX c #EBE3D6",
"HX c #E4E3DB",
"JX c #E7E4D8",
"KX c #EBE6E2",
"LX c #ECECEA",
"PX c #E6E8E4",
"IX c #ECF0ED",
"UX c #EDEBF0",
/* pixels */
"'.R.7.7.9.L.Y.Y.Q.).OX1X3X3X0X0X<X~.Y.Y.0.5.%.8.8.$.A v e 8 6 d $.Y U U I $.$.$.#.#.#.#.I I I I U I $.$.#.P.iX#.x ..m V V v d e ",
"K J J P K K $.8.I.Q./.}.7X9X7X7X[.Y.L.O.#.L.Y.P.Y.Y.Q./.!.U.%.8.K.U U U U $.$.$.I $.#.I I #.I I $.#.#.#.#.L.pX8.x X.m v v v z d ",
"L.8.7.U K K D A m K K 9.+X$XoX#X`.L.K.#.0.T.Y./.[.}.].]._._.!.~.L.#.U U I #.I $.I $.$.I I U U I I I #.#.O.L.pX6.b ..b v c v c z ",
"T.'.[.`.`.`.]._.).Y.8.D v q 9 d C K Y U U R.Y.`.`.`._.(.Q.~.Q.q.K.#.U U $.I #.#.#.$.$.$.I U U I I I I #.#.L.6X6.B X.M v c c c d ",
"'._.[.<X%X1X7XMXpXY.f 8 6 0 0 t e V r v f b H #.8.L.P.Q.!./.!.0.7.$.I U I I $.$.$.$.$.I U I I I I o.U #.5.L.uX#.m ..m m c v f r ",
"].@X$X%XiXkX2X/.c 8 6 q r d f c v v V Y #.J $.7.L.I.U.U.!././.6.K.7.$.I $.I $.$.#.$.#.#.U I I I U U K U #.L.6X6.B X.A v n c f d ",
"@X[.%XuX%XY.b 8 6 6 e f v v F S V K 8.K.K.7.E.R.T./._.].<X1X1X/.I.K.$.U U U $.$.#.$.$.I I I I K I I K L O.9.2X8.m X.m b c f f f ",
"[.%X%XR.v 7 7 6 e f V F K 8.P.(.Y.L.L.Y.R.E.'..XoX%X1X4X3X1XpX@XI.W.$.U U $.$.U #.$.$.$.I I I J K Y K U #.0.%X8.m X.m b Z V c g ",
"1X.Xr < * 7 e d g H o.q._.1XSXGX%XL.E.E..X%X@X6X7XtXtXsXzXeXfX4XY.).#.I U $.U #.#.#.U U U I I Y U K L L 5.0.eX6.v ` V V v V v d ",
"d e 7 1 6 e c K 5.Q.@XkXGXGXmX$X~.!.`.$X6XmXkXmXmXBXNXNXSXSXDXhX!.`.$.I U #.U #.U U U U U I I I U L O.#.5.0.%X6.m ` F g x v d r ",
"* * 7 8 y f #._.iXVXGXVXuX[.!.Y.'.@X6XMXmXmXVXZXDXDXHXLXJXKXKXDX+XoX8.U U U U O.#.U U U U I I I U K U L 5.9.%X6.m ` F v x g d r ",
"; 7 7 1 7 C 6XGXDXpX[.U.L.R.!.@X@XpXmXCXuXuXuXCXLXUXIXLXIXLXUXZXoX$X8.U U #.U #.$.U $.$.U I I Y I I L K 5.9.2X5.v ` V v x V z z ",
"1 ; 7 7 6 d R.!.L.8.8.R./._.+X6X8XSX@X$.0 ; : g XXZXLXPXIXLXKXZX_.oX5.Y #.#.#.$.#.$.$.U U I I J U K I U #.L.uX5.h ` V v x V v z ",
"6 7 7 7 8 q c M #.#.L.Y._.oX6XpXKX$Xe * - ; - - * A XXPXPXHXHXZX)..X$.U U $.U #.U U U I I I I J L K U U U L.uX5.h ) R v n v z z ",
"0 7 y 9 0 e c K $.Y.'.'.oX2XmXDXZX5.; 3 u 3 3 - - % 9 pXHXHXJXCX)..X7.U U #.U #.#.U #.I I I I I K J U U U L.uX5.h ` V f z v d r ",
"V V d V D Y 8.R./.`.[.%XuXiXlXlXiXa 4 ` i.y.*.) u 3 3 Q.GXGXGXVXQ.'.#.I U $.U U U U U Y J I J J P J U K U K.uX5.h ) c d z f z r ",
"d b K 8.L.T.`.`.oX$X6X7XiXsXhXkX1XS a :.A.b.M.k.j.=.} U.DXVXSXzX!.`.$.U #.#.U I U U I I J D J J K J K L L 9.uX5.j ` c f c h d r ",
"h #.I.)./.`.$X$X4X3X7X9XsXsXdXlX7XN B i.Z.&XZ.B.k.c.-.^.VXDXJXNX'.].$.U U U I I U I I I J J Y K K J K L L 8.2XL j ) z R c d d r ",
"U.`.+XoX%X1X1X8XiXiXsXkXkXMXNXSX0X..] C.C.i.-.:.k.-.*.4XJXKXPXJX'.`.#.I U $.I I I I I J J D Y D J J P U L 8.2XO.m ` z c c d r t ",
"#XOX`.Y.<X7X3XhXmXCXVXDXHXHXHXKX;X=.r.C.B.{ { :.y.' ' hXIXLXPXPX'.XX#.I U I I I J I J K J D J D J J P U L 8.6X#.F ` z d d d r t ",
"L.K h q [.NXSXSXDXGXJXJXJXHXHXHX>XV.y.Z.:.;.>.:.} [ ' 2XJXLXPXZX'..X$.Y U I I I I K J I J J I J Y K J K K 8.$XL v ) d e e d k q ",
"8 8 r w |.zXNXAXAXAXvXAXSXSXSXSX;Xc.y.&XB.B.v.B.k.| -.-XSXDXJXzX_..X#.I U I I I I I J I Y J Y D T J T K J 5.oXL g _ h d w k z e ",
"z d f 8 _.xXfXfXgXgXgXxXvXvXvXvX5XB.' B.Z.x.:.B.l.t.c.-XvXzXNXzX/.`.#.K U I Y I I I J I J J J D C J C K K 8.oXL V ) d g r d z e ",
"6 q r 8 T.lXtXlXlXfXgXxXzXzXzXxXzX5X) @.B.-.>.;.{ { } ^.NXSXAXvX!.`.#.O.I J F J D K D J J J J D J K J U L 8.oXO.c / a v z r d r ",
"8 7 0 8 L.fXsXfXfXdXgXgXkXjXgXfXVXdX) 3 }  .t.*.' ' ) u.NXVXzXbX!._.O.K J J J K K J P J J J D H J D P K J 5.@XK r g j j d w k h ",
"A d c r !.gXgXfXfXdXgXfXgXdXbXyXyXyX] - p j.| e.=.' 4 ~.zXzXzXlXU.(.#.K K K J K K K A G J D D D J A J K K 8.@XK R k d j k w d 0 ",
"J V Z v !.lXgXzXzXfXtXyXfX5X;X>XS.*XN & :  .:.{  ./ - p.zXyXgXfXQ.'.$.K I T J K K J J A D D D D J D J K K 5.@XP f c a p j h r q ",
"J D T G _.lXbXvXzXfXfXxXfX;XS.Z.x.B.p.- % : / ' s 4 # O.kXvXvXgX~._.$.K I D D J K J A D D A D D D A P J J 5.[.G d n d p w w r r ",
"C J $.$.'.kXzXvXzXfXfXxXyX;XZ.Z.t.y.i.5 - % - - % # # N 7XhXgXgX(.(.5.K D J D D J J D D G G C G J C J K G 5..XG w h j p 5 / a q ",
"K K.XX'.%XzXgXfXfXdXfXfXtX;XC.V.y.i.B.B.^ - & @ @ > : &.oX+X<X:X].oXQ.L F D J D J D D D A C G G D D G J T 5.@XG a p p E ~ ( s w ",
"7.T.%X.X#XfXsXtXfXtXtXfXtX;XV.n.B.=X0X^.y.` 4 : 5 s s P.oX].OX,X1X1X#XU.K A D D J D D J G C G A J D A G A #.[.A u i 5 5 Q ( ( a ",
"b J Y J q.#X4X<X<X4X4X2X3X-XC.C.g.^.mX1XB.} { {  .} &. X$X,X1X8X1X3XpX1XL.A A D J J J J G G C G C C A C A #.'.G 4 4 ^ 5 Q Q W 5 ",
"x G L b 8.[.OX{.{.OX:X4X$X5XC.B.t.*XaXhX3X:Xa.u.=.i.^.<X6X$X<X1X1X3X7XiXOXH K A J D D Y C C J C Z C D Z C L [.C u h 4 , W Q E u ",
"T.U.R.J 8.[.[.}.].OX<XeXuX5XC.V.t.^.iXiX3X4X<X-X=X-X<X2X2X2X2X1X4X7X7XsXiX).M C J D F J A C J V C C C C b #.'.G 9 s ^ E p u 4 9 ",
"!.T.L.J I _.].[.}.6XsXhXiX5XC.Z.x.-X7X2X7X7XuX7X7X9XiXiX7X7X7X1X1XiX7X7X7X6X#.A J D C J C C D C Z C C C C 5.'.G w r i 4 u a k w ",
"p.T.K.U $.oX].).[.aXlXfXhX5XZ.Z.c.-X7X7XpX7XiXiX3X8XiX2X7X7XpX6X7XsXiXiX7XsX_.A C A C A D C Z b C C C C b 7.'.G t k r d h d r 0 ",
"0.6.B e b ).].`.#XmXMXfXhX;XZ.B.x.-X7X7XiX7XiX3X7X7X7X3X3X5XiXiXsXiXiXsX7XsX6Xo.A C A C Z C c V C V C V b $..XC 9 t q i 9 9 y 9 ",
"P P M B o.(.`._.1XMXlXhX0X;XB.M.B.=X7X7X5X3X7X3X7X3XsXjXsXtXsXiXiXiX5X7X3XhX7X`.G b C A C C C V C b C Z b #.[.e O O + + + + O $ ",
"r C M N ..Q.`.`.7XNXlXkXjX;XM.N.k.^.4X9XeXiXiX3X3X3XiXhXhX9XsXtXhXsXsX5X3XhXpX6XU b C D C C Z V V v V V v K '.*             . . ",
"Y 7.O.] @.(.].'.7XmXlXlXjX>XM.N.v.B.4XeX2XuX7X3XiXuXiXuX7X9XsXsXsXsXhX3X3XiXiX[.7.C C A C C V V V v v c v K '.@   o         o   ",
"3X<X:Xu.&.}.}.].$XcXFXMXsXZ.N.v.l.z.;X6X6X3X3XiX3X9X3X3XtXsXhXsXjX3XtX3X7X%XQ.e.r.M C C b C V n V v c d v J R.O                 ",
"2X<X1X(.q.].)./.OXMXNXMXyXC.M.N.M.z.-X3XuX3X5XiX3X3X3X9X9XsXsX3X3XiXjX7X(.q.u.C.n.4.A V C v v c g f c c h A L.O                 ",
"L.R.0.5.A K.Y.Y.'.pXzXtX;XZ.m.V.M.B.*X4X2X9XsXiX4X7X3XtXsXhXsX3X3XsXsX3Xu.e.x.M.b.B.+.V V v v f b f c z z A 8.+                 ",
"x J 9.7.D L.I.L.Y.2XsX-XC.M.m.b.M.B.*X4X7XsXhXiX3X3X3X3XsXsXsX9X3XhX8X3Xe.t.v.m.M.M.e.b v g v g v d c v d A Y X                 ",
"Y.T.[.#.v 5.8.8.K.[.5XC.M.N.N.m.M.x.z.:X7XiXhX3X3X3X9X9XsXsXsXsXsX3X7XhX^.{ k.m.m.v.s.+.x x c V x d d c d A D o       o X O X . ",
"[.[.%XP d #.#.$.%.P.=XM.N.m.b.m.b.c.t.}.1X7X3X1X3X7X3XsXsXsXsXtXjX7X7XiX{.} | c.m.v.V.e.M b n f x d d c x D V o       . O $ = O ",
"|.@X`.G c U U L Y %.C.m.m.l.x.v.l.k.t.a.<X,X,X:X3X3XsXsXsXsXsXsX9XsXhX5X4X4.} j.l.l.M.y.] x Z c c c r c h H d         o O O O O ",
"6.0.%.v f U Y U I o.C.m.h.l.z.v.l.j.-.u.,XOX:X<X4X3XsXsXsXsXsXsXhXhX3XdXhX4.[ | g.x.m.m.@.x c z d V r c v S 9         o o . o X ",
"z x r r 0 K K J Y +.z.m.g.n.b.l.g.t.*.u.OXOXOX4X3X3X7XsXsXsXsXsXsXsXsXdXhX[._ *.k.g.M.v.r.v c c c g l d s ` 7 o       o   + + O ",
"x z r r z F J #.Y +.e.x.x.l.l.g.| t.*.~.,XOX:X,X,X4X5XhXsXhXsXsXhXsX9XsXhX6X4.` k.h.b.m.y.M d x c d h j 4 h <     o . X . + . . ",
"L.9.L b K O.Y D T S +.y.x.l.l.j.>.-.u.(.<XOX{.{.{.:X2XsXdXhXsXsX9XtXlXjXsXhX(.@.x.m.m.m.n.] x d c r j ^ a c 7 . . . . .     o o ",
"7.7.K 8 6 d V V c Z V ` *.k.v.j.j.s.a.}.1X,X,X{.<X<X<X1X9XlXdXhXjXhXjXjXhXhX1X+.t.h.m.h.n.4.A x t n j ^ k t & . . X o           ",
"b c z 8 1 q c c f V Z v ` r.=.-.=.i.{.|.1X,X4X1X3X4X1X1X4XsXhXdXhXdXjXjXlXsXiX5.} c.N.m.b.e.L L z k i u z e & X + O @ & 2 q A o.",
"x 0 6 6 ; r v f g Z Z n M ] ) ` X.u.<XuX7X7XsX7X9XhXsX5X3X3XhXkXdXFXjXfXlXlXMXT._ y.N.k.M.e.G o.d d x ..z h #.$.L.L.'.[.$X$X#X1X",
"w 8 6 6 ; e c c V V C C C D m m m Q.iXhX9XhXhXhXhXjXlXhXhXhXsXdXlXFXjXNXzXsXQ.U g ;.g.l.n.r.5.4.g t 8 j 8 b `.@X[./.oX`.{.[.!.Q.",
"C r 8 7 7 d v V Z b C D F Z Z x R /.MXhXhXhXhX0XsXdXjXlXjXlXjXdXlXFXhXiXw.] - e F ) g.n.h.n.|.:X%.P 3 p 2 x Y.U.#.O.!.U.0.0.0.Q.",
"K P A M x A O.M b C A A C C C Z z U.SXmXMXlXkXlXjXhXhXjX7XsXMX8XoXI.H d w a x $.Y.o.-.l.h.n.:X|. XfX<XoXR.K.W.0.5.Y.oX~.%.O.P E.",
"%.O.O.#.O.5.0.6.C A J H G C b v c U 1XmXCXNXmXjXhX7XOXT.L.#.b d 8 1 & ; q m L._.(.q.z.t.b.V.=XwXpXAXH.F.F.wXwXd.f.wXrXW.M V y 6 ",
"H G G H S H %.O.5.#.O.K K G A C Z C A g H 8.Y.0.Y.d 1 % = $ = = O O - J Y. X(.~.}.~.=Xb.M.M.S.f.n.d.2.2.<.2.<.,.<.,.F.d.4.A a & ",
"6.6.%.O.H o.#.O.L 5.L.L.5.K P G C C !.].Y.L.8.m K.8 ; 1 ; ; ; & q A /.`._.}._.}.(.w.p.Z.A.M.S.d.e.s.2.<.<.<.2.1.<.1.2.2.[ ..w.0.",
"U.U.U.6.o.K O.O.%.O.O.5.0.9.%.S v #.$X1X2X2X1XOX_.).).'.+X+X`.).[.1X}._.]._.].(._.!.4.V.A.N.&XrXbXlXnXF.1.3.H.J.F.G.gX1X5.4.[.%X",
"Q.!.!.0.O.O.O.%.%.#.%.O.O.#.5.0.%.o.OX<X#X<X,XOXoXoX].oX].].OXoX}.~.~._.[.(.!._._.).q.C.N.M.&X}.2XpXlXwXH.H.vXSXuXuX9.R.U..XY 0 ",
"Y.Q.!.0.O.o.o.8.%.%.5.6.O.6.%.6.#.~.hXOXOX<X1XOX#X].[.OX[.[.}._.!.U.~.!.).{.}.OX}.U.p.A.A.S.&Xu.A q.~.'.|.fXyXgXmXuX}.w.T.L.P P ",
"U.T. XU.6.#.%.9.8.0.0.6.6.O.%.6.6.).7X1XOXoXOXOXOXOXOX_.oX<X`.oX].`.`.#X{.}.OX}.}.~.C.Z.A.A.qXs.c A @.0.I.w.p.$XiXdXjXMXfXNXlXyX"
};
