/* XPM */
static char *waka30_jpg[] = {
/* columns rows colors chars-per-pixel */
"64 64 256 2 ",
"   c #010102",
".  c #08090C",
"X  c #090B10",
"o  c #181717",
"O  c #140E0B",
"+  c #261C19",
"@  c #14211C",
"#  c #2C231B",
"$  c #382C25",
"%  c #3C3834",
"&  c #312C27",
"*  c #182420",
"=  c #47352B",
"-  c #4A3C35",
";  c #543A30",
":  c #7C3F3C",
">  c #3B453C",
",  c #46423E",
"<  c #4A453E",
"1  c #594639",
"2  c #69483B",
"3  c #724C3A",
"4  c #494641",
"5  c #4D4A44",
"6  c #4A4747",
"7  c #534D4B",
"8  c #524C46",
"9  c #55524D",
"0  c #5A544C",
"q  c #58594B",
"w  c #5B5551",
"e  c #5D5B54",
"r  c #5B5955",
"t  c #4E5A4A",
"y  c #684A45",
"u  c #764A47",
"i  c #66564A",
"p  c #75574A",
"a  c #635C54",
"s  c #6C5C55",
"d  c #635E5A",
"f  c #685D5B",
"g  c #735B55",
"h  c #5E6257",
"j  c #55624E",
"k  c #646156",
"l  c #6B6257",
"z  c #65635B",
"x  c #6B645C",
"c  c #6C695E",
"v  c #766455",
"b  c #7A665A",
"n  c #77685B",
"m  c #7A7C5A",
"M  c #666561",
"N  c #6B6662",
"B  c #6D6A63",
"V  c #6B6B67",
"C  c #726D64",
"Z  c #736E69",
"A  c #796C66",
"S  c #747067",
"D  c #797266",
"F  c #76726A",
"G  c #7A756D",
"H  c #7C796E",
"J  c #71796A",
"K  c #7B7671",
"L  c #7E7973",
"P  c #767973",
"I  c #74736E",
"U  c #5F6561",
"Y  c #8D3734",
"T  c #AF3235",
"R  c #81453D",
"E  c #8A4E49",
"W  c #88544A",
"Q  c #885351",
"!  c #83655A",
"~  c #846A5D",
"^  c #87665A",
"/  c #996C58",
"(  c #9C725B",
")  c #8B6952",
"_  c #A56C55",
"`  c #A8745A",
"'  c #B6795C",
"]  c #A46D4F",
"[  c #8B6A61",
"{  c #856962",
"}  c #827A6E",
"|  c #857468",
" . c #987866",
".. c #827C74",
"X. c #837E79",
"o. c #887C74",
"O. c #94796C",
"+. c #A67865",
"@. c #B77B65",
"#. c #B47D78",
"$. c #B54245",
"%. c #C27C5D",
"&. c #C17C62",
"*. c #7D8079",
"=. c #C6D60B",
"-. c #E1D316",
";. c #CBD32F",
":. c #CFE103",
">. c #BB835D",
",. c #858275",
"<. c #8A8176",
"1. c #86827A",
"2. c #8B857C",
"3. c #8E897C",
"4. c #8C8A75",
"5. c #938A7E",
"6. c #978678",
"7. c #938A6F",
"8. c #AA8469",
"9. c #B88569",
"0. c #A98874",
"q. c #B98A74",
"w. c #BC957A",
"e. c #B4B56B",
"r. c #A8AA57",
"t. c #C5885B",
"y. c #CF915D",
"u. c #C58C64",
"i. c #CB8C64",
"p. c #CB8B6C",
"a. c #C58669",
"s. c #D48D68",
"d. c #CD9366",
"f. c #D4966A",
"g. c #C88C74",
"h. c #D58D72",
"j. c #C89678",
"k. c #D39373",
"l. c #DA9473",
"z. c #DB9B7A",
"x. c #D79A78",
"c. c #E19772",
"v. c #D6A17A",
"b. c #C6AD76",
"n. c #C3B44F",
"m. c #D1D752",
"M. c #D8D770",
"N. c #E4D765",
"B. c #8A7F85",
"V. c #8E8A82",
"C. c #8D8681",
"Z. c #948D83",
"A. c #998D85",
"S. c #949185",
"D. c #9A9285",
"F. c #96928A",
"G. c #9B948A",
"H. c #9D998E",
"J. c #9A9887",
"K. c #9E9B91",
"L. c #9D9692",
"P. c #8E9085",
"I. c #A39A8C",
"U. c #AB9B8D",
"Y. c #A49687",
"T. c #B49A88",
"R. c #A39C92",
"E. c #AB9E93",
"W. c #A89F98",
"Q. c #AF958B",
"!. c #A6A196",
"~. c #ABA296",
"^. c #ACA49A",
"/. c #ABA89B",
"(. c #B2A495",
"). c #B3A59A",
"_. c #B3AA9D",
"`. c #BAAD9E",
"'. c #B8A994",
"]. c #B2A98C",
"[. c #ADAAA2",
"{. c #B4ACA2",
"}. c #BBADA3",
"|. c #BCB2A4",
" X c #BCB4AB",
".X c #B8B4AA",
"XX c #B9B5B0",
"oX c #A49EA2",
"OX c #CB9C87",
"+X c #D59D82",
"@X c #D8A48A",
"#X c #CAAB98",
"$X c #D8AB95",
"%X c #C7B59C",
"&X c #D9B59E",
"*X c #C6A589",
"=X c #C2B5A5",
"-X c #C2B5AA",
";X c #C4BAAB",
":X c #CBBCAD",
">X c #C7B8A6",
",X c #D5BAA8",
"<X c #C5BCB2",
"1X c #CCBDB2",
"2X c #C7BBB4",
"3X c #D2BEB3",
"4X c #C3ADA5",
"5X c #E1AD95",
"6X c #BFC0B0",
"7X c #DAD68A",
"8X c #CDC2AC",
"9X c #CCC4A8",
"0X c #D5CAAF",
"qX c #D5C5AE",
"wX c #CDC3B4",
"eX c #CCC5BA",
"rX c #C8C4B7",
"tX c #D3C4B4",
"yX c #D9C4B6",
"uX c #D5CAB3",
"iX c #DACDB5",
"pX c #D4C5BA",
"aX c #D5CABC",
"sX c #DBCBBC",
"dX c #DAC5BB",
"fX c #DCD1B5",
"gX c #DDD2BB",
"hX c #D7D3B7",
"jX c #CBD0A8",
"kX c #E1D4BB",
"lX c #E4CCB9",
"zX c #E5DB97",
"xX c #CEC8C1",
"cX c #D5CDC3",
"vX c #DDCDC1",
"bX c #D2C9C6",
"nX c #DCD2C3",
"mX c #DCD5CA",
"MX c #DEDACB",
"NX c #D8D2C7",
"BX c #DDDDD2",
"VX c #E0CEC2",
"CX c #E1D3C3",
"ZX c #E2D9CB",
"AX c #E3DDD2",
"SX c #E4DCD9",
"DX c #DDE1D4",
"FX c #E6E3DC",
"GX c #E7E3D9",
"HX c #E4E1CE",
"JX c #E6E5E3",
"KX c #ECEAE5",
"LX c #EBEBEA",
"PX c #E7E9E7",
"IX c #F0EFED",
"UX c #DDEBEB",
/* pixels */
".X.XXX[.F.....1.5.Y.^.).).`.).~.I.Z.2.2.L G N Z z e 9 7 6 4 4 6 V F Z I K K L X.......L L L ..L L G ..X.....-X^.V ^ ~ c B N z C ",
"XX[.L.C.C.2.Z.F.R.W.}.-X:X8X:X3X>X(.I.G.V.3...D L G N d 0 7 6 4 L L K L L L X.X.2.........L L L L L ..X.....}.^.C ^ ~ z N x l V ",
"2.X.F Z H ..,.1.C.Z.I.W.}.:X,XyX>XE.G.2.G ..5.I.D.J.I.H.G.Z.o.} 1.X.L L L L X.X.......X.L L L L ..L ..X......X^.C [ ! k z n k N ",
"2.1.X.L H D Z B n G L ..R.4X4X}. XR.5.X...Z.G.G.U.~.^.).).).(.E.Z.C.L L L L L X...H ..X.L L L K L K L .......X^.B ^ ~ k M x z N ",
"H.K.!.!.!.I.K.K.S.5.2.L L N e d N K ..L L X.F.R.^.^.E.I.I.U.Y.A.F.C.L L X.L X.X.......,.L ..L L F G K ......}.^.N [ ~ d z x z V ",
"R.!./.|. X X<XrXnX XZ.d 6 7 7 9 7 d e e N M Z L o.5.A.D.I.E.R.Y.X.1.L L L X.X.X.....o...L L L G G L L ......}.~.N [ [ z d x k V ",
"/.{.|. X<XeXeX2XD.z 6 6 r r r U d M z V L S K L 2.5.S.D.D.I.I.D.X.C.L L L L X.X.....X.X.L L L P G H K ......{.~.V [ { z z f a C ",
"{.{.{..X<X-XA.l 5 4 9 r d N x N N N Z 2.Z.,.Z.S.S.H.R.!._.|.=X}.V.V.C.L L K X.....H ..L L L L L G H F L ....{.~.S [ { x z l k V ",
"{.{..XXXF.r - 5 8 w z x D G o.A.G.Z.S.V.V.F.R.!.[.[.{. X;X;X=X1X[.F.V.L L L X.....L L ..L H H L G H K L L ..{.^.N [ [ x M x l Z ",
"<X2XF.w % 4 7 7 d N A | 6.).wXAXcX!.3.S.R./.{. X.X8X8X8X8XuXtXuXW.I.Z.L L ..L X.....L K L L H G F F K K H H {.^.x [ ~ z z x d Z ",
"L Z w - 4 7 e N D <.G.|.cXGXAXvX{.G.F.[.XXXXeXeXuXuXaXsXgXnXnXhX(.R.F...L L K L X.X...L H F L F H H L L ....{.!.x ^ [ x x l s V ",
"% - % 6 7 7 k 2.).pXAXGXmX<X~.G.H./.XXrXrXxXNXNXSXBXSXKXKXKXKXKX-X{.R...L L K ..K K L L L H H H L H L L ,.} {.^.C [ ~ z d z k N ",
"& - 6 > < 9 2.cXGXZXeX).D.5.F.!.{. XeXbXmXAXFXFXLXIXLXUXPXLXIXPX2X[.K.L L 1.......K L K ..K L F F H L L ..} /.!.x [ ~ z M x d N ",
"4 , % 4 < < C ^.!.D.o.2.A.R.^./.XXrXmXFXKXIXIXLXPXLXPXLXIXJXxXW.Z z e 0 N L X...X.X...K L K G G G F K L ....{.^.z ^ ! k M x l V ",
"4 6 4 4 7 9 w k A | 2.S.H.K.{.1XxXGXKXLXLXKXLXJXLXLXPXLXBXI.v ; - = $ $ 4 a L X...X.X.K K G G F H F K L ,...{./.z ^ b d z l k V ",
"7 7 7 6 7 9 d N L C.F.!.[.}.rXcXGXJXFXPXLXPXLXPXJXSXFXFX.Xy 2 /  .! y - % - Z L ..K K K K G G K G F K L ....{.).z ^ ! e M z k C ",
"w d a f z Z ..3.F.R.^.{. X2XwXsXaXNXMXMXHXGXBXAXHXSXAXAX6.y  .z.k.k.a.' ' p l P L H H H G F S G K F K L X.L _.^.d [ b a a h s N ",
"z x C G C.A.R.!.^.{. X;X1X3XtXtXtXsXnXmXmXMXMXMXZXGXAXHX,.p 8.x.z.l.l.l.g.8.b H L H H G G S S S K Z F K L H /.^.x ^ v f f d a N ",
"z c <.Z.^.^._.{.=X;X;X:XwXwXwXtXuXaXnXmXBXHXGXHXZXGXSXAX,.! j.v.&.' h.l.a.9.! G H G G G F S G F K Z G L L H /.^.x { v a f h a x ",
"2.A._.{.).{.|.rX:X:XwXtXpXcXaXNXBXBXGXFXFXFXJXKXKXKXKXCX6.+.OXf.@.@.j.a.( ( A J H G G F G F S F F Z F L ..H ).!.f ^ b f d a a z ",
".X{.}.^.R.<X1XwXpXcXNXZXAXSXGXGXKXKXKXLXLXPXLXLXLXUXKXyXq.9.+Xh.@.+.g.' _ / o.G H H H F S S S S F Z G L X.H /.!.x ^ v a d e a z ",
"R.V.C x x wXgXCXZXAXAXAXGXGXGXKXFXFXJXPXPXJXJXJXJXUXFX$Xk.u.@Xc.h.h.z.a.&.@. .D F F F F F F G F G F F G G D ^.I.k ~ v e a e a z ",
"9 8 5 9 x aXCXgXnXZXnXnXZXZXmXZXZXMXMXHXAXAXAXAXZXDXAX&Xg.` j.@Xh.h.a.a.p.q.| G H F G F F G F G S C S S F C R.H.k ! v i a a a l ",
"w e k z k <XuXuX0X0XuXhXgXfXgXkXgXgXgXZXnXnXnXnXkXgXnXkXw.) 8.g.p.' ] ] a.q.{ J H H G F F F F C S C S G G G ^.I.a ! g a d j a z ",
"4 6 r d 0 -XsXtXuXqXuXuXuXuXiXgXuXgXkXkXkXfXkXgXfXZXiXkXuXv 2 +.@.@.@._ _ [ x I C S S S D F S S F S F K L G !.H.z h ! g i e d d ",
"r 5 4 9 q `.tXuXqXuXwXuXuXuXuXuXuXgXgXgXgXiXgXiXuX0XiXkXuXv ; p g.&.&.@.( ; s K H G S S F G S C F F F F H F !.K.k l g p a a a d ",
"Z.V r k k |.qXiXuXuX0XuXuXtXuXuXiXgXgXkXkXgXgXgXfXhXhXhXiX{ = - ) @._ _ 2 = A } F G G S S C S F F S F G F F !.K.d l j p a t d z ",
"L V z S S ;XfXfXfXuXuXuXuXuXtXtXuXuXuXuXuXuXfXiXiXhX0XfXqX6.= $ = 2 ; ; # & M Z G S C B C S C C C C F G H F R.G.a k a i p q e h ",
"L F V L F ;XuXfXfXfX0X0X0XqXqXqXtXuXuXuXuXuXuXiXyXuXuXfX#X8.) ; $ + & + = - ..P S D S S S C V S C C S G G F R.D.f z g y u p i z ",
"G V I L ,. XuXfXkX0X0X0X0X0XiX0XgXgXkXCXkXfXgXiXkXsXsX8X#Xw.q.` 2 = = = 2 ! ).V.C C C B V Z S S S V F F D Z R.Z.e k g u R E a z ",
"G L F.[./.rXuX0X0X0X0XiXiX0XuXuXiXgXgXgXgXuXuX0XqXuX2X-XpX#Xj.i.@./ W ` ( ` >X}.5...S B S F B z S C C F Z C I.G.t i u Y T T E s ",
"H 1.[..X{.rXtX9X9X:X:X8X8XqX8X8XtXuXuXtX8X>X:X9X9X>X.XXXxXqXj.k.i.&.a.a.>.8.=X2X-X.X!.Z.L C B S C V S Z C C I.D.0 u 3 3 T T $.E ",
"B B Z L C R.=X}.=X=X=X9X9X=X=X=X=X;X=X;X;X>X:X:X2XXX[.XXeXsX,XOX&.s.d.u.g.#X-X2X}.wXtX:X;XE.L C C N B S V C H.G.y 2 2 2 Y T T R ",
"z c S G x I.}.4X|.|.`.=X X=X|.|.`.`.`.;X1X:X2X:X2X-XXX<XeXwX,X>XOXz.s.h.#X8X2X3XeXwXtXpXpXwX/.Z V C V V C c H.S.q y y 3 Y T T E ",
"J.J.D.2.C G.).`.)._.`.|.|.|.|.`.`.`. X1XpXwX2X3X>X:X1XtXpXwXwXwX:X,X+X$XqXeXwXpXcXtXtXlXaXvXaXZ.N C V V V c K.S.i i y u Y 3 3 i ",
"Y.I.J.,.C A.{.).).).'.'.|.|.`.'.`.`.;XpXpXpX1X1X:XtXtXpXtXdXdXpXxXdXyX3XuXpXeXaXpXcXsXVXsXlXvX;X..x C V J c K.S.r w e 0 q q i h ",
"I.I.J.4.D H./.W.(.^.(.`.`.`.`._._..XeXpXpXaX1X1XeXtXtX3XtXdX3X3XaXeXaXaXaXvXdXsXaXvXsXsXVXsXaXsXR.N N Z V B H.S.t 0 r i i a i f ",
"J.4.H k 0 2./.{.^.^./.`.|.{.{.{._.;XaXtXpXdXtXwXpXeXpXpXaXwXpXpX8XtXsXvXsXvXVXpXtXtXsXsXsXlXaXaX-XD x V B B H.J.0 9 w y y 9 5 9 ",
",...H n v Z.^._.(.!.^._.`.)._._.`.eXaXpXpXtXtXtXpXtXpXaXtX,X,X,X$X&X,XdXdXlXsXaXtXaXvXvXsXdXsXaXpX5.z B B B K.S.* + o . O O o @ ",
"k l n v g 6.E.^.~.^.^.'.'.~.^.).{.aXaXtXtX3XtXtXdXpXpX3X,X$X+Xx.k.z.@X#XyXsXaXvXsXVXpXvXvX1XeXaXvXR.x N V M J.*..   .         . ",
",.,.6.[ ~ 6.(.E.~.^.^.|.;X~.^.E.;XvXsXaXrXwXwXpXaXpX,X$X@X@Xx.h.h.h.k.*X,XcXvXsXlXyXsXaXaX:XwXaXvX#Xn N V a A.G                 ",
"rX8X>X'.6.Q.(.(.^.).!.)._.U.U./.uXsXdXdXdXtX;XwX&X$X@Xx.x.k.k.d.p.g.j.*X3XcXaXaXsXvXvXpXuX>XyXsXbXwX,.k z x Z.x                 ",
"|. X>X>X6.Y.~.E.E.^.R.E.U.(.Y./.rXxXxXxXxX1X%X#X@Xx.p.k.k.j.j.w.q.j.*X>X3XpXpXyXpXpXpXdXqX:XyXaXbXrX4.f M k ,.q                 ",
"J.5.J.5.D } D.I.Y.I.I.!.E.U.Q.].).W.L.[.-X,X@Xx.k.a.q.j.w.T.U.U.T.T.4X3XeXtXtXyXaXtXqXwX.XXXaXeX X].O.f N s ,.7                 ",
"C B 2.V.H H S.A.5.D.G.I.!.5.w.v.c.l.j.j.T.OXx.x.a.9.0.U.(.Q.[.}.}.-X;X2X1X1X3X1X:X:XtXtX/.H.(.U.T.j.g.m h a <.>   .       .     ",
"D.D.!.K.F S 1.C.1.2.2.V.P.4.j.c.y.d.d.s.l.z.l.i.a.8.U.).).(.}.4X-X<X<X<X2XtXtXwX2X1X:X-X<.~ 0.u.k.l.f.7.j d o.%           O O . ",
"{.|.;X^.c B X.X.X...X.1.,.0.v.f.f.j.v.v.z.k.u.>.' 0.Q.W.W.'.4X4X>X1X2X<XtXyXtXpX1X1X1X-Xo.p >.s.l.y.y.8.v d ..%         O * * # ",
"!.).|.G.k N ,.L ..G ,.X...w.v.f.v.l.l.l.p.t.a.' +.Q.L.R.W.4X;XXX:X1X2X2XtXyX3XpXyXqX8X<X2.v ` u.i.y.f.p.[ e I #         X o * o ",
"..3.2.F z k H L K ..} L L j.z.x.l.v.f.s.a.9.@.+.<.6.D.U.).-X-X-X3X3XtXtXtXtXtXyXtXuXtX3X<.z ~ ' u.u.f.y.` i { +                 ",
"k q 0 e q d ..D F F A B.,.w.z.x.l.f.u.d.a.@.+.6.6.6.A.(.4X-X1X3XtXtXpXpXaXyXaXsXtXqXtXtX4.z n ] ' i.f.s.8.Q A o             X X ",
"} c l j q x F K P P G X.,.j.z.f.h.p.>.t.' ` O.Z.).R.U.%X>X:X1XtXpXsXsXsXsXsXsXsXdXaXyXtX6.M z _ %.t.t.s.@.y s @ . . X X . . X X ",
"D.5.,.D F L G G F S Z K H w.v.d.u.9.' ] / [ C Z.4X).).|.:X:X3XsXdXsXsXlXsXsXsXsXaXyXyXtXY.M z +.a.s.y.y.( 0 d o . X .           ",
"S.4.,.c , < d N M B N N c 8.p.%.` / / b n V N H.2X4X`.=X:X:XtXsXcXvXVXsXsXsXsXsXcXyXuXyXU.d N +.>.t.t.f.( q r o . O . .         ",
"S z x j < 8 e k f z M M z ~ ` +.) ) v z V N S [.tX:X:X1X:X3XpXsXvXsXvXlXsXvXsXsXcXyXyXyX(.z n 9.y.y.u.u.! 9 w @ O o @ # % 7 x D ",
"q r 8 < < < k z x z M V B l b { A f h M V B L wXtXtXtXtXdXsXvXvXsXVXnXvXsXsXsXsXsXyXuX3X(.z n a.y.t.u.9.{ 9 D L 2.P.H.^.`.|. X|.",
"8 0 q 4 > < c k M z N N Z N x M U V N z M B ..pXpXtXtXsXvXvXvXaXvXvXvXVXlXsXsXsXaXyXaXpX`.S | p.u.p.h./ l 5 7.}./.^.~.~.(._.(.I.",
"D f q 5 5 8 z c N N N C C N N N N a x N M z ,.pXgXsXsXsXsXVXsXsXnXCXVXsXsXsXsXsXiX,XlXwX{.| j.u.t.k.@.u 2 7 m I.2.} ,.G.F.3.V.F.",
"..D D S c l A H C B C Z C C C C x z x N B N c Z.;XnXnXZXtXnXVXvXnXsXsXVXsXaXaXvXcXVX3XtXE. .g.f.y.j.#X^.[.C.B.A.Z.X.!./.7.} L H ",
"o.} H ,.} } 6.S...Z B C S Z C N z x d x z V z o.Z.D.`.;XZXvXZXmXZXCXvXvXnXZXZXVXaX-XU.n ^ g.z.d.j.b.7XM.m.N.qXe.r.e.7XrXB.c 8 7 ",
"..G B D C D } ........o.} D Z C B N d z e z X.{.}.D.o.D A.C Z.2.| o.G.E.R.I.5.{ q , p 3 9.+Xc.l.s.#.n.;.=.=.;.:.=.=.;.M.r.m C 6 ",
"V.2.1.1.H A | } H ,.5.5.5...H H S c N N x k Z.2X X}.}.^.A.v 8 = + + + # + # & $ ; ) 9.+Xx.z.x.v.9.0.b.:.:.:.m.m.m.M.zXM.e.5.H.5.",
"D.J.D.F...D H ......} <.2.5.o.} S n Z C C D W.4X}.<X[.{.^.^.{.!.F.1.G k 9 k | 6.w.j.k.z.x.v.x.v.hXjX0XM.-.-.M.kXzXzX]. X2X2X!..X",
"J.R.R.I.,.D } ....o.} } } ..<.<.<.} D C C 2.-X-X}.}.}.).{._.~.!._.{.{.{./.(.T.Q.j.p.z.h.x.z.x.*X`.1X0XsXM.N.N.7XjX7.2 4 6 e q q ",
"J.I.I.I.<.| } o.<.<.<.<.o.o.<.o.<.<.o.1.H J.<X`.}.}.4X`.).)._.`.^.^.).^.I.6.O.0.@.p.k.h.c.h.x.w.J 5.Y.).|.jXkXfX0X9X_.I.4.F z r "
};
