/* XPM */
static char *waka48_jpg[] = {
/* columns rows colors chars-per-pixel */
"64 64 254 2 ",
"   c #020202",
".  c #05090C",
"X  c #0B0B0B",
"o  c #060506",
"O  c #151414",
"+  c #0C0F11",
"@  c #201C1C",
"#  c #26241D",
"$  c #292623",
"%  c #362E29",
"&  c #39342C",
"*  c #3A3835",
"=  c #2E352C",
"-  c #433E3A",
";  c #453B34",
":  c #4C3627",
">  c #4A301F",
",  c #49443C",
"<  c #52473B",
"1  c #69483C",
"2  c #76493D",
"3  c #4B4642",
"4  c #4D4A45",
"5  c #4B4946",
"6  c #544C46",
"7  c #55524B",
"8  c #5B554C",
"9  c #5A584B",
"0  c #5A5551",
"q  c #5D5B53",
"w  c #595955",
"e  c #694B42",
"r  c #754A46",
"t  c #63554C",
"y  c #675549",
"u  c #75574B",
"i  c #635D54",
"p  c #6B5C54",
"a  c #635E59",
"s  c #6A5E5A",
"d  c #6C5453",
"f  c #7B5D54",
"g  c #755B54",
"h  c #5A6255",
"j  c #636156",
"k  c #696257",
"l  c #65635B",
"z  c #6A645B",
"x  c #6D695E",
"c  c #6F6956",
"v  c #74655A",
"b  c #78675A",
"n  c #6F604F",
"m  c #6A6661",
"M  c #6D6A63",
"N  c #676664",
"B  c #726D65",
"V  c #736F69",
"C  c #7A6E65",
"Z  c #767166",
"A  c #7A7266",
"S  c #75726B",
"D  c #7A756D",
"F  c #7C786E",
"G  c #7C7671",
"H  c #7E7973",
"J  c #797776",
"K  c #5A5F64",
"L  c #89393A",
"P  c #943534",
"I  c #B73039",
"U  c #C2323B",
"Y  c #B93C40",
"T  c #884946",
"R  c #875D52",
"E  c #89644E",
"W  c #86665A",
"Q  c #976A59",
"!  c #9B725B",
"~  c #9C6A4F",
"^  c #A26D52",
"/  c #A77558",
"(  c #B67C5B",
")  c #A5694F",
"_  c #8D6A64",
"`  c #8A6763",
"'  c #81796E",
"]  c #88796A",
"[  c #987866",
"{  c #827C74",
"}  c #847E78",
"|  c #877B73",
" . c #9A6B63",
".. c #A57D67",
"X. c #B87B62",
"o. c #B04346",
"O. c #C17D5D",
"+. c #BDCB0E",
"@. c #BEC623",
"#. c #C6D705",
"$. c #CAD410",
"%. c #CAD429",
"&. c #D3D234",
"*. c #BD845D",
"=. c #858176",
"-. c #898275",
";. c #85827A",
":. c #8B847A",
">. c #8E8A7B",
",. c #90867B",
"<. c #92897D",
"1. c #968777",
"2. c #968D71",
"3. c #A9846B",
"4. c #B88668",
"5. c #AC8976",
"6. c #B48A74",
"7. c #A7947E",
"8. c #BC947A",
"9. c #ACA454",
"0. c #C6875D",
"q. c #CD8F5A",
"w. c #C48562",
"e. c #CC8C64",
"r. c #C2856A",
"t. c #C38D6C",
"y. c #CC8D6A",
"u. c #C78864",
"i. c #D38D65",
"p. c #D68F6C",
"a. c #CB9264",
"s. c #CD926B",
"d. c #C6926B",
"f. c #D49366",
"g. c #D3936B",
"h. c #DA966B",
"j. c #C88D74",
"k. c #CC9573",
"l. c #C89478",
"z. c #D39473",
"x. c #D89977",
"c. c #D28D75",
"v. c #E39C73",
"b. c #E0976E",
"n. c #D1A57B",
"m. c #E5A277",
"M. c #BBC66A",
"N. c #C9CD50",
"B. c #D1CC65",
"V. c #E3D956",
"C. c #7D7C81",
"Z. c #8C7F80",
"A. c #8E8982",
"S. c #938D83",
"D. c #948F88",
"F. c #988E84",
"G. c #969185",
"H. c #9A9386",
"J. c #95928A",
"K. c #9C958A",
"L. c #9E998D",
"P. c #9B9885",
"I. c #9D9992",
"U. c #978E91",
"Y. c #A2978A",
"T. c #A39B8D",
"R. c #A89A8A",
"E. c #B79987",
"W. c #A39D93",
"Q. c #AA9E93",
"!. c #A49C96",
"~. c #A08780",
"^. c #ACA58A",
"/. c #A5A195",
"(. c #ABA294",
"). c #A6A299",
"_. c #ACA59A",
"`. c #ADAA9B",
"'. c #B2A596",
"]. c #B2A699",
"[. c #B4AA9C",
"{. c #BAAC9E",
"}. c #BAA799",
"|. c #BBB793",
" X c #ADA8A3",
".X c #B4ACA2",
"XX c #BAAEA2",
"oX c #B2ABA4",
"OX c #BCB2A4",
"+X c #BCB5AA",
"@X c #BFB9AD",
"#X c #B7B3A6",
"$X c #BCB9B2",
"%X c #ABB0B3",
"&X c #C69C87",
"*X c #D69E86",
"=X c #CAA186",
"-X c #C7A797",
";X c #CFB390",
":X c #C5AEA2",
">X c #C2B3A5",
",X c #C3B5AA",
"<X c #C4BAAC",
"1X c #CABBAD",
"2X c #C8B8A6",
"3X c #D2BBA6",
"4X c #C5BCB2",
"5X c #CBBEB2",
"6X c #CEBCBA",
"7X c #D4BBB4",
"8X c #E19F87",
"9X c #D1D194",
"0X c #E6D797",
"qX c #CCC2AC",
"wX c #CFC7AA",
"eX c #D2C4AB",
"rX c #D8C9AB",
"tX c #CDC2B4",
"yX c #CCC4BA",
"uX c #CBC7B8",
"iX c #D3C4B4",
"pX c #D5C9B5",
"aX c #DBCCB4",
"sX c #D4C5BA",
"dX c #D8C6BA",
"fX c #D4C9BB",
"gX c #DACBBB",
"hX c #D9C5B5",
"jX c #DDD2BB",
"kX c #DAD1B6",
"lX c #E1CEBA",
"zX c #E2D4BC",
"xX c #E3CFAA",
"cX c #CDCBC5",
"vX c #D4CCC2",
"bX c #DCCCC2",
"nX c #D8CBC8",
"mX c #DCD2C5",
"MX c #DAD5CB",
"NX c #D4D4D0",
"BX c #E3DACB",
"VX c #E6D8C7",
"CX c #E3DDD2",
"ZX c #E6DED5",
"AX c #EAD5C8",
"SX c #E5E0D5",
"DX c #E6E3DA",
"FX c #E9E4DA",
"GX c #E9E1D5",
"HX c #E9E0CF",
"JX c #EAEAE6",
"KX c #ECEBEA",
"LX c #E8E7E3",
"PX c #EFEEED",
/* pixels */
"D G D G } :.A.S.J.!.].OX7XeX1X1X_.T.S.' -.>.P.P.L.G.Y.F.| b B G ;.G G G H } H { } G } } G G G G G G { { | /.<XA v ` j z z m l x ",
";.D B B C V S G F :.S.Q.,XtX5X5X/.H.| :.S.F.K.L.W.`.oX].'.(.W.S.:.H G G } } H { } H H ;.G J G D G F { { ' /.@XA c ` j z z l l l ",
"T.T.W.K.G.S.<.| ' D D } } S A | :.;.{ ;.A.L.(.`.[.[.].R.R.^.Y.S.A.H H H } ;.H } } H ;.} H { H D G G { { { /.+XA v _ l z l a h l ",
"!./.oXOX.XOX5XyX4X!.V w 7 4 6 8 j z m m m H :.S.K.K.Y.Q.Y.Y.H.F.;.H G H } H H } } H } H G H G D G G H { F /.+XA v _ l z l l j l ",
"[..X<X<X4XfXsXXXG a 3 7 w 0 w s a a l V M V D ;.-.>.S.Y.T./.K.{ } H H } } H H ;.H H ;.G D F F D G G H { F W.+XF b _ k z l h l M ",
".X.X+X4XtX.X} 8 3 4 7 i a l M m m M H A.;.} A.S.K.W.Q.).(.[._.:.A.A.H } } J H ;.{ } } G D F D F G D F { F T.OXF b _ z z l a l v ",
"+X+X@XoX} 7 - 5 w i i C ] D | { } A.D.D.D.J.)./._. X#X<X1X2X4X_.D.D.} ;.} H } } } H H F F F D D D D D =.D /.#XF b Q l z l j h x ",
"4X_.H 4 * 5 7 w q m C ] 1.'.uXvX!.D.D.I.). X+X+XqXtX5XtXqXeXiXXXU.D.} } H { } } } H G F F F C D D D D | A T.OXA b ` z z l j q z ",
"A.N = 3 6 8 s x ] ,.Y.,XmXGXGXyX!.J._..X$XtXtXtXpXaXgXvXfXjXkX#XK.I.H H ;.G H H { H H G G G D G D D G } { L.+XA b _ l z l j q l ",
"& - - 7 0 i D <.}.fXCXGXMX,X(.T.). X$XyXyXcXmXmXmXMXCXZXFXDXDXuX_._.} } H J J H H H { G D G D G D D J { F L.+XZ f _ l l z j q z ",
"; 3 4 4 4 G @XMXZXZXyX_.L.L.W._.#XyXyXMXMXCXLXLXJXKXPXKXKXKXKXcX#X XH H H H H H { { { J D D D D A S H } ' T.+XC b ` a z l a l z ",
"3 - * , 5 H 4XfXOXG.,.F.K./.[.+XfXvXNXFXKXLXJXKXPXPXKXKXKXKXKXcX X).;.G H H } H } { { H J D D J A S H { { L.OXB R ` j l m l j x ",
"5 - 5 5 5 w D Z ' { F.W./.[.$XyXyXMXPXJXPXJXKXKXKXKXKXKXKXJXLXuX XI.;.G ;.G } } } J { G D G D D F F F H D T.<XD f ` j z l a j l ",
"6 6 5 5 0 0 a D } D.G.W.#X.XG.{ C z -.W.NXKXJXSXLXDXDXDXDXDXSXuX).).H H H H H } { H G J D G V J F S D H D W.@XD f W h i a a i z ",
"a a w w a B F A.K.).oX<X].B 6 ; % : , ; x _.CXDXSXCXCXCXSXSXDXuX)._.H G H H J } J G G D V S S S Z S G H ' T.+XB f ` j k a a i z ",
"m s C Z.:.G././.oX.X,X4XS.< ; ; ; & % & & , L.SXCXCXDXDXDXSXSXuXI.I.;.G H H H H H G G S S S S G D S G H D T.+XC g ` j a l a i z ",
"a G S.I.Q.(.XXXX#X@X6XyXC ; * 1 1 < - ; % % q cXDXSXSXCXCXMXCXwX!.!.J H G G G { G G D J S S S S D D F F G I.+XB f b s s s h q x ",
",.!. X`.oX}.,X4XwXiXiXwXv e y ..4.[ W r : ; 6 uXDXDXDXDXFXFXDXuX).!.D G G D G ' H G G S S S S S Z S S D D W.+XC f b i s i q q z ",
"].OXoX X<XtX5XtXpXjXjXuXv e f l.b.z.t.X.~ ..W fXJXJXJXJXJXJXJXNX_.).G D J D D D D D S S S V S S S D F F G L.#XC R b i i i q q k ",
"_.F.G D <XiXgXMXCXMXFXjXb p W j.h.g.p.u.4.6...kXJXJXFXJXJXJXJXNX).).D J D D G G S D S J S S S S D D F F D K..Xx u v i j a i i z ",
"9 6 6 k fXBXBXBXMXHXHX3X.._ [ l.k.z.x.O.w.r.8.jXGXGXSXSXDXDXDXfX/./.D G J D D D S S G J S S S S S S D D Z G.[.z W f i i i i s l ",
"9 7 j i fXgXjXaXpXVXaX*Xr...4.z.j./ ) r.X.~ ..jXBXVXVXmXBXBXBXuXI./.D D D J G D S D D D S S V V V V S D S S.oXx b b p i q 0 i i ",
"0 q N 0 ,XaXjXgXrXzXrX8Xc.4.t.x.X...~ X.^ ~ 5.iXzXjXjXjXjXjXzX1XI.W.S S D V S D V V V V V V V V S V D D D G..Xx p g g i 9 q i M ",
"5 4 7 8 >XaXpXpXpXaXkX;Xc...l.z.O.^ ( j.4.~ 6.lXzXzXzXzXzXzXzXqXL.K.Z S S D S S J S D D S S S V V S J D A H.[.x q g f p q q a l ",
"q 7 w i OXpXpXrXrXpXwXrX*X .3.x.*XO.p.c.0.( l.aXjXzXzXgXzXzXgXeXK.T.S V S S J F S S S S S S S S S G S F Z J.`.x h p f g q w t c ",
"x l M z +XaXjXjXkXgXkXrXrXE E t.c.e.j.c.4.*.6.zXkXaXaXrXkXkXjXqXK./.S S S S F D S S J V V S V S V S S D Z P._.z i k p g d i 8 k ",
"S M S Z qXjXkXaXjXgXkXjXwXc r X.x.z.z.x.0.~ 5.rXaXaXaXaXrXaXaXeXL./.D S S V S S S V S V V V V S S S D F S K.(.z i h i r t q w h ",
"l Z =.F OXkXjXmXkXzXrXrXpXb > ! g.z.l.c.4.E Y.kXaXaXkXrXaXaXkXeXT./.S S S V D S V V V B M V V V V V S F Z P./.k d q y r 8 9 a m ",
"S ;.J.J.tXjXaXkXjXrXlXlXgX] : y y.l.j.z.t.u 1.kXlXaXaXaXlXgXzXqXL./.F S S V S S V B V V M B B S M V V S Z G./.k h u T P I T i z ",
":._.$X+XfXjXpXkXwXrXrXiXhXE.: & ~ k.k.k.d.E p {.>X2XeX5XeXiXgXeXI./.F S S V S S V B S V V V B V V V V S B G./.j y 2 2 P I o.u p ",
"F ;.J.;.[.<X1X<X2XwX2XiX}.&XE > 2 4.z.j.t.! u (.^.'.OXXXOXXX1X2XJ.I.S S S S S S V B S V B V M V B B B S B G./.i 1 1 2 L I I T p ",
"j l S j T.OX2XXX,XOXOXwX2Xn.t.E 1 *.s.k.t.! ] _.{.[.[..XOX,X2X[.G.L.V V V M V V B V S V B B M B m M M M x S./.i e 1 2 P I I T u ",
"-.;.;.S W.}.}.[.XX[.+X.XbXgX>XE.Q / z.z.y.! Y..XXXXX}.XXOX,X>XOX/.P.H m D M B B M M Z V M V M M M M M M M G./.j e e 2 L L L r i ",
"R.G.} x H.[.]._.].OX4XoX$XgXgX7X&Xl.x.z.y.3.}.OXOXXXXXXXOX2X<X<X@XI.B M V V V B V M V M M M M M M M M M x G./.h 8 e e 2 e e t w ",
"^.P.<.F K.[.!.[.XXyXcX+XoXtXvXdX1X=Xk.k.d.8.>XOX>XOX,X+X>X2X1X5XtX.XD M V V V B V M S M M M m M x N M M x G.).j 9 8 y y y i i a ",
"<.=.B k S._.[.OX5XfXcXyX+X4XyXsX3X=Xg.z.y.&X,X<X,X,X<X1X<X<X2X1X<X<XG.x V M V B B N Z M N M N M x x N V M S._.h h i d d t 0 q q ",
">.H k i | [.5XfXgXdXiXyX4X4XiXsX3X*Xz.z.e.l.1XtX5X5X5X5X1X5X1X1X4X5X[.{ B S S V M M B M M M m m l N M M x S.).5 = & & % & = * * ",
"h D v v F.,XbXgXlXdXiXiXsX5X7XiX3Xx.h.g.u.l.2XuXiX5X5X7XtXtX5X1X1X1X5X).V B S V M M B M N m m M N M B z x G.I.#           . + O ",
"N b b u 1.dXbXhXsXgXiXdXdXiXsXtX3Xx.p.g.a.j.:XtXiX5X5XtXiXtX5X1X,X1XsXXX' B M V M M M M M M l M x N m l l S.J.o             o   ",
"/.'.R.[ R.bXbXbXgXbXiXsXsXsXsXsX3Xx.g.s.d.r.-X7X5X5XtXpXpXiX5X5X1XyX1X/.:.B Z M M M M m z m N m x l N l l =.A.o           o     ",
"wXwX:X1.R.bXbXbXpXgXnXgXiXrXiX7X;Xx.x.g.u.8.=X<X4X7XiXiXuX5X5X5X,X[.7.t.u.[ B V B M z B l M l z z l l l z :.J o                 ",
"`.`.'.-.,.fXbXbXlXhXgXbXvXyX5X1Xn.x.g.g.e.d.-X<X5X5XiXiXiX5X1X5X,XY.6.d.g.4.] M M B z M M l x z z l l z k { M                   ",
"B { >.D V +XnXdXbXhXlXbXvX,XE.8.k.z.g.f.e.t.=X<X5X5XiXiXiX5X5X5XtX6.u.s.s.a.4.C N S m z M z x l z k l l k D q           o o     ",
"S G.J.D D I.vXbXNXnXMX7X:X*Xk.y.g.g.a.e.e.r.E.qX4X5X5XiXdXiXtX5XuX=XO.f.q.f.z...B M N l M z l x j q j l k H 6           o o     ",
"'.OX/.k x =..XAXnXnXyX:X*Xx.f.h.p.g.q.a.e.r.E.2X1X5XtXsXsXiXiXtX1X2X6.0.q.f.h.t.] v M x l x z l j j j j s | 4         X O @ O + ",
"`.[./.z M =.A.6XlXdX:X;Xx.b.f.k.f.i.e.e.e.r.E.2X5X5XtXsXfXfXiXiXsX4XE./ 0.f.e.f.3.W x N z z j l j j a a s | -         X $ $ $ $ ",
"^.K.>.a j } {  XvXpX=Xn.h.h.g.g.a.i.e.0.r.6.E.2X5X7XtXyXsXuXiXiXfXiX2X6.X.0.w.f.t.[ b N l z k j j i i a p ' %         o + O + O ",
"M M m a j D D { %X<Xl.v.h.x.g.i.a.f.i.0.*.X.&X,X4X5X5X7XsXiXiXfXeXaXrX-XX.O.u.u.i.4.c l N z k j i i i s d ' $               o . ",
"9 i 9 9 i D S S C.T.6.d.f.f.f.s.a.e.e.w.( 6.E.XX1X7XdXiXiXpXpXpXpXdXsX1XE.( e.u.e.e.[ j N j h l a a h g 2 W #     o   o + + X O ",
":.Z z k D G S S J ' -.3.*.4.e.e.i.i.i.0.4.8.}..X:X7XiXiXpXpXpXpXeX7XdXbX3XX.y.a.g.a.3.c K k j k i q p T 9 x $ X o + . . . .   o ",
"<.-.Z k a V M M z M M S E.8.( ( 0.p.e.w.4.E.}.[.:X1XiXiXpXpXiXfXjXsXdXbXrXd.y.e.a.u.4.c i l c k i q r T 9 h O + . . . .   .   o ",
"F F k , & q a l j l M N D.,X;X3.( 4.( X.6.-X:XOXXX,XeXiXpXfXiXdXfXdXbXgXpX;X4.w.e.0.4.` a m S M t i t r 9 7 O . o o o o X @ $ % ",
"q 7 6 , 4 j m j m N m N N K.2X}.E.5...5.E.-XOXOX,X1X1XiXhXpXgXgXtXpXgXgXjXiX3.X.e.i.u.[ l K J V h p 8 f 8 s 5 , 6 k Z >.H.Q.[.(.",
"j 6 , , 4 q l l N V a M M s H +X6X,X}.>XOX,X2X5X5X1X1X5XdXgXgXgXkXjXlXdXtXH.b E ( q.0.5.x K ;.J w w z _ < A /.(./.`.[.{.>XOX[./.",
"9 4 , 6 , z N x s N M V M N B I.+X6X4X5X<X1X<XiX7XiX7XiXpXgXgXgXgXkXtXOXY.x < u ^ *.0.4.B ;./.2.M 9 < r , F `.^.P.P.(.Y.Y.K.<.P.",
"A k q 9 9 l M M B N V M m M m { ,XyXfXfXgXbXdXdXpXgXpXpXdXgXgXaXdX{.-.v ] <.A 1.! 0.i.t.' `.qX;XK.W.] ` x Z G.=.Z =.W.:.| :.D.$X",
"-.F | ' A -.,.' B v C M M M M M .XvX5X6XmXvXbXbXgXgXgXgXsX,X_.K.S V i i k ,.Y.R.7.*.q.p.5.`.2XOXwXSXxX9X|.2X^.Y.7.2XtXI.' c k S ",
"F A D A C | -.' D D D S S V M m S.vXBXvXvXbXmXvXVXfX5X(.D t , % % ; p } Y.T.(.Q./.3.e.p.8.;X9Xn.7XB.$.&.$.B.N.&.%.N.M.9.z q 3 % ",
"' A ' C C ' | { | :.:.{ F Z B B D `.+X$X,XyX5X<X).B < % # % & % < x H.[.{.(.'.'.(.[ y.x.n.B.M.9.9.9.$.$.#.#.$.#.+.+.%.9.2.Z.a 6 ",
"<.>.:.' D D ' { G :.,.S.:.{ D C M | } | | :.| | ' 8 6 z V { S.S.T.(.XX[.[.'.}.^.E.1.r.h.a.;X|.9X:X9X&.#.#.$.N.#.+.@.V.2.e | 2XwX",
"R.T.K.| D ' | { | | { ' | -.-.| C I.,X+X+XXX[.'.Q._..X.XoX[.XXXX#X'.(.'.(.'.'.'.'.7.r.h.g.*X2XgXgXaXxXV.%.&.0X0XM.|.+X X<.=.>.J ",
"P.^.T.-.D | | | ' ' ' | =.=.=.| | Q.4XOX,X,X,XOX].[.}.[.{.{.[.'.(.R.(.{.[.{.'.{.}.~.k.m.v.*XF.Z.7.`.2XwXxX0XHXAXyXMX). X+XoXb q ",
"Y.Y.T.<.' ' -.-.,.:.:.| ' ' =.,.:.Q.+XXXOXOX>XOX>XXXXXXXXX[.'.[.^.Q.(.'.{.OX{.'.}.6.*Xm.m.x.5.j N | 2.D.T.^.<XwXmXmXfXrXiXuX4X2X",
"Y.Y.(.H.-.-.,.<.1.:.1.F.<.:.| -.:..X5XOX.XXXOXOX{.XXXX[.'.[.'.(.].}.OX{.{.'.[.'.`.8.x.x.v.v.8Xn 6 p D ^.-.=.=.P.-.-.^.{.XX[.G.H "
};
