/* XPM */
static char *waka0_jpg[] = {
/* columns rows colors chars-per-pixel */
"64 64 253 2 ",
"   c #020202",
".  c #070809",
"X  c #160C0D",
"o  c #191515",
"O  c #13100F",
"+  c #231C19",
"@  c #34251C",
"#  c #29211F",
"$  c #2B2523",
"%  c #352A24",
"&  c #3C322B",
"*  c #3C3935",
"=  c #201A21",
"-  c #452D25",
";  c #45342A",
":  c #54392A",
">  c #433B36",
",  c #553D31",
"<  c #45423E",
"1  c #4B443E",
"2  c #48483E",
"3  c #584637",
"4  c #64493A",
"5  c #75493A",
"6  c #413F40",
"7  c #454343",
"8  c #4A4542",
"9  c #4D4944",
"0  c #4E4B4B",
"q  c #514B46",
"w  c #534E49",
"e  c #5A4A43",
"r  c #55524C",
"t  c #5B554D",
"y  c #5A5B4D",
"u  c #5B5552",
"i  c #5D5B54",
"p  c #595A55",
"a  c #504F4C",
"s  c #6B4C46",
"d  c #764943",
"f  c #6C544C",
"g  c #65564B",
"h  c #765749",
"j  c #635C54",
"k  c #695E54",
"l  c #635D5A",
"z  c #6B5A56",
"x  c #735752",
"c  c #5C6254",
"v  c #646155",
"b  c #6A6156",
"n  c #65625B",
"m  c #6B645C",
"M  c #6C685E",
"N  c #72655C",
"B  c #776759",
"V  c #6F6A56",
"C  c #6A5E61",
"Z  c #656562",
"A  c #6B6561",
"S  c #6C6A63",
"D  c #6C6A67",
"F  c #736D64",
"G  c #796B63",
"H  c #726D69",
"J  c #747066",
"K  c #7A7364",
"L  c #75726A",
"P  c #7B756C",
"I  c #7D796E",
"U  c #75796A",
"Y  c #7C7671",
"T  c #7D7973",
"R  c #7A7A76",
"E  c #6D706D",
"W  c #5E6261",
"Q  c #983A3C",
"!  c #873937",
"~  c #A93434",
"^  c #B9363E",
"/  c #C82635",
"(  c #85573D",
")  c #87584B",
"_  c #8B4E4C",
"`  c #8A645A",
"'  c #886857",
"]  c #976D55",
"[  c #99745B",
"{  c #8D664D",
"}  c #A97559",
"|  c #B6795B",
" . c #A66B56",
".. c #8C6965",
"X. c #8B6B65",
"o. c #82796E",
"O. c #88776B",
"+. c #977866",
"@. c #837C75",
"#. c #8B7D73",
"$. c #847E79",
"%. c #877C79",
"&. c #93776F",
"*. c #A97B66",
"=. c #B97B67",
"-. c #B4454B",
";. c #7F807A",
":. c #CCD710",
">. c #CFD426",
",. c #AEAB58",
"<. c #858175",
"1. c #8A8276",
"2. c #85817A",
"3. c #8B847B",
"4. c #8E8B7D",
"5. c #85897B",
"6. c #918A7D",
"7. c #948477",
"8. c #978C7A",
"9. c #AC846A",
"0. c #B88669",
"q. c #A98776",
"w. c #B88D73",
"e. c #B9947B",
"r. c #AC937A",
"t. c #B9B96E",
"y. c #BB855F",
"u. c #C7865D",
"i. c #D08D5D",
"p. c #C4AC58",
"a. c #C68B64",
"s. c #C78A68",
"d. c #D48A68",
"f. c #CD926C",
"g. c #CF9067",
"h. c #D4946B",
"j. c #DA9769",
"k. c #C78B73",
"l. c #D48C73",
"z. c #C99477",
"x. c #D49475",
"c. c #DB9C7C",
"v. c #D89776",
"b. c #E49C77",
"n. c #E3956A",
"m. c #DDA278",
"M. c #E6A37A",
"N. c #BEC06D",
"B. c #CCD650",
"V. c #D1D870",
"C. c #EAD571",
"Z. c #E4E678",
"A. c #8D8982",
"S. c #8C8582",
"D. c #948C83",
"F. c #958B87",
"G. c #959285",
"H. c #9B9286",
"J. c #9C948B",
"K. c #9C9A8C",
"L. c #989589",
"P. c #9D9992",
"I. c #918C90",
"U. c #A2968C",
"Y. c #A39A8D",
"T. c #A89987",
"R. c #B59A88",
"E. c #A39C93",
"W. c #AA9E93",
"Q. c #A69B98",
"!. c #B39E93",
"~. c #A58C82",
"^. c #A8A18C",
"/. c #ACA295",
"(. c #ACA49A",
"). c #A8A598",
"_. c #B2A69B",
"`. c #B4AB9C",
"'. c #B5A998",
"]. c #B9B19F",
"[. c #B9B398",
"{. c #B3AA8D",
"}. c #AEAAA2",
"|. c #B4ACA3",
" X c #B9AEA3",
".X c #B4A7A5",
"XX c #BBB2A3",
"oX c #BCB4AB",
"OX c #BAB4A8",
"+X c #BDB9B4",
"@X c #B7ACB2",
"#X c #9FA09B",
"$X c #C89A82",
"%X c #D39C86",
"&X c #E99F84",
"*X c #D9A483",
"=X c #C5B49D",
"-X c #C9A992",
";X c #EBAC8B",
":X c #E7A886",
">X c #F2A98B",
",X c #C2B5A5",
"<X c #C2B6AB",
"1X c #C4BAAC",
"2X c #C9BDAD",
"3X c #C6B9A6",
"4X c #C5BCB2",
"5X c #CBBEB3",
"6X c #C7B7B5",
"7X c #D4BEB1",
"8X c #D7BAA9",
"9X c #D3D095",
"0X c #CBC5AB",
"qX c #D5C4AE",
"wX c #DFC5AE",
"eX c #D9D4AC",
"rX c #CDC1B4",
"tX c #CCC4BA",
"yX c #C8C4B7",
"uX c #D2C4B5",
"iX c #D5CAB3",
"pX c #DACCB5",
"aX c #D3C5BA",
"sX c #D5C9BC",
"dX c #D9CBBD",
"fX c #D9C5BB",
"gX c #DDD2BC",
"hX c #D6D1B3",
"jX c #E1D5BD",
"kX c #E1D7BD",
"lX c #E2D4B2",
"zX c #E3E5A3",
"xX c #E5DE96",
"cX c #D5CCC1",
"vX c #DBCDC2",
"bX c #D8CCC7",
"nX c #DED1C4",
"mX c #DBD3C9",
"MX c #D8D6C8",
"NX c #C8C6C2",
"BX c #E1CEC3",
"VX c #E1D3C5",
"CX c #E3D9C2",
"ZX c #E2D4C9",
"AX c #E3DBCC",
"SX c #EADBC9",
"DX c #E3DDD2",
"FX c #E5DFD7",
"GX c #E6E2D7",
"HX c #E9E4D9",
"JX c #EAE9E4",
"KX c #EAE9E6",
"LX c #F4EDE7",
/* pixels */
"}.OX+X|.P.@.L T #.#.D.J.U.J.J.H.6.6.3.@.Y D n P i r 0 8 8 7 6 0 L H H H T @.%.2.$.$.@.@.@.@.@.Y @.@.@.%.3.D.4XD.m ..G S M A m l ",
"oXOX}.L.3.2.D.G.Q..XoX2X2X2X2XqX<X/.U.H.F.1.K K H G n r 9 2 8 r T Y P T @.@.%.@.2.%.$.$.@.@.%.Y @.T @.@.%.A.tXD.m ..G M A m M l ",
"P.A.R R $.A.F.F.L.E./.].2XuXqX8XXX^.H.4.@.1.G.K.D.L.H.G.4.o.K N 3.@.T T $.2.@.$.$.2.2.%.@.@.%.@.@.@.@.@.%.D.tXD.m ..G n m m m l ",
"@.P L L J F J L P 1.3.H.'.2X7XuX<XY.4.@.@.4.L.F./.'.'.`.].`./.T.D.2.@.@.@.2.R 2.2.$.$.$.@.@.@.T T R %.@.@.A.5XD.b ..G m A M A l ",
"L.L.K.L.A.S.3.%.@.L F T 3.%.T %.1.3.3.%.%.A.E..X'.`.'./.W.T.Y.U.F.3.@.$.2.2.R <.$.$.$.$.@.@.%.Y @.Y @.@.%.S.5XD.m ..G M z n m l ",
"P.E.(.|.|.oX4X<X5X<XK.H r w 0 0 i A A Z A H @.S.F.U.U././.W.W.D.D.1.$.@.R 2.2.2.2.$.$.$.%.@.@.@.@.@.@.@.@.3.yXD.m ..G M F A A l ",
"(.`.oX1X<X4XtXtX|.@.9 8 r r p p p n A D L H P T %.S.3.J.Y.W.Q.6.S.1.$.@.@.2.$.R S.@.@.%.@.%.@.T @.T T @.@.3.5XG.m ..G A m Z m l ",
"|.`. XoX5XuX_.#.r 8 0 p n Z A M S S D ;.3.@.A.F.J.E.E./.'.XX<X/.F.D.S.2.@.2.2.@.S.R @.@.@.@.@.Y T Y Y T Y 1.4XL.M ..G m m n z m ",
"`. XoX+X}.R w 7 q w j m G G o.1.2.@.F.D.F.L.P.).).`.<X,X0XtX4XrXE.Q.6.$.T 2.R 2.2.@.@.$.@.T R Y Y Y P T R 3.4XG.A ..L A M k n m ",
"1XoX).P 9 > 8 w j A F o.3.Y.oXaXyXJ.F.P.E.}.|.+XyX5XrXuXiXqXiXpX(.K.D.%.2.$.2.2.2.%.@.@.@.T Y Y P Y Y T @.3.1XJ.N ..G z m m Z k ",
").G.i * * r p l F P S./.tXDXFXDXoXK.P.(.|.4XyXyXtXsXBXVXyXiXSXlX`.).D.$.@.$.2.@.2.@.@.%.@.R Y Y Y R T %.@.3.1XJ.N ..G A n m Z k ",
"& * < 8 0 u m Y H.OXmXHXFXcX XW.E.).oXyXyXMXbXMXCXgX`.o.j t M <.1..XP.$.R $.%.@.$.@.@.2.@.R Y R Y T T %.@.1.<XJ.M ..N A m k Z k ",
"* 8 8 7 0 w @.tXAXGXmXyX/.H.J.Q.OXoXtXMXMXDXGXLXAXG.0 % @ $ + $ > o.J.%.@.@.@.2.2.@.@.$.T T Y R Y Y T @.@.%.1XH.N ..G A m m n m ",
"* * 7 7 < r D.tX1X(.L.S.D.K.(. X4XNXMXFXJXJXJXGXK.2 % ; : 3 ; @ + > %.P @.R @.2.2.$.$.%.@.Y Y Y Y Y Y %.@.1.4XL.m ` N z V n A m ",
"7 8 6 6 9 r i K I @.@.D.E.}.OXoXsXDXKXKXKXKXJX+Xf 3 s ] 0.0.) , - @ k @.@.2.2.2.2.%.@.@.Y Y Y Y P I Y $.@.2.<XJ.k ` N k m m Z m ",
"9 9 0 0 0 r j v P 1.J.Q.}.|.4XmXGXJXKXKXKXKXJX`.+.*.0.v.m.h.} 5 ; & > @.@.2.R 2.2.$.@.T Y Y Y Y L P Y $.@.2.+XK.z ` N m v l l k ",
"u i r i i M H %.F.P.).|.oX5XsXZXMXAXDXGXGXHXHX0Xc.l.v.v.l.k.s.{ s : s Y P o.2.2.$.T Y Y Y Y Y @.P P R @.T @.oXP.z ..b C n k i l ",
"n A M J I 3.L.P./.`.OXoXrXtXuXsXsXnXMXAXAXAXAXrX%X%Xh.| } k.k.=.) ] *.&.1.@.2.$.$.T Y Y Y L Y Y Y Y R @.@.@.OXJ.m ` z C m k l n ",
"b k o.F.E.E.(.OX].3X2X5XuXiXsXpXsXMXmXAXMXGXSXnXq.k.l.=. .=.s.%X{ s.l.*.#.%.$.@.@.Y Y Y Y Y Y T P L I T @.%.oXJ.m ` z A v j j n ",
"K 6.Q.(.(.|.XXoX2X2XrXrXuXsXsXMXMXDXGXGXHXHXHXGX~. .l.k.=.s.x.v.}  .d.w.O.%.R o.T Y Y L Y Y T Y P L P Y @.@.OXL.A ` k C v j i n ",
"(.(.OX X|.1X5XrXtXsXcXmXAXDXDXDXHXJXKXKXKXKXKXKX2X| l.l.l.v.b.l.[ ( a.9.@.%.R o.T Y Y P P P L L I P T T @.@.oXJ.C ] b C j j j j ",
" X(.D.L o.5XdXdXZXDXGXHXHXLXHXJXJXJXKXKXKXKXKXKXgX%Xb.s.x.j.v.0.g 4 9.O.Y Y R %.R T Y Y P Y Y L L L P P T o.OXL.z ` b l j v v i ",
"n i w t J cXAXSXAXSXDXAXSXZXAXDXAXDXDXDXGXGXGXGXZX%Xu. .=.l.k.{ , , &.K R T Y Y Y Y Y P Y Y Y P P L I P P P .X4.j ` k l i j j i ",
"r p r i m sXsXpXpXpXpXgXCXVXCXVXCXMXAXAXAXGXMXAXnX%X=. . .=.=.4 - - s Y Y @.Y Y Y T Y Y P L H H J F L P o.P |.D.m ` k m v j j n ",
"9 u C l n 2XaXpXiXiXpXgXjXjXjXCXgXkXkXCXCXCXCXCXgXR.0.| y.s.' : % @ x 7.Y Y H P F L P P D P L E H P K @.P T .XK.k M _ x k z l c ",
"0 7 8 0 y <XuXqXpXqXpXpXpXpXpXpXCXkXkXMXgXgXnXkXCX^.*.*.} } 4 - & , q.R.W.2.L @.Y Y P P Y J H R L H P Y P P `.L.n N v x c c j j ",
"$.S u i k 2XiXqXpXiXiXwXpXpXpXpXgXkXkXCXkXCXCXCXkX].) ' 4 : @ % @ h e.e.3X X<.L Y Y P F P P L H P H P o.P o.`.G.n n j x z r j l ",
"2.S i S M 2XgXjXgXpXiXiXpXpXwXpXpXhXgXgXgXgXgXgXgX0Xs - @ ; @ & 5 } f.0.w.uX(.$.K P T L D L U L Y L L P P P (.D.l k g f z g l i ",
"2.E E I K 0XpXgXgXpXpXpXpXqXpXpXpXsXhXgXpXpXpXpXcX(.g ; & - : 5 *.=.g.f.w.7X4X+X|.|.OX.XK.P H Y H H P P P P ).D.l n y g f f j p ",
"L S L ;.@.4XjXpXgXgXpXpXpXpXpXpXpXgXnXkXgXnXdXfX4X).Q.S.z h ) } 0.f.x.s.-X7XoXoX4XsXaXvXaXU.F L H L P P L K ).D.j v f _ Q _ b c ",
"P P S.I.L.yXpXpXpXpXpXeXpXqXhXhXnXnXkXnXsXuX5X2X+X#X+XbX<X*.w.0.0.a.f.w.-XaXcX<XuXdXvXBXZX5XL.P L J L P J J Q.D.y f d Q ~ ^ ) x ",
"P 5.}.+X1XsXdXuXqXqXqXqXiXiXqXpXgXgXsXuXrX0X5X7X+X#XNXbXcX8X$Xz.f.g.x.-XaX4XtXsXvXfXdXZXvXZXtXE.L J J L F S ).6.g d s 5 ~ ~ -.) ",
"U Y 2.A.#./.3X=X2X3X2X2X3X2X2X2X2X5XfXfXuX5X5X5X4X6X5XaXfXuX3X,X*X$X-XfXfXaXcXcXsXdXnXnXdXVXdXdX!.D E U N F ).6.4 s 4 5 ~ / ~ _ ",
"v v Z K m H.].].'.].,X1X3X3X1X,X2XuXaXcXcXaXfXaXNXaXaXuXaXfXfXuXwXqXuXvXvXfXBXgXnXnXnXnXdXVXdXvXfX).H H K V K.I.y f s d Q Q ! 5 ",
"1.5.4.4.P Y.XX'.'.`.].=X,XXX].=XuXuXcXaX5XfXaX5XsXaXaXvXsXvXvXvXgXcXnXnXvXBXBXfXdXVXVXvXdXdXdXdXVXgXD.H J K Y.I.r g s s d d 5 x ",
"T.^.L.5.M G.(.`.`.`.].].XX].XX1XdXdXaXcX7XaXaXaXuXaXaXaXdXvXvXsXbXbXmXvXdXcXvXfXdXvXdXvXvXdXaXdXvXSX0X@.S S W.D.y c i s s s r j ",
"H.^.K.4.K K..X'._._.'.].].].3XvXdXsXuXaXcX7XcXvXaXaXdXfXaXvXdXvXvXBXVXBXdXvXnXcXdXvXvXVXdXrXuXdXVXZXiXr.+.J Y.G.j y p g x b v n ",
"^.H.<.M j 6.(.(.(./._.XXXXXX2XvXdXaXaXaXaXuXuXaXaXaXsXdXdXdXvXdXsXdXBXvXBXVXZXvXBXVXvXvXdX1XuXdXVXMX`.%Xh.9.^.4.t a p e 1 2 9 r ",
"4.1.K V b 6.(.'.(._._.`. X<XuXvXdXaXfXrXuXuXaXuXaXsXsXdXdXvXvXaXdXnXnXvXcXvXvXBXBXVXvXdX5X'.3XaXaX2XR.c.b.j.z.7.+ . O X . O o o ",
"J N F N N 1././.(.(./.(._.5XvXvXaXaXuX5X5XdXdXdXcXdXsXdXdXdXdXdXfXvXnXnXmXvXvXVXVXVXvXdX<XU./.<X@XT.h.j.j.j.f.s.;             . ",
"F V K B ` &.!././._./.[.+XNXbXdX7XfX2X1X XrXcXvXsXdXsXsXdXdXvXdXdXaXvXvXnXZXvXZXZXdXvXvXY.@.@.<.[ 0.i.i.j.h.j.g.} # .           ",
"`.`.[.^.7.~.'.(./..X/.-X-XOXcXcXcXaX6X<X/.rXdXdXfXvXvXvXdXdXdXdXsXdXaXvXbXnXvXBXBXdXcX5XP F S S B ] } u.a.g.h.i.a.h X           ",
"0X0X0X3X~.~.(.).{.)./.$Xm.m.[.6XyXNX6X.XU.<XsXaXfXvXvXvXdXvXfXsXfXcXvXvXvXvXvXvXvXvXsX|.M A M n V h { [ | g.g.i.u.| ,         . ",
"^.^.K.^.O.#.U.E.U.K.^.m.M.b.z.{.'. X.XY.Y.1XaXaXaXfXaXcXaXaXaXaXfXcXvXvXvXvXvXvXdXuX5XD.M M F b N b V B ] a.g.u.u.u.'   .       ",
"P K @.6.P K H.H.H.8.$Xv.n.m.x.k.q.7.D.A.OX5XuXbXaX7XcXaXaXaXaXuXaXvXvXvXBXvXvXvXdX5XOXG D M M m M n W k ' 0.a.u.y.i.9.O         ",
"%.%.L.P.P F 3.3.1.r.m.m.h.h.h.u.*.+.<.S.OXaXaXaX5X5X5X5X5XaXaXfXvXvXmXBXvXnXvXvXdXuX(.F D A v m n n W j V +.0.a.z.h.w.& . o o . ",
"`.|.OX/.A S 1.%.4.e.j.g.a.u.a.} +.#.2.;.Q.cXvXaX5XaX5X5X7XcXcXvXvXnXZXvXvXvXvXnXuXrXK.S M M n n m v n i n B 9.g.m.M.m.B O = $ $ ",
"T.'.XX/.v H $.%.r.m.n.i.u.|  .&.K o.Y R S.5XvXvXZXBXvXaXaXcXvXvXnXnXvXvXvXdXvXvXuX2XK.A Z A M k v b v i n v 9.m.M.M.:X] O o X o ",
"3.P.K.D.j m @.o.e.m.g.g.u.| O.K L R E R Y +XaXaXvXvXvXvXvXnXZXvXZXvXdXaXaXvXVXvX2X6XJ.M m n n v v v v W g +.x.b.:XM.*Xf       . ",
"v m n v i m P Y z.m.j.g.u.0.O.K L P R U Y <XcXZXvXvXvXuXuXvXbXZXcXaXaXaXvXVXVXdX2X<XH.m m n M n n m j i G w.v.:X:XM.c.3     O . ",
"m v j t y j H @.$Xb.j.a.a.0.K U L H U F 3.aXZXdXvXZXZXmXVXvXvXvXcXfXaXvXnXZXBXaX,X<XH.l n n l i C Z i g +.v.b.:X>Xb.z.; . . O . ",
"L.4.o.M S L P Y $Xm.j.f.a.0.G D D D H F Q.ZXVXvXZXZXZXZXZXVXvXcXvXvXvXVXZXZXvXuX,X2XL.m m m n l p i p h 0.n.v.c.h.b.k.$ .       ",
"L.4.1.F r j M Z q.m.m.g.a.*.F H D D S J  XvXdXVXZXZXVXvXVXvXvXvXfXaXvXvXZXVXdX5X2XrXH.v n Z A L Z p i ' v.d.d.=.| 0.{ X .     . ",
"U K P M < < i n &.m.M.m.s.[ M W A D Z S OXZXvXnXVXBXVXZXZXZXBXvXvXvXvXZXZXvXaX2XrXrXJ.b l l Z Y A p j +.0.| *.| *.9.3 & 0 p L @.",
"t r r w < 1 k j B z.;X>Xm.9.N W n Z n A Q.vXAXnXvXvXvXvXVXVXvXvXZXvXZXAXvXdXrX2XrXuXJ.m n p Z ;.F W g ' X.h 7.r.R.!.H.`.oX].XX<X",
"r y t 2 2 2 n n W w.:X;X;Xz.X.S D Z Z D o.F.2XcXZXVXVXvXVXVXVXVXZXZXZXZXvXaXuXrXuXaXJ.m n c D A.%.p t 4 x q <.[.!.^.).(.Q.'.^.T.",
"V j w 1 q 2 j m S *.>X>X;Xm.z.[ A S c %..X1.S W.vXvXAXvXZXZXSXvXZXZXZXZXvXcXaX5XnXoX@.v n S /.=X!.1.A s s 8 J J.4.K %.Y.4.6.6.I.",
"P P N b g y b J S X.*X;X;X:X*Xc.&.m n D.E.(.K.7.@.F.XX6XaXaXtXcXvXBXvXcX7XrXaXaX/.P v j C E +X4X{.OXiX.XR.J.I.S.G.4.#X}.J.1.K I ",
"o.<.I @.I @.1.J.U B e.*X;X;X;X&X$X` m J.D.Y.]. XQ.A.F ; * 8 q M G o.%.3.D.6.I K > @.F.G.J.).[.9X[.vXzXZ.B.B.V.$X,.N.V.eX%.B t 2 ",
"<.T J P K K o.o.1.o.R.:X;X;X:Xb.b.9.O.E.T.T./.|.|.(.E.P r $ O + $ $ % $ + + $ w k G.(.3XrXgX9Xt.p.p.,.>.:.:.>.:.:.:.>.B.,.#.H 9 ",
"4.o.I I I G o.#.@.#.!.*X;X:X;Xb.n.k.q.!.T./././.W._..X(.`.E.R q $ + o o $ < l S.J.I..X,XhXhX9Xt.,.r.,.>.:.:.B.V.B.Z.xXV.N.D.A.K.",
"G.G.8.6.1.G o.o.I %.8.%X&Xb.&Xc.v.x.R.'.K.Y._.`._.W./.`..X/.OXXXG.<.I @.K.`./.E././.U.6.).oXsXhXlXMXzXV.:.:.C.xXzXxXt.XX@X1XQ.^.",
"H.J.Y.K.6.K o.#.<.<.#.q.k.l.d.l.l.x.$XR.G.J.~.Y._.(.W.W.(././.Q.].`.`.'.`.'./.^.H.E.Y.J.l C 3.^.`.6X0XkXxXC.C.xX0X7.l a 9 t 9 0 ",
"H.U.Y.Y.6.o.P %.#.&.#.&.q.l.s.k.k.s.z.R.@.Y S.T.W._._.Y.`. X_./.U.D.3.J./.W.Y.H.T.E.'./.F u m y M #.K.K.[.iXhXeXiX0X].`.L.4.K n "
};
