/* XPM */
static char *waka19_jpg[] = {
/* columns rows colors chars-per-pixel */
"64 64 256 2 ",
"   c #010102",
".  c #050B0B",
"X  c #0A0C0C",
"o  c #030606",
"O  c #1A1817",
"+  c #110E0D",
"@  c #2B1D1B",
"#  c #2A241C",
"$  c #39281C",
"%  c #292824",
"&  c #362B26",
"*  c #3A342B",
"=  c #38352D",
"-  c #3B3834",
";  c #1A261A",
":  c #433329",
">  c #473C37",
",  c #442A25",
"<  c #723B32",
"1  c #492D1F",
"2  c #44413D",
"3  c #4A453C",
"4  c #5A443A",
"5  c #5D573F",
"6  c #65493D",
"7  c #734A3B",
"8  c #494542",
"9  c #4C4A44",
"0  c #484545",
"q  c #514E4A",
"w  c #554A44",
"e  c #55524C",
"r  c #5B544C",
"t  c #5C5A4E",
"y  c #555547",
"u  c #5A5653",
"i  c #5C5A53",
"p  c #5A5755",
"a  c #4E5949",
"s  c #6A4C44",
"d  c #764A46",
"f  c #63534C",
"g  c #61594E",
"h  c #685547",
"j  c #795748",
"k  c #635C55",
"l  c #645E5A",
"z  c #675A55",
"x  c #785854",
"c  c #5E6255",
"v  c #646154",
"b  c #6B6156",
"n  c #66625B",
"m  c #6B645B",
"M  c #6D695D",
"N  c #6E6852",
"B  c #71665C",
"V  c #76685A",
"C  c #726E54",
"Z  c #666661",
"A  c #6A6661",
"S  c #6D6A63",
"D  c #6D6C6A",
"F  c #6C6368",
"G  c #726D64",
"H  c #726E69",
"J  c #796C66",
"K  c #6C7569",
"L  c #747166",
"P  c #7A7365",
"I  c #75726A",
"U  c #7A756C",
"Y  c #7C786E",
"T  c #777A66",
"R  c #7B7671",
"E  c #7E7972",
"W  c #727472",
"Q  c #6A6D72",
"!  c #605F62",
"~  c #8A3836",
"^  c #B03335",
"/  c #BC1F30",
"(  c #AA3840",
")  c #875845",
"_  c #954F48",
"`  c #AF4545",
"'  c #8B614A",
"]  c #896859",
"[  c #966D58",
"{  c #8A745C",
"}  c #99725A",
"|  c #946249",
" . c #A76C56",
".. c #A9755A",
"X. c #B87A59",
"o. c #AE6B52",
"O. c #8B6562",
"+. c #946E6B",
"@. c #82796F",
"#. c #82736A",
"$. c #977668",
"%. c #827C74",
"&. c #847E79",
"*. c #887C75",
"=. c #997B71",
"-. c #A57763",
";. c #B77B64",
":. c #BD7F72",
">. c #C07F61",
",. c #7F8231",
"<. c #7C817A",
"1. c #D0D813",
"2. c #C9D229",
"3. c #DFD920",
"4. c #BA845D",
"5. c #A49A5C",
"6. c #858076",
"7. c #898276",
"8. c #86827A",
"9. c #8B847B",
"0. c #8E897D",
"q. c #928A7E",
"w. c #938579",
"e. c #9A947C",
"r. c #8E856A",
"t. c #B3856B",
"y. c #B98667",
"u. c #A68877",
"i. c #B88A74",
"p. c #B29171",
"a. c #B4B07A",
"s. c #ABA547",
"d. c #CC8C6B",
"f. c #C58767",
"g. c #D58C69",
"h. c #C9946A",
"j. c #D4936C",
"k. c #D89A6B",
"l. c #C88B73",
"z. c #D88C73",
"x. c #CB9374",
"c. c #CB9579",
"v. c #C69678",
"b. c #D4937A",
"n. c #D69676",
"m. c #E19274",
"M. c #CFA97A",
"N. c #CA865F",
"B. c #CED54D",
"V. c #E4D749",
"C. c #D6D772",
"Z. c #8E8A83",
"A. c #8C8483",
"S. c #938C83",
"D. c #968E86",
"F. c #9A9286",
"G. c #9C948B",
"H. c #9D998D",
"J. c #969288",
"K. c #9C9792",
"L. c #A2958B",
"P. c #A39A8D",
"I. c #A59888",
"U. c #B99989",
"Y. c #A49C93",
"T. c #AA9D93",
"R. c #A59D9A",
"E. c #B29C92",
"W. c #A28F86",
"Q. c #A9A38A",
"!. c #ABA395",
"~. c #ADA59A",
"^. c #ADA99D",
"/. c #A6A297",
"(. c #B3A395",
"). c #B2A69B",
"_. c #B4AA9D",
"`. c #BAAB9E",
"'. c #B8A896",
"]. c #BBB49B",
"[. c #B8AF8C",
"{. c #ACA9A2",
"}. c #B4ACA2",
"|. c #BAADA2",
" X c #B5AFAA",
".X c #B4B1A4",
"XX c #BDB2A4",
"oX c #B5B2A9",
"OX c #BCB4AA",
"+X c #BEBAAC",
"@X c #BCB9B2",
"#X c #9CA5A0",
"$X c #D59A85",
"%X c #CD9883",
"&X c #CAA489",
"*X c #D4A38B",
"=X c #C5A997",
"-X c #D3AA95",
";X c #D3B39D",
":X c #C9B78F",
">X c #C4AFA1",
",X c #C3B4A5",
"<X c #C4B6AA",
"1X c #C4BAAD",
"2X c #CABBAC",
"3X c #C7B7A6",
"4X c #D4B9A7",
"5X c #C4BCB2",
"6X c #CBBDB2",
"7X c #C2B6B6",
"8X c #D2BEB4",
"9X c #BEC2A7",
"0X c #D1CC8C",
"qX c #EAE395",
"wX c #C9C5AA",
"eX c #D3C3AD",
"rX c #D6C7AE",
"tX c #CCC2B4",
"yX c #CCC5BA",
"uX c #CAC5B5",
"iX c #D2C4B4",
"pX c #D5CAB4",
"aX c #D9CCB5",
"sX c #D3C6BA",
"dX c #D5CABB",
"fX c #DACCBC",
"gX c #D9C3B7",
"hX c #DDD2BB",
"jX c #D9D0B9",
"kX c #D5D4A9",
"lX c #E2CBB8",
"zX c #E1D3BD",
"xX c #E2D8BF",
"cX c #E5D2A9",
"vX c #ECE4B5",
"bX c #DCCEC1",
"nX c #D2CCC2",
"mX c #DCD3C3",
"MX c #DED9CD",
"NX c #DBD5C8",
"BX c #DEDCD3",
"VX c #E1D4C2",
"CX c #E2DACC",
"ZX c #E3D9C7",
"AX c #E2DDD3",
"SX c #E4DCD9",
"DX c #E4E1D5",
"FX c #E5E2DB",
"GX c #EAE4DC",
"HX c #E8E1D6",
"JX c #E7E6E3",
"KX c #EAE6E2",
"LX c #EAE9E5",
"PX c #EBEBEB",
"IX c #E8E8E8",
"UX c #EFEBEB",
/* pixels */
"K./.oX@XoXJ.I T U E 0.S.F.J.Y.S.S.w.0.*.R I M n D i e 9 8 0 2 0 e I I S U I R E &.&.R E R R &.E W R %.%.%.%.J.5X*.G O.G m A n g ",
"oX X X{.J.9.9.Z.G./._.<XiX2X3X2X<X).Y.F.J.8.Y J I n n u q 9 2 2 i U U U E E E %.&.&.E &.E R E R R E E @.*.%.G.yX%.B ] M m m l k ",
"{.G.A.E E 8.Z.S.Z.H.Y.~.,X4X4XeX6X>XT.L.Z.*.7.0.S.S.S.0.*.U G l D 6.<.E &.E %.%.&.E E &.&.E &.R R R W %.*.%.G.yX%.B O.m l m n l ",
"Z.<.U I J H I J E 6.7.S.L.,XgX2X8X|.D.&.%.%.S.J.F.Y.!.^.).(.T.I.Z.Z.*.E R R E 6.E &.E &.E E E E R R R @.*.@.J.6X6.m O.b n n m k ",
"G.G.F.J.J.0.*.&.%.J G I U Z.0.*.0.S.9.8.9.9.J.H.~._.).).(.T.(.I.G.S.&.E E E &.6.&.&.E &.E %.%.R I U R %.%.@.J.6X@.B O.M m m l k ",
"G.H.Y.~.}.}.}.OX2X5X}.A.A p 0 q w k A m Z m U Z.S.G.F.F.P.L.P.W.S.7.%.E E &.E &.&.&.E &.E R %.R U R R E %.%.F.7XE B +.m m l l k ",
"Y.~.}..XOX5XyXsXyX~.R 9 0 u e p k k n Z D S M G Y 8.9.S.L.L.I.P.0.&.*.E &.E E &.&.&.&.E E E R R U R R @.@.@.J.1X6.M +.M n l l k ",
"}.^.}..X<XsX6X_.U w 8 9 p l l l F l Z S <.A.E A.Z.J.G.G.Y.~.(._.w.0.&.E E R E 8.E &.E &.E E R R U R R U U %.J.1X6.B +.b m n n z ",
"!..XoX@X@X{.W q 0 q u i m G J @.R R 6.q.S.Z.J.K.H./.^.}..X<X3X1XOXD.G.%.&.R E %.%.&.Y &.R R %.R I I P U I E S.uX8.B +.B M n n k ",
"+X.X+X~.D 0 > 9 u p k S @.9.G._.dX}.D.Z.J.H./..XOXOX+X1XwX2XeXtX<XG.Y.E R E E 6.8.&.U %.R R H R U I P U U E S.1X8.B +.m M n n k ",
"oX~.Z.9 - 8 e u l G #.0.~.5XNXGXjX.XK.K.{. XoX9XtXuXpXsXdXbXfXmXyXH.R.%.E %.E %.%.%.&.%.R R R R I T I Y R %.S.1X6.B =.M n n m k ",
"u - 2 > 8 q e Z %.G.OXdXHXHXdXXXY.H.K. X5XyXyXdXnXNXMXCXSXDXGXDXNXK.~.&.R U U 8.%.I %.R R @.R I U U U E E %.S.5X6.B +.m n l l k ",
"- - - 8 8 q i J.5XCXGXNX1X^.H.F.R.{.OXuXnXNXMXGXFXLXLXLXPXPXPXPXBX.X@XA.%.Y @.%.&.%.R R &.R R R I R I E E %.A.1X8.B +.m z n m l ",
"= - > 0 8 8 n oXNXtX~.S.0.S.G.!. X5XnXNXBXGXLXPXPXPXPXPXPXPXPXPXBX{.{.H e w w 3 l %.&.R &.R R %.I U U Y E E S.7X6.b +.m m n m m ",
"0 2 2 2 8 w i m Y Y Y 6.F.Y.~.oX5XdXBXLXPXPXPXPXPXPXLXLXPXPXLXLXJXJ.H > & @ @ @ * z %.R R R I I I Y P Y &.%.Z.5X6.v O.b n l m k ",
"0 9 q 0 q q e i A Y 9.J.Y.~. X5XNXHXUXUXPXPXIXPXFXJXJXKXLXGXDXDXyXi = * & & @ # & * F &.R U R R I U I U E %.0.uX8.b O.b z k l k ",
"c u u e i k l H 6.Z.K.!._.OXtXdXmXNXCXDXDXFXFXJXBXBXBXBXBXFXGXFXG.> * : & & @ % % & i %.%.K K #.L U U R U U q.5X&.m ] l k v v l ",
"M n A G H %.8.G.R.~.}.oX1XtXsXdXdXfXmXZXMXMXMXBXDXDXDXDXGXGXDXCXE : > * & & , : 7 4 w Y U I I Y I Y U R E U 0.wX*.B O.! b n v k ",
"G z m E S.Y.R.}.}.|.XX1X6XiXtXtXiXdXhXNXNXZXMXCXDXDXDXDXAXAXCXMX#.w x x 6 s 7 ..d.} 5 *.I I I P T I D R Y Y 9.+X&.m [ l v l k i ",
"J U q.!.~.).}..XOX2XwXtXuXpXpXpXfXmXMXMXDXDXFXGXFXJXGXFXFXFXFXGX(.j l.v.v.;.4.m.n.y.j $.J W I I I I S Y Y U 9.uX&.l ] l k i k i ",
"P.~.}.OX{.+X1X1X6XuXyXsXbXVXNXCXFXFXFXJXLXPXPXPXPXPXIXJXLXPXPXLXNX{ l.h.n.m.n.z.f.p.-.-.P I L K I I L U R U 9.1X%.z ] F k l t u ",
"OX}.K.Z.I H.wXdXMXAXSXSXGXKXKXLXLXLXLXPXPXPXPXPXLXGXJXIXLXLXLXLXBXw...n.n.b.b.X.)  .f.$.P U I U I U L U T U 8.OX@.z O.l k i t p ",
"%.M e e y P.ZXZXCXAXCXCXAXAXCXAXMXDXCXDXFXFXFXJXDXDXHXDXDXSXDXGXsXi.y.x.-.) ;.4. .>.l.{ U U I I L I L L U P *..XE b ] z f i g i ",
"q q e u y F.aXaXrXaXaXaXzXfXzXhXhXZXZXZXMXZXMXMXZXMXmXZXNXZXZXCXcXn.f.l.-.[ d.j.d.j.y.C H R U C S I S L L U *.}.Y b [ l k i k p ",
"9 e l S r 9.dXpXpXpXaXaXaXhXhXhXhXhXVXZXzXhXzXhXmXhXhXhXjXzXzXVXVX&X;.b.z.z.n.n.g.z.:.h G I S K L L L U U W 8.].%.k b x c k k k ",
"9 2 8 e 9 7.pXiXeXtXiXpXpXaXaXaXpXhXhXhXzXjXhXhXjXhXhXhXzXzXzXzXaXW.u.i.b.n.d.f.X.v.[ > Z U J U K P L T U U 8..X%.z x x b f z i ",
"D.D p p e *.tXiXsXiXiXiXdXpXpXpXaXjXhXhXzXhXzXzXxXxXhXjXjXjXfXhXzXF.F.V y.z.>...o.t.6 : S I H J G I S T U I 8._.Y t v h x t t e ",
"#XE Z Z m S.fXzXmXaXpXpXpXpXiXpXaXaXaXhXhXaXjXjXjXjXaXaXrXaXzXaXsXT.~.w j ;.:.o.o...4 : G H A I D G S I U I 8.^.R i n v j t i u ",
"A.W D S L q.dXaXzXjXrXrXrXrXeXeXrXrXpXjXpXaXaXaXkXaXaXaXaXaXaXpX@X}.tXJ : j -.X. .) : & k S K S H H S P I I 6.}.U i k v d f f f ",
"U D D W Y F.aXzXlXjXaXaXaXkXpXeXpXaXpXhXhXjXjXaXaXaXiXeXeX1X3X3X#X{.dX/.> & 6 _ 6 : # 3 S I S S H I S L I L %.^.H t k f 6 d s f ",
"E I R Z.S./.iXpXaXaXrXaXaXaXaXgXaXhXhXmXhXpXjXhXfXaXiXtX2X2X2X2X~.{.6X+XR * & 1 & $ : @.S.L S S D I M L G G Y ^.K k j _ ~ ( _ ) ",
"R &.D.@XuXuXjXpXrXeXeXeXeXrXiXgXpXaXjXhXdXwXtXrXiXtX6X6XtX6X6X2X6X5X6XsX6X#.4 , & < d E.P.B J L D D M L L L Y ^.J s h 7 ~ / ` _ ",
"U U <.0.7.S.2X3X3X3X3X3X2X2X3X<X2X2X3X1X3X<X3XiXiX6XtX6XsX8X8X2XuX8X4X*X-X9XQ.=.' [ W.|.).*.G G G S L D S D Y ^.C 6 4 s < ^ ^ ^ ",
"M v v M m U _.,X`.,XXX,X3X3X,X,X`.XX].XXXX|.2XtXpXiX6X8XsX5XtXdX6X$X$Xb.l.-X8X8X=X,X2X6X5X<X_.R.*.R G G H S Y ^.K s d s ~ ^ / ~ ",
"*.6.9.e.*.*._.`.`._._.].3X,XXX].,XXX].XXXX,XtXpXwXiXgX2XtXpXiX4X*Xz.&X:X&X%X*XeXfXiXsXgXsXsX6XsXyX.X6.M S S E ^.U w s s 7 ~ ~ 7 ",
"P.P.I.q.U U !._._._.).`.XX|.`.`._._._._._.1XiXyXiXsXtXtXpX3X*Xn.g.z.&XwXtX-Xb.M.4X4XlXfXbXnXsXfXbXfX~.U S D Y /.I f g s 6 7 w r ",
"Q.Q.Q.J.*.%.~.^.~.~.~.).XXXX`._.`.`.XX`.,X6XfXsXsXiXuX3X;X*Xn.z.g.>.%X8X8X-Xn.j.b.M.-XlXNXyXiXaX8XbXtX9.M D Y ^.K i k h h j f e ",
"H.F.e.T B G /.~.!.~.!.).|.|.`.`.`._.).|.<XdXbXsXsXtX2X-X*Xb.z.g.l.i.'.eX4X-Xd.f.g.j.c.4XnXnXmXaXbXfXmXG.M M I _.U a i f h k r u ",
"J.7.6.M z J P.'.~.~.^.).`.|.|.`._._.).`.1XsXsXsXaX;X-X$Xx... .;.-.=X8X3X9X>Xb.>.d.X.X.%X4XfXdXfXzXfXfX_.H A U ~.l % % % % ; # % ",
"P N L B V J L.(.~._.~.~.)._.).(.~.~.~.~.^./._.1X-X*X$Xf...' ) -.o.t.=X,X3X-Xz.X.} ..X.f.-XVXbXgXgXbXbX1XG M P ~.8             X ",
"B N C V ] ] L.~.!.~.~.).1X_.!.~.!.(.=Xc.k.n.c.v.z.l.y.[ } $.=.u.i.:.;.z.n.c.n.z.k.N.d.d.x.;XlXdX5X].[.>XI l K !.=               ",
"`._._.(.u.=.E.~._.^.).(.XX_.T.T.H.U.i.h.h.n.c.c.l.X.} u.=X=X>X=X`.=X%Xl.b.x.i.p.y.y.....y.v.-XrX&Xv.v.c.P M I L.%               ",
"2XtXiXwX(.=.!.~.!.!.~.!.).~.P.P.I.v.x.h.h.n.k.x.>...$.E.,X|.`.`.~.>X=XU.&X=X=X=XU.=Xp.} ..4.i.&Xk.k.k.g.{ k K W.%               ",
"~.~.Q.!.I.#.I.P.P.P.P.Y.T.Y.P.L.U.c.k.k.c.j.g.f...$.=.(.|.|._.).|.>X`.`.,X,X3X>X<X3X=Xt...y.h.f.h.f.d.x.u.N m 7.O               ",
"6.Y L 0.0.G S.J.J.G.H.H.P.P.P.F.U.c.k.k.n.g.f.X.[ u.W.(.}.E.(.`.|.}.|.|.`.,X2X1X>X`.=X-Xy.X.f.d.x.4.4.y.t.N b 9.+         o     ",
"%.T 6.Y.Z.S 8.A.0.Z.q.F.S.S.q.9.c.k.h.h.x.f.X.[ $.u.q.e.T.`.>X=XOX>X<X>X`.>X,XXX>X'.E.%Xt.....f.N.h.h.h.l.V M W +         X X X ",
"_.^..X+X9.n R 8.E 6.*.0.9.9.6.<.k.x.d.f.4.;...[ w.F.G.L.E.E.,X<X>X8X6X|.<X6X>X>X=X|.L.w.-.....;.X.4.4.4.l.] G D X o       O O O ",
"Q.!.XXOX@.n #.&.Y E E 8.6.6.Y 6.y.y.d.X. .} O.-.%.*.Y.~.>X,X6X5X8XsX2X}.6X8X|.>X|.}.E.u.$.....[ } 4.X.4.y.V B D .         O % % ",
"P.P./.H.L i I E R R E <.8.%.Y Y t.;...| ' { U E %.F.P.>X2X2XiXsXsXfX2X6XiX6X2X_.5XOXE.E.+.] } | | ..o...i.N V z o o       . . X ",
"g M M v n r A R U R R E %.%.U I $.} ] ' V U E R L.|.|.2XgXfXbXbXbXiX6XsXdXgX5X<X6X|.|.`.w.] ] ] j ' | | -.) V s o o           o ",
"P v t g t y D U W Y W R &.6.R I G J J G J R E R |.gXsXsXdXbXbXbXbX6XsXfXbXbX6XgXgX`.<X|.F.0.B m z s ) j ) d j 3     . . . X X + ",
"F.0.P U n I Y I I I I Y E R I G D D G H D Q I A.iXbXfXfXbXbXfXbXsX6XbXbXbXbXgXbXiX3X2X_.~.Y.G k c z N t d s g 9 + X . . . o o   ",
"J.H.0.6.v v A L A D S S D D m m F A D D K D L ~.mXVXbXbXfXmXbXbXgXsXmXbXfXdXdXbXtXdXiXXX}.D.M n n v g r d s l 2 . . . . .       ",
"Y <.I L e = 9 A m n M A D m Z Z A Z m A D D J ~.8XsXmXmXbXbXbXfXsXbXfXbXbXbXbXbXsXdXiXpXXXY k D J t y f d f u - . . . . X O % - ",
"3 v t 9 u 2 q c n n m Z D D Z D Z Z m Z Z Z H A.K.L.7XtXdXfXbXfXbXbXbXfXbXfXbXdXdXgXtXdX}.m p W *.l f g x f r n y v G 6.S./._.`.",
"3 y i e 2 2 i n n Z Z m A Z Z n ! Z Z Z Z W J.K.H l 7.T.1XiXbXsXfXbXbXbXsXfXfXfXdXiXiXiXG.p ! Q E A r a B g g ~._.~.!.!._.>X].[.",
"m b y 3 3 3 y M Z Z F S S G A A M A A n n D.yX,XG.J S.I H R. X6XfXdXdXpXiXsXdX8XgXgXtXuXJ.i @.P.a.P b w 7 w a Q.Q.S.A.L.P.J.D.J.",
"P U G v i r i G K A A G H H A S A A Z Z H ~.6XXXOX}.S.n e 9.g J D.<XnX8XyXsXtXgXnXtXuXOXY r F.9XtXG.OXe.$.#.I 0.0.Y H K.e.r.P 8.",
"T %.%.@.%.@.6.F.7.U G G G L G G A m v n I 5X1XXX).|.|.~.D.%.# % & 0 F &.D.J.G.F.#.J U J U 0.!.].4X_.SXcX0XC.wX].e.a.].wXOXS.Y v ",
"*.%.U P P L P 6.9.@.J P U P S M S A n n *.5XOXXX<X_..X}.T.Y.S.k = O O % % % & * % = w %.}.XXwX].M.M.:XV.3.1.B.B.2.2.1.C.Q.C k t ",
"9.8.Y @.@.P U *.#.@.0.q.9.6.P P G G M S J.5X2X,X).>X).}._.!.).}.^.9.q % O + + # = y *.q.!.].wX[.s.5.5.2.1.1.B.B.B.C.qXC.C.[.e.7.",
"G.F.S.e.7.U P @.*.#.%.*.S.G.9.Y U L m B T.2X5X|.|.|.|.T.P.)._.Y./._.}.K.%.H @.J.G.H.P.Y._.Q.wXkXwX9X9XC.2.1.V.qXvXqXB.C.wX3XS.e.",
"F.I.P.P.S.@.#.@.@.@.7.%.Y 6.6.0.6.U J G ~.5X<XT.).~. X|._.T.T.|._.Q.T.}.~.~.}.}._.).!.G.H.Y.F.].tXeXaXrX0XV.3.V.C.a.C 5 u N F B ",
"H.F.P./.F.@.P @.7.*.7.*.r.6.@.7.6.6.*.%.|.6X_.F.D.~.~.`._.).(.L._._.T.D.S.w.w.I.L.F.F.H.J.G.J k r.R.T.5XwXfXlXkXkX.Xe.@.G y 0 * "
};
