/* XPM */
static char *waka12_jpg[] = {
/* columns rows colors chars-per-pixel */
"64 64 254 2 ",
"   c #020202",
".  c #070808",
"X  c #18140E",
"o  c #181613",
"O  c #0E0E0C",
"+  c #251A18",
"@  c #2B241C",
"#  c #282623",
"$  c #362C26",
"%  c #38322C",
"&  c #3C3833",
"*  c #1A2320",
"=  c #422E27",
"-  c #47352B",
";  c #433C37",
":  c #563D32",
">  c #5B3E2C",
",  c #59362D",
"<  c #45433D",
"1  c #48453B",
"2  c #574639",
"3  c #4F4E39",
"4  c #69493C",
"5  c #6C4433",
"6  c #4A4642",
"7  c #4D4B44",
"8  c #4A4745",
"9  c #524D45",
"0  c #514E4A",
"q  c #5C4B43",
"w  c #54524C",
"e  c #5B554C",
"r  c #5C5A4E",
"t  c #555B4E",
"y  c #5A5552",
"u  c #5C5B53",
"i  c #5A5856",
"p  c #4B5242",
"a  c #6B4B45",
"s  c #744A45",
"d  c #655849",
"f  c #78574A",
"g  c #635C54",
"h  c #6A5E54",
"j  c #645E59",
"k  c #675853",
"l  c #755954",
"z  c #5D6253",
"x  c #58644E",
"c  c #656156",
"v  c #6A6256",
"b  c #66615A",
"n  c #6B645C",
"m  c #6C695D",
"M  c #716A5E",
"N  c #74655B",
"B  c #78715F",
"V  c #6B6561",
"C  c #6D6A63",
"Z  c #676665",
"A  c #736D64",
"S  c #746E6A",
"D  c #776C65",
"F  c #757166",
"G  c #797265",
"H  c #75726B",
"J  c #7A746C",
"K  c #7C796E",
"L  c #727A6F",
"P  c #7B7571",
"I  c #7E7A72",
"U  c #787874",
"Y  c #716D6E",
"T  c #605F61",
"R  c #8E3837",
"E  c #B03235",
"W  c #83554B",
"Q  c #AA4445",
"!  c #856859",
"~  c #976B57",
"^  c #99735C",
"/  c #8B674D",
"(  c #A46D56",
")  c #A8775C",
"_  c #B47D5A",
"`  c #BC7C4C",
"'  c #8D6664",
"]  c #936C6A",
"[  c #916665",
"{  c #827A6E",
"}  c #897769",
"|  c #9A7B67",
" . c #827C74",
".. c #847E79",
"X. c #887C76",
"o. c #A97C65",
"O. c #B47D63",
"+. c #B26F66",
"@. c #C57D6A",
"#. c #7E8079",
"$. c #D3DA11",
"%. c #CBD82F",
"&. c #EDD333",
"*. c #8E8F48",
"=. c #B1875A",
"-. c #88826F",
";. c #868176",
":. c #8A8175",
">. c #85827A",
",. c #8B847B",
"<. c #8E897E",
"1. c #958679",
"2. c #9A9278",
"3. c #A98368",
"4. c #B98568",
"5. c #A88976",
"6. c #B68A76",
"7. c #BA9477",
"8. c #ADAC6E",
"9. c #BDAF4C",
"0. c #C9885F",
"q. c #C58A64",
"w. c #C88A68",
"e. c #D38D6A",
"r. c #C9926A",
"t. c #D3936C",
"y. c #DA9769",
"u. c #CA8C74",
"i. c #CB957B",
"p. c #C89678",
"a. c #D49373",
"s. c #D49B74",
"d. c #DC9B74",
"f. c #DB9C7B",
"g. c #D89779",
"h. c #D58F72",
"j. c #E39D7C",
"k. c #E49A75",
"l. c #D1A77D",
"z. c #E6A27E",
"x. c #EAA079",
"c. c #CDD359",
"v. c #CED751",
"b. c #EADD5C",
"n. c #C9C97D",
"m. c #DEE275",
"M. c #867980",
"N. c #8D8A82",
"B. c #8C8381",
"V. c #938C83",
"C. c #998D84",
"Z. c #978A89",
"A. c #9B9385",
"S. c #96928A",
"D. c #9B948A",
"F. c #999589",
"G. c #9E9892",
"H. c #869085",
"J. c #A1968B",
"K. c #A39A8D",
"L. c #A99887",
"P. c #B69987",
"I. c #A49C92",
"U. c #AA9E93",
"Y. c #A39B95",
"T. c #A28A80",
"R. c #AAA38D",
"E. c #BAA48C",
"W. c #ACA394",
"Q. c #ADA59B",
"!. c #A9A599",
"~. c #B2A394",
"^. c #B2A59B",
"/. c #B3AA9D",
"(. c #BAAB9A",
"). c #BAB29E",
"_. c #B7B885",
"`. c #ADA9A1",
"'. c #B5ACA2",
"]. c #BAADA2",
"[. c #B1A3A2",
"{. c #B6B1A5",
"}. c #BCB3A4",
"|. c #BCB5AA",
" X c #B8B6AB",
".X c #BCB8B1",
"XX c #AEB0A5",
"oX c #C59A85",
"OX c #D89D82",
"+X c #C8A38B",
"@X c #DCA383",
"#X c #D6A487",
"$X c #C5A996",
"%X c #D6AC94",
"&X c #CBB598",
"*X c #E3A282",
"=X c #E2A98C",
"-X c #EBAA8C",
";X c #C3B4A5",
":X c #C3B4AA",
">X c #C3BAAD",
",X c #CCBBAD",
"<X c #C7BAA6",
"1X c #D2BDAD",
"2X c #D7B6A3",
"3X c #C4BCB2",
"4X c #CDBDB2",
"5X c #C7BCB8",
"6X c #D3BCB3",
"7X c #C8AEA2",
"8X c #E1A993",
"9X c #CBCB8F",
"0X c #C9C5A8",
"qX c #D5C7AB",
"wX c #CCC2B4",
"eX c #CDC4BA",
"rX c #C8C5B8",
"tX c #D3C3B5",
"yX c #DBC5B4",
"uX c #D6CAB4",
"iX c #DACCB4",
"pX c #D5C5BA",
"aX c #D9C6BB",
"sX c #D5CABC",
"dX c #DACBBD",
"fX c #DDD2BC",
"gX c #DAD1B6",
"hX c #D2D4AA",
"jX c #E1D5BE",
"kX c #E4CBB8",
"lX c #EAE8B5",
"zX c #F0E088",
"xX c #D4CCC2",
"cX c #DCCDC1",
"vX c #D7CCCA",
"bX c #DCD3C3",
"nX c #DCD6CA",
"mX c #DCD7CA",
"MX c #DEDCD2",
"NX c #CDC7C0",
"BX c #E1D5C4",
"VX c #E3DBCD",
"CX c #E8D8C6",
"ZX c #E2DED3",
"AX c #E4DDD6",
"SX c #E0CEC3",
"DX c #E4E1D5",
"FX c #E5E3DB",
"GX c #E9E5DA",
"HX c #EAEAE5",
"JX c #EBEDEA",
"KX c #E8E7E4",
"LX c #F1E5E7",
"PX c #D9E8D7",
/* pixels */
"N.!.XX X XF.K J S I ..,.C.C.D.V.<.,.,.;.K L C Z C i 8 8 6 6 < < w Y D V H H  .I ..I I I I I I M.L  . .I K :.V.wX>.M ] A N V b g ",
"XX XXX`.G.<.>.>.C.I./.].:X:X>X7X:X~.J.A.N.;.I A H n g y 0 1 < < w L J H H I  . ...........I I I I { I I  . .V.eX>.m ] m n n b h ",
".X!.S.H.I ;.N.V.J.J.I.(.;X,X,X6X1X;XU.D.<.X.,.<.<.<.<.>.{ J m g V >.I I U I  .........I I I I I {  .I .. . .V.eX>.n ] m j b m h ",
"S.I S S C H K J  ...B.C.J.).,XqXtX;XJ.B. .{ <.A.D.K.U.Q.Q.^.W.D.N.N...U  .K I >...I ......I I I P P I I  . .V.eX>.N ] M m n V n ",
"D.D.S.V.N.;.K J S A C F  .D.C.A.D.K.V.B...>.D.I.W.Q.^.^.W.K.K.K.I.Z.X.J  .P I >.I I .. ...I I  .P { I ..I X.V.wX,.n [ A n V n j ",
"Z.G.Y.!.Q././.].).{.XXS.H V 0 0 w b C S C S U >.A.G.I.K.K.K.K.K.N.N. .K J X...>......... . . .I J  .P ..I  .V.3X<.N ] M n j n b ",
"!.!.Q./. X>XwXwXsX|.S.u 8 y y 0 u i u u Z C V S I >.,.<.J.U.K.J.,.,.X. .K >. ...........I ..I P J P  .I I  .<.>X,.N ] M n b j b ",
"!.Q.'.|.>XwX3X>XZ.g 6 6 i u y V Z u C A I >.{ ..N.S.S.A.K.~./.'.A.,.>.I  .I I >.I ....I I I  .U J { P I I { <.3X>.N ] A m j n b ",
"Q.(./.|.3X|.N.j 8 8 y g j V C D H D J <.Z.V.V.S.G.!.Q.Q.:X:X<X,X|.S.K.>.J X.X.I >.I >.I I I U  .J K D K  .X.>.3X<.n ] A n n n b ",
"{. X X XN.0 8 6 w i j V D { C.U.rX'.K.V.S.G.!.XX{.{.3XwX>XpX0XwX4XD.I.:.>...I X...I >.I I I J I J I H K I ..:.3X,.n ] m n b h b ",
"|.'.Q.n & & 8 y j V D X.C.'.xXAXDX|.F.V.!.{.|..XwXwXwXaXdXsXsXBXdXJ.J...L  .;. . . ...I I I K I J I J K I  .,.4X<.v ] N n b b b ",
"A w 7 ; 6 9 y V J 1.^.pXVXGXnXpX/.I.K.XX3X3XwXsXsXmXbXMXGXDXGXZX(.h 0 < 6 u F { I I  .U I I P  .H I H I I  .:.3XN.n ] N n b b b ",
"$ % ; 6 8 0 w U {.xXAXZXpX'.I.G.F.Q..XrXNXxXnXPXDXGXHXHXKXHXMXF.2 % $ $ $ @ % n I >.#.I  .I K K H I J I I ..,.>X<.v [ n n j b b ",
"& & 8 6 ; 6 y `.MXxX|.K.Z.V.F.R. X.XrXsXMXFXFXKXJXHXJXJXJXAXZ.1 > 2 2 : = = $ 2 I >.;.I ;.I #.K H I J I I X.,.4X<.h ' v h V b n ",
"< < & 8 7 8 w m ;.;. .X.V.G.!.{.3XrXmXFXJXHXKXJXJXHXHXKXJX5Xd 2 / 3.6.4.( ~ ( / H  . .;.I I I K J K F I  . .>.3X<.g [ n n b V b ",
"0 6 0 6 8 0 9 u n J X.V.U.Q.'..XxXDXHXKXJXJXJXJXKXHXHXHXKXJ.q d 4.@Xf.k.y.t.s.4.H  .I  .K J J H K K F I  . .,.wXN.v [ v b b j b ",
"u w y w y u j b I V.G.I.Q. XrXeXmXVXAXGXFXFXDXDXAXGXZXVXGXW.9 k 3.g.k.j.f.g.e.q.} U M.{  .H J J H D J K K K ;.rXN.h [ v j g c h ",
"C b V n V H >.D.G.!.XX'.|.4XpXsXuXdXfXmXmXVXMXDXDXMXAXGXDX'.a D 6.OXf.q.O.q.O.~ { U I { K H J J H J D H K H ;.wXN.h ' v b b z h ",
"F v m  .V.Y.I.!././.).:XwXtXtXaXsXdXbXmXnXVXVXZXZXMXFXGXPX4X' ! i.OX4./ o.u.) / 1.{ I J S F Y H H P K K K K ;.3X,.g ' v Z z j g ",
"n M X.D.Y.Q./.|.>X>X>X4XtXsXaXaXdXbXmXZXAXDXDXDXFXFXLXAXPX1Xu.o.i.OXu.O.u.*Xu.u.5.P H J K Y P H H H S H K K :.>X,.h ' v b j u u ",
"D.I.'. X/.|.:X:X,XwXpXsXgXbXmXmXZXFXFXKXHXHXHXJXHXJXHXKXKX2Xg.r.p.f.OX*Xg.h.g.h.P.{ S D K Y P F Y H J J { I >.3X,.h [ v h u u j ",
"'.{.Q.G...D.wXfXfXbXZXZXDXGXHXHXHXHXJXKXHXHXJXKXKXKXHXKXGXkXi._ 4.OXOXj.e.O._ w.5.{ P D D S S A H U J D J J X.3X:.h [ v u u u g ",
"V.I b y w  .dXBXVXVXVXDXVXDXDXVXVXVXZXAXAXFXFXFXDXDXGXDXZXCX%Xo.W 3.i.g.e._ ( O.~ S Y S J P J J S J D { J S J {.;.h ' h j i u g ",
"w w 0 w e { dXbXfXgXgXbXfXbXBXBXBXBXCXVXZXVXVXMXVXBXMXZXVXCXCXE.5 s ] e.@.@.+.( f N U J P P J F J } X.X.X.I I '.;.h ' b b u i h ",
"6 y u C i H rXsXiXiXdXiXdXfXfXfXbXfXjXjXCXfXfXfXCXjXjXjXjXBXqXP.s 5 5 ] j.0.( ~ 9 A A Y L F D } 6.4.6.1... . . X..h l ! h g g x ",
"< 1 6 0 w m 5XpXqXuXaXiXuXdXgXdXfXfXfXjXfXbXjXjXjXfXjXCXfXdX$X3.f % - 4 ~ ~ f > = h J D H A } 6.oXi.oX5. .H I |.>.h h f h y k g ",
"N.D i w y A wXiXuXuXuXuXuXiXiXuXgXfXfXjXfXbXfXbXjXfXjXfXwXsX7Xo.^ ; $ = , - $ @ $ e D J D } 6.=X*Xf.p.5. .P  .'.#.g x h l k g r ",
"`.<.C j b G 0XgXgXsXuXuXuXiXiXuXiXgXgXfXfXfXfXsXuXuXuX0X/.eXkX+X4./ : % = $ + - p b F D X.6.OX-Xj.*Xf.P.X.S  .'.>.g c h f k y k ",
"S.{ m A F  .wXkXfXfXgXgXqXiXiXuXqXiXgXdXgXsXuXwX,X,X4X{.Y.5XbX1X4.q.3.f : 4 4 } '.^.^.~.~.%X@Xd.*X*Xj.oX1.F I '...u k g d e e k ",
"N.J C F I >.tXdXjXjXkXiXqXiXuXuXiXgXfXdXsXsXtXtX6X4X,X.X`..XeXsX#Xq.q.o.~ O.~ ~.{.'.}.:X7X2X%X@Xf.d.g.i.6.{ J ^.I y g l s W d g ",
"I A H ..H.S.eXiXgXkXgXiXiXqXiXiXgXgXbXsXaXpXpXtX4X6X,X4X X3XeXpXtXp.w.q.O.u.P.;X!.!.).<X;X&X%X%Xp.p.d.f.p.} G '.X.e f s R E Q W ",
"I I N. X.X.XbXuXqXiXqXqXqXiXiXsXuXgXdXpXpXpXpXtX>XtX1X4X5XNX4X6X3X4Xp.r.r.oXaX3X7X].;X<X<X,X<X<X#Xp.h.k.f.1.G '.-.9 f s 5 E E Q ",
"I K #.V.S.V.:X<X&X<X,XwXqXqX0X4XwXaXpXpXpXtXpXtX4X4X5XpXpXpXpXpXNXxX1X$X$X2X,X4X:X4X4X6X4X6XtX<X7X#X7.g.d.7.} !. .7 4 a s R E E ",
"c z c F C A ~.}.:X:X;X:X<X}.<X>XwXsXtXpXpXtXpXuXtX6X6X6XpXpXpXaXxXaXaXaXyXtXtXpXtXaXaXcXaXcX6X1XtX1XoXa.a.u.} Q. .3 4 s 5 E E E ",
"-.-.;.<. .F !.}.].].).).}.}.<XwXsXdXsXpXaXtXtXtXtXtXaXaXpXpXaXaXpXpXaXcXdXpXpXaXpXpXtXpXaXdXpXpXqXtX2X@Xr.a.5.Q...p f s s R R 5 ",
"R.R.A.V. .A R./././.(.(.;X;X:XuXuXsXaXaXpX6X1XwX6XtX6XpX5XpX6XxXpXpXcXxXxXsXcXdXxXtX4XtXxXSXaXfXdXpXkX=Xs.s.l.R...0 k 2 d 4 a k ",
"R.R.R.F.N.I U././.^.W.).].:X6XnXaXaXsXtX6X6X<X;X5X6XpXpX6XxX6XcXpXsXxXxXnXcXcXsXcXaXaXpXpXpXwXdXCXvX1Xf.f.s.t.E.I w e d 4 f d i ",
"J.L.A.-.A n D.^.^.^.!.`.{.|.5XNXxXxXaXtXtX4X:X{.wXtXpXpXaXpXcX6XpXpXaXsXbXxXcXdXfXaXcXpXpX4X4XcXxX XE.p.s.k.t.s.;.u y r d s q t ",
"A.A.,.F n b A.(.^.`././.(.+XE.E.5XwXpXpXtX,X).{.6XuXpXpXpXpXpXpXaXaXpXdXdXdXdXbXdXSXcX6XxX:X|.>X].P.u.p.d.f.s.e.o.: # * # + * @ ",
"F B F F A N C.~.W.Q./.E.+Xs.s.r.Y.[.4XpX6X:X(.|.tXpXpXpXpXaXpXpX6XxXaXdXiXsXpXpXaXaXaXaXxX].I.A.P.f.t.h.k.g.u.t.r.2       .   . ",
"z c C D l f 2.R.^.!.`.$Xf.d.y.y.s.7.Y.^.5XY.Y.(.4X6XtXtXpXpXpXpXxXpXaXcXdXaXaXdXBXtXaXdX4X/. .{ u.s.t.h.f.i.r.t.w.~ O           ",
"R.R.!.^.P.| L.)./.Q./.oXd.y.y.y.y.p.6.C.I.K.~.;X4X6X4XpXxXxXaXpXpXpX6XaXsXdXdXdXaXpXaXaX:X~.D M 3.i.d.a.a.a.t.w.r.o.X       .   ",
"0X0XrX0X$X5.L.'.~.~.E.#Xd.y.y.y.d.e.w.T.K.~.;X4XpXpXpXpX6X6XpXxXpXaXxX6XpXdXcXaXuXdXdXpX].K.N n | 7.g.h.r.h.t.w.q.o.o . .       ",
"R.(./.^.~.X.C.I.U.U.+Xs.y.y.0.0.0.=.6.T.R.].,X4XpXpXpX6X6X4X6XtX6XaXpXpXpXdXdXpXaXdXsX,X'.C.V n G 3.i.g.w.w.w.w.q.3.$   .       ",
",.;.H ;.<.F  .S.S.L.#Xy.y.0.0.0._ 3.A.S.A.].tX6XpXtXtXpXdXsXpXwX6XtXpXsXdXdXdXkXsXyXtX;X(.>.m b b } 6.u.w._ O._ =.4.-           ",
"J J #.F.G.F #.<.N.P.l.d.y.y.y.0.4.1.H.H.<.U.xXcXdXaXaXdXSXSXdXaXpXpXaXdXdXdXdXSXdXpXwX:X].} n j b v } O.q.3.^ ) ` O.$       o . ",
"{.(./.{.G.b F ,...5.z.y.x.y.y.0.q.o.X.B.B.C.tXcXdXcXdXaXpXsXdXcXcXcXdXdXdXaXcXfXdXuX6X>X].J b b c g h ! o.o.) ) 4.W O   . O + * ",
"R.R.).}.F.b H X.I 5.l.y.d.d.k.y.w.=.| .. .,.uXsXfXSXdXaXaXfXcXaXcXaXcXcXfXkXdXsXsXaX6X4X^.A v c v c v d ! ^ ( 3.W +       o + # ",
"K.K.W.W.,.r m  .L } 4.a.a.s.d.d.y.0.4.} J #.3XyXcXcXcXxXcXaXdXkXcXdXcXcXaXiXsX6XtXpXtXeXI.n b b z h g i r N ! N o .       . . . ",
"g M m m n y V I K K } 3.q.y.d.y.y.e.r.4.3.1..XeXyXdXkXsXaXkXaXaXdXcXcXaXsXaXaXtXwXsXpX5XV.b n b r g g g g v f ! .               ",
"h n e e y r Z P { P L { 3.4.r.y.s.d.d.a.4.p.2XqX6XSXSXcXSXSX6XvXtXsXdXdXcXdXpXaXaXdXaX>X{ c b y z g g y N a 2 v .       . . . O ",
" .<. .G c m I I P P H F  .| O.q.r.t.g.d.d.s.@X@X:X6XaX6X2X2X2X7X1XyXcXkXBXdXaXaXdXdXsX].A b b u g r u d l s d i o . . . .     . ",
";.D.A.;.m c m C V A D C C A ! | _ q.y.k.x.z.f.f.#X#X8X=Xf.f.8X%XpXkXdXaXsXaXtXdXbXsXwXK.c j b Z V g x d a a g 0 O . . O .       ",
"F  .G F c 1 < c c b Z Z V V m N ! ^ =.w.d.z.*Xf.x.k.z.j.g.@X8XyXdXfXfXdXdXaXpXdXaXtXwXA.c u u Z J g t d s d w < O . .   . O # & ",
"1 c r 0 p < 3 b c b T Z V A V Z Z V ! ^ =.p.z.j.*X*X*X*XOXOX%XaXsXdXSXcXaXsXaXdXsXtXeX,.b u T T  .j t w l h 0 j t t C ;.V.K.^.{.",
"& 0 i w 7 < w j V b m V C C C Z V b V b M | i.j.*X=X*X*Xx.h.oX%XdXaXxXaXpXaXsXkXsXwX4XA u T T Z ;.N i 9 W h p S.XXXXW.Q.(.).).(.",
"7 g r 7 1 8 7 b V b m C V A A V Z V C n m J.P.P.d.z.j.j.h.@.O.oX:XpXaXaXsXdXcXdXaX{.-.c z g J F._.X.V 0 2 2 w 2.!.A.<.D.U.A.A.V.",
"r K F b r y e A S C m A S V C C C V b b J '.(.E.i.OX*Xh._ O.| ! D X.C.!.^.^.U.J.B.m A b c r -.0X0XU.[.D.o.X.U M.N.;.Y 2.2.N.{ :.",
"t X.{ { K K { <.<.F m S S H H V S j j b >.|.{.~.P.oX6._ ) | 2 X o # $ & % % $ $ % G S.:.I J D.).0X<XDXlX9Xn.n.).!.8.8.qX5XZ.} c ",
"r ,.K K J J G { :.X.J J J D M S A n n m Z.>X].U.L.L.5.| | | b 8 % @ X o X X % g { U.C.U.'.wXuX0X&Xl.+Xc.$.$.%.v.%.%.%.v.9X{ d v ",
"m >.G G G B B { X. .,.,.:. . .J F C m V D.5X:X/.W.L.!.J.V.I.U.J.D.Z.K u c  .G.W.`.J.Y./.!.0X0X9X8.*.*.9.$.$.c.v.v.m.m.m.c.n.V.-.",
"V.K.1.V.<.{ G { { ,.} :.Z.V.:.X.{ F V n I.6X:X'.^.^.Q.!.G.I.U.L.I.I.!./.'./.^.(.!.W.U.K.R. XgXgXhX0XhX9X%.$.b.zXlXlXc.n.0X0X-.2.",
"A.D.K.K.D.:.G { {  .X.{  .} :.:.-.{ D D ~.,X'.Y.R.'.XXW.W.U.K.W.U.U.I.D.A.A.K.W.K.L.2.R.Q.<.V.Q.6XfXiXjXhXb.&.&.9X+X*.3 e v n j ",
"J.A.U.I.K.X.{ { X.1.X.X.:. . .:.:.X...{ ].,X!.N.U.U.~.(.~.W.K.U./.^.I.S.V.A.K.L.[.Q.'.!.!.;.e h { 2.U.(.qXjXhXhXhX0XJ.:.M e 8 & "
};
