/* XPM */
static char *waka2_jpg[] = {
/* columns rows colors chars-per-pixel */
"64 64 246 2 ",
"   c #010202",
".  c #03050A",
"X  c #05090C",
"o  c #070605",
"O  c #070C11",
"+  c #1A1513",
"@  c #171716",
"#  c #12110D",
"$  c #241D19",
"%  c #23211F",
"&  c #38271C",
"*  c #2A2424",
"=  c #39342B",
"-  c #393734",
";  c #342D27",
":  c #48352A",
">  c #463C36",
",  c #563D32",
"<  c #57392F",
"1  c #45423F",
"2  c #4B443D",
"3  c #584538",
"4  c #6B483C",
"5  c #6C693E",
"6  c #464342",
"7  c #4A4643",
"8  c #4C4944",
"9  c #4D4B49",
"0  c #514C4A",
"q  c #544A45",
"w  c #55534C",
"e  c #5A544C",
"r  c #5C594E",
"t  c #58584A",
"y  c #5A5551",
"u  c #5D5A53",
"i  c #595954",
"p  c #674D44",
"a  c #774A47",
"s  c #65544B",
"d  c #77574C",
"f  c #635C54",
"g  c #635E5A",
"h  c #6A5E5B",
"j  c #685B54",
"k  c #795754",
"l  c #5B6257",
"z  c #5D604F",
"x  c #636156",
"c  c #65625C",
"v  c #6A645C",
"b  c #6C695D",
"n  c #6B6455",
"m  c #72655C",
"M  c #766759",
"N  c #716F57",
"B  c #6B6562",
"V  c #6E6A64",
"C  c #696765",
"Z  c #736C64",
"A  c #736E69",
"S  c #786B64",
"D  c #747166",
"F  c #797266",
"G  c #76726B",
"H  c #7A756C",
"J  c #7D796D",
"K  c #797866",
"L  c #7B7671",
"P  c #7E7973",
"I  c #797875",
"U  c #625768",
"Y  c #8C3A36",
"T  c #B23037",
"R  c #89463E",
"E  c #BA3B42",
"W  c #8D544C",
"Q  c #A84F4B",
"!  c #87634C",
"~  c #83665A",
"^  c #846B5E",
"/  c #876657",
"(  c #976D5B",
")  c #99755D",
"_  c #90644B",
"`  c #A76A57",
"'  c #B67A5C",
"]  c #A8745A",
"[  c #8B6C63",
"{  c #846A61",
"}  c #817A6E",
"|  c #88766A",
" . c #9A7665",
".. c #827C74",
"X. c #847E79",
"o. c #867C74",
"O. c #967E72",
"+. c #A77B66",
"@. c #B87866",
"#. c #AD7769",
"$. c #CE7A5E",
"%. c #7D817A",
"&. c #CAD712",
"*. c #CED42A",
"=. c #848176",
"-. c #8A8176",
";. c #85817A",
":. c #8B847B",
">. c #8C897D",
",. c #938B7D",
"<. c #97877A",
"1. c #968E77",
"2. c #AA836A",
"3. c #B88368",
"4. c #A58678",
"5. c #B98B76",
"6. c #B79279",
"7. c #B3936D",
"8. c #B8B56B",
"9. c #B0945C",
"0. c #CA885A",
"q. c #C58B6B",
"w. c #CA8968",
"e. c #D38D68",
"r. c #CD9169",
"t. c #D4936C",
"y. c #DD9C6E",
"u. c #D79567",
"i. c #C78B73",
"p. c #D68C74",
"a. c #C99476",
"s. c #D39474",
"d. c #DB9C73",
"f. c #DA9778",
"g. c #E59968",
"h. c #E39C7C",
"j. c #E49B77",
"k. c #E28E6C",
"l. c #DBA37B",
"z. c #C6AC66",
"x. c #E4A27C",
"c. c #E6A277",
"v. c #B6C37E",
"b. c #D1D951",
"n. c #E2DD5C",
"m. c #D3D26A",
"M. c #E2DD65",
"N. c #8A7D84",
"B. c #8B8883",
"V. c #948D83",
"C. c #988D86",
"Z. c #959185",
"A. c #9B9286",
"S. c #9C958B",
"D. c #9E988D",
"F. c #96918A",
"G. c #9E9A92",
"H. c #A1958B",
"J. c #A39A8D",
"K. c #A79887",
"L. c #BA9B86",
"P. c #A49C93",
"I. c #AA9D92",
"U. c #A49E99",
"Y. c #AC968A",
"T. c #A5A295",
"R. c #ABA395",
"E. c #ACA59A",
"W. c #ADA99C",
"Q. c #A6A49A",
"!. c #B2A495",
"~. c #B1A69B",
"^. c #B2A99D",
"/. c #BAAB9D",
"(. c #B9A896",
"). c #B9B49D",
"_. c #B0A28E",
"`. c #ADAAA4",
"'. c #B3ADA2",
"]. c #BAAEA2",
"[. c #B5AEA9",
"{. c #B6B0A4",
"}. c #BCB2A4",
"|. c #BCB4AA",
" X c #BBB7AB",
".X c #B9BAB3",
"XX c #C49A84",
"oX c #D69C85",
"OX c #DAA285",
"+X c #D7AC94",
"@X c #D4B59E",
"#X c #C4AB8D",
"$X c #E4A583",
"%X c #C3B5A6",
"&X c #C3B6AB",
"*X c #C4BAAC",
"=X c #CBBCAD",
"-X c #C6B9A5",
";X c #D7B9A8",
":X c #C4BDB3",
">X c #CCBDB2",
",X c #D5BDB2",
"<X c #E3AB95",
"1X c #D2D294",
"2X c #CAC2AC",
"3X c #D7C6AC",
"4X c #CCC2B4",
"5X c #CCC5BA",
"6X c #CAC5BA",
"7X c #D3C3B5",
"8X c #D5CAB3",
"9X c #D9CCB4",
"0X c #D4C6BA",
"qX c #D9C6BB",
"wX c #D5C9BC",
"eX c #DACBBC",
"rX c #DCC3B3",
"tX c #DDD2BB",
"yX c #DBD5BB",
"uX c #D8D6A8",
"iX c #E1CDBB",
"pX c #E3D4BC",
"aX c #E4D1B1",
"sX c #E0DDA6",
"dX c #E2DF9A",
"fX c #BCBFC3",
"gX c #D5CDC2",
"hX c #DCCDC2",
"jX c #D2C7C4",
"kX c #DED2C3",
"lX c #DDD3CA",
"zX c #D8D4CA",
"xX c #D1CEC7",
"cX c #E1CDC3",
"vX c #E1D3C4",
"bX c #E1DAC3",
"nX c #E3DBCC",
"mX c #E7D7C7",
"MX c #E3DDD3",
"NX c #E8DED4",
"BX c #E6E3DB",
"VX c #E8E3D8",
"CX c #EBEAE4",
"ZX c #EBEBEA",
"AX c #E8E7E2",
"SX c #F2EDE8",
/* pixels */
"U.`. X.X`.X.A G H :.:.Z.H.S.S.V.<.C.:...L A g A g w 9 7 6 6 6 7 Z H D D L L P ;.X.X.P X.P ..} ..L ....;.:.o.*XR.b ~ ^ V Z B c V ",
"`. X[.U.F.X.:.V.H.'.|.>X=X-X=X>X}.E.H.S.V.:.G G L Z c y 0 7 7 7 H L J J P P ..X.;.;.X.P P ......L ..P X.=...:XT.Z { ^ v B c c B ",
"W.G.;.P X.:.C.A.S.G.P./.-X=XrX,X4X~.J.V.X.:.:.V.,.V.V.V.:.} S v ;.=.P P X.P X.X.;.P ;.P =.......L P ..X.;.o.*XE.A { S c B v c B ",
";.H D D H A S F X.X.:.A./.-X3X7X-XR.V.o.L >.S.J.J.R.W.`.'.'.E.I.V.:.P =.P P ;.X.X.X.X.;.....X.X.P X.P ..=...*XE.Z { ^ c g c c V ",
"F.S.G.C.>.o...} m H H G :.B.X.o.,.,.:.X.:.Z.S.I.^.^.!.E.R.I.K.H.Z.B.=.%.X.X.;.P X.X.X.;.X.....o.L X.L X.X.} |.T.C { S c c B x Z ",
"G.G.I.`.'.].|.:X4X:XG.G g 0 7 0 e x b v Z Z H :.C.A.H.I.I.I.I.H.>.:.=.;.X.P ;.;.X.X.X.P ........L ..X...X.o.{.E.V { { v h c c V ",
"T.E.'.&X:X&X5X7X6XF.c 7 0 y y y g g g C A A A ..o.:.V.C.K.I.I.H.;.B.;.P P X.;.;.X.X.X.X.....L } P P X...o.o.{.W.Z [ ^ v h x c V ",
"'.{.'.|.>X>X&XH.f 7 8 y y g v B C l A I B.X.X.B.F.S.P.I.~.].[.^.>.Z.:.P X.X.X.X.;.X.X.X.........L ..X.L X...'.W.H { { v h c x A ",
"`.'.'.:X|.G.u 6 9 0 y h m Z F } ....:.V.F.V.S.Q.Q.{.W.|.2X4X*X7XW.D.V.P ..X.X.:.X.X.......P I L L L L ....X.'.W.B [ | b c v v A ",
"|.|.[.C.e - 7 w y g B G o.V.~.4XgXQ.C.S.J.U.{.|.>X>X>X7X4X7X8XtX^.J.D.=.X.X...X.X.X.......P P L L L L ....=.'.E.Z [ [ c g v v V ",
"'.`.I = > 7 0 x B G o.S.|.gXVXVX5XP.D.~.[.*X6X5XwX,XeXhXeXnXbXpX}.R.S.} } X.X.B.P X.P =...P L L L L P X...o.).W.V [ [ b g v c V ",
"2 = 7 7 9 0 g G V.~.7XMXVXMX4XE.D.T.'..X5X5XgXzXzXMXVXVXgX&X{.'.U.T.P.o.....X.I X.;.P =...X.P L L L P =.o.} ^.E.V [ [ B c v x C ",
"= 1 7 6 7 w D '.kXVXVX5X~.S.S.I.W. X6X5XzXzXMXBXAXSXzXT.v 2 > ; - c >.%.J ..;.;.X.;.=.=...P P I L P P X.o...^.W.B [ [ c g v v Z ",
"- - 6 7 1 8 H 6XwX}.D.V.Z.H.P.'..X6XzXBXBXCXSXZXCXjX;.q , a d , : & : b >.=.P ;.;.;.=.=.P P P P L L P X.....^.~.v [ ^ c B v c A ",
"1 1 6 6 1 0 g F ..J P B.P.E.^.&XjXxXBXSXCXCXZXAXSXV.3 p #.a.s.i.] ( / n J =.;.X.X.X.%.P P P L P L L L X.....'.'.v { ~ c g v v V ",
"7 9 8 9 9 0 e g Z X.V.G.Q.~..XwXMXCXCXCXZXZXZXZXxXb 2 ! a.h.d.y.g.s.5.2.-...;.X.X.X.....L L L P L L L X...o.'.'.c [ ^ c g v x B ",
"i y u y i g V F B.G.U.`.'.:XwXkXkXnXVXVXVXVXBXBXjXu s / a.h.q.@.a.s.3. .I ..:.L L X.o.I H I L L H H L ....J W.W.C / M g f j c x ",
"c v Z Z H =.V.S.T.W.{. X*X4X4X8XwXyXkXnXnXlXMXBXwXB k  .OXf.q.#.i.s.@.+.P ..o.X.X.X.....H G L L H H L P =.J E.{.C / ~ g g h c B ",
"v j Z :.P.P.E.[.^.}.%X>X4X7X7X7XwXeXkXzXnXMXVXMXwX ./ +.oXr.3.] e.i.` ) %.X.} P L X.I I L G L L L H L L %.J Q.W.c / M B x j g v ",
"M o.J.T.T.].[.&X-X=X4X4XwXwXwXyXlXlXnXBXBXBXBXBXeXi.5.5.OXf.s.i.h.h.@.2.;.N.} I L L L L L G L L J H L L P J E.'.B / ^ B u f g c ",
"E.E.[.{.^.*X*X7X7XgXhXzXvXMXNXVXBXAXAXCXCXCXZXZXqXp.i.5.OXh.f.t.p.p.i.i.X.....P ....L L L G L H J H L L ..L Q.{.B ^ ~ c x f g c ",
"'.~.P.=.H %X7X7XhXnXNXNXBXVXCXCXAXCXCXCXCXZXZXZXmXs.w.#.s.$XoXp.@.@.i.5.L ....I L P L L L G H A H G H L P J T.E.c / ~ g u f g x ",
"H c q w f :XnXnXmXnXnXnXnXVXnXnXMXMXMXBXMXMXMXMXnX@Xi._ ( 5.OXp.@.` @.+.H ..G I I I G L L L H L H G G L J D D.T.g / M g r f g v ",
"y y w g e &XeX9XtXeX9XyXpXyXyXbXbXbXnXbXMXnXnXMXMXnX+X! p ! a.@.` Q ` ! h o.H I ..P G L L A H A D D D L P J T.T.B / ~ c g j g c ",
"7 i c B e W.8XyX9X9X9XtXtXtXyXpXyXyXyXbXbXbXbXbXmXyXqX^ 3 3 ] p.$.` #.p b } G H D L G G G G D H H H A L P H U.E.g g M k r l j V ",
"8 1 1 w 2 R.0X3X3X8X8X9X9X9X9XtXyXyXyXzXvXyXyXyXtXbXmX .: > 3 @.@.` ! , j D H ..X.L G I I H H G L H D L ..F P.W.V r k W n f f v ",
"B.B w u e R.8X3X3X8X8X3X9X9X9XtXyXkXbXbXvXbXbXbXbXyXaXL.3 ; = < 4 , : & j X.H G L L A A D G H V H G D P J H J.E.c x n k j u i c ",
"V.A g V h T.tXpXyXtX9X9X9X9X3X9XeXeXtXyXtXtXiXtXyXbX@X5.( , , & = $ & & S [.B.X.o.o.H G D G G I G G G L J F D.E.g g j f a c u g ",
"B.A A L Z E.eXtXyXtX9X9X9X8X9X9X9X9X9XtX8X8X9X9XmX8X%X2.s.@.! 3 : : : 3 <.:X X:X[.[.E.P.S.H V D G D G H J F S.E.B l f z a e e u ",
"H c V L L ~.eXtXpX9X9X8X9X9X8X9X9XyXpXpXpXpXyXpXqX*XlX@Xr.u.q.( ! _ ] ( Y.:X'.>X,XhX7X0XwX~.X.Z G D H G H Z S.E.c x k d Y W d g ",
"H D ;.F.F.}.yX8XtX8X8X8X9X9X9X8XtXyXpXbXyXyXeXeX6X.XxX,Xa.r.r.3.3.3.3.+.'.jX|.&X7XeXeXeXvXwXE...L D G D G D Z.R.f a a R T T Q d ",
"H =.Q..X.X0XyX8X8X3X3X3XrX3X9X9X9XyXkXyXwX4X2X>X.X[.jXzX3Xa.a.q.q.r.q.XX,X:X0XhXqXeXeX9XqXvXhX|.L D G G D Z Z.T.l p 3 R Y T Q W ",
"H G =.B.X.P.=X-X=X-X=X7X2X2X2X=X=X>X>X0X0X7X>X>X.X[.jXlXxX4XL.f.f.s.+X;XqX7XwXwXqXeXeXhXvX8XeXvX|.J A Z D b Z.T.z q p 4 Y T E Q ",
"j u n H c :.%X%X}.%X%X-X-X-X-X%X%X>X0X0X0X4X>X>XjX|.,X0X5X4X;X;X+X+X;XqXqXhXhXeXkXcXeXhXvXqXeXeXeXE.L Z D V F.R.k p p 4 Y T T R ",
":.,.>.:.H V.^.).^./.)./.%X%X%X].%X7XwXwX0X7X5X0X6X>X8XwXwXwXeXeXrX7XqXhXhXhXkXhXkXmXcXhXcXeXeXeXmXqXJ.A V m S.U.g p a a a a a 4 ",
"J.K.S.V.m :.'.R.W.^.!.). X}.^.%X4XwXhXwX7X7X7XqXjX0XeXeXeXhXgXwXhXhXlXhXhXhXhXhXqXvXvXvXcXeXeXvXvXcXhXF.A n A.Q.x e s p p s s z ",
"A.R.T.,...F.E.E.E.E.~./.|.).].=XwXqXwXwX0X0X7XqXjXjX8XeXeXiXcXkXhXeXkXcXeXhXhXgXqXvXvXcXeX7XqXeXcXvXnXR.-.M V.Q.v t z x d a f i ",
"J.1.,.F f L `.Q.E.E.R./.}.{.-XeXeX0X7X8XeX0X7XqXjX7X8XeXqXqXeXeXqXeXvXpXhXhXlXhXvXvXvXiXhX,X0XvXmXzX XXXq.| >.R.u w t s p q 7 9 ",
">.=.=.n m H E.~.W.E.^.^./.%X7XcXqXwX7X7X0X0X0XqXwX0XeXeXeXhXeX9XeXtXhXkXvXhXhXcXmXvXvXhXeX%X=XeXlX0X#Xl.c.q.6.I.- % + # # # @ * ",
"H v F N S H T.!.W.E.~.!.^.&X0XeX8XgX0X>X,X7X7XeXqXqXiXeX0XzXkXeXhXkXlXhXhXtXcXvXcXiXmXhXeX!.].7XfX(.l.f.y.g.a.S.@   o   .     . ",
"m v S M / [ _.U.`.R.(.^.=XiXpXhXwXkX7X,X:X>XwXiXeXeXeXhXeXhXeXqXhXhXeXhXhXhXvXvXkXvXvX8XwXV.V.A.Y.r.y.y.j.g.u.2.+ .   o   .     ",
"(.^.^.(.4.4.!.E.!.!.I.`.fXjXzXeXqX0X7X0X&X>X5X0XeXeXeXeXwXwXeXqXgXeXeXwXhXhXkXkXkXeXeXeX&XS n Z  .3.u.u.u.g.y.r.3               ",
"2X2X2X2XY.<.I.'.J.W.!.(.^.[..XjXcX7X0X>X/.=X0X6XeXeXeXeXhXeXeXeXhXhXwXhXkXkXkXkXhXeXiXqXP.Z c v k ( 3.0.e.u.u.u.+.+         o   ",
"_.R.W.T.<.| H.P.D.D.L.d.g.d.(.|.4X5X0X&XI.-XqXjXwXeXeXjXgXeXeXqXgXwXeXhXvXkXhXeXeXeXqX>X;.V V B n M ! ' u.u.u.u.r.:             ",
"o.F } >.:.Z V.V.H.<.XXd.g.c.l.a.I.].&XE.A./.,X,X0XwXeXgXhXeXeXqX0X0XgXhXvXvXhXeXeXqX0X|.H c B B B c n +.s.e.r.r.r.:       o o   ",
"X.} >.S.L Z :.,.:.<.OXd.u.s.d.u.5.A.F.B.:.!.&X:X5X7X7XwXwXwXqX7X7XwXhXvXvXkXhXeXqXqXqX~.A Z V v c c x +.e.0.0.y.3.$ .     # @ # ",
"~.'.{.|.J c ..=.=.7.y.u.u.r.r.0.5.O.I %.:.I.>X4X>X>X>X>X>X,X7X7XjXhXvXvXvXhXhXeXyXeXeXS.B C B j x g m +.0.0.t.t.M o     O @ $ * ",
"T.!.).).D c P ..1.l.g.g.r.0.0.3.) { I I L P.0X,X>X4X>X:X>X0X0XqXhXcXvXvXhXwXwXeXkX7X7XS.Z B c x n h ~ 2.r.r.t.w.: .   o O @ # @ ",
"Z.J.D.Z.c c L X.a.f.l.g.u.0.3.] G D G G L ;.*XwXwXwXwXwXqXjXhXgXkXvXmXhX0X,XwXhXhXeX,X1.v C B h C f ) q.r.u.u.! o o       X X X ",
"f v b n r u H o.l.OXd.y.g.u.t.0.2.2.<.O.| -.}.0XeXhXgXjXhXhXeXkXvXhX0X>X5XwXhXcXcX7X=XZ.c g B c c ~ a.x.y.j.q.:             X X ",
"H x e e e u N =.l.l.d.l.l.d.c.y.d.s.a.oXa.L.=XeX,XwX7X0XgXqXeXeXhXwX7X0XwXhXvXlXcX>X*XV.h h c x n @.d.l.x.s.1.;   . O O X X X X ",
"S.>.J G v H J } 3.r.s.f.y.u.y.l.y.d.l.$X$XOX+X@X;XrXwXhXkXvXcXcXwXeXwXhXhXvXvXvXcX=X&XF.V g f N 2.$Xc.j.$X+.b - O O O X X .     ",
"D.V.1.K i u B Z [  .@.i.e.e.t.t.d.x.x.$Xx.x.$X$XOX+X;X;X,XqX,X0XhXwXhXhXhXvXmXvX7X=X=XH.C u M 1.d.$Xc.c.f.^ t * X X X o         ",
">.F K b w - y c c v ^ ] ' ' @.q.i.i.f.f.h.c.h.x.$X$XoX<X;X,X,X7XhXeXwXhXvXnXvXlX2X-X,XC.c n  .f.h.h.h.$Xa.^ w ; # @ @ % = 1 r m ",
"q r r 8 8 1 g g l l m M ^ ( )  .#.#.+.3.a.$Xx.h.h.$Xf.oX$X<X,XqXhXhXhXvXmXvXeX7X&X=X>XC.x ^ a.j.j.$X$Xj.XXM n Z K =.Z.T.^.|.%X=X",
"2 l e 2 2 6 t b h B B C V M n n n N n M  .f.$X$X$Xk.k.k.p.oX;XiXhXhXhXvXvXhX0X>X=X>X&XN.j  .OXk.k.f.h.oX6.s Z ).^.!.R.R.E.!._._.",
"b x q 8 6 2 y v B B V V V C V B B B h j | XXoXh.f.p.k.k.p.oX@XcXhXhXkXkXhXqX>X>X3X7X&X;.j 2.d.0.e.i.i.p.] 7 l I.1.>.K U.,.:.,.,.",
"J J b v f r x Z S V Z Z A Z V V B c c B <.Y.5.5.s.p.p.t.@.L.!.|.>X>XqXwX7X4X>XeX5X{.:.g h 4.i.w.p.i.i.XXL.:.B.4.B.%.Z._.S.,.P } ",
"o.-.o.o.o.| <.Z.o.Z B Z H D V B B c g Z P.L.6.6.5.i.3.5. ., * = q n ....,.J.J.Z.C.n V ..<.A./.XX5.XX+Xm.m.m.1X%X8.8.b.uXK.N c w ",
"-.} S F F F K -.X...o.} H Z Z Z b b v H {.].I.K.4.4.4.4.O.j - @ # + $ @ $ $ * ; w 1 =.4X8X3X3X#Xz.z.z.*.&.&.*.&.&.&.&.8.8.B.n u ",
":...F J J F J =.} -.>.1.:.o.J F b b Z :.6X&X~.R.I.V.C.H.S.H.G.X.u - * + % * - 6 m | o.J. X8X1Xv.9.9.7.*.&.&.n.b.b.m.dXM.m.K.C.,.",
"Z.Z.V.V.:.F F P =.o.} -.,.,.:.} J S m S.6X'.~.'.`.U.S.D.U.H.P.'.`.P.V...:.D.P.S.Z.V.A.P.S.%XyXuXyX3X3XM.*.&.M.sXsXsXm.).|.).A._.",
"1.D.D.J.,.J F o.} o.} o.} -.:.>.-.} S H.|.J.P.E.T.'.P.A.~.~.Y.I.H.T.^.I.T.E.!.!.P.I.A.A.=.D =.T.[.2X8XyXdXn.n.m.uXZ.5 8 q U w e ",
"D.A.D.J.,.} } o.-.-.o.=.-.} } -.:.:.o.~.|.I.I.~.(.!./.~.H.I.'.!.U.J.C.:.V.H.H.H.S.Z.1.K.D.b e v F >.D.T.-X8XpXpXuX2X^.D.1.K B e "
};
