/* XPM */
static char *waka8_jpg[] = {
/* columns rows colors chars-per-pixel */
"64 64 256 2 ",
"   c #010102",
".  c #04040A",
"X  c #0A0A0C",
"o  c #080709",
"O  c #15140E",
"+  c #0B1112",
"@  c #181615",
"#  c #120D11",
"$  c #261C18",
"%  c #2F251C",
"&  c #282622",
"*  c #362B25",
"=  c #3D3935",
"-  c #393628",
";  c #1F2219",
":  c #493528",
">  c #443D38",
",  c #4F362C",
"<  c #723D30",
"1  c #45423E",
"2  c #4B433C",
"3  c #57453A",
"4  c #6C4B3A",
"5  c #714A3F",
"6  c #64603B",
"7  c #3F4440",
"8  c #454442",
"9  c #4A4642",
"0  c #4D4A47",
"q  c #4C4C4A",
"w  c #524C44",
"e  c #524E49",
"r  c #584942",
"t  c #54524C",
"y  c #5A544C",
"u  c #5C5A4E",
"i  c #555547",
"p  c #5A5652",
"a  c #5C5A54",
"s  c #585953",
"d  c #4D5641",
"f  c #694B44",
"g  c #754A44",
"h  c #66564B",
"j  c #77584B",
"k  c #635C55",
"l  c #6B5C55",
"z  c #645E59",
"x  c #6B5F5B",
"c  c #625653",
"v  c #765854",
"b  c #5D6555",
"n  c #656255",
"m  c #6C6256",
"M  c #65625B",
"N  c #6A635C",
"B  c #6A6A5C",
"V  c #73665C",
"C  c #72695E",
"Z  c #786556",
"A  c #6C6B56",
"S  c #6A6662",
"D  c #6D6A63",
"F  c #696965",
"G  c #736C64",
"H  c #736E69",
"J  c #796C66",
"K  c #747166",
"L  c #797166",
"P  c #76716B",
"I  c #7A746D",
"U  c #7C796E",
"Y  c #757C6C",
"T  c #7C7671",
"R  c #7E7973",
"E  c #7B7C79",
"W  c #6B7268",
"Q  c #695E6C",
"!  c #8C3937",
"~  c #B13238",
"^  c #84433F",
"/  c #86584D",
"(  c #B14346",
")  c #886656",
"_  c #956B57",
"`  c #937057",
"'  c #A76D54",
"]  c #A7745A",
"[  c #B6785A",
"{  c #946D69",
"}  c #906966",
"|  c #81776E",
" . c #827A6F",
".. c #877465",
"X. c #977869",
"o. c #827C74",
"O. c #837D79",
"+. c #877B73",
"@. c #866E61",
"#. c #A57562",
"$. c #A87A65",
"%. c #B67C64",
"&. c #C17F66",
"*. c #C27E57",
"=. c #7B8173",
"-. c #808131",
";. c #D4D914",
":. c #CDD42F",
">. c #E4D838",
",. c #BE825D",
"<. c #858176",
"1. c #898276",
"2. c #86827B",
"3. c #8B847B",
"4. c #8D897C",
"5. c #928A7D",
"6. c #968575",
"7. c #938D6F",
"8. c #BC8465",
"9. c #BB846C",
"0. c #B68669",
"q. c #A88A77",
"w. c #B98B73",
"e. c #AA8C6B",
"r. c #B6B162",
"t. c #C3835E",
"y. c #C8885D",
"u. c #D78D5E",
"i. c #C38563",
"p. c #C48A64",
"a. c #C58C6D",
"s. c #C98868",
"d. c #D38D6C",
"f. c #D28E65",
"g. c #CB926A",
"h. c #D59365",
"j. c #DB9465",
"k. c #D4936A",
"l. c #DA976A",
"z. c #C68C71",
"x. c #D48C73",
"c. c #CA9578",
"v. c #D39473",
"b. c #DB9B73",
"n. c #D49B7B",
"m. c #DB9B7A",
"M. c #D79677",
"N. c #E39B75",
"B. c #E39A6B",
"V. c #DAA17B",
"C. c #CCA175",
"Z. c #E1A37B",
"A. c #D4D74F",
"S. c #D0D370",
"D. c #E1E46F",
"F. c #E7DA5A",
"G. c #837982",
"H. c #8D8982",
"J. c #8C8781",
"K. c #938C83",
"L. c #978A85",
"P. c #969185",
"I. c #9A9285",
"U. c #959189",
"Y. c #9C948B",
"T. c #9E998A",
"R. c #9E9A93",
"E. c #9B9490",
"W. c #9E8D93",
"Q. c #A1968C",
"!. c #A49A8D",
"~. c #A89788",
"^. c #B69B89",
"/. c #A49C92",
"(. c #AB9E93",
"). c #A39994",
"_. c #A9A38A",
"`. c #ACA295",
"'. c #ADA59A",
"]. c #ACA99B",
"[. c #A6A49A",
"{. c #B2A69B",
"}. c #B3AA9D",
"|. c #B7A898",
" X c #B2AA8B",
".X c #AEAAA3",
"XX c #B4ACA2",
"oX c #BBADA2",
"OX c #B4AFAA",
"+X c #B4B1A4",
"@X c #BBB2A4",
"#X c #B5B2AB",
"$X c #BCB4AA",
"%X c #BEBAAA",
"&X c #BDBBB3",
"*X c #9EA095",
"=X c #CA9C85",
"-X c #D59B83",
";X c #CAA586",
":X c #D5A489",
">X c #C6A893",
",X c #D5B39A",
"<X c #D0B097",
"1X c #C2B3A5",
"2X c #C4B5AA",
"3X c #C4BAAD",
"4X c #CBBCAD",
"5X c #C7B6A5",
"6X c #D3BAA8",
"7X c #C5BDB3",
"8X c #CCBDB2",
"9X c #C6BDB8",
"0X c #D1BEB5",
"qX c #C0AFA5",
"wX c #D0C98B",
"eX c #CBC2AB",
"rX c #D4C4AD",
"tX c #D9C8AD",
"yX c #CCC2B4",
"uX c #CAC6B9",
"iX c #D2C3B5",
"pX c #D5C9B3",
"aX c #DACBB4",
"sX c #D5C6BA",
"dX c #D8C6BB",
"fX c #D6CABB",
"gX c #DACABD",
"hX c #DAC4B4",
"jX c #DCD2BA",
"kX c #DBD2B8",
"lX c #E0CAB8",
"zX c #E2D5BC",
"xX c #E3D7BB",
"cX c #E4CEA8",
"vX c #E7E4AB",
"bX c #E5E48A",
"nX c #D4CDC2",
"mX c #DCCDC2",
"MX c #D5CAC5",
"NX c #DCD3C4",
"BX c #DDD5CA",
"VX c #DBD7CA",
"CX c #D6D4CF",
"ZX c #E2D3C4",
"AX c #E2DBCC",
"SX c #E5D8C8",
"DX c #E2DDD3",
"FX c #E1CAC2",
"GX c #E3E1D5",
"HX c #E4E4DB",
"JX c #EAE5DB",
"KX c #F0E8DD",
"LX c #EBEBE5",
"PX c #ECECEB",
"IX c #E7E8E3",
"UX c #F2EFEA",
/* pixels */
"H.R.#X&X#XR.E G J U 1.1.K.L.K.U.6.4.5.3.U K D n W t q 0 8 8 8 = t P H H J J o.T O.O.E o.R R R O.I T o.O.E +.Y.uXo.C { H V S z c ",
"#X#X#X.XR.3.O.3.L.E.oX@X1X2X2XoX2X{.I.5.3.2.U D P M z s 0 9 8 1 y E I H E U o.O.O.R o.R o.R T o.T | R O.o.<.I.yX2.C { V N D M z ",
"$X.XR.J.O.2.K.K.E.U./.}.1X4XhX6X4XoX(.Q.K.1.3.1.L.5.J.O.| G m u G 2.E U O.| o.O.O.O.E R E T o.R T o.T O.o.+.Y.uX3.C } N M S M z ",
"L.U D H P P P R +.1.5.I.~.@XhXsXsX2XQ.+.| | L.Q.Y.(.).}..X{.{.!.K.J.O.O.T T O.o.O.O.O.O.o.O.T R T R T o.O.O.L.uX2.V } m N S S z ",
"P.Y.Y.4.1.O.U L G C C H  .T.Y.L.Q.Y.L.K.4.1.U.!.(.{.{.{.`.(.(.~.R.K.O.o.T R O.E O.O.O.o.o.o.o.T T | T O.o.o.L.uXO.V } V N M M x ",
"Y.Y.).}.}.'.].$X}.$X}.K.P a q q t k D S D D U H.I.T.Q.!.~.!.Q.~.L.L.+.T o.o.o.O.O.O.O.O.o.o.E T I o.T o.o.o.K.yXO.V } B N z M z ",
"!.[.{.}.$X7XyXeXmX7XU.s 9 q s p p s M z B H B K o.o.3.K.!.`.!.(.3.H.O.T o.O.R O.O.O.O.o.E o.o.T I +.T T o.o.K.9X1.V } B M z z z ",
"'..XXX$X3X4X4X3XK.u 9 q s s z z S z D F T J.R +.J.K.T.Y.!.`.`.@XK.3.3.O.T E O.O.E O.O.R o.R o.T I O.T T R o.5.7X3.C } N M S z x ",
"].XX}.$X9X$XK.z 8 e t a M C G J T I R H.L.J.J.U.R.[.].+X$X3XeX4X3XI.Q.O.O.T O.o.o.E O.o.E U T T P I I I U o.K.7X3.Z { C B N z z ",
"].XX7XOX3.y 1 9 t t n G L U 5.'.3XXXY.L.L.E..X.X#X%X3X3X4XyXpXyXyXT.).3.O.O.O.O.O.O.O.o.R T T T I T T T U <.5.7X3.V { V m M M k ",
"&X#X'.S > = q e z D J 1.Y.+XnXJXAX%XU.U.'.#X9XuXeXyXfXfXaXmXjXnXNX/.).3.E o.R O.O.O.E o.T T T T I T U T R o.5.uX3.V { m N M M k ",
"H w 9 > 8 9 t F J K.{.7XAXKXBX3X.X)./.#X9XyXuXfXVXNXNXBXJXJXHXHXnX'.XXJ.T O.O.O.O.O.E o.o.E T T I R T R  .o.4.7X3.m { m N M N z ",
"> * > 0 0 q t 2.@XNXKXGXsXXX/.T.E.].&XuXnXnXVXDXHXIXPXUXLXLXIXPXLX$X$XJ.O.O.O.O.O.O.O.O.o.E R R T T T | R <.5.7X1.l { m N N M M ",
"= = > 8 1 8 a [.BXfX@X!.U.5.Y./.+XyXuXMXDXIXPXPXIXLXIXMX#X.X#XuXnX.X$XJ.R E O.o.O.O.O.O.o.o.R T I T T R  .o.5.yX1.m } m N M N M ",
"8 8 9 8 8 0 t K 3.1.O.1.U.).].OXeXuXVXIXPXPXPXPXPXuXU.S 3 2 2 2 n P R.H.P O.3.O.O.O.O.O.o.T T T I T T T R <.5.yX3.m } B N M M z ",
"e 8 9 8 0 0 e a M P O.Y./.(.XX7XMXHXPXPXIXLXPXIXuXP 3 2 3 4 3 3 - & i O.o.2.E O.O.O.O.R T T T T I T I T R +.K.yX3.m } m l N M z ",
"p t s t t p M S R K.E.(..X$XyXpXVXAXGXGXJXHXHXHX5.r 9 f #.9.0.] l 3 3 P E O.O.o.R O.O.E E T P T H I H T R U 4.uXO.l _ x z z z z ",
"H M S S H T O.U.R.[..X#X&X9XpXfXfXjXNXSXAXAXGXVXJ r r g 9.b.v.M.z.[ ] X.o.O.+.E O.o.R T R T P T I H L U U U 3.9X3.l _ x x S n z ",
"D k V | K.E./.(..X+X#X%XyXiXpXpXpXfXNXVXAXAXGXNXG 3 h ) p.b.V.m.j.l.z.X.+.o.O.E R R T T T P P P L P P I U L 3.7X4.l _ S M M z a ",
"m G 3.).)..XXX$X3X4XeXrXrXpXaXhXNXNXVXBXGXGXGXNXZ h ) X.c.M.a.[ %.z.$...o.o.| T R R T I T P P P P P P I U U 1.yX3.l _ x M a z a ",
"Q.)..X$XoX2X3X$X4XrXiXfXfXNXBXDXHXJXHXHXLXLXLXDX%.$.#.0.-Xc.] _ %.9.) J E U o.I T T T H I I P P I T P U U U 3.3X2.x _ x z a a k ",
"XXXX{.T.O.Q.yXgXjXVXAXGXHXIXPXPXLXLXPXIXPXLXLXDXx.x.a.z.m.x.8.] x.s._ ..T T U R T T T I I I P P I H P U U I 1.%XO.z _ x k s s a ",
"K.o.M u y 1.NXSXAXAXAXGXGXDXGXDXGXGXHXHXHXGXHXVXd.d.8.z.m.m.M.d.x.d.%.X.O.I I T T T H I T P P P H J P P L I +.$Xo.l _ z z a a a ",
"y t e t s +.gXaXkXkXpXjXjXjXxXxXZXSXAXVXAXAXAXZX:Xc._ #.-X-Xx.d.&.&.=X6.E T T O.P T H T T T P P H H H P P K o.+X<.l _ x z b k a ",
"8 s z S s K yXpXaXaXaXaXkXjXzXjXNXxXxXjXSXSXZXZX,Xc./ Z $.g.v.z.[ [ #.6.E T J L H P P H H L P G I K K P U I <.@XO.v m j b a l s ",
"1 1 1 t t D yXpXpXpXtXaXaXaXaXkXxXkXSXjXSXxXzXxXkXn._ f 4 ' a.[ &.' ] @.P H T I T I L T I I H H P P P P I P <.@Xo.k n / v x l c ",
"H.H p t s B eXtXrXpXpXaXpXaXpXaXkXkXxXxXxXxXjXgXhX;X_ 4 > 5 #.M.&.' _ v P P P D H R R I H H I I P I K P T I <.@X=.z n l v b b s ",
"'.J.S M S I rXaXkXkXkXaXaXaXaXaXtXxXpXaXxXkXSXrX^.:X_ , : 3 j ] ] / g l K I I I R H H H P H H H P P P P T I U +XG.M n b v l c a ",
"K.U D D T O.pXkXxXjXkXaXaXaXaXaXeXtX>X=XlXuXiX>X0.n.8.4 * * : , , : * c I P W I H I I H P P H H H P H K I P R XXo.z l l g u y h ",
"3.I D P R O.iXaXxXxXkXaXlXaXaXtXjXkXcX=X6XiX5X=Xa.f.z.$.4 : % * * % * e T I T | | I H I H H H H H H G K P K U +XR p l l g f h i ",
"=.H P 2.K.Y.fXaXzXkXtXtXtXaXaXpXaXkXtX:X-X:X;Xc.i.i.a.a.%._ 4 : : , i +.'.'.XXXX.X+.D J E H S I H G G G P H U XXo.c j j ! ~ ( j ",
"E R H.+X&X$XnXfXrXrXtXtXtXaXpXpXdXpXeX>Xx.m.m.d.i.,.a.8.*.' ) / v L./.oX2X2X2X8XMX2XI.J D H I G G G G G P D U +XU r g ^ < ~ ( ( ",
"T R =.U.K.5.2X5XeX5XeXeXeXiXiXiXuX6X4X>XM.N.c.M.c.s.*.i.i.' _ ' ~.>X(.'.2X4X8X8XdXgXiX}.o.D H H J H G M H G H }.=.3 3 g < ~ ~ ~ ",
"M n n K S G {.1X@X1X5X5XeXyXfXaXiX8X6X,X-Xm.M.M.x.z.i.8.%.%.%.w.1X7X2X2X8X8XsX0XsXgXdXmX8XQ.I H D G D H P N L }.+.3 g 5 ! ~ ~ ! ",
"<.<.1.4.O.J {.1XoX}.@X@X1XrXfXdXfX8X3X6X-Xb.v.M.M.a.w.c.z.x.c.,X8X8X8XsXsXiXdXsXdXFXdXsXMXdXXXO.D F H D D H U [. .y v f j ^ ! g ",
"`._.!.5.2.J [.oX}.}.oX|.@XiXfXsXsXsX4X6Xn.v.v.v.s.w.|.<X<X=X<XhXiXiXsXsXmXmXdXZXdXmXdXgXdXmXmX8XY.F F F G C K .X=.i t h i 5 f u ",
"_._.`.T.K.I /.{.{.{.{.}.1XfXgXsXsXMX6X<Xn.v.v.9.w.^.0X9X4X6XhXsXsXsXmXsXnXNXmXmXmXFXdXdXmXfXmXAX7X+.L Z K K W .XP h a k f v u u ",
"!.~.5.<.L D /.}.{.'.{.|.1XdXgXfXsXsX6X:Xn.v.z.w.|.5X8X9XeXsXiXuXsX0XsXsX8XsXmXdXmXsX8X0XmXZXSXiXXXw.0.] C F T  X=.c k s j h e y ",
"5.5.7.K l l I.{.}.{.{.{.$XsXmXsXgXiX6XM.v.d.9.^.4X4X3X8X8XsXfXnXfXiXMXsX0XfXZXdXsX@X3XgXmXBXVX$X^.v.j.h.0.C L  XY & % & $ O & & ",
"L L L L G G I.{.].`.}.`.@XsXgXgXgXiX;XM.f.x.%.>X8X8XyX4X0X0XgXaXsXmXnXiXmXgXdXgXsX@X|.yXNXBXyXR.Z.N.B.j.l.0...].p o           o ",
"m N D V Z j q._.}.{.{.{.5XnXfXjXMX6Xv.x.z.y.9.@X2X8X0X4X9X0XfXfXsXdXgXgXgXgXgXgX6XT.Y.oXgX&X_.V.V.N.V.b.j.j.g. Xq         . .   ",
"_.`.`.|.^.X.~.}.`.].{.|.8XNXmXlXgX<Xk.M.g.i.z.2X4X8X8X8X8XiXiXNXsXfXfXgXmXgXdXiX2XJ.D | L.Y.q.x.B.B.B.b.j.j.v.;Xr         .     ",
"eXeXyXeX>X6.~.XX{.].].[.oXuXuX4X,Xc.h.f.z.[ w.2X2X8X8X8XsXiXsXfXgXgXfXgXgXgXsX8X4XU.F B B V X.%.g.h.u.h.l.j.l.V.) X             ",
"`.].].}.(.+.L./.~./.*X).XX%X].~.=Xv.k.s.p.9.=X8X2X8X8X7X8XsXsXiXfXdXsXsXdXsX0X8X5XL.S G N M J Z ` ,.y.h.l.j.l.B.9.@ .           ",
"1.<.K 4.3.H <.Y.T.Y.Y.Y.^.:Xm.n.n.k.h.p.i.8.>X0X4X8X8X4XiXsXfXiXiXsXsXdXsXsX8X4X4X5.S G M F B n l ` y.l.l.f.j.l.$.O .           ",
"R K Y T.Y.H =.K.J.J.L.L.^.-XN.b.v.f.s.i.i.8.^.3XiXiX8X8XiXiXsXgXdXdXsX8X8X8X8X4XrXQ.W F M D S N M X.i.j.j.h.h.p.<   .     X # O ",
"XX].}.%XE.S K 2.3.2.2.1.e.V.k.C.k.s.i.a.i.0.^.oX4X8X8XiXuX8XiXdXgXdX0X8X2X4X4X9XrX).M F B D S l Z $.y.h.j.h.p.X.@   .     + @ ; ",
"T. X}.@XK.N P O.U T E +.q.m.b.h.y.s.&.i.[ %.~..X}.4XsXsX8X8X8X8XsXMXdXdXsXsXsXsXpXoXJ P D B S M ) 8.h.h.h.s.0.| + .       @ @ & ",
"/.!.`.`.<.a D R Y O.E U e.b.f.a.p.t.y.t.[ e.X.).'.oX8XdXdXhX4X8X8XiXgXgXgXgXdXgXaXuXT H V l N S ' g.h.h.g.*.] H X         o X o ",
"k B A N N s N I U | T U q.z.s.p.t.i.t.] X.q.L.W.(.|.2X0XsXdXsXiX4X8XiXdXgXZXgXdXhXmXT.H B G m ` k.h.j.l.8.] / V o               ",
"n A k h y e n o.U R P R 6.0.g.y.p.i.[ $.q.^.Q.R.Q.{.qX2X8XsXgXgXlXdXiX4XiXsXdXgXmXdX4XI.W z ) g.b.j.j.i.#./ f h o o o X o o + @ ",
"+.1.=.K k S T I P I P U +.q.d.u.t.[ _ X.~.|.(.'.{.|.oXoXoX1X4XiXgXgXgXdXsXiXsXdXMX0XlXaXY.J 0.l.j.b.f._ ) v f k + o o o o       ",
"2.U.4.1.B n N B S G D S S ..w.s.[ ' { ) 1.XX}.|.oX|.oX1X5X1X2X4X8XsXZXSXZXgXsXdXiXsXiXhX>Xw.n.N.B.z.#.j g h h q + o . X o       ",
"H <.U U M = 1 N M M M S S D ..] #.#.} B P /.qX1XoXoXqX8XsX0X8X8XiXiXdXmXFXZXgXmXgXgXMX6X=Xn.:XV.k.` l u 5 h y 8 O X   o X @ * = ",
"8 k u w 0 > 0 z M n S H S S B Z @.J x S F o.2X4XsX9X8X4X8XsXdXgXdXiXdXgXgXgXgXdXgXMX8X^.n.V.V.n.w.Z p u / x y M u b K 4.U.'.XX+X",
"= e u w 9 1 y M z S D S S W S S S F F F F H &XuX8XsXdXsX8XhXgXgXZXZXgXmXZXdXgXgXdX0X5.4 0.n.b.M.5.N c d j z w Q.+X}.].].}.XX>X}.",
"0 n u e 1 0 1 M M S S S G H H x N D F M W D /.nXhX4X8XdXZXgXdXgXfXZXNXZXzXgXgXsX(.N y , $.g.M.-X:XG.x 3 v > r I._.5.4.I._.5.I.P.",
"i I G m k c i G H G G D D G H D D N N S S k U.VXmXsXsXiXgXmXZXAXSXNXZXAX0X$X(.N : % r ) z.i.k.g.:X~.$X(.X.o.I E 5.=.U )._.<.<.U ",
"2 1.<.U <. .U 5.L.U D D P J D D B S n z z F H [.sXmXBXmXmXfXmXMXsX7X(.W.| t > & > C L.q.9.s.d.v.k.;XSXvXwXS.S.@X X Xr.eXuX7.R n ",
"u 4.U L I K C +.3.+.| I I G G G D F S M M H M H C N O.U.U.[.Y.+.w 2 * $ $ # & p L.}.`.6.$.9.%.$.0.C.wXA.:.;.:.A.:.:.:.A.wX..m N ",
"B <.Y L I C .. . .<.1.5.3.1. .U K G D D M S S H Y.P u - y D O O @ @ & & > l o.].@X`.`.^.6.X.) ) e.e.7.:.;.;.A.A.A.D.S.A.A.r.Y.6.",
"P.I.5.I.5. .I | 1. . .1.5.I.4.<. .G C D S S D J $X2X$X'.T.R.+.3.L.H.)./.(.oX|.}.`.`.oX|.(.!.I./._.eX4XwXF.;.D.bXvXvXA.S.uXyX5.6.",
"I.I.!.!.I.+.L  .+. . .+. .1.1.1.1. .J G L H D O.oX2X$X7XoX/.XX{.].}.oXXX}.`.!.!.`.}.}.`.|.oX{.`. XrXhXaXcX>.>.A.eXr.` 6 p N k Q ",
"5.P.!._.!.1.| +.1.1.1.1.1. .1.1.1.1.1.o.| L G .X7XoX2XoX3X@X$X@X|.1X|.|.`.P.Y.!.OXoX`.1X|.`.`.`..XW._. XeXlXvXkXkX%XT.3.K s q - "
};
