/* XPM */
static char *waka32_jpg[] = {
/* columns rows colors chars-per-pixel */
"64 64 256 2 ",
"   c #020202",
".  c #050508",
"X  c #0A0B0C",
"o  c #070708",
"O  c #181717",
"+  c #0E0F0E",
"@  c #291D1B",
"#  c #29231E",
"$  c #342311",
"%  c #282825",
"&  c #3B3632",
"*  c #382B27",
"=  c #422A1D",
"-  c #4B3529",
";  c #443C37",
":  c #4E2F29",
">  c #45423C",
",  c #4A443D",
"<  c #59463A",
"1  c #47402E",
"2  c #694839",
"3  c #744839",
"4  c #453D48",
"5  c #4A4642",
"6  c #4C4A45",
"7  c #494745",
"8  c #524C45",
"9  c #524D4A",
"0  c #594C47",
"q  c #54524D",
"w  c #5B534B",
"e  c #575648",
"r  c #5A5551",
"t  c #5D5B53",
"y  c #585A54",
"u  c #524E50",
"i  c #6B4C45",
"p  c #665649",
"a  c #76554B",
"s  c #635D54",
"d  c #6A5D54",
"f  c #635E59",
"g  c #6C5955",
"h  c #755852",
"j  c #764F44",
"k  c #5D6259",
"l  c #57634F",
"z  c #646156",
"x  c #6A6256",
"c  c #65625B",
"v  c #6A645C",
"b  c #6C685E",
"n  c #64685A",
"m  c #746254",
"M  c #73665C",
"N  c #73695F",
"B  c #7A675A",
"V  c #666561",
"C  c #6A6661",
"Z  c #6D6A63",
"A  c #6A6C67",
"S  c #726D64",
"D  c #736E69",
"F  c #796861",
"G  c #757166",
"H  c #7A7266",
"J  c #76726A",
"K  c #7A756C",
"L  c #7C786F",
"P  c #7F7865",
"I  c #7B7671",
"U  c #7E7972",
"Y  c #797977",
"T  c #726E71",
"R  c #963B38",
"E  c #AD3237",
"W  c #B53137",
"Q  c #C13943",
"!  c #844944",
"~  c #855849",
"^  c #90554B",
"/  c #8A614D",
"(  c #83695C",
")  c #8A675B",
"_  c #956C58",
"`  c #98725D",
"'  c #906D54",
"]  c #A86A56",
"[  c #AA7559",
"{  c #B37A5B",
"}  c #BA795B",
"|  c #AF6D51",
" . c #8C6B64",
".. c #866962",
"X. c #827B6E",
"o. c #877669",
"O. c #977766",
"+. c #837C74",
"@. c #897E75",
"#. c #837E79",
"$. c #887C77",
"%. c #96746E",
"&. c #A67965",
"*. c #B77C65",
"=. c #B26960",
"-. c #A94E4F",
";. c #7F826F",
":. c #B9CD20",
">. c #CADA04",
",. c #CFD30E",
"<. c #D6D52A",
"1. c #BB8559",
"2. c #858076",
"3. c #898275",
"4. c #86827A",
"5. c #8A847B",
"6. c #8D897E",
"7. c #928576",
"8. c #938B7D",
"9. c #97877B",
"0. c #978E7A",
"q. c #BC8464",
"w. c #BC866B",
"e. c #B6866A",
"r. c #A78875",
"t. c #B78B75",
"y. c #B9957A",
"u. c #AF8A6D",
"i. c #B1AC79",
"p. c #ADAE4D",
"a. c #C9885B",
"s. c #D0905C",
"d. c #C38464",
"f. c #CB8B65",
"g. c #C48B6C",
"h. c #CB8C6C",
"j. c #C58669",
"k. c #D38A68",
"l. c #CC916B",
"z. c #CA9166",
"x. c #D39265",
"c. c #D4936C",
"v. c #DA936D",
"b. c #DA9767",
"n. c #C78B73",
"m. c #C89677",
"M. c #D49473",
"N. c #D89877",
"B. c #D68E71",
"V. c #C6A86A",
"C. c #CCD255",
"Z. c #D2D657",
"A. c #D6D26F",
"S. c #E7D979",
"D. c #8E8A82",
"F. c #8B8681",
"G. c #938C83",
"H. c #948E8A",
"J. c #998D83",
"K. c #9B9285",
"L. c #9B948B",
"P. c #9E998C",
"I. c #969286",
"U. c #9E9A92",
"Y. c #9B9591",
"T. c #A39A8D",
"R. c #AA9B8C",
"E. c #A29489",
"W. c #B59986",
"Q. c #A49D93",
"!. c #AC9E92",
"~. c #A39E98",
"^. c #AA9B98",
"/. c #B79F93",
"(. c #A6A089",
"). c #A6A295",
"_. c #AAA295",
"`. c #ACA49A",
"'. c #A9A59B",
"]. c #B3A395",
"[. c #B3A59B",
"{. c #B4AA9D",
"}. c #BAAC9E",
"|. c #BBA696",
" X c #B6B29C",
".X c #ADA9A3",
"XX c #B5ADA3",
"oX c #BBAEA2",
"OX c #B2A6A6",
"+X c #B5B1A6",
"@X c #BCB2A4",
"#X c #BCB5AA",
"$X c #B9B6AC",
"%X c #BCB7B1",
"&X c #9FA090",
"*X c #C79B86",
"=X c #C8A48A",
"-X c #C7AB98",
";X c #D4AC95",
":X c #C7B29C",
">X c #D6AC93",
",X c #E2BA9B",
"<X c #C7ADA2",
"1X c #C3B3A5",
"2X c #C3B6A9",
"3X c #C3BAAC",
"4X c #CBBBAC",
"5X c #C8B8A8",
"6X c #D6BCA9",
"7X c #C4BCB2",
"8X c #CDBDB2",
"9X c #D2BEB3",
"0X c #D7BBB8",
"qX c #D6D68E",
"wX c #E7D783",
"eX c #CCC1AB",
"rX c #D5C5AE",
"tX c #D7C9AD",
"yX c #CCC2B4",
"uX c #CCC3B9",
"iX c #C8C3B7",
"pX c #D3C3B4",
"aX c #D5C9B2",
"sX c #DACBB4",
"dX c #D5C6B9",
"fX c #DAC6BA",
"gX c #D5CABC",
"hX c #DACABC",
"jX c #DBC6B3",
"kX c #DCD1BC",
"lX c #DAD0B9",
"zX c #D4D5AE",
"xX c #E1D2BA",
"cX c #E2C7AD",
"vX c #E4E39F",
"bX c #D4CDC1",
"nX c #DBCDC2",
"mX c #DDD3C3",
"MX c #DDD5CA",
"NX c #D8D5C8",
"BX c #DCD9D2",
"VX c #CFCBC2",
"CX c #E1D4C3",
"ZX c #E2DACE",
"AX c #E1D6C8",
"SX c #E3DCD2",
"DX c #E2DFD8",
"FX c #E1CCC1",
"GX c #E5E3DB",
"HX c #EAE5DC",
"JX c #E8E2D5",
"KX c #E6E5E2",
"LX c #EAE7E3",
"PX c #EBEBE5",
"IX c #ECEDEA",
"UX c #E7E8E5",
/* pixels */
"+X+X+X'.G.#.+.5.0.!.{.@XoXoX1X}.!.K.G.$.U I Z D v t r 6 5 5 5 6 J J J L U K U 4.+.+.X.+.K U U U U U +.$.2.+.3X).b ( B b S Z x C ",
"+X~.H.F.5.F.H.L.Q.^.+X3X4X4X4XpX5X[.Q.L.D.5.2.$.#.K J c t q 7 6 I U L L U U U #.+.+.+.+.U U I I K K Y +.+.+.3XQ.M ( B v Z v c v ",
"4.I J J K U #.$.4.H.I.T.oX9X9X4X8XT.8.$.L @.G.K.K.P.).Q.Q.L.G.5.4.4.L L U U #.#.+.+.+.+.U U U I L I #.#.#.+.#XT.M ( B x C v n v ",
"F.F.4.;.L G S S Z J K 2.Q.[.{.<X[.L.G.5.4.G.L.Q._.`.`.`.[.^.Q.T.H.6.U L U U U 4.+.+.+.#.U +.U U U K +.+.$.2.#XQ.M ( B c d v z C ",
"Q.Q.)._.Q.).)._.T.Q.D.I S f q r b D K I U ;.G.U._._.Q.T.T.!.T.E.G.6.+.;.#.U U #.+.+.+.#.I +.U U K L U U +.+.#XT.Z ( B x C C d C ",
"P.).XXXX@X#XiXuXbX+X$.r 6 u q q r c f t A C J U 3.6.G.K.E.T.E.9.5.2.U U #.U U #.$.+.+.+.I U I U K L I U $.X.#XQ.M ..B f C d c Z ",
"{.XX+X#X7XuXuX#X+.f 5 5 r y t t f c f D U I L U 3.G.G.L.Q.^.R.L.5.5.2.U U U #.#.$.+.+.+.T +.I I L L I U #.+.+XQ.N  .( V C C c Z ",
"XXXX+X7X7X+X$.w 5 7 u k V Z S J S S K F.G.4.G.L.L.~.Q.'.XX#X3XoXH.I.6.U U I #.#.+.+.+.+.I U I I J L K U +.X.+X!.M  .( f C d f C ",
"{.#X%X.XY 7 ; 9 q r d S F X.9.T.Q.8.G.H.H.U.Q._..X.X@X3X4X5X5XeX).Q.5.I I +.U +.+.+.Y +.U I I I K L L K L $.+XQ.b  .F b b V f C ",
"7X%XF.6 & 5 r w f C H @.K.XXhXJXVXQ.D.Y.'..X+X7X7XuXyXeXrXaXsXaX).U.D.#.I I U $.Y +.U U I I I I K L L K L +.XXQ.x  .F x x c f b ",
"Z z 5 & 7 r f v +.8._.uXZXHXMXiX.XH.Q.$X7XiX7XuXgXbXNXMXMXmXAXCX.X).G.I I U $.+.+.Y U U I I K K J I L U +.2.XXQ.b  .B z f V f b ",
"* & ; 8 9 9 Z J.+XnXHXJXgX+XT.I.Q..X%XiXiXVXNXSXSXJXHXKXKXPXPXHX$X+XU.U I I U D U U U U X.I I T L I L U U +.+XQ.M  .F x C V d b ",
"& > 7 7 7 w H.MXJXmX+XP.G.G.T._.#X7XiXbXMXJXPXUXIXLXIXIXIXIXKXIX#X$XL.K U +.$.F.+.+.U +.I I I I K K K U U +.XX).x  .B d v C v b ",
"& > > 7 7 6 J Q.I.G.3.5.L.).'.XX#XVXBXHXIXIXIXPXIXIXIXBX%XQ.H.Y.L._.L.L I U U +.#.+.+.U +.T I K K K U ;.$.+.XXQ.v ..B s f C v v ",
"5 q 5 5 6 q t z S U 5.H.Q.^.+XuXNXHXPXUXIXUXIXIXUXHX'.v < ; < - - e H +.I U +.+.Y +.Y +.U I T K K K I Y 4.#.XXQ.x  .B f c c f x ",
"7 q 6 u q q c Z #.G.Y.~.XX#XuXmXSXLXKXIXIXUXUXGXGX+X< 2 ' ) ( 2 ; * ; G U +.Y +.+.U I I I I K I K K L U U +.XX^.f ..B f f V f x ",
"t C f C b D $.G.P.~.'.+X3XuXgXgXmXmXAXSXSXSXSXJXBXF w ( g.M.c.w.O.~ < t Y X.X.+.K L K L K J K J K H K U U I +X).c ) m z z z d v ",
"z C Z +.G.L.Q.'.{.+X@X%XyXyXpXpXdXhXmXMXMXMXBXSXNXo.p &.N.M.f.l.B.h.[ B I U $.Y U U L K K J G J G G J L I K .X).d  .h f c z d c ",
"f H J.T._.^.XXXX1X5X4XeXpXpXpXpXgXbXNXMXSXBXSXGXNXB B n.N.n.d.l.k.f.e.( U U U Y L L K K J J J G G K K I I U XX).f ) h c f z d f ",
"I.Q.OX[.XX#X7X3X3XrXyXyXsXgXbXMXSXJXGXGXKXLXPXPXhX` O.m.n.&.{ q.h.| ` N I L K I L J K J J J K J G J J K K L XXT.c  .m f f z s c ",
"XXXX{.!.U.3XyXpXlXNXMXBXJXGXHXLXPXUXLXIXIXIXIXUX;Xn.w.m.B.*.| k.n._ ' o.T L P I L L K J J J J G G H K I U L {.P.d ) m s f z s z ",
"E.+.c s G dXkXmXMXJXJXJXGXHXGXGXHXGXGXKXKXKXKXGX*Xk.n.M.N.j.d.*Xn.| ] $.I ;.I Y L J L J J K J J H J K I L K {.P.c ) d t y f s f ",
"8 8 6 e S gXCXxXkXkXkXmXmXmXmXmXmXAXAXSXAXSXSXSX>Xd.&.M.N.B.B.n.k.j.u...L Y U Y K J J J J J J J G b G J J G ).0.f ) d z t f p z ",
"r z n t n yXgXsXsXlXsXsXxXxXxXkXhXmXmXCXCXmXCXmX6Xr.( t.N.B.a.{ [ w.t.H J P J J L L J J G G G Z G S G L L K `.K.f ) m z t z s k ",
"> 6 r q s 4XgXaXsXsXsXsXsXaXsXkXxXxXCXmXkXmXCXhXxX*X/ / *.j.} | ] *.3.H H K L G K J G J K G J J J S G L L K '.L.f v d h f g d l ",
"z q 9 q z #XpXaXrXrXaXrXrXaXsXsXhXkXkXkXjXcX6X;X>XM.{ _ &.n.=.^ -.` 2 S L K J K J K J Z S G J J J S G L K K '.L.V z g ~ f e y d ",
"F.Z t c b 3XrXsXaXaXrXsXsXaXtXsXaXlXkXkXxXrX>Xl.B.g.{ / ~ *.*.=.] ~ < A Y J K J K J J G S J S S J J G H G H _.H.f c x a p s f s ",
"I Z V S H rXlXxXlXsXaXtXtXtXrXrXzXlXaXaXaX,XM.f.j.w.&.2 : 3 / ^ j : < L D K K G G Z G G S S S D H S G K K G _.J.g f x p w s s f ",
"I J A J K eXsXlXlXsXaXtXrXrXrXrXtXaXaXaXaX;Xm.d.{ e.O.2 = = - $ * $ 0 J.G J G G L K G G Z G G G S S S K H J _.I.k q p j i e e f ",
"A Z J F.6.iXsXxXlXsXrXtXaXsXsXsXsXlXmXCXkX;Xt.{ | g.n.[ 3 = * % * ; p XXI.2.S J G Z Z Z G G Z S S S H H H J _.H.z g a ! R ^ h z ",
"U 4.U.$X+XgXsXrXsXrXrXtXaXaXaXtXkXmXmXxX6X=Xt.q.y.=Xm.n.*.~ : : 2 j B 8X+X&XG.5.K G Z C Z S S Z S S J S S G _.G.r h j 3 E Q -.d ",
"I F.'..X).3XyXeX4X4XeXeX4XeX4XeXyXpXsXrX-Xm.d.} R.8X6Xw.d.{ ] ] } ] r.$X$X.X7X3X$X'.D.L J S S S D S J S S S Q.H.w i 2 3 E W -.~ ",
"b b G K S [.3X X1X5X1X5X5X5X1X3X1X1X9X X=XM.*.r.].9XdX<Xy.*.} a.} e.[.#X8X1X2X7X4XpXpX#X#.Z G S A Z S D D Z ).8.0 i 2 3 R W W ! ",
"H G K U M T.}.1X}.oX X1X1X1X@XoX X2X8X:X=Xn.j.W.<X7X8X1X*X*Xj.w.m.;X7X7X7X9X0XVXaXpXdXgX{.K C J b Z A Z G N _.G.0 i i 3 R E R i ",
"7.K.L.5.S Q.XX].[.{.}.oX@X X}.}.1X8XpX;Xy.k.n.-X7X7X7X7X2X<X=X*X5X4X8XdXpX6X9XfXdXhXhXhXhXQ.Z S Z Z Z Z Z Z ).6.e g i 3 3 3 2 a ",
"(.T.L.$.S L.{.].[.[.{. X1X@X}.{.3XiXpX;Xm.B.n. X0X8X8X7X8X0X9X4X4XdXbXdXpXfXfXdXdXhXhXhXhXdX4.C A Z A Z A Z ).D.q r e < e p e z ",
"E.L.6.2.J P.{.`.`.`.[.XX@XXX}.@XpXgXpX>XM.k.n.:X8X8X8X8X8X0XuXdXpXdXhXpXfXpXdXdXnXhXhXxXdXbX_.S A Z Z Z Z b ).D.t f s g h g r k ",
"0.D.L x s H.XX'.`.`.[.XX X{.}.2XgXsX6XM.v.h.n.1X8X4X3X8X8X8XdXgXhXpXpXpXhX8X8XVXhXhXhXfXdXdX8XH C C Z Z Z Z ).D.q 9 8 6 < , 6 9 ",
"#.X.G m m 7._.[.].`.[.{.{.{.{.@XhXpX;XB.x.f.n.<X0X8X4X8XpX9XpXgXhXhXpXpXdXdXdXdXfXhXdXpXdXdXnX8.Z v b b b b Q.4.O X o X o o O O ",
"t b N m m 7.[.`.`._.`.[.{._.[.+XhXrX>XB.f.z.t.<X8X8X3X7XdXpXpXhXgXdX8XdXdXdX9XfXfXfXgX8XyXdXdX}.S v v c b v Y.J     o o     . . ",
"8.7.9.7.O.0.[.`.!.[.[.+X1X_.'.oXgX>XN.z.z.j.j.-X8X8X8X9X0XpXpXdXdXdXpXdXdXdXfXhXfXdXiXyX9XdXhX5XY C M f C C I.V   o             ",
"yXyX1X|.O.T.{.[.[.{.^.`.[.T.T.}.rXm.c.l.c.f.t.-X8X9X8X8XpXpX9XpXpXpX9XpXdXdXhXdXdXfX6X5XpXfXfXbX@.x C V x z I.y                 ",
" X2X5X2X7.T._.R.!._.Q._.[.P.T.].=XM.c.c.l.d.e.|.5X9X8X8X8XpX8XpXpX8X8XpXdXdXhXfXgX8X3X<XpXbX8X[.u.M V f c s F.u                 ",
"0.3.8.G.S X.K.L.L.R.T.Q.!.Q.L.W.N.M.v.h.d.q.e.W.oX5X4X8XyX9X8XdX8X9X8X8XpXdXdXdXrXuX#X.XiX+XW.m.h.o.c v x z #.5                 ",
"M b 4.H.I U H.J.H.K.J.K.P.I.6.y.c.c.v.h.d.d.e.t.!.:X2X5X8X8X8XdXpXpX4X8X8XpXpXpX5X6X@X8.0.y.m.x.s.t.v z x f #.&           o     ",
"P.).'.).S J 5.$.5.6.8.F.D.5.3.t.c.l.l.n.d.} &.r.R.[.1X4X8X5X8XdXpX8X8X8X4X8X8X8XyX5X/.( &.q.a.c.s.m.( s z v #.*         X O O X ",
"'.#X$X&Xn G 4.4.Y $.2.6.F.Y X.t.v.c.d.j.*.{ &.%.!.].<X5X8X4X9X8XdXdXpX9XpX9XyX9X0XuX@X' ] q.l.a.s.c.` d V f +.%         + % % % ",
"(. X X0.d b +.U ;.L U 4.Y I o.y.v.z.1.} } { r.%.].!.oX5X8X9XdX9XpXpXdXdXpXpXdXpXdXdX$XG ) { a.1.c.x.e.p k d H O       . + O O O ",
";.4.U K t Z +.K I K I $.+.K X.7.B.f.1.{ [ *.r.8.!.].[.1XpXpX9XdXpXdXdXfXfXfXfXdX9XgX'.d M  .} 1.x.b.l.x g h  .O                 ",
"t t t e t x K J I I I #.#.K G L n.j.d.} *.t.W.!.[.[.}.1X9XdXpXdXdXdXdXhXhXhXdXfXpXsX).F d ( [ a.M.b.z.m h a ( o o     .   . X + ",
"K G b s z c L U I I U U +.I D J  .O.*.*.&.9.].oX[.oX-XoX2XpXdXdXfXdXdXhXfXdXdXdXfXpX[.d c B e.s.f.x.d./ h 0 f O   . . X X X .   ",
"P.I.2.G S K +.S S D D J J D S C V F  . .G J _.7XXXoXoX<X<X8XdXfXfXfXhXdXhXdXdXdXfXyX2XK n x w.k.b.x.d.a h w y + X X . . .       ",
"6.6.;.c > , f c v C Z C Z V V V V C C Z A Z ~.7X5X1X1X1X1X5XdXhXhXhXhXfXhXhXhXfXfXhXpX`.n m e.b.c.s.q.~ h w q O . . o           ",
"n z z k , 6 f c f V C C Z V V A C V V A T Z L.dX8X8X4X4X2X2X8XhXhXhXnXhXnXhXhXhXfXsXdXdX5.B q.x.x.l.e.3 p w e O O # * & 6 v L 5.",
"s w q 6 > , k v c C C C Z Z V C C C V f V C J.hXdXdXpX9X0X9X8XdXhXhXhXhXhXhXhXhXFXgXhXdXoX_ g.s.x.f.[ ( S 0 U 8.I.P.).{.+X2X1X1X",
"w w q > , q n c V Z C Z A Z C C V Z V C A Z 6.gXhXnXhXhXFXhXdXfXnXnXnXnXnXnXnXhXfXkXhXhX4XO.f.a.f.h./ 2 e 8 L. X_._._._.].R.E.E.",
"G b e 0 0 , b d c C M G G Z C C Z f b f Z V ~.nXnXhXnXFXnXMXFXFXgXFXMXnXnXnXFXnXbXfXjXxX{...m.a.s.n.M p p u o.K.;.;.6.T.0.6.D.H.",
"X.X.J G S x $.@.D S S S S Z Z C Z f x c V A ~.ZXAXMXnXbXAXnXmXCXmXhXhXCXAXCXxXhXmXxX<XX.K ' g.s.d.*XnXOXy.Q.T.6.6.H._. X0.P I Y ",
"+.X.X.+.X.K 8.6.L G S S S G S A V c c c f V D Q.uXMXSXMXnXAXCXmXmXmXkXhXkXgX8X{.7.5.M x 7.e.v.b.m.cXS.C.Z.A.qXi.p.A.qXeXU x e > ",
"X.K H H K K $.o.$.#.X.+.X.K G b Z v c z V V C G.4.$.J.+X_.`.9.$.#.#.4.#.D w > & ; M 4.Q.W.m.v.x.1.y.i.<.>.>.,.,.>.,.:.C.p.o.T 4 ",
"6.3.3.3.K H o.+.L 4.J.G.5.+.K K D Z b v Z Z 2.#X@X).G.$.6 ; @ + O O @ O + @ 8 K 7.I.`.R.u.N.v.M.m.u.A.>.>.,.C.Z.Z.A.vXqXi.5.T.i.",
"K.K.L.L.X.H L +.$.o.K +.8.8.5.L K M F Z Z v G.3X4X7XoXQ.~.~.H.#.o.F f s G J.`.[.{.|.|.W.m.v.v.N.,XtXzXA.<.<.S.vXxXqXi.`.OX2X].`.",
"P.T.T.P.2.K o.+.+.@.@.+.L X.3.3.3.L H G J J '.2X1X2X#XXXoXXXOX+X}.{.{.XX{.].[.}.`.|.W.m.N.N.N.l.|.7XzXzXwXS.Z.qX X0.w > w 9 7 r ",
"L.(.T.(.3.H +.@.4.3.3.2.3.3.2.2.+.5.7.2.X.H.#X@X<XoXoXoX{.XX{.[.[.{.{.`.!.T.T.T.P.r.m.M.N.N.M.m.J 3.P.).|.uXxXtXtXeX2X{.0.2.J T "
};
