/* XPM */
static char *waka24_jpg[] = {
/* columns rows colors chars-per-pixel */
"64 64 256 2 ",
"   c #010202",
".  c #06090C",
"X  c #0C0C0D",
"o  c #080609",
"O  c #191917",
"+  c #110F0F",
"@  c #211C1B",
"#  c #2B231C",
"$  c #2A2725",
"%  c #352A26",
"&  c #3A342E",
"*  c #3C3935",
"=  c #473429",
"-  c #433D39",
";  c #4F352A",
":  c #7F3E38",
">  c #44423E",
",  c #4D463A",
"<  c #5B4739",
"1  c #5B422C",
"2  c #6A483C",
"3  c #77453C",
"4  c #7B573F",
"5  c #6F6E35",
"6  c #3D4341",
"7  c #464441",
"8  c #4A4643",
"9  c #4D4A45",
"0  c #4D4B49",
"q  c #554D47",
"w  c #55534C",
"e  c #5B554C",
"r  c #5C594D",
"t  c #575143",
"y  c #5A5651",
"u  c #5D5B53",
"i  c #595954",
"p  c #4F5A52",
"a  c #674944",
"s  c #794A4B",
"d  c #65564A",
"f  c #73594A",
"g  c #635C54",
"h  c #635E59",
"j  c #6A5953",
"k  c #755D54",
"l  c #765E57",
"z  c #5C6358",
"x  c #636155",
"c  c #65625C",
"v  c #6A655C",
"b  c #6A665A",
"n  c #72655B",
"m  c #786659",
"M  c #76745F",
"N  c #666461",
"B  c #6A6661",
"V  c #6D6A63",
"C  c #6C6A69",
"Z  c #736D64",
"A  c #7B6D66",
"S  c #746E69",
"D  c #796A66",
"F  c #757166",
"G  c #7A7166",
"H  c #75726B",
"J  c #7B746C",
"K  c #7D796E",
"L  c #7B7671",
"P  c #7E7972",
"I  c #7A7777",
"U  c #6A726C",
"Y  c #586063",
"T  c #8E3A36",
"R  c #B22F36",
"E  c #884E3E",
"W  c #9B3E44",
"Q  c #8A5A4A",
"!  c #8F5A52",
"~  c #8A665A",
"^  c #966B58",
"/  c #997157",
"(  c #AB745B",
")  c #AB7759",
"_  c #B6775A",
"`  c #A66851",
"'  c #8B6964",
"]  c #866A63",
"[  c #936D66",
"{  c #81796E",
"}  c #867669",
"|  c #967766",
" . c #827C74",
".. c #8A7E74",
"X. c #847E7A",
"o. c #887F78",
"O. c #9B7F71",
"+. c #A77A66",
"@. c #B57A64",
"#. c #AF4343",
"$. c #C77E6A",
"%. c #CBD411",
"&. c #CED52D",
"*. c #CDE014",
"=. c #B3895B",
"-. c #868175",
";. c #8A8276",
":. c #86827A",
">. c #8B847B",
",. c #8E897D",
"<. c #928A7E",
"1. c #978778",
"2. c #98947C",
"3. c #B98568",
"4. c #A88877",
"5. c #B88974",
"6. c #BA9679",
"7. c #AA896B",
"8. c #B3AE74",
"9. c #A4A65B",
"0. c #C5855E",
"q. c #D28B5F",
"w. c #C48B6B",
"e. c #CC8C6B",
"r. c #C78866",
"t. c #D48A6A",
"y. c #CA936B",
"u. c #D4946D",
"i. c #D8976B",
"p. c #CC8D73",
"a. c #C48A75",
"s. c #D58D73",
"d. c #C89478",
"f. c #D59473",
"g. c #D59A73",
"h. c #D89878",
"j. c #CFA574",
"k. c #E3987B",
"l. c #D1D654",
"z. c #D8D569",
"x. c #D8D475",
"c. c #E4D85C",
"v. c #857983",
"b. c #8E8A82",
"n. c #8C8683",
"m. c #948C83",
"M. c #968D85",
"N. c #959085",
"B. c #9A9285",
"V. c #96938A",
"C. c #9C958B",
"Z. c #9E9A8D",
"A. c #9F9986",
"S. c #9D9994",
"D. c #8F9082",
"F. c #A1968B",
"G. c #A39A8E",
"H. c #A79788",
"J. c #B99986",
"K. c #A49C92",
"L. c #AB9E94",
"P. c #A69D9A",
"I. c #B49F96",
"U. c #A7A28D",
"Y. c #A5A296",
"T. c #ABA295",
"R. c #A5A49B",
"E. c #ABA49A",
"W. c #AFAA9D",
"Q. c #AAAB98",
"!. c #B3A296",
"~. c #B2A69B",
"^. c #B4AA9D",
"/. c #BAAB9E",
"(. c #B6A796",
"). c #BAB499",
"_. c #B6AF88",
"`. c #B4ACA2",
"'. c #BAADA2",
"]. c #B9A7A3",
"[. c #B6B0A3",
"{. c #BCB2A4",
"}. c #BDB5AA",
"|. c #B9B7AB",
" X c #B4B3AB",
".X c #9DA8A4",
"XX c #CB9B85",
"oX c #D69A84",
"OX c #C7A58B",
"+X c #D6A38B",
"@X c #C7A996",
"#X c #D5A996",
"$X c #C8B39D",
"%X c #D1B299",
"&X c #C4ADA2",
"*X c #C2B3A5",
"=X c #C4B9A6",
"-X c #CBBBA5",
";X c #C3B6A9",
":X c #CAB5AC",
">X c #C4BAAC",
",X c #CBBCAC",
"<X c #CBB5A2",
"1X c #D3B7A8",
"2X c #C4BDB1",
"3X c #CCBEB2",
"4X c #C2B7B3",
"5X c #D1BEB3",
"6X c #E29F89",
"7X c #CEC891",
"8X c #E5E18F",
"9X c #CCC1AD",
"0X c #CAC4A6",
"qX c #D2C4AC",
"wX c #D4CAAF",
"eX c #DCC1AE",
"rX c #CCC2B3",
"tX c #CCC4BA",
"yX c #C9C7B6",
"uX c #D2C4B4",
"iX c #D6CAB3",
"pX c #D9CCB4",
"aX c #D5C6BA",
"sX c #D5CBBB",
"dX c #DACCBC",
"fX c #D9C5B9",
"gX c #DDD2BC",
"hX c #D8D2B7",
"jX c #D2D1A9",
"kX c #E1D4BE",
"lX c #E0CFBD",
"zX c #E8E1A3",
"xX c #D4CDC2",
"cX c #DCCEC1",
"vX c #D4CCCA",
"bX c #DDD2C3",
"nX c #DCD5C9",
"mX c #DDD9CD",
"MX c #D7D1C3",
"NX c #DDD9D2",
"BX c #CFCAC4",
"VX c #E1D4C4",
"CX c #E2DACC",
"ZX c #E3D8C9",
"AX c #E3DDD3",
"SX c #E4DDD7",
"DX c #E5E0D5",
"FX c #E6E3DB",
"GX c #E9E4DD",
"HX c #E8E1D6",
"JX c #E6E5E3",
"KX c #EAE7E2",
"LX c #EAE9E5",
"PX c #EBEBEB",
"IX c #E9E7E8",
"UX c #F2ECEE",
/* pixels */
"R. X X XW.n.L  .{ >.B.M.K.K.C.C.B.m.n.X.L H V N V i w 0 7 8 7 7 i J V V J L L  . . .{ P  .L { J  .L {  .o...L.:XS v [ B B B v z ",
" X XW.S.b.n.n.M.K.L.}.>X3X:X,X3X>X^.F.C.b.n.P A P B h g q 0 8 7 c L F K P  .P  . . . . . .I I L I P I  . ...L.2XA n ' b b v c r ",
"Y.b.I L J X.,.b.m.V.K.T.(.,X5X<XuX/.B.N.-.>.>.B.M.M.B.B.b. .J v K :.P K  . .-. . .X.{  . .I  .P { P  .I  . .K.2XG n ' v b c c u ",
"b.K L J G S Z S J J  .<.G.*X,X1X,X~.M.>.K -.<.B.C.L.L.~.~.E.~.G.b.,.P K P P  . . .X. .I I {  .L L L L  . . .K.4XK n ' v b c c x ",
"V.Z.K.C.B.M.>.,. .o. .J K  .A S o. .:.:.:.>.C.K.T.^.L.L.L.H.H.B.B.,. .K P  . .P X.X. . .P P P L L L L L X. .K.}.G n ' v v v h g ",
"Z.K.Y.E.`.{.}.2XtXtXR.L i y 0 q q u B c N h S  .>.B.B.V.G.G.H.H.,.-.{ K -. .:.P X.X. . .I P P L { L L L  . .K.}.A n ' v v h h g ",
"Y.E. X4X>X2XtXaX>Xm.g 7 0 w w i c c z c H S S K o.>.,.m.C.G.G.G.>.-.:.P :.:.P P X.X. .P -.P P L L { L L  . .G.;XG n ' v v h h g ",
"W.`.`.}.>XyX*X<.r , 9 w h h v n B B B I n.:. .,.b.N.C.Z.E.^.~.`.<.b.n.P :.P P I X.X.I P P P P J J J L L L K F.}.J n ' b B h h g ",
"`.[.[.>X}.>.y 8 9 w y h v D } ..;. .>.V.n.n.V.C.E.Q.W.^.>X=X>X0X`.B.B. . . .L I  . . . .P L L L G J J J K  .Z.|.G m [ n v h h u ",
"}.|.|.>.w - 8 w w h v G o.<.W.,XnXE.m.V.S.R.W.[.{.}.}.>X9XrX9XrX'.N.M. . . .L  .X.X. .K L L L L G J J J P  .C.>X} n [ b v c h g ",
"Y.V.S * * 7 q g V K o.F.}.nXAXHXtXY.N.Y.`.|.>XyX9XyXsXsXsXMXgXMX|.Z.S. .L  .L L { I  .{ L P K H J J J P K  .C.>XG n [ b v c h u ",
"- & 7 - 0 w g S <.`.xXAXHXnX>XY.S.S.R.|.yXtXsXxXMXmXCXAXHXGXFXJXtXR.E.:.P  .I  . . . .I K J J L J J J K K  .C.}.K n [ b v c x u ",
"* * > 0 8 0 v `.CXAXnXtX`.V.N.Z.Y.[.rXyXxXmXSXFXJXLXLXPXPXPXPXPXmX[.`.X.K L L L  .L L I { J J L J J J P K  .C.}.G n [ x v c c g ",
"& > * > 7 q c }.3X[.C.,.<.m.S.W.[.rXBXmXFXKXUXPXPXPXPXPXPXPXPXPXNXR.R. .P P  . .X. .L  .P P J G G J G J  . .C.;XA l ~ g v N c x ",
"9 > > 0 > 8 w v H K P >.C.R.`.[.tXnXFXPXPXPXIXPXPXPXPXPXPXLXLXLXxXS.R.P H Z V Z L I  .L G J J J G G J I  . .Z.>XG b ' j c N c u ",
"8 0 0 9 q q y g Z  .m.K.P.W.|.tXnXGXLXIXPXPXPXLXJXJXFXFXFXFXDXDXBXS.W.J r - % & & y L I J K J A A G J  .P  .C.2XG j ~ g x u g u ",
"i i u u i h V { m.V.K.R./.>XrXpXbXbXmXAXDXDXDXAXDXAXAXDXFXFXFXFXvXS.b.q q , < a 2 - 0 J H H S { L J S L L K V.yXS l ~ r h j x y ",
"v B n S K b.M.K.P.W. X}.>X3XrXuXdXgXgXnXmXCXCXCXmXDXAXAXDXAXDXAXMX;.j ~ +.3.3.t.f.) < n S G J H J J H P P K V.|.H k ~ u h j x i ",
"v j Z >.K.P.P.`.'.}.:X,XyXuXrXrXsXsXgXnXnXmXAXAXDXDXNXAXNXAXNXmXxX} Q oXk.i.g.i.q.y.f d H G H H Z H S L P K V.|.H k ~ g g g u y ",
"A >.L.L.W.~.}.;X>X>X9X9XrXsXsXsXMXbXNXDXFXFXGXGXKXKXGXFXFXGXGXLXnX} +.6Xh.u.g.e.) @.~ q H L A H H J S L J J N.}.S k ~ g x g u w ",
"~.E.`.{.^.;X>X3XtXaXsXMXnXCXCXDXGXLXLXLXLXPXPXPXPXPXLXLXLXPXUXUXNX{ | XX3.@.d.s.3.+.+.d H A L S H J H J J K V.}.S k ~ z h d u w ",
"`.E.b.P g ~.sXdXnXZXAXSXGXGXKXLXGXGXLXJXLXLXLXLXJXKXJXJXKXKXKXKXNX:.} XX3.` e.t.r.$.p.| } A J H F H Z J K K B.}.Z f ~ u h r u y ",
"v u 9 u e {.ZXZXZXAXAXCXCXAXmXmXDXCXDXDXDXFXDXDXAXAXAXAXSXAXHXAXmX1.[ +Xf.t.f.s.s.f.h._ +.K J H H H H J G H ,.Q.V k ~ u g r r y ",
"y w y i q T.VXpXwXwXpXpXhXkXgXgXbXgXgXbXZXZXnXMXVXVXVXbXbXVXZXVXsX2.5.h.oXh.a.@._ p.h.` +.A U J F F Z H G G M.^.V l ~ z h d z i ",
"8 y i N q G.aXpXsXuXiXiXpXhXgXgXgXkXgXbXgXgXgXgXgXbXgXkXkXkXkXkXwX4.3.t.oXp.$._ _ _ @.2 ] D Z Z S A S K P K m.`.Z j k k z u g e ",
"0 0 7 w 9 G.9X9XuXwXwXwXiXpXsXsXhXgXgXkXkXgXgXgXhXgXgXgXlXkXkXkXpXH.5.` / f.$._ _ 3.Q = j { F H J S S J K J b.`.Z z j k j r g w ",
"V.H y i t G.sXpXiXiXwXuXiXpXiXiXpXpXgXgXgXgXgXgXgXhXpXiXpXpXpXpXrXH.I.f 2 | s.$.^ ^ ; = g L C C S H Z J G H m.`.V r d x s r r w ",
"M.H h B x Y.iXgXhXhXiXwXpXiXuXuXpXpXpXiXpXhXpXpXpXpXpXpXpXpXpXpXrXB.H.m = < Q s ; ; # % y S S S S S S J J F b.W.D z j d s d j w ",
":.S V H F Y.sXpXgXpXwXwXwXeXqXqXsXuXiXiXpXiXpXiXiXpXpXpXpXpXpXdXsXV.I.[ , = = % # % # & i S Z n S Z Z J H F <.W.Z u g p s d u t ",
"L C C I J Q.pXkXgXpXwXwXwXpXwXiXpXhXhXgXgXhXpXpXdXpXpXpXpXpXpXpXqXC.*XH.2 ; & & % = 2 l V H Z G Z S Z H F F ,.W.N h g e T s d w ",
"J U :.S.C.{.sXiXwXwXwXwXwXwXpXiXpXgXgXgXhXpXiXpXpXpXpXiXwXpXpXpXrXW.yXOX+./ Q a 2 ^ 4.H.G C V Z Z Z V S S Z ,.W.n e s T T R #.d ",
"I :.S.|.|.yXsXqXqXqXqXqXqXqXqXqXsXsXgXsX9X,X9XqXqXqXqX1X-X-X-X-X X.X5X1Xd.t.r.@._ w.@.XX2.U N H Z Z V Z V M >.~.x t 2 3 T R #.Q ",
"H H J :.P N.0X}.=X;X*X-X,X9X=X>X>X,X>X-X,X,X=X>X,X3XyX>X,X-X*X4XXXoXh.h.a.e.s.w.=.t.$.J.}.J B V V V C V H V ;.W.z a < a T R R T ",
"c v B J b o.{.*X).{.).*X=X=X{.{.{.).[.{.{.{.{.-X3X,X,XtX>X:X1X@Xh.XXOX<X@XXXt.y.y.r.@.J.>X:.Z B V V C V b Z ,.E.b a a 2 3 R R T ",
"M.M.,.,.G >.`.!./.^.^.).*X{.'.^./.(./.}.'.^.{.>X,XsX:X5XaX(.d.g.u.w.OX3XrX-Xj.u.w.u.XX-XtXR.n.A V v v C B V >.R.b q a 3 3 E : 2 ",
"H.F.F.,.Z -.^.'.~.~.^./.*X{.^.`.[.(.^.^.~.[.>XuX,XsXaX:X1XoXf.e.s.$.XX1XaX1Xd.f.u.f.XX<XyX2X2X3XY.,.H c V V >.E.c t e < 2 2 a w ",
"U.U.Z.D. .,.^.T.E.~.~./.{.{.^.^.(.(.^.^.~.{.rXiXrX,X1X#X+Xf.@.r.3.J.,X4X,X1XoXp.u.e.w.#XuXtX3XfXsX>XZ.v V V >.Q.B i u d f d y w ",
"A.2.,.Z g F Y.^.P.T.E.^.).[.`.^.^.^.^.[.{.3XsXfXsX<X+XXXd.( E _ 7.OXqX}.2X,XOX_ _ ) 3.d.qXMXfXfXdXMX4XJ V B :.Y.B p y d s w 0 0 ",
"2.-.-.v n G L.T.T.W.T.~././.^.~.'.(.~.^.>XfXfXfX%XXX+Xy.@.( ` ( 3.@.a.oX#X@Xd.t.0.r.s.f.#XpXsXfXdXcXfXm.v B ,.W.8 @ O O O O @ $ ",
"b j A n D ] L.I.E.T.Y.W.^.^.T.T.T.T.W.{.dXdX1X&Xh.p.3.) ) @.+.4.J.5.e.$.t.r.s.s.h.e.g.e.d.<XyXcXdXlXcX~.Z v  .E.%     o   .   X ",
"n G G } ~ ' U.T.I.T.T.'.>XR.W.R.R.R.W.[.yX1X+Xh.t.r.+.4.}.`.~./.J.J.J.J.XXOXXXXX4.3.@.3.p.XX5XsXpXfXlXtXJ x K Z.O               ",
"=X{.{./.4.O.!.^.^.^.~.(.'.Y.Y.K.U.J.a.6.6.OXh.u.r.@.4.I.^.'.&X].].P.!.I.!.$X@X@X@XXX3.3.e.p.#XpXsXbXsXtXK c P B.O               ",
"0X0XrX=XH.1.~.E.E.Y.T.T.E.K.H.H.6.y.u.i.i.u.y.y.@.7.1.I.I.^.]./.;X'.'.'.&X&X$X,X-X/.J.6.y.e.d.1XxXcXsXtXL z K -.X               ",
"T.A.A.Z...} V.V.F.Z.F.L.K.K.H.J.g.f.s.g.j.u.w.r.+.4...B.I.I.I.;X:X:X:X:X&X&X'.:X=X*X*XXXg.u.d.+X<X@X<X&XJ x U P o               ",
"J b F N.X.Z B.C.B.N.A.G.F.F.J.OXh.h.g.y.y.e.r.@.| ..b.K.!.I.*X:X:X3X3X,X>X{.{.;X-X;X*XOXf.u.u.d.6.5.d.J.} d U H o           o   ",
"m.:.B.E.:.B -.>.m.>.,.<.N.<.6.h.g.i.i.u.e.0.@.+.1...M.K.^.!.*X}.;X3XrX2X>X>X>X>X1X:X&X%Xy.e.u.r.p.y.y.6.7.f F c           X + X ",
"W.[.{.`.H v :.-.X. .-.o.:.;.6.f.i.u.e.e.$._ +.m.m.F.C.G.^././.&X,X,X3XaXrX,X3X:X,X,X*X$XXXw.e.e.r.y.0.q.6.m G i         . @ @ O ",
"U.Q.)./.Z c P  .P P P  .:. .d.h.u.y.w.@._ +.| L >.K.I./.'.=X,X5XaX3X:XaXuX:X:X:X,XrX>X/.J.a.$.r.r.e.q.0.3.^ D w         . O $ O ",
"b.C.C.>.b x J I  . .K I :.1.5.i.w._ _ ( +.|  .L -.'.(.*X:X5XuXuX>XaXfXfX5X5X5X3X,X3X:X&X4.7.3.0.0.r.0.0.y.@.~ >           o o o ",
"r x c x g u  .L L L L I :.o.7.e.@.` ` ~ ' G L H N.}.;X3X3X,X5XqXsXcXcXdXuXaXaXtX>X3X:X@X4.3.3._ _ 3.w.r.y.r.| 6             o o ",
"K x r r r w H J I L J P X. .O.+.` ! ' ] K H U :.'.2X3X3XaXaXdXcXcXcXdXdXaXaXdXaXrX,X;X*X4.| ( @._ ) =.3.t._ m 6   . . . . . . X ",
"Z.>.>.F b H K J S S H J L L G ~ m A D V S S S ].sXaXaXfXcXcXcXbXcXcXcXdXfXaXaXaXfXuX*X/.H.] ~ +.) =._ ` =.) n * . . o o   .     ",
"V.,.>.F r u c V C v V V V C B v c U N U C S { 3XsXaXcXcXVXcXcXxXcXcXcXcXaXaXaXsXdXfX:X!.G.A k ' ^ ` ` _ 3.~ g * o o . o         ",
"-.F F c 0 & w c c c c v B B N N c Y C S C S C.MXcXcXcXcXcXbXVXVXnXdXcXcXfXfXfXcXdXlX;X~.K.S g A ~ ~ ( ( ~ e w # X X X O @ % > 9 ",
", r r 0 , * u c c c N N B C N C B N V N N B P.xXdXbXbXsXcXcXcXcXVXcXcXcXfXfXdXcXlXdX,X'.m.z Y I } f ~ ~ ~ r z F C H -.B.Y.^.[.}.",
"w p w 8 7 8 i N c c C C B B h N N C c z V H M.I.L.3XbXbXnXcXbXdXVXcXcXcXcXdXVXcXbXcX,X].J Y Y U -.z r t m t x ^.^.^.~.Q.).(.Q.(.",
"V x w 0 8 8 g v N C b V C b U c B z C N b m.V.P.V j C.nXcXcXcXcXcXdXVXbXbXVXnXbXfX3X2XS.x x ,.U._.F V 1 2 , c U.N.,. .R.2.B.m.N.",
"K H Z B g y v F F V b Z F C V C B c c u m.3X}.E.P c v F.tXcXbXbXZXVXbXcXdXdXuX3X,X=X;Xo.u b Y.jX).K.2XS.G.K -.>.;.v.v.Q.2. .-.X.",
">.-.-.-.o.K >.m.-.F Z Z F Z V Z v N c c E.3X>X'.`.K.X. .M.o.F.]./.:XdXsXuX3X,X-X=X9X;X,.-.C.^.).OXqXnX8Xz.x.7X@X8.8.9.hXL. .x j ",
"-.K F G A S { ;.>.{ K { J J Z Z V c c G ;X;X{.{.'.`.L.Z. .& & * q b M.'.yXsXsXsXrXrX3X3XtX9X)._.j.j.j.&.&.*.l.&.%.%.&.z.8.{ v t ",
",.-.K K } Z G { { { <.<.;.{ K K Z n b m.3X3X*X/./.'.E.L.K.b.v % + @ * - 0 A C.~.[.^.;XuXyXhX7X_.9.9.9.&.*.%.&.c.c.z.8Xz.l._.,.b.",
"2.N.2.2.;.G J  .;.K { -.,.M.>.J G Z Z Z.=X,X*X'.'.'.~.P.W.~.K.K.I - @ O + o O = e b F./.{.).hXjXjXrX%Xx.&.*.c.zXzX8Xz.7X;XtXB.P.",
"G.G.G.G.<.G G J { { { ;.} K >.<...G S R.3X3X'.`.^.'.^.Y.T.Y.L.~.].P.>.h q g n S M.m.T.T.,.x N.[.|.rXcXpXx.c.c.z.jX2.5 , 8 y u h ",
"C.F.C.G.<.{ { o.>.o.{ -.-.} -.-...>.;.'.,X{.F.C.L.~.'.^.T.L.^.H.G.L.`.E.R.`.^.(.R.S.U.Y.-.x u h } 2.H.^.2XjXhXhXjX).P.n.G C w - "
};
