/* XPM */
static char *waka38_jpg[] = {
/* columns rows colors chars-per-pixel */
"64 64 253 2 ",
"   c #020202",
".  c #050B0C",
"X  c #07090A",
"o  c #171616",
"O  c #0E110F",
"+  c #37241C",
"@  c #252321",
"#  c #392925",
"$  c #37332C",
"%  c #3C3734",
"&  c #473328",
"*  c #423D38",
"=  c #4E3628",
"-  c #6C3D32",
";  c #41291F",
":  c #43413D",
">  c #49443C",
",  c #5A4637",
"<  c #674839",
"1  c #754C3A",
"2  c #4A4542",
"3  c #4D4A45",
"4  c #494745",
"5  c #564D47",
"6  c #55524C",
"7  c #5A554C",
"8  c #5C5A4E",
"9  c #565648",
"0  c #5A5651",
"q  c #5D5B54",
"w  c #595A55",
"e  c #4E594D",
"r  c #6A4A43",
"t  c #754944",
"y  c #64564B",
"u  c #675549",
"i  c #76554B",
"p  c #645D54",
"a  c #6B5E55",
"s  c #635E5A",
"d  c #685A57",
"f  c #755B53",
"g  c #5D6258",
"h  c #646255",
"j  c #6A6156",
"k  c #65625A",
"l  c #6A635C",
"z  c #6C6A5E",
"x  c #646D58",
"c  c #73665C",
"v  c #77665A",
"b  c #7A745C",
"n  c #695F64",
"m  c #6B6561",
"M  c #6D6A63",
"N  c #666764",
"B  c #726D65",
"V  c #7A6D63",
"C  c #726E69",
"Z  c #746967",
"A  c #747067",
"S  c #75726B",
"D  c #7A756D",
"F  c #7D796E",
"G  c #7A7267",
"H  c #7C7671",
"J  c #7E7973",
"K  c #7C7D78",
"L  c #6F7269",
"P  c #5A5A62",
"I  c #8D3D39",
"U  c #A83537",
"Y  c #BA2F32",
"T  c #C82F3A",
"R  c #82413D",
"E  c #855A48",
"W  c #894E4C",
"Q  c #A44948",
"!  c #8B6B5B",
"~  c #896557",
"^  c #966A59",
"/  c #97725C",
"(  c #8D634B",
")  c #AA6B54",
"_  c #AB765B",
"`  c #B37B5C",
"'  c #B8795A",
"]  c #AB6B4D",
"[  c #866763",
"{  c #82796E",
"}  c #867567",
"|  c #967A68",
" . c #827C74",
".. c #847E79",
"X. c #857973",
"o. c #936F61",
"O. c #A87A64",
"+. c #B77B63",
"@. c #C27F5A",
"#. c #BFCF0A",
"$. c #C7D809",
"%. c #CED415",
"&. c #C6D223",
"*. c #D2D233",
"=. c #D9E020",
"-. c #BD825B",
";. c #A58A5A",
":. c #88836E",
">. c #858175",
",. c #8A8276",
"<. c #868279",
"1. c #8B847B",
"2. c #8D897E",
"3. c #918A7E",
"4. c #968878",
"5. c #9B8A72",
"6. c #BC8464",
"7. c #BC8964",
"8. c #B68569",
"9. c #A78A7A",
"0. c #B78C74",
"q. c #BD9477",
"w. c #AE8D6C",
"e. c #B3A670",
"r. c #ACA459",
"t. c #C4845B",
"y. c #CB8B5C",
"u. c #C78558",
"i. c #D68B5C",
"p. c #C38462",
"a. c #CB8B63",
"s. c #C68B6D",
"d. c #C78967",
"f. c #D28C67",
"g. c #CC966B",
"h. c #D7966B",
"j. c #C98C72",
"k. c #C89477",
"l. c #D59473",
"z. c #DA9C7C",
"x. c #D89975",
"c. c #D18B72",
"v. c #E59C76",
"b. c #E3966C",
"n. c #D1A777",
"m. c #E2A27C",
"M. c #D1D550",
"N. c #D4D46E",
"B. c #DAE15D",
"V. c #8D8A81",
"C. c #898581",
"Z. c #938C83",
"A. c #988D86",
"S. c #959185",
"D. c #9B9385",
"F. c #96918A",
"G. c #9C948A",
"H. c #9D998F",
"J. c #9F9894",
"K. c #A58E87",
"L. c #A2968B",
"P. c #A39A8D",
"I. c #A79889",
"U. c #B49786",
"Y. c #A49C92",
"T. c #AB9E92",
"R. c #A19690",
"E. c #A9A28E",
"W. c #ACA295",
"Q. c #A7A29A",
"!. c #ACA49B",
"~. c #AEA99E",
"^. c #A6A196",
"/. c #B3A495",
"(. c #B2A69A",
"). c #B4AA9D",
"_. c #BAAB9D",
"`. c #B7A594",
"'. c #B8B094",
"]. c #AEAAA1",
"[. c #ADADAC",
"{. c #B4ADA3",
"}. c #BBADA3",
"|. c #B3AAA5",
" X c #BDB2A4",
".X c #BCB4AB",
"XX c #B7B5AA",
"oX c #BBB6B3",
"OX c #ACADB1",
"+X c #9C9EAA",
"@X c #C79783",
"#X c #DB9B81",
"$X c #CAA68A",
"%X c #D7A78A",
"&X c #C9AD99",
"*X c #D8AD95",
"=X c #D6B39A",
"-X c #C8B596",
";X c #C2B3A5",
":X c #C3B6AA",
">X c #C4BAAC",
",X c #CBBBAC",
"<X c #CAB8A5",
"1X c #D5BAA7",
"2X c #C4BCB3",
"3X c #CCBDB2",
"4X c #C2B8B4",
"5X c #D1BEB2",
"6X c #C6AFA1",
"7X c #E2BFA9",
"8X c #BEC1B6",
"9X c #D3CE94",
"0X c #E5E28D",
"qX c #CDC2AD",
"wX c #C7C6A9",
"eX c #D2C4AE",
"rX c #D6CBAE",
"tX c #CCC2B5",
"yX c #CDC4BA",
"uX c #CAC7BA",
"iX c #D3C3B5",
"pX c #D5CBB3",
"aX c #D9CCB3",
"sX c #D5C5BA",
"dX c #D9C6BB",
"fX c #D5CABB",
"gX c #DACABC",
"hX c #D9C5B6",
"jX c #DBD3B6",
"kX c #DCD3BC",
"lX c #D7D0B6",
"zX c #D9D5A8",
"xX c #E2D4BB",
"cX c #E3CDBD",
"vX c #D5CBC1",
"bX c #DBCDC2",
"nX c #D8C9C4",
"mX c #DCD3C3",
"MX c #DCD4C9",
"NX c #DDD8CA",
"BX c #DEDDD5",
"VX c #CEC6C2",
"CX c #E2D5C4",
"ZX c #E2DACD",
"AX c #E2D8C6",
"SX c #E3DDD3",
"DX c #E5DED7",
"FX c #E4E1D4",
"GX c #E6E3DB",
"HX c #EBEAE5",
"JX c #ECECEA",
"KX c #E8E7E5",
"LX c #EEEEEE",
/* pixels */
".X{.!.S.>.1.S.L.W.;X,X5XiXiX5XeX;XW.L.F.F...V C M k w 6 3 : 2 0 H S S S H K  . ...X.H  .H H  .H H K ..{ { 3.sXZ.m ! V m l j l l ",
"D.1.F H <.C.Z.Z.L.G.W.;X,X<X,X<X;XT.G.Z.>.X.2.S.2.Z.1. .D B s s ..H H H K  . . ..... .H H H H S H H H X. .2.tXZ.a ~ v n l j l j ",
"J F H L L C D H K >.Z.G.}.,XhXiX XD.1...>.2.S.D.P.W.!.W./.W.Y.L.V...H H K ..K  . . . .K K H  .H H H  . . .,.tX3.m ~ z m j j l s ",
"H.F.F.F.Z.1. .H D S C S A...X.3.S.V.1.1.<.S.Y.!.).)././.T.P.I.G.V.C.H J  . .H  . . . . . .H  .H H H H  . .1.2XV.n ~ B l h h j s ",
"P.Y.!.{.}.}..X2X3X.XF.l s 3 3 6 0 M M N m D 1.Z.D.H.L.E.P.P.L.D.C...H H  .K H X.........J H J D H H  .J  .1.tXV.l ! c m h h l k ",
"W.). X.X.XtXyXsX}.D 5 2 7 5 w w q k w m C A C  . .2.3.S.L.P.L.>.....H H K X.H K ....X. .J J J D D H J F F 1.tXS.m ! B n h h l h ",
"{.{. X>XuXuX!...3 2 3 0 s s N l m m M J 1.D  .Z.Z.G.G.^.W.).).D.V.C. .H .. .H  . . .J J J J K F H D H J J <.2XS.m o.b m h h l h ",
"{.{.oX>XW.D 5 > 4 w p k B A V D S  .1.A.Z.A.H.R.!.~.). X>X:X,XXXF.G.C.K  . .K  . . .J H H H H S H S D J  .>.oXF.n ! A m l h k k ",
" X4XQ.Z 4 : 2 7 p s z G X.4.).qX.XS.V.F.J.].].|..X.X<X,XqXqXtXwXR.J.<.K  .K H ....K  .H F D D F S D F H D <.2XV.c ^ Z l l l h s ",
"!.G.6 % 2 3 p s V D ,.L.>XkXZXFX}.D.H.^.]..X2XsXtXtXpXfXkXfXpXfXJ.Y.1. . .J H H  .H  .H F L D L S F S H D <.>XZ.a ^ B m j j h d ",
"$ * : 2 6 6 s X.F.}.vXSXGXAX>XP.R.L.{.oXyXyXuXfXmXNXZXSXSXFXFXNXQ.].V.J  .J H H  .J H J F D D S D D D H F <.2XZ.m ^ l m j k h s ",
"* * 4 4 3 0 Z..XMXFXZXtXW.G.G.Y.|..XuXvXMXBXZXGXGXHXHXJXJXJXHXGX{..XZ.J J H H K K H H  .F F D D D D F J J <.>XS.s ^ l m h k h k ",
"% 2 : 4 3 q !.mXuX{.A.Z.D.R.Q.{.oXyXNXBXKXKXJXLXLXJXHXLXLXKXKXKX[.XXS.F J K H  . . . . .H H F D D G D  .J >.oX3.s ~ l m l k h k ",
"* 4 : : 4 4 l  .{ F X.A.L.Y.{.tXyXNXGXJXJXLXJXJXKXJXJXJXJXJXJXKX!.].2.J J K J  ...K K  .H D D S { S H  . .<.2XZ.s ~ a N j l h l ",
"2 3 3 4 6 0 q M D 1.F.Y.!.{.>XvXGXHXHXJXKXJXHXHXKXKXBXvXvXMXSXSXQ.Q.V.J J J J J  . .H H D S D S D D  .H >.<.2XA.n ~ l a j j h s ",
"6 w 6 s 0 s H H F.R.Q.]..XtXfXMXZXSXSXKXKXGXGXFXBXXXJ y , y A.tX~.~.V. .F J J J H H H H S D D D D S D D J  .2XA.a ~ l l k d h d ",
"s m m S K 1.G.Y.T.].}.:X3XiXiXhXfXkXAXAXSXNXZXvX<.a r i < < r v A.!.C. .H K H X.H H H S S S S S D S S  .F 1.2XZ.k [ j j k s q s ",
"d M J V.L.^.(.|.[..XoX2XiXtXsXvXmXmXbXAXSXNXmX2.~ 0.d.j.d.j.7.( a Y.V. .{ S K H H H H H S S S S D S D D D X.oXV.a [ j d k s q k ",
"S 2.Y.!.].|..X2X>XqXqXiXiXiXpXgXmXZXNXZXFXBXtXy w.k.v.c.d.h.@.8.f Q.C.H  .C C D H S S H S S S S S S D F D ,.oXV.p [ a j k s q q ",
"W.|..X|.|.:X,X3XqXpXpXgXmXNXNXFXDXKXJXHXHXKXtXz 0.j.+.@.k.s.+._ ~ L.<.H ..H D X.H S S H S C S S S S D D F >.oXV.a ~ a d q q q q ",
"{.^.Z.D G.tXfXfXAXZXSXGXKXKXKXJXKXHXHXKXJXJXuXV 0.@X+.+.+.+.) +.! 4.Z.H H H H D H C H H S S S S S S D D D ,.XXV.d [ j j g q s q ",
"l q 6 6 A.AXAXCXZXZXSXSXSXSXSXFXFXBXBXGXBXGXmXv 0.j.] +.@Xs.+.8.O.5.4.H S H D D S S H C S S S S A S A D S  .{.<.l ~ j d w p s q ",
"6 7 0 5 ,.fXgXaXrXlXlXjXkXkXkXxXNXAXAXFXBXZXbX| q.j.c.6.d.j.' 8.s.| { D { C S H D H C D A A S A C S S S D  .{. .j ~ j j q q q 8 ",
"6 g m 0 >.iXpXjXrXaXpXgXkXkXgXkXxXkXkXkXmXxX1X0.@X#Xc.@.) ] ] +.d.O.} V { S S C C C C C C C C C C S S D D X.{.<.p ~ j l q q h 8 ",
"4 2 3 6  .iX,XiXpXpXpXpXrXaXaXaXkXmXAXCXkXxX=Xd.+.l.' ` 8.w.O.] +.E } S L A A A S S H S S S S A S A D J S J {.<.d d f v y s d q ",
"m q 0 6 D qXrXsXpXpXrXhXhXaXaXaXaXkXmXkXkXxXzXk.~ o.+.) _ 8._ _ ( < V C H S A H S S L C A A A A S A S D D F {.>.k 8 a ~ a q 9 w ",
"H l k k  .rXjXNXgXaXpXpXpXpXaXaXjXjXxXgXfXmXcX1X} = ^ +.' ' -._ < , X.C H C D H H S S C C A A C C C S D D { ~.>.d g y u y 0 w d ",
"H m L S 2.pXjXjXxXaXrXpXpXpXpXpXrXpXaXkXpXpXaXaXI.r < O.p._ _ ( & * J S C V H C S A S C A A C M A M S S S J ~.>.e h j i y p 0 e ",
"H N L H 2.pXjXjXxXrXrXrXrXrXrXrXpXpXaXxXjXjXjXjX<X5 + , 1 i , = + : S S S S H L S S L C A A A B C B A S A { {.{ d k u t t y 8 w ",
"A S V.H.H.pXlXfXaXpXrXrXaXrXaXaXkXxXAXxXxXjXjXjX6Xu & $ # + # + # l V.L L C S S S S L M z M B A C A S S A F ~.>.7 u i I U Q i 9 ",
"K S.XXoX>XxXpXiXrXiXeXeXhXpXpXhXgXkXkXpXeXeXeXpXU.! E - , # + , 1 [ !...C A C A S S A M M M B A C A A A M F ). .5 t t - U T Q u ",
"S K V.V.A.;X<X<X<X<X,X,X1X<X<X,XqXqXqXqXqX,X,X3X#X' y.+.^ < E ] _ ~ :XY.Z. .S A A S S A B B M B M M A A M D !.D r < < 1 U Y Q i ",
"l h A M V !.:X;X;X X X<X;X6X;X X X;X;X;X;XtXXXoXyX@Xd.c.+.^ _ ' ` | }.oX:X}./.F.1.S C S L S M A M m M M M G ].F , 9 < 1 U T U 1 ",
">.,.1. .H (.}.'.).)._. X;X X X X X}.6X:X,XuX[.[.fX<Xk.6.p.` +.6.p.O.4XXX).>XtX2X.X!.1.m L L M M M M A M z D ].F 7 i t R I I I r ",
"D.D.S.F A ^.(./.).).). X X X). X).}.>X3XtXtX[.OXfXmX1Xk.d.@.@.8.+.U.3X8X{.iXiXsXfXvX}. .z M l M M M M m M G ~.D 3 5 r t t r 7 9 ",
"I.I.S. .F !.).W.!.!.)._. X_.W.).:XiXtXsXtXtX].OXuXfXvX6Xk.p.@.s.@X1X>XtXuXiXsXsXsXsXfX(.B C m M N M M M M S {.J p w 8 f f p e e ",
"3.S.F z M R.).!.!.!.W._. X_.).,XiXfXiX5XiXtX XoXsXtXVXiX6X$Xk.l.1XgX,X3XgXdXdXhXgXhXgXtX1.B m N m m z M M S {.F q w 7 f f p 8 d ",
"2.:.C x m L.{.!.!.!.!.)._._.,XuXpXfXiXiXiXiXtXuXiXqXeX,XtX5X=X*X5X5X5XbXdXnXsXfXgXgXhXgX{.C m N N M m m M A ].C * $ $ & # $ $ $ ",
"N B c v V I.!.W.W.W.W._.(.W.,XfXgXvXsXsX5X5X5XnX1X*X*X$X&XhXiXhXhXiXsXgXiXnXgXgXgXgXsXfXsX .m M m M m N x A ].8           . . O ",
"s b v v ~ K./.(.W.(.W. X).W.tXbXsXnX5XdXiXhXiXnX*Xj.l.h.l.=XnXVX5XbXsXsXgXiXgXgXgXhXgXfXfXL.M m N M m l k A !.>                 ",
"W.W.`.9.| U.(.Q.(.W.'.;X(.(.fXgXnXdXsXfXdXsX5X1Xz.c.f.h.k.1X5XnXnXdXdXdXhXhXsXgXfXsX3XmXfX}.D a l k k k h M ^.%                 ",
"qXeXeX/...T.(.!./.W.W.!.T.(.sXpXnXdXiXsXsXiXiX=X#Xx.h.f.k.1X3XfXdXdXgXgXgXfXgXvXcXiXtXfXgXgX1.g l k k k h z H.$                 ",
"!.!.!.P.D D.L.Y.P.P.W.Y.P.).bXgXdXgXhX5XuXhX1X%Xx.z.l.j.U.1X,XuXsXdXsXgXgXgXgXgXdXiXiXiXpXgXP.N N k k k l z A.@                 ",
"F G 1.,.z <.A.G.G.S.P.^.Y.).gXbXhXgXsXsXtX1X=X#Xx.l.j.U.&X5XtXtXsXsXsXgXgXgXgXgXhXiX2XmXkXuXE.z l k l h h z 1.o                 ",
"G F H.V.A >.Z.V.Z.2.F.D.F.).bXvXgXgXsXsX5X=X%Xx.l.8.0.&X5X3X,X3XsXhXdXgXgXsXsXhXiX>X4XVX4X`.U./ h s k p h z K o         X O X   ",
").{.XX1.h C <. .X.<.V.<.1.{.MXvXgXgXsXhX1X%Xz.c.+.w.`.>X2X>X5X3XsXsXsXdXgXsXhXiX,XT.!.T.U.q.k.8.p h s p p M J O       X O o o o ",
"W.)..X1.h D <.H H  ...J  ..XMXMXfXvXhX1X%Xz.k.7.O.U.:X>XXX<XtX3XiXsXsXsXiXsXiXiX_.} | w.s.l.g.7.z j p p k l D X         O @ @ @ ",
"E.E.P.F q A J J H K J <.>..XvXvXsXsX,X=X#Xl.s.+.U.;X.XoX:X5X3X2XiXsXsXsX5X3X3X,XL.v ) t.i.u.g.s.V j p p k k m           X o o O ",
"A M l g 0 m  .S J A X.C.K /.-X-X&X`.`.%Xh.g.7.7.}. X}.}.:X3X3X3XiXdXsXsX3X,X,X;XD.j / ' u.a.y.f./ h k h g ~ f X               . ",
"8 h q 8 7 m H D H D  .K X.@Xn.x.m.g.x.x.h.y.+.U.}.}.}.}.:X3X3XsXiXsXsXsXtXtX,X<XH.d v _ -.p.a.g.8.l s f r i y       . . X O o O ",
"3.F z k C S S H X.D F J | z.v.h.b.h.x.h.f.y.+.U.}.}.|.:X2X3X3XiXiXiXsXdXsXtXtXiXW.z j / ' -.-.y.8.l 0 W t d 0 . . . . . . .   . ",
"3.2.1.l m M C M Z z z x | z.x.h.x.x.h.d.t.' O.9.(.}.:X3X3X3X3XiXsXsXsXsXdXsXiXiXI.N k ! _ u.y.y.-.B w W f w % . . . . .         ",
":.{ G 9 $ 2 q k a g s k | #Xx.g.g.h.d.7.+.' w.9.`.}.6X;X:X3XiXsXiXsXhXsXsXiXiXiXK.g k ! -.a.y.y.;.l 6 t u w % . X       X o @ $ ",
"k 8 9 e : 7 k l N N m Z | l.h.a.a.a.@.d.+.O.9.K.I./.|.;X:X3XhXhXsXsXsXiXiXsX5X5X_.C g o.d.y.y.y.8.a p u 9 e y $ 3 8 A >.Z.R.T.(.",
"8 8 > > % 9 k k P N Z N } a.y.y.y.t.' -.` O.K.K.T.T._.;X:X,XiXiXsXsXiXiXsX5X5XiX,X1.j O.u.u.y.g./ 8 y [ h 9 I.!.W.~.).). X:X X}.",
"h 7 3 * 3 9 k l l x M N b w.p.d.-.-.` ] ) U._.`._./.`.6X;X,XiXgXnXsXiXsXhXiXiXhX,XH.c 8.-.u.a.y.! x , r 7 7 E./.9.D.G.E.E.L.4.4.",
"F z p 7 9 p B c m M C Z Z | s.i.' ' O.( 9.iX:X:X X:X,X;X;X,XiXgXdXhXgXsXgXsXdXeX5X/.[ ' -.y.f.w.9.}...} B s >.C.K L P.3.,.:.<.+X",
" .:.X.{ { D 2.2.A M M C S o.0.t._ ( ^ ~ `.,X,X,X3X,X3X,X,X<X5XgXgXhXdXcXgXdXhX1X<X'.o.6.y.a.s.e.'.DXzX9X-X-X}.J.G.~.4X X5.H N x ",
"D A A G V G >.>.F D F D C b | _ ^ ( ! j T.sX3X:X5X5XnXbXdX5XiXdXhXgXaXgXbXdX5XgX;X4.q.a.g.h.w.n.&X9XM.&.$.M.N.&.&.&.N.e.v n 6 $ ",
">.G G D G G X. .<.>.1.1.X.B } ~ v ! a k  .Q.2XsXsXsX5XsXbXCXgXsXvXCXAXAXnXbX>XL.p f g.x.x.a.e.r.;.;.*.$.$.$.$.$.$.$.&.M.r.b { 5 ",
"3.3.3.,.G A { {  .{ ,.4.A...X.V [ B C l S R.K.;X:X2XsXnXmXmXCXMXnXCXfXsX}.,.a a ! k.x.h.l.n.wX9X'.;XN.*.%.%.B.B.N.N.0X9X9.1._.wX",
"G.P.E.G.{ G { {  .{ X.>.1.1.1.>.D V M z F.}.|.W.T.L.A.T.}.}.T.F...{ c c V X.5.5.g.m.v.x.k.E.[.wXfXfXxX9X*.=.0XAXpXwX:.F.+XoXR...",
"I.P.P.D.{ G { X.,.{ :.F { X.,.,.4.D X.D W.XX}.6X|.T.L.L.Y.L.S.3.1.A.3.A.R.L.w.0.m.v.v.m.0.a V ..K.e.;X,XzXzXlX9X XE. .l 9 k 4 > ",
"3.P.T.L.X.{ ,.,.,.,.4.X.,.,.,.:.,...1.D.>X:X:X}.}.}.}.).W./._.{.}.).(.Y.T.9.j.v.z.v.z.x.q.{ 5 s P F D.A.9./.2XjXxXpXpXwX>X X/.]."
};
