/* XPM */
static char *waka29_jpg[] = {
/* columns rows colors chars-per-pixel */
"64 64 256 2 ",
"   c #010101",
".  c #0C0C0D",
"X  c #05070B",
"o  c #191919",
"O  c #0D0E0E",
"+  c #291D16",
"@  c #26221D",
"#  c #38231A",
"$  c #282523",
"%  c #382B26",
"&  c #38322A",
"*  c #3D3935",
"=  c #292224",
"-  c #4A3428",
";  c #453E39",
":  c #583630",
">  c #46423C",
",  c #48433F",
"<  c #5D4937",
"1  c #68483B",
"2  c #78433D",
"3  c #71533B",
"4  c #65633D",
"5  c #4A4642",
"6  c #4D4944",
"7  c #494747",
"8  c #534D49",
"9  c #524A46",
"0  c #55524C",
"q  c #5B534D",
"w  c #585548",
"e  c #5D5B54",
"r  c #5A5853",
"t  c #4E4A4C",
"y  c #694B46",
"u  c #68584C",
"i  c #765848",
"p  c #625D55",
"a  c #635E5A",
"s  c #6A5C56",
"d  c #725B52",
"f  c #724C47",
"g  c #596256",
"h  c #53604F",
"j  c #636055",
"k  c #6A6155",
"l  c #65625B",
"z  c #6A645C",
"x  c #6C695E",
"c  c #62685C",
"v  c #7C645A",
"b  c #766559",
"n  c #7A644E",
"m  c #666561",
"M  c #6B6561",
"N  c #6D6A63",
"B  c #676965",
"V  c #726D65",
"C  c #736E69",
"Z  c #756863",
"A  c #757066",
"S  c #767269",
"D  c #7A756C",
"F  c #7D786E",
"G  c #7A7364",
"H  c #7B7671",
"J  c #7E7972",
"K  c #7B7975",
"L  c #717268",
"P  c #8B3B38",
"I  c #BA313A",
"U  c #B12D34",
"Y  c #88594B",
"T  c #8C504D",
"R  c #84655B",
"E  c #856B5D",
"W  c #866657",
"Q  c #986B56",
"!  c #99745C",
"~  c #8A654D",
"^  c #A46C57",
"/  c #A8765B",
"(  c #B57A5B",
")  c #896C61",
"_  c #827A6E",
"`  c #857567",
"'  c #997A67",
"]  c #827C74",
"[  c #897E74",
"{  c #847E79",
"}  c #877A75",
"|  c #967C71",
" . c #A97963",
".. c #B87A64",
"X. c #A97F73",
"o. c #B24241",
"O. c #C17F67",
"+. c #7C8276",
"@. c #BCD300",
"#. c #CDD50E",
"$. c #CDD333",
"%. c #BB8A5C",
"&. c #93856E",
"*. c #858075",
"=. c #898276",
"-. c #86837A",
";. c #8C847B",
":. c #8D897E",
">. c #91857C",
",. c #938A7E",
"<. c #9B8777",
"1. c #8C8A71",
"2. c #A8846C",
"3. c #BB8666",
"4. c #A78C79",
"5. c #B78872",
"6. c #B4927C",
"7. c #A19E7F",
"8. c #B5B271",
"9. c #9C985A",
"0. c #C8895E",
"q. c #C48A64",
"w. c #CB8C64",
"e. c #C38C6D",
"r. c #CC8D6C",
"t. c #C38366",
"y. c #D28B69",
"u. c #CA936B",
"i. c #D4946C",
"p. c #D99769",
"a. c #CA8D73",
"s. c #CB9579",
"d. c #D49374",
"f. c #DB9473",
"g. c #D49A74",
"h. c #DC9B75",
"j. c #D79A7B",
"k. c #D58F75",
"l. c #E29A6F",
"z. c #DBA179",
"x. c #C0AD6B",
"c. c #E1A17C",
"v. c #C6AD51",
"b. c #CED759",
"n. c #D5D36E",
"m. c #E5D465",
"M. c #DCE171",
"N. c #E6D758",
"B. c #8E8A81",
"V. c #898382",
"C. c #948D83",
"Z. c #978D85",
"A. c #9B9284",
"S. c #9C958B",
"D. c #9D998D",
"F. c #969287",
"G. c #9E9A92",
"H. c #A68D82",
"J. c #A39A8D",
"K. c #A69788",
"L. c #B79B86",
"P. c #A49C92",
"I. c #AA9E93",
"U. c #A39F9A",
"Y. c #B99F90",
"T. c #AAA18D",
"R. c #B7A68B",
"E. c #ABA295",
"W. c #ACA59B",
"Q. c #AEA99D",
"!. c #A5A298",
"~. c #B3A494",
"^. c #B2A69A",
"/. c #B3AA9D",
"(. c #BAAC9D",
"). c #B9AA96",
"_. c #BAB29E",
"`. c #B3B895",
"'. c #ADA9A1",
"]. c #B4ACA2",
"[. c #BBADA2",
"{. c #B2AFA8",
"}. c #BDB2A3",
"|. c #BCB5AA",
" X c #B9B5AA",
".X c #BEB8B3",
"XX c #AFB3A2",
"oX c #C99C82",
"OX c #D79B83",
"+X c #DE8F82",
"@X c #C9A288",
"#X c #D7A486",
"$X c #C8AD99",
"%X c #D5AA97",
"&X c #D5B39C",
"*X c #CCB58B",
"=X c #C0AEA4",
"-X c #C2B5A5",
";X c #C2B5AB",
":X c #C4BAAC",
">X c #CBBCAC",
",X c #C9B8A6",
"<X c #D2B5A4",
"1X c #D2BCAC",
"2X c #DABCA7",
"3X c #C5BCB1",
"4X c #CBBDB1",
"5X c #CFBDB9",
"6X c #D3BFB2",
"7X c #CFCB8F",
"8X c #CCC1A9",
"9X c #D2C5AD",
"0X c #D5CAAE",
"qX c #D9CAAA",
"wX c #CDC2B4",
"eX c #CDC4BA",
"rX c #CEC8BA",
"tX c #C6C3B8",
"yX c #D3C4B5",
"uX c #D5C9B3",
"iX c #D9CDB4",
"pX c #D3C5BA",
"aX c #DAC6BB",
"sX c #D5CABC",
"dX c #DACBBC",
"fX c #DAC4B5",
"gX c #DCD1B6",
"hX c #DDD2BB",
"jX c #D0D4B3",
"kX c #E0C3BC",
"lX c #E2D5B9",
"zX c #E6E3AA",
"xX c #E8DF8A",
"cX c #C1B6C4",
"vX c #D4CCC2",
"bX c #DBCCC1",
"nX c #D4C7C6",
"mX c #DCD3C4",
"MX c #DBD6CA",
"NX c #DAD7CF",
"BX c #E2DBCC",
"VX c #E1D7C5",
"CX c #E3DDD2",
"ZX c #E7DED8",
"AX c #E1CFC3",
"SX c #DAE1D6",
"DX c #E5E1D5",
"FX c #E5E3DC",
"GX c #EAE6DC",
"HX c #EEE5D7",
"JX c #E6E5E3",
"KX c #E9E6E1",
"LX c #EAE9E5",
"PX c #EBECEA",
"IX c #E8E7EA",
"UX c #EEEEF1",
/* pixels */
"{.{. X{.P.*.F ] =.A.J.E.W.W.I.I.K.A.;.{ H C m S m r q 7 5 7 5 5 B V S S D H H ] { ] _ ] H ] ] H ] H ] } ;.] (./.M R E M N M x V ",
"{.{.U.C.-.;.C.Z.J.W.|.3X4X>X>X>X,X^.P.J.B.B.] D H V Z a 0 8 7 7 S J D H H H K { { ] ] H J J ] H K H { { ] ]  X^.V R ) c M z z N ",
"C.J C S F ] =.:.C.,.S.E.[.1X1X<X>XI.A.B.H ] C.S.A.A.J.S.A.:.} D *.*.K D J J -.] ] ] ] ] ] K H H H ] { K } ] [.'.V R R j l z l N ",
"V.;.[ F G A V x V F _ =.J.-X,X,X;XP.>.[ { V.S.A.I.I.E.^.^.^.E.P.:.:.F D H K { ] ] ] { ] K ] ] K H D H { { ] ].].V R R j l s z N ",
"J.J.P.P.P.S.S.S.Z.-.H ] { V p z V J [ { J { F.!.E.W.E.I.J.K.K.A.C.B.J J ] H ] { ] _ ] ] J J J H K D H ] } _ ].W.z R E l m M z N ",
"P.P.W.[.|. X:XeXsX5XS.m 0 8 t 0 0 a a a B l V ] =.C.F.S.J.J.K.S.-.*.F J J J K ] ] ] ] ] J J J D H H H ] ] ] ].I.z R E l m s l N ",
"P.].;X|.;XtXpXtXG.V 5 5 r e r a p l l M H V S F -.;.;.Z.S.P.J.A.*.-.F H J K { *.] ] ] ] K H K D H H _ K ] } ].^.M R ) l a a p N ",
"{.].].|.tX3XS.V 6 > t e e l N M M B N ] C.-.:.,.F.G.J.!.W.].|./.:.C.-.J H J { ] ] ] ] J ] H K H H D H ] ] H ].'.V E ) z l s l V ",
"].]..X.XG.e 5 6 8 q p z V G _ ,.A.;.Z.C.B.S.G.!.W.]./.-X:X-X-X9XE.D.C.] H } } _ ] { K J F D F F D D D H F ] Q.Q.z R ) l l z z N ",
"3XtXP.e * 5 9 8 a M S F >.E.8XmXvXP.;.F.U.!.XX.X:X3X>XtXtXwXyX0XW.S.C.{ H K K J { J J ] J D D F D D H J J ] W./.x E ) z a z p N ",
"J D r ; > t r z G [ Z.].vXHXCXmX{.G.D.'. X.X:XtXwXsXsXsXmXmXmXVX[.P.F.H K { K K ] K J ] F D D D K D F J ] ] Q.'.M R ) z a z p m ",
"& * * > t 8 a -.I.3XCXDXBXeXQ.S.S.!. X.XtXvXvXMXMXDXDXDXLXFXLXLX>XJ.S.C S D } _ H ] K K K F F J F F F J J ] Q.].z R ) z a z j m ",
"* ; 7 5 5 t ] tXDXBXsX].S.C.F.I. X XtXvXNXNXFXKXFXPXLXPXPXPXPXvX{ 9 > * , x F _ H ] K K _ H H D S D H K J ] W.Q.x R R l a z z M ",
"* ; * 5 5 6 S {./.J.;.*.Z.J.W./.|.rXMXDXIXPXPXPXPXPXPXUXIXPX.XS 7 ; % % + % > H K ] ] _ _ H D D S S K ] *.] W.Q.z R R j m s l N ",
"5 7 7 5 7 8 r z A D *.Z.J.E.].|.rXCXKXLXPXPXUXIXPXPXPXPXKXNXG > i E i 1 - - % p ] ] K K H D D D D D D ] ] [ Q./.l R R l l k l B ",
"t t t t 8 q e l J V.S.!.W.].tXvXZXKXFXJXPXPXPXJXDXFXZXSXDX-X< E a.j.d.t.( ' ~ < K ] H D D H D C D S D J ] ] Q.].z E v l a s z c ",
"e g p l l z ] { S.P.!.].|.tXwXsXmXmXMXCXDXCXCXCXSXDXCXHXFX/.u ' OXl.f.f.f.f.r.n D F F F D S S S S S C H J F W.].z E v p e l j M ",
"z j M D ;.C.P.E.W./.].-X>X9X1XyXuXsXsXMXMXBXNXCXSXCXZXBXJX-Xd 4.oXr.t.k.j.r.5.) D D D D S A D S D D D J J F W.].M R v a l j e M ",
"x x =.S.U.P.^.].-X:X>X>XyXyXyXyXsXsXhXMXMXNXDXDXSXDXDXSXSX<XR 5.OX.. .t.d.Q Q R D F D D D S S S D S C H F F W./.z v v a z a e z ",
"=.,.E.].].].;X3X-X>XwXyXyXsXsXmXMXSXDXFXGXJXFXJXLXKXJXFXSXOX2.u.d...Q r.t.^ Q  .F F S D S S S A S V C H J H !.Q.s ) v a a p e l ",
"(. X XW.J.3X5X>XwXvXMXMXCXDXCXGXKXLXLXLXPXPXPXPXPXLXIXGXDX+X5.z.OXk.a.d.k.....' D D L D S A S A D S D H K ] W.Q.a ) v p e p e M ",
"P.Z.D x s 3XbXlXBXDXCXDXGXKXGXGXFXKXKXJXJXLXLXIXFXGXPXDXDXOX/ u.j.f.a.d.y.y.oX! L D S S S S D S D S C D D D I.!.a R v p e p a l ",
"0 8 6 0 l sXmXVXVXVXmXmXMXBXBXMXBXCXBXCXCXDXCXCXDXCXGXBXBX&XX.Q s.k.a.( ( ..e.E D D S S S S S S A V C D S A J.J.s R v e e p e M ",
"q e e j j :XyXiX9XiXiXgXgXhXhXhXdXhXmXVXVXBXVXmXmXmXMXhXVXgXI.y ! t...^ ^ / Q u F F S S S A S V A Z C S S D P.I.s v d p p a a l ",
", 6 r e q  XaXuXuX9XuXuXuXiXiXgXhXhXlXVXhXhXhXhXhXgXiXgXhXmXK.< y  .i...../ 3 9 S A Z S S V S Z A A S D F D !.J.l l d d s p a c ",
"e 6 6 0 q }.yX9X9X9X9XyXuXuXiXiXiXiXhXhXhXdXiXiXdXuXiXgXgXVX~.- - i 5...Q Q - 9 S F S S A V C D A A S D D S J.!.l d j Y j u e s ",
"F.C e l j }.uXiXuXyXwXuXuXuXuXuXiXhXhXhXlXhXgXgXmXiXgXqXgXiX~.< % - 1 i 1 : # 9 H K C V D S V C S A D F G A P.P.g j j d e r g s ",
"-.N e V x |.uXgXhXuXuXuXyXuXuX9XuXuXuXuXiXiX0XiXiXgX0X0XiX,XL.Q - # % @ + # % p H D N N V M N C A A S D D V D.J.a p u u y r e M ",
"-.S L K A }.iXhXhXiX0X0X9X9X9X0X9XuXuXuXuXiX0XiX0XiXuXrXeX1X@Xe. .1 & % % : y J.B.S V S C V C S A N A S S A D.D.p a p u f u e a ",
"A B S K *.|.iXgXgXiX0X0X0X0X0XuXiXhXlXmXlXhXgXgXlX0XwX3X{.sX2Xs.y...~ i Y / Q ).'.] x Z M V S M A N N S A A D.D.e a s 3 P T k g ",
"A F S.'.W.rXgX0X0X0X0X0X0X0X9XiXiXhXlXhXdXuX0X0XiX>X:X'.'.eXaX$Xk.t.r.3...q./ -X;XJ.,.] V M N S V N V A A V S.D.h s 3 P I I T k ",
"J -.!.{./.tXuX8X8X8X9X9X9X8X8X8XuXdXdXyX9X:X8X,X;X|.;X]. XtXnXrX$Xs.r.y.i.%.$XcX;X;XtX|.W.C.S c V N V A V M D.S.y y 2 < U I o.Y ",
"x B D K C J.:X-X-X-X-X,X8X:X-X:X-X:X-X-X4XyX4X>X4X;X-X>X4XyX4X4X:X,X@XoXOX&X6XtXyXwX4XyXyX5X].[ M V M N L m S.G.0 f 1 1 P U U Y ",
"V N S A z S.-X_.$X_._._.-X}.}.-X_.}.}.-XwXwXwX4X3X4X4X4XwXpXpXyXsXaX2X&X<X2XpXpXwXeXyXpXsXdXpX{.D B B V V N F.D.w y y 2 P U I T ",
",.7.A.:.S A.(.~.(./._.-X-X_.}._._.(.}.>XwXyXyX5X4X4X4XyXyXyXfXpXyXaXsXwXyXpXaXpXbXsXpXdXpXdXmXpXC.x M M N V S.S.q y y y 2 2 2 u ",
"K.K.S.-.N Z././.Q.E.^.(.-X_.(.(.(.(.:XpXyXyXyXwX>X6X6XyXyXyXyXyX5XpXsXvXvXvXbXbXdXpXwXsXbXbXmXpX XG V V V N S.S.r q q y 3 u q h ",
"K.J.D.:.S C.Q.!.E.W.W.(.(.(./.(.(.}.>XsXpXwXyXwX6XyXyXyXyXyXyXpXsXpXpXvXvXbXdXbXdXpXeXvXbXdXdXdXpXZ.x N V M S.S.h e e u d e u p ",
"A.:.F l p } Q.Q.Q.W.Q.(.}._.[.[./.-XwXsXpXyXyXwXyXyXyXaXyXyXpXpXrXwXpXdXbXdXsXsXbXbXbXbXdXpXaXdXvX/.x S M M S.S.e q q y y 6 , 0 ",
",.} D b b ;.W.^.Q.E.E./.(.(./.Q.^.:XpXyXyXpXwX4XyXyXyXyXpXpXpXyXyXwXpXdXbXmXdXdXaXdXdXvXdXyXuXdXdXwXF M N M S.S.@ o o . O O o $ ",
"j k x b d &.T.E.W.E.E.~./.^.E.W.^.tXsXsXyXsXpX>XpXpXpXpXpXpXpXpXpXsXpXdXdXdXdXdXdXsXdXbXbXpX4XyXdXvXZ.z A c Z.C..       .     O ",
"F _ [ ` E 4.~.!.E.Q.W.-X,XE.Q.E.).aXdXwXsXyXyX1X5XpXpXpXnXpXnXeXuXyXpXbXwXdXdXvXdXbXbXdXdXfX1XsXiXVXW.B s v Z.K                 ",
":XtX-X(.X.H.^.W.~.W.E.~./.I.G.J. XeXrXbXrXeXyX=X>X6XyXpXyXyXyXpXpXpX5XnXpXdXdXdXsXbXbXsX5X4X>XbXMXmX.XV c a ;.L                 ",
"-X:X:X-X4.H.E.E.E.W.I.I.E.!.S.L.).(.).[.=X3X3XI.-X5XeXyXyXfXaXaXaXbXeXpXpXdXdXdXsXsXpXpXpX=XeXvXwX_.~.x g l -.l                 ",
"K.,.A.7.` D K.J.K.P.J.I.I.I.K.L.z.z.j.oXL.Y.~.B.=X,X,X,X<X<X%X$X<X6X6XpXaXdXdXhXiXfXyXyX3XA.E.Q.R.6.oX2.z e K q                 ",
"G x -.:.] D F.F.Z.A.S.J.S.S.7.s.l.p.l.z.a.2.2.H.#X#Xz.j.j.j.f.k.oX%X2XqXaXaXbXdXaX6X6X1X[.) ' 4.OXj.h.u.n p K 8                 ",
"F.,.P.G.S N -.V.=.:.:.Z.B.;.4.z.w.w.0.w.r.e.s.#X#X#Xz.j.h.h.f.k.d.j.s.$XaXdXbXsXsXpXwX6X(.v ! e.d.p.p.i. .j K *         X . O . ",
"`.}.|.W.x N K -.-.{ *.-.-.{ 6.g.p.i.w.q.u.OX#XOXg.#X#X#XOXj.k.j.f.k.e.@XfXsXdXsXbXdXsX6X(.b ~ ..i.p.p.p.5.k K *       X O o $ o ",
"T./.}.J.j x *.J J K ] ] ] } s.l.h.p.h.z.z.z.d.t.^ 3.k.d.d.i.r.k.y.t.3.oXkXaXdXdX5XaXuXyX;XD n  .w.p.p.p.s.E K %         O o $ o ",
"D :.:.J z p ] H K D D } J &.oXh.f.j.g.u.g.%.q.( ! H.L.L.L.oXk.3.'  .L.$XaXpXbXbXaXvXuXfX/.N z Q 0.y.y.y.g.! v %                 ",
"g j p q r a H ] H H D } { <.j.p.i.r.0.w.( (  .^ 4.4.<.4.H.6.5.2.6.L.<X1XaXyXbXbXaXsXwX6X(.N l W ( w.0.0.i. .v o     X X     X . ",
"F l z j r a H V H K H ] _ 4.h.p.%.q.( ( / ! W <.T.<.' | H.Y.~.).(.;X5X5XpXpXdXaXkXpXpXyX[.B l v %.w.0.w.r.^ s o X X . . . X . . ",
"D.:.*.A C D H D C C S H D | t.0.( ( ^ Q W E Z Q._.K.H.H.K.(.}.:X:X:X3X4X5XaXpXeXaXpXdXfX{.N k E %.0.0.w.e.~ a $ . . X X X   X   ",
"C.*.V.A , 6 z a M M B N B Z Q Q Q Y d b k x D '.(.~./.^./.=X=X;X>X>X6XaXpX6XpXpXpXeXyX1X~.G E ' %.0.w.u.3.b g o   X X X         ",
"A x c q 9 , e l s a m M c c v x u s s M Z M _ =X-X(.(.}.(.-X>XpX6X6XfXpXpXyXaXbXsX1X<X&XL.'  .q.q.y.w.%.W p 0 $ O o o $ & > p M ",
"e w 0 8 , , z p z M B N B N s N m B m m N M _ [.yX4X>X>X>X-X6XdXdXyXpXwXaXpXaXaX2X&X#X#Xs.s.s.i.i.q.2.! v 0 N F F -.C.!./.}.-X,X",
"w e w > > , z l l m M M N N M B B m a C M m N +.I.-X5XbXbXpXsXsXbXbXMXsXbXyXfX<X#X%XOXz.j.OXh.p.u.%.~ 1 x < -._./.W.E.E././.R.K.",
"S x q , 6 9 j z N M M M N N x B z z M m M N z D { V I.pXvXMXvXmXvXbXbXbXpX1X%Xj.k.d.f.h.d.l.z.s.2.' Z 1 y t L T.:.+.V.D.,.;.,.,.",
"D F G k x j G *.N C V V A N N N z a c m l a { ].P.D J { I.E.W.T.S.W.].3X;XI.X. .t.i.f.f.h.d.s.%XR.`.8XE.7.F.-.Z.=.*.J.W.Z._ ] -.",
"+._ +.F *.G =.,.K C V Z S S V x M e c z M l C.:X;X].W.;.C.8 & & @ @ ; > * @ # Y / e.u.i.k.s.oX*X$XnXqXn.b.n.7X).x.8.7XjX;.V a w ",
"*.G G G G G _ =.] ] { } F A N A C z m l a Z P.|.[.[.[.E.P.K.Z.z 0 ; % @ o O # u W ' 2.3.s.oXR.8.v.%.x.$.#.#.$.@.#.#.$.b.8.G z 7 ",
":.[ J ] D G G _ ] } >.C.>.[ F D V Z N l x } |.-X[.;X^.].E.Q.'.W.Q.I.:.] D D } [ ;.>.6.6.6.K.7.8.8.2.8.#.#.#.N.b.b.M.xXM.8.Z.K.1.",
"S.A.S.S.;.G } _ ] ] } &.,.,.=.} A V M x V C.4X|.[.[.[.^.E.W.'.P.P.E.E./.J.A.J.K.A.A.K.<.A.Z.B.XXjX0XqXn.#.#.m.zXzXxX8.}. X:XI.(.",
"S.S.J.D.>.D _ _ ] _ _ _ _ } } ;.] _ V V V Z.:XE.^./.^.^.[.I.I./.E.P.K.J.Z.>.>.,.A.A.,.C.S.A.J.'.}.wXqXlXxXN.N.xX7X+.u 6 t e q e ",
"7.K.K.J.=.D ] =.=.=.[ [ [ [ [ ;.[ ;.=.:.F C.[.,.S.J.^.].^./.E.I.^.E.E.,.>.,.,.T.I.I.D.!.W.L.~.[ D ,.J.P.:XgXqXhXjX`.!.A.*.S e 6 "
};
