/* XPM */
static char *waka39_jpg[] = {
/* columns rows colors chars-per-pixel */
"64 64 250 2 ",
"   c #020202",
".  c #0B0B0C",
"X  c #06060A",
"o  c #0A0C15",
"O  c #131413",
"+  c #1C1C1A",
"@  c #0D1210",
"#  c #382619",
"$  c #2D2415",
"%  c #362B27",
"&  c #3B3834",
"*  c #2C2C26",
"=  c #20241E",
"-  c #47352A",
";  c #433C38",
":  c #52362C",
">  c #45423D",
",  c #49453C",
"<  c #584638",
"1  c #654436",
"2  c #77493A",
"3  c #74513B",
"4  c #494642",
"5  c #4D4A45",
"6  c #484642",
"7  c #524E49",
"8  c #554E46",
"9  c #55524B",
"0  c #5A554D",
"q  c #5B594E",
"w  c #535549",
"e  c #5B5652",
"r  c #5D5B53",
"t  c #585554",
"y  c #534F53",
"u  c #694C43",
"i  c #764C46",
"p  c #63554C",
"a  c #68564B",
"s  c #795749",
"d  c #635D55",
"f  c #6A5E54",
"g  c #645E5A",
"h  c #675855",
"j  c #7A5A53",
"k  c #5B6355",
"l  c #646255",
"z  c #696255",
"x  c #65625B",
"c  c #6A645B",
"v  c #6B695B",
"b  c #72695E",
"n  c #776559",
"m  c #71674E",
"M  c #695B63",
"N  c #666361",
"B  c #6B6561",
"V  c #6D6A63",
"C  c #6B6B68",
"Z  c #726C65",
"A  c #736E69",
"S  c #786A61",
"D  c #797166",
"F  c #76726B",
"G  c #7A756D",
"H  c #7C786E",
"J  c #757066",
"K  c #7C7671",
"L  c #7E7972",
"P  c #777673",
"I  c #903B3B",
"U  c #B53238",
"Y  c #C41B32",
"T  c #B53D44",
"R  c #855848",
"E  c #8B5552",
"W  c #876858",
"Q  c #966956",
"!  c #9A735E",
"~  c #A86D59",
"^  c #A8765A",
"/  c #B37B5C",
"(  c #B7785A",
")  c #A2694B",
"_  c #8B6462",
"`  c #8A6A66",
"'  c #906B65",
"]  c #827A6E",
"[  c #857568",
"{  c #997865",
"}  c #827C74",
"|  c #8A7D73",
" . c #837E78",
".. c #847673",
"X. c #A97B65",
"o. c #B47C62",
"O. c #B77A65",
"+. c #B34045",
"@. c #C57E62",
"#. c #BDCB0F",
"$. c #C9DA02",
"%. c #C4D11C",
"&. c #CBD313",
"*. c #CECF34",
"=. c #D9DF18",
"-. c #B38758",
";. c #868176",
":. c #8A8176",
">. c #86827A",
",. c #8B847B",
"<. c #8E897D",
"1. c #928A7E",
"2. c #958579",
"3. c #979377",
"4. c #A8826A",
"5. c #BC8363",
"6. c #B78569",
"7. c #A88977",
"8. c #B38976",
"9. c #B49579",
"0. c #ADA764",
"q. c #ACAF58",
"w. c #C7885C",
"e. c #C38363",
"r. c #CC8B64",
"t. c #C4846B",
"y. c #CC8C6B",
"u. c #C38B64",
"i. c #D58C66",
"p. c #CA9167",
"a. c #D3936C",
"s. c #D69869",
"d. c #CA8C74",
"f. c #CB9473",
"g. c #C7957A",
"h. c #DA9B74",
"j. c #DB9C7B",
"k. c #D59776",
"l. c #D28D73",
"z. c #E39A6C",
"x. c #E59A74",
"c. c #D5A579",
"v. c #E7A170",
"b. c #D5D86F",
"n. c #D2D24F",
"m. c #7B8386",
"M. c #8D8A81",
"N. c #8A8383",
"B. c #938C82",
"V. c #968C86",
"C. c #969184",
"Z. c #9A9285",
"A. c #96918B",
"S. c #9C948A",
"D. c #9D9A8C",
"F. c #9D9A93",
"G. c #A29485",
"H. c #A39A8D",
"J. c #A7988A",
"K. c #B69887",
"L. c #A59D93",
"P. c #AB9D92",
"I. c #A69E99",
"U. c #B89E92",
"Y. c #ACA295",
"T. c #ACA49A",
"R. c #AEA99D",
"E. c #A8A398",
"W. c #B2A495",
"Q. c #B2A69B",
"!. c #B4AA9C",
"~. c #BAAD9E",
"^. c #BAA795",
"/. c #B7B39C",
"(. c #B1A188",
"). c #AEABA2",
"_. c #ABA6A3",
"`. c #B4ADA2",
"'. c #BBAEA2",
"]. c #B1AFAA",
"[. c #B5B1A4",
"{. c #BCB2A4",
"}. c #BCB4AA",
"|. c #B8B6AC",
" X c #BEB9B3",
".X c #AFB2A9",
"XX c #CD9D86",
"oX c #D69A82",
"OX c #C9A58A",
"+X c #D6A587",
"@X c #C5A996",
"#X c #C3BB9F",
"$X c #D6B49A",
"%X c #D1B28F",
"&X c #C3B4A5",
"*X c #C4B6AA",
"=X c #C4BBAD",
"-X c #CBBCAD",
";X c #C8BAA7",
":X c #D3BCAB",
">X c #D7B8A9",
",X c #C5BCB2",
"<X c #CBBDB2",
"1X c #C4B7B2",
"2X c #D2BDB2",
"3X c #D5CB95",
"4X c #CDC1AC",
"5X c #C9C3A7",
"6X c #D4CAAD",
"7X c #D5C4AD",
"8X c #D7D5A4",
"9X c #CCC2B4",
"0X c #CDC4B9",
"qX c #C9C5BA",
"wX c #D4C3B5",
"eX c #DAC5B5",
"rX c #D6CAB3",
"tX c #D9CDB4",
"yX c #D4C5B9",
"uX c #D9C6BA",
"iX c #D5CABB",
"pX c #DACBBC",
"aX c #DCD1B6",
"sX c #DDD3BC",
"dX c #D7D2BF",
"fX c #CBD2B0",
"gX c #E2D4BC",
"hX c #E6D6BB",
"jX c #E6CDB4",
"kX c #E2E095",
"lX c #DACDC1",
"zX c #D5CBC3",
"xX c #DCD3C3",
"cX c #DBD7CA",
"vX c #DEDDD2",
"bX c #C9C8C0",
"nX c #E2D5C3",
"mX c #E3DCCC",
"MX c #E4D8C8",
"NX c #E3DDD3",
"BX c #E6DED6",
"VX c #E0CBC4",
"CX c #E4E2D6",
"ZX c #EAE4DB",
"AX c #E6E3DA",
"SX c #EBEAE4",
"DX c #EBEBEA",
"FX c #E7E6E4",
"GX c #EDECF2",
"HX c #E1DFE0",
/* pixels */
"|._.F.M.,.1.Z.H.Y.{.=X4XwX:X:X:X;XW.L.A.A.N.H A A b d 0 5 6 6 t L K K K K  . .K  . .L  .L K ..H K K } ..} 1.9X1.n ' S c v c c g ",
"V. .K K  .,.,.B.D.H.P.!.*X-X-X:X'.Y.S. ... .<.Z.1.V.,.:.] F c c ;.K K K K  .;.L  . ...L L K H F K K  .} } B.0X1.z ' b c v f x x ",
"H H L F Z A A K F >.B.Z.!.-X-X4X{.D.,.L ;.<.C.D.J.W.W.W.W.W.L.H.M. .K K L  .>. . .L L  . .L L G K L  ...} B.9X1.l W Z c x c x g ",
"D.D.S.A.A.V.N. .;.H A ..,.} H } M.,.;.N.:.A.L.T.!.Q.W.Y.P.G.G.G.M.;.K K  .L  .L L  .L  .L L  .G P K L L } 1.,X<.l W Z c x g g d ",
"L.E.T.[.[.&X4X9X0X[.B.c e 7 5 9 9 x B B g F :.<.Z.H.S.H.J.H.J.V.>. .K L L L L L  .>.L  . .K K G K K ..L ;.<.,X1.z ` Z c x x x d ",
"T.`.}.=X*X9XyX=XL.A , 4 e e t r x x x Z A F G P ;.<.1.Z.H.P.H.:. . .K K L  .L  .>.>.L  .K K L H K H K }  .,.,X<.c ' Z z x x x g ",
"'.`.[. XqX,XE.D 7 5 7 r d c B B c B A >.;.L >.V.C.S.D.L.W.!.!.S.B.,. .P L  .}  .L L H  .K K } G K G P K  .,.,XB.v ' A c x x x x ",
"!.[. X4XF.B 7 ; y y g V V S ] | } N.B.B.B.M.F.D.R._.`.[.=X=X9X}.D.A.N.} L  .L L >.L L L P H H F L H H P K ,.,XB.v ` A c x x x g ",
"*X=XF.g 6 4 4 d p c S ] :.Z.'.pX XC.<.A.F.E.).|.;X}.=X7X4X-X4X-XD.I.>.L  .L  . . .L  .L K G H G H G K K K :.1X1.c ' b g z z N g ",
"H.M.4 & > 7 d d D ] 1.Y.yXNXBXcX!.A.H.`.|. X9X9XiXiXrXiXrXsXsXpXD.I.>.L  .L L L L L L L G G G G H H K L ..:.,XB.z ' S b x z N d ",
"% ; 4 5 7 7 Z } Z.}.cXCXNXiX~.H.L.L.[.qX9X0XdXxXzXvXCXCXCXZXAXcXE.).M.L ;.L K K  .L L  .G G H G G G H ..} ,.=X,.c ' b b l x N l ",
"& > 4 > 5 r S.qXZXZXcX*XE.S.Z.H.`.}.qXdXcXvXNXAXSXSXDXSXSXSXDXFX`.|.M.L  .L K L  .L L  .H H H G H F P K } :.,X<.n _ c B v x N x ",
"& 6 6 6 5 0 E.iX[.E.B.<.C.D.T.}. XqXcXCXFXDXDXDXDXDXDXDXDXGXDXDX).].M.K L L L  .} L  .} K P H H G G H K } ,.=X1.f _ c B l c B x ",
"> > ; 6 5 7 x D ] ;.,.B.H.E.`.=XiXvXSXDXDXDXDXGXDXDXDXDXDXDXFXHXE.`.M.L >.>.L >. .L  .L G K H F H F H ..} ,.,XB.f Q c c k x N z ",
"7 6 7 5 5 e 0 V G >.V.L.T.{.9XxXAXSXFXSXDXSXDXSXSXAXvXvXvXAXAXvXR.).<.L  .L L L L L L } G G G F G G P } ..,.<X1.f _ g M x g N d ",
"r r t r g V A >.A.F.T.`.=X9XyXcXvXNXCXFXFXAXAXCXzXF.V q l C.qXAXR._.<.L L K L L L L P K G G G F G G G H ..,.,XB.f _ c g k g g d ",
"g B A F :.B.H.L.Y.!.{.*X9X4X0XrXiXxXsXCXmXvXmX{.n u u : 1 1 d |.W.W.,.L L K L ..L K G K F F P G H F H P H ;.,X,.f _ c g x z g d ",
"g Z  .B.L.T.T.T.}.*X1X<X0XyXyXiXyXxXdXcXmXCX!.[ ^ 4.8.5.t.X.R s S.T.N...P K K K L G K K F F F F P F H H H ;.,X,.f W c z x d r d ",
"..V.E.T.`.`.'.1X=X4X9X9XyXiXiXsXcXcXcXAXBXvX3.X.a.h.l.i.y.y.o.i P ).M.K H H G K K K K G F A F P F F H H H ;. X,.f _ f c x d r r ",
"Q.`.}.!.}.1X=XyXrXrXiXsXcXmXmXZXAXSXSXDXDXZX2.8.k.e.@.j.y.^ X.W V ].N.H H H F P K K K K F F F F F F G H H ;.=X,.f _ c g r d d r ",
"`.D.:.D S.9XiXxXmXNXNXZXZXZXFXSXSXSXFXDXDXFX2.8.f.O.6.d.O.^ X.! z ).<.P G G A P K F K G A A P K F F G G H ;.|.<.f _ z d r d d e ",
"l w 8 8 S.MXMXMXmXmXNXNXCXNXmXCXNXvXvXAXAXvXG.9.t.~ O.l.5./ O.o.W T.>.P G K [ K K P K K K F G A A F G G H } [.;.f _ c h q d l r ",
"0 0 r 7 1.iXtXrXrXtXtXaXsXsXsXnXxXMXmXMXmXmX^.X.f.t.l.y.5.5.d.t.! J.:.H F K K G K G F K K F F A Z A F F G H [.;.f _ v f r d r 9 ",
"7 r B 9 <.yXrXtXtXpXtXpXsXsXpXnXsXdXhXMXgX2X@Xg.h.y.@.( ) ^ t.d.^ 9.;.H K F [ G F A A A A A A A F F G G H } [.;.0 _ l z r d r r ",
"6 5 9 7 } 0X7XrX6XtXtXtXrXtXtXtXsXaXgXsXgXtXg.5.g.6.O.( O.~ ~ O.R 7.| A A A F H G A F F F F F F F F G K H } [.;.d x j j r g d p ",
"V r r 7 ] 0XrXrXrXrXrXtXpXrXrXtXaXsXnXsXgXjXOX) X.^ / d.g.O.~ Q 1 3.,.F F F F H ..F F F F F A S A A F K F L [.;.g l l j d g r q ",
"F B B x <.yXtXtXtXtXtXtXtXrXrXrX6XaXaXsXpXnX7X! s X.6.o.O.^ o.2 < L.,.F V G G G K F F A A A A A A A F G F  .[.} r d k E d d e q ",
"G V F F 1.yXgXhXaXtXrXtXrXtX6XtXtXsX6XaXrXtXrXG.: 3 6.t.( / i - : L.>.F D H F L G G A A A A A A A A F G F H [.] r g l i u w q d ",
"Z B P } D.iXgXtXaXtX6XtXtX6X6XtXiXsXaXsXaXaXaX;X0 - 1 R 2 1 - $ - F.<.F A D J F F A A A Z A F A A A F F F H `.} e d h i u a k 0 ",
"F P M.C.H.iXaXaXaXtX6X6XtX6XtXtXlXsXxXsXaXhXaX6Xn - - # # % % - a E.>.A V J Z A F A A A V Z A A A A A F A H `.] p a E I U T j w ",
"L A.|. X XxXrX5X7X7X7X7X7XrXrXeXnXsXsXrXrXeX7X;XQ s : - $ # i R [ ^.M.C C J F F F A A Z V Z A Z V A A A Z P `.] u u s 3 U T E 3 ",
"F } M.>.1.{.;X#X;X;X-X-X-X:X-X-X:X;X4X9X-X;X-X&XO.6.^ W 2 R ) O.W @XE.>.P J J D A A A A C Z A A A A Z A V F R.H , u 2 3 U U T i ",
"x x V v G T.[.'.~.{.&X*X;X&X;X{.{.&X{.&X|. X_.bXc.t.r.5.~ o./ e.^ U.,X)._.Z.:.F Z Z F P V F Z Z V c V Z v H ).H u i 2 2 U Y I 2 ",
"1.M.B.L } !.&X'.~.!.~.{.{.'.~.{.'.'.'.1X9X,X_.bXyXOXt.e.-.o.o.5.X.^.1X].*X<X1X`.H.} Z V N V Z V V V V V V H R.H w i 2 2 I I 1 u ",
"G.S.1.H G L.W.W.!.W.'.'.{.~.!.~.'.'.=X<X9X X_.bXzXqXOXy.@.6.u.5.8.@X9X|.{.<XyXyXyXR...A C F V V B A V V V F R.G w a u u i u 0 8 ",
"J.H.C.L  .E.!.W.T.T.Q.'.{.~.W.{.*X<X0XyX9X XE. XlXxX4XXX@.@.e.e.@X-X<X,X<XwXwX2XyX9XY.G V C V C V V B V Z F R.H y d q a s h r r ",
"3.C.H V A F.T.T.T.T.Q.'.{.'.{.=XyXyXwX9XyX9X). XuXeX4X&XOXk.l.c.7XwX<XyXyXpXwXuXwXyX0X,.A B C C V V N V V F [.H r d q a a 9 d h ",
"<.;.v f c L.T.R.Q.T.T.'.'.~.-XyXyXiXeX4XwXeX=X9X,X<X9X;X;X$XXX>XwXwXwXyXwXyXeXeXpXeXiX`.D V C V V V V V V F R.b & * * % % = * & ",
"x D c n W J.Y.E.Y.E.P.`.!.Q.yXyXyXiXrXwXwX2X2XzXyXuX>XXXg.OX@X>XwXwXwXpXpXxXlXpXpXpX9XiX;.Z v V V V V v V A R.w           X o @ ",
"x D n W W J.P.W.Y.W.Y.{.Q.!.zXiXzXiXyXeXwX2XyXuXyXuX+Xi.i.y.XX:XyXwXuXyXyXwXyXpXpXpXyXiXE.b V V V Z v x v F E.>             X   ",
"!.!.W.G.{ P.W.!.W.W.W.{.Y.*XzXpXuXuXyX0XwXwXwXeXzX$XoXk.l.a.f.>XiXyXyXiX=XwXzXtXpXbXzXjX&XP C x V V N B f Z E.&                 ",
"5X9X-X~.2.P.T.E.Y.P.P.T.Y.=XpXuXuXyX0XwXeXeXwXyXuX%Xh.j.j.f.g.:XyXyXyXlXyXiXpXyXuX<X0XlXiXB.c b c B x c d c F.*                 ",
"E.P.Y.Z.S Z.L.L.H.L.L.L.P.<XlXlXuXuXyXwXwXyXyXeX:X+Xh.j.l.a.9.-XuXyXwXiXpXlXpXpXeX9XuXeXdX_.b z c c x x d c M.+                 ",
"D F ,.;.V ,.Z.S.S.S.H.H.L.2XlXuXuXpXeXwX2X2XyXuX$Xc.h.f.t.8.@X<XyXyXwXyXuXpXuXpX<X-XeXVXzX].F v x B x x l V N.O                 ",
";.:.D.B.Z ;.M.,.<.B.C.V.V.<XlXpXpXpXeX4XwXyXeX>X+Xx.y.6.8.XX*X<X<XyXyXyXpXuXwXyX<X,X0XzX}.Y.| g x x l r f b L O       X . O X X ",
"Y.[.|.<.d G >. .;.>.<.>.| }.lXlXlXpXeXwXwXeX>X+X+Xj.6.4.K.:X*X}.<XyXuX2XyXyXwXeX=X.X].W.9.f.8.M x x x d d Z P @         @ O O O ",
"/.[.{.:.r K  .L L L L >. .`.xXxXlXlXuXeX9X:X+Xh.h.d.4.9.~.<X1X}.<XwXyX<XwX<XwX-XZ.| 7.g.a.s.y.[ x x r l l B V .         O + * = ",
"H.G.Z.Z d F L K H P L >.} `.cXcXlXlXuXyX-X@Xk.x.l.O.8.;X X,X2X=X<X2XwX-X2XwX<X~.` Q w.r.p.p.p.-.d g d l f b M .         . . . . ",
"v c c x 0 Z G ..G H ] L m.T.uX=X}.|.|.`.OX+Xh.a.t.6.^.'.'.2X<X1X=XyXwXwXwX-X-XQ.F W / ( p.i.r.6.m B M a s _ p               X o ",
"x r x 9 w V H F K F H >.L V.OX@X+Xg.g.d.f.k.a.r.O.6.^.'.*X2X<X<X<XyXwXyX9X<X-XQ.Z m ^ w.w.w.s.p.n B x f 0 j 0 X       . o @ @ @ ",
"B.L F x F P H K P P H ..[ 4.j.c.v.s.i.p.a.h.a.e.o.K.^.`.<X<X-X<X=XyXwXyXwX2X<X~.A z W / ( w.s.p.{ r r j a e 7 X . o X X         ",
"<.B.;.l r c V b V C b V Z 4.v.z.s.s.s.h.a.f.e.O.X.U.^.].1X-X<XyX<XwXwXyXyXyX2X'...k m ~ / w.r.i.^ e q E a r 6 @ o o o X X       ",
"G D J q & w V l x N x N B X.h.z.x.h.h.a.r.w.O.( 7.U._.&X1X-XeXuXwXyXwXyXyXyX<X&XA k z ^ w.p.w.i.W e a i p 0 & X X X X . o = % & ",
"v w , 7 > 7 x x d V V N C 4.j.s.h.f.i.r.r.w.( ^ 7.J.Q.*X*X-XuXuXyXeXwXwXeXuXwX;XH k c o.w.s.w.r.R h d m r p d 5 r l H <.D.T.`.`.",
"w d 7 , , w l c x V v N v 4.a.p.p.w.5.w.5.( ^ X.G.J._.'.*X-X2X2XwXwXwXeXwXyXyX:XS.v n O.w.w.r.w.[ f d n r h L.'.!.!.!./.!.~.~.W.",
"l e , > , w c x N C v C V W 5.p.w.w.w.w.( ^ X.7.P.P.Q.&X&X-X2XlXuXeXuXwXwXeXeXwX'.Z W e.w.w.y.5.D z 4 u 8 p E.H.A.C.H.H.P.L.Z.1.",
"H c z l e d A Z V V Z C F A ! e.r.y.5.( ^ ! 7.~.Q.^.~.&X&X-XyXpXuXpXyXyXyXuXuX-X;X1.W e.-.w.i.9.Z.}.,.:.` n ,.>...K H.3.;.,.N.F.",
":.H } H H ] ,.,.F Z S F F V ! 6.a.( ^ ^ Q K.&X&X&X&X;X*X&X;X<XpXpXuXpXgXuXeXeX:X:XK.^ e.w.s.9.9.&XBX8X3Xb.#X|.S.3.W.=X).M.F r C ",
"H G H G H H :.:.L H D ..F v [ 4.( / ! Q U.2X[.'.<XwXwXwXwX2X2XeXpXpXrXpXpXuXwXuX/.3.9.p.s.r.p.%X+X%Xn.*.$.n.n.&.%.%.b.R.m z t * ",
"] H H G S D ] ..L B.2.,.;.;.H W Q W W [ ~.-X<X<X;X<XyXuXpXuX2XwXlXlXnXpXlXxX<XJ.M W y.s.i.w.q.q.-.-.*.$.$.#.&.$.$.&.%.*.0.[ ] t ",
"C.C.1.:.H D ] | :.} :.1.C.} D ] n b b S H ,.H.;X<XzXwXwXpXnXnXMXlXMXMXlX1XC.x v n 6.z.s.y.OXfX5XfX/.b.%.=.=.b.b.b.b.kX3X3.2.~.0X",
"D.H.H.Z.G D [ | ] | [ [ ] <.<.;.H J J F T.{.G.P.J.P.P.Q.<X<X}.Q.F.| [ b J ;.2.:.{ j.s.s.f.9./.0XfXqXVX3X*.=.kXMXfX5X;.N.H.].A.F ",
"3.J.Y.D.] ] ] :.:.| :.;.] :.;...,.H } ..[.{.'.'.`.P.S.V.A.Z.1...A ` | 1.E.E.2.4.f.v.s.k.8.z r L C.F./.5X6X8X8X8X#X^.<.P z b 5 y ",
"G.D.G.D.] ] :.:.:.} :.2.:.] | <.:.,.| G.-X{.'.'.`.Q.Q.W.P.I.T.).'.Q.!.Y.P.G.8.k.c.x.h.k.K.c 0 p h [ M.Z.Z.Y.}.rXgXrXrX6X<X<X~./."
};
