/* XPM */
static char *waka15_jpg[] = {
/* columns rows colors chars-per-pixel */
"64 64 253 2 ",
"   c #010101",
".  c #0A0A0B",
"X  c #070808",
"o  c #181716",
"O  c #0C0D11",
"+  c #261E1B",
"@  c #28241D",
"#  c #36291F",
"$  c #282725",
"%  c #352A24",
"&  c #3C352C",
"*  c #3C3834",
"=  c #1C3025",
"-  c #48342B",
";  c #453C36",
":  c #4A322C",
">  c #5C3728",
",  c #45423C",
"<  c #4A443D",
"1  c #5A4639",
"2  c #564B2F",
"3  c #68493B",
"4  c #75553D",
"5  c #68643F",
"6  c #444441",
"7  c #4D4945",
"8  c #4B4945",
"9  c #524E4A",
"0  c #554C44",
"q  c #55524C",
"w  c #5A544C",
"e  c #5B594B",
"r  c #5A5552",
"t  c #5D5B54",
"y  c #585955",
"u  c #4F504B",
"i  c #6A4A45",
"p  c #754A43",
"a  c #64574C",
"s  c #765848",
"d  c #635C54",
"f  c #6B5D53",
"g  c #645E5A",
"h  c #675956",
"j  c #795A54",
"k  c #5D6455",
"l  c #646156",
"z  c #6C6155",
"x  c #65625C",
"c  c #6B645C",
"v  c #6C695D",
"b  c #72655B",
"n  c #756A5E",
"m  c #786457",
"M  c #70674E",
"N  c #5F6466",
"B  c #6B6662",
"V  c #6D6A63",
"C  c #686866",
"Z  c #726C64",
"A  c #796D63",
"S  c #746E6A",
"D  c #7B6E6B",
"F  c #747166",
"G  c #75726A",
"H  c #7A756C",
"J  c #7C796E",
"K  c #797266",
"L  c #7C7671",
"P  c #7E7A72",
"I  c #777B78",
"U  c #6A7468",
"Y  c #5B5C61",
"T  c #903835",
"R  c #B33135",
"E  c #80413A",
"W  c #B43642",
"Q  c #835A49",
"!  c #8E5D4D",
"~  c #AF4446",
"^  c #8A6957",
"/  c #986A56",
"(  c #99725C",
")  c #8D644D",
"_  c #A56C57",
"`  c #A8755A",
"'  c #B87D5C",
"]  c #B66C5A",
"[  c #936B67",
"{  c #827A6E",
"}  c #88776C",
"|  c #967665",
" . c #827C74",
".. c #897E74",
"X. c #847E79",
"o. c #867775",
"O. c #937D74",
"+. c #806E6A",
"@. c #AA7963",
"#. c #B67C65",
"$. c #A26E63",
"%. c #C07C5A",
"&. c #C57F65",
"*. c #7B8178",
"=. c #B6B53E",
"-. c #848834",
";. c #D2D70E",
":. c #D0D62E",
">. c #E6D237",
",. c #858176",
"<. c #8A8276",
"1. c #86827A",
"2. c #8B847B",
"3. c #8D897E",
"4. c #928A7D",
"5. c #958572",
"6. c #908570",
"7. c #A9836B",
"8. c #B88468",
"9. c #A5887A",
"0. c #B78D77",
"q. c #BC937A",
"w. c #A99475",
"e. c #A1965E",
"r. c #C7855D",
"t. c #D48A5D",
"y. c #CA8C6C",
"u. c #C68867",
"i. c #D28B69",
"p. c #CC916D",
"a. c #D8966A",
"s. c #C78C72",
"d. c #D58E76",
"f. c #C6957A",
"g. c #D49473",
"h. c #DB9D75",
"j. c #D89879",
"k. c #E29A78",
"l. c #D6A47A",
"z. c #E1A17C",
"x. c #E38D5A",
"c. c #D1D755",
"v. c #CAD65C",
"b. c #DBD870",
"n. c #887F80",
"m. c #8D8B84",
"M. c #8A8581",
"N. c #948D83",
"B. c #988C86",
"V. c #959186",
"C. c #9B9386",
"Z. c #9C958B",
"A. c #9E988D",
"S. c #979588",
"D. c #9D9A93",
"F. c #9C8F96",
"G. c #A3968B",
"H. c #A29A8C",
"J. c #A89889",
"K. c #B79989",
"L. c #A49C92",
"P. c #A99E93",
"I. c #A99488",
"U. c #AAA38E",
"Y. c #A7A295",
"T. c #ACA395",
"R. c #ADA59A",
"E. c #AEA99C",
"W. c #A6A29A",
"Q. c #B1A295",
"!. c #B2A69A",
"~. c #B3AA9D",
"^. c #BBAC9D",
"/. c #B8A895",
"(. c #BAB19D",
"). c #B4AA87",
"_. c #ACA9A3",
"`. c #B5ADA2",
"'. c #BAAEA1",
"]. c #B4ADA9",
"[. c #B5B1A5",
"{. c #BCB2A4",
"}. c #BCB5AA",
"|. c #B7B6AC",
" X c #BCBBB3",
".X c #98A7A4",
"XX c #C89B84",
"oX c #DA9B82",
"OX c #E59E85",
"+X c #C1A18F",
"@X c #D9A48A",
"#X c #C8A997",
"$X c #D7AC96",
"%X c #C6B599",
"&X c #D7B39B",
"*X c #C6BB8E",
"=X c #E5A388",
"-X c #C3B4A5",
";X c #C3B5AA",
":X c #C4BAAC",
">X c #CBBBAD",
",X c #C9B6A7",
"<X c #D2BAAC",
"1X c #D6B7A3",
"2X c #C5BCB2",
"3X c #CCBEB2",
"4X c #D3BBB4",
"5X c #C2AEA2",
"6X c #BFC1AB",
"7X c #D0CD91",
"8X c #CCC2AE",
"9X c #C5C5A4",
"0X c #D5CAAE",
"qX c #D7C8AC",
"wX c #D3D1A9",
"eX c #CDC2B4",
"rX c #CDC4BB",
"tX c #C9C6B9",
"yX c #D3C3B5",
"uX c #D5C9B3",
"iX c #D9CBB4",
"pX c #D4C5BA",
"aX c #D9C6BB",
"sX c #D5CBBC",
"dX c #DACBBC",
"fX c #DCC2B3",
"gX c #DBD1B6",
"hX c #DDD3BB",
"jX c #D8D5B9",
"kX c #E2C8B9",
"lX c #E1D3BC",
"zX c #E6D5BD",
"xX c #E8C4AA",
"cX c #E3E4A7",
"vX c #D4CCC2",
"bX c #DBCCC1",
"nX c #D8CCC8",
"mX c #DBD2C4",
"MX c #DDD5C9",
"NX c #DDD8CA",
"BX c #D6D3CA",
"VX c #E2D5C3",
"CX c #E3DACC",
"ZX c #E7D8C9",
"AX c #E3DDD2",
"SX c #E5DED4",
"DX c #E5E1D5",
"FX c #E5E3DB",
"GX c #EAE4D9",
"HX c #E6E6E2",
"JX c #EAEAE5",
"KX c #EBEBEA",
"LX c #E9E7E2",
/* pixels */
"V.W.|. X|.S.P A J G 1.2.B.N.C.N.5.3.2.,.P G V g S q u 8 6 6 6 6 q G V S S G L P P P X.P P P P X.L P X.X.P ..N.2X2.v [ n v C c l ",
"].|.|._.A.3.1.M.N.P.`.'.>X>X,X-X-X~.H.S.m.,.P S G c x y 9 6 , , q I G L H G M.P X.X.P X.P P o.L G L P o.{  .V.eX2.v [ n l c x g ",
"|.W.V.M.P ,.2.V.V.L.L.Q.-X>X>X<X>X-XT.H.3...,...N.3.2.2.o.F Z d B 1.I P L L X.X.1.X.X.L P P P I J P P X.P ..N.tX3.v [ b v x z x ",
"V.P F U F F G G H ..3.N.4.{.0XyXpX-XC.<. . .N.Z.Z.H.L.R.Q.R.T.Z.V.2.1.H L P L X.P o.X.X.X.P P P P P P P  . .N.rX2.v [ z x x b x ",
"A.S.S.S.2.1. .P A Z Z L <.Z.Z.N.C.Z.4.3.3.1.V.A.T.~.~.~.T.P.P.J.L.m.1.H P 1.L 1.P X.I X.X.X.P P G P L o. . .N.tX2.v [ n v x b x ",
"S.S.Y.E.E.~.[.[.}. X_.m.G t 8 8 0 g v C v v G 3.N.G.Z.H.G.J.G.G.N.3.,.H P o.1.P X.X.X.X.P X.P P G J L  . . .2.tX2.z [ Z l x x d ",
"Y.W.E.`.}.2X>X>XrX Xm.r 8 9 r r r y x x C V v G  .,.3.N.C.U.H.L.1.2...H P L M.P X.X.X.X.P P P L H P P L  .{ 3.2X2.v [ n c f f x ",
"R.`.[.{.:XeX2X>XN.d < 9 y r t g B g B B I 2.L ,.m.m.C.S.H.Y.R.`.V.2.1.P X.P P 1.X.P X.X.P P L P G  .P H J  .2.8X<.v [ n v x g x ",
"R.[.`.}.2X[.2.y 6 8 9 r x b Z K D H o.M.N.M.3.Z.A.L.E.~.[.;X:X:X}.B.A.1.I  .,.{ X. .X.X.P L L P L H G G J  .1.2X3.f [ n n x c c ",
"[.|.}.~.,.q , 7 9 r g V K  .B.R.:X`.C.N.Z.A.Y._.[.}.}.:X8X8XyXeX>XZ.P.1.L o. .X.X.X.X.o.G L L L H H L H P  .2.2X<.z [ n z x x x ",
"|.[.W.x ; ; 9 u g v K  .A.[.sXGXSX}.S.C.R.`.}.:X8X8XeXpXsXhXdXdXpXZ.P.1.P X.o.o. .X. .P L L L L H H J H J  .1.2X3.z [ n z x x f ",
"V 8 , ; , u q C H B.~.rXSXGXMX2XY.Z.L.`.2X2XeXBXbXBXNXNXCXDXSXSXMXW.].1.P P ,...P o.P  .X.L L L D { P H J  .2.2X<.b [ n x x x d ",
"* & ; 6 7 q r M.~.nXGXCXeX~.H.S.H.~.}.tXrXbXMXAXFXHXJXJXKXJXKXJXFX[.|.m.1.P P L X. . .X.X.P L L H { L L P ..2.:X2.z [ b z x C z ",
"* ; 6 6 ; 6 t L.CXvX{.H.B.N.Z.Y.[.6XtXvXDXJXJXJXKXKXKXKXKXKXKXKXFX[.`.*.c g Z { L X.X.P P P L P L H H L P  .2.2X2.f [ b z B B c ",
"< ; 6 6 , 8 7 V 1...{ X.N.A.R.[.}.tXAXFXJXHXHXJXJXJXKXKXJXHXKXHXFXV.l ; & % & % w S X.P P L L P H H H L  . .2.eX4.f [ z z x c c ",
"9 8 7 8 u u q t x H 1.S.P.R.`.2XmXDXJXJXKXKXKXKXJXHXHXHXFXHXHXSX|.l ; - - % % % % d o.P P P L L D K H L P  .1.eX4.f [ z l g x c ",
"g w r q r y B C P m.A.L.`.}.2XsXmXCXSXDXLXDXFXSXDXDXDXDXAXFXGXvXl ; i Q ^ s 3 p 4 1 U *. .G G o.G F G H J J ,. X3.l ^ c x d g l ",
"B g B V S G 1.S.D.R._.]. X3X3XyXuXdXjXMXNXAXSXDXDXDXDXDXDXFXAX`.1 3 #.oXd.g.s.s.g.| n H D L S D G G G G H J ,.8X2.f / z B g g d ",
"D f B L 3.Z.A.Y.~.{.;X X2XyXyXuXsXdXhXBXMXCXAXCXFXNXGXFXFXFXAXL.0 3 w.h.k.h.j.a.k.8.m K D H U L F H G H J J ,.:XM.z / x c l g g ",
"z Z <.L.Y.`.~.;X;X:X>X8XeXyXuXuXdXmXNXCXAXDXDXDXFXFXJXFXFXHXHX].h j 8.j.OXd.d.d.` ( } G { F G G G G G G H J ,. XM.f ^ f g e t t ",
"C.U.~.}.`.}.:X:X>XeXpXsXbXmXNXZXDXDXFXHXHXKXJXJXJXKXJXHXJXJXJXbXf ^ 0.j.s.) @.i./ / ..S L S G A G F G H L P ,.:XX.f ^ z g e t t ",
"(.[.E.S. .V.3XbXnXnXCXDXDXGXLXLXJXJXKXJXKXHXJXHXJXKXHXFXKXJXLXnX| ( 0.j.@./ 0.oX#.#.9.A S L G G G G G G H J ,.}.n.f ( v g t t d ",
"<.{ g q e 2.bXZXZXZXCXDXDXDXDXAXAXAXDXDXDXFXFXFXFXDXDXDXFXDXDXyXg.8.j.OXk.d.j.j.d.d.0.J H D F K G G G K G H { [.1.f / g t w d d ",
"r q u q w { dXiXlXwXwXgXgXgXhXhXmXNXNXCXCXCXCXCXCXCXCXCXNXCXZX1Xi.8.q.oXOXk.p.u.r.g.0.A P S G G V Z S F H G J }...h ^ z g d g d ",
"8 r t B t H eXuXuXuXiXaXiXlXlXlXjXjXjXlXhXVXZXVXhXVXjXhXhXlXZXdXk.@./ f.j.g.oX$./ 0.$.n K G v G F F F H J H *.[.1.h m j z q t g ",
"6 6 6 9 9 Z eXuXuXuXuXiXiXiXiXiXgXgXjXlXhXhXhXhXhXjXhXhXlXVXlXVXxXK.s ^ 8.s.' ' ] @.s d V L F Z F G F G H F { [.<.a z j Q d a Y ",
"m.S r r r V >XuXiXiXfXiXuXiXiXuXiXhXzXzXlXlXzXjXzXdXlXjXgXlXdXVXuX!.j 1 s 0.i.%.] ` 1 v G F L F G G F H H F J (.1.t k f f r d t ",
"_.1.C g B J eXhXhXiXiXiXiXiXuXuXiXiXhXhXhXlXjXgXjXgXlXiXqXgXkXVXCXXXQ : : Q &.#._ Q & d G V S D G G F G H G *.~.O.y k l a d t g ",
"V.L C v G ,.uXhXlXhXiX0XiXuXuXuXiXiXiXiXiXiXiXiX0XgXqXqXiXgXmXhXrX0./ > ; : 4 p : - % w G V c Z S G V F J G J E.o.r h s i a e e ",
"1.G F G J <.8XgXzXlXiX0XiXfXuXiXiXiXjXhXhXhXgXgXgXlXiX0XgXgXjX}.eX0.8.4 % % % # # @ : 0 S F S Z S Z V F J G H E.*.w f j p p a e ",
"I Z G *.m.A.uXjXgXgXiXiXiXiXuXiX0XgXhXVXmXjXhXhXhXhXiX0X0XyX:X_.sX+Xs.8.s 1 : # : : } { S Z Z Z V F Z F G G J E.o.w a s T W ~ 4 ",
"P P m.|. X XjXuX0X0XqX0XqXuXuXuX0XjXhXmXiXyXqXqXyX8XyX>X>X2X]._.nXfX8.t.i._ Q Q ^ ^ (.Y. .Z S S V Z n F F Z J ~.o.0 p 4 3 R ~ ~ ",
"J J I S.N.3.;X,X>X,X>X>X8XqX>X8X9X8XeX8XyX:X:XyXpX3X>X>X2X2X_._.bXsX%Xs.d.' ` #.#.| -X2X;XL.N.H Z A S A Z Z G _.H 0 ; p 3 R R R ",
"v z l Z C n ~.;X-X-X-X-X:X:X;X-X-X-X-X;X-X>XyXpXpXyX3X<X3X2X].|.rXvX<XXXy.u.u.y.&.q.<X|. XpX4X;XL.<.b S A v F `.o.0 i i T T R R ",
"..{ <.<. .K E.(.`.'.(.-X-X-X-X{.{.(.{.(.~.eXsXpXyXvX3X3X4X3X2X2XpXpXaX%XXXp.a.g.f.1XvX X].pXyXsXbX;X..Z n F F E.P 0 p 3 p T T 3 ",
"H.H.H.C.1.K T.E.!.~.~.~.%X{.{.[.[.^.`.(.}.yXnXpXyXpXyX3X4XvXyXvXvXpXpXyX1X@Xj.oX1XuX3XaX4XbXrXdXbXmX!.c Z F F E. .a a 1 3 4 0 e ",
"U.U.U.S...H W.~.!.R.!.~.{.{.(.~.~.~.~.{.3XbXpXpXpXpXrXyXyXyXpXpXaXbXvXrXhXxX1X1XsXpXfXVXkXfXkXVXbXMXrX1.V Z F `.L a e a 1 s a w ",
"H.A.4.,.H Z H.R.R.R.!.~.{.;X[.^.!.~.~.;XpXvXpXpXpXpXpXyXfXyXfXyXfXbXbXvXnXVX4XbXvXbXbXfX$X$X1XkXVXVXMX`.Z V F _.*.r r l i h a r ",
"C.4.6.n f b C./.E.!.!./.(.'.`.`.~.`.;XyXbXaXyXpXpX3XpXeXpXpXfXaXaXaXbXbXdXmXbXnXaXvXaX1X&X&X$X$X1X4XkXeXP V F E.D % $ = @ @ $ $ ",
"F K K A m A C.Q.R.E.R.R.!.!.!.!.R.~.:XdXdXaXpXuXpX>XpX3XpXvXpXaXaXpXaXkXfXmXdXbXkXkXbX2X<X1Xd.j.@X1XfXlXA.v n E.t             X ",
"M z v m m ^ w.Y.Y.!.R.R.|.5XQ.R.Q.{.vXnXvXpXfX4X>X3XfXpXpXaXaXaXdXpXaXdXpXbXbXbXbXbXfX4X1XoXs.j.a.@X$XiXL.C Z U.u               ",
"~.U.T./.K.| G.R.!.`.!._.`.^.P.T._.;XiXlXaXbXpXpX3X,XpXsXuXpXaXaXaXuXaXbXaXbXbXbXaXlXaX1X#Xf.u.u.g.p.f.&X}.G V J.6               ",
"8X8X8X8X#X5.J.'.R.Q.Q.T.R.!.L.L.D.|.pXdXsXsXeXyX3X-XyXnXpXaXbXaXaXaXdXpXpXaXbXbXkXfX<X1X#Xf.0.8.#.#.7.f.#XL B B.*               ",
"U./.E.~.P.} B.A.L.H.J.U.P.Y.G.L.XXK.T._. XvXrXeX^.~.:XpXpXaXdXaXdXaXpX4XpX4XbXpXdX4X1X1X$X#XK.0.K.0.` ` 0.<.x N.$               ",
"<.J F ,.N.Z 1.Z.S.S.Z.H.L.Y.G.J.a.k.k.f.D..X].;XP.^.>XeXpXaXdXaXsXpXpX3XyXyXpX4X,X>X<X<X#X<X/.I.!.J.8.` 8.7.b 1.$               ",
"..J J A.N.V P 3.m.3.4.V.V.V.4.w.k.a.a.a.h.f.9.N.J.,XyXyXyXpXyXaXyXyX4X3XyX3X>X<X3XpX4X-X^.;XB.A { 7.p.y.y.0.^ 1.o         X . . ",
"E.~.~.}.S.B G 3.1.,.1...2.1.5.0.a.p.y.t.x.t.7.4.I.5X3XyXeX3XyX3X<X4X>X<X3X<X-X>XyX3X,X5X^.'.} h | 7.y.u.p.p.7...o         . o o ",
"T.U.E.:XN.x F <.o. . .X.n.1.5.l.a.a.i.t.r.@.} M.Q.5X>X3X2XfXsX>X<X<X,X<X,X,X;X4XpX3X5X}.^.Q.A m / u.a.8.u.u.y.| O         o o $ ",
"H.A.Y.L.P e Z P I X.H L M. .0.j.h.a.a.t.r.8.( 9.K.#X1X<X1X&X&X$X$X@X@X$X$X#X3XeXpX-X5X,XK.G.B x ) ' u.#.8.r.u.8.@         . . O ",
"l n v x x k V L L { L P I ..q.h.a.a.a.x.t.p.p.l.g.k.=X=X=X=X=X=XOXOXj.g.XX#X<XpXrX4X,X#XG.C.Z x b @.y.#.' ' ' 8.% X           X ",
"d v d d e q x J L H { L L 6.f.h.a.a.h.h.l.h.a.a.k.z.z.z.=X=X=XOXk.k.k.y.q.#X<XfXpXfX2X!.B.3.B d x @.' 8.` ` 8.` +   X . X O . O ",
",.2.J F l V P L H K L L L 6.q.g.p.p.p.p.p.a.a.a.a.a.g.j.z.z.z.j.k.k.g.s.XX,X>X4XdX2X{.T.G.} f h Y ^ ' ` / _ ` ` $ . X . . .     ",
"4.A.4.,.v k v V V C U C S A | 7.@.#.%.%.r.r.' u.8.@.#.#.s.j.d.j.j.d.s.f.#X>X3XvXfX-X(.T.P.G t B B j ` _ ) / ! ` = X X O   X     ",
"G ,.J G t * , B x x B g C x b ^ ^ ( / _ _ / ( $.| | | @.7.0.XXf.f.0.XX/.,XeXyXvX;X}.{.~.Z.B t V F d M / Q ! ) Q o . X X . o $ * ",
"< e e q 9 , 7 l x B V B S C c c g B b b b +.B.I.9.9.9.B.I.K.K.K.K.K.K.,X2X2XeX>X-X;X;X}.2.y Y C ..l e m ) Q ^ ^ q t C  .4.H.R.[.",
", e e q < , e l x g V c B V U N C C C C x ..'.,X^.5X{.{.`.`.~.~.{.5X-X3X8X>XeX>X>X:X>XeXo.y Y C ,.v y 0 s Q 5 G.~.R.R.!.~.^.%X^.",
"0 v e < , , 0 x l x B V V Z V B v v B B x Z H.3XyXpXeXeXyXeX>X>X3X3X3X:XrXpX2X,X3X3XpX{.Z d H C.).6.B 1 i 2 u w.U.S.M.Z.G.C.4.B.",
"t H F l e w w C V V V Z V Z Z B V v x x c 1.P.T.pXbXmXbXpXvXbXpXbXpXyXfXpX3X,XvXpXeXpXZ.d t 2.:X6XU._.H.O.o.G  .m. .H Z.U.6.{ ,.",
"x ,.,.{ .. ...N.3.H V V A S Z C F C x x Z `.{.Q.B.P.2XMXNXMXMXCXbXaXbXaXpX,X,XfXaXdXvXN.V X.G.(.*X#XBXjX7Xb.7X/.I.w.).wX}.6.X.M ",
"c ,.J K J F A ..2. .J { H Z Z S V x x v  .}.:X'.{.T.C.2.2.E.rXrXpXvXpX3XeXdXpXeXvXeXsXpX:XeX9X9Xl.l.,Xv.:.;.:.c.:.:.:.c.7X{ a B ",
"K X.{ H ,.K K <. . ...3.1...{ K F V v v H.;X[.^.'.!.R.V.x < ; & h ..`.2X3X3X2X:X{.L.H.{.8XjXwX9X=.e.e.=.;.;.c.c.c.b.b.b.v.*XB.{ ",
"N.S.4.3.4.K K { o. ...<.N.N.2. .J G Z v {.3X{.}.{.~.!.Y.R.P...t % + + % * ; ; < z F 4.P.{.-XgXwX6X6X|.b.:.;.c.cXcXcXc.7X9X>X5.B.",
"C.G.G.G.H.{ H { {  ...{ { ..<.<...{ A A }.;X`.'.'.`.`.Y.T.R.!.'.L.H d 0 w V { 2.C.H.~.T.A.J 3.~.4XwXsXzX7X>.>.:.cXl.-.5 r V x z ",
"G.C.H.U.H.{ {  .....X.....{ <.<.<.<.{ ..;XT.H.Q.!.'.`.Q.R.Q.P.P.!.!.`.R.T.{.'.R.Y.U.G.G.H.H r g ..S.A.'.6XjXcXwXwX(.F.<.c y 6 * "
};
