/* XPM */
static char *waka7_jpg[] = {
/* columns rows colors chars-per-pixel */
"64 64 256 2 ",
"   c #010201",
".  c #06090A",
"X  c #0A0C0D",
"o  c #040709",
"O  c #13100E",
"+  c #1A1816",
"@  c #090F15",
"#  c #271B17",
"$  c #27221D",
"%  c #34261C",
"&  c #282422",
"*  c #382B24",
"=  c #36332E",
"-  c #3D3833",
";  c #46372A",
":  c #453D38",
">  c #503427",
",  c #77392C",
"<  c #45423D",
"1  c #4B433D",
"2  c #4F4234",
"3  c #58473B",
"4  c #4E533C",
"5  c #6B493C",
"6  c #77453B",
"7  c #6C593D",
"8  c #7A7B2B",
"9  c #454341",
"0  c #4A4542",
"q  c #4D4A46",
"w  c #4D4C4B",
"e  c #524B45",
"r  c #524E49",
"t  c #5B4C46",
"y  c #55524C",
"u  c #5A544C",
"i  c #5E594E",
"p  c #585046",
"a  c #5B5651",
"s  c #5D5B53",
"d  c #565951",
"f  c #525550",
"g  c #684D45",
"h  c #66554A",
"j  c #785548",
"k  c #635C55",
"l  c #6B5D54",
"z  c #635D5A",
"x  c #675B58",
"c  c #765953",
"v  c #734744",
"b  c #5C6456",
"n  c #656255",
"m  c #6A6256",
"M  c #66625C",
"N  c #6B645C",
"B  c #6C695D",
"V  c #6A6958",
"C  c #73645C",
"Z  c #77675A",
"A  c #726854",
"S  c #655B62",
"D  c #656562",
"F  c #6A6661",
"G  c #6D6A64",
"H  c #6A6A66",
"J  c #736C64",
"K  c #736E69",
"L  c #796D64",
"P  c #747166",
"I  c #797266",
"U  c #76716B",
"Y  c #7A746D",
"T  c #7D796E",
"R  c #767B6C",
"E  c #7C7671",
"W  c #7E7973",
"Q  c #6F716A",
"!  c #8F3839",
"~  c #B13438",
"^  c #C63D44",
"/  c #875D53",
"(  c #8E5048",
")  c #8D624B",
"_  c #8C6A5A",
"`  c #88675A",
"'  c #966B57",
"]  c #90725A",
"[  c #A6745B",
"{  c #B97759",
"}  c #A46A53",
"|  c #8D6964",
" . c #926D65",
".. c #827B6E",
"X. c #85776A",
"o. c #987666",
"O. c #837C74",
"+. c #8A7D74",
"@. c #837E79",
"#. c #867B77",
"$. c #967A76",
"%. c #A67963",
"&. c #B57B66",
"*. c #AB494A",
"=. c #C37D66",
"-. c #C06E58",
";. c #7F8176",
":. c #D1D80E",
">. c #CCD72F",
",. c #E5D83A",
"<. c #BD845D",
"1. c #858174",
"2. c #8A8276",
"3. c #85827A",
"4. c #8B847B",
"5. c #8C897D",
"6. c #928B7D",
"7. c #9B8A7B",
"8. c #978479",
"9. c #9F806B",
"0. c #AD866B",
"q. c #B88568",
"w. c #A78876",
"e. c #B78873",
"r. c #BA957A",
"t. c #9F9C64",
"y. c #D78D5D",
"u. c #CF895E",
"i. c #C48464",
"p. c #C58A64",
"a. c #CB8B65",
"s. c #CC8B6C",
"d. c #C78769",
"f. c #D48C67",
"g. c #CC926C",
"h. c #CA9465",
"j. c #D39265",
"k. c #D3936B",
"l. c #DD9B6D",
"z. c #DA9566",
"x. c #C78C74",
"c. c #D48B71",
"v. c #CA9677",
"b. c #D29474",
"n. c #D39A7B",
"m. c #D89878",
"M. c #D9A565",
"N. c #CED550",
"B. c #E5D74B",
"V. c #D1D275",
"C. c #DDE162",
"Z. c #8E8B83",
"A. c #8B8680",
"S. c #948C83",
"D. c #958D86",
"F. c #9A9286",
"G. c #96928A",
"H. c #9B948B",
"J. c #999587",
"K. c #9D9692",
"L. c #918792",
"P. c #A2958C",
"I. c #A39A8D",
"U. c #AB9C8D",
"Y. c #A99787",
"T. c #B59C88",
"R. c #A49D93",
"E. c #A79C95",
"W. c #AE958A",
"Q. c #A6A38E",
"!. c #BAA58C",
"~. c #ACA394",
"^. c #ADA49B",
"/. c #AEA99C",
"(. c #A6A196",
"). c #B1A495",
"_. c #B2A69B",
"`. c #B3AA9C",
"'. c #BBAC9D",
"]. c #B8A994",
"[. c #BAB596",
"{. c #ADA9A3",
"}. c #B4ADA2",
"|. c #BAAEA3",
" X c #B6B1A5",
".X c #BCB2A4",
"XX c #BBB4AA",
"oX c #B7B4AC",
"OX c #BDBAB3",
"+X c #B79CA1",
"@X c #C79C83",
"#X c #DA9980",
"$X c #C5A58B",
"%X c #D7A487",
"&X c #C8AA94",
"*X c #CAB59C",
"=X c #D5B798",
"-X c #D4AF91",
";X c #C2B3A5",
":X c #C3B6AB",
">X c #C4B9AD",
",X c #CBBBAE",
"<X c #C9B8A5",
"1X c #D4BDAA",
"2X c #C5BCB2",
"3X c #CDBEB2",
"4X c #C9BDB8",
"5X c #D2BEB2",
"6X c #D2B7B0",
"7X c #C1AFA8",
"8X c #E3A284",
"9X c #D6D18B",
"0X c #CCC4AC",
"qX c #D5C5AC",
"wX c #D8C6AE",
"eX c #CDC2B4",
"rX c #CBC3B9",
"tX c #C8C4B8",
"yX c #D3C2B5",
"uX c #D5CAB3",
"iX c #DBCCB4",
"pX c #D5C5BA",
"aX c #D9C6BB",
"sX c #D5CABC",
"dX c #DACABC",
"fX c #DBC4B5",
"gX c #DCD2BD",
"hX c #DBD3B8",
"jX c #DFD3A9",
"kX c #E2D4BC",
"lX c #E3D6B7",
"zX c #E3CEB7",
"xX c #E7E3A6",
"cX c #E2DF85",
"vX c #D3CCC1",
"bX c #DCCDC1",
"nX c #DAC7C0",
"mX c #DDD2C4",
"MX c #DAD5C9",
"NX c #DBDAD4",
"BX c #CFC8C3",
"VX c #E2D4C4",
"CX c #E3DBCC",
"ZX c #E3D8C7",
"AX c #E4DDD2",
"SX c #E7DED4",
"DX c #E5CAC2",
"FX c #E4E1D5",
"GX c #EBE4DA",
"HX c #E6E5DB",
"JX c #E5E1C8",
"KX c #EBEAE4",
"LX c #EBEBEB",
"PX c #E7E5E3",
"IX c #F2EAE7",
"UX c #DEE0D3",
/* pixels */
"Z.(.oXOXoXK.E K U E +.S.F.D.D.7.7.4.Z.@.W K G M P y w q 0 < 9 9 f E K G T U T W @.@.E W @.E @.E E E W @.O.O.P.2XO.Z ` B N G N a ",
"}.oX{.{.R.A.@.A.S.R.`.|..X;X:X.X.X^.H.J.S.4.Y G Y D z a q < 9 < s E E Y W T W W @.@.W W W W W W E E W @.O.O.I.2X1.Z | B N N N k ",
"oX{.K.Z.@.@.Z.G.J.I.E._.;X,X5XyXyX;XI.F.4.2.5.6.S.4.A.3.Y J B k K @.O.W W W O.@.@.@.W W @.E W E E E W A.@.O.I.rXO.Z | m N N M k ",
"Z.W Q H K U X.Y ..4.F.F.U.;XeXyX5X;XF.8.#.1.S.F.P.R.~._.`.`.^.H.S.Z.3.O.W W W @.@.@.@.@.@.E W E E E E @.#.O.H.4XO.C | m N M M k ",
"G.G.G.S.@.#.O.I L K J K 3.J.H.D.P.P.G.3.3.3.H.K.~._.`.`.^.Q.U.U.K.D.@.@.W W 3.3.@.@.@.@.@.W W W E Y E W @.#.H.4XO.C | m N N M x ",
"G.K.E./.^.}..X}.oX}.{.D.K s r e r z H H Q H W A.F.F.I.I.I.U.Y.Y.Z.A.@.W W W @.3.@.@.@.@.@.W @.E E E Y O.3.O.F.2XO.C | N M M z k ",
"R.E./.}.|.2XeX2XBXXXG.k 9 f y y d s s z G U H K O.@.8.S.P.I.I.I.5.5.@.W W @.W 3.@.@.@.@.W W W E E W W W #.O.F.2X#.N  .N N n z k ",
"/.}.}.XX:X2X3X>X8.h : 0 a z a F F z H Q W 5.E A.A.G.K.J.I.^.}..XZ.Z.A.@.W W W 3.@.@.@.@.W W E E E W W W O.T F.2X3.C  .k N z N k ",
"/. X}.oX2XoXA.s 9 w y s N C P I U Y ..5.G.Z.G.K.(.(.`.}.XXOX>X3X;XP.J.#.@.E @.@.@.@.@.@.W E E E Y E U W T 1.S.2X4.C  .N N V M z ",
" X XOX}.4.u < 0 r a x J I O.F.^.0X`.F.G.K.H.(.{.XX:X2X2XeXuXqXwX>XH.P.O.W W W @.@.@.@.@.E E E U Y E R E T O.S.2X#.C o.N M m N z ",
"OXoXE.z - : y y M G L 4.I..XbXGXMXXXG.K.{.oX2X0X3XpXbXrXsXgXgXkXBXR.(.3.W @.3.@.@.@.@.W E E E E Y T Y W W O.D.2X+.C o.N M n M x ",
"G q 0 : 9 r r H Y S._.4XAXGXmX>X(.(.E. XtXtXrXgXmXMXMXCXGXGXSXPXMX(.}.A.W W E W @.@.@.W W E E E Y T T W W ..S.2X#.C o.G M n M k ",
"= = : q w r a A.XXMXGXCXtX}.(.H.(.{.oXsXmXvXNXFXHXHXHXPXLXLXLXLXHX}.OXZ.W @.3.A.@.@.@.@.@.W W E Y O.Y O.O.O.S.>X#.J  .N M V D z ",
": - - 9 : < s {.NXvXoXR.S.5.J.(.OX2XtXMXFXFXIXKXLXLXLXHXNXNXHXPXHX X}.@.E 3.W @.@.@.@.@.@.W W E I E E O.W O.Z.2X#.l ] N M m F z ",
"9 9 w 9 0 0 e I 2.1.O.4.F.I.^. X>XvXNXKXKXKXKXLXLXtXH.Y l l Y 3.oX(.}.4.W 3.@.W @.@.@.@.W E E E Y Y Y W ....S.4X#.l  .N M m z z ",
"q q w 9 w r y k V T 4.D.R.^. XOXmXGXKXLXLXLXLXKX~.m 2 2 3 : : ; - k R.5.W @.@.A.@.@.@.@.E E Q E Y Y E O.O.O.F.pX@.C  .M M n z z ",
"a u k r y s z G W Z.K.(.}.XX>XsXMXAXFXFXGXGXGXvXm 3 2 g ] %.' 5 2 * x 4.E A.W 3.E @.@.E E E E E K E K W T W Z.tX@.N ` z z n z k ",
"F z G F K E 4.G.E.^.`..X>XeXyXaXhXgXMXMXFXCXUX Xt : t / e.n.v.x._ 5 c 2.E W A.#.@.@.E E E E K K Y Y Y E W T 5.0X@.C ' N S N z s ",
"L x C Y S.K.R.E.}.}..XXX0XyXyXuXuXaXgXmXCXNXUXK.e g C [ s.l.m.b.c.&.w.2.W @.@.#.W W E E U U E E U U K Y T T 3.0X@.F ' N z n z s ",
"l J +.R.E.^. X:XXX2XtXpXpXsXuXdXgXmXMXAXSXHXFX7.h l ` q.b.m.n.p.f.v.W.#.E @.U W E E U E E E K E U U I Y T R 5.OX#.l _ M z n s a ",
"H.E.}.XX X|.2X:X,XeXsXvXvXMXMXNXHXPXKXHXKXPXGXw.%.o.o.v.m.x.' } -.&.o.+.E @.E Y W E E E E K K K I U U Y T T 5.tX#.m _ N S k s s ",
"XXXX{.H.#.F.yXnXdXVXZXAXHXHXKXKXHXLXLXKXIXLXGXv.c.v.e.b.m.x.' &.g.' _ 8.@.W W E W E U U Y Y Y Y U U U Y T Y 3.>XO.l ` N z s s i ",
"5.O.n s p S.mXCXCXCXCXCXAXFXFXJXUXHXHXAXGXPXSX#Xf.x.e.m.m.b.x.c.m.[ w.8.W E U E U E U U Y Y Y Y U U K R Y I 1.oXO.l ) n k i s s ",
"p y e s p 2.sXgXgXsXgXgXgXkXZXVXlXMXAXVXSXNXCX8Xc.%.%.8Xc.#Xc.f.c.x.T.1.W K #.E E E E E Y Y Y U P K J P Y Y 3.oX@.l ` z z s s s ",
"0 f z H d T dXqXuXuXwXiXgXgXgXgXhXgXkXZXhXZXJX0Xx.} ) 0.n.b.c.&.{ 0.T.2.O.E K U U Y U K Y U K K K K U U Y T 4..X#.s N c N k z d ",
"9 < 0 y w P uXiXhXuXfXuXwXiXiXgXgXgXkXJXMXhXkXiX@X' 6 j [ c.{ { } %.W.3.Y E U K U O.Y U U K K U U U I U U Y 3..X3.z c c c k k k ",
"Z.J a u d P 0XwXuXuXuXuXiXiXwXwXzXkXhXhXzXzXkXkX-X_ 3 5 j x.=.{ } ' 8.$.Y Y E Y U E E E Y Y U K Y U U Y U E +.XXO.k b n m s i u ",
"{.3.D M B W uXiXgXgXiXuXwXqX&Xr.qXhXqX%X@X@X-X=X%X_ ; 2 5 ' x.=.[ / S.4.Y L Y J L U U L K U K K U K K K K E @.}.+.k n m j h b i ",
"Z.R G G P 3.uXhXgXhXiXiXiXiX1X-Xr.=X=X#X=.=.q.q.g.%.> % ; 3 _ _ j g H.5.J I X.I Y Y U U K K K K K H K E K U #.}.O.z M k g h k h ",
"3.U K Q R 5.0XhXgXzXiXwXwXiXwX1Xn.n.n.b.m.m.c.d.p.x.) > * % ; ; > ; 5.Z.I I I I U J U U K Q K Y K K J K E U O.}.R s z c 6 6 g u ",
"W P U 3.G.K.sXhXhXhXiXiXiXiXiXwX%Xn.b.m.m.b.x.x.a.g.q.) > * * % # * O.}.`.].^./.S.E K K K K K K J J G K K K .. XR k c ( ! ~ *.h ",
"W W D.oXOXoXgXuXwXwXqXwXuXuXuXyX=X@Xb.v.b.b.c.&.p.b.d.&.) v > ; t l 4.:X7X,XeXrX4XK.E K K K K K P J J J J J W `.I 5 g 6 , ~ ^ *.",
"R T ;.G.S.4.;X,X,X<XqX0X0XeXeX3X6X!.b.b.c.m.d.e.q.d.f.&.} ) / v P.^.I.:X,X>X3XpXyXDXXX6.I G U K K K U D G J T /.P h g v 6 ~ ~ ~ ",
"G N n J J J _.;X;X|.:X<X<XeXpXpX3X<X#Xb.b.s.q.&X&Xe.q.i.{ } %.W.|.2X|.2X3XyXyXyXbXuXsX3XH.U K U K M B G I N I /.T 3 v g , ! ~ ~ ",
"O.O.+.3...L _.|.|.`.'.;X>XyXpXpX4X<Xn.b.b.d.r.<XyXT.r.q.<.q.@X6X6X5X3X6X5XaXpXaXaXaXdXbXuXE.Y B J B B B K N R `.R h c g v ! , g ",
"U.U.U.F.@.Y ~._.'.`._.'.>XpXpXuXBX=Xg.b.b.x.!.3X>X:X[.$Xv.v.<X3X4X3XnXpXbXdXpXaXdXdXdXnXDXvX}.T G B G G K G I `.T u d a 3 v g u ",
"Q.Q.Q.H.@.Y ^.}.`./.^._.,XaXdXaXvX1Xm.f.c.d.$X4X6X3X3XyX5X6XfXpXBXrXdX4XaXdXsXdXsXdXpXaXdXmXMXXXW H F D Q D U /.I u d b k c u d ",
"I.J.J.2.Y J I././.^._.`.>XaXdXsXaX-Xb.s.=.&.&X4X6X3XtX2X2XsXyXpXnXpXpX;X>XyXsXdXyXaXyXuXbXnXmXsXF.X.L B H D U `.;.i k g / g e f ",
"S.6.1.P l C P._.^.}.`.`.>XsXaXdXdX$Xk.g.=.d.*X3X3X5X4X4XeXmXsXpXpXpXnXpXaXdXdXpXaX;XeXbXbXVXsX|.v.e.0.` z B P /.G $ $ $ # + & & ",
"I I I Z J C P.].^._._._.>XsXsXnXfX%Xk.x.b.d.$X5X4X5X6XfXwXuXaXdXaXpXnXnXaXaXdXdXyX|.eXpXmXMX|.E.z.l.h.0.Z B G }.y     .       . ",
"m V B Z Z c w.Q.^.E._._.<XdXDXbXaXn.k.k.c.q.$X4X5X5X3XpXpXpXsXnXpXaXaXaXdXdXaXaX<X_.|.rXMXoXW.n.l.l.y.y.q.J D ~.9               ",
").~.Q.~.W.o.U._.}._.}.^.;XDXMXmXfXn.h.a.f.p.$X5X4X5XyXyXpXpXnXaXaXnXaXaXsXdXsXpX:XX.7.:X}.Y.v.m.l.l.l.l.h.0.X.I.-               ",
"eX0X0X0X&X$.U.}.^.).~.~.}.vXsX4X&Xg.j.p.s.p.$X3X3X5XyXyXuXaXpXpXpXuXfXpXdXdXdXpX2XI.L J ..e.d.j.z.z.z.k.j.j.0.P.=               ",
"~.).).`.E.+.F.E.I.R.I.R./.4X:X!.v.a.j.s.s.p.@X,X3X3X5XyXpXpXpXpXfXaXpXaXdXdXyX,XrXS.m G V _ [ <.p.j.y.j.z.z.v.E.&               ",
"4.1.R 3.3.J 3.J.G.J.J.R.R.*X&Xv.b.f.j.a.s.i.@X1X3X3X3XpXuXyXaXdXaXsXsXpXaXuXeX,X:XI.B H G M Z ' [ p.y.k.k.z.n.P.+               ",
"E U T J.H.I W Z.Z.S.S.F.F.T.%Xl.l.a.a.a.s.i.x.].3X4X5XpX5X3XyXaXaXpXyX5X3X3X3XeXfX~.M H H D D z ' p.y.k.f.k.v.7.+         X O O ",
"}.`./. XG.V U 5.3.@.2.3.4.w.n.z.a.p.p.p.p.i.e.P.|.6XpXpXyX5X5X5XaXsXpXyX,X3X,X3XyX^.I G D D G z [ h.z.j.k.k.q.+.+   o     + + & ",
"Q.~.[..XS.M I @.O.Y O.O.4.8.v.f.u.q.a.u.<.i.e.H.P.|.pXaXpXuXyX:X5XpXdXdXdXpXpXpXsX3XO.G U l l V q.j.h.j.f.j.] I X   o     + + $ ",
"I.R.(.^.O.k G W T W E W @.7.x.y.i.i.p.a.i.{ w.T.^._.;X5XaXaXaX5X5X3XpXdXmXdXdXdXnXnXF.B b N C V <.f.z.h.f.q.Z C X         o X o ",
"m C B m N u J W Y Y U W W 4.q.a.p.s.i.i.q.[ 8.K.`.)._.:XfXaXaXaXpX5XyXpXdXdXaXpXaXfX6X4.J M m ` h.l.y.h.i.' j l o           . X ",
"n m k i k 4 M O...X.Y O.@.+.o.e.p.a.=.{ [ w.Y.E._.'.'.;X:XaXdXdXbXdXpX5X3X5XyXdXaXiXsX:XD.D m &.a.l.f.h.{ / g s o o o X . o X X ",
"1.5.R I n J Y E E U Y U E ..Z $.g.u.=.{ [ !.).U.U.;X:X;X7X3XuXaXnXbXbXdXuXeX5XyXaXdX1XVX4X4.] s.j.j.k.q.) j g d @ X . . o o     ",
"5.J.5.4.B V N J G G G B G H F U %.&.&.&.o.!.;X_._.|.:X3X,X:X3XaXbXbXbXmXmXdXaXuXpXpX5X5X0XU.q.h.z.l.x.] 6 h a w @ @ . . .       ",
"R 1.R I M - < D M D M M G H D D M | ` | X.5.OXOX'..X;X,XyX5X3XyXbXmXbXbXmXbXbXdXsXsXDXnX0Xr.k.l.z.k.%.A 6 h d 9 . . . X + & = < ",
"9 s i e p : q z M F F F G F H D D D m G G H E.rX,X>X:X,X,XpXaXpXsXdXbXVXDXbXbXdXaXVXVXaX!.v.m.m.l.0.A u c m p V s B U 4.H.~.`..X",
"- y u y < < y M z B M G G G G F H M B G M G +.aXeX,X1X3X,X3XuXdXsXpXdXdXmXVXmXbXkXVXrXZ ' %X8X8Xn.] u y C k 3 Q./.`._.).'.|.].].",
"p n u q < < e M F M G B B G G G D H B M G G J 2XbXpXyXyX,X3XdXyXbXpXdXdXdXuXnXVXpXK.M : 6 m.m.n.n.4.D 5 6 3 4 P.Q.6.1.J.I.F.6.S.",
"i U P B k a u N G G J J J J G G F F z M M G G ^.MXbXdX5XdXaXpXbXpXDXdXbXVXaX:XF.l * $ t _ n.b.n.m.0.XXU.7.#.J +.5.4.W R.Q.1.X...",
"p W 1.R W T ..6.4.Y J J J I I G H F F M k M G Z.MXDXVXyXfXbXdXVXmXMXsX4XE.#.z q $ * h +.0.q.a.c.k.n.DXjX9XV.9X1X].!.V.[.;X2.X.n ",
"n 1...I T I I 1.4.+.Y I Y J C J G B z M M G G H D.R.XXsXeXpX4X3XtXH.Y a : - # # < +.^.U.w.0.i.c.n.b.&XN.>.:.>.N.>.>.:.N.V.1.m m ",
"G 1.;.Z ..P Z 1.O.T 4.7.2...O.I U J B F z F H M T W s y t Y J 1 - O O + + & = N R.|.).Q.W.0.q.x.&.q.r.N.:.:.N.N.N.C.cXC.N.[.6.6.",
"6.J.6.6.6.X.I ..+.#...2.D.F.4.+.T Y K J F F J K 5.2X/.5.L #.G 1 0 u z G Y 8.R.^.}.).E..X].w.o.o.$.U.].9XB.:.C.cXlXxXN.9X0X[.6.6.",
"J.7.J.Q.P...Y Y O...O.O.X.O.8.3.2.Y J G K L H K F.:X:X2XXX`.E.E.^.}.`. X.X_..X_.(.).*X`.^.).).U.Q./.uXiXjXB.,.B.9X X8 7 q V D M ",
"J.J.I.Q.I.1...O.O.+.2.1...#.+.O.2.2.3.O.E K K 3.:X;X;X;X:X;X.X}.'.).`.`.`.E.P.D.I._.'.`..X|.`./.~.+XW.].0XhXjXjXjX0XQ.L.Z n y ; "
};
