/* XPM */
static char *waka42_jpg[] = {
/* columns rows colors chars-per-pixel */
"64 64 256 2 ",
"   c #020202",
".  c #0A0B0C",
"X  c #060908",
"o  c #15120E",
"O  c #1D1C1B",
"+  c #161414",
"@  c #0E0F11",
"#  c #2C1D15",
"$  c #28231C",
"%  c #392519",
"&  c #262522",
"*  c #3B2B23",
"=  c #3A322B",
"-  c #3C3A35",
";  c #2E332F",
":  c #432418",
">  c #43352B",
",  c #443B34",
"<  c #4D3327",
"1  c #7D3E35",
"2  c #46433F",
"3  c #49423C",
"4  c #554439",
"5  c #69493D",
"6  c #76463B",
"7  c #6D543E",
"8  c #464541",
"9  c #494541",
"0  c #4D4A43",
"q  c #4D4C49",
"w  c #534B44",
"e  c #534D4A",
"r  c #5E4D4C",
"t  c #55534B",
"y  c #5B544C",
"u  c #5B594C",
"i  c #565749",
"p  c #5C5652",
"a  c #5C5A54",
"s  c #5E5E59",
"d  c #555752",
"f  c #4F5048",
"g  c #684D45",
"h  c #784844",
"j  c #64554B",
"k  c #68574C",
"l  c #77544A",
"z  c #635D55",
"x  c #635E59",
"c  c #6B5C5B",
"v  c #675754",
"b  c #765B55",
"n  c #5D6359",
"m  c #5C6153",
"M  c #58614F",
"N  c #646256",
"B  c #6B6155",
"V  c #65625A",
"C  c #6B645C",
"Z  c #6D695D",
"A  c #72655A",
"S  c #716A5E",
"D  c #756758",
"F  c #7A725B",
"G  c #656462",
"H  c #6B6661",
"J  c #666962",
"K  c #6D6A63",
"L  c #6B6C6A",
"P  c #726D64",
"I  c #7A6E63",
"U  c #726F69",
"Y  c #786F68",
"T  c #747167",
"R  c #7A7266",
"E  c #75726B",
"W  c #7A756D",
"Q  c #7D796E",
"!  c #797966",
"~  c #7B7771",
"^  c #7E7973",
"/  c #797975",
"(  c #6F706A",
")  c #89393A",
"_  c #B82C37",
"`  c #C3373A",
"'  c #82463E",
"]  c #8D5951",
"[  c #AF4144",
"{  c #8B614B",
"}  c #886758",
"|  c #9A6754",
" . c #95795E",
".. c #94674F",
"X. c #A56B57",
"o. c #AA755A",
"O. c #B6785D",
"+. c #AE7058",
"@. c #8C6864",
"#. c #926B6A",
"$. c #82796E",
"%. c #867668",
"&. c #987864",
"*. c #837C74",
"=. c #887F73",
"-. c #847E79",
";. c #867B79",
":. c #977F75",
">. c #A87A65",
",. c #BA7C63",
"<. c #B17A65",
"1. c #CA7F64",
"2. c #C07E5C",
"3. c #BBCF0B",
"4. c #C7D708",
"5. c #C8D618",
"6. c #D1D10C",
"7. c #CAD227",
"8. c #CBD132",
"9. c #B6825A",
"0. c #858176",
"q. c #8A8276",
"w. c #86827A",
"e. c #8C847B",
"r. c #8D8B7C",
"t. c #938374",
"y. c #928A7E",
"u. c #968679",
"i. c #979478",
"p. c #AB836A",
"a. c #BB8465",
"s. c #BC856A",
"d. c #B78767",
"f. c #A78C7A",
"g. c #B48B75",
"h. c #B8927B",
"j. c #AB9777",
"k. c #B4B16F",
"l. c #8B8345",
"z. c #C8895D",
"x. c #D18F5D",
"c. c #CC8D64",
"v. c #C58C6C",
"b. c #CB8C6B",
"n. c #C48764",
"m. c #D28D6A",
"M. c #D28C65",
"N. c #CC9265",
"B. c #CD926C",
"V. c #C4906E",
"C. c #D3936B",
"Z. c #D59568",
"A. c #C98C74",
"S. c #CB9474",
"D. c #CB9777",
"F. c #D29373",
"G. c #D69B77",
"H. c #D18F75",
"J. c #E29974",
"K. c #C8AD61",
"L. c #D8D859",
"P. c #D6D474",
"I. c #D0D36D",
"U. c #D9DB61",
"Y. c #8D8881",
"T. c #938C83",
"R. c #948D89",
"E. c #988D83",
"W. c #9A9285",
"Q. c #9C958B",
"!. c #969189",
"~. c #9D9993",
"^. c #A3968A",
"/. c #A49B8C",
"(. c #AB9C8C",
"). c #A79585",
"_. c #B89887",
"`. c #A49C92",
"'. c #AB9E93",
"]. c #A69C99",
"[. c #A99286",
"{. c #A6A096",
"}. c #ACA295",
"|. c #A5A299",
" X c #ACA49B",
".X c #ACAA9D",
"XX c #B2A396",
"oX c #B2A59B",
"OX c #B4AA9D",
"+X c #BAAC9D",
"@X c #BAA597",
"#X c #B0A690",
"$X c #ADAAA2",
"%X c #A9A4A0",
"&X c #B4ACA2",
"*X c #BAAEA2",
"=X c #B6A7A3",
"-X c #B6B1A5",
";X c #BBB2A5",
":X c #BCB4AA",
">X c #B9B6AA",
",X c #9BA089",
"<X c #C49D85",
"1X c #DE9E83",
"2X c #CAA38A",
"3X c #D5A281",
"4X c #C5A999",
"5X c #CBB796",
"6X c #C4B4A6",
"7X c #C3B5AA",
"8X c #C4BAAD",
"9X c #CBBBAD",
"0X c #C8B9A7",
"qX c #D4BAA6",
"wX c #C4BCB2",
"eX c #CCBDB2",
"rX c #C5BABA",
"tX c #D1BDB3",
"yX c #C2AFA6",
"uX c #E19E81",
"iX c #D4CF91",
"pX c #CBC5AA",
"aX c #D5C5AB",
"sX c #CDC2B4",
"dX c #CDC5BB",
"fX c #CAC7BA",
"gX c #D3C3B4",
"hX c #D6CAB4",
"jX c #D9CCB4",
"kX c #D3C5BA",
"lX c #D5CABC",
"zX c #DACBBC",
"xX c #D9C5B9",
"cX c #DDD2BB",
"vX c #D8D3B7",
"bX c #D7D1AD",
"nX c #E4CCB8",
"mX c #E3D5BB",
"MX c #E5DE83",
"NX c #D5CCC2",
"BX c #DCCEC2",
"VX c #D4CBC9",
"CX c #DDD3C5",
"ZX c #DDD5CA",
"AX c #DAD7C8",
"SX c #DCDBD3",
"DX c #E2D5C3",
"FX c #E2D9C5",
"GX c #E2DBCB",
"HX c #E2D6C9",
"JX c #E3DCD2",
"KX c #EADCD1",
"LX c #E5E3DB",
"PX c #E8E4D8",
"IX c #E9E9E5",
"UX c #EEEFEE",
/* pixels */
"$X~.Y.Y.T.T.E.^.].oX*X7XtX0XtXaX7X/.`.R.T.Y.0.0.*.W H a t 0 9 a -.~ ^ ~ *.-.*.*.*.*.*./ *.^ ^ ~ *.^ *.;.*.T.sX*.D #.S S Z V N x ",
"~ W E E ~ *.-.w.T.^.}.}.9XgXgX9X+XQ.Y.*.*.e.T.W.W.`.`.Q.Q.T.*.*.e.~ ^ / ~ *.*.*.*.-.;./ *.~ ^ ~ *.~ *.*.*.T.dXq.B #.S C N V x z ",
"r.e.*.Q E ( ( ( P W $.y.+X;X*X9X&XQ.;.e.T.W.W.'.}.XXoXXXXXXX'.^.R.^ ^ ^ Q *.*.*.*.*.*.*.^ ^ ^ ^ ^ ~ *.*.*.T.sXe.C #.Z B N V V z ",
"/.^.`.{.|.{.].].T.T.0.T P c x c T *.~ *.*.T.`.{.XX}.XX(.(.^.^.E.Y.^ ^ ^ Q *.*.*.*.*.;./ *.^ ^ ~ ~ ~ *.*.*.y.wXq.B #.K C N C V z ",
"{. X&X;X*X8XsXlXVX%X~ p e q d d d G x V x J ~ w.r.T.W./.(.'./.T.e.*.Q ^ *.^ -.*.;.-.*.*.*.*.~ ~ *.Q $.*.*.Y.wX=.C #.Y A N N V N ",
".X&X:XwXsXkXeX+X~ e , e a a s s G s x / ^ W ~ w.e.T.T.Q.^.'.`.=.0.*.Q ^ ^ *.-.-.;.-.*./ ^ / ~ W ^ W $.~ *.T.wXe.C #.P B n N V V ",
"&X&X:XwX:X%X~ 0 9 q z x c V P P K E -.Y.Y.e.T.T.W.`.`.}.*X:X7X/.T.Y.*.^ -.-.-.-.*.;.;.^ ^ ~ ~ ~ Q Q Q Q *.u.wXe.A #.P c V x V x ",
"*X:X:X XE q 8 q d p V Z Q %.q.).E.e.E.E.R.Q. X.X&X:X;X8X9X8XeX7X!.Q.*.~ ^ ^ ^ *.*.*.;.^ ~ ~ ~ ~ E W $.Q ;.e.wXq.S #.P Z V C V x ",
"wX&XV 9 - 9 t y c A R e./.;XNXKX:XR.R.Q. X-X&XrX9XpXgXtXgXhXhX0XQ.{.*.^ ^ -.-.*.*.*./ *.~ ~ ~ W E ~ ~ ~ 0.Y.pXq.A #.S Z V N V N ",
"P x 9 8 q y v P $.E. XeXHXPXZXwX~.~. X>X>XfXNXsXNXVXBXVXCXCXDXkX~. Xw.^ ^ *.^ / *./ ^ ^ ~ ~ ~ U ~ ~ ~ $.*.Y.>Xq.A #.S Z V C x z ",
"= - , e e a W ^.8XCXPXJXkX:X{.!.|.-X>XfXNXfXAXJXPXJXLXIXIXLXIXSX.X>Xe.^ *.^ / ^ ;./ *./ ~ ~ ~ U ~ ~ *.~ *.e.8Xq.A #.S Z V B V a ",
", 2 9 8 9 V :XGXKXVX:X].T.T.`.&X-XdXsXZXSXVX:X X8XSXIXIXUXUXIXLX$X>Xw.^ ^ *.^ ^ *.*.*.;.^ ^ / ~ E ~ ~ ~ *.r.8X0.b @.Z N V H V z ",
"- , 8 8 0 V ~.OX/.y.w.r.~.].&X:XfXVXPXNX;.t , > , v %XSXIXIXUXLX X-X0.Q ^ ^ ^ -.;.^ *./ *.~ ~ U ~ E ~ *.*.Y.wX0.b @.C V V H C x ",
"e 8 q 9 0 e z P W *.T.Q.`. X:XsXSXIXLXw., , = = > * , E VXIXSXJX|.$X0.^ -.w.^ ^ *.*.*.^ W ~ ~ E *.E ~ $.*.T.rXq.A @.B B V K V x ",
"r 0 e e t p z E w.T./. XOX8XlXHXLXLXsXj , 4 < < = = * * R ZXLXSX|.$Xw.*.^ ^ ^ ~ *.^ / ~ E ~ ~ E Q E Q *.*.r.sXe.B @.V x V c V z ",
"G G x V K E w.!.~.|.$X:X8XsXhXCXZXCX'.< 7 @.} l w > > * 4 dXIXSX~.$X0.^ ^ -.w.^ ^ ~ ^ ~ Y E W E E U W $.^ w.wXq.b @.V V s x z a ",
"V H ( w.Y.`.]. X&X&X:XwXsXdXkXlXnXlX^.k } F.Z.v.<.} l { 7 :XSXZX`. X*.~ *.*.~ ~ ^ ^ ~ ~ E ( W E W E Q ^ Q e.rX0.A } B M B V x V ",
"v $.T.].{.}.OX&X6X9X9XgXgXgXkXzXvXGXf.k &.S.G.S.b.n.n.s. .gXZXHX{.$Xw.^ *.~ ~ W ^ ^ E / E E W E E E Q Q R e.wX*.c @.B m C z p a ",
"T.]. XOX*X6X8X8X9XpXhXhXxXjXzXDXSXFXg.} p.G.G.b.M.m.n.,.h.KXLXKX X$Xw.^ *.^ ~ Q ^ / E / E E W E E T E $.Q e.wX*.b @.B N x x p y ",
"*X;X&X`.*X0XsXsXNXCXZXSXJXLXLXPXPXnXh.>.h.F.O.+.2.b.<.X.j.IXUXIX|.$X-.^ / ~ ~ ~ ~ E E W E E W U E E W Q Q e.8X*.B #.B V z V v i ",
"Q.W T a }.zXDXDXPXJXLXPXLXPXIXLXPXnXH.,.D.v...X.O.<.] ..f.LXIXSX|.$Xw./ ^ ~ E E ~ E E ~ E E ~ E E T E W ! e.>X*.B @.b a p G z y ",
"t 2 a e {.DXAXGXmXDXFXFXGXGXGXZXKXnXH.n.H.b.,.<.A.,...+.h.PXLXmX|.$X-.~ ^ ~ / ~ E ~ E W ~ E E U T T T E R *.&X$.B @.v a p s z p ",
"z a V e `.cXjXhXjXjXjXcXcXmXDXmXHXqXG.F.H.m.F.n.m.b.O.a.D.CXCXmX`.}.*.~ / ~ / W E W W / W U E U E E E W ~ ;.-XR B } b v x s x p ",
"0 d x w E.jXjXbXjXjXjXvXcXcXcXcXjXqX3XF.H.1.O.1.n.v.O.a.2XCXHXcX`. X*.W W E E E E W E W E U E P E W E W *.e.;XQ z } b x x s c p ",
"0 9 t q T.gXgXhXaXhXhXjXjXjXjXvXbXqX3XF.n.a.| o.....| ] ).mXcXmX/.oX0.T W ~ P ~ / E E W E E E E E E E W W r.>XQ c x B l j p v i ",
"K a n y W.hXjXvXhXhXhXjXjXjXhXzXjXqX3XS.n.o.X.X.<.| ] h (.zXcXjX/./.Q ^ W E E Q W E E E E K T P E E E W W 0.-XW s x v ] k a d y ",
"E G ( C ^.hXcXvXzXjXhXhXhXkXhXjXxXaX2XS.A.o.,.+.+.X.{ < (.zXmXaX/. X0.^ E ( W E W E E E ( T T P T T W E T 0.-XW z x m l v j d p ",
"E K W E /.hXmXcXcXhXhXhXhXhXhXjXgXqXG.b.n.X.+.+.] { 5 % u.hXcXbX`. X*.Q / E ( E W E E E T K T T T T E W ( 0.-XR x V z h k p d j ",
"T Z / *.`.hXcXcXvXhXaXjXhXaXhXjXvXaXG.m.a.{ 5 h ..h : $ =.9XhXcX'.{.*.E / E ( ( W ( E E T K T T ( T T W Y *.OXR a N 7 ' h k y t ",
"! w.|.|.-XvXzXhXjXjXaXhXhXhXjXjXvXqXG.F.s.l % % : % # > u.=X=X4XoX*X`.e.W E W ( E K U U K P P P T K E E Y *.&XT k l 6 ) _ [ l y ",
"w.~.>X$X:XjXhXpXaXaXaXaXhXaXhXzXsX2XF.m.V.@., : % : < k W.&X;XyX8X7X8X7X`.~ K W E E E E T P E K P P K E P *.OXP i g 6 ) ` [ ] k ",
"J E / E y.;X0X0X0X0X6X9X9X0X9XtX8X<XS.v.2X@Xu.l 5 6 } [.+X8X;X9X7X8XeXwXwX/.E E E ( E W K T T P P K P K P *.OXP h g 6 6 _ _ [ h ",
"Z K ! Z *.;XOX&X+X+X:X9XsXgXtXeX0XS.Z.F.S.4X-X@X[.[.[.OX6X8X7X8X9X8X9XsXgX8Xr.E W V W E K E P K K P K L K ^ &XP h l 5 1 _ _ ) g ",
"i.!.!.W 0.OXOXOX+X+XwXsXkXtXkXwXqXS.F.b.A.4XwX9XqX0X0X9XeXeX7XwX7XeXeXgXgXsX XQ T P U P K K K P K K K K K Q OXP u k ' 6 6 6 h g ",
"Q.Q.Y.W *.].oXXX X*XkXkXzXgXkXkX4XC.C.b.A.4XrXtX9X9X9X9X7XeXeXeX7XeXeXgXsXkXdXE.P E P P P C K K K K K K P Q $XT y y g g l j i i ",
"^./.e.^ -.&XOX'. X;XlXlXkXkXgXtX2XC.C.b.v.4X8X7XeXwXeXtXkXkXgXgXgXgXgXkXgXsXzX+XW K K P P H K K K H K H K ^ $XW p a i k g j d i ",
"y.y.V N Z '. X.X X:XzXkXtXNXtX0X3XZ.C.b.v.4X8X9XeXeX9XgXkXgXsXgXkXtXgXgXgX8XkXpXR.J Z P K K Z K K K P K K ^ &XK d d d j r t y r ",
"! 0.S T Y }. X}..X6XzXxXNXNXtXqXG.C.C.b.A.<X9XeX9X7XeXkXkXgXkXzXgXgXgXgXaX9XsXhX-XW K P K K J K K K K K Z Q $Xu O O + + + O & & ",
"a K Z D } '.{. X}.*XgXNXBXkXqX2XB.Z.C.b.v.<X0X0X9XeX9XeXeXeXtXgXgXgXgXgXeXeXkXkXsXw.K P K K K L K K K Z Z W .X-             X X ",
"W *.%.} #._.XX X XOXgXlXNX8X4Xh.C.Z.C.v.n.<X0XtX9X9X9X8XeXkXkXgXkXgXgXkXwXeXkXkXwXT.Z K P K K L J K Z K J E %X;       X         ",
"0XpX5Xf.t.@XXXoXoX X9XzX8X<XZ.C.C.C.C.M.n._.yX9X9X9X9XeXtXgXgXgXxX9XkXgX8XrX:XOXh.h.D L ( C Z Z Z V V N S T !.$                 ",
":XpXpX(.:.].}.{.'.'.;XgXyXD.C.B.m.C.Z.M.n._.4X7X9X9XeXtXeXeXgXgX9XgXsXsX8X(.[._.D.A. .P L S A Z S B V V S P R.O                 ",
"!.y.W.q.P ~.Q.Q.~.(.oX9X2XZ.Z.B.m.N.C.b.s.h.+X7X9X9XeXeXtXgXgXgXeXeX9X9X6Xp.s.B.Z.N.d.} V K P Z Z N V N B K Y.@                 ",
"P E r.r.K Y.Y.T.E.W.`.@XG.J.C.B.Z.N.N.n.s.h.@X7X6X9XtXtXeXgXgXgXsXeXtXsX0X>.n.x.Z.N.B.p.N Z S Z C N V x z K ^ .                 ",
"r.W..Xw.P w.q.e.Y.e.T.Q.D.Z.C.B.C.c.n.O.p.j.XX+X6X7XeX9XtXgXgXgXlXtXtXtX9X>.O.x.N.Z.F.s.S n C B B N n x z U E .         . . . X ",
"OX6X&XR C *.q.*.w.*.0.q.g.v.C.F.M.c.n.O.>.f.'.=XyX0X9XtXgXgXgXgXgXhXtXwXwXu.| A.c.F.C.B. .N N N N z n x z Y K X       . O & O O ",
"OX-XOXR x / ^ *.^ ~ -.-.t.p.m.C.m.c.n.,.p.).XX@X+X6XwXtXgXgXgXgXaXkXgXgXlX}.{ >.a.N.Z.N.d.C n B N x s z B Y c         X + O O O ",
"i.r.q.K x / W / Q / ^ -./ &.O.b.m.c.,.,.g.(. X=XyX6X9XgXgXgXaXgXgXeXkXgXsX8X .X.9.n.N.x.D.%.V z N V s x B S y           X X X . ",
"N C v i p ~ W W E ~ / ;.^ R &.g.2.1.<.<.<X'.oXoXOXyX9XgXkXgXtXxXgXgXgXgXnX9X'.} a.9.c.N.Z. .V V a c s m ] ] 0             X X o ",
"Z N z d z U W ~ W W *.-.^ W R @.} &._.[.@XoX&X&XoX*X7X0XgXgXgXkXgXgXgXgXlXzX7Xu.O.c.N.C.N. .z z H z s k l g 9     X X . @ @ X . ",
"Q.0.W K U ^ $.U T T E W E L K Z U Y.7XwX7X:X:X=X*X+X*X6X9XzXxXkXBXxXBXzXxXBXgX[.O.N.N.C.c.p.N V v s v ] k M 8 . X X @ X X     X ",
"r.w.E i 0 x K L K Z Z K J G L G L -.wXkXtXtXtX7X7X7X6X6X9XgXzXBXkXzXnXzXgXxXzX9Xo.v.c.C.z.g.S Z x n v ) z M - X X X X           ",
"Z K V i - a V x G H K H J H G H G Y *XkXkXkXxXkXkXgXeX9X7X9XaXzXzXzXxXzXzXzXxXgXj.n.b.c.x.d.0.W c s k h v i ; @ @ @ O & ; 3 u Z ",
"N u 0 2 - s V V G G K K H Z H H H H ;XlXkXkXNXNXBXzXzXxXgX0XtXxXjXBXzXzXzXCXBXlXf.o.c.c.z.9.q.! s t k @.v b ( ( -.Y.^. X=X;X;X0X",
"i 3 w 0 2 a N J G H L J G H H K G V -XlXlXNXNXNXBXBXBXzXzXxXgXkXCXzXzXBXzXsX/.I D { n.n.x.d.t.0.J y j b t V &X-X&X'. XOXOXoX#X^.",
"K a i 8 9 a J C A Z K K ( L K G L G &XlXjXVXzXzXBXBXBXxXzXBXzXgXpXsX9X+Xq.I j > D { a.9.z.N.#X>X*.E 4 h 0 n '.W.=.q.Q.Q.y.y.W.Q.",
"Q Y R S B S R Y K K P P K K K J H H ;XAXCXCXCXAXZXCXlXsX8XeXsX6X^.r.R u w y A Z u.i.o.a.c.b.5XiX,XdX=X/.T.w.W.y.=.;.$Xj.0.$.q.~.",
"q.Q $.*.R *.T.q.P U Y T W ( K G C V T.]./.oX:X:XwX&X}.^.T.e.$.v w > = = 3 v q./.).Q.9.z.c.b.5X5XtXmXiXP.U.iXiXk.k.P.pX|.*.J d f ",
"^ Y R R R R *.;.*.*.*.$.E Y U P H z Z U w w r r *.q $ $ $ $ $ O O o = c T./.}./.XX^.d.N.Z.Z.5Xk.K.K.7.7.5.7.7.4.4.3.U.k.q.Z d = ",
"0.$.$.$.I R $.$.*.q.y.y.q.$.E P P V W *X&X$X^.;.R.x w e e 0 0 9 y P E.oX&XXXXX#X=X].<.S.Z.N.k.k.9.j.8.4.6.4.7.4.4.4.7.8.l.%.u.*.",
"Q.W.W.r.R %.$.*.*.%.=.e.y.e.*.R E P $.wX>X0X;X;XoX}.$X&XOX&X&XoXOX&XOXOXoXoXoXXX/.^.p.G.J.3X5XvXjXaXI.7.6.6.U.U.L.I.cX6X%.t.>XwX",
"^././.r.R R $.$.=.*.$.$.*.q.q.q.R R =.*X;X8X0X+X&X+XOXoX}.oX&XOX#X{.(.}.XX X].'. X[.d.G.G.G._..XsXVXbXMXL.L.mXPXdXpX0.R.~..X^ a ",
"Q././.i.*.$.*.q.=.=.q.=.*.$.q.q.0.e.OX9X;X+X+X*X;X=XoXOX*X+XoX}.#X^.).'.XXoXXXOX-X_.D.uXJ.G.p.K ! E./.@XrXzXvXvXsX0X].T.R.0.Z P ",
"W.).(.W.q.*.q.e.u.e.e.q.q.=.=.q.q.q.+X;X+X&X$X:X+X*X&X'.oX&XOX+X}.oXXX+XOX+XOX+X Xh.K.uXJ.Z.g.x p F e.T.!.i.).6XhXjXxXbXlXkXhXaX"
};
