/* XPM */
static char *waka53_jpg[] = {
/* columns rows colors chars-per-pixel */
"64 64 250 2 ",
"   c #020202",
".  c #06090B",
"X  c #0A0B0C",
"o  c #080607",
"O  c #141313",
"+  c #1A1B19",
"@  c #0B0F12",
"#  c #35251C",
"$  c #262623",
"%  c #372A23",
"&  c #383631",
"*  c #24201F",
"=  c #473629",
"-  c #443D39",
";  c #543929",
":  c #45423D",
">  c #49443D",
",  c #524639",
"<  c #674538",
"1  c #794E3C",
"2  c #4D4A45",
"3  c #494541",
"4  c #524C46",
"5  c #534D49",
"6  c #5B4D46",
"7  c #55524C",
"8  c #59554C",
"9  c #58594C",
"0  c #5A5652",
"q  c #5D5B53",
"w  c #565653",
"e  c #6A4D43",
"r  c #784944",
"t  c #68564B",
"y  c #785649",
"u  c #635D55",
"i  c #6A5C54",
"p  c #635E59",
"a  c #685A56",
"s  c #765B55",
"d  c #5D6258",
"f  c #646156",
"g  c #6A6156",
"h  c #65625B",
"j  c #6B645C",
"k  c #6C695E",
"l  c #73645A",
"z  c #786659",
"x  c #6B6661",
"c  c #6D6A63",
"v  c #686865",
"b  c #726C65",
"n  c #736E69",
"m  c #7B6A63",
"M  c #76716B",
"N  c #7A746C",
"B  c #7D786F",
"V  c #777167",
"C  c #7C7771",
"Z  c #7E7972",
"A  c #8C3938",
"S  c #B13239",
"D  c #C62A37",
"F  c #BD3E45",
"G  c #835949",
"H  c #884844",
"J  c #98674C",
"K  c #88685D",
"L  c #956C57",
"P  c #946F51",
"I  c #A66A4D",
"U  c #A86B56",
"Y  c #AA755A",
"T  c #B77959",
"R  c #AB704F",
"E  c #876A62",
"W  c #916A63",
"Q  c #827A6E",
"!  c #867568",
"~  c #987967",
"^  c #827C74",
"/  c #857E78",
"(  c #8A7E73",
")  c #AA7A64",
"_  c #B77C64",
"`  c #AD4745",
"'  c #C67A5B",
"]  c #C37B63",
"[  c #AEBA26",
"{  c #BCCE25",
"}  c #C8D906",
"|  c #CCD20C",
" . c #CCCF30",
".. c #E3D313",
"X. c #BB855C",
"o. c #AEAC59",
"O. c #99846B",
"+. c #858175",
"@. c #8A8275",
"#. c #86817A",
"$. c #8B847C",
"%. c #8E897E",
"&. c #8D8B74",
"*. c #92867C",
"=. c #938A7E",
"-. c #998677",
";. c #948C77",
":. c #A88469",
">. c #BC8365",
",. c #B78568",
"<. c #A88776",
"1. c #B88C76",
"2. c #B9947C",
"3. c #B3936E",
"4. c #AAA06B",
"5. c #C7885E",
"6. c #D38B5D",
"7. c #C38364",
"8. c #CB8B63",
"9. c #CC8C6C",
"0. c #C68968",
"q. c #D38C62",
"w. c #D28C6A",
"e. c #DA8B69",
"r. c #CB926B",
"t. c #DB956D",
"y. c #DA996D",
"u. c #D49368",
"i. c #CD8D72",
"p. c #C38C77",
"a. c #C89477",
"s. c #DB9973",
"d. c #D89777",
"f. c #E29B75",
"g. c #E19A6C",
"h. c #DEA17A",
"j. c #C7A47C",
"k. c #E4A27F",
"l. c #BAC165",
"z. c #CBCA4D",
"x. c #D2D174",
"c. c #E3D567",
"v. c #E1D640",
"b. c #8E8A82",
"n. c #8C8681",
"m. c #938C83",
"M. c #9B8E84",
"N. c #968B86",
"B. c #9B9285",
"V. c #9C948B",
"C. c #98948B",
"Z. c #9A9894",
"A. c #A39384",
"S. c #A3958B",
"D. c #A49A8C",
"F. c #A79A8A",
"G. c #B99C89",
"H. c #A59D93",
"J. c #A99E92",
"K. c #A39B95",
"L. c #A89386",
"P. c #B6A68B",
"I. c #A6A195",
"U. c #ACA395",
"Y. c #ABA49B",
"T. c #AEA89D",
"R. c #A6A29A",
"E. c #B2A595",
"W. c #B2A69A",
"Q. c #B4AA9C",
"!. c #BAAC9D",
"~. c #B9A995",
"^. c #BEB59E",
"/. c #ACA78A",
"(. c #AEAAA2",
"). c #ADACAA",
"_. c #B4ADA3",
"`. c #BAADA2",
"'. c #B5ADA7",
"]. c #B6B1A4",
"[. c #BBB2A4",
"{. c #BBB3AA",
"}. c #B8B4AC",
"|. c #BBB7B2",
" X c #C79B85",
".X c #D59C82",
"XX c #C7A589",
"oX c #D9A788",
"OX c #C8AB97",
"+X c #D6AA93",
"@X c #C9B598",
"#X c #D7B39B",
"$X c #E2A987",
"%X c #C3B5A5",
"&X c #CCB5A2",
"*X c #C2B5AA",
"=X c #C5B9AC",
"-X c #CBBCAC",
";X c #CBB8A6",
":X c #D3BAAB",
">X c #D5B7A4",
",X c #C4BBB2",
"<X c #CCBDB2",
"1X c #CBBFBC",
"2X c #D2BFB2",
"3X c #D0BEBA",
"4X c #C3ADA0",
"5X c #BFC0A1",
"6X c #D1CD91",
"7X c #E4D683",
"8X c #CEC2AD",
"9X c #C9CDAA",
"0X c #D2C5AF",
"qX c #D7C9A9",
"wX c #CDC2B3",
"eX c #CDC4BA",
"rX c #C8C4B7",
"tX c #D3C3B4",
"yX c #D9C4B5",
"uX c #D6CBB3",
"iX c #D9CCB4",
"pX c #D5C5BA",
"aX c #D9C6BC",
"sX c #D4CABC",
"dX c #DACABC",
"fX c #DDD2BB",
"gX c #DBD4B8",
"hX c #DFD7A8",
"jX c #E2D4BC",
"kX c #E9D5BA",
"lX c #CAC7C4",
"zX c #DACCC2",
"xX c #D5CCC3",
"cX c #DCD3C2",
"vX c #DBD5C9",
"bX c #DFDBD0",
"nX c #E3DCCD",
"mX c #E4D8C5",
"MX c #E3DDD2",
"NX c #E5DED9",
"BX c #F0DDDF",
"VX c #E9E2D6",
"CX c #E6E2DB",
"ZX c #EAE4DA",
"AX c #E9E5DA",
"SX c #EBE6D1",
"DX c #ECEBE5",
"FX c #EBEDEB",
"GX c #E7E7E3",
"HX c #EEF1EE",
/* pixels */
"Z M n n n n N C / C.M.`.tXyX:X%XV./ / ^ m.B.V.B.F.W.Q.Q.E.T.D.m.$.^ ^ ^ / ^ / / / +.^ ^ ^ Z Z Z Z / Z ^ ^ [.J.x E E h x j g p h ",
"C.B.b.n.$.( N N n N ^ V.M.N.N.D.m.$.n.$.m.H.Y.Q.[.E.E.E.F.F.D.$.$./ ^ / ^ / / / Z / ^ Z / Z Z Z Z Z Z ^ / {.J.x K m h h j l i k ",
"J.Y.Q.T.Q.{.=X%X{.N.c a 5 5 w 7 n x v n Z b.C.H.J.D.D.J.F.D.M.N.$./ ^ ^ ^ / / / Z +.Z / / / Z C Z Z Z Z ^ [.J.x K m p h j g h x ",
"!.Q.{.<X,XsXsX*X/ u 2 6 w w w q h x x v x N N +.$.M.V.D.D.D.*.n.#.^ ^ ^ ^ / / / Z +.+.Z Z Z Z Z Z Z Z / ^ {.J.j E m i k h j h x ",
"_.{.,X,XrX[.n.8 2 2 w 0 p x p p h n Z #.Z / $.C.m.C.V.H.W.Q.V.n.n./ ^ ^ ^ / / / Z #.Z Z Z C N C Z / ^ ^ ^ [.H.x E E h x j j j h ",
"Q.|.|.Y.n.q - 5 w w p b M m V M / $.N.C.m.C.V.H.Y.(.`.{.%X,X*XV.S.n./ ^ / / / / #.Z Z Z Z C C C N C N ^ ^ `.J.l E E j h j g g x ",
"}.(.#.4 - 3 5 w p x V ! *.J.,X`.B.m.C.Z.K._.`.{.*X*XeXtX-X-XwXH.K.N./ / ^ ^ ^ ^ Z / Z C C N N C V N C ^ ^ [.H.c E E j k j j j x ",
"H.8 & : 5 5 h v ! Q B.^.dXnXGX,XV.V.Y.T.}.,XrX<XtXuXtXtXdXqXdXU.K.n.^ ^ ^ ^ ^ ^ Z Z Z C B Z N C V ^ ^ ^ Q ].I.x E E j x j j i h ",
"3 : 3 3 0 g N *.J.1XVXAXvXeX!.V.I.(.{.rXeXsXsXcXgXvXbXMXMXnXbXU.(.N./ C Z +.+.Z Z / Z Z Q C Q Q N B B ^ ^ '.D.j W E c l j h h x ",
"& 3 2 w 8 ^ `.sXZXVXcX{.Z.B.D.T.'.rXxXcXvXvXMXVXDXAXDXGXDXDXAX}.|.N./ C Z Z Z Z / Z / Z N C C C N B Z ^ ^ _.H.j W m c i j p j j ",
"3 3 - 3 q '.bXxX[.J.m.m.V.R.].|.rXsXvXCXGXFXFXGXDXFXFXFXFXDXDX|.).Z.C C / / / Z ^ ^ Z Z Q C ! N B B ^ ^ ^ _.H.j W m g j j h h j ",
"3 3 3 5 2 n %.$.@.+.*.V.T._.}.eXvXAXDXDXFXFXFXHXFXFXHXHXFXDXGX).).N.C Z Z Z / / / ^ ^ Z N N N V N Z Z ^ ^ `.J.g K z h p l x g x ",
"3 : 2 7 w 8 k b / m.H.Y._.{.sXVXGXDXDXFXFXGXGXGXGXCXCXGXAXGXAXT.(.b.Z Z ^ Z n.Z ^ Z ^ C N M N N V B Z +.^ {.H.f K z u j c h j j ",
"7 w q 7 f j C #.V.K.Y.'.,XpXcXnXCXCXGXAXAXAXAXZXAXCXCXbXVXVXAXT.(.N.Z Z Z #.Z Z / ^ C N N N N N V B Z Z ^ [.H.j K l q f j j h i ",
"x h x M $.%.Z.R.Y.'.,X<XwXuXfXcXcXbXMXMXvXrXT.D.[.iXVXAXAXVXVX_.(.b.Z C Z / Z Z ^ C C N N m N N M B ^ Z ^ {.H.g W s u u g f p h ",
"k N $.V.H.R.T._.[.*X=XwXtXpXpXpXdXmXsXU.N 8 > : , @.eXnXnXvXnXT.K.m./ Z Z Z Z Z Z C C N N N N N V Q ^ B Z {.H.g E l p p p p p j ",
"/ V.K.(.W.4X{.*X-XwXtXeXsXuXdXcXvXrX! < e K L J G G G.mXMXNXMXQ.).N.C C Z Z C C C C C C M N C M V N N N Q [.S.g E l u a i q h j ",
"_.'.(.}.*X,X-XeX8XwXiXfXcXvXmXnXCX+., K 1..Xi.r.0._ G.mXDXFXGX}.).b.M C Z Z C Z C C C M M M n n N C ^ Q ^ {.Z.g K l f p p q q p ",
"T.H.$.H.wXuXsXcXnXMXVXVXAXAXDXDXpXu , :..Xe.e.9.e.w.:.;XZXGXFX|.).b.C C Z Z N C N N N n M C N M n N Q C N _.B.u K l u f u p p f ",
"h h 8 B.cXmXmXnXMXMXCXAXCXCXCXCX;Xt e ~ a.d.i.) 7.9.Y 2.nXVXAX_.(.m.C C C C N M N N C M M M n N n N Q C B _.V.g W s 9 d u j p f ",
"> 9 4 m.cXfXfXcXgXjXjXgXjXgXmXjX@Xt s <.a.0.,.) ] 0.U :.gXnXnXE.R.m.B Z C C C C C C M C N M n n b n N V V T.m.u K s q d 0 i p 0 ",
"f x q *.dXiXuXiXuXiXhXgXgXjXgXjXsXz l ) d.w.T U 7.w.T ) @XmXcX!.R.m.M B C C M N M N M M N M n n n C Z C N (.C.j z z i h q a p d ",
"2 7 2 Q tXiXuXuXuXdXiXiXiXjXfXfXdX-.L ) d.d.w.] w.w.] >.XXfXcX!.R.b.M M M C m n N M M M M M M M N M C C N Q.C.g i s s i u u i p ",
"7 8 5 ^ wXuX0XuXuXiXiXuXiXiXgXiXuXa.0.7.a. Xd.] _ U R _ XXiXgXP.R.b.M M M C N M C N M C M n M M n N C C N _.N.f g s s i u u p 0 ",
"x p p @.tXgXgXuXiXiXiXuXuXuXdXgXuXd.q.) ~ 2.i.T ) U U U ,.&XcXE.I.%.V M M Z M B M M M M M n n N b M Z N ^ T.m.u f i t a p 0 u 8 ",
"x x c *.uXfXmXjXuXiXiXuXuXuXuXiXgXoX9.) y P _ _ ] ] ] U P OXdXU.I.b.M M M M M M n M M M M n n M b M N N N T.=.u d i a t 0 a a u ",
"b M M =.uXfXfXfXiXiXiXiXqXqXuXuXuX8XoX) < < G _ i.] U U y P.iXQ.I.m.N N N B M M n M M M n n n n b M b B b Q.%.u d t e i q 0 0 p ",
"b / &.V.dXfXfXgXiXiXiXiXiXiXiXgXdXnXkX Xy % = r J _ W G ; A.nXE.I.m.M M M M M M M M n M n n c n n M M N b Q.%.u u s H A H t h 0 ",
"m.(.).{.cXgXuXiXiXuXuXiXuXuXgXgXgXfXgX@XK = = - = ; = = % i uX^.U.m.n M M N M M M n n n b n n b n M n M n _.$.8 G e A S F H g d ",
"b.(.R.R.tX8X8X8X8X8X8X0X0X8X8XuXgXpX8X;X) < % % % % # * # t =X~.D.*.n M n M M M n n M c v n b n c M M c n Y.$.6 r e < S S ` y 6 ",
"h M v N Q.%X;X;X%X=X=X=X;X%X;X%X^.8X=XXXa.J < ; = # # = t A.-XJ.H.b.B N M M v n n M n n b n b b b v b c b J./ 4 r e < S D S 1 9 ",
"M +.M M Q.!.!.~.!.!.^.%X[.^.!.^.!.Q.;X,.0.3.Y J r < H W <.~.`.`.Q.I.b.n.Z M v n b M M n b b b b v n v c b (.( 6 e e 1 A S A r 9 ",
"B.V.Z M Y.Q.!.Q.Q.!.%X!.!.`.!.!.Q.{.&X,.r.r.>.7.Y J P X.,.E.}.Y.[.=X=X%X[.M.x n M b n n b b c x c k c v k Q.@.7 t < r r r e t w ",
"F.V.Z N U.U./.U.W.W.`.!.[.~.E.!.{.|.eXXX0.r.7._ T Y X.T ) `.).Y.%X=X<X8XwX[.m.x c n c n n b M x b c v b b I.Z 9 q 6 e e t 5 w 5 ",
"B.&.C M I.Q.E.U.U.W.`.[.!.!.`.-XaX}.lXyXa.i.9.0.,._ ] _ 2.=X,X=X=X=X-X2XwXsX_.N h N c c n x n x c V v b V I.$.d d 0 t s u q q q ",
"@.c j j D.W.J.I.J.W.!.Q.W.%X,XtXlX).lXtX>Xa.1.7.>.Y T _ OX|.=X;XtX<XtXtX2XtXwXJ.b n c c x x c c c v h c b T.#.2 7 7 5 5 - 3 2 2 ",
"^ l l l S.W.U.U.E.U.E.~.*XtXsXpX1X).lXlXgX&Xa.0.>.T ' a.yXwX=X2X3XpXpXpXtXtXtX=X+.k x c x v x c k c c c k Y.N O . . o o X + + + ",
"b g z z M.J.J.J.U.F.Q.wXtXpXpXaXrX).|.vXcXxX;X.Xa.r.p.+X:X<XwXwXtXpXtXtXdXtXtX0XH.b c n x c c c V v b c k I.h     o       o o   ",
"$.-.O.! F.W.U.E.J.Q.wXdXpXxXaXaXsX{.|.zXpXeX<X:X:X>X#XyX,X2XtXeXpXaXaXpXdXdXtXtX}.#.c c c c x c k c k h k H.0           o       ",
"tX@XP.~ J.U.E.U.U.].eXcXpXpXaXpX3X<XlXtX3X3X1X<XpX;X0XtX<XyXtXpX-X<XpXpXpX2X=XpXsXN.c v n v h x h k h h l V.3           o     o ",
"{.Q.Y.@.H.J.H.D.H.pXdXdXaXaXpXpXyXpXdXpXpXdXaXpXsXtXtXtXaXpXpXpX<X<XxXpXuX-XeXeXuX`.M v x j x x k p h h k m.&                   ",
"+.=.*.k $.m.C.C.J.pXzXdXaXdXaXaXpXaXdXpXpXyXaXaXpXtXtXxX3XxXyXpXpX3XpXaXyX;X:X2XxX!.( b h j l j h h h h j b.&                   ",
"b =.&.c / N.N.m.E.zXzXaXpXaXaXpXpXdXdXdXpXaXaXdXpXtXtXpXaXzXaX3XiXdXpXpXuX;XwXxX;XP.1.m h g l j j p x h j $.$ o         o       ",
"U.^.%.k N $./ ^ `.zXfXaXpXpXaXpXpXpXpXpXaXsXdXdXtX3XtXpXaXaXzXpXuXfXtXtXeX=X}.|.G.p.r.O.x k g i s p h p h / O o o     X O O X   ",
"Q.].+.h N / / ^ *XzXzXaX3XaXaXpXpXpXpXpXdXdXdXtXtX2XtXpXpXaXzXzXiXdXpX3XtXJ.A.<.1.7.q.,.m k v p x p v q x Z O         O $ $ * O ",
"].Y.B f b C C / ,XzX3XaXpXaXaXeXpXpXdXdXzXdXpXtXtXtXtXtX3XpXaXaXsXtXyXtX%X~ L Y >.8.6.r.~ x v h h q h i l V X         @ + + + + ",
"B B c q M Z C / ,XzXaXaXpXaXaX<XtXaXdXdXdXpXyXtXpXtXtX2XtXpXaXpXtXtXtXtXJ.z J T ] >.5.6.:.c v g v h p s s l o                   ",
"9 f 0 8 v N M Z *XzXzXzXaXpXaX,X2XpXdXdXdXdXpXiXyX2X2X2XtXpXzXyX<X2X,XrXZ.c z L T T 7.6.0.l q g h h i s y s o         . X O O O ",
"k k u g b n N / |.cXaXdXaXdXyX2X*X<XaXaXyXpXpXtXpXpX2X:X2XpXsXzX,X;X-X%Xb.v b K Y R 0.u.r.W d f d p r t 9 f o . . . X X X . . X ",
";.+.k M C N n N 2XmXaXzXaXaXyX3X!.;XtXtX3XzXdX2X:X>X#X#X>XtXaXyX<X-X;X,XC.c k z Y X.8.6.5.~ f k d g r y d 7 @ . . . .         o ",
"+.^ 9 : 4 p c x *XvXxXvXzXzXzXaX~.%X2XpXsXpXtX>X+X+XoXd.+XqXyXaXeX-X%X-XC.v l l :.5.8.q.5.<.b u x t G t 4 : @ . .     o     o O ",
"f 9 9 - 0 h q k ).lXlXlXxXxXpX2XE.%X<XaX3X:X>X#X$Xf.f.g.d.#XyXaXwX:X-X*XN.h j j :.5.6.q.8.<.+.u 8 a r e 9 : + + $ & : 4 j +.m.@.",
"8 > 4 & 9 h u c 2.XXP.~.E.Y.Y.Z.N.[.pX;X4X#X+XoXk.f.f.g.a.#XtXaXtXtXtX%XS.k k x ) r.6.5.8.:.+.z p 8 E s 9 b.=.Z.D.Q.Q.!.%X=XQ.@.",
"9 4 : : 2 k j g 8.f.f.s.d.i.p._ A.OX:X#XOX+XoXk.f.f.f.s..X&XpXlXtXtXtX8X`.N h c <.r.8.6.8.:.;.B 0 8 t e 7 S.!.U.H.U.J.E.E.F.V.B.",
"f 9 > 4 8 j j l 0.h.y.g.y.u.5.X.G.OX+XoX$X$Xs.k.f.d.d.d.+X;XtXaXtXtXtXtX-XA.j c ~ X.8.w.r.P.[.M.*.f y 6 4 =.A.+.N B.B.&.+.m.Y.}.",
"M b B c b +.Q b i.d.g.g.q.8.>.,.a.oX$Xh.k.h.s.s.d.d.9.a.OX:XwXyX0XdX<XtX2X~.c p z >.8.w.r.@X9XJ.dXwX&XW.Z.B.B.b.m.].T.m.+.M n.Z.",
"B B ! N B $.$.N 7.s.y.t.t.e.u.u.d.d.s.s.s.d.9.p.p.p. XXXOX;XtX3X:XsX8XwX-X-Xm./ B.0.q.w.p.@X6X%XkX6Xz. .x.6Xz.l.z.6X!.k g 9 : > ",
"N N N V V +.@.Q ,.y.u.y.t.t.y.h.t.t.q.r.>.,.2.2.G.G.~.&X-X8XtXtXyXtXwXtXtXtXwXsX<Xd.q.t.2.x.o.o.,. .| } } | } } {  .z.4.! g & & ",
"+.+.@.V V Q @.! :.9.q.y.u.u.u.u.9.5.T Y L ~ E.!.W.W.`.*X=X-X2XtX2X2XdXdX:X=.*.D.!.d.w.d.j.6Xl.4.P.z.| } }  . .} } } z.P K A.~.T.",
"B.A.m.B V ! Q Q O.X.' 5.5.5.8.>._ I J J L <.J.Y._.`.*X*X,X<XyXaXdXpXtXQ.( l -.=.! r.y.t.XX9XvXvXcXhXc..... .x. .[ o.;.l z $.Q.I.",
"F.D.B.+.N ! ^ ( @._ T Y J R R J y 1 G y K M.J.W.!.*X3X<X3XpXaXzXpX,XN.! ^ M.D.-.~ u.y.w.:.+.=.).^.aXqX7Xc.7XgX[.&.I.).Z.M M d 7 ",
"A.D.;.+.! ^ +.@.@.<.Y J 1 1 1 1 s K K l s m ( *.J.`.*X`._._.T.Y.m.*.b.N.B.B.B.O.,.u.t.d.~ q i k b.Z./.P.{.iXnXZXGXAXxXcXrXrXT./.",
"F.F.F.$.^ @.@.@.*.:.~ z z y z ! M.-.( / m.b.N.( / N.N.*.*.( Q ^ *.J.J.V.V.F.-.<.i.y.f.d.~ w 6 w s m =.L.-.=.D.E.~.;X3X<XeXsX`.S.",
"F.E.U.B.*.*.*.$.n.-.&.*.<.;.+.;.E.N.M.V.Z.D.V.V.V.V.M.M.D.S.A.J.F.D.F.B.F.A.O.<.p.d.d.y.O.7 6 9 t i U.[.$.V j 5 & & - - - & $ $ "
};
