/* XPM */
static char *waka20_jpg[] = {
/* columns rows colors chars-per-pixel */
"64 64 256 2 ",
"   c #020202",
".  c #04090B",
"X  c #0B0B0C",
"o  c #090609",
"O  c #171716",
"+  c #251D1C",
"@  c #301C1B",
"#  c #28231E",
"$  c #39281C",
"%  c #282926",
"&  c #352B27",
"*  c #3A332C",
"=  c #3C3A35",
"-  c #0F2317",
";  c #453529",
":  c #443B35",
">  c #4E352D",
",  c #753B32",
"<  c #45433D",
"1  c #4A443B",
"2  c #58493C",
"3  c #66473A",
"4  c #774A3E",
"5  c #71553F",
"6  c #797E20",
"7  c #443E40",
"8  c #4A4643",
"9  c #4D4A45",
"0  c #484645",
"q  c #524D44",
"w  c #524E4A",
"e  c #5D4B44",
"r  c #55534C",
"t  c #5B544C",
"y  c #5C5A4E",
"u  c #575546",
"i  c #5B5653",
"p  c #5D5A53",
"a  c #585855",
"s  c #54554E",
"d  c #6A4B44",
"f  c #764947",
"g  c #68574A",
"h  c #765548",
"j  c #635C54",
"k  c #635E59",
"l  c #6A5C54",
"z  c #775954",
"x  c #5E6258",
"c  c #646155",
"v  c #66625C",
"b  c #6A645C",
"n  c #6D695E",
"m  c #6C6256",
"M  c #72655A",
"N  c #756558",
"B  c #62624E",
"V  c #6B6661",
"C  c #6D6A63",
"Z  c #696765",
"A  c #726C64",
"S  c #7A6B63",
"D  c #736E69",
"F  c #766A68",
"G  c #757166",
"H  c #7A7366",
"J  c #76726B",
"K  c #7A756C",
"L  c #7C786E",
"P  c #727A6C",
"I  c #7C7671",
"U  c #7E7973",
"Y  c #777672",
"T  c #6F7071",
"R  c #B61B2D",
"E  c #883A38",
"W  c #B53134",
"Q  c #8D5A3F",
"!  c #AE3640",
"~  c #885B48",
"^  c #91554B",
"/  c #88614A",
"(  c #9C6C4E",
")  c #88685A",
"_  c #966B56",
"`  c #9A715B",
"'  c #8B7053",
"]  c #A6684D",
"[  c #A76B55",
"{  c #A4755B",
"}  c #A97558",
"|  c #B5795C",
" . c #B66C5F",
".. c #8B6663",
"X. c #926B65",
"o. c #82766B",
"O. c #827A6E",
"+. c #8B7567",
"@. c #9A7867",
"#. c #827C74",
"$. c #8A7E74",
"%. c #847E79",
"&. c #867975",
"*. c #A77964",
"=. c #B87963",
"-. c #B84646",
";. c #C57E62",
":. c #7D806B",
">. c #CBD912",
",. c #D1D42E",
"<. c #E7DC2C",
"1. c #BC885E",
"2. c #898276",
"3. c #86827A",
"4. c #8B847B",
"5. c #8D897E",
"6. c #848175",
"7. c #90857C",
"8. c #97897A",
"9. c #948C76",
"0. c #A8856B",
"q. c #BA8364",
"w. c #B98569",
"e. c #A98A77",
"r. c #B98B75",
"t. c #B7947A",
"y. c #A29476",
"u. c #B1AA74",
"i. c #9FA14F",
"p. c #C58D5C",
"a. c #C38464",
"s. c #C68A6A",
"d. c #D58D6C",
"f. c #CB9469",
"g. c #D5956B",
"h. c #C88B74",
"j. c #CB9374",
"k. c #C9977A",
"l. c #D79677",
"z. c #D68B71",
"x. c #CFA17B",
"c. c #E09075",
"v. c #D0D64A",
"b. c #D5D272",
"n. c #E2E05D",
"m. c #8E8A82",
"M. c #8B8684",
"N. c #948C83",
"B. c #978D87",
"V. c #969184",
"C. c #9A9286",
"Z. c #96918A",
"A. c #9C948A",
"S. c #9F9A8B",
"D. c #9E9A92",
"F. c #9B9693",
"G. c #8D9C99",
"H. c #A1958A",
"J. c #A49A8C",
"K. c #AC9B8E",
"L. c #A59687",
"P. c #B49A87",
"I. c #A49C93",
"U. c #A99E91",
"Y. c #A39C99",
"T. c #B39E92",
"R. c #AF8F82",
"E. c #AAA38C",
"W. c #A6A294",
"Q. c #ACA395",
"!. c #ADA59A",
"~. c #AEAA9C",
"^. c #A5A49A",
"/. c #B2A496",
"(. c #B2A69A",
"). c #B4AA9C",
"_. c #BBAB9D",
"`. c #B8A795",
"'. c #BAB39C",
"]. c #B3AE89",
"[. c #ADA9A2",
"{. c #B4ACA3",
"}. c #BAAEA3",
"|. c #B9AEAA",
" X c #BCB2A3",
".X c #BCB4AB",
"XX c #B8B4AA",
"oX c #BABBB5",
"OX c #C59A81",
"+X c #D39C85",
"@X c #CAA788",
"#X c #D7A48A",
"$X c #C5AA98",
"%X c #D4A993",
"&X c #C7B19A",
"*X c #D5B19A",
"=X c #CBB586",
"-X c #C5AEA3",
";X c #C3B3A5",
":X c #C3B5AA",
">X c #CBB4AC",
",X c #C5BAAB",
"<X c #CBBCAC",
"1X c #C8B7A5",
"2X c #D4BCAB",
"3X c #D5B7A8",
"4X c #C4BCB2",
"5X c #CBBDB3",
"6X c #C5B3B2",
"7X c #D3B8AC",
"8X c #C9C997",
"9X c #D0D18F",
"0X c #EAE28F",
"qX c #CCC3AD",
"wX c #C7C1A7",
"eX c #D2C6AD",
"rX c #D7CAA9",
"tX c #CCC2B4",
"yX c #CDC4B9",
"uX c #CCC8B7",
"iX c #D3C4B4",
"pX c #D5CAB3",
"aX c #DACCB5",
"sX c #D3C5BA",
"dX c #D5CABB",
"fX c #DACCBC",
"gX c #DAC5B7",
"hX c #DDD2BB",
"jX c #DBD1B7",
"kX c #D2D5AC",
"lX c #E0D4BD",
"zX c #E6CDBA",
"xX c #E6E29E",
"cX c #D5CCC2",
"vX c #DBCDC1",
"bX c #D7C5C1",
"nX c #DDD3C3",
"mX c #DCD5CA",
"MX c #DED9CD",
"NX c #D6D2C4",
"BX c #DDDBD4",
"VX c #CECEC2",
"CX c #E2DACC",
"ZX c #E1D6C6",
"AX c #E3DED3",
"SX c #E2DBD4",
"DX c #E9D7C7",
"FX c #E5E1D6",
"GX c #E6E3DB",
"HX c #EBE4DA",
"JX c #E7E6E2",
"KX c #EAE6E2",
"LX c #EAE9E5",
"PX c #EBEBEB",
"IX c #E7E9E8",
"UX c #EDECF1",
/* pixels */
"F.[.XXoX{.Z.L H L 3.m.N.H.A.A.B.N.7.7.6.U K V b G t w 9 8 8 7 8 w D D C L G U #.M.U U U U U U U U U %.&.#.2.A.,XO.M ..S V b k i ",
"{.XX[.^.Z.M.5.m.A.I.{..X4X>X<X;X<X_.U.B.m.3.K A K b v p q 9 8 < j U K K K U U &.%.%.U U U U %.I I I U U #.2.A.tX#.M ) n V b v j ",
"[.Z.3.:.#.%.M.B.F.Z.I.). X2XgX2X>X_.J.A.5.4.7.N.N.N.N.3.&.O.A m D %.#.#.U U #.&.%.U U %.%.U U U U I U &.#.#.A.4X#.M ..b v v v k ",
"N.#.Y I D C A J I O.&.N.J.;X1X2XgX}.B.3.&.#.8.A.C.K.Q.Q.)._.U.J.N.5.#.I U I &.U 3.%.U %.U U %.Y U U Y U &.#.A.5X:.V ..b b v b j ",
"V.A.A.B.B.m.3.%.K O.K F #.N.%.2.7.N.3.3.m.m.A.I.U.(.(.Q.U.K.L.J.A.m.%.I U U 3.%.%.%.U U U U %.U I I I #.#.&.B.4X#.b ..b v b c j ",
"A.I.U.Q.{.{.{.XX6X4X{.M.v s < 9 w v V V x b Y 5.B.S.A.A.J.H.L.L.N.5.U U U %.%.%.3.%.U %.U U U U L K K #.&.6.A.,XO.b ..b c v c y ",
"W.Q.{..X.X,X5XsXcXY.D 9 9 s s p i k p V D D C J L 3.4.N.H.L.J.H.2.4.#.U I %.I %.%.%.U %.%.I U U K K I L U #.V.4X#.M X.b v v k p ",
"{.~.{..X,XyXtX!.F q 9 w i k k V Z v Z D U M.U 2.m.Z.A.S.J.Q._.).5.N.M.U %.I L #.%.%.U %.U I U K K L U L L #.A.4X2.M X.m k b k k ",
"~.~.{.4X4XD.D 9 8 w i l V A S L %.I &.N.m.5.Z.F.I.W.~.{..X,X,X,X|.A.B.%.U %.U U %.%.U %.U I L J I K J K K #.B.4X&.M X.b V c c k ",
"XX.X4XA.Z 7 8 9 w k V A K $.J. XNX).Z.N.B.D.W.XX X.X,X,XtXqXqXpX XA.F.%.Y U U %.3.%.U U U I L K K I G K K #.N.4X6.M X.b v c k k ",
"XXD.M.w = 7 w a b A L N.(.yXMXHXnX).Z.F.[.XX.X.XwXtXtXuXfXdXdXhXyXA.I.%.U U U U 3.U I U U I K K K K K I L #.B.4X&.M @.b v c c k ",
"r = 7 : 0 w s J 2.H..XvXHXAXyX{.J.A.^.XXoXtXuXcXNXmXMXCXFXFXFXHXNXI.[.%.I I U %.U U U U U J L L K K K I L #.B.4X6.M X.b v v k j ",
"* = < < w a p Z.yXSXHXMX.XI.C.A.^.[..XuXdXmXSXAXGXIXLXPXPXPXPXPXFX~.XXM.I U U U #.U U U U U I U J K J U L O.N.:X#.M X.k v v c k ",
"= = < 0 : < k XXNX4XU.7.5.B.J.!.|.yXuXNXFXHXLXPXIXPXPXPXUXIXPXPXMX^.XXU J G K U 6.6.U I U U I K L L K U L #.N.4X&.M X.b V k b k ",
"0 0 = < 0 w w n I #.#.5.B.J.!.{..XcXGXKXIXIXPXPXPXPXPXIXPXPXPXPXBX^.D.c 8 * * : p A U #.I I K J K L L U L #.B.4X6.M X.l v c j k ",
"9 9 9 w 0 w t p V K 5.A.I.!.|.yXmXHXLXUXUXPXPXIXGXJXJXJXKXGXFXFXmX3.c & & & # @ % q G #.I I K K J K J U L #.N.5X#.m ) k k k j k ",
"a a a i p k k S 3.Z.D.^.)..XtXdXmXMXCXFXGXGXGXGXBXFXBXBXFXGXGXGXcXg & ; & & # $ & & V O.H G U I J K J U L P 5.,X#.M ) j j l j p ",
"Z v Z C J %.m.A.Y.~.{..X,XtXtXsXfXfXnXnXmXMXMXAXAXFXFXFXFXFXFXFXY.: & : & & # & ; $ t Y U G J H J K G I L L 5.oX6.N X.j j j j p ",
"C c G #.Z.D.~.[.).{..X,X5XyXtXtXpXdXhXnXZXCXAXAXAXFXFXBXFXBXMXMX3.: 1 2 > : > h ( 5 q Y T J F G J K J U L L 5.wXU N _ v k c j t ",
"A O.B.I.).~.).{.,X<X<XtXuXpXpXfXhXNXmXCXFXFXGXFXGXKXGXGXGXGXGXGXJ.5 0.{ { _ *.j.g.{ 3 #.J J K H J K D I U L 3..XI l ..k p j y a ",
"K.(.{.).{.:X,X,XtXtXsXdXnXZXMXCXGXGXJXLXLXPXIXPXPXPXIXKXPXPXLXPXcXN k.l.l.f.z.z.k.w./ 0.H J J D G G D K K K 5.oXI l ) c p k y a ",
"}.{.Y.N.A A.iXfXnXAXAXAXHXLXHXLXJXLXLXLXPXPXPXPXLXLXLXJXGXKXKXKXBX+.q.l.l.l.l.s.{ q.=.*.+.J D Y G K D I K K 5.XXL z ) c p k y a ",
"L l w r w W.CXDXZXCXCXCXAXCXCXCXMXCXFXFXGXFXGXGXFXFXFXFXFXFXFXGXMXe.q.l.0.=.s.] Q } =.@.+.U J U G J J K K K 3.XXK l ) j p j g r ",
"q i r p w S.iXfXaXaXaXaXjXhXlXlXlXlXZXZXZXMXMXMXhXCXZXnXnXmXDXCXaXr.1.r._ ^ h.s.=.r.t.' K G J G C A D J L J 2.{.L g ) c p c p a ",
"9 r k V t 7.dXdXfXdXgXaXaXjXjXjXjXhXhXhXhXhXnXNXjXhXhXhXlXlXlXlXlXf.d.j.h.s.g.z.d.l.r.d o.A C G G J H G J J 3.XXI l b ~ c y l r ",
"9 1 < r q 5.yXyXiXiXiXpXpXaXaXpXkXhXlXhXhXhXhXhXlXhXjXlXlXlXlXaXlXK.*.l.j.d.l.l.d.+X_ 2 G G G G A J J J L P 5.{.K c c g j t l r ",
"B.J i a u 5.tXpXpXeXpXpXpXaXpXpXjXjXlXlXhXhXzXlXlXaXaXaXaXlXjXaXaXI.N.*.g.d.w.[ | s.3 : A G A H J A G G L J 2.{.P p c g z y a r ",
"F.I v v p 8.dXhXjXaXpXeXpXpXpXiXaXjXjXhXjXaXjXlXlXaXaXaXrXaXaXaXrXJ.Z.d [ h.@.^ ] } ; : F F C G J A A G I G 6.{.K j l g f t y t ",
"m.Y J P A C.uXjXhXjXeXeXeXpXpXpXeXpXaXjXdXaXaXaXaXaXjXaXaXaXaXhXaXE.T.e 3 *. .^ ] X.> & V D C C D A C J K G 6.~.o.c a u d t y t ",
"L C Z Y L S.fXhXhXaXaXaXpXaXdXpXeXaXdXhXhXjXaXlXgXaXgXgXiXiXpXpXoX).iXI = f =.] ` ~ $ ; V A C C D C A G J A 6.~.J y j g f f g e ",
"U J Y m.Z.!.fXaXaXpXaXrXeXpXaXpXaXhXnXnXNXjXaXaXaXgXdXiX<X,X;X.XG.|.uX^.; ; h ~ d > $ j L C C G C C C G G C #.~.F t h ^ E W ^ E ",
"L U F.oXoX4XhXiXeXeXeXqXeXeXqXeXaXjXhXdXuXqXqXrXeXiXqXtXqX<X>X>X|.|.5X3X$.* & ; $ & ; 8.N.D F F C G A n G C U ~.S e d 4 , W -.^ ",
"P P L 5.4.B.<X1X1X,X1X1X<X<X1X,X,X<X,X1X<X<X,X,X5X<X5XyXyX,X1X<X5XqX6XsX:XM.2 > > 3 ~ T.Q.C C S V F C n F Z #.~.m 3 1 d 3 W W W ",
"b v c P V O.).'.'. X X1X1X:X;X1X'. X'. X X X;X<XiXtXyXiXiXiX<X,X5X5X>X1X2XyX~.m.) 0.R.1X{.3.#.A F A J D C C K ).C d f 3 E R R E ",
"4.5.4.5.U #.). X).).).'.;X;X}.-X'._.'. X'. X,XsXtXtXqX<X5XiXsXsX3X#X+Xs.k.&X3XaX1X<XiXsXuX6X{.I.$.A m n C D U ~.n t f f E E E 3 ",
"J.L.S.m.I I !.Q.).).(._. X X_.}._._._.}._. X5XsXgXiXtXyXtXiXgX2X#Xl.@X@Xl.h.c.rXcXuXdXdXsXbXsXtX5X{.&.A D C 6.Q.A t p 3 d 5 u e ",
"K.E.W.5.U U ~.).Q.!.!.). X X}.).)._._.).).:X5XfXgXiX5XyX5X2X%X@Xl.j.qXpX7X*X+X+X3X2XfXhXsXfXpXfXcXdXJ.C A k 6.~.C y y t u z g w ",
"C.8.y.P A F Q.Q.!.!.Q.(.'. X}.)._._._._.:XsXvXbXqXtXyX,X-X@Xl.c.a.z.1XsXVXyX+Xz.l.#X*XeXcXuXyXbXfXvX,XO.A V L ).H s p i f p t w ",
"Z.3.6.b l M U.`.!.!.!.~.). X{.).).).T.[.:XdXcXbXuXiX2X*X#Xl.d.d.=.h.3X5XtX2Xk.d.c.g.h.*XnXcXcXvXfXfXdXA.C A L ~.j % @ % @ - % % ",
"G n H M S S J./.!.~.Q.Q.(.).(./.!.!.Q.(.4XuXyXdXiX3X%X+Xl.z.a.;.r.&X5X5X>X>Xk.h.w.g.=.h.3XgXvXfXfXbXfX!.l b L !.<       o   o . ",
"m c G A N ) J.Q.Q.!.`./.5X).^.Q.!.Y.W.@X@XP.`.].%X+X+Xk.| ~ } } { $X1X1X7XrXOX| } | ] | @XgXdXdXdXvXnX!.V V G W.%               ",
"'.).)./.e.@.K.).(.(.(.Q.;XQ.U.U.J.U.P.j.g.k.l.k.k.+Xs.} ~ h ) *.*.=.=.k.%Xl.z.z.a.;.;.w.k.*XgXqX$X%X&XW.C b A J.%               ",
"wXeXuXtXT.8./.(.!.Q./.U./.W.J.J.J.L.k.s.f.g.l.d.s.} _ *.e.R.K.$X-X%Xh.h.j.s.s.w.r.q.a.| q.k.*X*Xl.k.OXy.v k C Z.#               ",
"E.Q.E.E.e.o.A.I.J.J.J.J.K.J.J.J.J.P.k.f.g.j.f.d.q.( @.$X;X:X|.>X6X5X-Xr.k.&X$XP.P.t.e.( ( q.s.j.g.l.j.t.M l Z :.O               ",
"4.G G 5.M.n 5.Z.Z.V.C.J.S.L.A.Z.t.#Xg.g.g.f.j.s.{ *.@.`._.-X5X<X4X:X>X-X>X>X>X-X,XwX$Xe.{ q.q.a.f.f.p.s.) j C U O               ",
"3.#.5.D.m.C 2.4.5.5.N.V.Z.N.5.5.0.l.g.g.g.f.a.=.X.e.B.T.-X1X1X_.}.$X-X:X>X>X>X<X>X>X-X%X0.1.1.s.p.1.1.s.` j n Y X         X X X ",
"~.~..X X%.v U 6.3.6.3.4.4.6.#.6.t.f.p.f.s.a.| ( @.H.H.H.K.T._.}._.}.$X`.)..X&X>X7X$X_.$Xr.} } a.1.1.a.j.e.B Z F           O O # ",
"/.E.'..XK V I 3.Y I U #.5.#.#.#.t.f.s.s.w.=.( ' $.N.Y.K.K.`.|.|.6X|.}._._. X'.:X;X).y.8.e.[ [ | =.1.1.q.0.B C l   .       O + % ",
"B.K.D.V.G k G #.I I I &.3.6.#.O.a.s.1.| } ( ) +.O.4.H.T.`.}.-X-X>X:X_.}.:X X}.:X;X}.C.e.@.` [ ( } ( [ q.*.B ) g           X X . ",
"j m n v v r U L K I I U 3.&.L K 0.0._ ~ / ) O.#.4.Q.(._.-X;X;X5XyX>X.X>X5X:X}.:X;X`.K.8.X.) _ ~ _ ( [ | _ g z w             X . ",
"H B y y y t A K I I I U %.U K J ) ) N S N K #.Y (.:X-X-X>XsX5XsXsX5X5XsXdX:X}.,X;X).`.N.+.) ) h h ~ ~ ] / d z <   . . o o . X X ",
"J.4.2.J b K L L D J I I I K F A A F F C Z P C U ;X5X<XgXfXfXvXfXgXyXsXvXvX5X:XsX>X}.).U.N.2.M k j h h ~ ~ g g 0 . . . . . .     ",
"D.V.5.6.y p v A C C C Z A D C V V V C Z T T C D.dXfXsXfXfXvXZXdXyXsXfXnXvXsXiXdX5X:X).).[.m.V Z k j g g 4 g j = . . . .         ",
"3.:.G A u * r b v Z n v Z V Z v Z Z Z Z Z D I .XcXZXZXfXfXvXvXbXiXvXnXZXvXfXfXfXsX5X,X.X|.Y x T D i t t d s a * . o . X O O * : ",
"8 p y r 9 : p j v b b Z b Z Z v V p Z V C V A Z.(.{.sXdXZXfXfXvXbXvXnXvXfXbXfXdXyXiXsXiX[.k x Y 6.j w a z y y v y v G 2.A.U.{.{.",
"0 u p 1 0 1 i b c Z Z Z Z Z Z Z Z V v v Z C 3.Z.m.l 4.(.iXbXnXdXvXvXvXfXfXvXvXsXdXsXtXiXF.x a T :.N r s S e l W.).Q.W.Q.).'._.`.",
"n b u 1 8 < u v V b V C C C V V b C b v b 3.4X}.M.V D V %.~.4XyXZXgXsXZXsXcXbXdXgXiXtXyX#.r m.S.].H k 2 d 2 c L.S.9.M.S.W.A.9.Z.",
"K L C b p u k n D C n A A A C V V Z v v C W.5X.X XI.%.C l N.M N.}.pXiXiXiXpX<XiXbXyXbXyXH m 9.wX9X7.oXB.9.L :.L M.6.G E.N.6.#.2.",
"#.#.#.&.#.K 2.C.#.G n F F C A C C v k v U 4X4X:X-X}.}.H.#.I & % < A V.^.). X X1X'. X(.}.&.$.W. X;X>XDX0Xb.b.8X.XE.u.]..X|.$.H g ",
"2.O.H H H S o.2.4.O.H L K I D A Z b b b N.5X:X$X$X_.).{.!.A.b < O O % 0 w r i i 1 e M }.yXyXtX].u.=X@X<.,.>.v.v.,.,.,.b.u.O.c r ",
"2.6.L H o.H H #.O.$.7.5.3.#.#.K A C n A I.5X,X;X(.:X(.).!.U.!.!.5.p & + O X X O % : j $.).wX8Xu.i.i.0.,.>.>.v.v.v.b.0X0Xn.E.9.M.",
"A.A.V.9.9.P G O.2.&.O.$.N.B.4.H K F M F {.5X<X{.{.|.{.).U.(.(./.Q.).S.G q = 0 b V M.A.A.`.'.kXkXlXwX&Xb.,.>.n.xXxXxXv.8X8X.X9.C.",
"C.J.E.W.8.O.H #.&.O.2.O.o.$.$.7.#.O.F O.:X4X;XK.{.U. X).U.U.!.U.Q.(._.!.(.Q.).!.!.!.L.E.!.A.L.'.qXdXhXgXb.<.<.v.8Xu.6 u t Z C b ",
"C.S.S.J.B.&.L $.2.2.&.$.$.O.#.$.4.2.&.5.4X,X).B.H.U./.(.}.(.I.~.~.I.I.I.J.C.J.).{.I.S.5.Z.Z.j c 6.E.^. XuXzXlXkXkX'.9.2.C a 0 * "
};
