/* XPM */
static char *waka6_jpg[] = {
/* columns rows colors chars-per-pixel */
"64 64 256 2 ",
"   c #010202",
".  c #050A0B",
"X  c #0A0A0B",
"o  c #040608",
"O  c #191815",
"+  c #0A1011",
"@  c #241A18",
"#  c #28221B",
"$  c #38261D",
"%  c #282422",
"&  c #372925",
"*  c #3C3833",
"=  c #37322D",
"-  c #1D221E",
";  c #46352C",
":  c #453D36",
">  c #543C2F",
",  c #44413C",
"<  c #47423A",
"1  c #57473B",
"2  c #5C402B",
"3  c #674B3C",
"4  c #794339",
"5  c #75523D",
"6  c #7C7B38",
"7  c #5F3F42",
"8  c #454543",
"9  c #4B4744",
"0  c #4D4B49",
"q  c #4D4945",
"w  c #524E4A",
"e  c #564A44",
"r  c #55524C",
"t  c #5B554C",
"y  c #5C5A4D",
"u  c #595247",
"i  c #5A5651",
"p  c #5E5B53",
"a  c #585754",
"s  c #6A4B44",
"d  c #784743",
"f  c #625B4E",
"g  c #67554A",
"h  c #765647",
"j  c #635D54",
"k  c #645E5A",
"l  c #685A54",
"z  c #765C56",
"x  c #5B6054",
"c  c #656155",
"v  c #6B6255",
"b  c #66625C",
"n  c #6B655C",
"m  c #6C695E",
"M  c #66685D",
"N  c #72655C",
"B  c #736658",
"V  c #6F6750",
"C  c #666561",
"Z  c #6A6661",
"A  c #6D6A63",
"S  c #686C66",
"D  c #726D64",
"F  c #736E69",
"G  c #776A63",
"H  c #747166",
"J  c #7A7365",
"K  c #75726B",
"L  c #7A756D",
"P  c #7C786E",
"I  c #757969",
"U  c #7C7771",
"Y  c #7E7973",
"T  c #7D7C78",
"R  c #6F706A",
"E  c #6C6464",
"W  c #8A3938",
"Q  c #B03036",
"!  c #C6373D",
"~  c #C53840",
"^  c #84574E",
"/  c #8A6759",
"(  c #976A58",
")  c #937155",
"_  c #A86956",
"`  c #A8755A",
"'  c #B77658",
"]  c #8E6963",
"[  c #866965",
"{  c #926B65",
"}  c #817A6E",
"|  c #877467",
" . c #987866",
".. c #827C74",
"X. c #8A7E74",
"o. c #837E79",
"O. c #837974",
"+. c #A77A65",
"@. c #B77E64",
"#. c #A47E71",
"$. c #A14948",
"%. c #C47C68",
"&. c #D0D910",
"*. c #CFD928",
"=. c #E7D33C",
"-. c #BD835D",
";. c #858075",
":. c #8A8276",
">. c #85817A",
",. c #8B847B",
"<. c #8D8A7E",
"1. c #91867D",
"2. c #928A7D",
"3. c #978875",
"4. c #99846B",
"5. c #B88668",
"6. c #A68675",
"7. c #B88B74",
"8. c #BA9579",
"9. c #B08B6D",
"0. c #B8B27C",
"q. c #BFBA54",
"w. c #C5825D",
"e. c #D3935D",
"r. c #CB8C66",
"t. c #C4856A",
"y. c #CB8C6B",
"u. c #C58765",
"i. c #D38D6B",
"p. c #D78C67",
"a. c #CD926B",
"s. c #CD9766",
"d. c #D29264",
"f. c #D3936B",
"g. c #DB9669",
"h. c #CB8D72",
"j. c #C28974",
"k. c #CD9373",
"l. c #C59779",
"z. c #D39474",
"x. c #D59A7B",
"c. c #D99B7B",
"v. c #D99775",
"b. c #D18B71",
"n. c #E39771",
"m. c #D7A479",
"M. c #C0BB7B",
"N. c #E5A377",
"B. c #BFD652",
"V. c #CCD754",
"C. c #D2D850",
"Z. c #D4D46B",
"A. c #E4DF5F",
"S. c #8B8681",
"D. c #8E8B82",
"F. c #8D8288",
"G. c #938C83",
"H. c #9A8E84",
"J. c #948C88",
"K. c #9A9186",
"L. c #9C948A",
"P. c #98948A",
"I. c #9E9991",
"U. c #9C9392",
"Y. c #A3968A",
"T. c #A39A8C",
"R. c #A89787",
"E. c #B79786",
"W. c #A49C92",
"Q. c #AA9D92",
"!. c #A89F99",
"~. c #AA978E",
"^. c #9CA384",
"/. c #A6A295",
"(. c #ABA295",
"). c #ACA49A",
"_. c #ADA99D",
"`. c #A8A499",
"'. c #B3A495",
"]. c #B2A69B",
"[. c #B3AA9D",
"{. c #BAAC9D",
"}. c #B4A995",
"|. c #B2AA90",
" X c #AEAAA2",
".X c #AEA5A0",
"XX c #B4ADA2",
"oX c #BAAFA3",
"OX c #B4AAA5",
"+X c #B6B1A5",
"@X c #BAB1A5",
"#X c #BDB5AA",
"$X c #BEBAAE",
"%X c #B5B2AA",
"&X c #BEBAB2",
"*X c #C69B86",
"=X c #D99B83",
"-X c #C7A68B",
";X c #DAA585",
":X c #C7A795",
">X c #CCB39D",
",X c #D1AD97",
"<X c #C1B4A5",
"1X c #C3B6AA",
"2X c #C4BAAC",
"3X c #CBBBAD",
"4X c #CBB8A6",
"5X c #D4BAA6",
"6X c #C4BDB2",
"7X c #CDBDB2",
"8X c #C0BDB8",
"9X c #D2BEB3",
"0X c #D2BDBA",
"qX c #D1AAA5",
"wX c #E4AA8F",
"eX c #D6CD8D",
"rX c #E3E384",
"tX c #CCC3AE",
"yX c #D9C4AC",
"uX c #D6C7AC",
"iX c #CCC2B4",
"pX c #CDC5BA",
"aX c #C9C5BB",
"sX c #D3C3B5",
"dX c #D4CBB3",
"fX c #DBCCB5",
"gX c #D5C5B9",
"hX c #D9C6BC",
"jX c #D5C9BC",
"kX c #DACBBC",
"lX c #DAC4B4",
"zX c #DBD2BD",
"xX c #D8D4B9",
"cX c #DBD4A0",
"vX c #E2CDB9",
"bX c #E2CDAE",
"nX c #E5E5A6",
"mX c #DCCDC1",
"MX c #D6CDC2",
"NX c #DCD2C3",
"BX c #DBD6C9",
"VX c #D3D1C8",
"CX c #E2D4C5",
"ZX c #E3DCCC",
"AX c #E4D8C8",
"SX c #E3DDD3",
"DX c #E5DDDA",
"FX c #E3CDC5",
"GX c #DFE1D6",
"HX c #E5E2D4",
"JX c #E8E5D9",
"KX c #E2E0C9",
"LX c #EAEAE5",
"PX c #ECECEB",
"IX c #E5E8E3",
"UX c #F1EDE8",
/* pixels */
"D._.%X$X%XJ.U S H Y ,.,.H.H.G.H.2.2.<.;.P I A x F i 0 8 8 8 8 8 a K F D U L U T T ;.Y Y ..Y Y P Y L o.o.:.../.6XL n ] G A b k t ",
" X%XOX`.I.,.>.S.K.L..X<X7X2X1X4X<X].L.K.S.>.P D K b k i 0 9 , , p U F I Y L Y O.;.o.T o.o.Y ..P P L T O.:...Q.6XL B / m n C Z j ",
"%X`.P.<.,.S.F.P.L.Y.].XX{.3X9X5X9XoXQ.L.G.;.2.,.G.D.G.,.O.J B f K >.T Y ;.P ..Y ..o.Y Y o.Y ..P T L o.Y ....W.iXL N ] c b b b j ",
"D.Y H S G L F L o.o.D.H.Q.<XsXsXsXoXK.1.O.O.J.L.Y.T.(.].{.[.).Q.D.D.X.T Y Y ;.Y o.o.o...o.Y Y P Y L Y O...o.T.6X} G ] v n b k p ",
"L.J.K.G.>...} } D D A U ,.U.G.H.Y.L.G.<.;.>.L.W.!.'.}.].(.Q.R.R.I.J.;...;...;.Y o.X.T o.o.T T P L U T O.....I.6XL A { c n Z k j ",
"K.I.`.].)..XXX@XXX2X XF.A k 0 w q f A A A A Y ,.K.Y.L.T.Q.Q.T.T.K.S.;...Y ..o.;.o.>.o.o.o...Y P U Y U O.....L.iX} N ] v k b j p ",
"W.).[.+X1X2XiX6XMX+Xo.w 9 w i i j p k p M H A I T >.,.G.T.T.T.Y.<.,.>.O.O.o...o.>.o...o...Y Y P U Y U U ....K.6X} N { n j C j p ",
"`.+XXX@X6X7XiX$Xo.i q 0 a i k k b b S R T ,.P ;.S.U.L.I./.(.+X@XD.D.,.o.O.o.O.o.>.>.Y o.Y Y Y U U Y L U } } L.7X..n { n k b k p ",
"XXXX[.6X8X%Xo.i 9 0 w t n m G P U K ;.G.P.D.J.I.!./._.XX2X2X<XtXoXP.L.O.T T O.o.o.o.O.o.Y U U U L L U O.P Y K.6X} N { m c M b c ",
"XX+X2X.X..w < 0 w p n m J ..K.(.&X_.P.J.K.T.`.XX[.$XiXiXiXiXsXdX6XY.!.O.U Y T T o.o.O.o.P U L U Y K U } L O.K.6X..N { v b v b f ",
"#X+XW.f * : w r k A L ,.T.1XBXJXDX+XK.L. X+X$XiXiXpXgXsXjXNXNXNXpXL.!.>.T o.o.>.o.Y T o.U U U U P L U L L ..K.6X..N { n b v b j ",
"C q 8 * 9 i r Z } G.[.gXZXJXNX2X XI./.$XaXiXpXBXVXBXZXHXJXJXJXJXSX`. X>.K U U o.o.o.Y ..K U U T L Y U } ....L.2XX.N { v b b k f ",
"= * , 9 0 r i D.2XNXJXSXiX[.W.L.W. X&XpXMXBXSXSXJXIXLXLXPXPXIXLXSXOX&X<.U >.o.o.o.o.Y ;.P Y U U I Y U U ..} K.$XX.N { k c M b j ",
"* : , 8 * 8 k OXBXgXoXL.2.G.Y.(.#X6XaXVXDXLXLXIXIXPXPXLXIXIXPXPXDX X X;.Y o.o.o.o.o.T ;.Y Y U U L L U Y ..O.J.iX..Z / n b b b v ",
", 8 8 8 0 0 u G ,.X.O.,.K.T.`.+X2XjXHXLXLXLXPXPXPXBX&X/.,.,.I.OXaX_. X>.L O.o.o.o.o.Y ;.L Y L U L P U O...} J.0X} N / b b b Z j ",
"0 9 0 8 0 0 y y n L ,.L.`.`.oXpXBXHXUXLXLXPXPXPX&XO.u 1 1 : : > r I  X<.L o.,.o.o.o.Y ..L Y U U L U L L O.P G.gX..N ] k j c k f ",
"i i i w i i b Z o.J.W.`.XX1XiXkXBXSXDXJXHXJXJXBXB 9 < 1 / / h 2 ; = T >.L ,.O.o.o.o.T U T U K U K L H Y P P G.aXY B / l k k j j ",
"Z E n Z F U ,.L.W.`. X+X$XiXsXgXdXzXNXBXBXHXHX$X1 e s h 8.x.z.5.h > g X...L o.>.O.O.U U K U K U K P H U P P D.iXO.B ] l k b j p ",
"N l n } P.Y.!.`.OX+X%X6XiXdXgXhXuXzXCXBXBXDXGXY.e s g ( v.g.g.v.u.`  .O.P ;.T U Y Y U K U L K U K K K U P L <.&XO.V ] k b b j i ",
"N G ,.W.!.).XXoX<X7X7X7XiXgXkXmXzXAXZXZXHXJXJX3.s l [ @.z.c.x.h.i.x.8.:.P T L O.U L L U U U H U H L F U P I D.iXY B / k b c p i ",
"K.!.XX1XoX@X7X7X9XgXkXmXBXBXSXHXJXJXJXLXUXLXJX9.+. . .l.k.j.` ( %.5.) ,.T K T L U L U U U U F U K L K Y U L <.iXO.V / k k j p i ",
"@X%X.XL.o.Y.iXgXNXZXZXSXJXJXJXJXIXPXPXPXUXLXDXl.f.j.9.=Xc.t.( ` y.( | X.U T ,.J O.L U K U K F U I K F U L L ,.$XK z / k j i p i ",
",.H j w w K.ZXZXZXZXZXZXHXHXHXKXDXJXHXHXJXJXCXx.p.t.7.c.v.k.t.b.c.( 6.o.K U U O.U U U K K U K U H H H L L L ;.#XL z / j j y y i ",
"r r r i r G.NXjXdXkXzXzXCXAXCXCXzXZXBXZXSXJXCX=Xg.` +.=Xc.z.b.p.b.5.E.:.U U Y Y U U U U U U K K F F F L K L ;.#X} V / j j j p p ",
"9 r k Z w :.dXfXdXvXlXfXxXxXvXzXzXvXZXKXAXCXAX,Xy.( / 7.=Xp.p.%.' 9.'.L L O.L P K H U R R K F K K K H K K P :.#XL f z z f f j a ",
"q < 9 r q L sXuXdXdXfXfXvXzXkXCXyXyXuXuXvXAXAXbXl./ 3 ^ 7.t.@.+._ +.~.X.U L L H K K U H K Y K F F K K K U P :.@XL v l l V f t j ",
"S.A i i i O.sXfXdXdXuX,XqXbXdX4Xc.b.y.7.,XlXBXdX-Xg 1 5 ` @._ _ _ { R.X.U U U L K T K F K H K K K K H K K U ;.+X} p M j h l y t ",
"`.o.Z b C ,.jXfXxXzX5X,Xl.-XyX;Xf.v.v.v.y.-XzXvXl.5 2 ; 5 %.@.%._ ^ R.,.U U } F D U K L U S F L K F I K K K ;.+X} i M p s f x t ",
"D.K m S I G.jXxXxXkXvXyX,Xm.c.c.m.x.v.v.k.-X5X8.z.) ; : > ( t._ ( z /.>.K L U K K Y F K K F F F F F D F K K >.+XJ v n t s y r l ",
">.H S R ..2.dXxXAXvXfXdXuX;Xy.n.x.x.z.f.l.:X|.9.k.5.> & & ; 5 ^ 3 e /.<.L H H K G I H F A F F F F F D D F K X.OXJ f l h W d s u ",
"Y H U S.P.I.dXfXfXfXxXuXxXyXl.y.k.z.z.y.5.qX*X%.a.h.+.3 & $ $ $ $ : U.!.Y.H.1.,.Y D K F F U K F D D H S F H O.XXL t f h W Q $.s ",
"U T J.%X8X$XxXuXuXuXdXfXuXuXyXl.f.v.k.k.7.oXiXj.r.f.-.` 3 ; ; $ & e W.<X<X3X7X7X&X,.F D F F F F D D H H F F P [.F f s 4 3 Q ~ ~ ",
"K Y T J.G.D.3X3X3X3X3XtXtXtXtX5Xz.z.d.i.3.#XsX4X-.a.u.-./ h 3 ; ..2.K.<X3XtX7XsXfX7XQ.L G F F K F F S S H S ;.}.J 3 u d 4 Q ! Q ",
"v b x R Z G [.oX<X<X<X<X1X3XyX5Xc.k.s.i.H.OXiXsX,X7.w.' _ ( /  .@X1X@X3X3XsXsXgXkXgXjX#X,.G K D D D A A S n P [.H s l d 4 Q Q W ",
";.:.,.<.L L XX@X{.{.oXoX2XtXdX9Xc.h.a.h.R.OX6X0X9X*Xt.@.' %.8.qX1X7X6X7XsXgXhXsXgXzXkXNX6X,.n D D Z n D G m P _.D u f d d W 4 4 ",
"R.T.T.K.} L (.].{.].}.{.#XsXgXsXx.a.i.t.E.1X8X6X8X<X|.l.k.j.>X3X7X7X7X7XgXgXhXhXgXkXkXkXNX7XK.A Z A D A H D P _.I a r s 3 4 s u ",
"|./.^.2.:.} )._.).}._.].2XiXhXsXb.i.d.y.l.9X7X7X7X7X2X3X5X:X7XpXgXgXjXsXzXhXkXkXkXhXkXhXhXZXiXK.A S R A S m L _.I r a g t g y y ",
"L.T.Y.:.J G W.].(.}.].}.2XgXkXsXx.i.p.y.y.4X7XsXlX3XhXgXgXsX9XhX9XsXhX7XdXMXkXkXmXgXgXfXmXNXVXaXX.G n n S M H  XL r x f f f r t ",
"2.2.:.G l v Y.[.`.'.'.}.<XdXvX9Xx.f.p.a.y.:X7X9XbX0XhX0X3XkXgXgXlXgXjX6XiXkXkXmXhX7XdXkXhXAXZX6X7.4.| B D n J [.Z & % - O @ @ % ",
"J H H B G J Y.Q.).].'.'.{.gXFX9X=Xf.i.k.i.:XsX9X7XgX0X9XtXdXzXkXdXsXdXgXkXkXhXkXMX1X9XkXkXNXiX/.g.z.7.| n n H _.9     o       . ",
"v v D N V B R.!.'.).].'.3XhXkXbXz.f.a.f.i.8.tXgX7XgXgX9XsXhXgXgXlXgXfXhXkXkXvXkXhX{.2XsXFXMX/.8.g.N.g.-.) n I _.*               ",
"{.(.(.'.8. .R.XX'.]..X'.@XjXkXyXz.z.z.f.i.l.3X0XsXsX9XgXlXhXgXkXgXhXfXhXkXkXmXkXgX~.'.9XMX}.E.v.N.v.g.g.5.[ A I.=               ",
"3XtXiXsX>X4.~.].].!..X(.].aXMX>Xs.f.a.f.d.j.>X9XsXsX9XgXgXsXgXhXdXhXkXkXkXkXhXgX9XL.} L.Y.6.h.n.e.g.g.g.s.7.J 2.%               ",
"}.[._.(.R.| L.T.T.W.!.Q.`.#X3X*Xf.f.a.f.f.k.:X9X7XsXgXsXgXhXsXgXsXgXkXmXmXkXdXsXsX_.H H m 6.%.f.e.g.v.d.g.k.6.<.O               ",
":.P H :.<.B <.L.K.L.I.Y.W.).:Xk.a.d.r.f.f.u.*X<X7XsXsXsXsXgXgXgXsXsXgXhXkXkXsXsXtX[.| k S B ( ) u.i.d.g.e.g.8.2.O               ",
";.I P L.J.S T D.D.D.G.G.L.K.*Xi.r.u.u.i.r.5.7.}.3X9XsX9XsX9XsXgXgXgXsXgXgXgXsXsXiX2XL S K n V m ` r.p.f.e.g.l.:.O         X + O ",
"_.[.+X@XD.A L ,.X.>.;.,.D.,.8.f.r.y.y.f.r.t.7.R.<X3X7XsXsXsXsXsXhXgXgXsXsX3XsXgXfXsXH M Z N b A ` p.g.e.a.f.9.} X       o O O @ ",
"/.(.+X$X<.b D ,.T T O.>.o.O.7.d.r.u.r.d.5.t.@.3.].1XsX9XsXlXsX3XgXgXdXhXgXsXgXkXhX9X2.S D v b z 5.g.g.e.a.y.( G o         O O O ",
"T.T./.I.P y F T O.P Y T >.X.6.r.u.t.u.r.w.@.7.X.Q.<X5X9XgXlXgXlX3X7XsXkXmXCXCXCXkXiX{.B n S c / s.p.p.e.d.+.N B o         o o   ",
"f m D M m y A U Y L L Y T X.4.5.w.f.u.-.-.5.6.3.Q.oX3X9XgXhXhXgXsXsX9X9XgXgXMXkXhXkXsXY.H y B  .r.g.e.e.-./ B l             . + ",
"c v f u y r M L U U L O.T o.|  .' d.i.u.-.5.6.H.~.[.3X7X9XgXkXkXkXhXgXsXgXgXgXkXhXkXgX3XW.v V 5.d.g.e.s.( 5 h r o o o X X o X X ",
";.,.} J v m L L L L L L Y U H G  .5.t.u.t.7.~.!.'.{.<X3X3XiXhXkXmXkXkXmXkXMXmXMXkXdXsXjXiXY. .a.g.d.f.+.^ h f r + X o . . o o   ",
"K.I.<.:.v c M D S D D n S S S A A [ { _ +.E.1X XoXoX<X3X3X3XgXkXkXmXmXFXFXkXkXjXsXlXgXgXsX-X5.z.g.g.5.) 4 g r 8 + . . . o o     ",
"....H m p * < b b n b b b A C C C C N k G o.oX2X3X<X1X3X9X9XsXhXmXkXkXkXkXkXjXkXdXgXgXkXqXl.a.g.g.a.) u s g r : . . . X O % * 9 ",
"< y x r u , 0 b k n C A A Z C C S C C C S S S.3X7X3X1X3X0X0XsXsXkXkXkXmXkXMXMXkXFXmXMXgX*X=XN.m.v.9.V y z l t v x m P <.W._.XX#X",
"< t r u : , a b b Z C A m Z n Z C C C E E R Z _.MXgX7X3XgXgX9X9XgXhXFXCXCXCXCXkXhXmXMX}.7.wXN.m.*X| y r z f f T.@XXX`.}.{.{.{.'.",
"u n t q , q r b Z Z Z A A R A Z Z Z Z b Z A A J.MXjX7XsX3XgXjXgXgXgXiXkXzXNXAXCXAXCX].e ( c.N.x.m.O.R e d 1 t K./.<.:.U.R.L.,.3.",
"l P m v p j t m A n A D F A A A F Z Z k Z Z Z T jXmXjX9X7XsXkXMXhXkXhXkXkXjXMXjXoXJ ; e ^ v.i.=Xm.8.qX XH.X.X...3.;.} ^.T.S.} o.",
"f ;.P P ..Y J 2.,.L m D H H D A A b b b C Z C F 7XBXCXsXhXgXkXNXCXNXAXBXNXhX.XF.< # = j  .%.r.v.=X*XyXrXZ.eXeX1X|.0.0.$X@X:.J f ",
"V ;.I J J J J ..2.X.} L H D D F S b n b b C C A W.pXNXNXNXgXkXMXAX7XoXK.L i = # @ g 1.L.R.5.u.h.m.b.;XV.*.*.*.V.&.*.&.V.M.| m c ",
"J P L I J J } ..} X.,.1.,.;.O.I H m m n b n n Z D O.U G.T..X!.H.L < # O O O # * X.(.].(.R.5.5.j.t.5.k.q.&.&.C.V.V.Z.rXV.C.0.G.4.",
"P.L.K.K.,.} L | X.} X.:.G.J.1.O.P H m D A A A A A `.K.G u n t # % @ % = : i P I._.'.}.].|.9.4. .{ 3.@XeX=.&.A.rXKXnXV.eXtXtX3.K.",
"L.L.Y.T.K.} J L X.X...} } ..:.,.;.} J J H D G H Y XX#X6XXX].W.K.K.W.!.`.).[.+X}._.'.}.XXQ.R.6.L.2./.yXCXcXA.=.=.eX|.6 r q V a c ",
"2.T.T.T.T.X.J :.:.} X.X.X.X.X.X.:.:...} L D H L ,.1X1X2X1X}.).[.].[.'.oXXX'.Q.R.W.'.:X[..XoX+X+X{.W.Q.|.tXxXcXfXcX>XR.J.I M a < "
};
