/* XPM */
static char * water7_xpm[] = {
"64 64 3 1",
" 	c #285CC4",
".	c #20D6C7",
"+	c #A6FCDB",
"        ....    ....                    ++++....        ....    ",
"        ....    ....                    ++++....        ....    ",
"        ....    ....                    ++++....        ....    ",
"        ....    ....                    ++++....        ....    ",
"            ....                                ....    ++++    ",
"            ....                                ....    ++++    ",
"            ....                                ....    ++++    ",
"            ....                                ....    ++++    ",
"            ....                                    ....        ",
"            ....                                    ....        ",
"            ....                                    ....        ",
"            ....                                    ....        ",
"        ....    ....++++                        ....    ++++    ",
"        ....    ....++++                        ....    ++++    ",
"        ....    ....++++                        ....    ++++    ",
"        ....    ....++++                        ....    ++++    ",
"........            ++++++++            ........            ++++",
"........            ++++++++            ........            ++++",
"........            ++++++++            ........            ++++",
"........            ++++++++            ........            ++++",
"                ++++        ++++........                        ",
"                ++++        ++++........                        ",
"                ++++        ++++........                        ",
"                ++++        ++++........                        ",
"            ++++                        ....                    ",
"            ++++                        ....                    ",
"            ++++                        ....                    ",
"            ++++                        ....                    ",
"        ....                            ++++                    ",
"        ....                            ++++                    ",
"        ....                            ++++                    ",
"        ....                            ++++                    ",
"++++....                                    ++++        ....++++",
"++++....                                    ++++        ....++++",
"++++....                                    ++++        ....++++",
"++++....                                    ++++        ....++++",
"        ....++++                        ........    ....        ",
"        ....++++                        ........    ....        ",
"        ....++++                        ........    ....        ",
"        ....++++                        ........    ....        ",
"                ++++            ++++....        ....            ",
"                ++++            ++++....        ....            ",
"                ++++            ++++....        ....            ",
"                ++++            ++++....        ....            ",
"                    ++++........                    ........    ",
"                    ++++........                    ........    ",
"                    ++++........                    ........    ",
"                    ++++........                    ........    ",
"                            ....                            ....",
"                            ....                            ....",
"                            ....                            ....",
"                            ....                            ....",
"                        ....    ++++                        ++++",
"                        ....    ++++                        ++++",
"                        ....    ++++                        ++++",
"                        ....    ++++                        ++++",
"++++                ++++        ++++                            ",
"++++                ++++        ++++                            ",
"++++                ++++        ++++                            ",
"++++                ++++        ++++                            ",
"    ++++        ++++                ++++                    ....",
"    ++++        ++++                ++++                    ....",
"    ++++        ++++                ++++                    ....",
"    ++++        ++++                ++++                    ...."};
