/* XPM */
static char * water7_xpm[] = {
"64 64 3 1",
" 	c #249FDE",
".	c #20D6C7",
"+	c #A6FCDB",
"        ....    ....                    ++++....        ....    ",
"        ....    ....                    ++++....        ....    ",
"        ....    ....                    ++++....        ....    ",
"        ....    ....                    ++++....        ....    ",
"            ....                                ....    ++++    ",
"            ....                                ....    ++++    ",
"            ....                                ....    ++++    ",
"            ....                                ....    ++++    ",
"            ....                                    ....        ",
"            ....                                    ....        ",
"            ....                                    ....        ",
"            ....                                    ....        ",
"        ....    ....++++                        ....    ++++    ",
"        ....    ....++++                        ....    ++++    ",
"        ....    ....++++                        ....    ++++    ",
"        ....    ....++++                        ....    ++++    ",
"........            ++++++++            ........            ++++",
"........            ++++++++            ........            ++++",
"........            ++++++++            ........            ++++",
"........            ++++++++            ........            ++++",
"                ++++        ++++........                        ",
"                ++++        ++++........                        ",
"                ++++        ++++........                        ",
"                ++++        ++++........                        ",
"            ++++                        ....                    ",
"            ++++                        ....                    ",
"            ++++                        ....                    ",
"            ++++                        ....                    ",
"        ....                            ++++                    ",
"        ....                            ++++                    ",
"        ....                            ++++                    ",
"        ....                            ++++                    ",
"++++....                                    ++++        ....++++",
"++++....                                    ++++        ....++++",
"++++....                                    ++++        ....++++",
"++++....                                    ++++        ....++++",
"        ....++++                        ........    ....        ",
"        ....++++                        ........    ....        ",
"        ....++++                        ........    ....        ",
"        ....++++                        ........    ....        ",
"                ++++            ++++....        ....            ",
"                ++++            ++++....        ....            ",
"                ++++            ++++....        ....            ",
"                ++++            ++++....        ....            ",
"                    ++++........                    ........    ",
"                    ++++........                    ........    ",
"                    ++++........                    ........    ",
"                    ++++........                    ........    ",
"                            ....                            ....",
"                            ....                            ....",
"                            ....                            ....",
"                            ....                            ....",
"                        ....    ++++                        ++++",
"                        ....    ++++                        ++++",
"                        ....    ++++                        ++++",
"                        ....    ++++                        ++++",
"++++                ++++        ++++                            ",
"++++                ++++        ++++                            ",
"++++                ++++        ++++                            ",
"++++                ++++        ++++                            ",
"    ++++        ++++                ++++                    ....",
"    ++++        ++++                ++++                    ....",
"    ++++        ++++                ++++                    ....",
"    ++++        ++++                ++++                    ...."};
