/* XPM */
static char * water4_xpm[] = {
"64 64 3 1",
" 	c #20D6C7",
".	c #285CC4",
"+	c #A6FCDB",
"    ....    ....................++++    ........    ............",
"    ....    ....................++++    ........    ............",
"    ....    ....................++++    ........    ............",
"    ....    ....................++++    ........    ............",
"....    ................................    ....++++............",
"....    ................................    ....++++............",
"....    ................................    ....++++............",
"....    ................................    ....++++............",
"....    ....................................    ................",
"....    ....................................    ................",
"....    ....................................    ................",
"....    ....................................    ................",
"    ....    ++++........................    ....++++............",
"    ....    ++++........................    ....++++............",
"    ....    ++++........................    ....++++............",
"    ....    ++++........................    ....++++............",
"................++++++++............    ............    ++++    ",
"................++++++++............    ............    ++++    ",
"................++++++++............    ............    ++++    ",
"................++++++++............    ............    ++++    ",
"............++++........++++        ............................",
"............++++........++++        ............................",
"............++++........++++        ............................",
"............++++........++++        ............................",
"........++++........................    ........................",
"........++++........................    ........................",
"........++++........................    ........................",
"........++++........................    ........................",
"....    ............................++++........................",
"....    ............................++++........................",
"....    ............................++++........................",
"....    ............................++++........................",
"    ....................................++++........    ++++++++",
"    ....................................++++........    ++++++++",
"    ....................................++++........    ++++++++",
"    ....................................++++........    ++++++++",
"....    ++++........................        ....    ............",
"....    ++++........................        ....    ............",
"....    ++++........................        ....    ............",
"....    ++++........................        ....    ............",
"............++++........    ++++    ........    ................",
"............++++........    ++++    ........    ................",
"............++++........    ++++    ........    ................",
"............++++........    ++++    ........    ................",
"................++++    ........................    ............",
"................++++    ........................    ............",
"................++++    ........................    ............",
"................++++    ........................    ............",
"....................    ............................    ........",
"....................    ............................    ........",
"....................    ............................    ........",
"....................    ............................    ........",
"................    ....++++........................++++........",
"................    ....++++........................++++........",
"................    ....++++........................++++........",
"................    ....++++........................++++........",
"............++++........++++............................++++....",
"............++++........++++............................++++....",
"............++++........++++............................++++....",
"............++++........++++............................++++....",
"........++++................++++....................    ....++++",
"........++++................++++....................    ....++++",
"........++++................++++....................    ....++++",
"........++++................++++....................    ....++++"};
