/* XPM */
static char * wind2_xpm[] = {
"64 64 6 1",
" 	c None",
".	c #060608",
"+	c #E3E6FF",
"@	c #B9BFFB",
"#	c #588DBE",
"$	c #849BE4",
"                                                                ",
"                                                                ",
"                                                                ",
"                                                                ",
"                            ........                            ",
"                            ........                            ",
"                            ........                            ",
"                            ........                            ",
"            ........    ....++++++++....    ....                ",
"            ........    ....++++++++....    ....                ",
"            ........    ....++++++++....    ....                ",
"            ........    ....++++++++....    ....                ",
"        ....++++@@@@........++++++++........++++....            ",
"        ....++++@@@@........++++++++........++++....            ",
"        ....++++@@@@........++++++++........++++....            ",
"        ....++++@@@@........++++++++........++++....            ",
"        ....@@@@@@@@........@@@@++++........@@@@....            ",
"        ....@@@@@@@@........@@@@++++........@@@@....            ",
"        ....@@@@@@@@........@@@@++++........@@@@....            ",
"        ....@@@@@@@@........@@@@++++........@@@@....            ",
"        ....++++....++++....@@@@........++++@@@@....            ",
"        ....++++....++++....@@@@........++++@@@@....            ",
"        ....++++....++++....@@@@........++++@@@@....            ",
"        ....++++....++++....@@@@........++++@@@@....            ",
"    ....++++@@@@....@@@@++++++++@@@@++++++++....++++....        ",
"    ....++++@@@@....@@@@++++++++@@@@++++++++....++++....        ",
"    ....++++@@@@....@@@@++++++++@@@@++++++++....++++....        ",
"    ....++++@@@@....@@@@++++++++@@@@++++++++....++++....        ",
"    ....++++....    ....@@@@@@@@@@@@@@@@@@@@....++++....        ",
"    ....++++....    ....@@@@@@@@@@@@@@@@@@@@....++++....        ",
"    ....++++....    ....@@@@@@@@@@@@@@@@@@@@....++++....        ",
"    ....++++....    ....@@@@@@@@@@@@@@@@@@@@....++++....        ",
"    ....@@@@++++........@@@@++++++++++++....@@@@++++....        ",
"    ....@@@@++++........@@@@++++++++++++....@@@@++++....        ",
"    ....@@@@++++........@@@@++++++++++++....@@@@++++....        ",
"    ....@@@@++++........@@@@++++++++++++....@@@@++++....        ",
"    ....@@@@++++........@@@@@@@@++++++++....@@@@++++....        ",
"    ....@@@@++++........@@@@@@@@++++++++....@@@@++++....        ",
"    ....@@@@++++........@@@@@@@@++++++++....@@@@++++....        ",
"    ....@@@@++++........@@@@@@@@++++++++....@@@@++++....        ",
"        ................############................            ",
"        ................############................            ",
"        ................############................            ",
"        ................############................            ",
"                    ....$$$$$$$$$$$$....                        ",
"                    ....$$$$$$$$$$$$....                        ",
"                    ....$$$$$$$$$$$$....                        ",
"                    ....$$$$$$$$$$$$....                        ",
"                    ....########$$$$....                        ",
"                    ....########$$$$....                        ",
"                    ....########$$$$....                        ",
"                    ....########$$$$....                        ",
"                    ....####$$$$....                            ",
"                    ....####$$$$....                            ",
"                    ....####$$$$....                            ",
"                    ....####$$$$....                            ",
"                    ............                                ",
"                    ............                                ",
"                    ............                                ",
"                    ............                                ",
"                                                                ",
"                                                                ",
"                                                                ",
"                                                                "};
