/* XPM */
static char * wolfw3_xpm[] = {
"64 64 4 1",
" 	c None",
".	c #060608",
"+	c #403353",
"@	c #242234",
"                                                                ",
"                                                                ",
"                                                                ",
"                                                                ",
"                                                                ",
"                                                                ",
"                                                                ",
"                                                                ",
"                                                                ",
"                                                                ",
"                                                                ",
"                                                                ",
"                                                                ",
"                                                                ",
"                                                                ",
"                                                                ",
"                                                                ",
"                                                                ",
"                                                                ",
"                                                                ",
"                                        ....    ....            ",
"                                        ....    ....            ",
"                                        ....    ....            ",
"                                        ....    ....            ",
"                                    ....++++....@@@@....        ",
"                                    ....++++....@@@@....        ",
"                                    ....++++....@@@@....        ",
"                                    ....++++....@@@@....        ",
"                                ....++++++++++++++++++++....    ",
"                                ....++++++++++++++++++++....    ",
"                                ....++++++++++++++++++++....    ",
"                                ....++++++++++++++++++++....    ",
"        ........................@@@@++++++++++++....++++++++....",
"        ........................@@@@++++++++++++....++++++++....",
"        ........................@@@@++++++++++++....++++++++....",
"        ........................@@@@++++++++++++....++++++++....",
"    ....++++....++++++++++++++++++++@@@@++++++++++++++++++++....",
"    ....++++....++++++++++++++++++++@@@@++++++++++++++++++++....",
"    ....++++....++++++++++++++++++++@@@@++++++++++++++++++++....",
"    ....++++....++++++++++++++++++++@@@@++++++++++++++++++++....",
"....++++....++++++++++++++++++++++++++++@@@@@@@@@@@@........    ",
"....++++....++++++++++++++++++++++++++++@@@@@@@@@@@@........    ",
"....++++....++++++++++++++++++++++++++++@@@@@@@@@@@@........    ",
"....++++....++++++++++++++++++++++++++++@@@@@@@@@@@@........    ",
"....@@@@....++++++++++++++++++++++++++++@@@@@@@@....            ",
"....@@@@....++++++++++++++++++++++++++++@@@@@@@@....            ",
"....@@@@....++++++++++++++++++++++++++++@@@@@@@@....            ",
"....@@@@....++++++++++++++++++++++++++++@@@@@@@@....            ",
"    ........++++@@@@@@@@@@@@@@@@@@@@++++@@@@....                ",
"    ........++++@@@@@@@@@@@@@@@@@@@@++++@@@@....                ",
"    ........++++@@@@@@@@@@@@@@@@@@@@++++@@@@....                ",
"    ........++++@@@@@@@@@@@@@@@@@@@@++++@@@@....                ",
"        ....++++....@@@@............++++@@@@....                ",
"        ....++++....@@@@............++++@@@@....                ",
"        ....++++....@@@@............++++@@@@....                ",
"        ....++++....@@@@............++++@@@@....                ",
"        ....++++....@@@@....    ....++++@@@@....                ",
"        ....++++....@@@@....    ....++++@@@@....                ",
"        ....++++....@@@@....    ....++++@@@@....                ",
"        ....++++....@@@@....    ....++++@@@@....                ",
"                                                                ",
"                                                                ",
"                                                                ",
"                                                                "};
