/* XPM */
static char * sprite_druid_16x16_xpm[] = {
"16 16 13 1",
" 	c None",
".	c #060608",
"+	c #403353",
"@	c #423934",
"#	c #E4D2AA",
"$	c #C7B08B",
"%	c #249FDE",
"&	c #285CC4",
"*	c #000000",
"=	c #DAE0EA",
"-	c #B3B9D1",
";	c #322B28",
">	c #8B93AF",
"                ",
"      ..    ..  ",
"    ..++.. .@@. ",
"   .#$%#$#..@.  ",
"    ..&#..*.@.  ",
"   .+.$.=...@.  ",
"   .+.===.$.@.  ",
"  .$.+.--..$#.  ",
" .#...$#.  .;.  ",
"  . .->>.  .@.  ",
"    .-->.  .@.  ",
"    .-->.  .@.  ",
"   .--->.  .@.  ",
"  .->---.  .@.  ",
"  .->---.  .@.  ",
"                "};
